  0
SECTION
  2
HEADER
  9
$ACADVER
  1
AC1009
  0
ENDSEC
  0
SECTION
  2
BLOCKS
  0
ENDSEC
  0
SECTION
  2
ENTITIES
  0
LINE
  8
CutLine
  6
CONTINUOUS
 62
8
 10
2845.123156
 20
549.764649
 11
2849.943075
 21
544.590832
  0
LINE
  8
CutLine
  6
CONTINUOUS
 62
8
 10
2849.943075
 20
544.590832
 11
2847.385177
 21
472.358324
  0
LINE
  8
CutLine
  6
CONTINUOUS
 62
8
 10
2847.385177
 20
472.358324
 11
2842.211360
 21
467.538405
  0
LINE
  8
CutLine
  6
CONTINUOUS
 62
8
 10
2720.439193
 20
502.391554
 11
2715.500241
 21
507.451866
  0
LINE
  8
CutLine
  6
CONTINUOUS
 62
8
 10
2715.500241
 20
507.451866
 11
2716.038921
 21
551.835356
  0
LINE
  8
CutLine
  6
CONTINUOUS
 62
8
 10
2716.038921
 20
551.835356
 11
2721.099233
 21
556.774308
  0
LINE
  8
CutLine
  6
CONTINUOUS
 62
8
 10
2740.998917
 20
384.198643
 11
2734.273738
 21
386.383126
  0
LINE
  8
CutLine
  6
CONTINUOUS
 62
8
 10
2734.273738
 20
386.383126
 11
2718.254710
 21
417.815335
  0
LINE
  8
CutLine
  6
CONTINUOUS
 62
8
 10
2718.254710
 20
417.815335
 11
2720.439193
 21
424.540514
  0
LINE
  8
CutLine
  6
CONTINUOUS
 62
8
 10
2843.817659
 20
377.319972
 11
2844.886598
 21
370.330168
  0
LINE
  8
CutLine
  6
CONTINUOUS
 62
8
 10
2844.886598
 20
370.330168
 11
2822.888884
 21
340.389624
  0
LINE
  8
CutLine
  6
CONTINUOUS
 62
8
 10
2822.888884
 20
340.389624
 11
2815.899079
 21
339.320685
  0
LINE
  8
CutLine
  6
CONTINUOUS
 62
8
 10
2847.846604
 20
305.859752
 11
2852.994036
 21
301.011665
  0
LINE
  8
CutLine
  6
CONTINUOUS
 62
8
 10
2852.994036
 20
301.011665
 11
2854.322734
 21
256.644798
  0
LINE
  8
CutLine
  6
CONTINUOUS
 62
8
 10
2854.322734
 20
256.644798
 11
2849.474647
 21
251.497366
  0
LINE
  8
CutLine
  6
CONTINUOUS
 62
8
 10
2830.073790
 20
133.107481
 11
2824.549626
 21
123.679316
  0
LINE
  8
CutLine
  6
CONTINUOUS
 62
8
 10
2824.549626
 20
123.679316
 11
2763.253647
 21
84.775555
  0
LINE
  8
CutLine
  6
CONTINUOUS
 62
8
 10
2763.253647
 20
84.775555
 11
2756.352799
 21
86.317728
  0
LINE
  8
MountainLine
  6
CONTINUOUS
 62
5
 10
2720.439193
 20
502.391554
 11
2842.211360
 21
467.538405
  0
LINE
  8
ValleyLine
  6
CONTINUOUS
 62
1
 10
2842.211360
 20
467.538405
 11
2845.123156
 21
549.764649
  0
LINE
  8
CutLine
  6
CONTINUOUS
 62
8
 10
2845.123156
 20
549.764649
 11
2721.099233
 21
556.774308
  0
LINE
  8
ValleyLine
  6
CONTINUOUS
 62
1
 10
2721.099233
 20
556.774308
 11
2720.439193
 21
502.391554
  0
LINE
  8
CutLine
  6
CONTINUOUS
 62
8
 10
2720.439193
 20
502.391554
 11
2720.439193
 21
424.540514
  0
LINE
  8
ValleyLine
  6
CONTINUOUS
 62
1
 10
2720.439193
 20
424.540514
 11
2740.998917
 21
384.198643
  0
LINE
  8
CutLine
  6
CONTINUOUS
 62
8
 10
2740.998917
 20
384.198643
 11
2815.899079
 21
339.320685
  0
LINE
  8
ValleyLine
  6
CONTINUOUS
 62
1
 10
2815.899079
 20
339.320685
 11
2843.817659
 21
377.319972
  0
LINE
  8
CutLine
  6
CONTINUOUS
 62
8
 10
2843.817659
 20
377.319972
 11
2842.211360
 21
467.538405
  0
LINE
  8
CutLine
  6
CONTINUOUS
 62
8
 10
2723.967118
 20
296.643363
 11
2728.342223
 21
214.481983
  0
LINE
  8
ValleyLine
  6
CONTINUOUS
 62
1
 10
2849.474647
 20
251.497366
 11
2847.846604
 21
305.859752
  0
LINE
  8
CutLine
  6
CONTINUOUS
 62
8
 10
2847.846604
 20
305.859752
 11
2723.967118
 21
296.643363
  0
LINE
  8
CutLine
  6
CONTINUOUS
 62
8
 10
2728.342223
 20
124.249252
 11
2756.352799
 21
86.317728
  0
LINE
  8
ValleyLine
  6
CONTINUOUS
 62
1
 10
2756.352799
 20
86.317728
 11
2830.073790
 21
133.107481
  0
LINE
  8
CutLine
  6
CONTINUOUS
 62
8
 10
2830.073790
 20
133.107481
 11
2850.234889
 21
173.650038
  0
LINE
  8
CutLine
  6
CONTINUOUS
 62
8
 10
2850.234889
 20
173.650038
 11
2849.474647
 21
251.497366
  0
LINE
  8
CutLine
  6
CONTINUOUS
 62
8
 10
2728.342223
 20
214.481983
 11
2728.342223
 21
124.249252
 0
TEXT
100
AcDbText
 8
Edge ID
100
AcDbText
10
2720.439193
20
463.466034
30
0.0
40
3.360000
72
1
11
2720.439193
21
463.466034
31
0.0
1
110
50
-90.000000
 0
TEXT
100
AcDbText
 8
Edge ID
100
AcDbText
10
2730.719055
20
404.369579
30
0.0
40
3.360000
72
1
11
2730.719055
21
404.369579
31
0.0
1
185
50
-62.994911
 0
TEXT
100
AcDbText
 8
Edge ID
100
AcDbText
10
2778.448998
20
361.759664
30
0.0
40
3.360000
72
1
11
2778.448998
21
361.759664
31
0.0
1
253
50
-30.928792
 0
TEXT
100
AcDbText
 8
Edge ID
100
AcDbText
10
2829.858369
20
358.320329
30
0.0
40
3.360000
72
1
11
2829.858369
21
358.320329
31
0.0
1
186
50
53.694782
 0
TEXT
100
AcDbText
 8
Edge ID
100
AcDbText
10
2843.014509
20
422.429189
30
0.0
40
3.360000
72
1
11
2843.014509
21
422.429189
31
0.0
1
233
50
91.020018
 0
TEXT
100
AcDbText
 8
Edge ID
100
AcDbText
10
2843.667258
20
508.651527
30
0.0
40
3.360000
72
1
11
2843.667258
21
508.651527
31
0.0
1
183
50
87.971889
 0
TEXT
100
AcDbText
 8
Edge ID
100
AcDbText
10
2783.111194
20
553.269479
30
0.0
40
3.360000
72
1
11
2783.111194
21
553.269479
31
0.0
1
103
50
176.765164
 0
TEXT
100
AcDbText
 8
Edge ID
100
AcDbText
10
2720.769213
20
529.582931
30
0.0
40
3.360000
72
1
11
2720.769213
21
529.582931
31
0.0
1
184
50
269.304639
 0
TEXT
100
AcDbText
 8
Edge ID
100
AcDbText
10
2742.347511
20
105.283490
30
0.0
40
3.360000
72
1
11
2742.347511
21
105.283490
31
0.0
1
436
50
-53.555945
 0
TEXT
100
AcDbText
 8
Edge ID
100
AcDbText
10
2793.213294
20
109.712604
30
0.0
40
3.360000
72
1
11
2793.213294
21
109.712604
31
0.0
1
388
50
32.402765
 0
TEXT
100
AcDbText
 8
Edge ID
100
AcDbText
10
2840.154339
20
153.378759
30
0.0
40
3.360000
72
1
11
2840.154339
21
153.378759
31
0.0
1
431
50
63.559651
 0
TEXT
100
AcDbText
 8
Edge ID
100
AcDbText
10
2849.854768
20
212.573702
30
0.0
40
3.360000
72
1
11
2849.854768
21
212.573702
31
0.0
1
295
50
90.559522
 0
TEXT
100
AcDbText
 8
Edge ID
100
AcDbText
10
2728.342223
20
169.365618
30
0.0
40
3.360000
72
1
11
2728.342223
21
169.365618
31
0.0
1
418
50
-90.000000
 0
TEXT
100
AcDbText
 8
Edge ID
100
AcDbText
10
2726.154671
20
255.562673
30
0.0
40
3.360000
72
1
11
2726.154671
21
255.562673
31
0.0
1
416
50
-86.951871
 0
TEXT
100
AcDbText
 8
Edge ID
100
AcDbText
10
2848.660626
20
278.678559
30
0.0
40
3.360000
72
1
11
2848.660626
21
278.678559
31
0.0
1
387
50
91.715379
 0
TEXT
100
AcDbText
 8
Edge ID
100
AcDbText
10
2785.906861
20
301.251557
30
0.0
40
3.360000
72
1
11
2785.906861
21
301.251557
31
0.0
1
290
50
184.254854
  0
ENDSEC
  0
EOF
