  0
SECTION
  2
HEADER
  9
$ACADVER
  1
AC1009
  0
ENDSEC
  0
SECTION
  2
BLOCKS
  0
ENDSEC
  0
SECTION
  2
ENTITIES
  0
LINE
  8
CutLine
  6
CONTINUOUS
 62
8
 10
824.774553
 20
10.947319
 11
819.361514
 21
6.397702
  0
LINE
  8
CutLine
  6
CONTINUOUS
 62
8
 10
819.361514
 20
6.397702
 11
761.166921
 21
11.441185
  0
LINE
  8
CutLine
  6
CONTINUOUS
 62
8
 10
761.166921
 20
11.441185
 11
756.617305
 21
16.854224
  0
LINE
  8
CutLine
  6
CONTINUOUS
 62
8
 10
644.241890
 20
137.741437
 11
643.927115
 21
144.805495
  0
LINE
  8
CutLine
  6
CONTINUOUS
 62
8
 10
643.927115
 20
144.805495
 11
687.673447
 21
192.632331
  0
LINE
  8
CutLine
  6
CONTINUOUS
 62
8
 10
687.673447
 20
192.632331
 11
694.737506
 21
192.947106
  0
LINE
  8
CutLine
  6
CONTINUOUS
 62
8
 10
625.002227
 20
391.518106
 11
628.337279
 21
397.753283
  0
LINE
  8
CutLine
  6
CONTINUOUS
 62
8
 10
628.337279
 20
397.753283
 11
693.487900
 21
417.496271
  0
LINE
  8
CutLine
  6
CONTINUOUS
 62
8
 10
790.120973
 20
512.613540
 11
795.928519
 21
508.579633
  0
LINE
  8
CutLine
  6
CONTINUOUS
 62
8
 10
795.928519
 20
508.579633
 11
800.894049
 21
481.027224
  0
LINE
  8
CutLine
  6
CONTINUOUS
 62
8
 10
800.894049
 20
481.027224
 11
796.860142
 21
475.219678
  0
LINE
  8
CutLine
  6
CONTINUOUS
 62
8
 10
621.267290
 20
410.159079
 11
616.159086
 21
415.211117
  0
LINE
  8
CutLine
  6
CONTINUOUS
 62
8
 10
616.159086
 20
415.211117
 11
612.284150
 21
598.029123
  0
LINE
  8
CutLine
  6
CONTINUOUS
 62
8
 10
612.284150
 20
598.029123
 11
617.177073
 21
603.133955
  0
LINE
  8
CutLine
  6
CONTINUOUS
 62
8
 10
893.631609
 20
80.219202
 11
890.011458
 21
74.145118
  0
LINE
  8
CutLine
  6
CONTINUOUS
 62
8
 10
890.011458
 20
74.145118
 11
847.290108
 21
63.330921
  0
LINE
  8
CutLine
  6
CONTINUOUS
 62
8
 10
847.290108
 20
63.330921
 11
841.216023
 21
66.951072
  0
LINE
  8
CutLine
  6
CONTINUOUS
 62
8
 10
856.339019
 20
105.227396
 11
863.280667
 21
106.574066
  0
LINE
  8
CutLine
  6
CONTINUOUS
 62
8
 10
863.280667
 20
106.574066
 11
880.673307
 21
94.833275
  0
LINE
  8
CutLine
  6
CONTINUOUS
 62
8
 10
880.673307
 20
94.833275
 11
882.019978
 21
87.891627
  0
LINE
  8
CutLine
  6
CONTINUOUS
 62
8
 10
774.682989
 20
50.487645
 11
768.640089
 21
46.815676
  0
LINE
  8
CutLine
  6
CONTINUOUS
 62
8
 10
768.640089
 20
46.815676
 11
741.265323
 21
53.496536
  0
LINE
  8
CutLine
  6
CONTINUOUS
 62
8
 10
741.265323
 20
53.496536
 11
737.593354
 21
59.539436
  0
LINE
  8
CutLine
  6
CONTINUOUS
 62
8
 10
724.734116
 20
103.911247
 11
717.981336
 21
101.813638
  0
LINE
  8
CutLine
  6
CONTINUOUS
 62
8
 10
717.981336
 20
101.813638
 11
691.725354
 21
115.623887
  0
LINE
  8
CutLine
  6
CONTINUOUS
 62
8
 10
691.725354
 20
115.623887
 11
689.627745
 21
122.376667
  0
LINE
  8
CutLine
  6
CONTINUOUS
 62
8
 10
637.149888
 20
36.638514
 11
670.717475
 21
54.441168
  0
LINE
  8
CutLine
  6
CONTINUOUS
 62
8
 10
670.717475
 20
54.441168
 11
661.298430
 21
58.839388
  0
LINE
  8
CutLine
  6
CONTINUOUS
 62
8
 10
661.298430
 20
58.839388
 11
652.856202
 21
62.746902
  0
LINE
  8
CutLine
  6
CONTINUOUS
 62
8
 10
652.856202
 20
62.746902
 11
645.448638
 21
68.374324
  0
LINE
  8
CutLine
  6
CONTINUOUS
 62
8
 10
645.448638
 20
68.374324
 11
637.149888
 21
74.634795
  0
LINE
  8
CutLine
  6
CONTINUOUS
 62
8
 10
637.149888
 20
74.634795
 11
637.149888
 21
36.638514
  0
LINE
  8
CutLine
  6
CONTINUOUS
 62
8
 10
774.682989
 20
50.487645
 11
756.617305
 21
16.854224
  0
LINE
  8
MountainLine
  6
CONTINUOUS
 62
5
 10
756.617305
 20
16.854224
 11
824.774553
 21
10.947319
  0
LINE
  8
CutLine
  6
CONTINUOUS
 62
8
 10
824.774553
 20
10.947319
 11
866.376339
 21
22.878255
  0
LINE
  8
ValleyLine
  6
CONTINUOUS
 62
1
 10
866.376339
 20
22.878255
 11
774.682989
 21
50.487645
  0
LINE
  8
ValleyLine
  6
CONTINUOUS
 62
1
 10
841.216023
 20
66.951072
 11
774.682989
 21
50.487645
  0
LINE
  8
CutLine
  6
CONTINUOUS
 62
8
 10
866.376339
 20
22.878255
 11
841.216023
 21
66.951072
  0
LINE
  8
CutLine
  6
CONTINUOUS
 62
8
 10
820.242623
 20
224.412771
 11
820.434844
 21
227.204060
  0
LINE
  8
CutLine
  6
CONTINUOUS
 62
8
 10
820.434844
 20
227.204060
 11
812.557913
 21
249.495066
  0
LINE
  8
CutLine
  6
CONTINUOUS
 62
8
 10
812.557913
 20
249.495066
 11
811.420848
 21
252.712867
  0
LINE
  8
CutLine
  6
CONTINUOUS
 62
8
 10
811.420848
 20
252.712867
 11
796.107866
 21
273.429779
  0
LINE
  8
CutLine
  6
CONTINUOUS
 62
8
 10
796.107866
 20
273.429779
 11
793.250156
 21
277.295997
  0
LINE
  8
CutLine
  6
CONTINUOUS
 62
8
 10
793.250156
 20
277.295997
 11
786.857233
 21
283.421300
  0
LINE
  8
CutLine
  6
CONTINUOUS
 62
8
 10
786.857233
 20
283.421300
 11
782.972663
 21
287.143260
  0
LINE
  8
ValleyLine
  6
CONTINUOUS
 62
1
 10
782.972663
 20
287.143260
 11
694.737506
 21
192.947106
  0
LINE
  8
ValleyLine
  6
CONTINUOUS
 62
1
 10
694.737506
 20
192.947106
 11
745.707072
 21
178.102473
  0
LINE
  8
MountainLine
  6
CONTINUOUS
 62
5
 10
745.707072
 20
178.102473
 11
823.695278
 21
161.700864
  0
LINE
  8
CutLine
  6
CONTINUOUS
 62
8
 10
823.695278
 20
161.700864
 11
833.822266
 21
218.178046
  0
LINE
  8
CutLine
  6
CONTINUOUS
 62
8
 10
833.822266
 20
218.178046
 11
820.242623
 21
224.412771
  0
LINE
  8
CutLine
  6
CONTINUOUS
 62
8
 10
644.241890
 20
137.741437
 11
745.707072
 21
178.102473
  0
LINE
  8
ValleyLine
  6
CONTINUOUS
 62
1
 10
694.737506
 20
192.947106
 11
644.241890
 21
137.741437
  0
LINE
  8
CutLine
  6
CONTINUOUS
 62
8
 10
625.002227
 20
391.518106
 11
694.737506
 21
192.947106
  0
LINE
  8
CutLine
  6
CONTINUOUS
 62
8
 10
782.972663
 20
287.143260
 11
777.747670
 21
295.630359
  0
LINE
  8
CutLine
  6
CONTINUOUS
 62
8
 10
777.747670
 20
295.630359
 11
775.139384
 21
299.867066
  0
LINE
  8
CutLine
  6
CONTINUOUS
 62
8
 10
775.139384
 20
299.867066
 11
769.063678
 21
322.285378
  0
LINE
  8
CutLine
  6
CONTINUOUS
 62
8
 10
769.063678
 20
322.285378
 11
767.417285
 21
328.360282
  0
LINE
  8
CutLine
  6
CONTINUOUS
 62
8
 10
767.417285
 20
328.360282
 11
766.552071
 21
353.175881
  0
LINE
  8
CutLine
  6
CONTINUOUS
 62
8
 10
766.552071
 20
353.175881
 11
766.260942
 21
361.525778
  0
LINE
  8
CutLine
  6
CONTINUOUS
 62
8
 10
766.260942
 20
361.525778
 11
768.699668
 21
377.875156
  0
LINE
  8
ValleyLine
  6
CONTINUOUS
 62
1
 10
768.699668
 20
377.875156
 11
719.423594
 21
420.131186
  0
LINE
  8
ValleyLine
  6
CONTINUOUS
 62
1
 10
719.423594
 20
420.131186
 11
625.002227
 21
391.518106
  0
LINE
  8
CutLine
  6
CONTINUOUS
 62
8
 10
768.699668
 20
377.875156
 11
772.800189
 21
383.578591
  0
LINE
  8
CutLine
  6
CONTINUOUS
 62
8
 10
772.800189
 20
383.578591
 11
777.366309
 21
389.929663
  0
LINE
  8
CutLine
  6
CONTINUOUS
 62
8
 10
777.366309
 20
389.929663
 11
785.279442
 21
406.991657
  0
LINE
  8
CutLine
  6
CONTINUOUS
 62
8
 10
785.279442
 20
406.991657
 11
788.833582
 21
414.654964
  0
LINE
  8
CutLine
  6
CONTINUOUS
 62
8
 10
788.833582
 20
414.654964
 11
793.399026
 21
432.532307
  0
LINE
  8
CutLine
  6
CONTINUOUS
 62
8
 10
793.399026
 20
432.532307
 11
795.651108
 21
441.350977
  0
LINE
  8
CutLine
  6
CONTINUOUS
 62
8
 10
795.651108
 20
441.350977
 11
796.886567
 21
459.269745
  0
LINE
  8
CutLine
  6
CONTINUOUS
 62
8
 10
796.886567
 20
459.269745
 11
797.556888
 21
468.991816
  0
LINE
  8
CutLine
  6
CONTINUOUS
 62
8
 10
797.556888
 20
468.991816
 11
796.860142
 21
475.219678
  0
LINE
  8
ValleyLine
  6
CONTINUOUS
 62
1
 10
796.860142
 20
475.219678
 11
790.120973
 21
512.613540
  0
LINE
  8
ValleyLine
  6
CONTINUOUS
 62
1
 10
790.120973
 20
512.613540
 11
719.423594
 21
420.131186
  0
LINE
  8
CutLine
  6
CONTINUOUS
 62
8
 10
790.120973
 20
512.613540
 11
617.177073
 21
603.133955
  0
LINE
  8
ValleyLine
  6
CONTINUOUS
 62
1
 10
617.177073
 20
603.133955
 11
621.267290
 21
410.159079
  0
LINE
  8
CutLine
  6
CONTINUOUS
 62
8
 10
621.267290
 20
410.159079
 11
719.423594
 21
420.131186
  0
LINE
  8
ValleyLine
  6
CONTINUOUS
 62
1
 10
841.216023
 20
66.951072
 11
893.631609
 21
80.219202
  0
LINE
  8
CutLine
  6
CONTINUOUS
 62
8
 10
893.631609
 20
80.219202
 11
882.019978
 21
87.891627
  0
LINE
  8
ValleyLine
  6
CONTINUOUS
 62
1
 10
882.019978
 20
87.891627
 11
856.339019
 21
105.227396
  0
LINE
  8
ValleyLine
  6
CONTINUOUS
 62
1
 10
856.339019
 20
105.227396
 11
841.216023
 21
66.951072
  0
LINE
  8
CutLine
  6
CONTINUOUS
 62
8
 10
856.339019
 20
105.227396
 11
823.695278
 21
161.700864
  0
LINE
  8
CutLine
  6
CONTINUOUS
 62
8
 10
745.707072
 20
178.102473
 11
727.729079
 21
137.198157
  0
LINE
  8
CutLine
  6
CONTINUOUS
 62
8
 10
724.734116
 20
103.911247
 11
737.593354
 21
59.539436
  0
LINE
  8
ValleyLine
  6
CONTINUOUS
 62
1
 10
737.593354
 20
59.539436
 11
774.682989
 21
50.487645
  0
LINE
  8
ValleyLine
  6
CONTINUOUS
 62
1
 10
689.627745
 20
122.376667
 11
724.734116
 21
103.911247
  0
LINE
  8
CutLine
  6
CONTINUOUS
 62
8
 10
727.729079
 20
137.198157
 11
689.627745
 21
122.376667
 0
TEXT
100
AcDbText
 8
Edge ID
100
AcDbText
10
637.149888
20
55.636655
30
0.0
40
3.360000
72
1
11
637.149888
21
55.636655
31
0.0
1
172
50
-90.000000
 0
TEXT
100
AcDbText
 8
Edge ID
100
AcDbText
10
653.933682
20
45.539841
30
0.0
40
3.360000
72
1
11
653.933682
21
45.539841
31
0.0
1
378
50
27.939356
 0
TEXT
100
AcDbText
 8
Edge ID
100
AcDbText
10
707.180930
20
113.143957
30
0.0
40
3.360000
72
1
11
707.180930
21
113.143957
31
0.0
1
383
50
-27.743691
 0
TEXT
100
AcDbText
 8
Edge ID
100
AcDbText
10
708.678412
20
129.787412
30
0.0
40
3.360000
72
1
11
708.678412
21
129.787412
31
0.0
1
326
50
201.256128
 0
TEXT
100
AcDbText
 8
Edge ID
100
AcDbText
10
703.649023
20
557.873747
30
0.0
40
3.360000
72
1
11
703.649023
21
557.873747
31
0.0
1
174
50
152.372030
 0
TEXT
100
AcDbText
 8
Edge ID
100
AcDbText
10
619.222182
20
506.646517
30
0.0
40
3.360000
72
1
11
619.222182
21
506.646517
31
0.0
1
379
50
-88.785764
 0
TEXT
100
AcDbText
 8
Edge ID
100
AcDbText
10
670.345442
20
415.145132
30
0.0
40
3.360000
72
1
11
670.345442
21
415.145132
31
0.0
1
377
50
5.801013
 0
TEXT
100
AcDbText
 8
Edge ID
100
AcDbText
10
853.796181
20
44.914663
30
0.0
40
3.360000
72
1
11
853.796181
21
44.914663
31
0.0
1
324
50
119.721207
 0
TEXT
100
AcDbText
 8
Edge ID
100
AcDbText
10
869.179499
20
96.559511
30
0.0
40
3.360000
72
1
11
869.179499
21
96.559511
31
0.0
1
381
50
145.978932
 0
TEXT
100
AcDbText
 8
Edge ID
100
AcDbText
10
867.423816
20
73.585137
30
0.0
40
3.360000
72
1
11
867.423816
21
73.585137
31
0.0
1
380
50
14.205083
 0
TEXT
100
AcDbText
 8
Edge ID
100
AcDbText
10
887.825794
20
84.055415
30
0.0
40
3.360000
72
1
11
887.825794
21
84.055415
31
0.0
1
355
50
146.545131
 0
TEXT
100
AcDbText
 8
Edge ID
100
AcDbText
10
793.490557
20
493.916609
30
0.0
40
3.360000
72
1
11
793.490557
21
493.916609
31
0.0
1
378
50
100.216253
 0
TEXT
100
AcDbText
 8
Edge ID
100
AcDbText
10
765.650147
20
33.670935
30
0.0
40
3.360000
72
1
11
765.650147
21
33.670935
31
0.0
1
382
50
241.758203
 0
TEXT
100
AcDbText
 8
Edge ID
100
AcDbText
10
790.695929
20
13.900772
30
0.0
40
3.360000
72
1
11
790.695929
21
13.900772
31
0.0
1
375
50
-4.953210
 0
TEXT
100
AcDbText
 8
Edge ID
100
AcDbText
10
845.575446
20
16.912787
30
0.0
40
3.360000
72
1
11
845.575446
21
16.912787
31
0.0
1
422
50
16.002311
 0
TEXT
100
AcDbText
 8
Edge ID
100
AcDbText
10
694.974481
20
157.921955
30
0.0
40
3.360000
72
1
11
694.974481
21
157.921955
31
0.0
1
384
50
21.691779
 0
TEXT
100
AcDbText
 8
Edge ID
100
AcDbText
10
669.489698
20
165.344271
30
0.0
40
3.360000
72
1
11
669.489698
21
165.344271
31
0.0
1
376
50
227.551414
 0
TEXT
100
AcDbText
 8
Edge ID
100
AcDbText
10
672.212910
20
405.824646
30
0.0
40
3.360000
72
1
11
672.212910
21
405.824646
31
0.0
1
377
50
196.858701
 0
TEXT
100
AcDbText
 8
Edge ID
100
AcDbText
10
659.869866
20
292.232606
30
0.0
40
3.360000
72
1
11
659.869866
21
292.232606
31
0.0
1
417
50
-70.649459
 0
TEXT
100
AcDbText
 8
Edge ID
100
AcDbText
10
840.017148
20
133.464130
30
0.0
40
3.360000
72
1
11
840.017148
21
133.464130
31
0.0
1
203
50
120.029491
 0
TEXT
100
AcDbText
 8
Edge ID
100
AcDbText
10
736.718076
20
157.650315
30
0.0
40
3.360000
72
1
11
736.718076
21
157.650315
31
0.0
1
386
50
246.273870
 0
TEXT
100
AcDbText
 8
Edge ID
100
AcDbText
10
731.163735
20
81.725342
30
0.0
40
3.360000
72
1
11
731.163735
21
81.725342
31
0.0
1
424
50
-73.838070
 0
TEXT
100
AcDbText
 8
Edge ID
100
AcDbText
10
756.138171
20
55.013541
30
0.0
40
3.360000
72
1
11
756.138171
21
55.013541
31
0.0
1
382
50
-13.715036
  0
ENDSEC
  0
EOF
