  0
SECTION
  2
HEADER
  9
$ACADVER
  1
AC1009
  0
ENDSEC
  0
SECTION
  2
BLOCKS
  0
ENDSEC
  0
SECTION
  2
ENTITIES
  0
LINE
  8
CutLine
  6
CONTINUOUS
 62
8
 10
1500.000000
 20
465.055998
 11
1503.272400
 21
466.339055
  0
LINE
  8
CutLine
  6
CONTINUOUS
 62
8
 10
1503.272400
 20
466.339055
 11
1527.130926
 21
455.920165
  0
LINE
  8
CutLine
  6
CONTINUOUS
 62
8
 10
1538.888105
 20
391.381236
 11
1531.974886
 21
392.866970
  0
LINE
  8
CutLine
  6
CONTINUOUS
 62
8
 10
1531.974886
 20
392.866970
 11
1520.068717
 21
411.291587
  0
LINE
  8
CutLine
  6
CONTINUOUS
 62
8
 10
1520.068717
 20
411.291587
 11
1521.554450
 21
418.204806
  0
LINE
  8
CutLine
  6
CONTINUOUS
 62
8
 10
1709.011026
 20
333.329717
 11
1715.611341
 21
330.792819
  0
LINE
  8
CutLine
  6
CONTINUOUS
 62
8
 10
1715.611341
 20
330.792819
 11
1729.157398
 21
300.332444
  0
LINE
  8
CutLine
  6
CONTINUOUS
 62
8
 10
1729.157398
 20
300.332444
 11
1727.442034
 21
291.884786
  0
LINE
  8
CutLine
  6
CONTINUOUS
 62
8
 10
1664.414372
 20
312.450972
 11
1657.939230
 21
309.609751
  0
LINE
  8
CutLine
  6
CONTINUOUS
 62
8
 10
1657.939230
 20
309.609751
 11
1603.298205
 21
330.922909
  0
LINE
  8
CutLine
  6
CONTINUOUS
 62
8
 10
1603.298205
 20
330.922909
 11
1600.456983
 21
337.398051
  0
LINE
  8
CutLine
  6
CONTINUOUS
 62
8
 10
1648.684438
 20
398.896730
 11
1665.760195
 21
388.181175
  0
LINE
  8
CutLine
  6
CONTINUOUS
 62
8
 10
1665.760195
 20
388.181175
 11
1667.337667
 21
381.288311
  0
LINE
  8
CutLine
  6
CONTINUOUS
 62
8
 10
1624.038828
 20
580.641739
 11
1630.750053
 21
585.641739
  0
LINE
  8
CutLine
  6
CONTINUOUS
 62
8
 10
1630.750053
 20
585.641739
 11
1699.304418
 21
585.641739
  0
LINE
  8
CutLine
  6
CONTINUOUS
 62
8
 10
1699.304418
 20
585.641739
 11
1704.304418
 21
580.641739
  0
LINE
  8
CutLine
  6
CONTINUOUS
 62
8
 10
1642.851350
 20
529.119149
 11
1636.439726
 21
532.100941
  0
LINE
  8
CutLine
  6
CONTINUOUS
 62
8
 10
1636.439726
 20
532.100941
 11
1621.057037
 21
574.230116
  0
LINE
  8
CutLine
  6
CONTINUOUS
 62
8
 10
1621.057037
 20
574.230116
 11
1624.038828
 21
580.641739
  0
LINE
  8
CutLine
  6
CONTINUOUS
 62
8
 10
1753.340587
 20
462.739514
 11
1759.969868
 21
460.279303
  0
LINE
  8
CutLine
  6
CONTINUOUS
 62
8
 10
1759.969868
 20
460.279303
 11
1783.440995
 21
409.107084
  0
LINE
  8
CutLine
  6
CONTINUOUS
 62
8
 10
1783.440995
 20
409.107084
 11
1780.980785
 21
402.477803
  0
LINE
  8
CutLine
  6
CONTINUOUS
 62
8
 10
1704.304418
 20
580.641739
 11
1710.571214
 21
577.366488
  0
LINE
  8
CutLine
  6
CONTINUOUS
 62
8
 10
1710.571214
 20
577.366488
 11
1725.377879
 21
530.138087
  0
LINE
  8
CutLine
  6
CONTINUOUS
 62
8
 10
1725.377879
 20
530.138087
 11
1722.102628
 21
523.871291
  0
LINE
  8
CutLine
  6
CONTINUOUS
 62
8
 10
1699.383218
 20
442.912335
 11
1682.111138
 21
468.337003
  0
LINE
  8
CutLine
  6
CONTINUOUS
 62
8
 10
1682.111138
 20
468.337003
 11
1683.437340
 21
475.282591
  0
LINE
  8
CutLine
  6
CONTINUOUS
 62
8
 10
1736.087657
 20
395.997718
 11
1731.077716
 21
391.007679
  0
LINE
  8
CutLine
  6
CONTINUOUS
 62
8
 10
1731.077716
 20
391.007679
 11
1677.542827
 21
391.114232
  0
LINE
  8
CutLine
  6
CONTINUOUS
 62
8
 10
1677.542827
 20
391.114232
 11
1672.552789
 21
396.124174
  0
LINE
  8
CutLine
  6
CONTINUOUS
 62
8
 10
1604.590800
 20
478.666638
 11
1611.119782
 21
481.381854
  0
LINE
  8
CutLine
  6
CONTINUOUS
 62
8
 10
1611.119782
 20
481.381854
 11
1664.200930
 21
459.482807
  0
LINE
  8
CutLine
  6
CONTINUOUS
 62
8
 10
1664.200930
 20
459.482807
 11
1666.916146
 21
452.953825
  0
LINE
  8
CutLine
  6
CONTINUOUS
 62
8
 10
1611.506905
 20
12.218800
 11
1604.437060
 21
12.350308
  0
LINE
  8
CutLine
  6
CONTINUOUS
 62
8
 10
1604.437060
 20
12.350308
 11
1575.367081
 21
42.522262
  0
LINE
  8
CutLine
  6
CONTINUOUS
 62
8
 10
1575.367081
 20
42.522262
 11
1575.498589
 21
49.592107
  0
LINE
  8
CutLine
  6
CONTINUOUS
 62
8
 10
1517.856482
 20
218.374903
 11
1512.856482
 21
223.374903
  0
LINE
  8
CutLine
  6
CONTINUOUS
 62
8
 10
1512.856482
 20
223.374903
 11
1512.856482
 21
278.301111
  0
LINE
  8
CutLine
  6
CONTINUOUS
 62
8
 10
1512.856482
 20
278.301111
 11
1517.856482
 21
284.673125
  0
LINE
  8
CutLine
  6
CONTINUOUS
 62
8
 10
1551.539461
 20
254.294821
 11
1558.398676
 21
252.576925
  0
LINE
  8
CutLine
  6
CONTINUOUS
 62
8
 10
1558.398676
 20
252.576925
 11
1585.922727
 21
206.659366
  0
LINE
  8
CutLine
  6
CONTINUOUS
 62
8
 10
1585.922727
 20
206.659366
 11
1584.204831
 21
199.800151
  0
LINE
  8
CutLine
  6
CONTINUOUS
 62
8
 10
1521.352851
 20
90.340006
 11
1516.384888
 21
95.371840
  0
LINE
  8
CutLine
  6
CONTINUOUS
 62
8
 10
1516.384888
 20
95.371840
 11
1516.701019
 21
144.865873
  0
LINE
  8
CutLine
  6
CONTINUOUS
 62
8
 10
1516.701019
 20
144.865873
 11
1521.732852
 21
149.833835
  0
LINE
  8
CutLine
  6
CONTINUOUS
 62
8
 10
1785.234911
 20
175.266224
 11
1788.506784
 21
168.997664
  0
LINE
  8
CutLine
  6
CONTINUOUS
 62
8
 10
1788.506784
 20
168.997664
 11
1767.963184
 21
103.593830
  0
LINE
  8
CutLine
  6
CONTINUOUS
 62
8
 10
1767.963184
 20
103.593830
 11
1761.181824
 21
98.689374
  0
LINE
  8
CutLine
  6
CONTINUOUS
 62
8
 10
1717.664565
 20
132.077044
 11
1710.689445
 21
133.237947
  0
LINE
  8
CutLine
  6
CONTINUOUS
 62
8
 10
1710.689445
 20
133.237947
 11
1677.303605
 21
179.955849
  0
LINE
  8
CutLine
  6
CONTINUOUS
 62
8
 10
1677.303605
 20
179.955849
 11
1678.464508
 21
186.930969
  0
LINE
  8
CutLine
  6
CONTINUOUS
 62
8
 10
1687.445686
 20
257.380463
 11
1694.516490
 21
257.441619
  0
LINE
  8
CutLine
  6
CONTINUOUS
 62
8
 10
1694.516490
 20
257.441619
 11
1736.345855
 21
216.329618
  0
LINE
  8
CutLine
  6
CONTINUOUS
 62
8
 10
1736.345855
 20
216.329618
 11
1736.407011
 21
209.258815
  0
LINE
  8
CutLine
  6
CONTINUOUS
 62
8
 10
1618.600959
 20
260.920850
 11
1616.258199
 21
267.592542
  0
LINE
  8
CutLine
  6
CONTINUOUS
 62
8
 10
1616.258199
 20
267.592542
 11
1631.564615
 21
299.466200
  0
LINE
  8
CutLine
  6
CONTINUOUS
 62
8
 10
1631.564615
 20
299.466200
 11
1638.236307
 21
301.808959
  0
LINE
  8
CutLine
  6
CONTINUOUS
 62
8
 10
1658.065194
 20
110.693861
 11
1662.737825
 21
105.386647
  0
LINE
  8
CutLine
  6
CONTINUOUS
 62
8
 10
1662.737825
 20
105.386647
 11
1659.891741
 21
60.627354
  0
LINE
  8
CutLine
  6
CONTINUOUS
 62
8
 10
1659.891741
 20
60.627354
 11
1654.584527
 21
55.954723
  0
LINE
  8
CutLine
  6
CONTINUOUS
 62
8
 10
1657.368015
 20
213.574548
 11
1657.232938
 21
182.838245
  0
LINE
  8
CutLine
  6
CONTINUOUS
 62
8
 10
1657.232938
 20
182.838245
 11
1652.211013
 21
177.860267
  0
LINE
  8
CutLine
  6
CONTINUOUS
 62
8
 10
1590.087072
 20
176.679811
 11
1593.833021
 21
196.294623
  0
LINE
  8
CutLine
  6
CONTINUOUS
 62
8
 10
1593.833021
 20
196.294623
 11
1599.682190
 21
200.267938
  0
LINE
  8
CutLine
  6
CONTINUOUS
 62
8
 10
1620.792879
 20
13.904526
 11
1614.343634
 21
18.905859
  0
LINE
  8
CutLine
  6
CONTINUOUS
 62
8
 10
1614.343634
 20
18.905859
 11
1608.219330
 21
42.714784
  0
LINE
  8
CutLine
  6
CONTINUOUS
 62
8
 10
1500.000000
 20
457.692628
 11
1521.554450
 21
418.204806
  0
LINE
  8
ValleyLine
  6
CONTINUOUS
 62
1
 10
1521.554450
 20
418.204806
 11
1556.645700
 21
437.575257
  0
LINE
  8
ValleyLine
  6
CONTINUOUS
 62
1
 10
1556.645700
 20
437.575257
 11
1500.000000
 21
462.312129
  0
LINE
  8
ValleyLine
  6
CONTINUOUS
 62
1
 10
1538.888105
 20
391.381236
 11
1637.141027
 21
400.237616
  0
LINE
  8
ValleyLine
  6
CONTINUOUS
 62
1
 10
1637.141027
 20
400.237616
 11
1556.645700
 21
437.575257
  0
LINE
  8
MountainLine
  6
CONTINUOUS
 62
5
 10
1521.554450
 20
418.204806
 11
1538.888105
 21
391.381236
  0
LINE
  8
CutLine
  6
CONTINUOUS
 62
8
 10
1664.414372
 20
312.450972
 11
1727.442034
 21
291.884786
  0
LINE
  8
ValleyLine
  6
CONTINUOUS
 62
1
 10
1727.442034
 20
291.884786
 11
1709.011026
 21
333.329717
  0
LINE
  8
MountainLine
  6
CONTINUOUS
 62
5
 10
1667.337667
 20
381.288311
 11
1600.456983
 21
337.398051
  0
LINE
  8
ValleyLine
  6
CONTINUOUS
 62
1
 10
1600.456983
 20
337.398051
 11
1664.414372
 21
312.450972
  0
LINE
  8
CutLine
  6
CONTINUOUS
 62
8
 10
1709.011026
 20
333.329717
 11
1667.337667
 21
381.288311
  0
LINE
  8
ValleyLine
  6
CONTINUOUS
 62
1
 10
1667.337667
 20
381.288311
 11
1637.141027
 21
400.237616
  0
LINE
  8
CutLine
  6
CONTINUOUS
 62
8
 10
1538.888105
 20
391.381236
 11
1543.392331
 21
354.229139
  0
LINE
  8
CutLine
  6
CONTINUOUS
 62
8
 10
1543.392331
 20
354.229139
 11
1600.456983
 21
337.398051
  0
LINE
  8
ValleyLine
  6
CONTINUOUS
 62
1
 10
1704.304418
 20
580.641739
 11
1624.038828
 21
580.641739
  0
LINE
  8
ValleyLine
  6
CONTINUOUS
 62
1
 10
1624.038828
 20
580.641739
 11
1642.851350
 21
529.119149
  0
LINE
  8
ValleyLine
  6
CONTINUOUS
 62
1
 10
1780.980785
 20
402.477803
 11
1753.340587
 21
462.739514
  0
LINE
  8
ValleyLine
  6
CONTINUOUS
 62
1
 10
1707.035717
 20
440.545553
 11
1780.980785
 21
402.477803
  0
LINE
  8
ValleyLine
  6
CONTINUOUS
 62
1
 10
1722.102628
 20
523.871291
 11
1704.304418
 21
580.641739
  0
LINE
  8
CutLine
  6
CONTINUOUS
 62
8
 10
1642.851350
 20
529.119149
 11
1683.437340
 21
475.282591
  0
LINE
  8
MountainLine
  6
CONTINUOUS
 62
5
 10
1683.437340
 20
475.282591
 11
1722.102628
 21
523.871291
  0
LINE
  8
CutLine
  6
CONTINUOUS
 62
8
 10
1753.340587
 20
462.739514
 11
1722.102628
 21
523.871291
  0
LINE
  8
ValleyLine
  6
CONTINUOUS
 62
1
 10
1683.437340
 20
475.282591
 11
1707.035717
 21
440.545553
  0
LINE
  8
ValleyLine
  6
CONTINUOUS
 62
1
 10
1672.552789
 20
396.124174
 11
1736.087657
 21
395.997718
  0
LINE
  8
ValleyLine
  6
CONTINUOUS
 62
1
 10
1736.087657
 20
395.997718
 11
1707.035717
 21
440.545553
  0
LINE
  8
ValleyLine
  6
CONTINUOUS
 62
1
 10
1707.035717
 20
440.545553
 11
1672.552789
 21
396.124174
  0
LINE
  8
CutLine
  6
CONTINUOUS
 62
8
 10
1736.087657
 20
395.997718
 11
1780.980785
 21
402.477803
  0
LINE
  8
CutLine
  6
CONTINUOUS
 62
8
 10
1604.590800
 20
478.666638
 11
1551.324243
 21
491.749539
  0
LINE
  8
MountainLine
  6
CONTINUOUS
 62
5
 10
1551.324243
 20
491.749539
 11
1556.645700
 21
437.575257
  0
LINE
  8
ValleyLine
  6
CONTINUOUS
 62
1
 10
1556.645700
 20
437.575257
 11
1604.590800
 21
478.666638
  0
LINE
  8
ValleyLine
  6
CONTINUOUS
 62
1
 10
1666.916146
 20
452.953825
 11
1604.590800
 21
478.666638
  0
LINE
  8
CutLine
  6
CONTINUOUS
 62
8
 10
1707.035717
 20
440.545553
 11
1666.916146
 21
452.953825
  0
LINE
  8
CutLine
  6
CONTINUOUS
 62
8
 10
1637.141027
 20
400.237616
 11
1672.552789
 21
396.124174
  0
LINE
  8
CutLine
  6
CONTINUOUS
 62
8
 10
1551.324243
 20
491.749539
 11
1501.080234
 21
472.111972
  0
LINE
  8
CutLine
  6
CONTINUOUS
 62
8
 10
1501.080234
 20
472.111972
 11
1556.645700
 21
437.575257
  0
LINE
  8
MountainLine
  6
CONTINUOUS
 62
5
 10
1575.498589
 20
49.592107
 11
1611.506905
 21
12.218800
  0
LINE
  8
CutLine
  6
CONTINUOUS
 62
8
 10
1611.506905
 20
12.218800
 11
1604.494590
 21
77.265961
  0
LINE
  8
ValleyLine
  6
CONTINUOUS
 62
1
 10
1604.494590
 20
77.265961
 11
1575.498589
 21
49.592107
  0
LINE
  8
CutLine
  6
CONTINUOUS
 62
8
 10
1555.102096
 20
74.167349
 11
1575.498589
 21
49.592107
  0
LINE
  8
ValleyLine
  6
CONTINUOUS
 62
1
 10
1604.494590
 20
77.265961
 11
1592.994795
 21
165.250913
  0
LINE
  8
ValleyLine
  6
CONTINUOUS
 62
1
 10
1592.994795
 20
165.250913
 11
1555.102096
 21
74.167349
  0
LINE
  8
CutLine
  6
CONTINUOUS
 62
8
 10
1551.539461
 20
254.294821
 11
1517.856482
 21
284.673125
  0
LINE
  8
ValleyLine
  6
CONTINUOUS
 62
1
 10
1517.856482
 20
284.673125
 11
1517.856482
 21
218.374903
  0
LINE
  8
CutLine
  6
CONTINUOUS
 62
8
 10
1517.856482
 20
218.374903
 11
1521.732852
 21
149.833835
  0
LINE
  8
ValleyLine
  6
CONTINUOUS
 62
1
 10
1584.204831
 20
199.800151
 11
1551.539461
 21
254.294821
  0
LINE
  8
CutLine
  6
CONTINUOUS
 62
8
 10
1521.352851
 20
90.340006
 11
1555.102096
 21
74.167349
  0
LINE
  8
CutLine
  6
CONTINUOUS
 62
8
 10
1592.994795
 20
165.250913
 11
1584.204831
 21
199.800151
  0
LINE
  8
ValleyLine
  6
CONTINUOUS
 62
1
 10
1521.732852
 20
149.833835
 11
1521.352851
 21
90.340006
  0
LINE
  8
ValleyLine
  6
CONTINUOUS
 62
1
 10
1761.181824
 20
98.689374
 11
1785.234911
 21
175.266224
  0
LINE
  8
CutLine
  6
CONTINUOUS
 62
8
 10
1717.664565
 20
132.077044
 11
1761.181824
 21
98.689374
  0
LINE
  8
CutLine
  6
CONTINUOUS
 62
8
 10
1687.445686
 20
257.380463
 11
1638.236307
 21
301.808959
  0
LINE
  8
ValleyLine
  6
CONTINUOUS
 62
1
 10
1638.236307
 20
301.808959
 11
1652.395565
 21
219.854447
  0
LINE
  8
MountainLine
  6
CONTINUOUS
 62
5
 10
1736.407011
 20
209.258815
 11
1678.464508
 21
186.930969
  0
LINE
  8
ValleyLine
  6
CONTINUOUS
 62
1
 10
1678.464508
 20
186.930969
 11
1717.664565
 21
132.077044
  0
LINE
  8
CutLine
  6
CONTINUOUS
 62
8
 10
1785.234911
 20
175.266224
 11
1736.407011
 21
209.258815
  0
LINE
  8
CutLine
  6
CONTINUOUS
 62
8
 10
1652.395565
 20
219.854447
 11
1678.464508
 21
186.930969
  0
LINE
  8
ValleyLine
  6
CONTINUOUS
 62
1
 10
1736.407011
 20
209.258815
 11
1687.445686
 21
257.380463
  0
LINE
  8
CutLine
  6
CONTINUOUS
 62
8
 10
1618.600959
 20
260.920850
 11
1599.682190
 21
200.267938
  0
LINE
  8
ValleyLine
  6
CONTINUOUS
 62
1
 10
1599.682190
 20
200.267938
 11
1652.395565
 21
219.854447
  0
LINE
  8
ValleyLine
  6
CONTINUOUS
 62
1
 10
1652.395565
 20
219.854447
 11
1618.600959
 21
260.920850
  0
LINE
  8
ValleyLine
  6
CONTINUOUS
 62
1
 10
1638.236307
 20
301.808959
 11
1618.600959
 21
260.920850
  0
LINE
  8
ValleyLine
  6
CONTINUOUS
 62
1
 10
1654.584527
 20
55.954723
 11
1658.065194
 21
110.693861
  0
LINE
  8
ValleyLine
  6
CONTINUOUS
 62
1
 10
1658.065194
 20
110.693861
 11
1604.494590
 21
77.265961
  0
LINE
  8
MountainLine
  6
CONTINUOUS
 62
5
 10
1604.494590
 20
77.265961
 11
1654.584527
 21
55.954723
  0
LINE
  8
CutLine
  6
CONTINUOUS
 62
8
 10
1658.065194
 20
110.693861
 11
1652.211013
 21
177.860267
  0
LINE
  8
ValleyLine
  6
CONTINUOUS
 62
1
 10
1652.211013
 20
177.860267
 11
1652.395565
 21
219.854447
  0
LINE
  8
ValleyLine
  6
CONTINUOUS
 62
1
 10
1599.682190
 20
200.267938
 11
1592.994795
 21
165.250913
  0
LINE
  8
ValleyLine
  6
CONTINUOUS
 62
1
 10
1604.494590
 20
77.265961
 11
1620.792879
 21
13.904526
  0
LINE
  8
CutLine
  6
CONTINUOUS
 62
8
 10
1620.792879
 20
13.904526
 11
1654.584527
 21
55.954723
 0
TEXT
100
AcDbText
 8
Edge ID
100
AcDbText
10
1652.239347
20
390.762963
30
0.0
40
3.360000
72
1
11
1652.239347
21
390.762963
31
0.0
1
48
50
147.890485
 0
TEXT
100
AcDbText
 8
Edge ID
100
AcDbText
10
1541.140218
20
372.805188
30
0.0
40
3.360000
72
1
11
1541.140218
21
372.805188
31
0.0
1
76
50
-83.087341
 0
TEXT
100
AcDbText
 8
Edge ID
100
AcDbText
10
1571.924657
20
345.813595
30
0.0
40
3.360000
72
1
11
1571.924657
21
345.813595
31
0.0
1
52
50
-16.433303
 0
TEXT
100
AcDbText
 8
Edge ID
100
AcDbText
10
1686.975931
20
446.749689
30
0.0
40
3.360000
72
1
11
1686.975931
21
446.749689
31
0.0
1
53
50
162.814089
 0
TEXT
100
AcDbText
 8
Edge ID
100
AcDbText
10
1654.846908
20
398.180895
30
0.0
40
3.360000
72
1
11
1654.846908
21
398.180895
31
0.0
1
48
50
-6.625803
 0
TEXT
100
AcDbText
 8
Edge ID
100
AcDbText
10
1737.721608
20
493.305402
30
0.0
40
3.360000
72
1
11
1737.721608
21
493.305402
31
0.0
1
47
50
117.066751
 0
TEXT
100
AcDbText
 8
Edge ID
100
AcDbText
10
1695.236528
20
457.914072
30
0.0
40
3.360000
72
1
11
1695.236528
21
457.914072
31
0.0
1
53
50
-55.810031
 0
TEXT
100
AcDbText
 8
Edge ID
100
AcDbText
10
1713.203523
20
552.256515
30
0.0
40
3.360000
72
1
11
1713.203523
21
552.256515
31
0.0
1
52
50
107.406827
 0
TEXT
100
AcDbText
 8
Edge ID
100
AcDbText
10
1663.144345
20
502.200870
30
0.0
40
3.360000
72
1
11
1663.144345
21
502.200870
31
0.0
1
55
50
-52.988304
 0
TEXT
100
AcDbText
 8
Edge ID
100
AcDbText
10
1758.534221
20
399.237761
30
0.0
40
3.360000
72
1
11
1758.534221
21
399.237761
31
0.0
1
46
50
8.213612
 0
TEXT
100
AcDbText
 8
Edge ID
100
AcDbText
10
1664.171623
20
580.641739
30
0.0
40
3.360000
72
1
11
1664.171623
21
580.641739
31
0.0
1
49
50
180.000000
 0
TEXT
100
AcDbText
 8
Edge ID
100
AcDbText
10
1633.445089
20
554.880444
30
0.0
40
3.360000
72
1
11
1633.445089
21
554.880444
31
0.0
1
50
50
-69.941269
 0
TEXT
100
AcDbText
 8
Edge ID
100
AcDbText
10
1632.435678
20
324.924511
30
0.0
40
3.360000
72
1
11
1632.435678
21
324.924511
31
0.0
1
47
50
-21.308658
 0
TEXT
100
AcDbText
 8
Edge ID
100
AcDbText
10
1688.174347
20
357.309014
30
0.0
40
3.360000
72
1
11
1688.174347
21
357.309014
31
0.0
1
54
50
130.988831
 0
TEXT
100
AcDbText
 8
Edge ID
100
AcDbText
10
1704.320223
20
396.060946
30
0.0
40
3.360000
72
1
11
1704.320223
21
396.060946
31
0.0
1
54
50
-0.114038
 0
TEXT
100
AcDbText
 8
Edge ID
100
AcDbText
10
1526.202239
20
481.930756
30
0.0
40
3.360000
72
1
11
1526.202239
21
481.930756
31
0.0
1
84
50
201.347742
 0
TEXT
100
AcDbText
 8
Edge ID
100
AcDbText
10
1528.862967
20
454.843615
30
0.0
40
3.360000
72
1
11
1528.862967
21
454.843615
31
0.0
1
44
50
-31.863017
 0
TEXT
100
AcDbText
 8
Edge ID
100
AcDbText
10
1767.160686
20
432.608658
30
0.0
40
3.360000
72
1
11
1767.160686
21
432.608658
31
0.0
1
51
50
114.639471
 0
TEXT
100
AcDbText
 8
Edge ID
100
AcDbText
10
1635.753473
20
465.810232
30
0.0
40
3.360000
72
1
11
1635.753473
21
465.810232
31
0.0
1
55
50
157.581018
 0
TEXT
100
AcDbText
 8
Edge ID
100
AcDbText
10
1577.957522
20
485.208089
30
0.0
40
3.360000
72
1
11
1577.957522
21
485.208089
31
0.0
1
50
50
166.200630
 0
TEXT
100
AcDbText
 8
Edge ID
100
AcDbText
10
1530.221277
20
404.793021
30
0.0
40
3.360000
72
1
11
1530.221277
21
404.793021
31
0.0
1
45
50
-57.129058
 0
TEXT
100
AcDbText
 8
Edge ID
100
AcDbText
10
1695.928203
20
302.167879
30
0.0
40
3.360000
72
1
11
1695.928203
21
302.167879
31
0.0
1
51
50
-18.071719
 0
TEXT
100
AcDbText
 8
Edge ID
100
AcDbText
10
1718.226530
20
312.607251
30
0.0
40
3.360000
72
1
11
1718.226530
21
312.607251
31
0.0
1
46
50
113.975231
 0
TEXT
100
AcDbText
 8
Edge ID
100
AcDbText
10
1509.121856
20
440.981358
30
0.0
40
3.360000
72
1
11
1509.121856
21
440.981358
31
0.0
1
78
50
-61.372056
 0
TEXT
100
AcDbText
 8
Edge ID
100
AcDbText
10
1526.667481
20
450.666584
30
0.0
40
3.360000
72
1
11
1526.667481
21
450.666584
31
0.0
1
44
50
156.409366
 0
TEXT
100
AcDbText
 8
Edge ID
100
AcDbText
10
1538.227474
20
82.253678
30
0.0
40
3.360000
72
1
11
1538.227474
21
82.253678
31
0.0
1
3
50
-25.603767
 0
TEXT
100
AcDbText
 8
Edge ID
100
AcDbText
10
1588.599813
20
182.525532
30
0.0
40
3.360000
72
1
11
1588.599813
21
182.525532
31
0.0
1
399
50
104.274262
 0
TEXT
100
AcDbText
 8
Edge ID
100
AcDbText
10
1521.542851
20
120.086921
30
0.0
40
3.360000
72
1
11
1521.542851
21
120.086921
31
0.0
1
392
50
269.634043
 0
TEXT
100
AcDbText
 8
Edge ID
100
AcDbText
10
1652.303289
20
198.857357
30
0.0
40
3.360000
72
1
11
1652.303289
21
198.857357
31
0.0
1
398
50
89.748203
 0
TEXT
100
AcDbText
 8
Edge ID
100
AcDbText
10
1596.338492
20
182.759426
30
0.0
40
3.360000
72
1
11
1596.338492
21
182.759426
31
0.0
1
399
50
259.188096
 0
TEXT
100
AcDbText
 8
Edge ID
100
AcDbText
10
1665.430037
20
203.392708
30
0.0
40
3.360000
72
1
11
1665.430037
21
203.392708
31
0.0
1
398
50
-51.627676
 0
TEXT
100
AcDbText
 8
Edge ID
100
AcDbText
10
1711.926349
20
233.319639
30
0.0
40
3.360000
72
1
11
1711.926349
21
233.319639
31
0.0
1
395
50
135.495542
 0
TEXT
100
AcDbText
 8
Edge ID
100
AcDbText
10
1698.064537
20
159.504006
30
0.0
40
3.360000
72
1
11
1698.064537
21
159.504006
31
0.0
1
394
50
-54.449403
 0
TEXT
100
AcDbText
 8
Edge ID
100
AcDbText
10
1760.820961
20
192.262520
30
0.0
40
3.360000
72
1
11
1760.820961
21
192.262520
31
0.0
1
392
50
145.155465
 0
TEXT
100
AcDbText
 8
Edge ID
100
AcDbText
10
1628.418633
20
281.364904
30
0.0
40
3.360000
72
1
11
1628.418633
21
281.364904
31
0.0
1
396
50
244.348681
 0
TEXT
100
AcDbText
 8
Edge ID
100
AcDbText
10
1773.208367
20
136.977799
30
0.0
40
3.360000
72
1
11
1773.208367
21
136.977799
31
0.0
1
393
50
72.562293
 0
TEXT
100
AcDbText
 8
Edge ID
100
AcDbText
10
1739.423194
20
115.383209
30
0.0
40
3.360000
72
1
11
1739.423194
21
115.383209
31
0.0
1
397
50
-37.496439
 0
TEXT
100
AcDbText
 8
Edge ID
100
AcDbText
10
1519.794667
20
184.104369
30
0.0
40
3.360000
72
1
11
1519.794667
21
184.104369
31
0.0
1
395
50
-86.763061
 0
TEXT
100
AcDbText
 8
Edge ID
100
AcDbText
10
1567.872146
20
227.047486
30
0.0
40
3.360000
72
1
11
1567.872146
21
227.047486
31
0.0
1
391
50
120.939451
 0
TEXT
100
AcDbText
 8
Edge ID
100
AcDbText
10
1609.141574
20
230.594394
30
0.0
40
3.360000
72
1
11
1609.141574
21
230.594394
31
0.0
1
391
50
252.676331
 0
TEXT
100
AcDbText
 8
Edge ID
100
AcDbText
10
1612.643734
20
45.585243
30
0.0
40
3.360000
72
1
11
1612.643734
21
45.585243
31
0.0
1
400
50
-75.574690
 0
TEXT
100
AcDbText
 8
Edge ID
100
AcDbText
10
1637.688703
20
34.929624
30
0.0
40
3.360000
72
1
11
1637.688703
21
34.929624
31
0.0
1
11
50
51.214551
 0
TEXT
100
AcDbText
 8
Edge ID
100
AcDbText
10
1662.840997
20
279.594711
30
0.0
40
3.360000
72
1
11
1662.840997
21
279.594711
31
0.0
1
390
50
137.922822
 0
TEXT
100
AcDbText
 8
Edge ID
100
AcDbText
10
1655.138104
20
144.277064
30
0.0
40
3.360000
72
1
11
1655.138104
21
144.277064
31
0.0
1
394
50
94.981275
 0
TEXT
100
AcDbText
 8
Edge ID
100
AcDbText
10
1656.324860
20
83.324292
30
0.0
40
3.360000
72
1
11
1656.324860
21
83.324292
31
0.0
1
397
50
86.361663
 0
TEXT
100
AcDbText
 8
Edge ID
100
AcDbText
10
1565.300343
20
61.879728
30
0.0
40
3.360000
72
1
11
1565.300343
21
61.879728
31
0.0
1
6
50
-50.308650
 0
TEXT
100
AcDbText
 8
Edge ID
100
AcDbText
10
1534.697972
20
269.483973
30
0.0
40
3.360000
72
1
11
1534.697972
21
269.483973
31
0.0
1
396
50
137.953050
 0
TEXT
100
AcDbText
 8
Edge ID
100
AcDbText
10
1517.856482
20
251.524014
30
0.0
40
3.360000
72
1
11
1517.856482
21
251.524014
31
0.0
1
390
50
-90.000000
 0
TEXT
100
AcDbText
 8
Edge ID
100
AcDbText
10
1593.502747
20
30.905453
30
0.0
40
3.360000
72
1
11
1593.502747
21
30.905453
31
0.0
1
389
50
-46.065651
 0
TEXT
100
AcDbText
 8
Edge ID
100
AcDbText
10
1608.000747
20
44.742381
30
0.0
40
3.360000
72
1
11
1608.000747
21
44.742381
31
0.0
1
400
50
96.152927
  0
ENDSEC
  0
EOF
