  0
SECTION
  2
HEADER
  9
$ACADVER
  1
AC1009
  0
ENDSEC
  0
SECTION
  2
BLOCKS
  0
ENDSEC
  0
SECTION
  2
ENTITIES
  0
LINE
  8
CutLine
  6
CONTINUOUS
 62
8
 10
286.903804
 20
290.386268
 11
291.528963
 21
285.037632
  0
LINE
  8
CutLine
  6
CONTINUOUS
 62
8
 10
291.528963
 20
285.037632
 11
287.626842
 21
231.243400
  0
LINE
  8
CutLine
  6
CONTINUOUS
 62
8
 10
287.626842
 20
231.243400
 11
282.278205
 21
226.618242
  0
LINE
  8
CutLine
  6
CONTINUOUS
 62
8
 10
245.755059
 20
105.136540
 11
241.139714
 21
110.493647
  0
LINE
  8
CutLine
  6
CONTINUOUS
 62
8
 10
241.139714
 20
110.493647
 11
249.758717
 21
226.369825
  0
LINE
  8
CutLine
  6
CONTINUOUS
 62
8
 10
249.758717
 20
226.369825
 11
255.115824
 21
230.985170
  0
LINE
  8
CutLine
  6
CONTINUOUS
 62
8
 10
75.970641
 20
54.403062
 11
70.954031
 21
59.386397
  0
LINE
  8
CutLine
  6
CONTINUOUS
 62
8
 10
70.954031
 20
59.386397
 11
70.681842
 21
141.185235
  0
LINE
  8
CutLine
  6
CONTINUOUS
 62
8
 10
70.681842
 20
141.185235
 11
75.665177
 21
146.201845
  0
LINE
  8
CutLine
  6
CONTINUOUS
 62
8
 10
112.693376
 20
129.893571
 11
117.554617
 21
122.654532
  0
LINE
  8
CutLine
  6
CONTINUOUS
 62
8
 10
117.554617
 20
122.654532
 11
116.509992
 21
68.519836
  0
LINE
  8
CutLine
  6
CONTINUOUS
 62
8
 10
116.509992
 20
68.519836
 11
111.414457
 21
63.617233
  0
LINE
  8
CutLine
  6
CONTINUOUS
 62
8
 10
112.776715
 20
284.593276
 11
117.780198
 21
279.596761
  0
LINE
  8
CutLine
  6
CONTINUOUS
 62
8
 10
117.780198
 20
279.596761
 11
117.819171
 21
223.660560
  0
LINE
  8
CutLine
  6
CONTINUOUS
 62
8
 10
117.819171
 20
223.660560
 11
112.822656
 21
218.657078
  0
LINE
  8
CutLine
  6
CONTINUOUS
 62
8
 10
111.334519
 20
195.723598
 11
116.630421
 21
191.038150
  0
LINE
  8
CutLine
  6
CONTINUOUS
 62
8
 10
116.630421
 20
191.038150
 11
117.222106
 21
181.363687
  0
LINE
  8
CutLine
  6
CONTINUOUS
 62
8
 10
117.222106
 20
181.363687
 11
112.536658
 21
176.067785
  0
LINE
  8
CutLine
  6
CONTINUOUS
 62
8
 10
75.665177
 20
146.201845
 11
70.665177
 21
151.201845
  0
LINE
  8
CutLine
  6
CONTINUOUS
 62
8
 10
70.665177
 20
151.201845
 11
70.665177
 21
260.862992
  0
LINE
  8
CutLine
  6
CONTINUOUS
 62
8
 10
70.665177
 20
260.862992
 11
75.665177
 21
265.862992
  0
LINE
  8
CutLine
  6
CONTINUOUS
 62
8
 10
148.754225
 20
357.853820
 11
150.978320
 21
351.141636
  0
LINE
  8
CutLine
  6
CONTINUOUS
 62
8
 10
150.978320
 20
351.141636
 11
134.976789
 21
319.280826
  0
LINE
  8
CutLine
  6
CONTINUOUS
 62
8
 10
134.976789
 20
319.280826
 11
128.264606
 21
317.056732
  0
LINE
  8
CutLine
  6
CONTINUOUS
 62
8
 10
72.641375
 20
329.727020
 11
74.990077
 21
336.396622
  0
LINE
  8
CutLine
  6
CONTINUOUS
 62
8
 10
74.990077
 20
336.396622
 11
116.598539
 21
356.332303
  0
LINE
  8
CutLine
  6
CONTINUOUS
 62
8
 10
116.598539
 20
356.332303
 11
123.268142
 21
353.983601
  0
LINE
  8
CutLine
  6
CONTINUOUS
 62
8
 10
294.417737
 20
556.876709
 11
299.213303
 21
551.680312
  0
LINE
  8
CutLine
  6
CONTINUOUS
 62
8
 10
299.213303
 20
551.680312
 11
297.466546
 21
508.136935
  0
LINE
  8
CutLine
  6
CONTINUOUS
 62
8
 10
297.466546
 20
508.136935
 11
292.270149
 21
503.341369
  0
LINE
  8
CutLine
  6
CONTINUOUS
 62
8
 10
262.879827
 20
533.695518
 11
263.947345
 21
540.685540
  0
LINE
  8
CutLine
  6
CONTINUOUS
 62
8
 10
263.947345
 20
540.685540
 11
287.427715
 21
557.944227
  0
LINE
  8
CutLine
  6
CONTINUOUS
 62
8
 10
287.427715
 20
557.944227
 11
294.417737
 21
556.876709
  0
LINE
  8
CutLine
  6
CONTINUOUS
 62
8
 10
241.980936
 20
462.944771
 11
236.942399
 21
467.905934
  0
LINE
  8
CutLine
  6
CONTINUOUS
 62
8
 10
236.942399
 20
467.905934
 11
236.802510
 21
485.985049
  0
LINE
  8
CutLine
  6
CONTINUOUS
 62
8
 10
236.802510
 20
485.985049
 11
241.763674
 21
491.023586
  0
LINE
  8
CutLine
  6
CONTINUOUS
 62
8
 10
269.148497
 20
463.709051
 11
259.598675
 21
458.438416
  0
LINE
  8
CutLine
  6
CONTINUOUS
 62
8
 10
259.598675
 20
458.438416
 11
247.119563
 21
458.087353
  0
LINE
  8
CutLine
  6
CONTINUOUS
 62
8
 10
247.119563
 20
458.087353
 11
241.980936
 21
462.944771
  0
LINE
  8
CutLine
  6
CONTINUOUS
 62
8
 10
242.294146
 20
538.101453
 11
241.939436
 21
544.163364
  0
LINE
  8
CutLine
  6
CONTINUOUS
 62
8
 10
241.939436
 20
544.163364
 11
247.730441
 21
542.336664
  0
LINE
  8
CutLine
  6
CONTINUOUS
 62
8
 10
223.436105
 20
524.210382
 11
224.496429
 21
531.201498
  0
LINE
  8
CutLine
  6
CONTINUOUS
 62
8
 10
224.496429
 20
531.201498
 11
235.303029
 21
539.161777
  0
LINE
  8
CutLine
  6
CONTINUOUS
 62
8
 10
235.303029
 20
539.161777
 11
242.294146
 21
538.101453
  0
LINE
  8
CutLine
  6
CONTINUOUS
 62
8
 10
155.156747
 20
68.310365
 11
157.389682
 21
61.601118
  0
LINE
  8
CutLine
  6
CONTINUOUS
 62
8
 10
157.389682
 20
61.601118
 11
150.831974
 21
48.500998
  0
LINE
  8
CutLine
  6
CONTINUOUS
 62
8
 10
150.831974
 20
48.500998
 11
144.122727
 21
46.268063
  0
LINE
  8
CutLine
  6
CONTINUOUS
 62
8
 10
144.122727
 20
46.268063
 11
144.220478
 21
39.197671
  0
LINE
  8
CutLine
  6
CONTINUOUS
 62
8
 10
144.220478
 20
39.197671
 11
125.051694
 21
19.491425
  0
LINE
  8
CutLine
  6
CONTINUOUS
 62
8
 10
125.051694
 20
19.491425
 11
117.981302
 21
19.393674
  0
LINE
  8
CutLine
  6
CONTINUOUS
 62
8
 10
128.115211
 20
85.266740
 11
123.339510
 21
90.481400
  0
LINE
  8
CutLine
  6
CONTINUOUS
 62
8
 10
123.339510
 20
90.481400
 11
123.383596
 21
91.484764
  0
LINE
  8
CutLine
  6
CONTINUOUS
 62
8
 10
123.383596
 20
91.484764
 11
128.598255
 21
96.260466
  0
LINE
  8
CutLine
  6
CONTINUOUS
 62
8
 10
166.719961
 20
320.976664
 11
171.606594
 21
315.865811
  0
LINE
  8
CutLine
  6
CONTINUOUS
 62
8
 10
171.606594
 20
315.865811
 11
169.559094
 21
224.572237
  0
LINE
  8
CutLine
  6
CONTINUOUS
 62
8
 10
169.559094
 20
224.572237
 11
164.448241
 21
219.685604
  0
LINE
  8
CutLine
  6
CONTINUOUS
 62
8
 10
141.757533
 20
221.768772
 11
137.312590
 21
227.268088
  0
LINE
  8
CutLine
  6
CONTINUOUS
 62
8
 10
137.312590
 20
227.268088
 11
146.513426
 21
314.045179
  0
LINE
  8
CutLine
  6
CONTINUOUS
 62
8
 10
146.513426
 20
314.045179
 11
152.012742
 21
318.490121
  0
LINE
  8
CutLine
  6
CONTINUOUS
 62
8
 10
165.705135
 20
97.161284
 11
172.767351
 21
96.807579
  0
LINE
  8
CutLine
  6
CONTINUOUS
 62
8
 10
172.767351
 20
96.807579
 11
175.505586
 21
93.780599
  0
LINE
  8
CutLine
  6
CONTINUOUS
 62
8
 10
175.505586
 20
93.780599
 11
175.151881
 21
86.718383
  0
LINE
  8
CutLine
  6
CONTINUOUS
 62
8
 10
117.981302
 20
19.393674
 11
114.336904
 21
13.334106
  0
LINE
  8
CutLine
  6
CONTINUOUS
 62
8
 10
114.336904
 20
13.334106
 11
105.962111
 21
11.249745
  0
LINE
  8
CutLine
  6
CONTINUOUS
 62
8
 10
105.962111
 20
11.249745
 11
99.902543
 21
14.894142
  0
LINE
  8
CutLine
  6
CONTINUOUS
 62
8
 10
83.493252
 20
375.915835
 11
88.345962
 21
370.772761
  0
LINE
  8
CutLine
  6
CONTINUOUS
 62
8
 10
88.345962
 20
370.772761
 11
87.740571
 21
349.932183
  0
LINE
  8
CutLine
  6
CONTINUOUS
 62
8
 10
87.740571
 20
349.932183
 11
82.597497
 21
345.079474
  0
LINE
  8
CutLine
  6
CONTINUOUS
 62
8
 10
47.499708
 20
358.260981
 11
40.456978
 21
357.628559
  0
LINE
  8
CutLine
  6
CONTINUOUS
 62
8
 10
40.456978
 20
357.628559
 11
2.773528
 21
389.101881
  0
LINE
  8
CutLine
  6
CONTINUOUS
 62
8
 10
2.773528
 20
389.101881
 11
2.141107
 21
396.144611
  0
LINE
  8
CutLine
  6
CONTINUOUS
 62
8
 10
23.924768
 20
488.915003
 11
30.994656
 21
489.044148
  0
LINE
  8
CutLine
  6
CONTINUOUS
 62
8
 10
30.994656
 20
489.044148
 11
46.004187
 21
474.573138
  0
LINE
  8
CutLine
  6
CONTINUOUS
 62
8
 10
46.004187
 20
474.573138
 11
46.133333
 21
467.503249
  0
LINE
  8
CutLine
  6
CONTINUOUS
 62
8
 10
76.678271
 20
505.240126
 11
73.859372
 21
498.755235
  0
LINE
  8
CutLine
  6
CONTINUOUS
 62
8
 10
73.859372
 20
498.755235
 11
43.943726
 21
486.967511
  0
LINE
  8
CutLine
  6
CONTINUOUS
 62
8
 10
43.943726
 20
486.967511
 11
37.458835
 21
489.786410
  0
LINE
  8
CutLine
  6
CONTINUOUS
 62
8
 10
0.182131
 20
535.645099
 11
1.817721
 21
542.524405
  0
LINE
  8
CutLine
  6
CONTINUOUS
 62
8
 10
1.817721
 20
542.524405
 11
9.166315
 21
547.049877
  0
LINE
  8
CutLine
  6
CONTINUOUS
 62
8
 10
9.166315
 20
547.049877
 11
16.045620
 21
545.414286
  0
LINE
  8
CutLine
  6
CONTINUOUS
 62
8
 10
8.340604
 20
596.075315
 11
15.496643
 21
599.748802
  0
LINE
  8
CutLine
  6
CONTINUOUS
 62
8
 10
15.496643
 20
599.748802
 11
59.470421
 21
590.994445
  0
LINE
  8
CutLine
  6
CONTINUOUS
 62
8
 10
59.470421
 20
590.994445
 11
63.397940
 21
585.114428
  0
LINE
  8
CutLine
  6
CONTINUOUS
 62
8
 10
88.619906
 20
579.787941
 11
94.898203
 21
583.041092
  0
LINE
  8
CutLine
  6
CONTINUOUS
 62
8
 10
94.898203
 20
583.041092
 11
142.344742
 21
567.982238
  0
LINE
  8
CutLine
  6
CONTINUOUS
 62
8
 10
142.344742
 20
567.982238
 11
145.597894
 21
561.703941
  0
LINE
  8
CutLine
  6
CONTINUOUS
 62
8
 10
119.954586
 20
416.366740
 11
112.925147
 21
415.600586
  0
LINE
  8
CutLine
  6
CONTINUOUS
 62
8
 10
112.925147
 20
415.600586
 11
74.650357
 21
446.352056
  0
LINE
  8
CutLine
  6
CONTINUOUS
 62
8
 10
74.650357
 20
446.352056
 11
73.884204
 21
453.381494
  0
LINE
  8
CutLine
  6
CONTINUOUS
 62
8
 10
180.445488
 20
424.568230
 11
176.626806
 21
418.616956
  0
LINE
  8
CutLine
  6
CONTINUOUS
 62
8
 10
176.626806
 20
418.616956
 11
167.796930
 21
416.689566
  0
LINE
  8
CutLine
  6
CONTINUOUS
 62
8
 10
167.796930
 20
416.689566
 11
161.845656
 21
420.508248
  0
LINE
  8
CutLine
  6
CONTINUOUS
 62
8
 10
89.365516
 20
492.590045
 11
87.525168
 21
499.417425
  0
LINE
  8
CutLine
  6
CONTINUOUS
 62
8
 10
87.525168
 20
499.417425
 11
97.972273
 21
517.575052
  0
LINE
  8
CutLine
  6
CONTINUOUS
 62
8
 10
163.891198
 20
504.792808
 11
169.830576
 21
500.955649
  0
LINE
  8
CutLine
  6
CONTINUOUS
 62
8
 10
169.830576
 20
500.955649
 11
173.147513
 21
485.529968
  0
LINE
  8
CutLine
  6
CONTINUOUS
 62
8
 10
173.147513
 20
485.529968
 11
169.310354
 21
479.590590
  0
LINE
  8
CutLine
  6
CONTINUOUS
 62
8
 10
185.724636
 20
303.624265
 11
191.800783
 21
307.240954
  0
LINE
  8
CutLine
  6
CONTINUOUS
 62
8
 10
191.800783
 20
307.240954
 11
221.679256
 21
299.659597
  0
LINE
  8
CutLine
  6
CONTINUOUS
 62
8
 10
221.679256
 20
299.659597
 11
225.295945
 21
293.583450
  0
LINE
  8
CutLine
  6
CONTINUOUS
 62
8
 10
185.160983
 20
206.362396
 11
180.190043
 21
211.391287
  0
LINE
  8
CutLine
  6
CONTINUOUS
 62
8
 10
180.190043
 20
211.391287
 11
180.695744
 21
298.653324
  0
LINE
  8
CutLine
  6
CONTINUOUS
 62
8
 10
180.695744
 20
298.653324
 11
185.724636
 21
303.624265
  0
LINE
  8
CutLine
  6
CONTINUOUS
 62
8
 10
181.588562
 20
69.757793
 11
178.482558
 21
76.110174
  0
LINE
  8
CutLine
  6
CONTINUOUS
 62
8
 10
178.482558
 20
76.110174
 11
178.808603
 21
77.060111
  0
LINE
  8
CutLine
  6
CONTINUOUS
 62
8
 10
178.808603
 20
77.060111
 11
185.160983
 21
80.166114
  0
LINE
  8
CutLine
  6
CONTINUOUS
 62
8
 10
212.455243
 20
18.570745
 11
209.317107
 21
12.234176
  0
LINE
  8
CutLine
  6
CONTINUOUS
 62
8
 10
209.317107
 20
12.234176
 11
200.754075
 21
9.343501
  0
LINE
  8
CutLine
  6
CONTINUOUS
 62
8
 10
200.754075
 20
9.343501
 11
194.417505
 21
12.481636
  0
LINE
  8
CutLine
  6
CONTINUOUS
 62
8
 10
219.688848
 20
201.955559
 11
224.382642
 21
196.667053
  0
LINE
  8
CutLine
  6
CONTINUOUS
 62
8
 10
224.382642
 20
196.667053
 11
218.148323
 21
92.023339
  0
LINE
  8
CutLine
  6
CONTINUOUS
 62
8
 10
218.148323
 20
92.023339
 11
212.572459
 21
82.506209
  0
LINE
  8
CutLine
  6
CONTINUOUS
 62
8
 10
217.052460
 20
589.930562
 11
222.147995
 21
585.027958
  0
LINE
  8
CutLine
  6
CONTINUOUS
 62
8
 10
222.147995
 20
585.027958
 11
223.192620
 21
530.893263
  0
LINE
  8
CutLine
  6
CONTINUOUS
 62
8
 10
223.192620
 20
530.893263
 11
218.331379
 21
523.654223
  0
LINE
  8
CutLine
  6
CONTINUOUS
 62
8
 10
181.303180
 20
507.345950
 11
176.319845
 21
512.362559
  0
LINE
  8
CutLine
  6
CONTINUOUS
 62
8
 10
176.319845
 20
512.362559
 11
176.592034
 21
594.161398
  0
LINE
  8
CutLine
  6
CONTINUOUS
 62
8
 10
176.592034
 20
594.161398
 11
181.608644
 21
599.144733
  0
LINE
  8
CutLine
  6
CONTINUOUS
 62
8
 10
216.972522
 20
457.824197
 11
222.285794
 21
453.158456
  0
LINE
  8
CutLine
  6
CONTINUOUS
 62
8
 10
222.285794
 20
453.158456
 11
223.126400
 21
440.203989
  0
LINE
  8
CutLine
  6
CONTINUOUS
 62
8
 10
223.126400
 20
440.203989
 11
218.460659
 21
434.890717
  0
LINE
  8
CutLine
  6
CONTINUOUS
 62
8
 10
218.331379
 20
523.654223
 11
223.314380
 21
518.637282
  0
LINE
  8
CutLine
  6
CONTINUOUS
 62
8
 10
223.314380
 20
518.637282
 11
223.191603
 21
482.463011
  0
LINE
  8
CutLine
  6
CONTINUOUS
 62
8
 10
223.191603
 20
482.463011
 11
218.174661
 21
477.480010
  0
LINE
  8
CutLine
  6
CONTINUOUS
 62
8
 10
178.279378
 20
323.820775
 11
173.521446
 21
329.051653
  0
LINE
  8
CutLine
  6
CONTINUOUS
 62
8
 10
173.521446
 20
329.051653
 11
176.072302
 21
382.926870
  0
LINE
  8
CutLine
  6
CONTINUOUS
 62
8
 10
176.072302
 20
382.926870
 11
181.303180
 21
387.684802
  0
LINE
  8
CutLine
  6
CONTINUOUS
 62
8
 10
218.414718
 20
368.954518
 11
225.080414
 21
366.594752
  0
LINE
  8
CutLine
  6
CONTINUOUS
 62
8
 10
225.080414
 20
366.594752
 11
236.262375
 21
343.156759
  0
LINE
  8
CutLine
  6
CONTINUOUS
 62
8
 10
236.262375
 20
343.156759
 11
233.902609
 21
336.491063
  0
LINE
  8
CutLine
  6
CONTINUOUS
 62
8
 10
254.392228
 20
295.693975
 11
248.698226
 21
291.501322
  0
LINE
  8
CutLine
  6
CONTINUOUS
 62
8
 10
248.698226
 20
291.501322
 11
233.379540
 21
293.827559
  0
LINE
  8
CutLine
  6
CONTINUOUS
 62
8
 10
233.379540
 20
293.827559
 11
228.906145
 21
299.564194
  0
LINE
  8
CutLine
  6
CONTINUOUS
 62
8
 10
289.754781
 20
403.071724
 11
295.071001
 21
398.409343
  0
LINE
  8
CutLine
  6
CONTINUOUS
 62
8
 10
295.071001
 20
398.409343
 11
297.920329
 21
354.924194
  0
LINE
  8
CutLine
  6
CONTINUOUS
 62
8
 10
297.920329
 20
354.924194
 11
293.257948
 21
349.607974
  0
LINE
  8
CutLine
  6
CONTINUOUS
 62
8
 10
238.698320
 20
413.971158
 11
233.579396
 21
418.849334
  0
LINE
  8
CutLine
  6
CONTINUOUS
 62
8
 10
233.579396
 20
418.849334
 11
233.144132
 21
436.923750
  0
LINE
  8
CutLine
  6
CONTINUOUS
 62
8
 10
233.144132
 20
436.923750
 11
238.022308
 21
442.042675
  0
LINE
  8
CutLine
  6
CONTINUOUS
 62
8
 10
265.199804
 20
441.832329
 11
271.543238
 21
444.956563
  0
LINE
  8
CutLine
  6
CONTINUOUS
 62
8
 10
271.543238
 20
444.956563
 11
285.413184
 21
440.240499
  0
LINE
  8
CutLine
  6
CONTINUOUS
 62
8
 10
285.413184
 20
440.240499
 11
288.537418
 21
433.897064
  0
LINE
  8
CutLine
  6
CONTINUOUS
 62
8
 10
240.475015
 20
366.604678
 11
233.499714
 21
365.444864
  0
LINE
  8
CutLine
  6
CONTINUOUS
 62
8
 10
233.499714
 20
365.444864
 11
222.580805
 21
373.250381
  0
LINE
  8
CutLine
  6
CONTINUOUS
 62
8
 10
222.580805
 20
373.250381
 11
221.420991
 21
380.225682
  0
LINE
  8
CutLine
  6
CONTINUOUS
 62
8
 10
261.142886
 20
371.982740
 11
255.945324
 21
367.188437
  0
LINE
  8
CutLine
  6
CONTINUOUS
 62
8
 10
255.945324
 20
367.188437
 11
248.510812
 21
367.488484
  0
LINE
  8
CutLine
  6
CONTINUOUS
 62
8
 10
22.341290
 20
360.464784
 11
29.334037
 21
359.415269
  0
LINE
  8
CutLine
  6
CONTINUOUS
 62
8
 10
29.334037
 20
359.415269
 11
45.672830
 21
337.305944
  0
LINE
  8
CutLine
  6
CONTINUOUS
 62
8
 10
45.672830
 20
337.305944
 11
44.623315
 21
330.313196
  0
LINE
  8
CutLine
  6
CONTINUOUS
 62
8
 10
58.878067
 20
276.888417
 11
63.094110
 21
271.211712
  0
LINE
  8
CutLine
  6
CONTINUOUS
 62
8
 10
63.094110
 20
271.211712
 11
46.657162
 21
159.887859
  0
LINE
  8
CutLine
  6
CONTINUOUS
 62
8
 10
46.657162
 20
159.887859
 11
40.980457
 21
155.671816
  0
LINE
  8
CutLine
  6
CONTINUOUS
 62
8
 10
18.217170
 20
156.691891
 11
13.379014
 21
161.848658
  0
LINE
  8
CutLine
  6
CONTINUOUS
 62
8
 10
13.379014
 20
161.848658
 11
17.081163
 21
277.985947
  0
LINE
  8
CutLine
  6
CONTINUOUS
 62
8
 10
17.081163
 20
277.985947
 11
22.237930
 21
282.824103
  0
LINE
  8
CutLine
  6
CONTINUOUS
 62
8
 10
29.464549
 20
55.011877
 11
23.197714
 21
51.736701
  0
LINE
  8
CutLine
  6
CONTINUOUS
 62
8
 10
23.197714
 20
51.736701
 11
18.506921
 21
53.207382
  0
LINE
  8
CutLine
  6
CONTINUOUS
 62
8
 10
18.506921
 20
53.207382
 11
15.231745
 21
59.474217
  0
LINE
  8
CutLine
  6
CONTINUOUS
 62
8
 10
52.348708
 20
306.905271
 11
59.387873
 21
306.234329
  0
LINE
  8
CutLine
  6
CONTINUOUS
 62
8
 10
59.387873
 20
306.234329
 11
70.327403
 21
292.989670
  0
LINE
  8
CutLine
  6
CONTINUOUS
 62
8
 10
70.327403
 20
292.989670
 11
69.656461
 21
285.950505
  0
LINE
  8
CutLine
  6
CONTINUOUS
 62
8
 10
279.309725
 20
15.178707
 11
280.514687
 21
106.970090
  0
LINE
  8
CutLine
  6
CONTINUOUS
 62
8
 10
245.755059
 20
105.136540
 11
239.102640
 21
8.100804
  0
LINE
  8
CutLine
  6
CONTINUOUS
 62
8
 10
239.102640
 20
8.100804
 11
279.309725
 21
15.178707
  0
LINE
  8
ValleyLine
  6
CONTINUOUS
 62
1
 10
282.278205
 20
226.618242
 11
286.903804
 21
290.386268
  0
LINE
  8
CutLine
  6
CONTINUOUS
 62
8
 10
286.903804
 20
290.386268
 11
269.366303
 21
297.793918
  0
LINE
  8
CutLine
  6
CONTINUOUS
 62
8
 10
269.366303
 20
297.793918
 11
252.319999
 21
241.628417
  0
LINE
  8
CutLine
  6
CONTINUOUS
 62
8
 10
252.319999
 20
241.628417
 11
255.115824
 21
230.985170
  0
LINE
  8
MountainLine
  6
CONTINUOUS
 62
5
 10
255.115824
 20
230.985170
 11
245.755059
 21
105.136540
  0
LINE
  8
CutLine
  6
CONTINUOUS
 62
8
 10
280.514687
 20
106.970090
 11
282.278205
 21
226.618242
  0
LINE
  8
ValleyLine
  6
CONTINUOUS
 62
1
 10
75.665177
 20
146.201845
 11
75.970641
 21
54.403062
  0
LINE
  8
CutLine
  6
CONTINUOUS
 62
8
 10
75.970641
 20
54.403062
 11
111.414457
 21
63.617233
  0
LINE
  8
ValleyLine
  6
CONTINUOUS
 62
1
 10
111.414457
 20
63.617233
 11
112.693376
 21
129.893571
  0
LINE
  8
CutLine
  6
CONTINUOUS
 62
8
 10
111.334519
 20
195.723598
 11
112.822656
 21
218.657078
  0
LINE
  8
ValleyLine
  6
CONTINUOUS
 62
1
 10
112.822656
 20
218.657078
 11
112.776715
 21
284.593276
  0
LINE
  8
CutLine
  6
CONTINUOUS
 62
8
 10
112.693376
 20
129.893571
 11
112.536658
 21
176.067785
  0
LINE
  8
ValleyLine
  6
CONTINUOUS
 62
1
 10
112.536658
 20
176.067785
 11
111.334519
 21
195.723598
  0
LINE
  8
ValleyLine
  6
CONTINUOUS
 62
1
 10
75.665177
 20
265.862992
 11
75.665177
 21
146.201845
  0
LINE
  8
CutLine
  6
CONTINUOUS
 62
8
 10
72.641375
 20
329.727020
 11
75.665177
 21
265.862992
  0
LINE
  8
CutLine
  6
CONTINUOUS
 62
8
 10
112.776715
 20
284.593276
 11
128.264606
 21
317.056732
  0
LINE
  8
MountainLine
  6
CONTINUOUS
 62
5
 10
128.264606
 20
317.056732
 11
72.641375
 21
329.727020
  0
LINE
  8
ValleyLine
  6
CONTINUOUS
 62
1
 10
128.264606
 20
317.056732
 11
148.754225
 21
357.853820
  0
LINE
  8
CutLine
  6
CONTINUOUS
 62
8
 10
148.754225
 20
357.853820
 11
123.268142
 21
353.983601
  0
LINE
  8
ValleyLine
  6
CONTINUOUS
 62
1
 10
123.268142
 20
353.983601
 11
72.641375
 21
329.727020
  0
LINE
  8
ValleyLine
  6
CONTINUOUS
 62
1
 10
292.270149
 20
503.341369
 11
294.417737
 21
556.876709
  0
LINE
  8
MountainLine
  6
CONTINUOUS
 62
5
 10
294.417737
 20
556.876709
 11
262.879827
 21
533.695518
  0
LINE
  8
ValleyLine
  6
CONTINUOUS
 62
1
 10
262.879827
 20
533.695518
 11
292.270149
 21
503.341369
  0
LINE
  8
ValleyLine
  6
CONTINUOUS
 62
1
 10
262.879827
 20
533.695518
 11
241.763674
 21
491.023586
  0
LINE
  8
ValleyLine
  6
CONTINUOUS
 62
1
 10
241.763674
 20
491.023586
 11
241.980936
 21
462.944771
  0
LINE
  8
ValleyLine
  6
CONTINUOUS
 62
1
 10
241.980936
 20
462.944771
 11
269.148497
 21
463.709051
  0
LINE
  8
CutLine
  6
CONTINUOUS
 62
8
 10
269.148497
 20
463.709051
 11
292.180436
 21
472.492130
  0
LINE
  8
CutLine
  6
CONTINUOUS
 62
8
 10
292.180436
 20
472.492130
 11
292.270149
 21
503.341369
  0
LINE
  8
CutLine
  6
CONTINUOUS
 62
8
 10
262.879827
 20
533.695518
 11
247.730441
 21
542.336664
  0
LINE
  8
MountainLine
  6
CONTINUOUS
 62
5
 10
247.730441
 20
542.336664
 11
242.294146
 21
538.101453
  0
LINE
  8
MountainLine
  6
CONTINUOUS
 62
5
 10
242.294146
 20
538.101453
 11
223.436105
 21
524.210382
  0
LINE
  8
CutLine
  6
CONTINUOUS
 62
8
 10
223.436105
 20
524.210382
 11
241.763674
 21
491.023586
  0
LINE
  8
ValleyLine
  6
CONTINUOUS
 62
1
 10
144.122727
 20
46.268063
 11
155.156747
 21
68.310365
  0
LINE
  8
ValleyLine
  6
CONTINUOUS
 62
1
 10
155.156747
 20
68.310365
 11
128.115211
 21
85.266740
  0
LINE
  8
CutLine
  6
CONTINUOUS
 62
8
 10
128.115211
 20
85.266740
 11
115.642996
 21
47.107617
  0
LINE
  8
MountainLine
  6
CONTINUOUS
 62
5
 10
115.642996
 20
47.107617
 11
117.981302
 21
19.393674
  0
LINE
  8
ValleyLine
  6
CONTINUOUS
 62
1
 10
117.981302
 20
19.393674
 11
144.122727
 21
46.268063
  0
LINE
  8
MountainLine
  6
CONTINUOUS
 62
5
 10
128.598255
 20
96.260466
 11
128.115211
 21
85.266740
  0
LINE
  8
ValleyLine
  6
CONTINUOUS
 62
1
 10
155.156747
 20
68.310365
 11
165.705135
 21
97.161284
  0
LINE
  8
ValleyLine
  6
CONTINUOUS
 62
1
 10
165.705135
 20
97.161284
 11
128.598255
 21
96.260466
  0
LINE
  8
CutLine
  6
CONTINUOUS
 62
8
 10
141.757533
 20
221.768772
 11
128.598255
 21
96.260466
  0
LINE
  8
CutLine
  6
CONTINUOUS
 62
8
 10
165.705135
 20
97.161284
 11
164.448241
 21
219.685604
  0
LINE
  8
ValleyLine
  6
CONTINUOUS
 62
1
 10
164.448241
 20
219.685604
 11
166.719961
 21
320.976664
  0
LINE
  8
CutLine
  6
CONTINUOUS
 62
8
 10
166.719961
 20
320.976664
 11
152.012742
 21
318.490121
  0
LINE
  8
MountainLine
  6
CONTINUOUS
 62
5
 10
152.012742
 20
318.490121
 11
141.757533
 21
221.768772
  0
LINE
  8
CutLine
  6
CONTINUOUS
 62
8
 10
155.156747
 20
68.310365
 11
175.151881
 21
86.718383
  0
LINE
  8
ValleyLine
  6
CONTINUOUS
 62
1
 10
175.151881
 20
86.718383
 11
165.705135
 21
97.161284
  0
LINE
  8
CutLine
  6
CONTINUOUS
 62
8
 10
115.642996
 20
47.107617
 11
99.902543
 21
14.894142
  0
LINE
  8
ValleyLine
  6
CONTINUOUS
 62
1
 10
99.902543
 20
14.894142
 11
117.981302
 21
19.393674
  0
LINE
  8
CutLine
  6
CONTINUOUS
 62
8
 10
47.499708
 20
358.260981
 11
82.597497
 21
345.079474
  0
LINE
  8
ValleyLine
  6
CONTINUOUS
 62
1
 10
82.597497
 20
345.079474
 11
83.493252
 21
375.915835
  0
LINE
  8
CutLine
  6
CONTINUOUS
 62
8
 10
83.493252
 20
375.915835
 11
83.893706
 21
429.492737
  0
LINE
  8
ValleyLine
  6
CONTINUOUS
 62
1
 10
83.893706
 20
429.492737
 11
2.141107
 21
396.144611
  0
LINE
  8
ValleyLine
  6
CONTINUOUS
 62
1
 10
2.141107
 20
396.144611
 11
47.499708
 21
358.260981
  0
LINE
  8
CutLine
  6
CONTINUOUS
 62
8
 10
83.893706
 20
429.492737
 11
46.133333
 21
467.503249
  0
LINE
  8
ValleyLine
  6
CONTINUOUS
 62
1
 10
46.133333
 20
467.503249
 11
23.924768
 21
488.915003
  0
LINE
  8
CutLine
  6
CONTINUOUS
 62
8
 10
23.924768
 20
488.915003
 11
8.060577
 21
454.945393
  0
LINE
  8
CutLine
  6
CONTINUOUS
 62
8
 10
8.060577
 20
454.945393
 11
2.141107
 21
396.144611
  0
LINE
  8
ValleyLine
  6
CONTINUOUS
 62
1
 10
37.458835
 20
489.786410
 11
76.678271
 21
505.240126
  0
LINE
  8
ValleyLine
  6
CONTINUOUS
 62
1
 10
76.678271
 20
505.240126
 11
24.457553
 21
553.402962
  0
LINE
  8
CutLine
  6
CONTINUOUS
 62
8
 10
24.457553
 20
553.402962
 11
16.045620
 21
545.414286
  0
LINE
  8
ValleyLine
  6
CONTINUOUS
 62
1
 10
16.045620
 20
545.414286
 11
0.182131
 21
535.645099
  0
LINE
  8
CutLine
  6
CONTINUOUS
 62
8
 10
0.182131
 20
535.645099
 11
37.458835
 21
489.786410
  0
LINE
  8
CutLine
  6
CONTINUOUS
 62
8
 10
76.678271
 20
505.240126
 11
106.624436
 21
522.586969
  0
LINE
  8
ValleyLine
  6
CONTINUOUS
 62
1
 10
106.624436
 20
522.586969
 11
63.397940
 21
585.114428
  0
LINE
  8
ValleyLine
  6
CONTINUOUS
 62
1
 10
63.397940
 20
585.114428
 11
8.340604
 21
596.075315
  0
LINE
  8
CutLine
  6
CONTINUOUS
 62
8
 10
8.340604
 20
596.075315
 11
4.338623
 21
577.462917
  0
LINE
  8
CutLine
  6
CONTINUOUS
 62
8
 10
4.338623
 20
577.462917
 11
24.457553
 21
553.402962
  0
LINE
  8
ValleyLine
  6
CONTINUOUS
 62
1
 10
88.619906
 20
579.787941
 11
106.624436
 21
522.586969
  0
LINE
  8
ValleyLine
  6
CONTINUOUS
 62
1
 10
106.624436
 20
522.586969
 11
145.597894
 21
561.703941
  0
LINE
  8
ValleyLine
  6
CONTINUOUS
 62
1
 10
145.597894
 20
561.703941
 11
88.619906
 21
579.787941
  0
LINE
  8
CutLine
  6
CONTINUOUS
 62
8
 10
88.619906
 20
579.787941
 11
63.397940
 21
585.114428
  0
LINE
  8
CutLine
  6
CONTINUOUS
 62
8
 10
119.954586
 20
416.366740
 11
132.402918
 21
430.227704
  0
LINE
  8
CutLine
  6
CONTINUOUS
 62
8
 10
132.402918
 20
430.227704
 11
137.714153
 21
440.541304
  0
LINE
  8
ValleyLine
  6
CONTINUOUS
 62
1
 10
137.714153
 20
440.541304
 11
89.365516
 21
492.590045
  0
LINE
  8
CutLine
  6
CONTINUOUS
 62
8
 10
89.365516
 20
492.590045
 11
73.884204
 21
453.381494
  0
LINE
  8
ValleyLine
  6
CONTINUOUS
 62
1
 10
73.884204
 20
453.381494
 11
119.954586
 21
416.366740
  0
LINE
  8
ValleyLine
  6
CONTINUOUS
 62
1
 10
161.845656
 20
420.508248
 11
180.445488
 21
424.568230
  0
LINE
  8
CutLine
  6
CONTINUOUS
 62
8
 10
180.445488
 20
424.568230
 11
169.310354
 21
479.590590
  0
LINE
  8
ValleyLine
  6
CONTINUOUS
 62
1
 10
169.310354
 20
479.590590
 11
106.624436
 21
522.586969
  0
LINE
  8
ValleyLine
  6
CONTINUOUS
 62
1
 10
106.624436
 20
522.586969
 11
89.365516
 21
492.590045
  0
LINE
  8
CutLine
  6
CONTINUOUS
 62
8
 10
137.714153
 20
440.541304
 11
161.845656
 21
420.508248
  0
LINE
  8
ValleyLine
  6
CONTINUOUS
 62
1
 10
106.624436
 20
522.586969
 11
163.891198
 21
504.792808
  0
LINE
  8
CutLine
  6
CONTINUOUS
 62
8
 10
163.891198
 20
504.792808
 11
145.597894
 21
561.703941
  0
LINE
  8
ValleyLine
  6
CONTINUOUS
 62
1
 10
169.310354
 20
479.590590
 11
163.891198
 21
504.792808
  0
LINE
  8
ValleyLine
  6
CONTINUOUS
 62
1
 10
225.295945
 20
293.583450
 11
185.724636
 21
303.624265
  0
LINE
  8
MountainLine
  6
CONTINUOUS
 62
5
 10
185.724636
 20
303.624265
 11
185.160983
 21
206.362396
  0
LINE
  8
CutLine
  6
CONTINUOUS
 62
8
 10
219.688848
 20
201.955559
 11
225.295945
 21
293.583450
  0
LINE
  8
CutLine
  6
CONTINUOUS
 62
8
 10
212.455243
 20
18.570745
 11
212.572459
 21
82.506209
  0
LINE
  8
MountainLine
  6
CONTINUOUS
 62
5
 10
185.160983
 20
80.166114
 11
181.588562
 21
69.757793
  0
LINE
  8
CutLine
  6
CONTINUOUS
 62
8
 10
181.588562
 20
69.757793
 11
194.417505
 21
12.481636
  0
LINE
  8
ValleyLine
  6
CONTINUOUS
 62
1
 10
194.417505
 20
12.481636
 11
212.455243
 21
18.570745
  0
LINE
  8
ValleyLine
  6
CONTINUOUS
 62
1
 10
212.572459
 20
82.506209
 11
219.688848
 21
201.955559
  0
LINE
  8
CutLine
  6
CONTINUOUS
 62
8
 10
185.160983
 20
206.362396
 11
185.160983
 21
80.166114
  0
LINE
  8
ValleyLine
  6
CONTINUOUS
 62
1
 10
218.331379
 20
523.654223
 11
217.052460
 21
589.930562
  0
LINE
  8
CutLine
  6
CONTINUOUS
 62
8
 10
217.052460
 20
589.930562
 11
181.608644
 21
599.144733
  0
LINE
  8
ValleyLine
  6
CONTINUOUS
 62
1
 10
181.608644
 20
599.144733
 11
181.303180
 21
507.345950
  0
LINE
  8
CutLine
  6
CONTINUOUS
 62
8
 10
218.414718
 20
368.954518
 11
218.460659
 21
434.890717
  0
LINE
  8
ValleyLine
  6
CONTINUOUS
 62
1
 10
218.460659
 20
434.890717
 11
216.972522
 21
457.824197
  0
LINE
  8
CutLine
  6
CONTINUOUS
 62
8
 10
216.972522
 20
457.824197
 11
218.174661
 21
477.480010
  0
LINE
  8
ValleyLine
  6
CONTINUOUS
 62
1
 10
218.174661
 20
477.480010
 11
218.331379
 21
523.654223
  0
LINE
  8
CutLine
  6
CONTINUOUS
 62
8
 10
181.303180
 20
507.345950
 11
181.303180
 21
387.684802
  0
LINE
  8
ValleyLine
  6
CONTINUOUS
 62
1
 10
181.303180
 20
387.684802
 11
178.279378
 21
323.820775
  0
LINE
  8
MountainLine
  6
CONTINUOUS
 62
5
 10
178.279378
 20
323.820775
 11
233.902609
 21
336.491063
  0
LINE
  8
ValleyLine
  6
CONTINUOUS
 62
1
 10
233.902609
 20
336.491063
 11
218.414718
 21
368.954518
  0
LINE
  8
ValleyLine
  6
CONTINUOUS
 62
1
 10
228.906145
 20
299.564194
 11
254.392228
 21
295.693975
  0
LINE
  8
CutLine
  6
CONTINUOUS
 62
8
 10
254.392228
 20
295.693975
 11
233.902609
 21
336.491063
  0
LINE
  8
CutLine
  6
CONTINUOUS
 62
8
 10
178.279378
 20
323.820775
 11
228.906145
 21
299.564194
  0
LINE
  8
ValleyLine
  6
CONTINUOUS
 62
1
 10
293.257948
 20
349.607974
 11
289.754781
 21
403.071724
  0
LINE
  8
CutLine
  6
CONTINUOUS
 62
8
 10
261.142886
 20
371.982740
 11
293.257948
 21
349.607974
  0
LINE
  8
CutLine
  6
CONTINUOUS
 62
8
 10
265.199804
 20
441.832329
 11
238.022308
 21
442.042675
  0
LINE
  8
ValleyLine
  6
CONTINUOUS
 62
1
 10
238.022308
 20
442.042675
 11
238.698320
 21
413.971158
  0
LINE
  8
ValleyLine
  6
CONTINUOUS
 62
1
 10
238.698320
 20
413.971158
 11
261.142886
 21
371.982740
  0
LINE
  8
CutLine
  6
CONTINUOUS
 62
8
 10
289.754781
 20
403.071724
 11
288.537418
 21
433.897064
  0
LINE
  8
ValleyLine
  6
CONTINUOUS
 62
1
 10
288.537418
 20
433.897064
 11
265.199804
 21
441.832329
  0
LINE
  8
MountainLine
  6
CONTINUOUS
 62
5
 10
221.420991
 20
380.225682
 11
240.475015
 21
366.604678
  0
LINE
  8
CutLine
  6
CONTINUOUS
 62
8
 10
240.475015
 20
366.604678
 11
243.716508
 21
372.686047
  0
LINE
  8
MountainLine
  6
CONTINUOUS
 62
5
 10
243.716508
 20
372.686047
 11
261.142886
 21
371.982740
  0
LINE
  8
CutLine
  6
CONTINUOUS
 62
8
 10
238.698320
 20
413.971158
 11
221.420991
 21
380.225682
  0
LINE
  8
CutLine
  6
CONTINUOUS
 62
8
 10
16.290165
 20
333.318621
 11
23.253534
 21
293.781470
  0
LINE
  8
ValleyLine
  6
CONTINUOUS
 62
1
 10
23.253534
 20
293.781470
 11
52.348708
 21
306.905271
  0
LINE
  8
CutLine
  6
CONTINUOUS
 62
8
 10
52.348708
 20
306.905271
 11
44.623315
 21
330.313196
  0
LINE
  8
ValleyLine
  6
CONTINUOUS
 62
1
 10
44.623315
 20
330.313196
 11
22.341290
 21
360.464784
  0
LINE
  8
MountainLine
  6
CONTINUOUS
 62
5
 10
22.341290
 20
360.464784
 11
16.290165
 21
333.318621
  0
LINE
  8
CutLine
  6
CONTINUOUS
 62
8
 10
23.253534
 20
293.781470
 11
22.237930
 21
282.824103
  0
LINE
  8
ValleyLine
  6
CONTINUOUS
 62
1
 10
22.237930
 20
282.824103
 11
58.878067
 21
276.888417
  0
LINE
  8
ValleyLine
  6
CONTINUOUS
 62
1
 10
58.878067
 20
276.888417
 11
52.348708
 21
306.905271
  0
LINE
  8
ValleyLine
  6
CONTINUOUS
 62
1
 10
40.980457
 20
155.671816
 11
58.878067
 21
276.888417
  0
LINE
  8
MountainLine
  6
CONTINUOUS
 62
5
 10
22.237930
 20
282.824103
 11
18.217170
 21
156.691891
  0
LINE
  8
CutLine
  6
CONTINUOUS
 62
8
 10
18.217170
 20
156.691891
 11
15.231745
 21
59.474217
  0
LINE
  8
MountainLine
  6
CONTINUOUS
 62
5
 10
15.231745
 20
59.474217
 11
29.464549
 21
55.011877
  0
LINE
  8
CutLine
  6
CONTINUOUS
 62
8
 10
29.464549
 20
55.011877
 11
40.980457
 21
155.671816
  0
LINE
  8
ValleyLine
  6
CONTINUOUS
 62
1
 10
69.656461
 20
285.950505
 11
52.348708
 21
306.905271
  0
LINE
  8
CutLine
  6
CONTINUOUS
 62
8
 10
58.878067
 20
276.888417
 11
69.656461
 21
285.950505
  0
LINE
  8
CutLine
  6
CONTINUOUS
 62
8
 10
5.033649
 20
367.359194
 11
16.290165
 21
333.318621
  0
LINE
  8
CutLine
  6
CONTINUOUS
 62
8
 10
22.341290
 20
360.464784
 11
5.033649
 21
367.359194
 0
TEXT
100
AcDbText
 8
Edge ID
100
AcDbText
10
250.435441
20
168.060855
30
0.0
40
3.360000
72
1
11
250.435441
21
168.060855
31
0.0
1
132
50
265.746108
 0
TEXT
100
AcDbText
 8
Edge ID
100
AcDbText
10
281.396446
20
166.794166
30
0.0
40
3.360000
72
1
11
281.396446
21
166.794166
31
0.0
1
142
50
89.155567
 0
TEXT
100
AcDbText
 8
Edge ID
100
AcDbText
10
284.591005
20
258.502255
30
0.0
40
3.360000
72
1
11
284.591005
21
258.502255
31
0.0
1
131
50
85.851151
 0
TEXT
100
AcDbText
 8
Edge ID
100
AcDbText
10
278.135054
20
294.090093
30
0.0
40
3.360000
72
1
11
278.135054
21
294.090093
31
0.0
1
277
50
157.101333
 0
TEXT
100
AcDbText
 8
Edge ID
100
AcDbText
10
253.717911
20
236.306793
30
0.0
40
3.360000
72
1
11
253.717911
21
236.306793
31
0.0
1
213
50
-75.281760
 0
TEXT
100
AcDbText
 8
Edge ID
100
AcDbText
10
279.912206
20
61.074399
30
0.0
40
3.360000
72
1
11
279.912206
21
61.074399
31
0.0
1
138
50
89.247911
 0
TEXT
100
AcDbText
 8
Edge ID
100
AcDbText
10
242.428849
20
56.618672
30
0.0
40
3.360000
72
1
11
242.428849
21
56.618672
31
0.0
1
215
50
266.078145
 0
TEXT
100
AcDbText
 8
Edge ID
100
AcDbText
10
259.206182
20
11.639756
30
0.0
40
3.360000
72
1
11
259.206182
21
11.639756
31
0.0
1
158
50
9.983842
 0
TEXT
100
AcDbText
 8
Edge ID
100
AcDbText
10
138.509416
20
337.455276
30
0.0
40
3.360000
72
1
11
138.509416
21
337.455276
31
0.0
1
143
50
63.332715
 0
TEXT
100
AcDbText
 8
Edge ID
100
AcDbText
10
136.011183
20
355.918710
30
0.0
40
3.360000
72
1
11
136.011183
21
355.918710
31
0.0
1
279
50
188.634747
 0
TEXT
100
AcDbText
 8
Edge ID
100
AcDbText
10
97.954758
20
341.855310
30
0.0
40
3.360000
72
1
11
97.954758
21
341.855310
31
0.0
1
144
50
205.600275
 0
TEXT
100
AcDbText
 8
Edge ID
100
AcDbText
10
74.153276
20
297.795006
30
0.0
40
3.360000
72
1
11
74.153276
21
297.795006
31
0.0
1
131
50
-87.289213
 0
TEXT
100
AcDbText
 8
Edge ID
100
AcDbText
10
120.520661
20
300.825004
30
0.0
40
3.360000
72
1
11
120.520661
21
300.825004
31
0.0
1
196
50
64.494800
 0
TEXT
100
AcDbText
 8
Edge ID
100
AcDbText
10
112.615017
20
152.980678
30
0.0
40
3.360000
72
1
11
112.615017
21
152.980678
31
0.0
1
201
50
90.194464
 0
TEXT
100
AcDbText
 8
Edge ID
100
AcDbText
10
111.935589
20
185.895691
30
0.0
40
3.360000
72
1
11
111.935589
21
185.895691
31
0.0
1
141
50
93.499820
 0
TEXT
100
AcDbText
 8
Edge ID
100
AcDbText
10
75.665177
20
206.032419
30
0.0
40
3.360000
72
1
11
75.665177
21
206.032419
31
0.0
1
142
50
-90.000000
 0
TEXT
100
AcDbText
 8
Edge ID
100
AcDbText
10
112.078588
20
207.190338
30
0.0
40
3.360000
72
1
11
112.078588
21
207.190338
31
0.0
1
200
50
86.287323
 0
TEXT
100
AcDbText
 8
Edge ID
100
AcDbText
10
112.799686
20
251.625177
30
0.0
40
3.360000
72
1
11
112.799686
21
251.625177
31
0.0
1
140
50
90.039921
 0
TEXT
100
AcDbText
 8
Edge ID
100
AcDbText
10
75.817909
20
100.302453
30
0.0
40
3.360000
72
1
11
75.817909
21
100.302453
31
0.0
1
138
50
-89.809347
 0
TEXT
100
AcDbText
 8
Edge ID
100
AcDbText
10
93.692549
20
59.010147
30
0.0
40
3.360000
72
1
11
93.692549
21
59.010147
31
0.0
1
133
50
14.572367
 0
TEXT
100
AcDbText
 8
Edge ID
100
AcDbText
10
112.053917
20
96.755402
30
0.0
40
3.360000
72
1
11
112.053917
21
96.755402
31
0.0
1
139
50
88.894514
 0
TEXT
100
AcDbText
 8
Edge ID
100
AcDbText
10
255.305134
20
538.016091
30
0.0
40
3.360000
72
1
11
255.305134
21
538.016091
31
0.0
1
286
50
150.299748
 0
TEXT
100
AcDbText
 8
Edge ID
100
AcDbText
10
245.012293
20
540.219059
30
0.0
40
3.360000
72
1
11
245.012293
21
540.219059
31
0.0
1
168
50
217.920796
 0
TEXT
100
AcDbText
 8
Edge ID
100
AcDbText
10
232.865125
20
531.155918
30
0.0
40
3.360000
72
1
11
232.865125
21
531.155918
31
0.0
1
169
50
216.375831
 0
TEXT
100
AcDbText
 8
Edge ID
100
AcDbText
10
232.599889
20
507.616984
30
0.0
40
3.360000
72
1
11
232.599889
21
507.616984
31
0.0
1
99
50
-61.090111
 0
TEXT
100
AcDbText
 8
Edge ID
100
AcDbText
10
241.872305
20
476.984178
30
0.0
40
3.360000
72
1
11
241.872305
21
476.984178
31
0.0
1
166
50
-89.556679
 0
TEXT
100
AcDbText
 8
Edge ID
100
AcDbText
10
255.564716
20
463.326911
30
0.0
40
3.360000
72
1
11
255.564716
21
463.326911
31
0.0
1
167
50
1.611425
 0
TEXT
100
AcDbText
 8
Edge ID
100
AcDbText
10
280.664466
20
468.100591
30
0.0
40
3.360000
72
1
11
280.664466
21
468.100591
31
0.0
1
211
50
20.874023
 0
TEXT
100
AcDbText
 8
Edge ID
100
AcDbText
10
292.225292
20
487.916750
30
0.0
40
3.360000
72
1
11
292.225292
21
487.916750
31
0.0
1
271
50
89.833378
 0
TEXT
100
AcDbText
 8
Edge ID
100
AcDbText
10
293.343943
20
530.109039
30
0.0
40
3.360000
72
1
11
293.343943
21
530.109039
31
0.0
1
164
50
87.702792
 0
TEXT
100
AcDbText
 8
Edge ID
100
AcDbText
10
278.648782
20
545.286114
30
0.0
40
3.360000
72
1
11
278.648782
21
545.286114
31
0.0
1
165
50
216.316861
 0
TEXT
100
AcDbText
 8
Edge ID
100
AcDbText
10
165.154314
20
77.514374
30
0.0
40
3.360000
72
1
11
165.154314
21
77.514374
31
0.0
1
167
50
42.633440
 0
TEXT
100
AcDbText
 8
Edge ID
100
AcDbText
10
170.428508
20
91.939833
30
0.0
40
3.360000
72
1
11
170.428508
21
91.939833
31
0.0
1
216
50
132.132789
 0
TEXT
100
AcDbText
 8
Edge ID
100
AcDbText
10
108.941922
20
17.143908
30
0.0
40
3.360000
72
1
11
108.941922
21
17.143908
31
0.0
1
217
50
13.976100
 0
TEXT
100
AcDbText
 8
Edge ID
100
AcDbText
10
165.584101
20
270.331134
30
0.0
40
3.360000
72
1
11
165.584101
21
270.331134
31
0.0
1
214
50
88.715206
 0
TEXT
100
AcDbText
 8
Edge ID
100
AcDbText
10
159.366352
20
319.733393
30
0.0
40
3.360000
72
1
11
159.366352
21
319.733393
31
0.0
1
163
50
189.596222
 0
TEXT
100
AcDbText
 8
Edge ID
100
AcDbText
10
146.885138
20
270.129447
30
0.0
40
3.360000
72
1
11
146.885138
21
270.129447
31
0.0
1
215
50
263.947633
 0
TEXT
100
AcDbText
 8
Edge ID
100
AcDbText
10
135.177894
20
159.014619
30
0.0
40
3.360000
72
1
11
135.177894
21
159.014619
31
0.0
1
132
50
264.014529
 0
TEXT
100
AcDbText
 8
Edge ID
100
AcDbText
10
165.076688
20
158.423444
30
0.0
40
3.360000
72
1
11
165.076688
21
158.423444
31
0.0
1
89
50
90.587738
 0
TEXT
100
AcDbText
 8
Edge ID
100
AcDbText
10
128.356733
20
90.763603
30
0.0
40
3.360000
72
1
11
128.356733
21
90.763603
31
0.0
1
213
50
267.484145
 0
TEXT
100
AcDbText
 8
Edge ID
100
AcDbText
10
149.639737
20
57.289214
30
0.0
40
3.360000
72
1
11
149.639737
21
57.289214
31
0.0
1
211
50
63.408194
 0
TEXT
100
AcDbText
 8
Edge ID
100
AcDbText
10
131.052014
20
32.830869
30
0.0
40
3.360000
72
1
11
131.052014
21
32.830869
31
0.0
1
212
50
45.792085
 0
TEXT
100
AcDbText
 8
Edge ID
100
AcDbText
10
65.013519
20
448.497993
30
0.0
40
3.360000
72
1
11
65.013519
21
448.497993
31
0.0
1
164
50
134.810852
 0
TEXT
100
AcDbText
 8
Edge ID
100
AcDbText
10
35.029050
20
478.209126
30
0.0
40
3.360000
72
1
11
35.029050
21
478.209126
31
0.0
1
271
50
136.046505
 0
TEXT
100
AcDbText
 8
Edge ID
100
AcDbText
10
15.992672
20
471.930198
30
0.0
40
3.360000
72
1
11
15.992672
21
471.930198
31
0.0
1
212
50
244.966895
 0
TEXT
100
AcDbText
 8
Edge ID
100
AcDbText
10
5.100842
20
425.545002
30
0.0
40
3.360000
72
1
11
5.100842
21
425.545002
31
0.0
1
276
50
264.251405
 0
TEXT
100
AcDbText
 8
Edge ID
100
AcDbText
10
65.048602
20
351.670227
30
0.0
40
3.360000
72
1
11
65.048602
21
351.670227
31
0.0
1
406
50
-20.584429
 0
TEXT
100
AcDbText
 8
Edge ID
100
AcDbText
10
83.045375
20
360.497654
30
0.0
40
3.360000
72
1
11
83.045375
21
360.497654
31
0.0
1
269
50
88.336101
 0
TEXT
100
AcDbText
 8
Edge ID
100
AcDbText
10
83.693479
20
402.704286
30
0.0
40
3.360000
72
1
11
83.693479
21
402.704286
31
0.0
1
370
50
89.571758
 0
TEXT
100
AcDbText
 8
Edge ID
100
AcDbText
10
24.820407
20
377.202796
30
0.0
40
3.360000
72
1
11
24.820407
21
377.202796
31
0.0
1
270
50
-39.868727
 0
TEXT
100
AcDbText
 8
Edge ID
100
AcDbText
10
166.600776
20
492.191699
30
0.0
40
3.360000
72
1
11
166.600776
21
492.191699
31
0.0
1
279
50
102.135356
 0
TEXT
100
AcDbText
 8
Edge ID
100
AcDbText
10
171.145572
20
422.538239
30
0.0
40
3.360000
72
1
11
171.145572
21
422.538239
31
0.0
1
277
50
12.313418
 0
TEXT
100
AcDbText
 8
Edge ID
100
AcDbText
10
174.877921
20
452.079410
30
0.0
40
3.360000
72
1
11
174.877921
21
452.079410
31
0.0
1
144
50
101.440700
 0
TEXT
100
AcDbText
 8
Edge ID
100
AcDbText
10
97.994976
20
507.588507
30
0.0
40
3.360000
72
1
11
97.994976
21
507.588507
31
0.0
1
278
50
240.085759
 0
TEXT
100
AcDbText
 8
Edge ID
100
AcDbText
10
126.178752
20
423.297222
30
0.0
40
3.360000
72
1
11
126.178752
21
423.297222
31
0.0
1
217
50
48.073446
 0
TEXT
100
AcDbText
 8
Edge ID
100
AcDbText
10
81.624860
20
472.985770
30
0.0
40
3.360000
72
1
11
81.624860
21
472.985770
31
0.0
1
272
50
248.453647
 0
TEXT
100
AcDbText
 8
Edge ID
100
AcDbText
10
96.919395
20
434.874117
30
0.0
40
3.360000
72
1
11
96.919395
21
434.874117
31
0.0
1
276
50
-38.779763
 0
TEXT
100
AcDbText
 8
Edge ID
100
AcDbText
10
154.744546
20
533.248374
30
0.0
40
3.360000
72
1
11
154.744546
21
533.248374
31
0.0
1
192
50
107.819291
 0
TEXT
100
AcDbText
 8
Edge ID
100
AcDbText
10
76.008923
20
582.451185
30
0.0
40
3.360000
72
1
11
76.008923
21
582.451185
31
0.0
1
351
50
168.075239
 0
TEXT
100
AcDbText
 8
Edge ID
100
AcDbText
10
91.651353
20
513.913548
30
0.0
40
3.360000
72
1
11
91.651353
21
513.913548
31
0.0
1
278
50
30.082323
 0
TEXT
100
AcDbText
 8
Edge ID
100
AcDbText
10
35.869272
20
590.594872
30
0.0
40
3.360000
72
1
11
35.869272
21
590.594872
31
0.0
1
274
50
168.740689
 0
TEXT
100
AcDbText
 8
Edge ID
100
AcDbText
10
6.339614
20
586.769116
30
0.0
40
3.360000
72
1
11
6.339614
21
586.769116
31
0.0
1
343
50
257.865192
 0
TEXT
100
AcDbText
 8
Edge ID
100
AcDbText
10
57.068553
20
497.513268
30
0.0
40
3.360000
72
1
11
57.068553
21
497.513268
31
0.0
1
272
50
21.506032
 0
TEXT
100
AcDbText
 8
Edge ID
100
AcDbText
10
8.113875
20
540.529693
30
0.0
40
3.360000
72
1
11
8.113875
21
540.529693
31
0.0
1
273
50
211.625940
 0
TEXT
100
AcDbText
 8
Edge ID
100
AcDbText
10
18.820483
20
512.715755
30
0.0
40
3.360000
72
1
11
18.820483
21
512.715755
31
0.0
1
270
50
-50.893711
 0
TEXT
100
AcDbText
 8
Edge ID
100
AcDbText
10
117.108900
20
570.745941
30
0.0
40
3.360000
72
1
11
117.108900
21
570.745941
31
0.0
1
275
50
162.391305
 0
TEXT
100
AcDbText
 8
Edge ID
100
AcDbText
10
216.130653
20
142.230884
30
0.0
40
3.360000
72
1
11
216.130653
21
142.230884
31
0.0
1
344
50
86.590541
 0
TEXT
100
AcDbText
 8
Edge ID
100
AcDbText
10
185.160983
20
143.264255
30
0.0
40
3.360000
72
1
11
185.160983
21
143.264255
31
0.0
1
408
50
-90.000000
 0
TEXT
100
AcDbText
 8
Edge ID
100
AcDbText
10
183.374773
20
74.961954
30
0.0
40
3.360000
72
1
11
183.374773
21
74.961954
31
0.0
1
342
50
251.056375
 0
TEXT
100
AcDbText
 8
Edge ID
100
AcDbText
10
203.436374
20
15.526190
30
0.0
40
3.360000
72
1
11
203.436374
21
15.526190
31
0.0
1
343
50
18.653453
 0
TEXT
100
AcDbText
 8
Edge ID
100
AcDbText
10
212.513851
20
50.538477
30
0.0
40
3.360000
72
1
11
212.513851
21
50.538477
31
0.0
1
349
50
89.894957
 0
TEXT
100
AcDbText
 8
Edge ID
100
AcDbText
10
205.510290
20
298.603857
30
0.0
40
3.360000
72
1
11
205.510290
21
298.603857
31
0.0
1
340
50
165.762266
 0
TEXT
100
AcDbText
 8
Edge ID
100
AcDbText
10
185.442810
20
254.993330
30
0.0
40
3.360000
72
1
11
185.442810
21
254.993330
31
0.0
1
341
50
269.667963
 0
TEXT
100
AcDbText
 8
Edge ID
100
AcDbText
10
222.492396
20
247.769505
30
0.0
40
3.360000
72
1
11
222.492396
21
247.769505
31
0.0
1
346
50
86.498196
 0
TEXT
100
AcDbText
 8
Edge ID
100
AcDbText
10
241.649186
20
297.629084
30
0.0
40
3.360000
72
1
11
241.649186
21
297.629084
31
0.0
1
351
50
-8.634747
 0
TEXT
100
AcDbText
 8
Edge ID
100
AcDbText
10
244.147418
20
316.092519
30
0.0
40
3.360000
72
1
11
244.147418
21
316.092519
31
0.0
1
195
50
116.667285
 0
TEXT
100
AcDbText
 8
Edge ID
100
AcDbText
10
203.592761
20
311.692484
30
0.0
40
3.360000
72
1
11
203.592761
21
311.692484
31
0.0
1
274
50
-25.600275
 0
TEXT
100
AcDbText
 8
Edge ID
100
AcDbText
10
179.791279
20
355.752789
30
0.0
40
3.360000
72
1
11
179.791279
21
355.752789
31
0.0
1
349
50
267.289213
 0
TEXT
100
AcDbText
 8
Edge ID
100
AcDbText
10
226.158664
20
352.722791
30
0.0
40
3.360000
72
1
11
226.158664
21
352.722791
31
0.0
1
350
50
115.505200
 0
TEXT
100
AcDbText
 8
Edge ID
100
AcDbText
10
218.253020
20
500.567116
30
0.0
40
3.360000
72
1
11
218.253020
21
500.567116
31
0.0
1
348
50
89.805536
 0
TEXT
100
AcDbText
 8
Edge ID
100
AcDbText
10
181.303180
20
447.515376
30
0.0
40
3.360000
72
1
11
181.303180
21
447.515376
31
0.0
1
344
50
-90.000000
 0
TEXT
100
AcDbText
 8
Edge ID
100
AcDbText
10
217.573592
20
467.652103
30
0.0
40
3.360000
72
1
11
217.573592
21
467.652103
31
0.0
1
197
50
86.500180
 0
TEXT
100
AcDbText
 8
Edge ID
100
AcDbText
10
218.437689
20
401.922617
30
0.0
40
3.360000
72
1
11
218.437689
21
401.922617
31
0.0
1
199
50
89.960079
 0
TEXT
100
AcDbText
 8
Edge ID
100
AcDbText
10
217.716591
20
446.357457
30
0.0
40
3.360000
72
1
11
217.716591
21
446.357457
31
0.0
1
347
50
93.712677
 0
TEXT
100
AcDbText
 8
Edge ID
100
AcDbText
10
217.691920
20
556.792392
30
0.0
40
3.360000
72
1
11
217.691920
21
556.792392
31
0.0
1
345
50
91.105486
 0
TEXT
100
AcDbText
 8
Edge ID
100
AcDbText
10
199.330552
20
594.537647
30
0.0
40
3.360000
72
1
11
199.330552
21
594.537647
31
0.0
1
353
50
165.427633
 0
TEXT
100
AcDbText
 8
Edge ID
100
AcDbText
10
181.455912
20
553.245341
30
0.0
40
3.360000
72
1
11
181.455912
21
553.245341
31
0.0
1
346
50
269.809347
 0
TEXT
100
AcDbText
 8
Edge ID
100
AcDbText
10
242.095762
20
369.645363
30
0.0
40
3.360000
72
1
11
242.095762
21
369.645363
31
0.0
1
283
50
61.941476
 0
TEXT
100
AcDbText
 8
Edge ID
100
AcDbText
10
252.429697
20
372.334393
30
0.0
40
3.360000
72
1
11
252.429697
21
372.334393
31
0.0
1
374
50
-2.311130
 0
TEXT
100
AcDbText
 8
Edge ID
100
AcDbText
10
230.059656
20
397.098420
30
0.0
40
3.360000
72
1
11
230.059656
21
397.098420
31
0.0
1
96
50
242.888030
 0
TEXT
100
AcDbText
 8
Edge ID
100
AcDbText
10
230.948003
20
373.415180
30
0.0
40
3.360000
72
1
11
230.948003
21
373.415180
31
0.0
1
373
50
-35.559547
 0
TEXT
100
AcDbText
 8
Edge ID
100
AcDbText
10
251.611056
20
441.937502
30
0.0
40
3.360000
72
1
11
251.611056
21
441.937502
31
0.0
1
410
50
179.556557
 0
TEXT
100
AcDbText
 8
Edge ID
100
AcDbText
10
238.360314
20
428.006916
30
0.0
40
3.360000
72
1
11
238.360314
21
428.006916
31
0.0
1
371
50
-88.620483
 0
TEXT
100
AcDbText
 8
Edge ID
100
AcDbText
10
289.146099
20
418.484394
30
0.0
40
3.360000
72
1
11
289.146099
21
418.484394
31
0.0
1
269
50
92.261565
 0
TEXT
100
AcDbText
 8
Edge ID
100
AcDbText
10
276.868611
20
437.864697
30
0.0
40
3.360000
72
1
11
276.868611
21
437.864697
31
0.0
1
372
50
161.220919
 0
TEXT
100
AcDbText
 8
Edge ID
100
AcDbText
10
291.506364
20
376.339849
30
0.0
40
3.360000
72
1
11
291.506364
21
376.339849
31
0.0
1
370
50
93.748899
 0
TEXT
100
AcDbText
 8
Edge ID
100
AcDbText
10
277.200417
20
360.795357
30
0.0
40
3.360000
72
1
11
277.200417
21
360.795357
31
0.0
1
280
50
-34.865171
 0
TEXT
100
AcDbText
 8
Edge ID
100
AcDbText
10
61.002584
20
296.427888
30
0.0
40
3.360000
72
1
11
61.002584
21
296.427888
31
0.0
1
410
50
129.555270
 0
TEXT
100
AcDbText
 8
Edge ID
100
AcDbText
10
64.267264
20
281.419461
30
0.0
40
3.360000
72
1
11
64.267264
21
281.419461
31
0.0
1
86
50
40.055921
 0
TEXT
100
AcDbText
 8
Edge ID
100
AcDbText
10
13.687469
20
363.911989
30
0.0
40
3.360000
72
1
11
13.687469
21
363.911989
31
0.0
1
273
50
158.280388
 0
TEXT
100
AcDbText
 8
Edge ID
100
AcDbText
10
16.724457
20
108.083054
30
0.0
40
3.360000
72
1
11
16.724457
21
108.083054
31
0.0
1
341
50
268.241076
 0
TEXT
100
AcDbText
 8
Edge ID
100
AcDbText
10
22.348147
20
57.243047
30
0.0
40
3.360000
72
1
11
22.348147
21
57.243047
31
0.0
1
409
50
-17.407512
 0
TEXT
100
AcDbText
 8
Edge ID
100
AcDbText
10
35.222503
20
105.341847
30
0.0
40
3.360000
72
1
11
35.222503
21
105.341847
31
0.0
1
92
50
83.473504
 0
TEXT
100
AcDbText
 8
Edge ID
100
AcDbText
10
49.929262
20
216.280117
30
0.0
40
3.360000
72
1
11
49.929262
21
216.280117
31
0.0
1
407
50
81.600972
 0
TEXT
100
AcDbText
 8
Edge ID
100
AcDbText
10
20.227550
20
219.757997
30
0.0
40
3.360000
72
1
11
20.227550
21
219.757997
31
0.0
1
408
50
268.174181
 0
TEXT
100
AcDbText
 8
Edge ID
100
AcDbText
10
22.745732
20
288.302786
30
0.0
40
3.360000
72
1
11
22.745732
21
288.302786
31
0.0
1
342
50
264.704565
 0
TEXT
100
AcDbText
 8
Edge ID
100
AcDbText
10
48.486011
20
318.609233
30
0.0
40
3.360000
72
1
11
48.486011
21
318.609233
31
0.0
1
372
50
108.264607
 0
TEXT
100
AcDbText
 8
Edge ID
100
AcDbText
10
33.482302
20
345.388990
30
0.0
40
3.360000
72
1
11
33.482302
21
345.388990
31
0.0
1
406
50
126.464403
  0
ENDSEC
  0
EOF
