  0
SECTION
  2
HEADER
  9
$ACADVER
  1
AC1009
  0
ENDSEC
  0
SECTION
  2
BLOCKS
  0
ENDSEC
  0
SECTION
  2
ENTITIES
  0
LINE
  8
CutLine
  6
CONTINUOUS
 62
8
 10
334.648412
 20
287.895443
 11
329.648412
 21
292.895443
  0
LINE
  8
CutLine
  6
CONTINUOUS
 62
8
 10
329.648412
 20
292.895443
 11
329.648412
 21
319.633046
  0
LINE
  8
CutLine
  6
CONTINUOUS
 62
8
 10
329.648412
 20
319.633046
 11
334.648412
 21
329.235622
  0
LINE
  8
CutLine
  6
CONTINUOUS
 62
8
 10
334.648412
 20
329.235622
 11
341.280087
 21
326.781873
  0
LINE
  8
CutLine
  6
CONTINUOUS
 62
8
 10
341.280087
 20
326.781873
 11
353.060509
 21
301.163863
  0
LINE
  8
CutLine
  6
CONTINUOUS
 62
8
 10
353.060509
 20
301.163863
 11
351.886600
 21
291.749015
  0
LINE
  8
CutLine
  6
CONTINUOUS
 62
8
 10
390.744392
 20
204.617714
 11
383.802293
 21
203.273370
  0
LINE
  8
CutLine
  6
CONTINUOUS
 62
8
 10
383.802293
 20
203.273370
 11
363.789209
 21
216.792841
  0
LINE
  8
CutLine
  6
CONTINUOUS
 62
8
 10
363.789209
 20
216.792841
 11
362.302605
 21
223.831041
  0
LINE
  8
CutLine
  6
CONTINUOUS
 62
8
 10
464.009131
 20
51.531084
 11
461.462103
 21
49.682708
  0
LINE
  8
CutLine
  6
CONTINUOUS
 62
8
 10
468.003405
 20
230.228809
 11
474.917952
 21
228.749267
  0
LINE
  8
CutLine
  6
CONTINUOUS
 62
8
 10
474.917952
 20
228.749267
 11
479.083159
 21
222.316317
  0
LINE
  8
CutLine
  6
CONTINUOUS
 62
8
 10
479.083159
 20
222.316317
 11
477.603617
 21
215.401771
  0
LINE
  8
CutLine
  6
CONTINUOUS
 62
8
 10
362.379054
 20
143.196235
 11
363.058269
 21
156.592623
  0
LINE
  8
CutLine
  6
CONTINUOUS
 62
8
 10
363.058269
 20
156.592623
 11
384.108747
 21
202.174718
  0
LINE
  8
CutLine
  6
CONTINUOUS
 62
8
 10
384.108747
 20
202.174718
 11
390.744392
 21
204.617714
  0
LINE
  8
CutLine
  6
CONTINUOUS
 62
8
 10
464.338644
 20
140.917222
 11
469.951279
 21
136.616253
  0
LINE
  8
CutLine
  6
CONTINUOUS
 62
8
 10
469.951279
 20
136.616253
 11
478.563223
 21
71.526993
  0
LINE
  8
CutLine
  6
CONTINUOUS
 62
8
 10
478.563223
 20
71.526993
 11
474.262255
 21
65.914358
  0
LINE
  8
CutLine
  6
CONTINUOUS
 62
8
 10
463.557212
 20
49.201785
 11
468.365544
 21
54.386373
  0
LINE
  8
CutLine
  6
CONTINUOUS
 62
8
 10
468.365544
 20
54.386373
 11
493.814561
 21
55.344584
  0
LINE
  8
CutLine
  6
CONTINUOUS
 62
8
 10
493.814561
 20
55.344584
 11
504.868119
 21
50.757232
  0
LINE
  8
CutLine
  6
CONTINUOUS
 62
8
 10
526.685734
 20
38.305964
 11
522.622597
 21
32.518830
  0
LINE
  8
CutLine
  6
CONTINUOUS
 62
8
 10
522.622597
 20
32.518830
 11
469.412760
 21
23.206033
  0
LINE
  8
CutLine
  6
CONTINUOUS
 62
8
 10
469.412760
 20
23.206033
 11
463.625627
 21
27.269170
  0
LINE
  8
CutLine
  6
CONTINUOUS
 62
8
 10
333.932573
 20
33.070902
 11
333.309471
 21
40.114462
  0
LINE
  8
CutLine
  6
CONTINUOUS
 62
8
 10
333.309471
 20
40.114462
 11
351.656202
 21
62.022276
  0
LINE
  8
CutLine
  6
CONTINUOUS
 62
8
 10
351.656202
 20
62.022276
 11
358.699762
 21
62.645379
  0
LINE
  8
CutLine
  6
CONTINUOUS
 62
8
 10
531.208588
 20
240.638487
 11
529.041282
 21
233.907752
  0
LINE
  8
CutLine
  6
CONTINUOUS
 62
8
 10
529.041282
 20
233.907752
 11
515.586948
 21
227.007595
  0
LINE
  8
CutLine
  6
CONTINUOUS
 62
8
 10
515.586948
 20
227.007595
 11
508.856214
 21
229.174901
  0
LINE
  8
CutLine
  6
CONTINUOUS
 62
8
 10
467.656126
 20
232.575370
 11
459.579092
 21
229.273345
  0
LINE
  8
CutLine
  6
CONTINUOUS
 62
8
 10
338.882093
 20
254.483006
 11
343.882093
 21
259.483006
  0
LINE
  8
CutLine
  6
CONTINUOUS
 62
8
 10
343.882093
 20
259.483006
 11
463.704849
 21
259.483006
  0
LINE
  8
CutLine
  6
CONTINUOUS
 62
8
 10
463.704849
 20
259.483006
 11
468.704849
 21
254.483006
  0
LINE
  8
CutLine
  6
CONTINUOUS
 62
8
 10
545.610287
 20
297.179977
 11
538.544464
 21
296.907671
  0
LINE
  8
CutLine
  6
CONTINUOUS
 62
8
 10
538.544464
 20
296.907671
 11
528.701709
 21
306.019930
  0
LINE
  8
CutLine
  6
CONTINUOUS
 62
8
 10
528.701709
 20
306.019930
 11
528.429404
 21
313.085753
  0
LINE
  8
CutLine
  6
CONTINUOUS
 62
8
 10
546.233271
 20
424.862277
 11
556.363578
 21
425.254413
  0
LINE
  8
CutLine
  6
CONTINUOUS
 62
8
 10
556.363578
 20
425.254413
 11
584.221740
 21
410.854617
  0
LINE
  8
CutLine
  6
CONTINUOUS
 62
8
 10
584.221740
 20
410.854617
 11
586.367545
 21
404.116998
  0
LINE
  8
CutLine
  6
CONTINUOUS
 62
8
 10
590.933821
 20
352.042947
 11
590.638065
 21
344.978067
  0
LINE
  8
CutLine
  6
CONTINUOUS
 62
8
 10
590.638065
 20
344.978067
 11
569.604736
 21
325.635009
  0
LINE
  8
CutLine
  6
CONTINUOUS
 62
8
 10
569.604736
 20
325.635009
 11
562.539856
 21
325.930765
  0
LINE
  8
CutLine
  6
CONTINUOUS
 62
8
 10
527.532685
 20
354.077070
 11
526.170287
 21
361.536313
  0
LINE
  8
CutLine
  6
CONTINUOUS
 62
8
 10
526.170287
 20
361.536313
 11
539.748242
 21
384.220304
  0
LINE
  8
CutLine
  6
CONTINUOUS
 62
8
 10
539.748242
 20
384.220304
 11
546.606377
 21
385.942507
  0
LINE
  8
CutLine
  6
CONTINUOUS
 62
8
 10
532.129851
 20
314.797989
 11
526.750268
 21
319.088906
  0
LINE
  8
CutLine
  6
CONTINUOUS
 62
8
 10
504.302933
 20
536.526859
 11
510.773366
 21
533.674931
  0
LINE
  8
CutLine
  6
CONTINUOUS
 62
8
 10
510.773366
 20
533.674931
 11
531.499763
 21
480.277474
  0
LINE
  8
CutLine
  6
CONTINUOUS
 62
8
 10
531.499763
 20
480.277474
 11
528.647835
 21
473.807041
  0
LINE
  8
CutLine
  6
CONTINUOUS
 62
8
 10
413.413186
 20
449.533267
 11
406.424718
 21
450.610913
  0
LINE
  8
CutLine
  6
CONTINUOUS
 62
8
 10
406.424718
 20
450.610913
 11
391.649490
 21
470.773706
  0
LINE
  8
CutLine
  6
CONTINUOUS
 62
8
 10
391.649490
 20
470.773706
 11
392.727136
 21
477.762174
  0
LINE
  8
CutLine
  6
CONTINUOUS
 62
8
 10
489.663960
 20
571.299428
 11
490.264378
 21
578.344959
  0
LINE
  8
CutLine
  6
CONTINUOUS
 62
8
 10
490.264378
 20
578.344959
 11
500.520018
 21
586.989896
  0
LINE
  8
CutLine
  6
CONTINUOUS
 62
8
 10
500.520018
 20
586.989896
 11
507.565548
 21
586.389478
  0
LINE
  8
CutLine
  6
CONTINUOUS
 62
8
 10
408.787956
 20
494.798210
 11
402.006500
 21
496.801169
  0
LINE
  8
CutLine
  6
CONTINUOUS
 62
8
 10
402.006500
 20
496.801169
 11
394.652347
 21
510.320470
  0
LINE
  8
CutLine
  6
CONTINUOUS
 62
8
 10
394.652347
 20
510.320470
 11
396.655307
 21
517.101927
  0
LINE
  8
CutLine
  6
CONTINUOUS
 62
8
 10
464.310243
 20
517.101927
 11
459.595731
 21
522.371972
  0
LINE
  8
CutLine
  6
CONTINUOUS
 62
8
 10
459.595731
 20
522.371972
 11
462.798649
 21
579.937873
  0
LINE
  8
CutLine
  6
CONTINUOUS
 62
8
 10
462.798649
 20
579.937873
 11
468.068694
 21
584.652385
  0
LINE
  8
CutLine
  6
CONTINUOUS
 62
8
 10
453.531020
 20
440.868167
 11
450.446140
 21
449.253317
  0
LINE
  8
CutLine
  6
CONTINUOUS
 62
8
 10
450.446140
 20
449.253317
 11
453.215126
 21
460.500198
  0
LINE
  8
CutLine
  6
CONTINUOUS
 62
8
 10
491.190576
 20
400.998532
 11
480.129446
 21
399.729711
  0
LINE
  8
CutLine
  6
CONTINUOUS
 62
8
 10
480.129446
 20
399.729711
 11
448.257624
 21
411.419275
  0
LINE
  8
CutLine
  6
CONTINUOUS
 62
8
 10
448.257624
 20
411.419275
 11
445.285089
 21
417.835196
  0
LINE
  8
CutLine
  6
CONTINUOUS
 62
8
 10
443.165593
 20
445.432633
 11
446.341185
 21
436.830025
  0
LINE
  8
CutLine
  6
CONTINUOUS
 62
8
 10
446.341185
 20
436.830025
 11
443.710241
 21
425.231918
  0
LINE
  8
CutLine
  6
CONTINUOUS
 62
8
 10
443.710241
 20
425.231918
 11
437.728013
 21
421.461912
  0
LINE
  8
CutLine
  6
CONTINUOUS
 62
8
 10
534.602229
 20
564.167829
 11
541.672389
 21
564.281162
  0
LINE
  8
CutLine
  6
CONTINUOUS
 62
8
 10
541.672389
 20
564.281162
 11
561.166767
 21
545.401909
  0
LINE
  8
CutLine
  6
CONTINUOUS
 62
8
 10
561.166767
 20
545.401909
 11
561.280101
 21
538.331750
  0
LINE
  8
CutLine
  6
CONTINUOUS
 62
8
 10
559.489308
 20
524.500164
 11
552.912777
 21
521.902234
  0
LINE
  8
CutLine
  6
CONTINUOUS
 62
8
 10
552.912777
 20
521.902234
 11
539.642352
 21
527.657093
  0
LINE
  8
CutLine
  6
CONTINUOUS
 62
8
 10
539.642352
 20
527.657093
 11
537.044422
 21
534.233624
  0
LINE
  8
CutLine
  6
CONTINUOUS
 62
8
 10
522.499958
 20
381.142161
 11
522.585830
 21
388.212707
  0
LINE
  8
CutLine
  6
CONTINUOUS
 62
8
 10
522.585830
 20
388.212707
 11
532.937252
 21
398.315709
  0
LINE
  8
CutLine
  6
CONTINUOUS
 62
8
 10
532.937252
 20
398.315709
 11
540.007799
 21
398.229836
  0
LINE
  8
CutLine
  6
CONTINUOUS
 62
8
 10
346.886600
 20
369.722230
 11
348.060509
 21
360.307381
  0
LINE
  8
CutLine
  6
CONTINUOUS
 62
8
 10
348.060509
 20
360.307381
 11
336.280087
 21
334.689372
  0
LINE
  8
CutLine
  6
CONTINUOUS
 62
8
 10
336.280087
 20
334.689372
 11
329.648412
 21
332.235622
  0
LINE
  8
CutLine
  6
CONTINUOUS
 62
8
 10
329.648412
 20
373.575802
 11
335.618792
 21
377.364544
  0
LINE
  8
CutLine
  6
CONTINUOUS
 62
8
 10
335.618792
 20
377.364544
 11
343.097858
 21
375.692609
  0
LINE
  8
CutLine
  6
CONTINUOUS
 62
8
 10
343.097858
 20
375.692609
 11
346.886600
 21
369.722230
  0
LINE
  8
CutLine
  6
CONTINUOUS
 62
8
 10
378.895284
 20
333.298816
 11
372.273279
 21
335.778544
  0
LINE
  8
CutLine
  6
CONTINUOUS
 62
8
 10
372.273279
 20
335.778544
 11
337.263690
 21
412.704351
  0
LINE
  8
CutLine
  6
CONTINUOUS
 62
8
 10
337.263690
 20
412.704351
 11
338.206957
 21
422.702387
  0
LINE
  8
CutLine
  6
CONTINUOUS
 62
8
 10
422.704028
 20
362.054395
 11
429.771694
 21
361.835087
  0
LINE
  8
CutLine
  6
CONTINUOUS
 62
8
 10
429.771694
 20
361.835087
 11
432.616978
 21
358.807572
  0
LINE
  8
CutLine
  6
CONTINUOUS
 62
8
 10
432.616978
 20
358.807572
 11
432.397670
 21
351.739906
  0
LINE
  8
CutLine
  6
CONTINUOUS
 62
8
 10
469.047032
 20
398.350805
 11
475.756366
 21
396.118127
  0
LINE
  8
CutLine
  6
CONTINUOUS
 62
8
 10
475.756366
 20
396.118127
 11
494.007301
 21
359.662333
  0
LINE
  8
CutLine
  6
CONTINUOUS
 62
8
 10
494.007301
 20
359.662333
 11
491.774624
 21
352.953000
  0
LINE
  8
CutLine
  6
CONTINUOUS
 62
8
 10
384.904652
 20
465.078884
 11
389.768661
 21
468.266312
  0
LINE
  8
CutLine
  6
CONTINUOUS
 62
8
 10
389.768661
 20
468.266312
 11
390.240137
 21
462.470107
  0
LINE
  8
ValleyLine
  6
CONTINUOUS
 62
1
 10
334.648412
 20
329.235622
 11
334.648412
 21
287.895443
  0
LINE
  8
CutLine
  6
CONTINUOUS
 62
8
 10
334.648412
 20
287.895443
 11
351.886600
 21
291.749015
  0
LINE
  8
MountainLine
  6
CONTINUOUS
 62
5
 10
351.886600
 20
291.749015
 11
334.648412
 21
329.235622
  0
LINE
  8
ValleyLine
  6
CONTINUOUS
 62
1
 10
433.328293
 20
226.296045
 11
362.302605
 21
223.831041
  0
LINE
  8
MountainLine
  6
CONTINUOUS
 62
5
 10
362.302605
 20
223.831041
 11
390.744392
 21
204.617714
  0
LINE
  8
ValleyLine
  6
CONTINUOUS
 62
1
 10
390.744392
 20
204.617714
 11
468.003405
 21
230.228809
  0
LINE
  8
CutLine
  6
CONTINUOUS
 62
8
 10
468.003405
 20
230.228809
 11
433.328293
 21
226.296045
  0
LINE
  8
CutLine
  6
CONTINUOUS
 62
8
 10
387.971632
 20
80.568683
 11
358.699762
 21
62.645379
  0
LINE
  8
ValleyLine
  6
CONTINUOUS
 62
1
 10
358.699762
 20
62.645379
 11
429.544373
 21
57.009272
  0
LINE
  8
ValleyLine
  6
CONTINUOUS
 62
1
 10
429.544373
 20
57.009272
 11
464.009131
 21
51.531084
  0
LINE
  8
ValleyLine
  6
CONTINUOUS
 62
1
 10
464.009131
 20
51.531084
 11
387.971632
 21
80.568683
  0
LINE
  8
MountainLine
  6
CONTINUOUS
 62
5
 10
477.603617
 20
215.401771
 11
468.003405
 21
230.228809
  0
LINE
  8
CutLine
  6
CONTINUOUS
 62
8
 10
464.338644
 20
140.917222
 11
477.603617
 21
215.401771
  0
LINE
  8
MountainLine
  6
CONTINUOUS
 62
5
 10
390.744392
 20
204.617714
 11
362.379054
 21
143.196235
  0
LINE
  8
CutLine
  6
CONTINUOUS
 62
8
 10
464.009131
 20
51.531084
 11
474.262255
 21
65.914358
  0
LINE
  8
MountainLine
  6
CONTINUOUS
 62
5
 10
474.262255
 20
65.914358
 11
464.338644
 21
140.917222
  0
LINE
  8
CutLine
  6
CONTINUOUS
 62
8
 10
362.379054
 20
143.196235
 11
387.971632
 21
80.568683
  0
LINE
  8
ValleyLine
  6
CONTINUOUS
 62
1
 10
463.625627
 20
27.269170
 11
504.868119
 21
50.757232
  0
LINE
  8
ValleyLine
  6
CONTINUOUS
 62
1
 10
504.868119
 20
50.757232
 11
463.557212
 21
49.201785
  0
LINE
  8
MountainLine
  6
CONTINUOUS
 62
5
 10
463.557212
 20
49.201785
 11
463.625627
 21
27.269170
  0
LINE
  8
MountainLine
  6
CONTINUOUS
 62
5
 10
463.625627
 20
27.269170
 11
526.685734
 21
38.305964
  0
LINE
  8
CutLine
  6
CONTINUOUS
 62
8
 10
526.685734
 20
38.305964
 11
504.868119
 21
50.757232
  0
LINE
  8
MountainLine
  6
CONTINUOUS
 62
5
 10
358.699762
 20
62.645379
 11
333.932573
 21
33.070902
  0
LINE
  8
CutLine
  6
CONTINUOUS
 62
8
 10
333.932573
 20
33.070902
 11
463.625627
 21
27.269170
  0
LINE
  8
CutLine
  6
CONTINUOUS
 62
8
 10
463.557212
 20
49.201785
 11
429.544373
 21
57.009272
  0
LINE
  8
ValleyLine
  6
CONTINUOUS
 62
1
 10
508.856214
 20
229.174901
 11
468.704849
 21
254.483006
  0
LINE
  8
MountainLine
  6
CONTINUOUS
 62
5
 10
468.704849
 20
254.483006
 11
467.656126
 21
232.575370
  0
LINE
  8
CutLine
  6
CONTINUOUS
 62
8
 10
467.656126
 20
232.575370
 11
508.856214
 21
229.174901
  0
LINE
  8
ValleyLine
  6
CONTINUOUS
 62
1
 10
508.856214
 20
229.174901
 11
531.208588
 21
240.638487
  0
LINE
  8
CutLine
  6
CONTINUOUS
 62
8
 10
531.208588
 20
240.638487
 11
468.704849
 21
254.483006
  0
LINE
  8
ValleyLine
  6
CONTINUOUS
 62
1
 10
433.328293
 20
226.296045
 11
467.656126
 21
232.575370
  0
LINE
  8
MountainLine
  6
CONTINUOUS
 62
5
 10
468.704849
 20
254.483006
 11
338.882093
 21
254.483006
  0
LINE
  8
CutLine
  6
CONTINUOUS
 62
8
 10
338.882093
 20
254.483006
 11
362.302605
 21
223.831041
  0
LINE
  8
MountainLine
  6
CONTINUOUS
 62
5
 10
545.610287
 20
297.179977
 11
562.539856
 21
325.930765
  0
LINE
  8
ValleyLine
  6
CONTINUOUS
 62
1
 10
562.539856
 20
325.930765
 11
546.114551
 21
321.268857
  0
LINE
  8
CutLine
  6
CONTINUOUS
 62
8
 10
546.114551
 20
321.268857
 11
528.429404
 21
313.085753
  0
LINE
  8
ValleyLine
  6
CONTINUOUS
 62
1
 10
528.429404
 20
313.085753
 11
545.610287
 21
297.179977
  0
LINE
  8
CutLine
  6
CONTINUOUS
 62
8
 10
545.610287
 20
297.179977
 11
570.576836
 21
292.561705
  0
LINE
  8
CutLine
  6
CONTINUOUS
 62
8
 10
570.576836
 20
292.561705
 11
562.539856
 21
325.930765
  0
LINE
  8
ValleyLine
  6
CONTINUOUS
 62
1
 10
546.606377
 20
385.942507
 11
586.367545
 21
404.116998
  0
LINE
  8
ValleyLine
  6
CONTINUOUS
 62
1
 10
586.367545
 20
404.116998
 11
546.233271
 21
424.862277
  0
LINE
  8
MountainLine
  6
CONTINUOUS
 62
5
 10
546.233271
 20
424.862277
 11
540.007799
 21
398.229836
  0
LINE
  8
ValleyLine
  6
CONTINUOUS
 62
1
 10
540.007799
 20
398.229836
 11
546.606377
 21
385.942507
  0
LINE
  8
ValleyLine
  6
CONTINUOUS
 62
1
 10
546.233271
 20
424.862277
 11
491.190576
 21
400.998532
  0
LINE
  8
CutLine
  6
CONTINUOUS
 62
8
 10
491.190576
 20
400.998532
 11
540.007799
 21
398.229836
  0
LINE
  8
ValleyLine
  6
CONTINUOUS
 62
1
 10
546.606377
 20
385.942507
 11
590.933821
 21
352.042947
  0
LINE
  8
CutLine
  6
CONTINUOUS
 62
8
 10
590.933821
 20
352.042947
 11
586.367545
 21
404.116998
  0
LINE
  8
MountainLine
  6
CONTINUOUS
 62
5
 10
562.539856
 20
325.930765
 11
590.933821
 21
352.042947
  0
LINE
  8
ValleyLine
  6
CONTINUOUS
 62
1
 10
546.606377
 20
385.942507
 11
527.532685
 21
354.077070
  0
LINE
  8
CutLine
  6
CONTINUOUS
 62
8
 10
527.532685
 20
354.077070
 11
526.750268
 21
319.088906
  0
LINE
  8
ValleyLine
  6
CONTINUOUS
 62
1
 10
526.750268
 20
319.088906
 11
546.114551
 21
321.268857
  0
LINE
  8
ValleyLine
  6
CONTINUOUS
 62
1
 10
461.377430
 20
472.738183
 11
491.190576
 21
400.998532
  0
LINE
  8
ValleyLine
  6
CONTINUOUS
 62
1
 10
491.190576
 20
400.998532
 11
528.647835
 21
473.807041
  0
LINE
  8
MountainLine
  6
CONTINUOUS
 62
5
 10
528.647835
 20
473.807041
 11
461.377430
 21
472.738183
  0
LINE
  8
ValleyLine
  6
CONTINUOUS
 62
1
 10
464.310243
 20
517.101927
 11
408.787956
 21
494.798210
  0
LINE
  8
MountainLine
  6
CONTINUOUS
 62
5
 10
408.787956
 20
494.798210
 11
443.165593
 21
445.432633
  0
LINE
  8
CutLine
  6
CONTINUOUS
 62
8
 10
443.165593
 20
445.432633
 11
461.377430
 21
472.738183
  0
LINE
  8
MountainLine
  6
CONTINUOUS
 62
5
 10
528.647835
 20
473.807041
 11
464.310243
 21
517.101927
  0
LINE
  8
CutLine
  6
CONTINUOUS
 62
8
 10
504.302933
 20
536.526859
 11
537.044422
 21
534.233624
  0
LINE
  8
MountainLine
  6
CONTINUOUS
 62
5
 10
537.044422
 20
534.233624
 11
489.663960
 21
571.299428
  0
LINE
  8
ValleyLine
  6
CONTINUOUS
 62
1
 10
489.663960
 20
571.299428
 11
464.310243
 21
517.101927
  0
LINE
  8
MountainLine
  6
CONTINUOUS
 62
5
 10
528.647835
 20
473.807041
 11
504.302933
 21
536.526859
  0
LINE
  8
CutLine
  6
CONTINUOUS
 62
8
 10
408.787956
 20
494.798210
 11
392.727136
 21
477.762174
  0
LINE
  8
ValleyLine
  6
CONTINUOUS
 62
1
 10
392.727136
 20
477.762174
 11
413.413186
 21
449.533267
  0
LINE
  8
ValleyLine
  6
CONTINUOUS
 62
1
 10
413.413186
 20
449.533267
 11
443.165593
 21
445.432633
  0
LINE
  8
ValleyLine
  6
CONTINUOUS
 62
1
 10
537.044422
 20
534.233624
 11
534.602229
 21
564.167829
  0
LINE
  8
CutLine
  6
CONTINUOUS
 62
8
 10
534.602229
 20
564.167829
 11
507.565548
 21
586.389478
  0
LINE
  8
ValleyLine
  6
CONTINUOUS
 62
1
 10
507.565548
 20
586.389478
 11
489.663960
 21
571.299428
  0
LINE
  8
CutLine
  6
CONTINUOUS
 62
8
 10
464.310243
 20
517.101927
 11
396.655307
 21
517.101927
  0
LINE
  8
ValleyLine
  6
CONTINUOUS
 62
1
 10
396.655307
 20
517.101927
 11
408.787956
 21
494.798210
  0
LINE
  8
CutLine
  6
CONTINUOUS
 62
8
 10
489.663960
 20
571.299428
 11
468.068694
 21
584.652385
  0
LINE
  8
MountainLine
  6
CONTINUOUS
 62
5
 10
468.068694
 20
584.652385
 11
464.310243
 21
517.101927
  0
LINE
  8
CutLine
  6
CONTINUOUS
 62
8
 10
546.233271
 20
424.862277
 11
528.647835
 21
473.807041
  0
LINE
  8
MountainLine
  6
CONTINUOUS
 62
5
 10
461.377430
 20
472.738183
 11
453.531020
 21
440.868167
  0
LINE
  8
CutLine
  6
CONTINUOUS
 62
8
 10
453.531020
 20
440.868167
 11
445.285089
 21
417.835196
  0
LINE
  8
ValleyLine
  6
CONTINUOUS
 62
1
 10
445.285089
 20
417.835196
 11
491.190576
 21
400.998532
  0
LINE
  8
CutLine
  6
CONTINUOUS
 62
8
 10
413.413186
 20
449.533267
 11
437.728013
 21
421.461912
  0
LINE
  8
MountainLine
  6
CONTINUOUS
 62
5
 10
437.728013
 20
421.461912
 11
443.165593
 21
445.432633
  0
LINE
  8
ValleyLine
  6
CONTINUOUS
 62
1
 10
561.280101
 20
538.331750
 11
534.602229
 21
564.167829
  0
LINE
  8
MountainLine
  6
CONTINUOUS
 62
5
 10
537.044422
 20
534.233624
 11
561.280101
 21
538.331750
  0
LINE
  8
CutLine
  6
CONTINUOUS
 62
8
 10
559.489308
 20
524.500164
 11
561.280101
 21
538.331750
  0
LINE
  8
MountainLine
  6
CONTINUOUS
 62
5
 10
537.044422
 20
534.233624
 11
559.489308
 21
524.500164
  0
LINE
  8
MountainLine
  6
CONTINUOUS
 62
5
 10
540.007799
 20
398.229836
 11
522.499958
 21
381.142161
  0
LINE
  8
CutLine
  6
CONTINUOUS
 62
8
 10
522.499958
 20
381.142161
 11
546.606377
 21
385.942507
  0
LINE
  8
CutLine
  6
CONTINUOUS
 62
8
 10
329.648412
 20
373.575802
 11
329.648412
 21
332.235622
  0
LINE
  8
MountainLine
  6
CONTINUOUS
 62
5
 10
329.648412
 20
332.235622
 11
346.886600
 21
369.722230
  0
LINE
  8
MountainLine
  6
CONTINUOUS
 62
5
 10
346.886600
 20
369.722230
 11
329.648412
 21
373.575802
  0
LINE
  8
MountainLine
  6
CONTINUOUS
 62
5
 10
422.704028
 20
362.054395
 11
338.206957
 21
422.702387
  0
LINE
  8
MountainLine
  6
CONTINUOUS
 62
5
 10
338.206957
 20
422.702387
 11
378.895284
 21
333.298816
  0
LINE
  8
ValleyLine
  6
CONTINUOUS
 62
1
 10
378.895284
 20
333.298816
 11
422.704028
 21
362.054395
  0
LINE
  8
MountainLine
  6
CONTINUOUS
 62
5
 10
432.397670
 20
351.739906
 11
422.704028
 21
362.054395
  0
LINE
  8
ValleyLine
  6
CONTINUOUS
 62
1
 10
378.895284
 20
333.298816
 11
432.397670
 21
351.739906
  0
LINE
  8
CutLine
  6
CONTINUOUS
 62
8
 10
378.895284
 20
333.298816
 11
406.068062
 21
270.448594
  0
LINE
  8
CutLine
  6
CONTINUOUS
 62
8
 10
406.068062
 20
270.448594
 11
499.734888
 21
337.977851
  0
LINE
  8
CutLine
  6
CONTINUOUS
 62
8
 10
499.734888
 20
337.977851
 11
491.774624
 21
352.953000
  0
LINE
  8
ValleyLine
  6
CONTINUOUS
 62
1
 10
491.774624
 20
352.953000
 11
469.047032
 21
398.350805
  0
LINE
  8
CutLine
  6
CONTINUOUS
 62
8
 10
469.047032
 20
398.350805
 11
432.397670
 21
351.739906
  0
LINE
  8
ValleyLine
  6
CONTINUOUS
 62
1
 10
390.240137
 20
462.470107
 11
384.904652
 21
465.078884
  0
LINE
  8
CutLine
  6
CONTINUOUS
 62
8
 10
384.904652
 20
465.078884
 11
338.206957
 21
422.702387
  0
LINE
  8
CutLine
  6
CONTINUOUS
 62
8
 10
422.704028
 20
362.054395
 11
390.240137
 21
462.470107
 0
TEXT
100
AcDbText
 8
Edge ID
100
AcDbText
10
334.648412
20
308.565533
30
0.0
40
3.360000
72
1
11
334.648412
21
308.565533
31
0.0
1
23
50
-90.000000
 0
TEXT
100
AcDbText
 8
Edge ID
100
AcDbText
10
343.267506
20
289.822229
30
0.0
40
3.360000
72
1
11
343.267506
21
289.822229
31
0.0
1
35
50
12.601204
 0
TEXT
100
AcDbText
 8
Edge ID
100
AcDbText
10
343.267506
20
310.492319
30
0.0
40
3.360000
72
1
11
343.267506
21
310.492319
31
0.0
1
24
50
114.695300
 0
TEXT
100
AcDbText
 8
Edge ID
100
AcDbText
10
469.300449
20
103.415790
30
0.0
40
3.360000
72
1
11
469.300449
21
103.415790
31
0.0
1
37
50
97.537014
 0
TEXT
100
AcDbText
 8
Edge ID
100
AcDbText
10
375.175343
20
111.882459
30
0.0
40
3.360000
72
1
11
375.175343
21
111.882459
31
0.0
1
67
50
-67.772755
 0
TEXT
100
AcDbText
 8
Edge ID
100
AcDbText
10
346.316168
20
47.858140
30
0.0
40
3.360000
72
1
11
346.316168
21
47.858140
31
0.0
1
40
50
230.055461
 0
TEXT
100
AcDbText
 8
Edge ID
100
AcDbText
10
398.779100
20
30.170036
30
0.0
40
3.360000
72
1
11
398.779100
21
30.170036
31
0.0
1
501
50
-2.561381
 0
TEXT
100
AcDbText
 8
Edge ID
100
AcDbText
10
446.550793
20
53.105528
30
0.0
40
3.360000
72
1
11
446.550793
21
53.105528
31
0.0
1
34
50
167.071983
 0
TEXT
100
AcDbText
 8
Edge ID
100
AcDbText
10
495.155680
20
32.787567
30
0.0
40
3.360000
72
1
11
495.155680
21
32.787567
31
0.0
1
39
50
9.927370
 0
TEXT
100
AcDbText
 8
Edge ID
100
AcDbText
10
515.776926
20
44.531598
30
0.0
40
3.360000
72
1
11
515.776926
21
44.531598
31
0.0
1
458
50
150.286687
 0
TEXT
100
AcDbText
 8
Edge ID
100
AcDbText
10
484.212665
20
49.979509
30
0.0
40
3.360000
72
1
11
484.212665
21
49.979509
31
0.0
1
38
50
182.156294
 0
TEXT
100
AcDbText
 8
Edge ID
100
AcDbText
10
469.135693
20
58.722721
30
0.0
40
3.360000
72
1
11
469.135693
21
58.722721
31
0.0
1
75
50
54.516810
 0
TEXT
100
AcDbText
 8
Edge ID
100
AcDbText
10
373.335697
20
71.607031
30
0.0
40
3.360000
72
1
11
373.335697
21
71.607031
31
0.0
1
464
50
211.479332
 0
TEXT
100
AcDbText
 8
Edge ID
100
AcDbText
10
446.776752
20
54.270178
30
0.0
40
3.360000
72
1
11
446.776752
21
54.270178
31
0.0
1
34
50
-9.031632
 0
TEXT
100
AcDbText
 8
Edge ID
100
AcDbText
10
470.971130
20
178.159496
30
0.0
40
3.360000
72
1
11
470.971130
21
178.159496
31
0.0
1
13
50
79.902047
 0
TEXT
100
AcDbText
 8
Edge ID
100
AcDbText
10
376.561723
20
173.906975
30
0.0
40
3.360000
72
1
11
376.561723
21
173.906975
31
0.0
1
36
50
245.211816
 0
TEXT
100
AcDbText
 8
Edge ID
100
AcDbText
10
450.492210
20
229.435708
30
0.0
40
3.360000
72
1
11
450.492210
21
229.435708
31
0.0
1
42
50
10.366070
 0
TEXT
100
AcDbText
 8
Edge ID
100
AcDbText
10
403.793471
20
254.483006
30
0.0
40
3.360000
72
1
11
403.793471
21
254.483006
31
0.0
1
43
50
180.000000
 0
TEXT
100
AcDbText
 8
Edge ID
100
AcDbText
10
350.592349
20
239.157023
30
0.0
40
3.360000
72
1
11
350.592349
21
239.157023
31
0.0
1
60
50
-52.617327
 0
TEXT
100
AcDbText
 8
Edge ID
100
AcDbText
10
520.032401
20
234.906694
30
0.0
40
3.360000
72
1
11
520.032401
21
234.906694
31
0.0
1
41
50
27.151366
 0
TEXT
100
AcDbText
 8
Edge ID
100
AcDbText
10
499.956719
20
247.560746
30
0.0
40
3.360000
72
1
11
499.956719
21
247.560746
31
0.0
1
22
50
167.510683
 0
TEXT
100
AcDbText
 8
Edge ID
100
AcDbText
10
488.256170
20
230.875135
30
0.0
40
3.360000
72
1
11
488.256170
21
230.875135
31
0.0
1
23
50
-4.718241
 0
TEXT
100
AcDbText
 8
Edge ID
100
AcDbText
10
472.803511
20
222.815290
30
0.0
40
3.360000
72
1
11
472.803511
21
222.815290
31
0.0
1
35
50
122.922251
 0
TEXT
100
AcDbText
 8
Edge ID
100
AcDbText
10
376.523498
20
214.224377
30
0.0
40
3.360000
72
1
11
376.523498
21
214.224377
31
0.0
1
33
50
-34.040271
 0
TEXT
100
AcDbText
 8
Edge ID
100
AcDbText
10
450.665849
20
228.262427
30
0.0
40
3.360000
72
1
11
450.665849
21
228.262427
31
0.0
1
42
50
186.470693
 0
TEXT
100
AcDbText
 8
Edge ID
100
AcDbText
10
560.384704
20
531.415957
30
0.0
40
3.360000
72
1
11
560.384704
21
531.415957
31
0.0
1
467
50
82.622880
 0
TEXT
100
AcDbText
 8
Edge ID
100
AcDbText
10
548.266865
20
529.366894
30
0.0
40
3.360000
72
1
11
548.266865
21
529.366894
31
0.0
1
72
50
-23.444471
 0
TEXT
100
AcDbText
 8
Edge ID
100
AcDbText
10
547.941165
20
551.249789
30
0.0
40
3.360000
72
1
11
547.941165
21
551.249789
31
0.0
1
71
50
135.918366
 0
TEXT
100
AcDbText
 8
Edge ID
100
AcDbText
10
478.866327
20
577.975907
30
0.0
40
3.360000
72
1
11
478.866327
21
577.975907
31
0.0
1
465
50
148.270339
 0
TEXT
100
AcDbText
 8
Edge ID
100
AcDbText
10
466.189469
20
550.877156
30
0.0
40
3.360000
72
1
11
466.189469
21
550.877156
31
0.0
1
67
50
266.815394
 0
TEXT
100
AcDbText
 8
Edge ID
100
AcDbText
10
521.083889
20
575.278653
30
0.0
40
3.360000
72
1
11
521.083889
21
575.278653
31
0.0
1
470
50
140.582960
 0
TEXT
100
AcDbText
 8
Edge ID
100
AcDbText
10
498.614754
20
578.844453
30
0.0
40
3.360000
72
1
11
498.614754
21
578.844453
31
0.0
1
65
50
220.129038
 0
TEXT
100
AcDbText
 8
Edge ID
100
AcDbText
10
520.673677
20
535.380241
30
0.0
40
3.360000
72
1
11
520.673677
21
535.380241
31
0.0
1
471
50
-4.006490
 0
TEXT
100
AcDbText
 8
Edge ID
100
AcDbText
10
516.475384
20
505.166950
30
0.0
40
3.360000
72
1
11
516.475384
21
505.166950
31
0.0
1
63
50
111.213885
 0
TEXT
100
AcDbText
 8
Edge ID
100
AcDbText
10
576.736839
20
338.986856
30
0.0
40
3.360000
72
1
11
576.736839
21
338.986856
31
0.0
1
60
50
42.602834
 0
TEXT
100
AcDbText
 8
Edge ID
100
AcDbText
10
537.069531
20
370.009789
30
0.0
40
3.360000
72
1
11
537.069531
21
370.009789
31
0.0
1
61
50
239.096530
 0
TEXT
100
AcDbText
 8
Edge ID
100
AcDbText
10
527.141476
20
336.582988
30
0.0
40
3.360000
72
1
11
527.141476
21
336.582988
31
0.0
1
64
50
268.718947
 0
TEXT
100
AcDbText
 8
Edge ID
100
AcDbText
10
536.432410
20
320.178882
30
0.0
40
3.360000
72
1
11
536.432410
21
320.178882
31
0.0
1
62
50
6.423082
 0
TEXT
100
AcDbText
 8
Edge ID
100
AcDbText
10
537.440553
20
449.334659
30
0.0
40
3.360000
72
1
11
537.440553
21
449.334659
31
0.0
1
493
50
109.762931
 0
TEXT
100
AcDbText
 8
Edge ID
100
AcDbText
10
515.599187
20
399.614184
30
0.0
40
3.360000
72
1
11
515.599187
21
399.614184
31
0.0
1
69
50
-3.246084
 0
TEXT
100
AcDbText
 8
Edge ID
100
AcDbText
10
531.253878
20
389.685999
30
0.0
40
3.360000
72
1
11
531.253878
21
389.685999
31
0.0
1
73
50
224.304171
 0
TEXT
100
AcDbText
 8
Edge ID
100
AcDbText
10
534.553167
20
383.542334
30
0.0
40
3.360000
72
1
11
534.553167
21
383.542334
31
0.0
1
70
50
11.262074
 0
TEXT
100
AcDbText
 8
Edge ID
100
AcDbText
10
425.570599
20
435.497590
30
0.0
40
3.360000
72
1
11
425.570599
21
435.497590
31
0.0
1
61
50
-49.101568
 0
TEXT
100
AcDbText
 8
Edge ID
100
AcDbText
10
440.446803
20
433.447273
30
0.0
40
3.360000
72
1
11
440.446803
21
433.447273
31
0.0
1
70
50
77.219172
 0
TEXT
100
AcDbText
 8
Edge ID
100
AcDbText
10
457.454225
20
456.803175
30
0.0
40
3.360000
72
1
11
457.454225
21
456.803175
31
0.0
1
68
50
256.168836
 0
TEXT
100
AcDbText
 8
Edge ID
100
AcDbText
10
449.408055
20
429.351681
30
0.0
40
3.360000
72
1
11
449.408055
21
429.351681
31
0.0
1
73
50
250.302351
 0
TEXT
100
AcDbText
 8
Edge ID
100
AcDbText
10
468.237832
20
409.416864
30
0.0
40
3.360000
72
1
11
468.237832
21
409.416864
31
0.0
1
69
50
-20.141422
 0
TEXT
100
AcDbText
 8
Edge ID
100
AcDbText
10
558.093561
20
294.870841
30
0.0
40
3.360000
72
1
11
558.093561
21
294.870841
31
0.0
1
66
50
-10.480020
 0
TEXT
100
AcDbText
 8
Edge ID
100
AcDbText
10
566.558346
20
309.246235
30
0.0
40
3.360000
72
1
11
566.558346
21
309.246235
31
0.0
1
33
50
103.541842
 0
TEXT
100
AcDbText
 8
Edge ID
100
AcDbText
10
430.482775
20
517.101927
30
0.0
40
3.360000
72
1
11
430.482775
21
517.101927
31
0.0
1
36
50
180.000000
 0
TEXT
100
AcDbText
 8
Edge ID
100
AcDbText
10
402.721632
20
505.950068
30
0.0
40
3.360000
72
1
11
402.721632
21
505.950068
31
0.0
1
66
50
-61.454945
 0
TEXT
100
AcDbText
 8
Edge ID
100
AcDbText
10
400.757546
20
486.280192
30
0.0
40
3.360000
72
1
11
400.757546
21
486.280192
31
0.0
1
58
50
226.687760
 0
TEXT
100
AcDbText
 8
Edge ID
100
AcDbText
10
403.070161
20
463.647721
30
0.0
40
3.360000
72
1
11
403.070161
21
463.647721
31
0.0
1
64
50
-53.766161
 0
TEXT
100
AcDbText
 8
Edge ID
100
AcDbText
10
588.650683
20
378.079972
30
0.0
40
3.360000
72
1
11
588.650683
21
378.079972
31
0.0
1
508
50
95.011341
 0
TEXT
100
AcDbText
 8
Edge ID
100
AcDbText
10
566.300408
20
414.489637
30
0.0
40
3.360000
72
1
11
566.300408
21
414.489637
31
0.0
1
59
50
152.665700
 0
TEXT
100
AcDbText
 8
Edge ID
100
AcDbText
10
537.271978
20
317.177305
30
0.0
40
3.360000
72
1
11
537.271978
21
317.177305
31
0.0
1
62
50
204.830479
 0
TEXT
100
AcDbText
 8
Edge ID
100
AcDbText
10
537.019845
20
305.132865
30
0.0
40
3.360000
72
1
11
537.019845
21
305.132865
31
0.0
1
58
50
-42.793004
 0
TEXT
100
AcDbText
 8
Edge ID
100
AcDbText
10
452.271511
20
459.085408
30
0.0
40
3.360000
72
1
11
452.271511
21
459.085408
31
0.0
1
68
50
56.298113
 0
TEXT
100
AcDbText
 8
Edge ID
100
AcDbText
10
329.648412
20
352.905712
30
0.0
40
3.360000
72
1
11
329.648412
21
352.905712
31
0.0
1
38
50
-90.000000
 0
TEXT
100
AcDbText
 8
Edge ID
100
AcDbText
10
338.267506
20
350.978926
30
0.0
40
3.360000
72
1
11
338.267506
21
350.978926
31
0.0
1
74
50
65.304700
 0
TEXT
100
AcDbText
 8
Edge ID
100
AcDbText
10
338.267506
20
371.649016
30
0.0
40
3.360000
72
1
11
338.267506
21
371.649016
31
0.0
1
75
50
167.398796
 0
TEXT
100
AcDbText
 8
Edge ID
100
AcDbText
10
392.481673
20
301.873705
30
0.0
40
3.360000
72
1
11
392.481673
21
301.873705
31
0.0
1
487
50
-66.619154
 0
TEXT
100
AcDbText
 8
Edge ID
100
AcDbText
10
452.901475
20
304.213222
30
0.0
40
3.360000
72
1
11
452.901475
21
304.213222
31
0.0
1
9
50
35.789783
 0
TEXT
100
AcDbText
 8
Edge ID
100
AcDbText
10
495.754756
20
345.465425
30
0.0
40
3.360000
72
1
11
495.754756
21
345.465425
31
0.0
1
498
50
117.993545
 0
TEXT
100
AcDbText
 8
Edge ID
100
AcDbText
10
480.410828
20
375.651902
30
0.0
40
3.360000
72
1
11
480.410828
21
375.651902
31
0.0
1
320
50
116.594010
 0
TEXT
100
AcDbText
 8
Edge ID
100
AcDbText
10
450.722351
20
375.045355
30
0.0
40
3.360000
72
1
11
450.722351
21
375.045355
31
0.0
1
473
50
231.822628
 0
TEXT
100
AcDbText
 8
Edge ID
100
AcDbText
10
427.550849
20
356.897150
30
0.0
40
3.360000
72
1
11
427.550849
21
356.897150
31
0.0
1
319
50
133.222697
 0
TEXT
100
AcDbText
 8
Edge ID
100
AcDbText
10
387.572395
20
463.774496
30
0.0
40
3.360000
72
1
11
387.572395
21
463.774496
31
0.0
1
321
50
153.943758
 0
TEXT
100
AcDbText
 8
Edge ID
100
AcDbText
10
361.555805
20
443.890635
30
0.0
40
3.360000
72
1
11
361.555805
21
443.890635
31
0.0
1
494
50
222.222625
 0
TEXT
100
AcDbText
 8
Edge ID
100
AcDbText
10
406.472083
20
412.262251
30
0.0
40
3.360000
72
1
11
406.472083
21
412.262251
31
0.0
1
475
50
107.915757
 0
TEXT
100
AcDbText
 8
Edge ID
100
AcDbText
10
358.551121
20
378.000601
30
0.0
40
3.360000
72
1
11
358.551121
21
378.000601
31
0.0
1
318
50
-65.529314
  0
ENDSEC
  0
EOF
