  0
SECTION
  2
HEADER
  9
$ACADVER
  1
AC1009
  0
ENDSEC
  0
SECTION
  2
BLOCKS
  0
ENDSEC
  0
SECTION
  2
ENTITIES
  0
LINE
  8
CutLine
  6
CONTINUOUS
 62
8
 10
1382.609816
 20
235.557954
 11
1389.662496
 21
236.067562
  0
LINE
  8
CutLine
  6
CONTINUOUS
 62
8
 10
1389.662496
 20
236.067562
 11
1430.729857
 21
200.535094
  0
LINE
  8
CutLine
  6
CONTINUOUS
 62
8
 10
1430.729857
 20
200.535094
 11
1431.644536
 21
193.131936
  0
LINE
  8
CutLine
  6
CONTINUOUS
 62
8
 10
1461.218828
 20
103.949775
 11
1454.243831
 21
93.433553
  0
LINE
  8
CutLine
  6
CONTINUOUS
 62
8
 10
1454.243831
 20
93.433553
 11
1389.528992
 21
51.241891
  0
LINE
  8
CutLine
  6
CONTINUOUS
 62
8
 10
1389.528992
 20
51.241891
 11
1382.609816
 21
52.699630
  0
LINE
  8
CutLine
  6
CONTINUOUS
 62
8
 10
1431.644536
 20
193.131936
 11
1437.964195
 21
189.959885
  0
LINE
  8
CutLine
  6
CONTINUOUS
 62
8
 10
1437.964195
 20
189.959885
 11
1463.173449
 21
113.940627
  0
LINE
  8
CutLine
  6
CONTINUOUS
 62
8
 10
1463.173449
 20
113.940627
 11
1461.218828
 21
103.949775
  0
LINE
  8
CutLine
  6
CONTINUOUS
 62
8
 10
1382.609816
 20
52.699630
 11
1378.117666
 21
46.499068
  0
LINE
  8
CutLine
  6
CONTINUOUS
 62
8
 10
1378.117666
 20
46.499068
 11
1265.853755
 21
19.943864
  0
LINE
  8
CutLine
  6
CONTINUOUS
 62
8
 10
1265.853755
 20
19.943864
 11
1259.837074
 21
23.658640
  0
LINE
  8
CutLine
  6
CONTINUOUS
 62
8
 10
1259.281127
 20
215.621487
 11
1260.451368
 21
222.595047
  0
LINE
  8
CutLine
  6
CONTINUOUS
 62
8
 10
1260.451368
 20
222.595047
 11
1368.317080
 21
299.460751
  0
LINE
  8
CutLine
  6
CONTINUOUS
 62
8
 10
1368.317080
 20
299.460751
 11
1375.290640
 21
298.290509
  0
LINE
  8
CutLine
  6
CONTINUOUS
 62
8
 10
1237.418740
 20
124.185532
 11
1232.134033
 21
128.883603
  0
LINE
  8
CutLine
  6
CONTINUOUS
 62
8
 10
1232.134033
 20
128.883603
 11
1230.260920
 21
160.758384
  0
LINE
  8
CutLine
  6
CONTINUOUS
 62
8
 10
1230.260920
 20
160.758384
 11
1234.958991
 21
166.043090
  0
LINE
  8
CutLine
  6
CONTINUOUS
 62
8
 10
1422.150337
 20
415.444633
 11
1421.235658
 21
408.041475
  0
LINE
  8
CutLine
  6
CONTINUOUS
 62
8
 10
1421.235658
 20
408.041475
 11
1380.168298
 21
372.509007
  0
LINE
  8
CutLine
  6
CONTINUOUS
 62
8
 10
1380.168298
 20
372.509007
 11
1373.115617
 21
373.018615
  0
LINE
  8
CutLine
  6
CONTINUOUS
 62
8
 10
1373.115617
 20
555.876939
 11
1380.034793
 21
557.334678
  0
LINE
  8
CutLine
  6
CONTINUOUS
 62
8
 10
1380.034793
 20
557.334678
 11
1444.749633
 21
515.143016
  0
LINE
  8
CutLine
  6
CONTINUOUS
 62
8
 10
1444.749633
 20
515.143016
 11
1451.724629
 21
504.626794
  0
LINE
  8
CutLine
  6
CONTINUOUS
 62
8
 10
1373.115617
 20
373.018615
 11
1377.134101
 21
364.490718
  0
LINE
  8
CutLine
  6
CONTINUOUS
 62
8
 10
1377.134101
 20
364.490718
 11
1371.193949
 21
314.677633
  0
LINE
  8
CutLine
  6
CONTINUOUS
 62
8
 10
1371.193949
 20
314.677633
 11
1365.637075
 21
310.304859
  0
LINE
  8
CutLine
  6
CONTINUOUS
 62
8
 10
1233.768836
 20
483.625825
 11
1229.643275
 21
489.368625
  0
LINE
  8
CutLine
  6
CONTINUOUS
 62
8
 10
1229.643275
 20
489.368625
 11
1244.683000
 21
581.140726
  0
LINE
  8
CutLine
  6
CONTINUOUS
 62
8
 10
1244.683000
 20
581.140726
 11
1250.425799
 21
585.266287
  0
LINE
  8
CutLine
  6
CONTINUOUS
 62
8
 10
1249.863129
 20
393.303459
 11
1243.148067
 21
395.518847
  0
LINE
  8
CutLine
  6
CONTINUOUS
 62
8
 10
1243.148067
 20
395.518847
 11
1222.799177
 21
435.905053
  0
LINE
  8
CutLine
  6
CONTINUOUS
 62
8
 10
1222.799177
 20
435.905053
 11
1225.014565
 21
442.620115
  0
LINE
  8
ValleyLine
  6
CONTINUOUS
 62
1
 10
1431.644536
 20
193.131936
 11
1382.609816
 21
235.557954
  0
LINE
  8
MountainLine
  6
CONTINUOUS
 62
5
 10
1382.609816
 20
235.557954
 11
1382.609816
 21
52.699630
  0
LINE
  8
MountainLine
  6
CONTINUOUS
 62
5
 10
1382.609816
 20
52.699630
 11
1431.644536
 21
193.131936
  0
LINE
  8
ValleyLine
  6
CONTINUOUS
 62
1
 10
1382.609816
 20
52.699630
 11
1461.218828
 21
103.949775
  0
LINE
  8
ValleyLine
  6
CONTINUOUS
 62
1
 10
1461.218828
 20
103.949775
 11
1431.644536
 21
193.131936
  0
LINE
  8
ValleyLine
  6
CONTINUOUS
 62
1
 10
1259.837074
 20
23.658640
 11
1382.609816
 21
52.699630
  0
LINE
  8
CutLine
  6
CONTINUOUS
 62
8
 10
1382.609816
 20
235.557954
 11
1375.290640
 21
298.290509
  0
LINE
  8
ValleyLine
  6
CONTINUOUS
 62
1
 10
1375.290640
 20
298.290509
 11
1259.281127
 21
215.621487
  0
LINE
  8
CutLine
  6
CONTINUOUS
 62
8
 10
1259.281127
 20
215.621487
 11
1234.958991
 21
166.043090
  0
LINE
  8
ValleyLine
  6
CONTINUOUS
 62
1
 10
1234.958991
 20
166.043090
 11
1237.418740
 21
124.185532
  0
LINE
  8
CutLine
  6
CONTINUOUS
 62
8
 10
1237.418740
 20
124.185532
 11
1259.837074
 21
23.658640
  0
LINE
  8
ValleyLine
  6
CONTINUOUS
 62
1
 10
1373.115617
 20
373.018615
 11
1422.150337
 21
415.444633
  0
LINE
  8
MountainLine
  6
CONTINUOUS
 62
5
 10
1422.150337
 20
415.444633
 11
1373.115617
 21
555.876939
  0
LINE
  8
MountainLine
  6
CONTINUOUS
 62
5
 10
1373.115617
 20
555.876939
 11
1373.115617
 21
373.018615
  0
LINE
  8
CutLine
  6
CONTINUOUS
 62
8
 10
1422.150337
 20
415.444633
 11
1451.724629
 21
504.626794
  0
LINE
  8
ValleyLine
  6
CONTINUOUS
 62
1
 10
1451.724629
 20
504.626794
 11
1373.115617
 21
555.876939
  0
LINE
  8
CutLine
  6
CONTINUOUS
 62
8
 10
1249.863129
 20
393.303459
 11
1365.637075
 21
310.304859
  0
LINE
  8
ValleyLine
  6
CONTINUOUS
 62
1
 10
1365.637075
 20
310.304859
 11
1373.115617
 21
373.018615
  0
LINE
  8
CutLine
  6
CONTINUOUS
 62
8
 10
1373.115617
 20
555.876939
 11
1250.425799
 21
585.266287
  0
LINE
  8
ValleyLine
  6
CONTINUOUS
 62
1
 10
1250.425799
 20
585.266287
 11
1233.768836
 21
483.625825
  0
LINE
  8
CutLine
  6
CONTINUOUS
 62
8
 10
1233.768836
 20
483.625825
 11
1225.014565
 21
442.620115
  0
LINE
  8
ValleyLine
  6
CONTINUOUS
 62
1
 10
1225.014565
 20
442.620115
 11
1249.863129
 21
393.303459
 0
TEXT
100
AcDbText
 8
Edge ID
100
AcDbText
10
1421.914322
20
78.324703
30
0.0
40
3.360000
72
1
11
1421.914322
21
78.324703
31
0.0
1
257
50
33.102851
 0
TEXT
100
AcDbText
 8
Edge ID
100
AcDbText
10
1446.431682
20
148.540855
30
0.0
40
3.360000
72
1
11
1446.431682
21
148.540855
31
0.0
1
258
50
108.346382
 0
TEXT
100
AcDbText
 8
Edge ID
100
AcDbText
10
1321.223445
20
38.179135
30
0.0
40
3.360000
72
1
11
1321.223445
21
38.179135
31
0.0
1
259
50
13.308284
 0
TEXT
100
AcDbText
 8
Edge ID
100
AcDbText
10
1378.950228
20
266.924232
30
0.0
40
3.360000
72
1
11
1378.950228
21
266.924232
31
0.0
1
109
50
96.654766
 0
TEXT
100
AcDbText
 8
Edge ID
100
AcDbText
10
1317.285883
20
256.955998
30
0.0
40
3.360000
72
1
11
1317.285883
21
256.955998
31
0.0
1
260
50
215.473883
 0
TEXT
100
AcDbText
 8
Edge ID
100
AcDbText
10
1247.120059
20
190.832289
30
0.0
40
3.360000
72
1
11
1247.120059
21
190.832289
31
0.0
1
235
50
243.868387
 0
TEXT
100
AcDbText
 8
Edge ID
100
AcDbText
10
1236.188865
20
145.114311
30
0.0
40
3.360000
72
1
11
1236.188865
21
145.114311
31
0.0
1
261
50
-86.636896
 0
TEXT
100
AcDbText
 8
Edge ID
100
AcDbText
10
1248.627907
20
73.922086
30
0.0
40
3.360000
72
1
11
1248.627907
21
73.922086
31
0.0
1
238
50
-77.428278
 0
TEXT
100
AcDbText
 8
Edge ID
100
AcDbText
10
1407.127176
20
214.344945
30
0.0
40
3.360000
72
1
11
1407.127176
21
214.344945
31
0.0
1
256
50
139.132852
 0
TEXT
100
AcDbText
 8
Edge ID
100
AcDbText
10
1436.937483
20
460.035714
30
0.0
40
3.360000
72
1
11
1436.937483
21
460.035714
31
0.0
1
293
50
71.653618
 0
TEXT
100
AcDbText
 8
Edge ID
100
AcDbText
10
1412.420123
20
530.251866
30
0.0
40
3.360000
72
1
11
1412.420123
21
530.251866
31
0.0
1
444
50
146.897149
 0
TEXT
100
AcDbText
 8
Edge ID
100
AcDbText
10
1307.750102
20
351.804159
30
0.0
40
3.360000
72
1
11
1307.750102
21
351.804159
31
0.0
1
288
50
-35.636823
 0
TEXT
100
AcDbText
 8
Edge ID
100
AcDbText
10
1369.376346
20
341.661737
30
0.0
40
3.360000
72
1
11
1369.376346
21
341.661737
31
0.0
1
445
50
83.199658
 0
TEXT
100
AcDbText
 8
Edge ID
100
AcDbText
10
1311.770708
20
570.571613
30
0.0
40
3.360000
72
1
11
1311.770708
21
570.571613
31
0.0
1
361
50
166.529089
 0
TEXT
100
AcDbText
 8
Edge ID
100
AcDbText
10
1242.097318
20
534.446056
30
0.0
40
3.360000
72
1
11
1242.097318
21
534.446056
31
0.0
1
446
50
260.693028
 0
TEXT
100
AcDbText
 8
Edge ID
100
AcDbText
10
1229.391700
20
463.122970
30
0.0
40
3.360000
72
1
11
1229.391700
21
463.122970
31
0.0
1
425
50
257.948890
 0
TEXT
100
AcDbText
 8
Edge ID
100
AcDbText
10
1237.438847
20
417.961787
30
0.0
40
3.360000
72
1
11
1237.438847
21
417.961787
31
0.0
1
447
50
-63.258410
 0
TEXT
100
AcDbText
 8
Edge ID
100
AcDbText
10
1397.632977
20
394.231624
30
0.0
40
3.360000
72
1
11
1397.632977
21
394.231624
31
0.0
1
443
50
40.867148
  0
ENDSEC
  0
EOF
