  0
SECTION
  2
HEADER
  9
$ACADVER
  1
AC1009
  0
ENDSEC
  0
SECTION
  2
BLOCKS
  0
ENDSEC
  0
SECTION
  2
ENTITIES
  0
LINE
  8
CutLine
  6
CONTINUOUS
 62
8
 10
2393.046121
 20
421.321090
 11
2389.218695
 21
415.375435
  0
LINE
  8
CutLine
  6
CONTINUOUS
 62
8
 10
2389.218695
 20
415.375435
 11
2277.588758
 21
391.180622
  0
LINE
  8
CutLine
  6
CONTINUOUS
 62
8
 10
2277.588758
 20
391.180622
 11
2271.643103
 21
395.008048
  0
LINE
  8
CutLine
  6
CONTINUOUS
 62
8
 10
2299.126451
 20
567.943185
 11
2306.158403
 21
567.200449
  0
LINE
  8
CutLine
  6
CONTINUOUS
 62
8
 10
2306.158403
 20
567.200449
 11
2382.496261
 21
472.832091
  0
LINE
  8
CutLine
  6
CONTINUOUS
 62
8
 10
2382.496261
 20
472.832091
 11
2383.791217
 21
463.281159
  0
LINE
  8
CutLine
  6
CONTINUOUS
 62
8
 10
2116.540350
 20
158.934170
 11
2111.825520
 21
165.496939
  0
LINE
  8
CutLine
  6
CONTINUOUS
 62
8
 10
2111.825520
 20
165.496939
 11
2114.978861
 21
236.845181
  0
LINE
  8
CutLine
  6
CONTINUOUS
 62
8
 10
2114.978861
 20
236.845181
 11
2120.194751
 21
241.619538
  0
LINE
  8
CutLine
  6
CONTINUOUS
 62
8
 10
2221.495319
 20
280.745139
 11
2222.022976
 21
273.693787
  0
LINE
  8
CutLine
  6
CONTINUOUS
 62
8
 10
2222.022976
 20
273.693787
 11
2208.759896
 21
258.285187
  0
LINE
  8
CutLine
  6
CONTINUOUS
 62
8
 10
2208.759896
 20
258.285187
 11
2201.708543
 21
257.757530
  0
LINE
  8
CutLine
  6
CONTINUOUS
 62
8
 10
2116.637057
 20
284.055813
 11
2111.637057
 21
308.198595
  0
LINE
  8
CutLine
  6
CONTINUOUS
 62
8
 10
2111.637057
 20
308.198595
 11
2111.637057
 21
579.856667
  0
LINE
  8
CutLine
  6
CONTINUOUS
 62
8
 10
2111.637057
 20
579.856667
 11
2116.637057
 21
588.724455
  0
LINE
  8
CutLine
  6
CONTINUOUS
 62
8
 10
2164.004335
 20
504.453301
 11
2164.894837
 21
507.875177
  0
LINE
  8
CutLine
  6
CONTINUOUS
 62
8
 10
2224.079126
 20
481.387618
 11
2231.070338
 21
480.327920
  0
LINE
  8
CutLine
  6
CONTINUOUS
 62
8
 10
2231.070338
 20
480.327920
 11
2262.601131
 21
437.530828
  0
LINE
  8
CutLine
  6
CONTINUOUS
 62
8
 10
2262.601131
 20
437.530828
 11
2261.541434
 21
430.539616
  0
LINE
  8
CutLine
  6
CONTINUOUS
 62
8
 10
2284.980823
 20
342.282107
 11
2291.275761
 21
339.061276
  0
LINE
  8
CutLine
  6
CONTINUOUS
 62
8
 10
2291.275761
 20
339.061276
 11
2312.133894
 21
274.495790
  0
LINE
  8
CutLine
  6
CONTINUOUS
 62
8
 10
2312.133894
 20
274.495790
 11
2308.913063
 21
268.200852
  0
LINE
  8
CutLine
  6
CONTINUOUS
 62
8
 10
2261.133598
 20
283.739737
 11
2254.615010
 21
280.999663
  0
LINE
  8
CutLine
  6
CONTINUOUS
 62
8
 10
2254.615010
 20
280.999663
 11
2241.148562
 21
286.495400
  0
LINE
  8
CutLine
  6
CONTINUOUS
 62
8
 10
2241.148562
 20
286.495400
 11
2238.408488
 21
293.013988
  0
LINE
  8
CutLine
  6
CONTINUOUS
 62
8
 10
2217.452772
 20
223.636728
 11
2215.942439
 21
216.728842
  0
LINE
  8
CutLine
  6
CONTINUOUS
 62
8
 10
2215.942439
 20
216.728842
 11
2125.405459
 21
158.678761
  0
LINE
  8
CutLine
  6
CONTINUOUS
 62
8
 10
2125.405459
 20
158.678761
 11
2116.540350
 21
158.934170
  0
LINE
  8
CutLine
  6
CONTINUOUS
 62
8
 10
2156.779906
 20
573.873779
 11
2163.477138
 21
578.490167
  0
LINE
  8
CutLine
  6
CONTINUOUS
 62
8
 10
2163.477138
 20
578.490167
 11
2255.785480
 21
573.084770
  0
LINE
  8
CutLine
  6
CONTINUOUS
 62
8
 10
2255.785480
 20
573.084770
 11
2265.791132
 21
567.490293
  0
LINE
  8
CutLine
  6
CONTINUOUS
 62
8
 10
2265.791132
 20
567.490293
 11
2271.330212
 21
563.095001
  0
LINE
  8
CutLine
  6
CONTINUOUS
 62
8
 10
2271.330212
 20
563.095001
 11
2274.968242
 21
531.496885
  0
LINE
  8
CutLine
  6
CONTINUOUS
 62
8
 10
2274.968242
 20
531.496885
 11
2270.572950
 21
525.957805
  0
LINE
  8
CutLine
  6
CONTINUOUS
 62
8
 10
2224.985587
 20
532.356028
 11
2220.111939
 21
527.232791
  0
LINE
  8
CutLine
  6
CONTINUOUS
 62
8
 10
2220.111939
 20
527.232791
 11
2177.029658
 21
526.157174
  0
LINE
  8
CutLine
  6
CONTINUOUS
 62
8
 10
2177.029658
 20
526.157174
 11
2169.235162
 21
530.964130
  0
LINE
  8
CutLine
  6
CONTINUOUS
 62
8
 10
2140.672399
 20
84.723554
 11
2144.200865
 21
90.851353
  0
LINE
  8
CutLine
  6
CONTINUOUS
 62
8
 10
2144.200865
 20
90.851353
 11
2174.021940
 21
98.878772
  0
LINE
  8
CutLine
  6
CONTINUOUS
 62
8
 10
2174.021940
 20
98.878772
 11
2180.149739
 21
95.350305
  0
LINE
  8
CutLine
  6
CONTINUOUS
 62
8
 10
2193.702692
 20
67.465647
 11
2184.766330
 21
65.115744
  0
LINE
  8
CutLine
  6
CONTINUOUS
 62
8
 10
2184.766330
 20
65.115744
 11
2143.879661
 21
78.421691
  0
LINE
  8
CutLine
  6
CONTINUOUS
 62
8
 10
2143.879661
 20
78.421691
 11
2140.672399
 21
84.723554
  0
LINE
  8
CutLine
  6
CONTINUOUS
 62
8
 10
2340.618576
 20
75.561239
 11
2344.759188
 21
69.829282
  0
LINE
  8
CutLine
  6
CONTINUOUS
 62
8
 10
2344.759188
 20
69.829282
 11
2339.007206
 21
34.144477
  0
LINE
  8
CutLine
  6
CONTINUOUS
 62
8
 10
2339.007206
 20
34.144477
 11
2333.093933
 21
28.878992
  0
LINE
  8
CutLine
  6
CONTINUOUS
 62
8
 10
2309.939542
 20
101.929665
 11
2316.739186
 21
103.869982
  0
LINE
  8
CutLine
  6
CONTINUOUS
 62
8
 10
2316.739186
 20
103.869982
 11
2330.522337
 21
96.206694
  0
LINE
  8
CutLine
  6
CONTINUOUS
 62
8
 10
2330.522337
 20
96.206694
 11
2332.462654
 21
89.407049
  0
LINE
  8
CutLine
  6
CONTINUOUS
 62
8
 10
2274.728451
 20
65.672603
 11
2271.720447
 21
59.273235
  0
LINE
  8
CutLine
  6
CONTINUOUS
 62
8
 10
2271.720447
 20
59.273235
 11
2243.498662
 21
49.099262
  0
LINE
  8
CutLine
  6
CONTINUOUS
 62
8
 10
2243.498662
 20
49.099262
 11
2237.099294
 21
52.107266
  0
LINE
  8
CutLine
  6
CONTINUOUS
 62
8
 10
2324.940282
 20
192.638160
 11
2331.827777
 21
194.238914
  0
LINE
  8
CutLine
  6
CONTINUOUS
 62
8
 10
2331.827777
 20
194.238914
 11
2380.663438
 21
163.822571
  0
LINE
  8
CutLine
  6
CONTINUOUS
 62
8
 10
2380.663438
 20
163.822571
 11
2383.504889
 21
156.162331
  0
LINE
  8
CutLine
  6
CONTINUOUS
 62
8
 10
2226.844542
 20
259.774992
 11
2233.339065
 21
262.571628
  0
LINE
  8
CutLine
  6
CONTINUOUS
 62
8
 10
2233.339065
 20
262.571628
 11
2303.636361
 21
234.593256
  0
LINE
  8
CutLine
  6
CONTINUOUS
 62
8
 10
2303.636361
 20
234.593256
 11
2306.432997
 21
228.098733
  0
LINE
  8
CutLine
  6
CONTINUOUS
 62
8
 10
2288.943819
 20
167.971845
 11
2282.072667
 21
169.641359
  0
LINE
  8
CutLine
  6
CONTINUOUS
 62
8
 10
2282.072667
 20
169.641359
 11
2265.649890
 21
196.606226
  0
LINE
  8
CutLine
  6
CONTINUOUS
 62
8
 10
2265.649890
 20
196.606226
 11
2267.319405
 21
203.477378
  0
LINE
  8
CutLine
  6
CONTINUOUS
 62
8
 10
2349.777785
 20
119.750319
 11
2345.909935
 21
113.830882
  0
LINE
  8
CutLine
  6
CONTINUOUS
 62
8
 10
2345.909935
 20
113.830882
 11
2339.969642
 21
112.585692
  0
LINE
  8
CutLine
  6
CONTINUOUS
 62
8
 10
2339.969642
 20
112.585692
 11
2334.050205
 21
116.453542
  0
LINE
  8
CutLine
  6
CONTINUOUS
 62
8
 10
2379.661644
 20
155.567020
 11
2383.941466
 21
152.441226
  0
LINE
  8
CutLine
  6
CONTINUOUS
 62
8
 10
2164.478288
 20
161.604418
 11
2173.085618
 21
165.085457
  0
LINE
  8
CutLine
  6
CONTINUOUS
 62
8
 10
2173.085618
 20
165.085457
 11
2228.641654
 21
154.724938
  0
LINE
  8
CutLine
  6
CONTINUOUS
 62
8
 10
2228.641654
 20
154.724938
 11
2232.640278
 21
148.893043
  0
LINE
  8
CutLine
  6
CONTINUOUS
 62
8
 10
2182.101426
 20
95.600245
 11
2179.938913
 21
97.479201
  0
LINE
  8
CutLine
  6
CONTINUOUS
 62
8
 10
2273.758337
 20
142.764142
 11
2284.817180
 21
145.477178
  0
LINE
  8
CutLine
  6
CONTINUOUS
 62
8
 10
2284.817180
 20
145.477178
 11
2313.087994
 21
139.332335
  0
LINE
  8
CutLine
  6
CONTINUOUS
 62
8
 10
2309.529279
 20
109.304197
 11
2304.987627
 21
103.884475
  0
LINE
  8
CutLine
  6
CONTINUOUS
 62
8
 10
2304.987627
 20
103.884475
 11
2293.235850
 21
102.848586
  0
LINE
  8
CutLine
  6
CONTINUOUS
 62
8
 10
2342.311616
 20
251.441239
 11
2337.311616
 21
261.756821
  0
LINE
  8
CutLine
  6
CONTINUOUS
 62
8
 10
2337.311616
 20
261.756821
 11
2337.311616
 21
354.223292
  0
LINE
  8
CutLine
  6
CONTINUOUS
 62
8
 10
2337.311616
 20
354.223292
 11
2342.311616
 21
360.639207
  0
LINE
  8
CutLine
  6
CONTINUOUS
 62
8
 10
2379.771205
 20
290.123125
 11
2385.982966
 21
275.388824
  0
LINE
  8
CutLine
  6
CONTINUOUS
 62
8
 10
2385.982966
 20
275.388824
 11
2388.072869
 21
249.627624
  0
LINE
  8
CutLine
  6
CONTINUOUS
 62
8
 10
2388.072869
 20
249.627624
 11
2383.493544
 21
244.239695
  0
LINE
  8
CutLine
  6
CONTINUOUS
 62
8
 10
2342.311616
 20
360.639207
 11
2348.695853
 21
363.679195
  0
LINE
  8
CutLine
  6
CONTINUOUS
 62
8
 10
2348.695853
 20
363.679195
 11
2381.379788
 21
352.081080
  0
LINE
  8
CutLine
  6
CONTINUOUS
 62
8
 10
2381.379788
 20
352.081080
 11
2384.419776
 21
345.696843
  0
LINE
  8
ValleyLine
  6
CONTINUOUS
 62
1
 10
2271.643103
 20
395.008048
 11
2393.046121
 21
421.321090
  0
LINE
  8
CutLine
  6
CONTINUOUS
 62
8
 10
2393.046121
 20
421.321090
 11
2383.791217
 21
463.281159
  0
LINE
  8
ValleyLine
  6
CONTINUOUS
 62
1
 10
2383.791217
 20
463.281159
 11
2299.126451
 21
567.943185
  0
LINE
  8
CutLine
  6
CONTINUOUS
 62
8
 10
2299.126451
 20
567.943185
 11
2261.541434
 21
430.539616
  0
LINE
  8
ValleyLine
  6
CONTINUOUS
 62
1
 10
2261.541434
 20
430.539616
 11
2271.643103
 21
395.008048
  0
LINE
  8
CutLine
  6
CONTINUOUS
 62
8
 10
2221.495319
 20
280.745139
 11
2238.408488
 21
293.013988
  0
LINE
  8
MountainLine
  6
CONTINUOUS
 62
5
 10
2238.408488
 20
293.013988
 11
2183.535797
 21
465.610237
  0
LINE
  8
CutLine
  6
CONTINUOUS
 62
8
 10
2183.535797
 20
465.610237
 11
2162.784190
 21
506.879855
  0
LINE
  8
ValleyLine
  6
CONTINUOUS
 62
1
 10
2162.784190
 20
506.879855
 11
2116.637057
 21
284.055813
  0
LINE
  8
ValleyLine
  6
CONTINUOUS
 62
1
 10
2120.194751
 20
241.619538
 11
2116.540350
 21
158.934170
  0
LINE
  8
ValleyLine
  6
CONTINUOUS
 62
1
 10
2116.540350
 20
158.934170
 11
2201.708543
 21
257.757530
  0
LINE
  8
MountainLine
  6
CONTINUOUS
 62
5
 10
2201.708543
 20
257.757530
 11
2120.194751
 21
241.619538
  0
LINE
  8
ValleyLine
  6
CONTINUOUS
 62
1
 10
2201.708543
 20
257.757530
 11
2221.495319
 21
280.745139
  0
LINE
  8
CutLine
  6
CONTINUOUS
 62
8
 10
2116.637057
 20
284.055813
 11
2120.194751
 21
241.619538
  0
LINE
  8
CutLine
  6
CONTINUOUS
 62
8
 10
2162.784190
 20
506.879855
 11
2116.637057
 21
588.724455
  0
LINE
  8
ValleyLine
  6
CONTINUOUS
 62
1
 10
2116.637057
 20
588.724455
 11
2116.637057
 21
284.055813
  0
LINE
  8
MountainLine
  6
CONTINUOUS
 62
5
 10
2224.079126
 20
481.387618
 11
2183.535797
 21
465.610237
  0
LINE
  8
MountainLine
  6
CONTINUOUS
 62
5
 10
2238.408488
 20
293.013988
 11
2224.079126
 21
481.387618
  0
LINE
  8
CutLine
  6
CONTINUOUS
 62
8
 10
2224.079126
 20
481.387618
 11
2164.894837
 21
507.875177
  0
LINE
  8
MountainLine
  6
CONTINUOUS
 62
5
 10
2164.894837
 20
507.875177
 11
2183.535797
 21
465.610237
  0
LINE
  8
MountainLine
  6
CONTINUOUS
 62
5
 10
2238.408488
 20
293.013988
 11
2261.541434
 21
430.539616
  0
LINE
  8
ValleyLine
  6
CONTINUOUS
 62
1
 10
2261.541434
 20
430.539616
 11
2224.079126
 21
481.387618
  0
LINE
  8
CutLine
  6
CONTINUOUS
 62
8
 10
2261.133598
 20
283.739737
 11
2308.913063
 21
268.200852
  0
LINE
  8
ValleyLine
  6
CONTINUOUS
 62
1
 10
2308.913063
 20
268.200852
 11
2284.980823
 21
342.282107
  0
LINE
  8
CutLine
  6
CONTINUOUS
 62
8
 10
2284.980823
 20
342.282107
 11
2271.643103
 21
395.008048
  0
LINE
  8
ValleyLine
  6
CONTINUOUS
 62
1
 10
2238.408488
 20
293.013988
 11
2261.133598
 21
283.739737
  0
LINE
  8
ValleyLine
  6
CONTINUOUS
 62
1
 10
2116.540350
 20
158.934170
 11
2217.452772
 21
223.636728
  0
LINE
  8
CutLine
  6
CONTINUOUS
 62
8
 10
2217.452772
 20
223.636728
 11
2201.708543
 21
257.757530
  0
LINE
  8
MountainLine
  6
CONTINUOUS
 62
5
 10
2265.791132
 20
567.490293
 11
2156.779906
 21
573.873779
  0
LINE
  8
ValleyLine
  6
CONTINUOUS
 62
1
 10
2156.779906
 20
573.873779
 11
2224.985587
 21
532.356028
  0
LINE
  8
MountainLine
  6
CONTINUOUS
 62
5
 10
2224.985587
 20
532.356028
 11
2265.791132
 21
567.490293
  0
LINE
  8
CutLine
  6
CONTINUOUS
 62
8
 10
2224.985587
 20
532.356028
 11
2270.572950
 21
525.957805
  0
LINE
  8
ValleyLine
  6
CONTINUOUS
 62
1
 10
2270.572950
 20
525.957805
 11
2265.791132
 21
567.490293
  0
LINE
  8
CutLine
  6
CONTINUOUS
 62
8
 10
2156.779906
 20
573.873779
 11
2169.235162
 21
530.964130
  0
LINE
  8
MountainLine
  6
CONTINUOUS
 62
5
 10
2169.235162
 20
530.964130
 11
2224.985587
 21
532.356028
  0
LINE
  8
MountainLine
  6
CONTINUOUS
 62
5
 10
2274.728451
 20
65.672603
 11
2258.174587
 21
104.777413
  0
LINE
  8
ValleyLine
  6
CONTINUOUS
 62
1
 10
2258.174587
 20
104.777413
 11
2217.172806
 21
100.091603
  0
LINE
  8
ValleyLine
  6
CONTINUOUS
 62
1
 10
2217.172806
 20
100.091603
 11
2193.702692
 21
67.465647
  0
LINE
  8
ValleyLine
  6
CONTINUOUS
 62
1
 10
2193.702692
 20
67.465647
 11
2274.728451
 21
65.672603
  0
LINE
  8
CutLine
  6
CONTINUOUS
 62
8
 10
2217.172806
 20
100.091603
 11
2180.149739
 21
95.350305
  0
LINE
  8
MountainLine
  6
CONTINUOUS
 62
5
 10
2180.149739
 20
95.350305
 11
2193.702692
 21
67.465647
  0
LINE
  8
ValleyLine
  6
CONTINUOUS
 62
1
 10
2180.149739
 20
95.350305
 11
2140.672399
 21
84.723554
  0
LINE
  8
MountainLine
  6
CONTINUOUS
 62
5
 10
2140.672399
 20
84.723554
 11
2193.702692
 21
67.465647
  0
LINE
  8
CutLine
  6
CONTINUOUS
 62
8
 10
2274.728451
 20
65.672603
 11
2333.093933
 21
28.878992
  0
LINE
  8
ValleyLine
  6
CONTINUOUS
 62
1
 10
2333.093933
 20
28.878992
 11
2313.711604
 21
82.015595
  0
LINE
  8
MountainLine
  6
CONTINUOUS
 62
5
 10
2313.711604
 20
82.015595
 11
2274.728451
 21
65.672603
  0
LINE
  8
ValleyLine
  6
CONTINUOUS
 62
1
 10
2313.711604
 20
82.015595
 11
2309.939542
 21
101.929665
  0
LINE
  8
CutLine
  6
CONTINUOUS
 62
8
 10
2309.939542
 20
101.929665
 11
2258.174587
 21
104.777413
  0
LINE
  8
ValleyLine
  6
CONTINUOUS
 62
1
 10
2340.618576
 20
75.561239
 11
2313.711604
 21
82.015595
  0
LINE
  8
ValleyLine
  6
CONTINUOUS
 62
1
 10
2333.093933
 20
28.878992
 11
2340.618576
 21
75.561239
  0
LINE
  8
CutLine
  6
CONTINUOUS
 62
8
 10
2340.618576
 20
75.561239
 11
2332.462654
 21
89.407049
  0
LINE
  8
MountainLine
  6
CONTINUOUS
 62
5
 10
2332.462654
 20
89.407049
 11
2313.711604
 21
82.015595
  0
LINE
  8
ValleyLine
  6
CONTINUOUS
 62
1
 10
2332.462654
 20
89.407049
 11
2309.939542
 21
101.929665
  0
LINE
  8
CutLine
  6
CONTINUOUS
 62
8
 10
2193.702692
 20
67.465647
 11
2237.099294
 21
52.107266
  0
LINE
  8
ValleyLine
  6
CONTINUOUS
 62
1
 10
2237.099294
 20
52.107266
 11
2274.728451
 21
65.672603
  0
LINE
  8
MountainLine
  6
CONTINUOUS
 62
5
 10
2333.305555
 20
148.386554
 11
2324.940282
 21
192.638160
  0
LINE
  8
MountainLine
  6
CONTINUOUS
 62
5
 10
2324.940282
 20
192.638160
 11
2288.943819
 21
167.971845
  0
LINE
  8
ValleyLine
  6
CONTINUOUS
 62
1
 10
2288.943819
 20
167.971845
 11
2333.305555
 21
148.386554
  0
LINE
  8
ValleyLine
  6
CONTINUOUS
 62
1
 10
2383.504889
 20
156.162331
 11
2324.940282
 21
192.638160
  0
LINE
  8
CutLine
  6
CONTINUOUS
 62
8
 10
2333.305555
 20
148.386554
 11
2383.504889
 21
156.162331
  0
LINE
  8
CutLine
  6
CONTINUOUS
 62
8
 10
2226.844542
 20
259.774992
 11
2267.319405
 21
203.477378
  0
LINE
  8
MountainLine
  6
CONTINUOUS
 62
5
 10
2306.432997
 20
228.098733
 11
2226.844542
 21
259.774992
  0
LINE
  8
CutLine
  6
CONTINUOUS
 62
8
 10
2324.940282
 20
192.638160
 11
2306.432997
 21
228.098733
  0
LINE
  8
ValleyLine
  6
CONTINUOUS
 62
1
 10
2267.319405
 20
203.477378
 11
2288.943819
 21
167.971845
  0
LINE
  8
ValleyLine
  6
CONTINUOUS
 62
1
 10
2318.369357
 20
133.067650
 11
2333.305555
 21
148.386554
  0
LINE
  8
CutLine
  6
CONTINUOUS
 62
8
 10
2288.943819
 20
167.971845
 11
2318.369357
 21
133.067650
  0
LINE
  8
ValleyLine
  6
CONTINUOUS
 62
1
 10
2349.777785
 20
119.750319
 11
2318.369357
 21
133.067650
  0
LINE
  8
ValleyLine
  6
CONTINUOUS
 62
1
 10
2318.369357
 20
133.067650
 11
2334.050205
 21
116.453542
  0
LINE
  8
ValleyLine
  6
CONTINUOUS
 62
1
 10
2334.050205
 20
116.453542
 11
2349.777785
 21
119.750319
  0
LINE
  8
CutLine
  6
CONTINUOUS
 62
8
 10
2349.777785
 20
119.750319
 11
2383.941466
 21
152.441226
  0
LINE
  8
ValleyLine
  6
CONTINUOUS
 62
1
 10
2383.941466
 20
152.441226
 11
2333.305555
 21
148.386554
  0
LINE
  8
CutLine
  6
CONTINUOUS
 62
8
 10
2309.529279
 20
109.304197
 11
2334.050205
 21
116.453542
  0
LINE
  8
ValleyLine
  6
CONTINUOUS
 62
1
 10
2318.369357
 20
133.067650
 11
2309.529279
 21
109.304197
  0
LINE
  8
ValleyLine
  6
CONTINUOUS
 62
1
 10
2258.174587
 20
104.777413
 11
2273.758337
 21
142.764142
  0
LINE
  8
CutLine
  6
CONTINUOUS
 62
8
 10
2273.758337
 20
142.764142
 11
2232.640278
 21
148.893043
  0
LINE
  8
ValleyLine
  6
CONTINUOUS
 62
1
 10
2232.640278
 20
148.893043
 11
2164.478288
 21
161.604418
  0
LINE
  8
CutLine
  6
CONTINUOUS
 62
8
 10
2164.478288
 20
161.604418
 11
2179.938913
 21
97.479201
  0
LINE
  8
ValleyLine
  6
CONTINUOUS
 62
1
 10
2179.938913
 20
97.479201
 11
2217.172806
 21
100.091603
  0
LINE
  8
ValleyLine
  6
CONTINUOUS
 62
1
 10
2318.369357
 20
133.067650
 11
2273.758337
 21
142.764142
  0
LINE
  8
ValleyLine
  6
CONTINUOUS
 62
1
 10
2258.174587
 20
104.777413
 11
2309.529279
 21
109.304197
  0
LINE
  8
MountainLine
  6
CONTINUOUS
 62
5
 10
2342.311616
 20
360.639207
 11
2342.311616
 21
251.441239
  0
LINE
  8
MountainLine
  6
CONTINUOUS
 62
5
 10
2342.311616
 20
251.441239
 11
2379.771205
 21
290.123125
  0
LINE
  8
ValleyLine
  6
CONTINUOUS
 62
1
 10
2379.771205
 20
290.123125
 11
2342.311616
 21
360.639207
  0
LINE
  8
CutLine
  6
CONTINUOUS
 62
8
 10
2342.311616
 20
251.441239
 11
2383.493544
 21
244.239695
  0
LINE
  8
MountainLine
  6
CONTINUOUS
 62
5
 10
2383.493544
 20
244.239695
 11
2379.771205
 21
290.123125
  0
LINE
  8
ValleyLine
  6
CONTINUOUS
 62
1
 10
2384.419776
 20
345.696843
 11
2342.311616
 21
360.639207
  0
LINE
  8
CutLine
  6
CONTINUOUS
 62
8
 10
2379.771205
 20
290.123125
 11
2384.419776
 21
345.696843
 0
TEXT
100
AcDbText
 8
Edge ID
100
AcDbText
10
2285.023331
20
275.970295
30
0.0
40
3.360000
72
1
11
2285.023331
21
275.970295
31
0.0
1
262
50
-18.015613
 0
TEXT
100
AcDbText
 8
Edge ID
100
AcDbText
10
2296.946943
20
305.241480
30
0.0
40
3.360000
72
1
11
2296.946943
21
305.241480
31
0.0
1
110
50
107.903254
 0
TEXT
100
AcDbText
 8
Edge ID
100
AcDbText
10
2278.311963
20
368.645077
30
0.0
40
3.360000
72
1
11
2278.311963
21
368.645077
31
0.0
1
184
50
104.195921
 0
TEXT
100
AcDbText
 8
Edge ID
100
AcDbText
10
2249.771043
20
288.376863
30
0.0
40
3.360000
72
1
11
2249.771043
21
288.376863
31
0.0
1
111
50
-22.200659
 0
TEXT
100
AcDbText
 8
Edge ID
100
AcDbText
10
2166.996561
20
191.285449
30
0.0
40
3.360000
72
1
11
2166.996561
21
191.285449
31
0.0
1
112
50
32.666992
 0
TEXT
100
AcDbText
 8
Edge ID
100
AcDbText
10
2209.580657
20
240.697129
30
0.0
40
3.360000
72
1
11
2209.580657
21
240.697129
31
0.0
1
268
50
114.769834
 0
TEXT
100
AcDbText
 8
Edge ID
100
AcDbText
10
2211.601931
20
269.251335
30
0.0
40
3.360000
72
1
11
2211.601931
21
269.251335
31
0.0
1
106
50
49.279502
 0
TEXT
100
AcDbText
 8
Edge ID
100
AcDbText
10
2118.415904
20
262.837675
30
0.0
40
3.360000
72
1
11
2118.415904
21
262.837675
31
0.0
1
292
50
-85.207748
 0
TEXT
100
AcDbText
 8
Edge ID
100
AcDbText
10
2332.344612
20
408.164569
30
0.0
40
3.360000
72
1
11
2332.344612
21
408.164569
31
0.0
1
103
50
12.229205
 0
TEXT
100
AcDbText
 8
Edge ID
100
AcDbText
10
2388.418669
20
442.301124
30
0.0
40
3.360000
72
1
11
2388.418669
21
442.301124
31
0.0
1
230
50
102.438269
 0
TEXT
100
AcDbText
 8
Edge ID
100
AcDbText
10
2341.458834
20
515.612172
30
0.0
40
3.360000
72
1
11
2341.458834
21
515.612172
31
0.0
1
104
50
128.970604
 0
TEXT
100
AcDbText
 8
Edge ID
100
AcDbText
10
2280.333943
20
499.241401
30
0.0
40
3.360000
72
1
11
2280.333943
21
499.241401
31
0.0
1
260
50
254.701686
 0
TEXT
100
AcDbText
 8
Edge ID
100
AcDbText
10
2194.486982
20
494.631397
30
0.0
40
3.360000
72
1
11
2194.486982
21
494.631397
31
0.0
1
256
50
155.889395
 0
TEXT
100
AcDbText
 8
Edge ID
100
AcDbText
10
2174.215317
20
486.742707
30
0.0
40
3.360000
72
1
11
2174.215317
21
486.742707
31
0.0
1
108
50
-66.200114
 0
TEXT
100
AcDbText
 8
Edge ID
100
AcDbText
10
2118.367551
20
200.276854
30
0.0
40
3.360000
72
1
11
2118.367551
21
200.276854
31
0.0
1
105
50
267.469376
 0
TEXT
100
AcDbText
 8
Edge ID
100
AcDbText
10
2242.810280
20
455.963617
30
0.0
40
3.360000
72
1
11
2242.810280
21
455.963617
31
0.0
1
109
50
126.380963
 0
TEXT
100
AcDbText
 8
Edge ID
100
AcDbText
10
2139.710624
20
547.802155
30
0.0
40
3.360000
72
1
11
2139.710624
21
547.802155
31
0.0
1
258
50
119.415976
 0
TEXT
100
AcDbText
 8
Edge ID
100
AcDbText
10
2116.637057
20
436.390134
30
0.0
40
3.360000
72
1
11
2116.637057
21
436.390134
31
0.0
1
107
50
-90.000000
 0
TEXT
100
AcDbText
 8
Edge ID
100
AcDbText
10
2229.951903
20
286.879564
30
0.0
40
3.360000
72
1
11
2229.951903
21
286.879564
31
0.0
1
267
50
35.957211
 0
TEXT
100
AcDbText
 8
Edge ID
100
AcDbText
10
2173.159994
20
486.245046
30
0.0
40
3.360000
72
1
11
2173.159994
21
486.245046
31
0.0
1
108
50
116.694627
 0
TEXT
100
AcDbText
 8
Edge ID
100
AcDbText
10
2247.779269
20
529.156917
30
0.0
40
3.360000
72
1
11
2247.779269
21
529.156917
31
0.0
1
122
50
-7.989322
 0
TEXT
100
AcDbText
 8
Edge ID
100
AcDbText
10
2268.182041
20
546.724049
30
0.0
40
3.360000
72
1
11
2268.182041
21
546.724049
31
0.0
1
181
50
96.567796
 0
TEXT
100
AcDbText
 8
Edge ID
100
AcDbText
10
2163.007534
20
552.418955
30
0.0
40
3.360000
72
1
11
2163.007534
21
552.418955
31
0.0
1
177
50
-73.813729
 0
TEXT
100
AcDbText
 8
Edge ID
100
AcDbText
10
2197.110374
20
531.660079
30
0.0
40
3.360000
72
1
11
2197.110374
21
531.660079
31
0.0
1
182
50
1.430183
 0
TEXT
100
AcDbText
 8
Edge ID
100
AcDbText
10
2211.285519
20
570.682036
30
0.0
40
3.360000
72
1
11
2211.285519
21
570.682036
31
0.0
1
180
50
176.648698
 0
TEXT
100
AcDbText
 8
Edge ID
100
AcDbText
10
2321.201098
20
95.668357
30
0.0
40
3.360000
72
1
11
2321.201098
21
95.668357
31
0.0
1
329
50
150.926397
 0
TEXT
100
AcDbText
 8
Edge ID
100
AcDbText
10
2160.411069
20
90.036930
30
0.0
40
3.360000
72
1
11
2160.411069
21
90.036930
31
0.0
1
326
50
195.066102
 0
TEXT
100
AcDbText
 8
Edge ID
100
AcDbText
10
2167.187545
20
76.094601
30
0.0
40
3.360000
72
1
11
2167.187545
21
76.094601
31
0.0
1
327
50
-18.026695
 0
TEXT
100
AcDbText
 8
Edge ID
100
AcDbText
10
2296.063847
20
137.915896
30
0.0
40
3.360000
72
1
11
2296.063847
21
137.915896
31
0.0
1
338
50
167.737135
 0
TEXT
100
AcDbText
 8
Edge ID
100
AcDbText
10
2283.851933
20
107.040805
30
0.0
40
3.360000
72
1
11
2283.851933
21
107.040805
31
0.0
1
339
50
5.037456
 0
TEXT
100
AcDbText
 8
Edge ID
100
AcDbText
10
2215.400993
20
59.786457
30
0.0
40
3.360000
72
1
11
2215.400993
21
59.786457
31
0.0
1
385
50
-19.489252
 0
TEXT
100
AcDbText
 8
Edge ID
100
AcDbText
10
2255.913872
20
58.889935
30
0.0
40
3.360000
72
1
11
2255.913872
21
58.889935
31
0.0
1
330
50
19.824269
 0
TEXT
100
AcDbText
 8
Edge ID
100
AcDbText
10
2366.859626
20
136.095773
30
0.0
40
3.360000
72
1
11
2366.859626
21
136.095773
31
0.0
1
328
50
43.738006
 0
TEXT
100
AcDbText
 8
Edge ID
100
AcDbText
10
2358.623510
20
150.413890
30
0.0
40
3.360000
72
1
11
2358.623510
21
150.413890
31
0.0
1
335
50
184.578193
 0
TEXT
100
AcDbText
 8
Edge ID
100
AcDbText
10
2303.656588
20
150.519747
30
0.0
40
3.360000
72
1
11
2303.656588
21
150.519747
31
0.0
1
338
50
-49.867862
 0
TEXT
100
AcDbText
 8
Edge ID
100
AcDbText
10
2354.222586
20
174.400246
30
0.0
40
3.360000
72
1
11
2354.222586
21
174.400246
31
0.0
1
331
50
148.084087
 0
TEXT
100
AcDbText
 8
Edge ID
100
AcDbText
10
2358.405222
20
152.274443
30
0.0
40
3.360000
72
1
11
2358.405222
21
152.274443
31
0.0
1
335
50
8.805026
 0
TEXT
100
AcDbText
 8
Edge ID
100
AcDbText
10
2336.540615
20
82.484144
30
0.0
40
3.360000
72
1
11
2336.540615
21
82.484144
31
0.0
1
334
50
120.500360
 0
TEXT
100
AcDbText
 8
Edge ID
100
AcDbText
10
2284.057064
20
103.353539
30
0.0
40
3.360000
72
1
11
2284.057064
21
103.353539
31
0.0
1
339
50
176.851159
 0
TEXT
100
AcDbText
 8
Edge ID
100
AcDbText
10
2336.856255
20
52.220116
30
0.0
40
3.360000
72
1
11
2336.856255
21
52.220116
31
0.0
1
328
50
80.843336
 0
TEXT
100
AcDbText
 8
Edge ID
100
AcDbText
10
2303.911192
20
47.275798
30
0.0
40
3.360000
72
1
11
2303.911192
21
47.275798
31
0.0
1
331
50
-32.227340
 0
TEXT
100
AcDbText
 8
Edge ID
100
AcDbText
10
2278.131612
20
185.724611
30
0.0
40
3.360000
72
1
11
2278.131612
21
185.724611
31
0.0
1
333
50
-58.656767
 0
TEXT
100
AcDbText
 8
Edge ID
100
AcDbText
10
2253.199307
20
145.828592
30
0.0
40
3.360000
72
1
11
2253.199307
21
145.828592
31
0.0
1
333
50
171.522128
 0
TEXT
100
AcDbText
 8
Edge ID
100
AcDbText
10
2198.559283
20
155.248730
30
0.0
40
3.360000
72
1
11
2198.559283
21
155.248730
31
0.0
1
336
50
169.436384
 0
TEXT
100
AcDbText
 8
Edge ID
100
AcDbText
10
2172.208601
20
129.541809
30
0.0
40
3.360000
72
1
11
2172.208601
21
129.541809
31
0.0
1
426
50
-76.444659
 0
TEXT
100
AcDbText
 8
Edge ID
100
AcDbText
10
2198.555860
20
98.785402
30
0.0
40
3.360000
72
1
11
2198.555860
21
98.785402
31
0.0
1
337
50
4.013407
 0
TEXT
100
AcDbText
 8
Edge ID
100
AcDbText
10
2315.686639
20
210.368446
30
0.0
40
3.360000
72
1
11
2315.686639
21
210.368446
31
0.0
1
330
50
117.560579
 0
TEXT
100
AcDbText
 8
Edge ID
100
AcDbText
10
2198.661272
20
97.720954
30
0.0
40
3.360000
72
1
11
2198.661272
21
97.720954
31
0.0
1
337
50
187.297767
 0
TEXT
100
AcDbText
 8
Edge ID
100
AcDbText
10
2247.081973
20
231.626185
30
0.0
40
3.360000
72
1
11
2247.081973
21
231.626185
31
0.0
1
336
50
-54.285960
 0
TEXT
100
AcDbText
 8
Edge ID
100
AcDbText
10
2266.638769
20
243.936863
30
0.0
40
3.360000
72
1
11
2266.638769
21
243.936863
31
0.0
1
332
50
158.297411
 0
TEXT
100
AcDbText
 8
Edge ID
100
AcDbText
10
2321.789742
20
112.878870
30
0.0
40
3.360000
72
1
11
2321.789742
21
112.878870
31
0.0
1
329
50
16.254622
 0
TEXT
100
AcDbText
 8
Edge ID
100
AcDbText
10
2341.913995
20
118.101931
30
0.0
40
3.360000
72
1
11
2341.913995
21
118.101931
31
0.0
1
334
50
11.838794
 0
TEXT
100
AcDbText
 8
Edge ID
100
AcDbText
10
2362.902580
20
247.840467
30
0.0
40
3.360000
72
1
11
2362.902580
21
247.840467
31
0.0
1
421
50
-9.919099
 0
TEXT
100
AcDbText
 8
Edge ID
100
AcDbText
10
2381.632374
20
267.181410
30
0.0
40
3.360000
72
1
11
2381.632374
21
267.181410
31
0.0
1
385
50
94.638020
 0
TEXT
100
AcDbText
 8
Edge ID
100
AcDbText
10
2363.365696
20
353.168025
30
0.0
40
3.360000
72
1
11
2363.365696
21
353.168025
31
0.0
1
386
50
160.462427
 0
TEXT
100
AcDbText
 8
Edge ID
100
AcDbText
10
2382.095490
20
317.909984
30
0.0
40
3.360000
72
1
11
2382.095490
21
317.909984
31
0.0
1
327
50
85.218515
 0
TEXT
100
AcDbText
 8
Edge ID
100
AcDbText
10
2342.311616
20
306.040223
30
0.0
40
3.360000
72
1
11
2342.311616
21
306.040223
31
0.0
1
384
50
-90.000000
  0
ENDSEC
  0
EOF
