  0
SECTION
  2
HEADER
  9
$ACADVER
  1
AC1009
  0
ENDSEC
  0
SECTION
  2
BLOCKS
  0
ENDSEC
  0
SECTION
  2
ENTITIES
  0
LINE
  8
CutLine
  6
CONTINUOUS
 62
8
 10
2247.274381
 20
512.216289
 11
2254.320288
 21
512.812275
  0
LINE
  8
CutLine
  6
CONTINUOUS
 62
8
 10
2254.320288
 20
512.812275
 11
2275.277525
 21
495.123923
  0
LINE
  8
CutLine
  6
CONTINUOUS
 62
8
 10
2275.277525
 20
495.123923
 11
2275.873511
 21
488.078017
  0
LINE
  8
CutLine
  6
CONTINUOUS
 62
8
 10
2200.550651
 20
497.423581
 11
2194.202926
 21
494.308073
  0
LINE
  8
CutLine
  6
CONTINUOUS
 62
8
 10
2194.202926
 20
494.308073
 11
2149.484294
 21
509.581955
  0
LINE
  8
CutLine
  6
CONTINUOUS
 62
8
 10
2149.484294
 20
509.581955
 11
2146.368785
 21
515.929679
  0
LINE
  8
CutLine
  6
CONTINUOUS
 62
8
 10
2184.115897
 20
566.270680
 11
2192.185565
 21
565.051436
  0
LINE
  8
CutLine
  6
CONTINUOUS
 62
8
 10
2192.185565
 20
565.051436
 11
2220.092517
 21
535.773640
  0
LINE
  8
CutLine
  6
CONTINUOUS
 62
8
 10
2220.092517
 20
535.773640
 11
2219.923057
 21
528.704603
  0
LINE
  8
CutLine
  6
CONTINUOUS
 62
8
 10
2336.680117
 20
435.684108
 11
2338.479992
 21
425.561422
  0
LINE
  8
CutLine
  6
CONTINUOUS
 62
8
 10
2263.985047
 20
32.349658
 11
2258.010079
 21
28.568156
  0
LINE
  8
CutLine
  6
CONTINUOUS
 62
8
 10
2258.010079
 20
28.568156
 11
2155.107095
 21
51.702982
  0
LINE
  8
CutLine
  6
CONTINUOUS
 62
8
 10
2155.107095
 20
51.702982
 11
2151.325593
 21
57.677950
  0
LINE
  8
CutLine
  6
CONTINUOUS
 62
8
 10
2306.962011
 20
258.735554
 11
2310.816224
 21
252.807228
  0
LINE
  8
CutLine
  6
CONTINUOUS
 62
8
 10
2310.816224
 20
252.807228
 11
2270.648541
 21
63.356589
  0
LINE
  8
CutLine
  6
CONTINUOUS
 62
8
 10
2270.648541
 20
63.356589
 11
2264.720215
 21
59.502376
  0
LINE
  8
CutLine
  6
CONTINUOUS
 62
8
 10
2226.288982
 20
348.890565
 11
2230.065224
 21
354.868859
  0
LINE
  8
CutLine
  6
CONTINUOUS
 62
8
 10
2230.065224
 20
354.868859
 11
2277.154615
 21
365.499116
  0
LINE
  8
CutLine
  6
CONTINUOUS
 62
8
 10
2277.154615
 20
365.499116
 11
2283.132908
 21
361.722874
  0
LINE
  8
CutLine
  6
CONTINUOUS
 62
8
 10
2151.326259
 20
321.686229
 11
2146.335387
 21
323.341445
  0
LINE
  8
CutLine
  6
CONTINUOUS
 62
8
 10
2146.335387
 20
323.341445
 11
2151.344360
 21
324.941050
  0
LINE
  8
CutLine
  6
CONTINUOUS
 62
8
 10
2342.473220
 20
433.331416
 11
2347.463464
 21
428.321680
  0
LINE
  8
CutLine
  6
CONTINUOUS
 62
8
 10
2347.463464
 20
428.321680
 11
2347.377805
 21
384.376471
  0
LINE
  8
CutLine
  6
CONTINUOUS
 62
8
 10
2347.377805
 20
384.376471
 11
2342.368069
 21
379.386227
  0
LINE
  8
CutLine
  6
CONTINUOUS
 62
8
 10
2226.890842
 20
448.671503
 11
2230.686249
 21
448.464971
  0
LINE
  8
ValleyLine
  6
CONTINUOUS
 62
1
 10
2230.686249
 20
448.464971
 11
2275.873511
 21
488.078017
  0
LINE
  8
MountainLine
  6
CONTINUOUS
 62
5
 10
2275.873511
 20
488.078017
 11
2247.274381
 21
512.216289
  0
LINE
  8
ValleyLine
  6
CONTINUOUS
 62
1
 10
2247.274381
 20
512.216289
 11
2200.550651
 21
497.423581
  0
LINE
  8
CutLine
  6
CONTINUOUS
 62
8
 10
2200.550651
 20
497.423581
 11
2222.725988
 21
448.898115
  0
LINE
  8
CutLine
  6
CONTINUOUS
 62
8
 10
2222.725988
 20
448.898115
 11
2226.890842
 21
448.671503
  0
LINE
  8
CutLine
  6
CONTINUOUS
 62
8
 10
2184.115897
 20
566.270680
 11
2146.368785
 21
515.929679
  0
LINE
  8
MountainLine
  6
CONTINUOUS
 62
5
 10
2146.368785
 20
515.929679
 11
2200.550651
 21
497.423581
  0
LINE
  8
MountainLine
  6
CONTINUOUS
 62
5
 10
2200.550651
 20
497.423581
 11
2219.923057
 21
528.704603
  0
LINE
  8
MountainLine
  6
CONTINUOUS
 62
5
 10
2219.923057
 20
528.704603
 11
2184.115897
 21
566.270680
  0
LINE
  8
CutLine
  6
CONTINUOUS
 62
8
 10
2247.274381
 20
512.216289
 11
2219.923057
 21
528.704603
  0
LINE
  8
CutLine
  6
CONTINUOUS
 62
8
 10
2233.632147
 20
440.121110
 11
2233.087017
 21
437.493115
  0
LINE
  8
CutLine
  6
CONTINUOUS
 62
8
 10
2233.087017
 20
437.493115
 11
2233.000893
 21
432.852045
  0
LINE
  8
CutLine
  6
CONTINUOUS
 62
8
 10
2233.000893
 20
432.852045
 11
2232.562678
 21
409.238645
  0
LINE
  8
CutLine
  6
CONTINUOUS
 62
8
 10
2232.562678
 20
409.238645
 11
2233.447138
 21
405.618625
  0
LINE
  8
CutLine
  6
CONTINUOUS
 62
8
 10
2233.447138
 20
405.618625
 11
2235.772880
 21
396.099592
  0
LINE
  8
CutLine
  6
CONTINUOUS
 62
8
 10
2235.772880
 20
396.099592
 11
2310.636265
 21
372.550266
  0
LINE
  8
ValleyLine
  6
CONTINUOUS
 62
1
 10
2310.636265
 20
372.550266
 11
2326.387974
 21
402.032857
  0
LINE
  8
ValleyLine
  6
CONTINUOUS
 62
1
 10
2326.387974
 20
402.032857
 11
2233.632147
 21
440.121110
  0
LINE
  8
ValleyLine
  6
CONTINUOUS
 62
1
 10
2232.816402
 20
443.061572
 11
2336.680117
 21
435.684108
  0
LINE
  8
CutLine
  6
CONTINUOUS
 62
8
 10
2336.680117
 20
435.684108
 11
2275.873511
 21
488.078017
  0
LINE
  8
CutLine
  6
CONTINUOUS
 62
8
 10
2230.686249
 20
448.464971
 11
2232.816402
 21
443.061572
  0
LINE
  8
CutLine
  6
CONTINUOUS
 62
8
 10
2232.816402
 20
443.061572
 11
2233.632147
 21
440.121110
  0
LINE
  8
ValleyLine
  6
CONTINUOUS
 62
1
 10
2326.387974
 20
402.032857
 11
2336.680117
 21
435.684108
  0
LINE
  8
ValleyLine
  6
CONTINUOUS
 62
1
 10
2151.325593
 20
57.677950
 11
2263.985047
 21
32.349658
  0
LINE
  8
CutLine
  6
CONTINUOUS
 62
8
 10
2263.985047
 20
32.349658
 11
2264.720215
 21
59.502376
  0
LINE
  8
ValleyLine
  6
CONTINUOUS
 62
1
 10
2264.720215
 20
59.502376
 11
2306.962011
 21
258.735554
  0
LINE
  8
MountainLine
  6
CONTINUOUS
 62
5
 10
2306.962011
 20
258.735554
 11
2286.892816
 21
306.056400
  0
LINE
  8
MountainLine
  6
CONTINUOUS
 62
5
 10
2286.892816
 20
306.056400
 11
2151.326259
 21
321.686229
  0
LINE
  8
CutLine
  6
CONTINUOUS
 62
8
 10
2151.326259
 20
321.686229
 11
2151.325593
 21
57.677950
  0
LINE
  8
CutLine
  6
CONTINUOUS
 62
8
 10
2306.962011
 20
258.735554
 11
2342.368069
 21
379.386227
  0
LINE
  8
MountainLine
  6
CONTINUOUS
 62
5
 10
2342.368069
 20
379.386227
 11
2286.892816
 21
306.056400
  0
LINE
  8
MountainLine
  6
CONTINUOUS
 62
5
 10
2342.368069
 20
379.386227
 11
2310.636265
 21
372.550266
  0
LINE
  8
CutLine
  6
CONTINUOUS
 62
8
 10
2310.636265
 20
372.550266
 11
2283.132908
 21
361.722874
  0
LINE
  8
MountainLine
  6
CONTINUOUS
 62
5
 10
2283.132908
 20
361.722874
 11
2226.288982
 21
348.890565
  0
LINE
  8
CutLine
  6
CONTINUOUS
 62
8
 10
2226.288982
 20
348.890565
 11
2223.653350
 21
346.736107
  0
LINE
  8
CutLine
  6
CONTINUOUS
 62
8
 10
2223.653350
 20
346.736107
 11
2223.061218
 21
346.420611
  0
LINE
  8
CutLine
  6
CONTINUOUS
 62
8
 10
2223.061218
 20
346.420611
 11
2201.115473
 21
334.727694
  0
LINE
  8
CutLine
  6
CONTINUOUS
 62
8
 10
2201.115473
 20
334.727694
 11
2200.362007
 21
334.500053
  0
LINE
  8
CutLine
  6
CONTINUOUS
 62
8
 10
2200.362007
 20
334.500053
 11
2176.696749
 21
327.350197
  0
LINE
  8
CutLine
  6
CONTINUOUS
 62
8
 10
2176.696749
 20
327.350197
 11
2175.816549
 21
327.265156
  0
LINE
  8
CutLine
  6
CONTINUOUS
 62
8
 10
2175.816549
 20
327.265156
 11
2151.344360
 21
324.941050
  0
LINE
  8
MountainLine
  6
CONTINUOUS
 62
5
 10
2151.344360
 20
324.941050
 11
2151.326259
 21
321.686229
  0
LINE
  8
ValleyLine
  6
CONTINUOUS
 62
1
 10
2342.368069
 20
379.386227
 11
2342.473220
 21
433.331416
  0
LINE
  8
CutLine
  6
CONTINUOUS
 62
8
 10
2342.473220
 20
433.331416
 11
2326.387974
 21
402.032857
 0
TEXT
100
AcDbText
 8
Edge ID
100
AcDbText
10
2233.598719
20
520.460446
30
0.0
40
3.360000
72
1
11
2233.598719
21
520.460446
31
0.0
1
45
50
148.916989
 0
TEXT
100
AcDbText
 8
Edge ID
100
AcDbText
10
2165.242341
20
541.100180
30
0.0
40
3.360000
72
1
11
2165.242341
21
541.100180
31
0.0
1
19
50
233.136396
 0
TEXT
100
AcDbText
 8
Edge ID
100
AcDbText
10
2173.459718
20
506.676630
30
0.0
40
3.360000
72
1
11
2173.459718
21
506.676630
31
0.0
1
77
50
-18.857869
 0
TEXT
100
AcDbText
 8
Edge ID
100
AcDbText
10
2202.019477
20
547.487641
30
0.0
40
3.360000
72
1
11
2202.019477
21
547.487641
31
0.0
1
78
50
133.626758
 0
TEXT
100
AcDbText
 8
Edge ID
100
AcDbText
10
2254.710945
20
355.306719
30
0.0
40
3.360000
72
1
11
2254.710945
21
355.306719
31
0.0
1
82
50
192.721079
 0
TEXT
100
AcDbText
 8
Edge ID
100
AcDbText
10
2151.335310
20
323.313639
30
0.0
40
3.360000
72
1
11
2151.335310
21
323.313639
31
0.0
1
83
50
269.681370
 0
TEXT
100
AcDbText
 8
Edge ID
100
AcDbText
10
2331.534046
20
418.858483
30
0.0
40
3.360000
72
1
11
2331.534046
21
418.858483
31
0.0
1
79
50
72.993891
 0
TEXT
100
AcDbText
 8
Edge ID
100
AcDbText
10
2306.276814
20
461.881063
30
0.0
40
3.360000
72
1
11
2306.276814
21
461.881063
31
0.0
1
49
50
139.250225
 0
TEXT
100
AcDbText
 8
Edge ID
100
AcDbText
10
2342.420644
20
406.358822
30
0.0
40
3.360000
72
1
11
2342.420644
21
406.358822
31
0.0
1
84
50
89.888318
 0
TEXT
100
AcDbText
 8
Edge ID
100
AcDbText
10
2334.430597
20
417.682136
30
0.0
40
3.360000
72
1
11
2334.430597
21
417.682136
31
0.0
1
79
50
242.800042
 0
TEXT
100
AcDbText
 8
Edge ID
100
AcDbText
10
2324.665040
20
319.060890
30
0.0
40
3.360000
72
1
11
2324.665040
21
319.060890
31
0.0
1
20
50
73.645185
 0
TEXT
100
AcDbText
 8
Edge ID
100
AcDbText
10
2207.655320
20
45.013804
30
0.0
40
3.360000
72
1
11
2207.655320
21
45.013804
31
0.0
1
80
50
-12.670660
 0
TEXT
100
AcDbText
 8
Edge ID
100
AcDbText
10
2264.352631
20
45.926017
30
0.0
40
3.360000
72
1
11
2264.352631
21
45.926017
31
0.0
1
506
50
88.449078
 0
TEXT
100
AcDbText
 8
Edge ID
100
AcDbText
10
2285.841113
20
159.118965
30
0.0
40
3.360000
72
1
11
2285.841113
21
159.118965
31
0.0
1
81
50
78.029313
 0
TEXT
100
AcDbText
 8
Edge ID
100
AcDbText
10
2151.325926
20
189.682089
30
0.0
40
3.360000
72
1
11
2151.325926
21
189.682089
31
0.0
1
10
50
269.999855
 0
TEXT
100
AcDbText
 8
Edge ID
100
AcDbText
10
2261.573946
20
500.147153
30
0.0
40
3.360000
72
1
11
2261.573946
21
500.147153
31
0.0
1
76
50
139.834925
 0
TEXT
100
AcDbText
 8
Edge ID
100
AcDbText
10
2211.638320
20
473.160848
30
0.0
40
3.360000
72
1
11
2211.638320
21
473.160848
31
0.0
1
30
50
-65.440381
  0
ENDSEC
  0
EOF
