  0
SECTION
  2
HEADER
  9
$ACADVER
  1
AC1009
  0
ENDSEC
  0
SECTION
  2
BLOCKS
  0
ENDSEC
  0
SECTION
  2
ENTITIES
  0
LINE
  8
CutLine
  6
CONTINUOUS
 62
8
 10
1182.369543
 20
53.550461
 11
1184.233898
 21
46.729598
  0
LINE
  8
CutLine
  6
CONTINUOUS
 62
8
 10
1184.233898
 20
46.729598
 11
1160.423890
 21
5.007674
  0
LINE
  8
CutLine
  6
CONTINUOUS
 62
8
 10
1160.423890
 20
5.007674
 11
1153.603027
 21
3.143319
  0
LINE
  8
CutLine
  6
CONTINUOUS
 62
8
 10
1101.154971
 20
115.366844
 11
1094.343312
 21
117.264554
  0
LINE
  8
CutLine
  6
CONTINUOUS
 62
8
 10
1094.343312
 20
117.264554
 11
1061.597436
 21
175.302587
  0
LINE
  8
CutLine
  6
CONTINUOUS
 62
8
 10
1061.597436
 20
175.302587
 11
1061.005950
 21
186.526039
  0
LINE
  8
CutLine
  6
CONTINUOUS
 62
8
 10
1098.665943
 20
195.484202
 11
1105.568964
 21
193.951785
  0
LINE
  8
CutLine
  6
CONTINUOUS
 62
8
 10
1105.568964
 20
193.951785
 11
1139.312351
 21
140.952109
  0
LINE
  8
CutLine
  6
CONTINUOUS
 62
8
 10
1139.312351
 20
140.952109
 11
1137.779934
 21
134.049088
  0
LINE
  8
CutLine
  6
CONTINUOUS
 62
8
 10
1063.262770
 20
317.048439
 11
1071.819906
 21
305.771878
  0
LINE
  8
CutLine
  6
CONTINUOUS
 62
8
 10
1071.819906
 20
305.771878
 11
1083.856559
 21
265.159727
  0
LINE
  8
CutLine
  6
CONTINUOUS
 62
8
 10
1083.856559
 20
265.159727
 11
1080.483491
 21
258.945033
  0
LINE
  8
CutLine
  6
CONTINUOUS
 62
8
 10
1063.284458
 20
259.146194
 11
1058.282586
 21
264.144321
  0
LINE
  8
CutLine
  6
CONTINUOUS
 62
8
 10
1058.282586
 20
264.144321
 11
1058.266998
 21
305.761357
  0
LINE
  8
CutLine
  6
CONTINUOUS
 62
8
 10
1058.266998
 20
305.761357
 11
1063.262770
 21
317.048439
  0
LINE
  8
CutLine
  6
CONTINUOUS
 62
8
 10
1027.346251
 20
375.869089
 11
1025.854777
 21
303.708707
  0
LINE
  8
CutLine
  6
CONTINUOUS
 62
8
 10
1025.854777
 20
303.708707
 11
1020.752523
 21
298.813097
  0
LINE
  8
CutLine
  6
CONTINUOUS
 62
8
 10
986.768809
 20
293.484278
 11
985.847695
 21
294.955080
  0
LINE
  8
CutLine
  6
CONTINUOUS
 62
8
 10
997.105227
 20
485.059452
 11
999.712126
 21
482.295576
  0
LINE
  8
CutLine
  6
CONTINUOUS
 62
8
 10
905.425162
 20
487.295850
 11
902.379281
 21
493.677277
  0
LINE
  8
CutLine
  6
CONTINUOUS
 62
8
 10
902.379281
 20
493.677277
 11
917.162061
 21
535.458083
  0
LINE
  8
CutLine
  6
CONTINUOUS
 62
8
 10
917.162061
 20
535.458083
 11
923.543488
 21
538.503964
  0
LINE
  8
CutLine
  6
CONTINUOUS
 62
8
 10
986.214924
 20
310.207101
 11
983.979563
 21
299.720061
  0
LINE
  8
CutLine
  6
CONTINUOUS
 62
8
 10
983.979563
 20
299.720061
 11
978.047065
 21
295.872275
  0
LINE
  8
CutLine
  6
CONTINUOUS
 62
8
 10
957.751850
 20
375.015685
 11
949.192521
 21
381.545236
  0
LINE
  8
CutLine
  6
CONTINUOUS
 62
8
 10
949.192521
 20
381.545236
 11
903.005236
 21
480.651758
  0
LINE
  8
CutLine
  6
CONTINUOUS
 62
8
 10
903.005236
 20
480.651758
 11
905.425162
 21
487.295850
  0
LINE
  8
CutLine
  6
CONTINUOUS
 62
8
 10
971.027152
 20
555.976222
 11
979.308023
 21
548.846435
  0
LINE
  8
CutLine
  6
CONTINUOUS
 62
8
 10
979.308023
 20
548.846435
 11
999.885235
 21
498.021895
  0
LINE
  8
CutLine
  6
CONTINUOUS
 62
8
 10
999.744882
 20
485.271310
 11
999.698046
 21
485.160749
  0
LINE
  8
CutLine
  6
CONTINUOUS
 62
8
 10
1020.752523
 20
298.813097
 11
1026.054651
 21
303.491498
  0
LINE
  8
CutLine
  6
CONTINUOUS
 62
8
 10
1026.054651
 20
303.491498
 11
1037.196950
 21
302.795166
  0
LINE
  8
CutLine
  6
CONTINUOUS
 62
8
 10
1037.196950
 20
302.795166
 11
1041.875350
 21
297.493038
  0
LINE
  8
CutLine
  6
CONTINUOUS
 62
8
 10
1043.197988
 20
228.739594
 11
1048.191841
 21
223.733455
  0
LINE
  8
CutLine
  6
CONTINUOUS
 62
8
 10
1048.191841
 20
223.733455
 11
1048.134931
 21
177.411663
  0
LINE
  8
CutLine
  6
CONTINUOUS
 62
8
 10
1048.134931
 20
177.411663
 11
1043.118665
 21
164.174501
  0
LINE
  8
CutLine
  6
CONTINUOUS
 62
8
 10
985.747403
 20
220.637534
 11
980.769773
 21
225.659805
  0
LINE
  8
CutLine
  6
CONTINUOUS
 62
8
 10
980.769773
 20
225.659805
 11
981.049472
 21
288.315072
  0
LINE
  8
CutLine
  6
CONTINUOUS
 62
8
 10
981.049472
 20
288.315072
 11
986.071742
 21
293.292702
  0
LINE
  8
CutLine
  6
CONTINUOUS
 62
8
 10
1012.511396
 20
222.628839
 11
1014.950234
 21
215.991666
  0
LINE
  8
CutLine
  6
CONTINUOUS
 62
8
 10
1014.950234
 20
215.991666
 11
993.344733
 21
169.284631
  0
LINE
  8
CutLine
  6
CONTINUOUS
 62
8
 10
993.344733
 20
169.284631
 11
984.809655
 21
162.742880
  0
LINE
  8
CutLine
  6
CONTINUOUS
 62
8
 10
1083.040479
 20
499.070762
 11
1088.804557
 21
488.070025
  0
LINE
  8
CutLine
  6
CONTINUOUS
 62
8
 10
1088.804557
 20
488.070025
 11
1093.966908
 21
412.591610
  0
LINE
  8
CutLine
  6
CONTINUOUS
 62
8
 10
1093.966908
 20
412.591610
 11
1089.319740
 21
407.262085
  0
LINE
  8
CutLine
  6
CONTINUOUS
 62
8
 10
1090.702081
 20
323.979569
 11
1085.866102
 21
325.665471
  0
LINE
  8
CutLine
  6
CONTINUOUS
 62
8
 10
1000.553046
 20
558.690237
 11
1007.262598
 21
556.458218
  0
LINE
  8
CutLine
  6
CONTINUOUS
 62
8
 10
1007.262598
 20
556.458218
 11
1041.881042
 21
487.325657
  0
LINE
  8
CutLine
  6
CONTINUOUS
 62
8
 10
1041.881042
 20
487.325657
 11
1039.649023
 21
480.616105
  0
LINE
  8
CutLine
  6
CONTINUOUS
 62
8
 10
1111.970248
 20
338.044082
 11
1118.987050
 21
337.169730
  0
LINE
  8
CutLine
  6
CONTINUOUS
 62
8
 10
1118.987050
 20
337.169730
 11
1153.393509
 21
292.968038
  0
LINE
  8
CutLine
  6
CONTINUOUS
 62
8
 10
1153.393509
 20
292.968038
 11
1152.519157
 21
285.951236
  0
LINE
  8
CutLine
  6
CONTINUOUS
 62
8
 10
1134.984185
 20
271.368917
 11
1127.939095
 21
271.974487
  0
LINE
  8
CutLine
  6
CONTINUOUS
 62
8
 10
1127.939095
 20
271.974487
 11
1090.096510
 21
316.934479
  0
LINE
  8
CutLine
  6
CONTINUOUS
 62
8
 10
1090.096510
 20
316.934479
 11
1090.702081
 21
323.979569
  0
LINE
  8
CutLine
  6
CONTINUOUS
 62
8
 10
1101.154971
 20
115.366844
 11
1153.603027
 21
3.143319
  0
LINE
  8
MountainLine
  6
CONTINUOUS
 62
5
 10
1153.603027
 20
3.143319
 11
1182.369543
 21
53.550461
  0
LINE
  8
CutLine
  6
CONTINUOUS
 62
8
 10
1182.369543
 20
53.550461
 11
1137.779934
 21
134.049088
  0
LINE
  8
MountainLine
  6
CONTINUOUS
 62
5
 10
1137.779934
 20
134.049088
 11
1101.154971
 21
115.366844
  0
LINE
  8
MountainLine
  6
CONTINUOUS
 62
5
 10
1098.665943
 20
195.484202
 11
1061.005950
 21
186.526039
  0
LINE
  8
ValleyLine
  6
CONTINUOUS
 62
1
 10
1061.005950
 20
186.526039
 11
1101.154971
 21
115.366844
  0
LINE
  8
ValleyLine
  6
CONTINUOUS
 62
1
 10
1137.779934
 20
134.049088
 11
1098.665943
 21
195.484202
  0
LINE
  8
ValleyLine
  6
CONTINUOUS
 62
1
 10
1080.483491
 20
258.945033
 11
1063.262770
 21
317.048439
  0
LINE
  8
ValleyLine
  6
CONTINUOUS
 62
1
 10
1063.262770
 20
317.048439
 11
1063.284458
 21
259.146194
  0
LINE
  8
CutLine
  6
CONTINUOUS
 62
8
 10
1063.284458
 20
259.146194
 11
1061.005950
 21
186.526039
  0
LINE
  8
CutLine
  6
CONTINUOUS
 62
8
 10
1098.665943
 20
195.484202
 11
1080.483491
 21
258.945033
  0
LINE
  8
ValleyLine
  6
CONTINUOUS
 62
1
 10
1020.752523
 20
298.813097
 11
1022.499332
 21
383.327105
  0
LINE
  8
ValleyLine
  6
CONTINUOUS
 62
1
 10
1022.499332
 20
383.327105
 11
986.865937
 21
337.245400
  0
LINE
  8
CutLine
  6
CONTINUOUS
 62
8
 10
986.865937
 20
337.245400
 11
985.847695
 21
294.955080
  0
LINE
  8
MountainLine
  6
CONTINUOUS
 62
5
 10
985.847695
 20
294.955080
 11
992.114183
 21
294.953360
  0
LINE
  8
ValleyLine
  6
CONTINUOUS
 62
1
 10
986.071742
 20
293.292702
 11
1012.511396
 21
222.628839
  0
LINE
  8
ValleyLine
  6
CONTINUOUS
 62
1
 10
1012.511396
 20
222.628839
 11
1020.752523
 21
298.813097
  0
LINE
  8
CutLine
  6
CONTINUOUS
 62
8
 10
992.114183
 20
294.953360
 11
986.071742
 21
293.292702
  0
LINE
  8
ValleyLine
  6
CONTINUOUS
 62
1
 10
957.751850
 20
483.521987
 11
986.865937
 21
337.245400
  0
LINE
  8
ValleyLine
  6
CONTINUOUS
 62
1
 10
1022.499332
 20
383.327105
 11
999.712126
 21
482.295576
  0
LINE
  8
ValleyLine
  6
CONTINUOUS
 62
1
 10
999.712126
 20
482.295576
 11
957.751850
 21
483.521987
  0
LINE
  8
ValleyLine
  6
CONTINUOUS
 62
1
 10
905.425162
 20
487.295850
 11
957.751850
 21
483.521987
  0
LINE
  8
ValleyLine
  6
CONTINUOUS
 62
1
 10
957.751850
 20
483.521987
 11
923.543488
 21
538.503964
  0
LINE
  8
MountainLine
  6
CONTINUOUS
 62
5
 10
923.543488
 20
538.503964
 11
905.425162
 21
487.295850
  0
LINE
  8
MountainLine
  6
CONTINUOUS
 62
5
 10
957.751850
 20
483.521987
 11
957.751850
 21
375.015685
  0
LINE
  8
CutLine
  6
CONTINUOUS
 62
8
 10
957.751850
 20
375.015685
 11
978.047065
 21
295.872275
  0
LINE
  8
ValleyLine
  6
CONTINUOUS
 62
1
 10
978.047065
 20
295.872275
 11
986.865937
 21
337.245400
  0
LINE
  8
ValleyLine
  6
CONTINUOUS
 62
1
 10
905.425162
 20
487.295850
 11
957.751850
 21
375.015685
  0
LINE
  8
CutLine
  6
CONTINUOUS
 62
8
 10
971.027152
 20
555.976222
 11
948.717385
 21
595.377277
  0
LINE
  8
CutLine
  6
CONTINUOUS
 62
8
 10
948.717385
 20
595.377277
 11
923.543488
 21
538.503964
  0
LINE
  8
CutLine
  6
CONTINUOUS
 62
8
 10
957.751850
 20
483.521987
 11
999.698046
 21
485.160749
  0
LINE
  8
ValleyLine
  6
CONTINUOUS
 62
1
 10
999.698046
 20
485.160749
 11
971.027152
 21
555.976222
  0
LINE
  8
CutLine
  6
CONTINUOUS
 62
8
 10
1043.197988
 20
228.739594
 11
1041.875350
 21
297.493038
  0
LINE
  8
ValleyLine
  6
CONTINUOUS
 62
1
 10
1041.875350
 20
297.493038
 11
1020.752523
 21
298.813097
  0
LINE
  8
ValleyLine
  6
CONTINUOUS
 62
1
 10
1012.511396
 20
222.628839
 11
1043.197988
 21
228.739594
  0
LINE
  8
CutLine
  6
CONTINUOUS
 62
8
 10
1012.511396
 20
222.628839
 11
1043.118665
 21
164.174501
  0
LINE
  8
ValleyLine
  6
CONTINUOUS
 62
1
 10
1043.118665
 20
164.174501
 11
1043.197988
 21
228.739594
  0
LINE
  8
ValleyLine
  6
CONTINUOUS
 62
1
 10
986.071742
 20
293.292702
 11
985.747403
 21
220.637534
  0
LINE
  8
CutLine
  6
CONTINUOUS
 62
8
 10
985.747403
 20
220.637534
 11
984.809655
 21
162.742880
  0
LINE
  8
ValleyLine
  6
CONTINUOUS
 62
1
 10
984.809655
 20
162.742880
 11
1012.511396
 21
222.628839
  0
LINE
  8
ValleyLine
  6
CONTINUOUS
 62
1
 10
1089.319740
 20
407.262085
 11
1083.040479
 21
499.070762
  0
LINE
  8
CutLine
  6
CONTINUOUS
 62
8
 10
1083.040479
 20
499.070762
 11
1039.649023
 21
480.616105
  0
LINE
  8
ValleyLine
  6
CONTINUOUS
 62
1
 10
1039.649023
 20
480.616105
 11
1058.720519
 21
390.193810
  0
LINE
  8
ValleyLine
  6
CONTINUOUS
 62
1
 10
1058.720519
 20
390.193810
 11
1089.319740
 21
407.262085
  0
LINE
  8
CutLine
  6
CONTINUOUS
 62
8
 10
1111.970248
 20
338.044082
 11
1089.319740
 21
407.262085
  0
LINE
  8
ValleyLine
  6
CONTINUOUS
 62
1
 10
1058.720519
 20
390.193810
 11
1090.702081
 21
323.979569
  0
LINE
  8
MountainLine
  6
CONTINUOUS
 62
5
 10
1090.702081
 20
323.979569
 11
1111.970248
 21
338.044082
  0
LINE
  8
ValleyLine
  6
CONTINUOUS
 62
1
 10
1039.649023
 20
480.616105
 11
1000.553046
 21
558.690237
  0
LINE
  8
CutLine
  6
CONTINUOUS
 62
8
 10
1000.553046
 20
558.690237
 11
999.712126
 21
482.295576
  0
LINE
  8
ValleyLine
  6
CONTINUOUS
 62
1
 10
1022.499332
 20
383.327105
 11
1058.720519
 21
390.193810
  0
LINE
  8
CutLine
  6
CONTINUOUS
 62
8
 10
1068.563032
 20
312.448304
 11
1087.233998
 21
322.413816
  0
LINE
  8
CutLine
  6
CONTINUOUS
 62
8
 10
1087.233998
 20
322.413816
 11
1058.720519
 21
390.193810
  0
LINE
  8
CutLine
  6
CONTINUOUS
 62
8
 10
1022.499332
 20
383.327105
 11
1068.563032
 21
312.448304
  0
LINE
  8
CutLine
  6
CONTINUOUS
 62
8
 10
1134.984185
 20
271.368917
 11
1190.861695
 21
239.021408
  0
LINE
  8
CutLine
  6
CONTINUOUS
 62
8
 10
1190.861695
 20
239.021408
 11
1152.519157
 21
285.951236
  0
LINE
  8
ValleyLine
  6
CONTINUOUS
 62
1
 10
1152.519157
 20
285.951236
 11
1111.970248
 21
338.044082
  0
LINE
  8
ValleyLine
  6
CONTINUOUS
 62
1
 10
1090.702081
 20
323.979569
 11
1134.984185
 21
271.368917
 0
TEXT
100
AcDbText
 8
Edge ID
100
AcDbText
10
1062.145204
20
222.836117
30
0.0
40
3.360000
72
1
11
1062.145204
21
222.836117
31
0.0
1
249
50
268.202895
 0
TEXT
100
AcDbText
 8
Edge ID
100
AcDbText
10
1089.574717
20
227.214618
30
0.0
40
3.360000
72
1
11
1089.574717
21
227.214618
31
0.0
1
254
50
105.987778
 0
TEXT
100
AcDbText
 8
Edge ID
100
AcDbText
10
1081.080461
20
150.946441
30
0.0
40
3.360000
72
1
11
1081.080461
21
150.946441
31
0.0
1
188
50
-60.567696
 0
TEXT
100
AcDbText
 8
Edge ID
100
AcDbText
10
1118.222938
20
164.766645
30
0.0
40
3.360000
72
1
11
1118.222938
21
164.766645
31
0.0
1
189
50
122.483748
 0
TEXT
100
AcDbText
 8
Edge ID
100
AcDbText
10
1160.074738
20
93.799775
30
0.0
40
3.360000
72
1
11
1160.074738
21
93.799775
31
0.0
1
251
50
118.982842
 0
TEXT
100
AcDbText
 8
Edge ID
100
AcDbText
10
1127.378999
20
59.255081
30
0.0
40
3.360000
72
1
11
1127.378999
21
59.255081
31
0.0
1
245
50
-64.950800
 0
TEXT
100
AcDbText
 8
Edge ID
100
AcDbText
10
1167.986285
20
28.346890
30
0.0
40
3.360000
72
1
11
1167.986285
21
28.346890
31
0.0
1
187
50
60.287317
 0
TEXT
100
AcDbText
 8
Edge ID
100
AcDbText
10
1071.873131
20
287.996736
30
0.0
40
3.360000
72
1
11
1071.873131
21
287.996736
31
0.0
1
190
50
106.508801
 0
TEXT
100
AcDbText
 8
Edge ID
100
AcDbText
10
1063.273614
20
288.097317
30
0.0
40
3.360000
72
1
11
1063.273614
21
288.097317
31
0.0
1
191
50
-89.978539
 0
TEXT
100
AcDbText
 8
Edge ID
100
AcDbText
10
931.588506
20
431.155767
30
0.0
40
3.360000
72
1
11
931.588506
21
431.155767
31
0.0
1
245
50
-65.012749
 0
TEXT
100
AcDbText
 8
Edge ID
100
AcDbText
10
1077.898515
20
317.431060
30
0.0
40
3.360000
72
1
11
1077.898515
21
317.431060
31
0.0
1
247
50
28.090794
 0
TEXT
100
AcDbText
 8
Edge ID
100
AcDbText
10
1072.977259
20
356.303813
30
0.0
40
3.360000
72
1
11
1072.977259
21
356.303813
31
0.0
1
252
50
112.815366
 0
TEXT
100
AcDbText
 8
Edge ID
100
AcDbText
10
1045.531182
20
347.887705
30
0.0
40
3.360000
72
1
11
1045.531182
21
347.887705
31
0.0
1
240
50
-56.980406
 0
TEXT
100
AcDbText
 8
Edge ID
100
AcDbText
10
978.724948
20
484.341368
30
0.0
40
3.360000
72
1
11
978.724948
21
484.341368
31
0.0
1
242
50
2.237305
 0
TEXT
100
AcDbText
 8
Edge ID
100
AcDbText
10
985.362599
20
520.568485
30
0.0
40
3.360000
72
1
11
985.362599
21
520.568485
31
0.0
1
246
50
112.041432
 0
TEXT
100
AcDbText
 8
Edge ID
100
AcDbText
10
1132.244702
20
311.997659
30
0.0
40
3.360000
72
1
11
1132.244702
21
311.997659
31
0.0
1
254
50
127.897079
 0
TEXT
100
AcDbText
 8
Edge ID
100
AcDbText
10
1112.843133
20
297.674243
30
0.0
40
3.360000
72
1
11
1112.843133
21
297.674243
31
0.0
1
255
50
-49.912860
 0
TEXT
100
AcDbText
 8
Edge ID
100
AcDbText
10
985.278529
20
191.690207
30
0.0
40
3.360000
72
1
11
985.278529
21
191.690207
31
0.0
1
191
50
269.072034
 0
TEXT
100
AcDbText
 8
Edge ID
100
AcDbText
10
998.660526
20
192.685859
30
0.0
40
3.360000
72
1
11
998.660526
21
192.685859
31
0.0
1
250
50
65.175924
 0
TEXT
100
AcDbText
 8
Edge ID
100
AcDbText
10
985.909572
20
256.965118
30
0.0
40
3.360000
72
1
11
985.909572
21
256.965118
31
0.0
1
249
50
269.744228
 0
TEXT
100
AcDbText
 8
Edge ID
100
AcDbText
10
1027.815030
20
193.401670
30
0.0
40
3.360000
72
1
11
1027.815030
21
193.401670
31
0.0
1
250
50
-62.363001
 0
TEXT
100
AcDbText
 8
Edge ID
100
AcDbText
10
1043.158326
20
196.457047
30
0.0
40
3.360000
72
1
11
1043.158326
21
196.457047
31
0.0
1
248
50
89.929608
 0
TEXT
100
AcDbText
 8
Edge ID
100
AcDbText
10
1020.101034
20
519.653171
30
0.0
40
3.360000
72
1
11
1020.101034
21
519.653171
31
0.0
1
253
50
116.599627
 0
TEXT
100
AcDbText
 8
Edge ID
100
AcDbText
10
1000.132586
20
520.492907
30
0.0
40
3.360000
72
1
11
1000.132586
21
520.492907
31
0.0
1
246
50
269.369338
 0
TEXT
100
AcDbText
 8
Edge ID
100
AcDbText
10
1162.922940
20
255.195163
30
0.0
40
3.360000
72
1
11
1162.922940
21
255.195163
31
0.0
1
248
50
-30.066564
 0
TEXT
100
AcDbText
 8
Edge ID
100
AcDbText
10
1171.690426
20
262.486322
30
0.0
40
3.360000
72
1
11
1171.690426
21
262.486322
31
0.0
1
190
50
129.249458
 0
TEXT
100
AcDbText
 8
Edge ID
100
AcDbText
10
967.899457
20
335.443980
30
0.0
40
3.360000
72
1
11
967.899457
21
335.443980
31
0.0
1
188
50
-75.617224
 0
TEXT
100
AcDbText
 8
Edge ID
100
AcDbText
10
982.456501
20
316.558838
30
0.0
40
3.360000
72
1
11
982.456501
21
316.558838
31
0.0
1
244
50
77.967220
 0
TEXT
100
AcDbText
 8
Edge ID
100
AcDbText
10
1100.644994
20
372.653083
30
0.0
40
3.360000
72
1
11
1100.644994
21
372.653083
31
0.0
1
189
50
108.119874
 0
TEXT
100
AcDbText
 8
Edge ID
100
AcDbText
10
1074.711300
20
357.086689
30
0.0
40
3.360000
72
1
11
1074.711300
21
357.086689
31
0.0
1
252
50
-64.219399
 0
TEXT
100
AcDbText
 8
Edge ID
100
AcDbText
10
1086.180110
20
453.166424
30
0.0
40
3.360000
72
1
11
1086.180110
21
453.166424
31
0.0
1
251
50
93.912655
 0
TEXT
100
AcDbText
 8
Edge ID
100
AcDbText
10
1061.344751
20
489.843434
30
0.0
40
3.360000
72
1
11
1061.344751
21
489.843434
31
0.0
1
186
50
203.040352
 0
TEXT
100
AcDbText
 8
Edge ID
100
AcDbText
10
914.484325
20
512.899907
30
0.0
40
3.360000
72
1
11
914.484325
21
512.899907
31
0.0
1
243
50
250.515330
 0
TEXT
100
AcDbText
 8
Edge ID
100
AcDbText
10
959.872269
20
575.676749
30
0.0
40
3.360000
72
1
11
959.872269
21
575.676749
31
0.0
1
185
50
119.519518
 0
TEXT
100
AcDbText
 8
Edge ID
100
AcDbText
10
936.130437
20
566.940620
30
0.0
40
3.360000
72
1
11
936.130437
21
566.940620
31
0.0
1
264
50
246.124329
 0
TEXT
100
AcDbText
 8
Edge ID
100
AcDbText
10
1042.536669
20
263.116316
30
0.0
40
3.360000
72
1
11
1042.536669
21
263.116316
31
0.0
1
255
50
91.102086
 0
TEXT
100
AcDbText
 8
Edge ID
100
AcDbText
10
1031.313937
20
298.153067
30
0.0
40
3.360000
72
1
11
1031.313937
21
298.153067
31
0.0
1
247
50
176.423983
 0
TEXT
100
AcDbText
 8
Edge ID
100
AcDbText
10
978.731988
20
482.908782
30
0.0
40
3.360000
72
1
11
978.731988
21
482.908782
31
0.0
1
242
50
178.325841
 0
TEXT
100
AcDbText
 8
Edge ID
100
AcDbText
10
989.092963
20
294.123031
30
0.0
40
3.360000
72
1
11
989.092963
21
294.123031
31
0.0
1
241
50
195.367321
 0
TEXT
100
AcDbText
 8
Edge ID
100
AcDbText
10
1021.625927
20
341.070101
30
0.0
40
3.360000
72
1
11
1021.625927
21
341.070101
31
0.0
1
240
50
88.815930
 0
TEXT
100
AcDbText
 8
Edge ID
100
AcDbText
10
986.356816
20
316.100240
30
0.0
40
3.360000
72
1
11
986.356816
21
316.100240
31
0.0
1
244
50
268.620732
 0
TEXT
100
AcDbText
 8
Edge ID
100
AcDbText
10
988.980939
20
294.954220
30
0.0
40
3.360000
72
1
11
988.980939
21
294.954220
31
0.0
1
241
50
-0.015731
  0
ENDSEC
  0
EOF
