  0
SECTION
  2
HEADER
  9
$ACADVER
  1
AC1009
  0
ENDSEC
  0
SECTION
  2
BLOCKS
  0
ENDSEC
  0
SECTION
  2
ENTITIES
  0
LINE
  8
CutLine
  6
CONTINUOUS
 62
8
 10
1498.142860
 20
104.090194
 11
1494.656368
 21
110.241972
  0
LINE
  8
CutLine
  6
CONTINUOUS
 62
8
 10
1494.656368
 20
110.241972
 11
1500.000000
 21
129.565733
  0
LINE
  8
CutLine
  6
CONTINUOUS
 62
8
 10
1436.218624
 20
134.449446
 11
1441.942850
 21
124.088960
  0
LINE
  8
CutLine
  6
CONTINUOUS
 62
8
 10
1441.942850
 20
124.088960
 11
1449.361773
 21
16.197894
  0
LINE
  8
CutLine
  6
CONTINUOUS
 62
8
 10
1449.361773
 20
16.197894
 11
1444.716557
 21
10.866668
  0
LINE
  8
CutLine
  6
CONTINUOUS
 62
8
 10
1444.716557
 20
10.866668
 11
1437.846537
 21
9.192506
  0
LINE
  8
CutLine
  6
CONTINUOUS
 62
8
 10
1437.846537
 20
9.192506
 11
1396.802118
 21
34.152295
  0
LINE
  8
CutLine
  6
CONTINUOUS
 62
8
 10
1396.802118
 20
34.152295
 11
1395.127956
 21
41.022315
  0
LINE
  8
CutLine
  6
CONTINUOUS
 62
8
 10
1395.127956
 20
41.022315
 11
1390.127956
 21
46.022315
  0
LINE
  8
CutLine
  6
CONTINUOUS
 62
8
 10
1390.127956
 20
46.022315
 11
1390.127956
 21
128.045476
  0
LINE
  8
CutLine
  6
CONTINUOUS
 62
8
 10
1390.127956
 20
128.045476
 11
1395.127956
 21
133.045476
  0
LINE
  8
CutLine
  6
CONTINUOUS
 62
8
 10
1371.641039
 20
329.233995
 11
1381.480295
 21
321.781142
  0
LINE
  8
CutLine
  6
CONTINUOUS
 62
8
 10
1381.480295
 20
321.781142
 11
1401.632097
 21
285.368469
  0
LINE
  8
CutLine
  6
CONTINUOUS
 62
8
 10
1401.632097
 20
285.368469
 11
1399.678466
 21
278.572638
  0
LINE
  8
CutLine
  6
CONTINUOUS
 62
8
 10
1399.575257
 20
205.739348
 11
1393.578975
 21
209.486960
  0
LINE
  8
CutLine
  6
CONTINUOUS
 62
8
 10
1393.578975
 20
209.486960
 11
1380.983217
 21
264.066634
  0
LINE
  8
CutLine
  6
CONTINUOUS
 62
8
 10
1380.983217
 20
264.066634
 11
1384.730828
 21
270.062917
  0
LINE
  8
CutLine
  6
CONTINUOUS
 62
8
 10
1268.668501
 20
423.857450
 11
1266.156135
 21
428.926014
  0
LINE
  8
CutLine
  6
CONTINUOUS
 62
8
 10
1266.156135
 20
428.926014
 11
1266.165754
 21
440.165037
  0
LINE
  8
CutLine
  6
CONTINUOUS
 62
8
 10
1343.139124
 20
369.393138
 11
1361.717234
 21
282.147550
  0
LINE
  8
CutLine
  6
CONTINUOUS
 62
8
 10
1361.717234
 20
282.147550
 11
1357.868232
 21
276.215840
  0
LINE
  8
CutLine
  6
CONTINUOUS
 62
8
 10
1274.518556
 20
355.729811
 11
1268.683811
 21
359.724275
  0
LINE
  8
CutLine
  6
CONTINUOUS
 62
8
 10
1268.683811
 20
359.724275
 11
1255.488223
 21
430.203829
  0
LINE
  8
CutLine
  6
CONTINUOUS
 62
8
 10
1255.488223
 20
430.203829
 11
1259.482687
 21
436.038575
  0
LINE
  8
CutLine
  6
CONTINUOUS
 62
8
 10
1359.414093
 20
152.177359
 11
1352.359090
 21
151.700983
  0
LINE
  8
CutLine
  6
CONTINUOUS
 62
8
 10
1352.359090
 20
151.700983
 11
1313.048572
 21
186.038557
  0
LINE
  8
CutLine
  6
CONTINUOUS
 62
8
 10
1313.048572
 20
186.038557
 11
1312.572197
 21
193.093560
  0
LINE
  8
CutLine
  6
CONTINUOUS
 62
8
 10
1362.992047
 20
197.314561
 11
1367.581309
 21
191.935094
  0
LINE
  8
CutLine
  6
CONTINUOUS
 62
8
 10
1367.581309
 20
191.935094
 11
1364.793561
 21
156.766621
  0
LINE
  8
CutLine
  6
CONTINUOUS
 62
8
 10
1364.793561
 20
156.766621
 11
1359.414093
 21
152.177359
  0
LINE
  8
CutLine
  6
CONTINUOUS
 62
8
 10
1355.549330
 20
275.051510
 11
1359.065766
 21
273.612895
  0
LINE
  8
CutLine
  6
CONTINUOUS
 62
8
 10
1256.595467
 20
580.999233
 11
1267.194006
 21
571.615398
  0
LINE
  8
CutLine
  6
CONTINUOUS
 62
8
 10
1267.194006
 20
571.615398
 11
1288.794082
 21
530.637985
  0
LINE
  8
CutLine
  6
CONTINUOUS
 62
8
 10
1288.794082
 20
530.637985
 11
1286.702483
 21
523.883341
  0
LINE
  8
CutLine
  6
CONTINUOUS
 62
8
 10
1266.165754
 20
440.165037
 11
1259.404378
 21
442.234771
  0
LINE
  8
CutLine
  6
CONTINUOUS
 62
8
 10
1259.404378
 20
442.234771
 11
1230.008474
 21
497.566873
  0
LINE
  8
CutLine
  6
CONTINUOUS
 62
8
 10
1230.008474
 20
497.566873
 11
1232.078207
 21
504.328249
  0
LINE
  8
CutLine
  6
CONTINUOUS
 62
8
 10
1204.314521
 20
555.140139
 11
1214.913078
 21
553.320069
  0
LINE
  8
CutLine
  6
CONTINUOUS
 62
8
 10
1214.913078
 20
553.320069
 11
1255.767113
 21
522.026419
  0
LINE
  8
CutLine
  6
CONTINUOUS
 62
8
 10
1255.767113
 20
522.026419
 11
1256.695990
 21
515.016627
  0
LINE
  8
CutLine
  6
CONTINUOUS
 62
8
 10
1467.134341
 20
368.262759
 11
1466.046539
 21
361.275865
  0
LINE
  8
CutLine
  6
CONTINUOUS
 62
8
 10
1466.046539
 20
361.275865
 11
1436.046728
 21
339.359048
  0
LINE
  8
CutLine
  6
CONTINUOUS
 62
8
 10
1436.046728
 20
339.359048
 11
1429.059834
 21
340.446850
  0
LINE
  8
CutLine
  6
CONTINUOUS
 62
8
 10
1343.649178
 20
475.584414
 11
1350.703627
 21
475.099908
  0
LINE
  8
CutLine
  6
CONTINUOUS
 62
8
 10
1350.703627
 20
475.099908
 11
1391.982437
 21
427.732813
  0
LINE
  8
CutLine
  6
CONTINUOUS
 62
8
 10
1391.982437
 20
427.732813
 11
1391.497930
 21
420.678364
  0
LINE
  8
CutLine
  6
CONTINUOUS
 62
8
 10
1476.091902
 20
266.880213
 11
1469.256109
 21
265.071365
  0
LINE
  8
CutLine
  6
CONTINUOUS
 62
8
 10
1469.256109
 20
265.071365
 11
1411.856303
 21
298.449918
  0
LINE
  8
CutLine
  6
CONTINUOUS
 62
8
 10
1411.856303
 20
298.449918
 11
1410.047454
 21
305.285711
  0
LINE
  8
CutLine
  6
CONTINUOUS
 62
8
 10
1317.536134
 20
462.376095
 11
1322.597919
 21
461.608128
  0
LINE
  8
CutLine
  6
CONTINUOUS
 62
8
 10
1299.007261
 20
594.059937
 11
1309.469136
 21
579.884715
  0
LINE
  8
CutLine
  6
CONTINUOUS
 62
8
 10
1309.469136
 20
579.884715
 11
1322.670954
 21
543.497380
  0
LINE
  8
CutLine
  6
CONTINUOUS
 62
8
 10
1322.670954
 20
543.497380
 11
1319.676045
 21
537.091873
  0
LINE
  8
CutLine
  6
CONTINUOUS
 62
8
 10
1320.676357
 20
464.521187
 11
1315.104804
 21
467.226135
  0
LINE
  8
CutLine
  6
CONTINUOUS
 62
8
 10
1312.980071
 20
471.464572
 11
1295.082320
 21
523.139180
  0
LINE
  8
CutLine
  6
CONTINUOUS
 62
8
 10
1295.082320
 20
523.139180
 11
1298.170556
 21
529.500217
  0
LINE
  8
CutLine
  6
CONTINUOUS
 62
8
 10
1498.142860
 20
104.090194
 11
1500.000000
 21
93.802578
  0
LINE
  8
ValleyLine
  6
CONTINUOUS
 62
1
 10
1500.000000
 20
110.806026
 11
1498.142860
 21
104.090194
  0
LINE
  8
ValleyLine
  6
CONTINUOUS
 62
1
 10
1444.716557
 20
10.866668
 11
1436.218624
 21
134.449446
  0
LINE
  8
MountainLine
  6
CONTINUOUS
 62
5
 10
1395.127956
 20
41.022315
 11
1444.716557
 21
10.866668
  0
LINE
  8
MountainLine
  6
CONTINUOUS
 62
5
 10
1436.218624
 20
134.449446
 11
1395.127956
 21
133.045476
  0
LINE
  8
ValleyLine
  6
CONTINUOUS
 62
1
 10
1395.127956
 20
133.045476
 11
1395.127956
 21
41.022315
  0
LINE
  8
CutLine
  6
CONTINUOUS
 62
8
 10
1399.575257
 20
205.739348
 11
1395.127956
 21
133.045476
  0
LINE
  8
CutLine
  6
CONTINUOUS
 62
8
 10
1436.218624
 20
134.449446
 11
1436.859553
 21
216.151124
  0
LINE
  8
MountainLine
  6
CONTINUOUS
 62
5
 10
1436.859553
 20
216.151124
 11
1399.575257
 21
205.739348
  0
LINE
  8
CutLine
  6
CONTINUOUS
 62
8
 10
1371.641039
 20
329.233995
 11
1384.730828
 21
270.062917
  0
LINE
  8
ValleyLine
  6
CONTINUOUS
 62
1
 10
1399.678466
 20
278.572638
 11
1371.641039
 21
329.233995
  0
LINE
  8
CutLine
  6
CONTINUOUS
 62
8
 10
1436.859553
 20
216.151124
 11
1399.678466
 21
278.572638
  0
LINE
  8
ValleyLine
  6
CONTINUOUS
 62
1
 10
1384.730828
 20
270.062917
 11
1399.575257
 21
205.739348
  0
LINE
  8
ValleyLine
  6
CONTINUOUS
 62
1
 10
1266.165754
 20
440.165037
 11
1284.952822
 21
402.263138
  0
LINE
  8
ValleyLine
  6
CONTINUOUS
 62
1
 10
1284.952822
 20
402.263138
 11
1336.716672
 21
375.546734
  0
LINE
  8
ValleyLine
  6
CONTINUOUS
 62
1
 10
1336.716672
 20
375.546734
 11
1299.433243
 21
451.412503
  0
LINE
  8
ValleyLine
  6
CONTINUOUS
 62
1
 10
1299.433243
 20
451.412503
 11
1256.695990
 21
515.016627
  0
LINE
  8
ValleyLine
  6
CONTINUOUS
 62
1
 10
1256.695990
 20
515.016627
 11
1266.165754
 21
440.165037
  0
LINE
  8
CutLine
  6
CONTINUOUS
 62
8
 10
1320.353418
 20
257.379503
 11
1357.868232
 21
276.215840
  0
LINE
  8
ValleyLine
  6
CONTINUOUS
 62
1
 10
1357.868232
 20
276.215840
 11
1336.716672
 21
375.546734
  0
LINE
  8
ValleyLine
  6
CONTINUOUS
 62
1
 10
1284.952822
 20
402.263138
 11
1320.353418
 21
257.379503
  0
LINE
  8
ValleyLine
  6
CONTINUOUS
 62
1
 10
1320.353418
 20
257.379503
 11
1274.518556
 21
231.855205
  0
LINE
  8
CutLine
  6
CONTINUOUS
 62
8
 10
1274.518556
 20
231.855205
 11
1312.572197
 21
193.093560
  0
LINE
  8
ValleyLine
  6
CONTINUOUS
 62
1
 10
1312.572197
 20
193.093560
 11
1320.353418
 21
257.379503
  0
LINE
  8
CutLine
  6
CONTINUOUS
 62
8
 10
1284.952822
 20
402.263138
 11
1259.482687
 21
436.038575
  0
LINE
  8
ValleyLine
  6
CONTINUOUS
 62
1
 10
1259.482687
 20
436.038575
 11
1274.518556
 21
355.729811
  0
LINE
  8
MountainLine
  6
CONTINUOUS
 62
5
 10
1274.518556
 20
355.729811
 11
1320.353418
 21
257.379503
  0
LINE
  8
CutLine
  6
CONTINUOUS
 62
8
 10
1274.518556
 20
355.729811
 11
1274.518556
 21
231.855205
  0
LINE
  8
MountainLine
  6
CONTINUOUS
 62
5
 10
1312.572197
 20
193.093560
 11
1359.414093
 21
152.177359
  0
LINE
  8
ValleyLine
  6
CONTINUOUS
 62
1
 10
1359.414093
 20
152.177359
 11
1362.992047
 21
197.314561
  0
LINE
  8
CutLine
  6
CONTINUOUS
 62
8
 10
1362.992047
 20
197.314561
 11
1359.065766
 21
273.612895
  0
LINE
  8
ValleyLine
  6
CONTINUOUS
 62
1
 10
1359.065766
 20
273.612895
 11
1320.353418
 21
257.379503
  0
LINE
  8
ValleyLine
  6
CONTINUOUS
 62
1
 10
1299.433243
 20
451.412503
 11
1317.536134
 21
462.376095
  0
LINE
  8
CutLine
  6
CONTINUOUS
 62
8
 10
1317.536134
 20
462.376095
 11
1286.702483
 21
523.883341
  0
LINE
  8
ValleyLine
  6
CONTINUOUS
 62
1
 10
1286.702483
 20
523.883341
 11
1256.695990
 21
515.016627
  0
LINE
  8
CutLine
  6
CONTINUOUS
 62
8
 10
1256.595467
 20
580.999233
 11
1256.695990
 21
515.016627
  0
LINE
  8
ValleyLine
  6
CONTINUOUS
 62
1
 10
1286.702483
 20
523.883341
 11
1256.595467
 21
580.999233
  0
LINE
  8
ValleyLine
  6
CONTINUOUS
 62
1
 10
1232.078207
 20
504.328249
 11
1266.165754
 21
440.165037
  0
LINE
  8
CutLine
  6
CONTINUOUS
 62
8
 10
1204.314521
 20
555.140139
 11
1232.078207
 21
504.328249
  0
LINE
  8
ValleyLine
  6
CONTINUOUS
 62
1
 10
1256.695990
 20
515.016627
 11
1204.314521
 21
555.140139
  0
LINE
  8
ValleyLine
  6
CONTINUOUS
 62
1
 10
1429.059834
 20
340.446850
 11
1467.134341
 21
368.262759
  0
LINE
  8
CutLine
  6
CONTINUOUS
 62
8
 10
1467.134341
 20
368.262759
 11
1391.497930
 21
420.678364
  0
LINE
  8
ValleyLine
  6
CONTINUOUS
 62
1
 10
1391.497930
 20
420.678364
 11
1361.166073
 21
403.139358
  0
LINE
  8
ValleyLine
  6
CONTINUOUS
 62
1
 10
1361.166073
 20
403.139358
 11
1429.059834
 21
340.446850
  0
LINE
  8
ValleyLine
  6
CONTINUOUS
 62
1
 10
1391.497930
 20
420.678364
 11
1343.649178
 21
475.584414
  0
LINE
  8
MountainLine
  6
CONTINUOUS
 62
5
 10
1343.649178
 20
475.584414
 11
1320.676357
 21
464.521187
  0
LINE
  8
CutLine
  6
CONTINUOUS
 62
8
 10
1320.676357
 20
464.521187
 11
1361.166073
 21
403.139358
  0
LINE
  8
CutLine
  6
CONTINUOUS
 62
8
 10
1476.091902
 20
266.880213
 11
1429.059834
 21
340.446850
  0
LINE
  8
ValleyLine
  6
CONTINUOUS
 62
1
 10
1410.047454
 20
305.285711
 11
1476.091902
 21
266.880213
  0
LINE
  8
ValleyLine
  6
CONTINUOUS
 62
1
 10
1361.166073
 20
403.139358
 11
1336.716672
 21
375.546734
  0
LINE
  8
CutLine
  6
CONTINUOUS
 62
8
 10
1336.716672
 20
375.546734
 11
1410.047454
 21
305.285711
  0
LINE
  8
ValleyLine
  6
CONTINUOUS
 62
1
 10
1361.166073
 20
403.139358
 11
1317.536134
 21
462.376095
  0
LINE
  8
ValleyLine
  6
CONTINUOUS
 62
1
 10
1319.676045
 20
537.091873
 11
1299.007261
 21
594.059937
  0
LINE
  8
CutLine
  6
CONTINUOUS
 62
8
 10
1299.007261
 20
594.059937
 11
1298.170556
 21
529.500217
  0
LINE
  8
CutLine
  6
CONTINUOUS
 62
8
 10
1343.649178
 20
475.584414
 11
1319.676045
 21
537.091873
  0
LINE
  8
ValleyLine
  6
CONTINUOUS
 62
1
 10
1298.170556
 20
529.500217
 11
1320.676357
 21
464.521187
 0
TEXT
100
AcDbText
 8
Edge ID
100
AcDbText
10
1418.269009
20
247.361881
30
0.0
40
3.360000
72
1
11
1418.269009
21
247.361881
31
0.0
1
434
50
120.779948
 0
TEXT
100
AcDbText
 8
Edge ID
100
AcDbText
10
1392.153043
20
237.901133
30
0.0
40
3.360000
72
1
11
1392.153043
21
237.901133
31
0.0
1
405
50
-77.004936
 0
TEXT
100
AcDbText
 8
Edge ID
100
AcDbText
10
1397.351607
20
169.392412
30
0.0
40
3.360000
72
1
11
1397.351607
21
169.392412
31
0.0
1
437
50
266.499094
 0
TEXT
100
AcDbText
 8
Edge ID
100
AcDbText
10
1436.539088
20
175.300285
30
0.0
40
3.360000
72
1
11
1436.539088
21
175.300285
31
0.0
1
429
50
89.550539
 0
TEXT
100
AcDbText
 8
Edge ID
100
AcDbText
10
1395.127956
20
87.033896
30
0.0
40
3.360000
72
1
11
1395.127956
21
87.033896
31
0.0
1
403
50
-90.000000
 0
TEXT
100
AcDbText
 8
Edge ID
100
AcDbText
10
1440.467591
20
72.658057
30
0.0
40
3.360000
72
1
11
1440.467591
21
72.658057
31
0.0
1
401
50
93.933643
 0
TEXT
100
AcDbText
 8
Edge ID
100
AcDbText
10
1419.922256
20
25.944492
30
0.0
40
3.360000
72
1
11
1419.922256
21
25.944492
31
0.0
1
402
50
-31.304474
 0
TEXT
100
AcDbText
 8
Edge ID
100
AcDbText
10
1378.185934
20
299.648456
30
0.0
40
3.360000
72
1
11
1378.185934
21
299.648456
31
0.0
1
440
50
-77.525958
 0
TEXT
100
AcDbText
 8
Edge ID
100
AcDbText
10
1385.659752
20
303.903316
30
0.0
40
3.360000
72
1
11
1385.659752
21
303.903316
31
0.0
1
404
50
118.961382
 0
TEXT
100
AcDbText
 8
Edge ID
100
AcDbText
10
1274.518556
20
293.792508
30
0.0
40
3.360000
72
1
11
1274.518556
21
293.792508
31
0.0
1
401
50
-90.000000
 0
TEXT
100
AcDbText
 8
Edge ID
100
AcDbText
10
1339.351103
20
432.757727
30
0.0
40
3.360000
72
1
11
1339.351103
21
432.757727
31
0.0
1
439
50
126.372951
 0
TEXT
100
AcDbText
 8
Edge ID
100
AcDbText
10
1361.028906
20
235.463728
30
0.0
40
3.360000
72
1
11
1361.028906
21
235.463728
31
0.0
1
438
50
92.945819
 0
TEXT
100
AcDbText
 8
Edge ID
100
AcDbText
10
1339.709592
20
265.496199
30
0.0
40
3.360000
72
1
11
1339.709592
21
265.496199
31
0.0
1
432
50
202.749946
 0
TEXT
100
AcDbText
 8
Edge ID
100
AcDbText
10
1331.662611
20
506.338143
30
0.0
40
3.360000
72
1
11
1331.662611
21
506.338143
31
0.0
1
405
50
111.293836
 0
TEXT
100
AcDbText
 8
Edge ID
100
AcDbText
10
1309.423457
20
497.010702
30
0.0
40
3.360000
72
1
11
1309.423457
21
497.010702
31
0.0
1
441
50
-70.896225
 0
TEXT
100
AcDbText
 8
Edge ID
100
AcDbText
10
1218.196364
20
529.734194
30
0.0
40
3.360000
72
1
11
1218.196364
21
529.734194
31
0.0
1
404
50
-61.347747
 0
TEXT
100
AcDbText
 8
Edge ID
100
AcDbText
10
1230.505255
20
535.078383
30
0.0
40
3.360000
72
1
11
1230.505255
21
535.078383
31
0.0
1
435
50
142.548363
 0
TEXT
100
AcDbText
 8
Edge ID
100
AcDbText
10
1373.382063
20
340.416222
30
0.0
40
3.360000
72
1
11
1373.382063
21
340.416222
31
0.0
1
428
50
-43.775296
 0
TEXT
100
AcDbText
 8
Edge ID
100
AcDbText
10
1249.121981
20
472.246643
30
0.0
40
3.360000
72
1
11
1249.121981
21
472.246643
31
0.0
1
434
50
-62.019940
 0
TEXT
100
AcDbText
 8
Edge ID
100
AcDbText
10
1256.645728
20
548.007930
30
0.0
40
3.360000
72
1
11
1256.645728
21
548.007930
31
0.0
1
435
50
-89.912711
 0
TEXT
100
AcDbText
 8
Edge ID
100
AcDbText
10
1271.648975
20
552.441287
30
0.0
40
3.360000
72
1
11
1271.648975
21
552.441287
31
0.0
1
433
50
117.794680
 0
TEXT
100
AcDbText
 8
Edge ID
100
AcDbText
10
1452.575868
20
303.663532
30
0.0
40
3.360000
72
1
11
1452.575868
21
303.663532
31
0.0
1
388
50
122.591288
 0
TEXT
100
AcDbText
 8
Edge ID
100
AcDbText
10
1443.069678
20
286.082962
30
0.0
40
3.360000
72
1
11
1443.069678
21
286.082962
31
0.0
1
438
50
-30.178423
 0
TEXT
100
AcDbText
 8
Edge ID
100
AcDbText
10
1309.341653
20
565.575905
30
0.0
40
3.360000
72
1
11
1309.341653
21
565.575905
31
0.0
1
440
50
109.941457
 0
TEXT
100
AcDbText
 8
Edge ID
100
AcDbText
10
1298.588908
20
561.780077
30
0.0
40
3.360000
72
1
11
1298.588908
21
561.780077
31
0.0
1
433
50
269.257479
 0
TEXT
100
AcDbText
 8
Edge ID
100
AcDbText
10
1272.217755
20
419.150856
30
0.0
40
3.360000
72
1
11
1272.217755
21
419.150856
31
0.0
1
427
50
127.020031
 0
TEXT
100
AcDbText
 8
Edge ID
100
AcDbText
10
1267.000622
20
395.884193
30
0.0
40
3.360000
72
1
11
1267.000622
21
395.884193
31
0.0
1
429
50
-79.395525
 0
TEXT
100
AcDbText
 8
Edge ID
100
AcDbText
10
1367.573554
20
448.131389
30
0.0
40
3.360000
72
1
11
1367.573554
21
448.131389
31
0.0
1
437
50
131.071041
 0
TEXT
100
AcDbText
 8
Edge ID
100
AcDbText
10
1340.921215
20
433.830273
30
0.0
40
3.360000
72
1
11
1340.921215
21
433.830273
31
0.0
1
439
50
-56.589686
 0
TEXT
100
AcDbText
 8
Edge ID
100
AcDbText
10
1448.097088
20
354.354805
30
0.0
40
3.360000
72
1
11
1448.097088
21
354.354805
31
0.0
1
436
50
36.150563
 0
TEXT
100
AcDbText
 8
Edge ID
100
AcDbText
10
1429.316136
20
394.470561
30
0.0
40
3.360000
72
1
11
1429.316136
21
394.470561
31
0.0
1
403
50
145.278260
 0
TEXT
100
AcDbText
 8
Edge ID
100
AcDbText
10
1293.545377
20
212.474383
30
0.0
40
3.360000
72
1
11
1293.545377
21
212.474383
31
0.0
1
448
50
-45.528079
 0
TEXT
100
AcDbText
 8
Edge ID
100
AcDbText
10
1335.993145
20
172.635459
30
0.0
40
3.360000
72
1
11
1335.993145
21
172.635459
31
0.0
1
430
50
-41.137078
 0
TEXT
100
AcDbText
 8
Edge ID
100
AcDbText
10
1361.203070
20
174.745960
30
0.0
40
3.360000
72
1
11
1361.203070
21
174.745960
31
0.0
1
431
50
85.467733
 0
TEXT
100
AcDbText
 8
Edge ID
100
AcDbText
10
1302.119308
20
493.129718
30
0.0
40
3.360000
72
1
11
1302.119308
21
493.129718
31
0.0
1
441
50
116.624659
 0
TEXT
100
AcDbText
 8
Edge ID
100
AcDbText
10
1339.110825
20
266.797671
30
0.0
40
3.360000
72
1
11
1339.110825
21
266.797671
31
0.0
1
432
50
26.661410
 0
TEXT
100
AcDbText
 8
Edge ID
100
AcDbText
10
1347.292452
20
325.881287
30
0.0
40
3.360000
72
1
11
1347.292452
21
325.881287
31
0.0
1
428
50
102.021040
 0
TEXT
100
AcDbText
 8
Edge ID
100
AcDbText
10
1275.559288
20
421.214088
30
0.0
40
3.360000
72
1
11
1275.559288
21
421.214088
31
0.0
1
427
50
-63.633481
  0
ENDSEC
  0
EOF
