  0
SECTION
  2
HEADER
  9
$ACADVER
  1
AC1009
  0
ENDSEC
  0
SECTION
  2
BLOCKS
  0
ENDSEC
  0
SECTION
  2
ENTITIES
  0
LINE
  8
CutLine
  6
CONTINUOUS
 62
8
 10
1987.675643
 20
119.179414
 11
1987.085142
 21
112.133046
  0
LINE
  8
CutLine
  6
CONTINUOUS
 62
8
 10
1987.085142
 20
112.133046
 11
1966.141683
 21
94.428383
  0
LINE
  8
CutLine
  6
CONTINUOUS
 62
8
 10
1966.141683
 20
94.428383
 11
1959.095314
 21
95.018883
  0
LINE
  8
CutLine
  6
CONTINUOUS
 62
8
 10
1912.360081
 20
109.775209
 11
1909.885476
 21
116.399130
  0
LINE
  8
CutLine
  6
CONTINUOUS
 62
8
 10
1909.885476
 20
116.399130
 11
1927.873711
 21
155.843321
  0
LINE
  8
CutLine
  6
CONTINUOUS
 62
8
 10
1927.873711
 20
155.843321
 11
1934.497632
 21
158.317926
  0
LINE
  8
CutLine
  6
CONTINUOUS
 62
8
 10
1895.978934
 20
40.915336
 11
1888.978266
 21
41.910655
  0
LINE
  8
CutLine
  6
CONTINUOUS
 62
8
 10
1888.978266
 20
41.910655
 11
1857.197321
 21
84.226266
  0
LINE
  8
CutLine
  6
CONTINUOUS
 62
8
 10
1857.197321
 20
84.226266
 11
1858.192640
 21
91.226933
  0
LINE
  8
CutLine
  6
CONTINUOUS
 62
8
 10
1959.095314
 20
95.018883
 11
1957.399954
 21
88.154063
  0
LINE
  8
CutLine
  6
CONTINUOUS
 62
8
 10
1957.399954
 20
88.154063
 11
1938.621655
 21
76.813920
  0
LINE
  8
CutLine
  6
CONTINUOUS
 62
8
 10
1938.621655
 20
76.813920
 11
1931.756835
 21
78.509280
  0
LINE
  8
CutLine
  6
CONTINUOUS
 62
8
 10
2050.233432
 20
181.744733
 11
2048.441438
 21
171.620648
  0
LINE
  8
CutLine
  6
CONTINUOUS
 62
8
 10
1976.411939
 20
547.793628
 11
1982.338946
 21
543.937387
  0
LINE
  8
CutLine
  6
CONTINUOUS
 62
8
 10
1982.338946
 20
543.937387
 11
2022.441817
 21
354.473018
  0
LINE
  8
CutLine
  6
CONTINUOUS
 62
8
 10
2022.441817
 20
354.473018
 11
2018.585576
 21
348.546012
  0
LINE
  8
CutLine
  6
CONTINUOUS
 62
8
 10
1862.973535
 20
549.696599
 11
1866.759239
 21
555.668905
  0
LINE
  8
CutLine
  6
CONTINUOUS
 62
8
 10
1866.759239
 20
555.668905
 11
1969.678473
 21
578.731334
  0
LINE
  8
CutLine
  6
CONTINUOUS
 62
8
 10
1969.678473
 20
578.731334
 11
1975.650779
 21
574.945630
  0
LINE
  8
CutLine
  6
CONTINUOUS
 62
8
 10
1862.988064
 20
285.568178
 11
1857.987789
 21
290.567903
  0
LINE
  8
CutLine
  6
CONTINUOUS
 62
8
 10
1857.987789
 20
290.567903
 11
1857.973810
 21
544.696324
  0
LINE
  8
CutLine
  6
CONTINUOUS
 62
8
 10
1857.973810
 20
544.696324
 11
1862.973535
 21
549.696599
  0
LINE
  8
CutLine
  6
CONTINUOUS
 62
8
 10
2054.085557
 20
227.922941
 11
2059.099177
 21
222.936598
  0
LINE
  8
CutLine
  6
CONTINUOUS
 62
8
 10
2059.099177
 20
222.936598
 11
2059.219050
 21
178.991470
  0
LINE
  8
CutLine
  6
CONTINUOUS
 62
8
 10
2059.219050
 20
178.991470
 11
2054.232707
 21
173.977850
  0
LINE
  8
MountainLine
  6
CONTINUOUS
 62
5
 10
1959.095314
 20
95.018883
 11
1987.675643
 21
119.179414
  0
LINE
  8
ValleyLine
  6
CONTINUOUS
 62
1
 10
1987.675643
 20
119.179414
 11
1942.457552
 21
158.757266
  0
LINE
  8
CutLine
  6
CONTINUOUS
 62
8
 10
1942.457552
 20
158.757266
 11
1938.662308
 21
158.547780
  0
LINE
  8
CutLine
  6
CONTINUOUS
 62
8
 10
1938.662308
 20
158.547780
 11
1934.497632
 21
158.317926
  0
LINE
  8
MountainLine
  6
CONTINUOUS
 62
5
 10
1934.497632
 20
158.317926
 11
1912.360081
 21
109.775209
  0
LINE
  8
ValleyLine
  6
CONTINUOUS
 62
1
 10
1912.360081
 20
109.775209
 11
1959.095314
 21
95.018883
  0
LINE
  8
CutLine
  6
CONTINUOUS
 62
8
 10
1912.360081
 20
109.775209
 11
1858.192640
 21
91.226933
  0
LINE
  8
ValleyLine
  6
CONTINUOUS
 62
1
 10
1858.192640
 20
91.226933
 11
1895.978934
 21
40.915336
  0
LINE
  8
CutLine
  6
CONTINUOUS
 62
8
 10
1895.978934
 20
40.915336
 11
1931.756835
 21
78.509280
  0
LINE
  8
MountainLine
  6
CONTINUOUS
 62
5
 10
1931.756835
 20
78.509280
 11
1912.360081
 21
109.775209
  0
LINE
  8
MountainLine
  6
CONTINUOUS
 62
5
 10
1931.756835
 20
78.509280
 11
1959.095314
 21
95.018883
  0
LINE
  8
CutLine
  6
CONTINUOUS
 62
8
 10
2022.348441
 20
234.734195
 11
1947.490129
 21
211.168746
  0
LINE
  8
CutLine
  6
CONTINUOUS
 62
8
 10
1947.490129
 20
211.168746
 11
1948.875691
 21
201.468164
  0
LINE
  8
CutLine
  6
CONTINUOUS
 62
8
 10
1948.875691
 20
201.468164
 11
1949.402608
 21
197.779102
  0
LINE
  8
CutLine
  6
CONTINUOUS
 62
8
 10
1949.402608
 20
197.779102
 11
1946.499871
 21
174.340698
  0
LINE
  8
CutLine
  6
CONTINUOUS
 62
8
 10
1946.499871
 20
174.340698
 11
1945.929351
 21
169.734023
  0
LINE
  8
CutLine
  6
CONTINUOUS
 62
8
 10
1945.929351
 20
169.734023
 11
1945.396953
 21
167.103419
  0
LINE
  8
ValleyLine
  6
CONTINUOUS
 62
1
 10
2038.123099
 20
205.263876
 11
2022.348441
 21
234.734195
  0
LINE
  8
CutLine
  6
CONTINUOUS
 62
8
 10
1944.583498
 20
164.162323
 11
1942.457552
 21
158.757266
  0
LINE
  8
CutLine
  6
CONTINUOUS
 62
8
 10
1987.675643
 20
119.179414
 11
2048.441438
 21
171.620648
  0
LINE
  8
ValleyLine
  6
CONTINUOUS
 62
1
 10
2048.441438
 20
171.620648
 11
1944.583498
 21
164.162323
  0
LINE
  8
CutLine
  6
CONTINUOUS
 62
8
 10
1945.396953
 20
167.103419
 11
1944.583498
 21
164.162323
  0
LINE
  8
ValleyLine
  6
CONTINUOUS
 62
1
 10
2048.441438
 20
171.620648
 11
2038.123099
 21
205.263876
  0
LINE
  8
MountainLine
  6
CONTINUOUS
 62
5
 10
1862.988064
 20
285.568178
 11
1998.553229
 21
301.209555
  0
LINE
  8
MountainLine
  6
CONTINUOUS
 62
5
 10
1998.553229
 20
301.209555
 11
2018.585576
 21
348.546012
  0
LINE
  8
ValleyLine
  6
CONTINUOUS
 62
1
 10
2018.585576
 20
348.546012
 11
1976.411939
 21
547.793628
  0
LINE
  8
CutLine
  6
CONTINUOUS
 62
8
 10
1976.411939
 20
547.793628
 11
1975.650779
 21
574.945630
  0
LINE
  8
ValleyLine
  6
CONTINUOUS
 62
1
 10
1975.650779
 20
574.945630
 11
1862.973535
 21
549.696599
  0
LINE
  8
MountainLine
  6
CONTINUOUS
 62
5
 10
1862.973535
 20
549.696599
 11
1862.988064
 21
285.568178
  0
LINE
  8
CutLine
  6
CONTINUOUS
 62
8
 10
2054.085557
 20
227.922941
 11
2018.585576
 21
348.546012
  0
LINE
  8
MountainLine
  6
CONTINUOUS
 62
5
 10
1998.553229
 20
301.209555
 11
2054.085557
 21
227.922941
  0
LINE
  8
MountainLine
  6
CONTINUOUS
 62
5
 10
2022.348441
 20
234.734195
 11
2054.085557
 21
227.922941
  0
LINE
  8
CutLine
  6
CONTINUOUS
 62
8
 10
1862.988064
 20
285.568178
 11
1862.103080
 21
282.320164
  0
LINE
  8
CutLine
  6
CONTINUOUS
 62
8
 10
1862.103080
 20
282.320164
 11
1884.926630
 21
273.189169
  0
LINE
  8
CutLine
  6
CONTINUOUS
 62
8
 10
1884.926630
 20
273.189169
 11
1885.747124
 21
272.859362
  0
LINE
  8
CutLine
  6
CONTINUOUS
 62
8
 10
1885.747124
 20
272.859362
 11
1908.211800
 21
262.539323
  0
LINE
  8
CutLine
  6
CONTINUOUS
 62
8
 10
1908.211800
 20
262.539323
 11
1908.927042
 21
262.210748
  0
LINE
  8
CutLine
  6
CONTINUOUS
 62
8
 10
1908.927042
 20
262.210748
 11
1933.111465
 21
256.426827
  0
LINE
  8
CutLine
  6
CONTINUOUS
 62
8
 10
1933.111465
 20
256.426827
 11
1933.764001
 21
256.270769
  0
LINE
  8
CutLine
  6
CONTINUOUS
 62
8
 10
1933.764001
 20
256.270769
 11
1937.165558
 21
256.137916
  0
LINE
  8
CutLine
  6
CONTINUOUS
 62
8
 10
1937.165558
 20
256.137916
 11
1993.624496
 21
241.705711
  0
LINE
  8
CutLine
  6
CONTINUOUS
 62
8
 10
1993.624496
 20
241.705711
 11
2022.348441
 21
234.734195
  0
LINE
  8
CutLine
  6
CONTINUOUS
 62
8
 10
2038.123099
 20
205.263876
 11
2054.232707
 21
173.977850
  0
LINE
  8
ValleyLine
  6
CONTINUOUS
 62
1
 10
2054.232707
 20
173.977850
 11
2054.085557
 21
227.922941
 0
TEXT
100
AcDbText
 8
Edge ID
100
AcDbText
10
1945.426075
20
86.764081
30
0.0
40
3.360000
72
1
11
1945.426075
21
86.764081
31
0.0
1
6
50
31.127619
 0
TEXT
100
AcDbText
 8
Edge ID
100
AcDbText
10
1885.276360
20
100.501071
30
0.0
40
3.360000
72
1
11
1885.276360
21
100.501071
31
0.0
1
224
50
198.902477
 0
TEXT
100
AcDbText
 8
Edge ID
100
AcDbText
10
1877.085787
20
66.071134
30
0.0
40
3.360000
72
1
11
1877.085787
21
66.071134
31
0.0
1
5
50
-53.091787
 0
TEXT
100
AcDbText
 8
Edge ID
100
AcDbText
10
1913.867884
20
59.712308
30
0.0
40
3.360000
72
1
11
1913.867884
21
59.712308
31
0.0
1
389
50
46.417851
 0
TEXT
100
AcDbText
 8
Edge ID
100
AcDbText
10
1862.545572
20
283.944171
30
0.0
40
3.360000
72
1
11
1862.545572
21
283.944171
31
0.0
1
83
50
254.758643
 0
TEXT
100
AcDbText
 8
Edge ID
100
AcDbText
10
1965.395027
20
248.921813
30
0.0
40
3.360000
72
1
11
1965.395027
21
248.921813
31
0.0
1
204
50
-14.339065
 0
TEXT
100
AcDbText
 8
Edge ID
100
AcDbText
10
2043.282268
20
188.442262
30
0.0
40
3.360000
72
1
11
2043.282268
21
188.442262
31
0.0
1
7
50
107.050717
 0
TEXT
100
AcDbText
 8
Edge ID
100
AcDbText
10
2018.058540
20
145.400031
30
0.0
40
3.360000
72
1
11
2018.058540
21
145.400031
31
0.0
1
393
50
40.794384
 0
TEXT
100
AcDbText
 8
Edge ID
100
AcDbText
10
2046.177903
20
189.620863
30
0.0
40
3.360000
72
1
11
2046.177903
21
189.620863
31
0.0
1
7
50
-62.755434
 0
TEXT
100
AcDbText
 8
Edge ID
100
AcDbText
10
2054.159132
20
200.950395
30
0.0
40
3.360000
72
1
11
2054.159132
21
200.950395
31
0.0
1
11
50
90.156290
 0
TEXT
100
AcDbText
 8
Edge ID
100
AcDbText
10
2036.335567
20
288.234476
30
0.0
40
3.360000
72
1
11
2036.335567
21
288.234476
31
0.0
1
146
50
106.399423
 0
TEXT
100
AcDbText
 8
Edge ID
100
AcDbText
10
1997.498758
20
448.169820
30
0.0
40
3.360000
72
1
11
1997.498758
21
448.169820
31
0.0
1
8
50
101.951086
 0
TEXT
100
AcDbText
 8
Edge ID
100
AcDbText
10
1976.031359
20
561.369629
30
0.0
40
3.360000
72
1
11
1976.031359
21
561.369629
31
0.0
1
499
50
91.605768
 0
TEXT
100
AcDbText
 8
Edge ID
100
AcDbText
10
1919.312157
20
562.321114
30
0.0
40
3.360000
72
1
11
1919.312157
21
562.321114
31
0.0
1
9
50
192.630354
 0
TEXT
100
AcDbText
 8
Edge ID
100
AcDbText
10
1862.980799
20
417.632388
30
0.0
40
3.360000
72
1
11
1862.980799
21
417.632388
31
0.0
1
10
50
-89.996848
 0
TEXT
100
AcDbText
 8
Edge ID
100
AcDbText
10
1923.428856
20
134.046567
30
0.0
40
3.360000
72
1
11
1923.428856
21
134.046567
31
0.0
1
4
50
245.484990
 0
TEXT
100
AcDbText
 8
Edge ID
100
AcDbText
10
1973.385478
20
107.099149
30
0.0
40
3.360000
72
1
11
1973.385478
21
107.099149
31
0.0
1
3
50
40.209683
  0
ENDSEC
  0
EOF
