  0
SECTION
  2
HEADER
  9
$ACADVER
  1
AC1009
  0
ENDSEC
  0
SECTION
  2
BLOCKS
  0
ENDSEC
  0
SECTION
  2
ENTITIES
  0
LINE
  8
CutLine
  6
CONTINUOUS
 62
8
 10
1935.076927
 20
295.305861
 11
1906.678297
 21
297.586646
  0
LINE
  8
CutLine
  6
CONTINUOUS
 62
8
 10
1906.678297
 20
297.586646
 11
1902.094622
 21
302.970875
  0
LINE
  8
CutLine
  6
CONTINUOUS
 62
8
 10
2052.674717
 20
421.015307
 11
2056.834028
 21
415.296904
  0
LINE
  8
CutLine
  6
CONTINUOUS
 62
8
 10
2056.834028
 20
415.296904
 11
2051.693922
 21
382.731464
  0
LINE
  8
CutLine
  6
CONTINUOUS
 62
8
 10
2051.693922
 20
382.731464
 11
2045.975519
 21
378.572153
  0
LINE
  8
CutLine
  6
CONTINUOUS
 62
8
 10
1824.826668
 20
498.733780
 11
1828.367053
 21
505.753283
  0
LINE
  8
CutLine
  6
CONTINUOUS
 62
8
 10
1828.367053
 20
505.753283
 11
1974.646445
 21
570.093391
  0
LINE
  8
CutLine
  6
CONTINUOUS
 62
8
 10
1974.646445
 20
570.093391
 11
1981.236378
 21
567.529647
  0
LINE
  8
CutLine
  6
CONTINUOUS
 62
8
 10
1902.094622
 20
302.970875
 11
1895.608098
 21
305.786016
  0
LINE
  8
CutLine
  6
CONTINUOUS
 62
8
 10
1895.608098
 20
305.786016
 11
1822.011528
 21
492.247257
  0
LINE
  8
CutLine
  6
CONTINUOUS
 62
8
 10
1822.011528
 20
492.247257
 11
1824.826668
 21
498.733780
  0
LINE
  8
CutLine
  6
CONTINUOUS
 62
8
 10
2080.449821
 20
591.126595
 11
2084.349604
 21
585.228146
  0
LINE
  8
CutLine
  6
CONTINUOUS
 62
8
 10
2084.349604
 20
585.228146
 11
2068.313765
 21
506.614261
  0
LINE
  8
CutLine
  6
CONTINUOUS
 62
8
 10
2068.313765
 20
506.614261
 11
2062.415316
 21
502.714478
  0
LINE
  8
CutLine
  6
CONTINUOUS
 62
8
 10
1955.109733
 20
212.912347
 11
1948.403002
 21
219.332902
  0
LINE
  8
CutLine
  6
CONTINUOUS
 62
8
 10
1948.403002
 20
219.332902
 11
1931.195014
 21
290.108135
  0
LINE
  8
CutLine
  6
CONTINUOUS
 62
8
 10
1931.195014
 20
290.108135
 11
1934.393012
 21
295.360788
  0
LINE
  8
CutLine
  6
CONTINUOUS
 62
8
 10
2024.693858
 20
245.646033
 11
2027.913203
 21
239.350335
  0
LINE
  8
CutLine
  6
CONTINUOUS
 62
8
 10
2027.913203
 20
239.350335
 11
2014.001001
 21
196.320420
  0
LINE
  8
CutLine
  6
CONTINUOUS
 62
8
 10
2014.001001
 20
196.320420
 11
2007.705302
 21
193.101074
  0
LINE
  8
CutLine
  6
CONTINUOUS
 62
8
 10
1978.875427
 20
40.280380
 11
1973.593030
 21
35.579712
  0
LINE
  8
CutLine
  6
CONTINUOUS
 62
8
 10
1973.593030
 20
35.579712
 11
1950.737028
 21
36.911567
  0
LINE
  8
CutLine
  6
CONTINUOUS
 62
8
 10
1950.737028
 20
36.911567
 11
1946.036360
 21
42.193964
  0
LINE
  8
CutLine
  6
CONTINUOUS
 62
8
 10
1941.858417
 20
85.270647
 11
1934.829220
 21
86.039017
  0
LINE
  8
CutLine
  6
CONTINUOUS
 62
8
 10
1934.829220
 20
86.039017
 11
1898.258021
 21
131.586737
  0
LINE
  8
CutLine
  6
CONTINUOUS
 62
8
 10
1898.258021
 20
131.586737
 11
1899.026391
 21
138.615933
  0
LINE
  8
CutLine
  6
CONTINUOUS
 62
8
 10
2019.834734
 20
152.964029
 11
2025.452560
 21
148.669843
  0
LINE
  8
CutLine
  6
CONTINUOUS
 62
8
 10
2025.452560
 20
148.669843
 11
2037.761923
 21
56.491801
  0
LINE
  8
CutLine
  6
CONTINUOUS
 62
8
 10
2037.761923
 20
56.491801
 11
2033.467738
 21
50.873975
  0
LINE
  8
CutLine
  6
CONTINUOUS
 62
8
 10
1897.080577
 20
184.772530
 11
1891.273918
 21
188.807715
  0
LINE
  8
CutLine
  6
CONTINUOUS
 62
8
 10
1891.273918
 20
188.807715
 11
1886.018576
 21
218.004991
  0
LINE
  8
CutLine
  6
CONTINUOUS
 62
8
 10
1886.018576
 20
218.004991
 11
1890.053760
 21
223.811650
  0
LINE
  8
ValleyLine
  6
CONTINUOUS
 62
1
 10
1902.094622
 20
302.970875
 11
1976.670754
 21
296.981427
  0
LINE
  8
ValleyLine
  6
CONTINUOUS
 62
1
 10
1976.670754
 20
296.981427
 11
2045.975519
 21
378.572153
  0
LINE
  8
ValleyLine
  6
CONTINUOUS
 62
1
 10
2045.975519
 20
378.572153
 11
2052.674717
 21
421.015307
  0
LINE
  8
CutLine
  6
CONTINUOUS
 62
8
 10
2052.674717
 20
421.015307
 11
2062.415316
 21
502.714478
  0
LINE
  8
MountainLine
  6
CONTINUOUS
 62
5
 10
2062.415316
 20
502.714478
 11
1981.236378
 21
567.529647
  0
LINE
  8
ValleyLine
  6
CONTINUOUS
 62
1
 10
1981.236378
 20
567.529647
 11
1824.826668
 21
498.733780
  0
LINE
  8
ValleyLine
  6
CONTINUOUS
 62
1
 10
1824.826668
 20
498.733780
 11
1902.094622
 21
302.970875
  0
LINE
  8
ValleyLine
  6
CONTINUOUS
 62
1
 10
2062.415316
 20
502.714478
 11
2080.449821
 21
591.126595
  0
LINE
  8
CutLine
  6
CONTINUOUS
 62
8
 10
2080.449821
 20
591.126595
 11
2022.544278
 21
587.209905
  0
LINE
  8
CutLine
  6
CONTINUOUS
 62
8
 10
2022.544278
 20
587.209905
 11
1981.236378
 21
567.529647
  0
LINE
  8
MountainLine
  6
CONTINUOUS
 62
5
 10
1976.670754
 20
296.981427
 11
2024.693858
 21
245.646033
  0
LINE
  8
CutLine
  6
CONTINUOUS
 62
8
 10
2024.693858
 20
245.646033
 11
2045.975519
 21
378.572153
  0
LINE
  8
CutLine
  6
CONTINUOUS
 62
8
 10
1976.670754
 20
296.981427
 11
1934.872207
 21
296.147857
  0
LINE
  8
MountainLine
  6
CONTINUOUS
 62
5
 10
1934.872207
 20
296.147857
 11
1955.109733
 21
212.912347
  0
LINE
  8
ValleyLine
  6
CONTINUOUS
 62
1
 10
1955.109733
 20
212.912347
 11
2007.705302
 21
193.101074
  0
LINE
  8
ValleyLine
  6
CONTINUOUS
 62
1
 10
2007.705302
 20
193.101074
 11
2024.693858
 21
245.646033
  0
LINE
  8
MountainLine
  6
CONTINUOUS
 62
5
 10
1897.080577
 20
184.772530
 11
2007.705302
 21
193.101074
  0
LINE
  8
ValleyLine
  6
CONTINUOUS
 62
1
 10
1955.109733
 20
212.912347
 11
1897.080577
 21
184.772530
  0
LINE
  8
CutLine
  6
CONTINUOUS
 62
8
 10
1941.858417
 20
85.270647
 11
1946.036360
 21
42.193964
  0
LINE
  8
ValleyLine
  6
CONTINUOUS
 62
1
 10
1946.036360
 20
42.193964
 11
1978.875427
 21
40.280380
  0
LINE
  8
CutLine
  6
CONTINUOUS
 62
8
 10
1897.080577
 20
184.772530
 11
1899.026391
 21
138.615933
  0
LINE
  8
MountainLine
  6
CONTINUOUS
 62
5
 10
1899.026391
 20
138.615933
 11
1941.858417
 21
85.270647
  0
LINE
  8
CutLine
  6
CONTINUOUS
 62
8
 10
1978.875427
 20
40.280380
 11
2033.467738
 21
50.873975
  0
LINE
  8
ValleyLine
  6
CONTINUOUS
 62
1
 10
2033.467738
 20
50.873975
 11
2019.834734
 21
152.964029
  0
LINE
  8
CutLine
  6
CONTINUOUS
 62
8
 10
2019.834734
 20
152.964029
 11
2007.705302
 21
193.101074
  0
LINE
  8
ValleyLine
  6
CONTINUOUS
 62
1
 10
1890.053760
 20
223.811650
 11
1897.080577
 21
184.772530
  0
LINE
  8
CutLine
  6
CONTINUOUS
 62
8
 10
1955.109733
 20
212.912347
 11
1890.053760
 21
223.811650
 0
TEXT
100
AcDbText
 8
Edge ID
100
AcDbText
10
2071.432569
20
546.920536
30
0.0
40
3.360000
72
1
11
2071.432569
21
546.920536
31
0.0
1
233
50
78.470844
 0
TEXT
100
AcDbText
 8
Edge ID
100
AcDbText
10
2051.497050
20
589.168250
30
0.0
40
3.360000
72
1
11
2051.497050
21
589.168250
31
0.0
1
187
50
183.869552
 0
TEXT
100
AcDbText
 8
Edge ID
100
AcDbText
10
2001.890328
20
577.369776
30
0.0
40
3.360000
72
1
11
2001.890328
21
577.369776
31
0.0
1
263
50
205.474457
 0
TEXT
100
AcDbText
 8
Edge ID
100
AcDbText
10
1898.053484
20
161.694232
30
0.0
40
3.360000
72
1
11
1898.053484
21
161.694232
31
0.0
1
176
50
-87.586022
 0
TEXT
100
AcDbText
 8
Edge ID
100
AcDbText
10
1920.442404
20
111.943290
30
0.0
40
3.360000
72
1
11
1920.442404
21
111.943290
31
0.0
1
237
50
-51.238304
 0
TEXT
100
AcDbText
 8
Edge ID
100
AcDbText
10
2006.171582
20
45.577178
30
0.0
40
3.360000
72
1
11
2006.171582
21
45.577178
31
0.0
1
156
50
10.981719
 0
TEXT
100
AcDbText
 8
Edge ID
100
AcDbText
10
2026.651236
20
101.919002
30
0.0
40
3.360000
72
1
11
2026.651236
21
101.919002
31
0.0
1
238
50
97.606221
 0
TEXT
100
AcDbText
 8
Edge ID
100
AcDbText
10
2013.770018
20
173.032552
30
0.0
40
3.360000
72
1
11
2013.770018
21
173.032552
31
0.0
1
261
50
106.814839
 0
TEXT
100
AcDbText
 8
Edge ID
100
AcDbText
10
1943.947388
20
63.732305
30
0.0
40
3.360000
72
1
11
1943.947388
21
63.732305
31
0.0
1
170
50
-84.460296
 0
TEXT
100
AcDbText
 8
Edge ID
100
AcDbText
10
1962.455893
20
41.237172
30
0.0
40
3.360000
72
1
11
1962.455893
21
41.237172
31
0.0
1
236
50
-3.334943
 0
TEXT
100
AcDbText
 8
Edge ID
100
AcDbText
10
1893.567168
20
204.292090
30
0.0
40
3.360000
72
1
11
1893.567168
21
204.292090
31
0.0
1
239
50
-79.796347
 0
TEXT
100
AcDbText
 8
Edge ID
100
AcDbText
10
1922.581747
20
218.361999
30
0.0
40
3.360000
72
1
11
1922.581747
21
218.361999
31
0.0
1
129
50
170.489149
 0
TEXT
100
AcDbText
 8
Edge ID
100
AcDbText
10
1955.771481
20
296.564642
30
0.0
40
3.360000
72
1
11
1955.771481
21
296.564642
31
0.0
1
181
50
181.142473
 0
TEXT
100
AcDbText
 8
Edge ID
100
AcDbText
10
1944.990970
20
254.530102
30
0.0
40
3.360000
72
1
11
1944.990970
21
254.530102
31
0.0
1
234
50
-76.334509
 0
TEXT
100
AcDbText
 8
Edge ID
100
AcDbText
10
2016.199580
20
219.373554
30
0.0
40
3.360000
72
1
11
2016.199580
21
219.373554
31
0.0
1
235
50
72.083220
 0
TEXT
100
AcDbText
 8
Edge ID
100
AcDbText
10
2035.334688
20
312.109093
30
0.0
40
3.360000
72
1
11
2035.334688
21
312.109093
31
0.0
1
104
50
80.904057
 0
TEXT
100
AcDbText
 8
Edge ID
100
AcDbText
10
2049.325118
20
399.793730
30
0.0
40
3.360000
72
1
11
2049.325118
21
399.793730
31
0.0
1
230
50
81.030472
 0
TEXT
100
AcDbText
 8
Edge ID
100
AcDbText
10
2057.545017
20
461.864892
30
0.0
40
3.360000
72
1
11
2057.545017
21
461.864892
31
0.0
1
183
50
83.200993
 0
TEXT
100
AcDbText
 8
Edge ID
100
AcDbText
10
1903.031523
20
533.131714
30
0.0
40
3.360000
72
1
11
1903.031523
21
533.131714
31
0.0
1
231
50
203.742004
 0
TEXT
100
AcDbText
 8
Edge ID
100
AcDbText
10
1863.460645
20
400.852328
30
0.0
40
3.360000
72
1
11
1863.460645
21
400.852328
31
0.0
1
232
50
-68.460766
 0
TEXT
100
AcDbText
 8
Edge ID
100
AcDbText
10
1939.382688
20
299.976151
30
0.0
40
3.360000
72
1
11
1939.382688
21
299.976151
31
0.0
1
229
50
-4.591752
  0
ENDSEC
  0
EOF
