  0
SECTION
  2
HEADER
  9
$ACADVER
  1
AC1009
  0
ENDSEC
  0
SECTION
  2
BLOCKS
  0
ENDSEC
  0
SECTION
  2
ENTITIES
  0
LINE
  8
CutLine
  6
CONTINUOUS
 62
8
 10
1732.143942
 20
207.547886
 11
1738.339611
 21
204.139999
  0
LINE
  8
CutLine
  6
CONTINUOUS
 62
8
 10
1738.339611
 20
204.139999
 11
1758.489077
 21
134.727629
  0
LINE
  8
CutLine
  6
CONTINUOUS
 62
8
 10
1758.489077
 20
134.727629
 11
1755.081190
 21
128.531960
  0
LINE
  8
CutLine
  6
CONTINUOUS
 62
8
 10
1520.005812
 20
93.700644
 11
1516.169685
 21
99.640689
  0
LINE
  8
CutLine
  6
CONTINUOUS
 62
8
 10
1516.169685
 20
99.640689
 11
1558.344858
 21
295.613913
  0
LINE
  8
CutLine
  6
CONTINUOUS
 62
8
 10
1558.344858
 20
295.613913
 11
1564.284903
 21
299.450039
  0
LINE
  8
CutLine
  6
CONTINUOUS
 62
8
 10
1755.081190
 20
128.531960
 11
1761.536197
 21
125.645289
  0
LINE
  8
CutLine
  6
CONTINUOUS
 62
8
 10
1761.536197
 20
125.645289
 11
1790.165936
 21
50.694443
  0
LINE
  8
CutLine
  6
CONTINUOUS
 62
8
 10
1790.165936
 20
50.694443
 11
1787.279264
 21
44.239435
  0
LINE
  8
CutLine
  6
CONTINUOUS
 62
8
 10
1729.509301
 20
38.669535
 11
1723.318966
 21
35.251969
  0
LINE
  8
CutLine
  6
CONTINUOUS
 62
8
 10
1723.318966
 20
35.251969
 11
1688.964499
 21
45.166413
  0
LINE
  8
CutLine
  6
CONTINUOUS
 62
8
 10
1688.964499
 20
45.166413
 11
1685.546933
 21
51.356747
  0
LINE
  8
CutLine
  6
CONTINUOUS
 62
8
 10
1675.884793
 20
375.988453
 11
1682.212744
 21
372.832975
  0
LINE
  8
CutLine
  6
CONTINUOUS
 62
8
 10
1682.212744
 20
372.832975
 11
1721.747767
 21
254.651482
  0
LINE
  8
CutLine
  6
CONTINUOUS
 62
8
 10
1721.747767
 20
254.651482
 11
1718.592289
 21
248.323532
  0
LINE
  8
CutLine
  6
CONTINUOUS
 62
8
 10
1599.819008
 20
308.283089
 11
1595.518177
 21
311.493723
  0
LINE
  8
CutLine
  6
CONTINUOUS
 62
8
 10
1568.054307
 20
520.891791
 11
1562.752948
 21
525.571063
  0
LINE
  8
CutLine
  6
CONTINUOUS
 62
8
 10
1562.752948
 20
525.571063
 11
1560.855067
 21
556.020297
  0
LINE
  8
CutLine
  6
CONTINUOUS
 62
8
 10
1560.855067
 20
556.020297
 11
1565.361991
 21
564.086782
  0
LINE
  8
CutLine
  6
CONTINUOUS
 62
8
 10
1597.484311
 20
571.173576
 11
1602.645265
 21
576.007266
  0
LINE
  8
CutLine
  6
CONTINUOUS
 62
8
 10
1602.645265
 20
576.007266
 11
1648.231486
 21
574.514594
  0
LINE
  8
CutLine
  6
CONTINUOUS
 62
8
 10
1648.231486
 20
574.514594
 11
1653.065176
 21
569.353640
  0
LINE
  8
CutLine
  6
CONTINUOUS
 62
8
 10
1539.588657
 20
415.557150
 11
1534.040037
 21
419.940393
  0
LINE
  8
CutLine
  6
CONTINUOUS
 62
8
 10
1534.040037
 20
419.940393
 11
1529.821655
 21
455.891346
  0
LINE
  8
CutLine
  6
CONTINUOUS
 62
8
 10
1529.821655
 20
455.891346
 11
1534.204898
 21
461.439966
  0
LINE
  8
CutLine
  6
CONTINUOUS
 62
8
 10
1655.761447
 20
466.392638
 11
1660.045594
 21
460.767152
  0
LINE
  8
CutLine
  6
CONTINUOUS
 62
8
 10
1660.045594
 20
460.767152
 11
1655.762730
 21
429.125925
  0
LINE
  8
CutLine
  6
CONTINUOUS
 62
8
 10
1655.762730
 20
429.125925
 11
1650.137245
 21
424.841779
  0
LINE
  8
CutLine
  6
CONTINUOUS
 62
8
 10
1601.340032
 20
396.956075
 11
1598.197883
 21
390.621496
  0
LINE
  8
CutLine
  6
CONTINUOUS
 62
8
 10
1598.197883
 20
390.621496
 11
1545.163573
 21
372.755803
  0
LINE
  8
CutLine
  6
CONTINUOUS
 62
8
 10
1545.163573
 20
372.755803
 11
1538.828994
 21
375.897953
  0
LINE
  8
MountainLine
  6
CONTINUOUS
 62
5
 10
1685.546933
 20
51.356747
 11
1755.081190
 21
128.531960
  0
LINE
  8
ValleyLine
  6
CONTINUOUS
 62
1
 10
1755.081190
 20
128.531960
 11
1732.143942
 21
207.547886
  0
LINE
  8
CutLine
  6
CONTINUOUS
 62
8
 10
1732.143942
 20
207.547886
 11
1718.592289
 21
248.323532
  0
LINE
  8
ValleyLine
  6
CONTINUOUS
 62
1
 10
1718.592289
 20
248.323532
 11
1636.891541
 21
317.498561
  0
LINE
  8
CutLine
  6
CONTINUOUS
 62
8
 10
1636.891541
 20
317.498561
 11
1564.284903
 21
299.450039
  0
LINE
  8
ValleyLine
  6
CONTINUOUS
 62
1
 10
1564.284903
 20
299.450039
 11
1520.005812
 21
93.700644
  0
LINE
  8
CutLine
  6
CONTINUOUS
 62
8
 10
1520.005812
 20
93.700644
 11
1685.546933
 21
51.356747
  0
LINE
  8
CutLine
  6
CONTINUOUS
 62
8
 10
1729.509301
 20
38.669535
 11
1787.279264
 21
44.239435
  0
LINE
  8
ValleyLine
  6
CONTINUOUS
 62
1
 10
1787.279264
 20
44.239435
 11
1755.081190
 21
128.531960
  0
LINE
  8
ValleyLine
  6
CONTINUOUS
 62
1
 10
1685.546933
 20
51.356747
 11
1729.509301
 21
38.669535
  0
LINE
  8
ValleyLine
  6
CONTINUOUS
 62
1
 10
1718.592289
 20
248.323532
 11
1675.884793
 21
375.988453
  0
LINE
  8
MountainLine
  6
CONTINUOUS
 62
5
 10
1675.884793
 20
375.988453
 11
1636.891541
 21
317.498561
  0
LINE
  8
ValleyLine
  6
CONTINUOUS
 62
1
 10
1595.518177
 20
311.493723
 11
1636.891541
 21
317.498561
  0
LINE
  8
CutLine
  6
CONTINUOUS
 62
8
 10
1675.884793
 20
375.988453
 11
1650.137245
 21
424.841779
  0
LINE
  8
ValleyLine
  6
CONTINUOUS
 62
1
 10
1650.137245
 20
424.841779
 11
1601.340032
 21
396.956075
  0
LINE
  8
CutLine
  6
CONTINUOUS
 62
8
 10
1601.340032
 20
396.956075
 11
1595.518177
 21
311.493723
  0
LINE
  8
MountainLine
  6
CONTINUOUS
 62
5
 10
1650.137245
 20
424.841779
 11
1539.588657
 21
415.557150
  0
LINE
  8
ValleyLine
  6
CONTINUOUS
 62
1
 10
1539.588657
 20
415.557150
 11
1601.340032
 21
396.956075
  0
LINE
  8
CutLine
  6
CONTINUOUS
 62
8
 10
1597.484311
 20
571.173576
 11
1565.361991
 21
564.086782
  0
LINE
  8
MountainLine
  6
CONTINUOUS
 62
5
 10
1565.361991
 20
564.086782
 11
1568.054307
 21
520.891791
  0
LINE
  8
CutLine
  6
CONTINUOUS
 62
8
 10
1655.761447
 20
466.392638
 11
1653.065176
 21
569.353640
  0
LINE
  8
ValleyLine
  6
CONTINUOUS
 62
1
 10
1653.065176
 20
569.353640
 11
1597.484311
 21
571.173576
  0
LINE
  8
CutLine
  6
CONTINUOUS
 62
8
 10
1568.054307
 20
520.891791
 11
1534.204898
 21
461.439966
  0
LINE
  8
ValleyLine
  6
CONTINUOUS
 62
1
 10
1534.204898
 20
461.439966
 11
1539.588657
 21
415.557150
  0
LINE
  8
ValleyLine
  6
CONTINUOUS
 62
1
 10
1650.137245
 20
424.841779
 11
1655.761447
 21
466.392638
  0
LINE
  8
CutLine
  6
CONTINUOUS
 62
8
 10
1539.588657
 20
415.557150
 11
1538.828994
 21
375.897953
  0
LINE
  8
MountainLine
  6
CONTINUOUS
 62
5
 10
1538.828994
 20
375.897953
 11
1601.340032
 21
396.956075
 0
TEXT
100
AcDbText
 8
Edge ID
100
AcDbText
10
1758.394283
20
41.454485
30
0.0
40
3.360000
72
1
11
1758.394283
21
41.454485
31
0.0
1
402
50
5.507159
 0
TEXT
100
AcDbText
 8
Edge ID
100
AcDbText
10
1771.180227
20
86.385698
30
0.0
40
3.360000
72
1
11
1771.180227
21
86.385698
31
0.0
1
418
50
110.905866
 0
TEXT
100
AcDbText
 8
Edge ID
100
AcDbText
10
1707.528117
20
45.013141
30
0.0
40
3.360000
72
1
11
1707.528117
21
45.013141
31
0.0
1
419
50
-16.097746
 0
TEXT
100
AcDbText
 8
Edge ID
100
AcDbText
10
1625.274744
20
570.263608
30
0.0
40
3.360000
72
1
11
1625.274744
21
570.263608
31
0.0
1
423
50
178.124581
 0
TEXT
100
AcDbText
 8
Edge ID
100
AcDbText
10
1551.129603
20
491.165878
30
0.0
40
3.360000
72
1
11
1551.129603
21
491.165878
31
0.0
1
375
50
240.344604
 0
TEXT
100
AcDbText
 8
Edge ID
100
AcDbText
10
1536.896777
20
438.498558
30
0.0
40
3.360000
72
1
11
1536.896777
21
438.498558
31
0.0
1
424
50
-83.307678
 0
TEXT
100
AcDbText
 8
Edge ID
100
AcDbText
10
1652.949346
20
445.617208
30
0.0
40
3.360000
72
1
11
1652.949346
21
445.617208
31
0.0
1
425
50
82.291461
 0
TEXT
100
AcDbText
 8
Edge ID
100
AcDbText
10
1654.413312
20
517.873139
30
0.0
40
3.360000
72
1
11
1654.413312
21
517.873139
31
0.0
1
446
50
91.500079
 0
TEXT
100
AcDbText
 8
Edge ID
100
AcDbText
10
1581.423151
20
567.630179
30
0.0
40
3.360000
72
1
11
1581.423151
21
567.630179
31
0.0
1
366
50
192.441243
 0
TEXT
100
AcDbText
 8
Edge ID
100
AcDbText
10
1566.708149
20
542.489286
30
0.0
40
3.360000
72
1
11
1566.708149
21
542.489286
31
0.0
1
422
50
-86.433404
 0
TEXT
100
AcDbText
 8
Edge ID
100
AcDbText
10
1539.208825
20
395.727551
30
0.0
40
3.360000
72
1
11
1539.208825
21
395.727551
31
0.0
1
383
50
268.902647
 0
TEXT
100
AcDbText
 8
Edge ID
100
AcDbText
10
1570.084513
20
386.427014
30
0.0
40
3.360000
72
1
11
1570.084513
21
386.427014
31
0.0
1
426
50
18.617151
 0
TEXT
100
AcDbText
 8
Edge ID
100
AcDbText
10
1616.204859
20
314.496142
30
0.0
40
3.360000
72
1
11
1616.204859
21
314.496142
31
0.0
1
421
50
8.258118
 0
TEXT
100
AcDbText
 8
Edge ID
100
AcDbText
10
1663.011019
20
400.415116
30
0.0
40
3.360000
72
1
11
1663.011019
21
400.415116
31
0.0
1
447
50
117.790925
 0
TEXT
100
AcDbText
 8
Edge ID
100
AcDbText
10
1598.429105
20
354.224899
30
0.0
40
3.360000
72
1
11
1598.429105
21
354.224899
31
0.0
1
332
50
266.102925
 0
TEXT
100
AcDbText
 8
Edge ID
100
AcDbText
10
1697.238541
20
312.155992
30
0.0
40
3.360000
72
1
11
1697.238541
21
312.155992
31
0.0
1
420
50
108.496533
 0
TEXT
100
AcDbText
 8
Edge ID
100
AcDbText
10
1743.612566
20
168.039923
30
0.0
40
3.360000
72
1
11
1743.612566
21
168.039923
31
0.0
1
416
50
106.187294
 0
TEXT
100
AcDbText
 8
Edge ID
100
AcDbText
10
1725.368116
20
227.935709
30
0.0
40
3.360000
72
1
11
1725.368116
21
227.935709
31
0.0
1
289
50
108.384059
 0
TEXT
100
AcDbText
 8
Edge ID
100
AcDbText
10
1600.588222
20
308.474300
30
0.0
40
3.360000
72
1
11
1600.588222
21
308.474300
31
0.0
1
376
50
193.959617
 0
TEXT
100
AcDbText
 8
Edge ID
100
AcDbText
10
1542.145357
20
196.575342
30
0.0
40
3.360000
72
1
11
1542.145357
21
196.575342
31
0.0
1
417
50
257.854683
 0
TEXT
100
AcDbText
 8
Edge ID
100
AcDbText
10
1602.776372
20
72.528696
30
0.0
40
3.360000
72
1
11
1602.776372
21
72.528696
31
0.0
1
449
50
-14.348087
  0
ENDSEC
  0
EOF
