  0
SECTION
  2
HEADER
  9
$ACADVER
  1
AC1009
  0
ENDSEC
  0
SECTION
  2
BLOCKS
  0
ENDSEC
  0
SECTION
  2
ENTITIES
  0
LINE
  8
CutLine
  6
CONTINUOUS
 62
8
 10
1574.160321
 20
551.814148
 11
1572.445263
 21
544.954223
  0
LINE
  8
CutLine
  6
CONTINUOUS
 62
8
 10
1572.445263
 20
544.954223
 11
1529.759900
 21
519.343619
  0
LINE
  8
CutLine
  6
CONTINUOUS
 62
8
 10
1529.759900
 20
519.343619
 11
1522.899975
 21
521.058677
  0
LINE
  8
CutLine
  6
CONTINUOUS
 62
8
 10
1522.682966
 20
549.502512
 11
1517.682966
 21
554.502512
  0
LINE
  8
CutLine
  6
CONTINUOUS
 62
8
 10
1517.682966
 20
554.502512
 11
1517.682966
 21
577.828080
  0
LINE
  8
CutLine
  6
CONTINUOUS
 62
8
 10
1517.682966
 20
577.828080
 11
1522.682966
 21
582.828080
  0
LINE
  8
CutLine
  6
CONTINUOUS
 62
8
 10
1607.048147
 20
552.743780
 11
1614.090841
 21
553.376591
  0
LINE
  8
CutLine
  6
CONTINUOUS
 62
8
 10
1614.090841
 20
553.376591
 11
1652.543673
 21
521.264293
  0
LINE
  8
CutLine
  6
CONTINUOUS
 62
8
 10
1652.543673
 20
521.264293
 11
1653.176484
 21
514.221598
  0
LINE
  8
CutLine
  6
CONTINUOUS
 62
8
 10
1703.117372
 20
547.653466
 11
1708.628910
 21
543.223687
  0
LINE
  8
CutLine
  6
CONTINUOUS
 62
8
 10
1708.628910
 20
543.223687
 11
1712.485743
 21
507.779575
  0
LINE
  8
CutLine
  6
CONTINUOUS
 62
8
 10
1712.485743
 20
507.779575
 11
1708.055964
 21
502.268037
  0
LINE
  8
CutLine
  6
CONTINUOUS
 62
8
 10
1582.365850
 20
475.431264
 11
1579.901509
 21
482.059011
  0
LINE
  8
CutLine
  6
CONTINUOUS
 62
8
 10
1579.901509
 20
482.059011
 11
1590.713351
 21
505.670022
  0
LINE
  8
CutLine
  6
CONTINUOUS
 62
8
 10
1590.713351
 20
505.670022
 11
1597.341097
 21
508.134363
  0
LINE
  8
CutLine
  6
CONTINUOUS
 62
8
 10
1725.807260
 20
379.527720
 11
1730.749805
 21
374.470918
  0
LINE
  8
CutLine
  6
CONTINUOUS
 62
8
 10
1730.749805
 20
374.470918
 11
1730.639060
 21
364.779011
  0
LINE
  8
CutLine
  6
CONTINUOUS
 62
8
 10
1730.639060
 20
364.779011
 11
1725.582257
 21
359.836466
  0
LINE
  8
CutLine
  6
CONTINUOUS
 62
8
 10
1676.877773
 20
331.738592
 11
1674.407142
 21
333.114700
  0
LINE
  8
CutLine
  6
CONTINUOUS
 62
8
 10
1654.692263
 20
391.440169
 11
1647.999322
 21
414.962744
  0
LINE
  8
CutLine
  6
CONTINUOUS
 62
8
 10
1647.999322
 20
414.962744
 11
1648.746151
 21
430.608149
  0
LINE
  8
CutLine
  6
CONTINUOUS
 62
8
 10
1719.491457
 20
468.165542
 11
1724.736544
 21
463.423279
  0
LINE
  8
CutLine
  6
CONTINUOUS
 62
8
 10
1724.736544
 20
463.423279
 11
1727.549154
 21
407.557821
  0
LINE
  8
CutLine
  6
CONTINUOUS
 62
8
 10
1727.549154
 20
407.557821
 11
1722.806891
 21
402.312734
  0
LINE
  8
CutLine
  6
CONTINUOUS
 62
8
 10
1560.502922
 20
380.295036
 11
1556.730991
 21
389.342928
  0
LINE
  8
CutLine
  6
CONTINUOUS
 62
8
 10
1556.730991
 20
389.342928
 11
1558.066338
 21
398.799225
  0
LINE
  8
CutLine
  6
CONTINUOUS
 62
8
 10
1558.066338
 20
398.799225
 11
1563.716345
 21
403.050980
  0
LINE
  8
CutLine
  6
CONTINUOUS
 62
8
 10
1558.200398
 20
314.473317
 11
1553.420190
 21
319.683847
  0
LINE
  8
CutLine
  6
CONTINUOUS
 62
8
 10
1553.420190
 20
319.683847
 11
1554.976857
 21
355.824817
  0
LINE
  8
CutLine
  6
CONTINUOUS
 62
8
 10
1554.976857
 20
355.824817
 11
1560.187387
 21
360.605025
  0
LINE
  8
CutLine
  6
CONTINUOUS
 62
8
 10
1567.789012
 20
468.861296
 11
1574.573155
 21
470.855140
  0
LINE
  8
CutLine
  6
CONTINUOUS
 62
8
 10
1574.573155
 20
470.855140
 11
1629.856886
 21
440.685853
  0
LINE
  8
CutLine
  6
CONTINUOUS
 62
8
 10
1629.856886
 20
440.685853
 11
1638.097645
 21
430.492661
  0
LINE
  8
CutLine
  6
CONTINUOUS
 62
8
 10
1785.645241
 20
103.025111
 11
1789.634308
 21
97.186674
  0
LINE
  8
CutLine
  6
CONTINUOUS
 62
8
 10
1789.634308
 20
97.186674
 11
1779.420368
 21
42.910020
  0
LINE
  8
CutLine
  6
CONTINUOUS
 62
8
 10
1779.420368
 20
42.910020
 11
1773.581932
 21
38.920953
  0
LINE
  8
CutLine
  6
CONTINUOUS
 62
8
 10
1566.999940
 20
50.675952
 11
1563.010919
 21
44.837483
  0
LINE
  8
CutLine
  6
CONTINUOUS
 62
8
 10
1563.010919
 20
44.837483
 11
1515.569351
 21
35.909396
  0
LINE
  8
CutLine
  6
CONTINUOUS
 62
8
 10
1515.569351
 20
35.909396
 11
1509.730883
 21
39.898417
  0
LINE
  8
CutLine
  6
CONTINUOUS
 62
8
 10
1500.000000
 20
129.565733
 11
1500.249345
 21
130.467419
  0
LINE
  8
CutLine
  6
CONTINUOUS
 62
8
 10
1500.249345
 20
130.467419
 11
1506.401123
 21
133.953911
  0
LINE
  8
CutLine
  6
CONTINUOUS
 62
8
 10
1746.410854
 20
250.271695
 11
1752.310492
 21
233.611258
  0
LINE
  8
CutLine
  6
CONTINUOUS
 62
8
 10
1752.310492
 20
233.611258
 11
1754.217456
 21
198.012435
  0
LINE
  8
CutLine
  6
CONTINUOUS
 62
8
 10
1754.217456
 20
198.012435
 11
1749.492072
 21
192.752136
  0
LINE
  8
CutLine
  6
CONTINUOUS
 62
8
 10
1534.674659
 20
193.682720
 11
1531.480305
 21
199.991135
  0
LINE
  8
CutLine
  6
CONTINUOUS
 62
8
 10
1531.480305
 20
199.991135
 11
1542.581889
 21
233.868377
  0
LINE
  8
CutLine
  6
CONTINUOUS
 62
8
 10
1542.581889
 20
233.868377
 11
1552.612281
 21
248.420599
  0
LINE
  8
CutLine
  6
CONTINUOUS
 62
8
 10
1674.792905
 20
331.973439
 11
1677.053588
 21
330.262038
  0
LINE
  8
CutLine
  6
CONTINUOUS
 62
8
 10
1686.956306
 20
247.095946
 11
1686.613551
 21
246.493674
  0
LINE
  8
CutLine
  6
CONTINUOUS
 62
8
 10
1608.783882
 20
331.996616
 11
1608.669833
 21
332.228122
  0
LINE
  8
CutLine
  6
CONTINUOUS
 62
8
 10
1637.043834
 20
426.973803
 11
1641.876612
 21
429.354624
  0
LINE
  8
CutLine
  6
CONTINUOUS
 62
8
 10
1651.588341
 20
547.509303
 11
1646.392182
 21
552.305127
  0
LINE
  8
CutLine
  6
CONTINUOUS
 62
8
 10
1646.392182
 20
552.305127
 11
1645.653778
 21
570.735004
  0
LINE
  8
CutLine
  6
CONTINUOUS
 62
8
 10
1645.653778
 20
570.735004
 11
1650.449602
 21
575.931163
  0
LINE
  8
CutLine
  6
CONTINUOUS
 62
8
 10
1522.682966
 20
549.502512
 11
1522.899975
 21
521.058677
  0
LINE
  8
ValleyLine
  6
CONTINUOUS
 62
1
 10
1522.899975
 20
521.058677
 11
1574.160321
 21
551.814148
  0
LINE
  8
ValleyLine
  6
CONTINUOUS
 62
1
 10
1522.682966
 20
582.828080
 11
1522.682966
 21
549.502512
  0
LINE
  8
CutLine
  6
CONTINUOUS
 62
8
 10
1574.160321
 20
551.814148
 11
1522.682966
 21
582.828080
  0
LINE
  8
MountainLine
  6
CONTINUOUS
 62
5
 10
1597.341097
 20
508.134363
 11
1653.176484
 21
514.221598
  0
LINE
  8
MountainLine
  6
CONTINUOUS
 62
5
 10
1653.176484
 20
514.221598
 11
1607.048147
 21
552.743780
  0
LINE
  8
CutLine
  6
CONTINUOUS
 62
8
 10
1607.048147
 20
552.743780
 11
1597.341097
 21
508.134363
  0
LINE
  8
MountainLine
  6
CONTINUOUS
 62
5
 10
1653.176484
 20
514.221598
 11
1708.055964
 21
502.268037
  0
LINE
  8
ValleyLine
  6
CONTINUOUS
 62
1
 10
1708.055964
 20
502.268037
 11
1703.117372
 21
547.653466
  0
LINE
  8
MountainLine
  6
CONTINUOUS
 62
5
 10
1703.117372
 20
547.653466
 11
1653.176484
 21
514.221598
  0
LINE
  8
MountainLine
  6
CONTINUOUS
 62
5
 10
1648.746151
 20
430.608149
 11
1708.055964
 21
502.268037
  0
LINE
  8
ValleyLine
  6
CONTINUOUS
 62
1
 10
1653.176484
 20
514.221598
 11
1648.746151
 21
430.608149
  0
LINE
  8
CutLine
  6
CONTINUOUS
 62
8
 10
1719.491457
 20
468.165542
 11
1708.055964
 21
502.268037
  0
LINE
  8
MountainLine
  6
CONTINUOUS
 62
5
 10
1648.746151
 20
430.608149
 11
1719.491457
 21
468.165542
  0
LINE
  8
MountainLine
  6
CONTINUOUS
 62
5
 10
1597.341097
 20
508.134363
 11
1648.746151
 21
430.608149
  0
LINE
  8
ValleyLine
  6
CONTINUOUS
 62
1
 10
1597.341097
 20
508.134363
 11
1582.365850
 21
475.431264
  0
LINE
  8
CutLine
  6
CONTINUOUS
 62
8
 10
1582.365850
 20
475.431264
 11
1648.746151
 21
430.608149
  0
LINE
  8
ValleyLine
  6
CONTINUOUS
 62
1
 10
1725.582257
 20
359.836466
 11
1725.807260
 21
379.527720
  0
LINE
  8
CutLine
  6
CONTINUOUS
 62
8
 10
1725.807260
 20
379.527720
 11
1722.806891
 21
402.312734
  0
LINE
  8
MountainLine
  6
CONTINUOUS
 62
5
 10
1648.746151
 20
430.608149
 11
1676.877773
 21
331.738592
  0
LINE
  8
MountainLine
  6
CONTINUOUS
 62
5
 10
1676.877773
 20
331.738592
 11
1725.582257
 21
359.836466
  0
LINE
  8
CutLine
  6
CONTINUOUS
 62
8
 10
1727.106194
 20
313.687142
 11
1725.582257
 21
359.836466
  0
LINE
  8
CutLine
  6
CONTINUOUS
 62
8
 10
1676.877773
 20
331.738592
 11
1687.051095
 21
246.299874
  0
LINE
  8
ValleyLine
  6
CONTINUOUS
 62
1
 10
1687.051095
 20
246.299874
 11
1727.106194
 21
313.687142
  0
LINE
  8
ValleyLine
  6
CONTINUOUS
 62
1
 10
1722.806891
 20
402.312734
 11
1719.491457
 21
468.165542
  0
LINE
  8
CutLine
  6
CONTINUOUS
 62
8
 10
1608.607444
 20
332.019794
 11
1638.097645
 21
430.492661
  0
LINE
  8
ValleyLine
  6
CONTINUOUS
 62
1
 10
1638.097645
 20
430.492661
 11
1563.716345
 21
403.050980
  0
LINE
  8
ValleyLine
  6
CONTINUOUS
 62
1
 10
1563.716345
 20
403.050980
 11
1560.502922
 21
380.295036
  0
LINE
  8
CutLine
  6
CONTINUOUS
 62
8
 10
1560.502922
 20
380.295036
 11
1560.187387
 21
360.605025
  0
LINE
  8
MountainLine
  6
CONTINUOUS
 62
5
 10
1560.187387
 20
360.605025
 11
1608.607444
 21
332.019794
  0
LINE
  8
ValleyLine
  6
CONTINUOUS
 62
1
 10
1558.200398
 20
314.473317
 11
1597.577219
 21
246.687473
  0
LINE
  8
MountainLine
  6
CONTINUOUS
 62
5
 10
1597.577219
 20
246.687473
 11
1608.783882
 21
331.996616
  0
LINE
  8
ValleyLine
  6
CONTINUOUS
 62
1
 10
1560.187387
 20
360.605025
 11
1558.200398
 21
314.473317
  0
LINE
  8
CutLine
  6
CONTINUOUS
 62
8
 10
1567.789012
 20
468.861296
 11
1563.716345
 21
403.050980
  0
LINE
  8
MountainLine
  6
CONTINUOUS
 62
5
 10
1638.097645
 20
430.492661
 11
1567.789012
 21
468.861296
  0
LINE
  8
CutLine
  6
CONTINUOUS
 62
8
 10
1663.267355
 20
73.316580
 11
1665.678173
 21
71.373351
  0
LINE
  8
CutLine
  6
CONTINUOUS
 62
8
 10
1665.678173
 20
71.373351
 11
1666.305127
 21
70.868004
  0
LINE
  8
CutLine
  6
CONTINUOUS
 62
8
 10
1666.305127
 20
70.868004
 11
1688.252131
 21
59.384678
  0
LINE
  8
CutLine
  6
CONTINUOUS
 62
8
 10
1688.252131
 20
59.384678
 11
1688.889330
 21
59.051284
  0
LINE
  8
CutLine
  6
CONTINUOUS
 62
8
 10
1688.889330
 20
59.051284
 11
1712.695943
 21
52.068633
  0
LINE
  8
CutLine
  6
CONTINUOUS
 62
8
 10
1712.695943
 20
52.068633
 11
1713.324777
 21
51.884195
  0
LINE
  8
CutLine
  6
CONTINUOUS
 62
8
 10
1713.324777
 20
51.884195
 11
1716.700418
 21
51.585608
  0
LINE
  8
CutLine
  6
CONTINUOUS
 62
8
 10
1716.700418
 20
51.585608
 11
1773.581932
 21
38.920953
  0
LINE
  8
ValleyLine
  6
CONTINUOUS
 62
1
 10
1773.581932
 20
38.920953
 11
1785.645241
 21
103.025111
  0
LINE
  8
ValleyLine
  6
CONTINUOUS
 62
1
 10
1777.608468
 20
132.949195
 11
1654.576566
 21
74.133625
  0
LINE
  8
CutLine
  6
CONTINUOUS
 62
8
 10
1654.576566
 20
74.133625
 11
1663.267355
 21
73.316580
  0
LINE
  8
CutLine
  6
CONTINUOUS
 62
8
 10
1785.645241
 20
103.025111
 11
1777.608468
 21
132.949195
  0
LINE
  8
MountainLine
  6
CONTINUOUS
 62
5
 10
1509.730883
 20
39.898417
 11
1566.999940
 21
50.675952
  0
LINE
  8
CutLine
  6
CONTINUOUS
 62
8
 10
1566.999940
 20
50.675952
 11
1569.695169
 21
52.730177
  0
LINE
  8
CutLine
  6
CONTINUOUS
 62
8
 10
1569.695169
 20
52.730177
 11
1570.284061
 21
53.017678
  0
LINE
  8
CutLine
  6
CONTINUOUS
 62
8
 10
1570.284061
 20
53.017678
 11
1592.578597
 21
63.901880
  0
LINE
  8
CutLine
  6
CONTINUOUS
 62
8
 10
1592.578597
 20
63.901880
 11
1593.264209
 21
64.118931
  0
LINE
  8
CutLine
  6
CONTINUOUS
 62
8
 10
1593.264209
 20
64.118931
 11
1616.878731
 21
71.595036
  0
LINE
  8
CutLine
  6
CONTINUOUS
 62
8
 10
1616.878731
 20
71.595036
 11
1617.584269
 21
71.983188
  0
LINE
  8
CutLine
  6
CONTINUOUS
 62
8
 10
1617.584269
 20
71.983188
 11
1620.297273
 21
73.475767
  0
LINE
  8
CutLine
  6
CONTINUOUS
 62
8
 10
1500.000000
 20
93.802578
 11
1509.730883
 21
39.898417
  0
LINE
  8
CutLine
  6
CONTINUOUS
 62
8
 10
1620.297273
 20
73.475767
 11
1628.993877
 21
74.228398
  0
LINE
  8
ValleyLine
  6
CONTINUOUS
 62
1
 10
1628.993877
 20
74.228398
 11
1506.401123
 21
133.953911
  0
LINE
  8
ValleyLine
  6
CONTINUOUS
 62
1
 10
1506.401123
 20
133.953911
 11
1500.000000
 21
110.806026
  0
LINE
  8
CutLine
  6
CONTINUOUS
 62
8
 10
1641.790580
 20
75.627564
 11
1654.576566
 21
74.133625
  0
LINE
  8
CutLine
  6
CONTINUOUS
 62
8
 10
1777.608468
 20
132.949195
 11
1749.492072
 21
192.752136
  0
LINE
  8
MountainLine
  6
CONTINUOUS
 62
5
 10
1749.492072
 20
192.752136
 11
1641.876612
 21
145.490154
  0
LINE
  8
ValleyLine
  6
CONTINUOUS
 62
1
 10
1749.492072
 20
192.752136
 11
1746.410854
 21
250.271695
  0
LINE
  8
CutLine
  6
CONTINUOUS
 62
8
 10
1746.410854
 20
250.271695
 11
1727.106194
 21
313.687142
  0
LINE
  8
MountainLine
  6
CONTINUOUS
 62
5
 10
1686.613551
 20
246.493674
 11
1641.876612
 21
145.490154
  0
LINE
  8
CutLine
  6
CONTINUOUS
 62
8
 10
1628.993877
 20
74.228398
 11
1641.790580
 21
75.627564
  0
LINE
  8
MountainLine
  6
CONTINUOUS
 62
5
 10
1641.876612
 20
145.490154
 11
1534.674659
 21
193.682720
  0
LINE
  8
CutLine
  6
CONTINUOUS
 62
8
 10
1534.674659
 20
193.682720
 11
1506.401123
 21
133.953911
  0
LINE
  8
CutLine
  6
CONTINUOUS
 62
8
 10
1558.200398
 20
314.473317
 11
1552.612281
 21
248.420599
  0
LINE
  8
ValleyLine
  6
CONTINUOUS
 62
1
 10
1552.612281
 20
248.420599
 11
1534.674659
 21
193.682720
  0
LINE
  8
MountainLine
  6
CONTINUOUS
 62
5
 10
1641.876612
 20
145.490154
 11
1597.577219
 21
246.687473
  0
LINE
  8
MountainLine
  6
CONTINUOUS
 62
5
 10
1686.613551
 20
246.493674
 11
1674.792905
 21
331.973439
  0
LINE
  8
CutLine
  6
CONTINUOUS
 62
8
 10
1674.792905
 20
331.973439
 11
1641.876612
 21
429.354624
  0
LINE
  8
ValleyLine
  6
CONTINUOUS
 62
1
 10
1641.876612
 20
429.354624
 11
1641.876612
 21
145.490154
  0
LINE
  8
MountainLine
  6
CONTINUOUS
 62
5
 10
1641.876612
 20
429.354624
 11
1608.783882
 21
331.996616
  0
LINE
  8
ValleyLine
  6
CONTINUOUS
 62
1
 10
1650.449602
 20
575.931163
 11
1651.588341
 21
547.509303
  0
LINE
  8
CutLine
  6
CONTINUOUS
 62
8
 10
1703.117372
 20
547.653466
 11
1650.449602
 21
575.931163
  0
LINE
  8
CutLine
  6
CONTINUOUS
 62
8
 10
1651.588341
 20
547.509303
 11
1653.176484
 21
514.221598
 0
TEXT
100
AcDbText
 8
Edge ID
100
AcDbText
10
1522.682966
20
566.165296
30
0.0
40
3.360000
72
1
11
1522.682966
21
566.165296
31
0.0
1
193
50
-90.000000
 0
TEXT
100
AcDbText
 8
Edge ID
100
AcDbText
10
1548.421644
20
567.321114
30
0.0
40
3.360000
72
1
11
1548.421644
21
567.321114
31
0.0
1
194
50
148.931996
 0
TEXT
100
AcDbText
 8
Edge ID
100
AcDbText
10
1522.791470
20
535.280594
30
0.0
40
3.360000
72
1
11
1522.791470
21
535.280594
31
0.0
1
210
50
-89.562877
 0
TEXT
100
AcDbText
 8
Edge ID
100
AcDbText
10
1548.530148
20
536.436413
30
0.0
40
3.360000
72
1
11
1548.530148
21
536.436413
31
0.0
1
192
50
30.963152
 0
TEXT
100
AcDbText
 8
Edge ID
100
AcDbText
10
1625.330247
20
380.675620
30
0.0
40
3.360000
72
1
11
1625.330247
21
380.675620
31
0.0
1
209
50
251.226710
 0
TEXT
100
AcDbText
 8
Edge ID
100
AcDbText
10
1555.406339
20
281.446958
30
0.0
40
3.360000
72
1
11
1555.406339
21
281.446958
31
0.0
1
139
50
265.164242
 0
TEXT
100
AcDbText
 8
Edge ID
100
AcDbText
10
1543.643470
20
221.051659
30
0.0
40
3.360000
72
1
11
1543.643470
21
221.051659
31
0.0
1
207
50
251.856013
 0
TEXT
100
AcDbText
 8
Edge ID
100
AcDbText
10
1559.193892
20
337.539171
30
0.0
40
3.360000
72
1
11
1559.193892
21
337.539171
31
0.0
1
201
50
267.533676
 0
TEXT
100
AcDbText
 8
Edge ID
100
AcDbText
10
1565.752679
20
435.956138
30
0.0
40
3.360000
72
1
11
1565.752679
21
435.956138
31
0.0
1
140
50
266.458771
 0
TEXT
100
AcDbText
 8
Edge ID
100
AcDbText
10
1602.943329
20
449.676979
30
0.0
40
3.360000
72
1
11
1602.943329
21
449.676979
31
0.0
1
202
50
151.377941
 0
TEXT
100
AcDbText
 8
Edge ID
100
AcDbText
10
1589.853474
20
491.782814
30
0.0
40
3.360000
72
1
11
1589.853474
21
491.782814
31
0.0
1
196
50
245.396234
 0
TEXT
100
AcDbText
 8
Edge ID
100
AcDbText
10
1615.556000
20
453.019707
30
0.0
40
3.360000
72
1
11
1615.556000
21
453.019707
31
0.0
1
202
50
-34.029081
 0
TEXT
100
AcDbText
 8
Edge ID
100
AcDbText
10
1623.352545
20
381.256228
30
0.0
40
3.360000
72
1
11
1623.352545
21
381.256228
31
0.0
1
209
50
73.328335
 0
TEXT
100
AcDbText
 8
Edge ID
100
AcDbText
10
1562.109634
20
391.673008
30
0.0
40
3.360000
72
1
11
1562.109634
21
391.673008
31
0.0
1
200
50
261.962268
 0
TEXT
100
AcDbText
 8
Edge ID
100
AcDbText
10
1560.345155
20
370.450030
30
0.0
40
3.360000
72
1
11
1560.345155
21
370.450030
31
0.0
1
141
50
269.081904
 0
TEXT
100
AcDbText
 8
Edge ID
100
AcDbText
10
1630.112315
20
533.482689
30
0.0
40
3.360000
72
1
11
1630.112315
21
533.482689
31
0.0
1
194
50
140.134445
 0
TEXT
100
AcDbText
 8
Edge ID
100
AcDbText
10
1602.194622
20
530.439071
30
0.0
40
3.360000
72
1
11
1602.194622
21
530.439071
31
0.0
1
143
50
257.723760
 0
TEXT
100
AcDbText
 8
Edge ID
100
AcDbText
10
1520.537891
20
163.818316
30
0.0
40
3.360000
72
1
11
1520.537891
21
163.818316
31
0.0
1
136
50
244.668757
 0
TEXT
100
AcDbText
 8
Edge ID
100
AcDbText
10
1502.271992
20
119.022052
30
0.0
40
3.360000
72
1
11
1502.271992
21
119.022052
31
0.0
1
205
50
254.542193
 0
TEXT
100
AcDbText
 8
Edge ID
100
AcDbText
10
1503.936871
20
71.994305
30
0.0
40
3.360000
72
1
11
1503.936871
21
71.994305
31
0.0
1
178
50
-79.767063
 0
TEXT
100
AcDbText
 8
Edge ID
100
AcDbText
10
1538.365411
20
45.287184
30
0.0
40
3.360000
72
1
11
1538.365411
21
45.287184
31
0.0
1
204
50
10.657911
 0
TEXT
100
AcDbText
 8
Edge ID
100
AcDbText
10
1680.703228
20
289.233556
30
0.0
40
3.360000
72
1
11
1680.703228
21
289.233556
31
0.0
1
208
50
97.873265
 0
TEXT
100
AcDbText
 8
Edge ID
100
AcDbText
10
1658.334759
20
380.664031
30
0.0
40
3.360000
72
1
11
1658.334759
21
380.664031
31
0.0
1
198
50
108.676020
 0
TEXT
100
AcDbText
 8
Edge ID
100
AcDbText
10
1736.758524
20
281.979418
30
0.0
40
3.360000
72
1
11
1736.758524
21
281.979418
31
0.0
1
345
50
106.931074
 0
TEXT
100
AcDbText
 8
Edge ID
100
AcDbText
10
1747.951463
20
221.511916
30
0.0
40
3.360000
72
1
11
1747.951463
21
221.511916
31
0.0
1
206
50
93.066300
 0
TEXT
100
AcDbText
 8
Edge ID
100
AcDbText
10
1726.344226
20
336.761804
30
0.0
40
3.360000
72
1
11
1726.344226
21
336.761804
31
0.0
1
348
50
91.891326
 0
TEXT
100
AcDbText
 8
Edge ID
100
AcDbText
10
1681.964434
20
289.019233
30
0.0
40
3.360000
72
1
11
1681.964434
21
289.019233
31
0.0
1
208
50
-83.209672
 0
TEXT
100
AcDbText
 8
Edge ID
100
AcDbText
10
1721.149174
20
435.239138
30
0.0
40
3.360000
72
1
11
1721.149174
21
435.239138
31
0.0
1
199
50
92.882187
 0
TEXT
100
AcDbText
 8
Edge ID
100
AcDbText
10
1713.773710
20
485.216789
30
0.0
40
3.360000
72
1
11
1713.773710
21
485.216789
31
0.0
1
350
50
108.537702
 0
TEXT
100
AcDbText
 8
Edge ID
100
AcDbText
10
1725.694759
20
369.682093
30
0.0
40
3.360000
72
1
11
1725.694759
21
369.682093
31
0.0
1
197
50
89.345336
 0
TEXT
100
AcDbText
 8
Edge ID
100
AcDbText
10
1724.307076
20
390.920227
30
0.0
40
3.360000
72
1
11
1724.307076
21
390.920227
31
0.0
1
347
50
97.501644
 0
TEXT
100
AcDbText
 8
Edge ID
100
AcDbText
10
1662.811962
20
381.173370
30
0.0
40
3.360000
72
1
11
1662.811962
21
381.173370
31
0.0
1
198
50
-74.117214
 0
TEXT
100
AcDbText
 8
Edge ID
100
AcDbText
10
1652.382413
20
530.865450
30
0.0
40
3.360000
72
1
11
1652.382413
21
530.865450
31
0.0
1
193
50
-87.268513
 0
TEXT
100
AcDbText
 8
Edge ID
100
AcDbText
10
1651.018972
20
561.720233
30
0.0
40
3.360000
72
1
11
1651.018972
21
561.720233
31
0.0
1
210
50
-87.705636
 0
TEXT
100
AcDbText
 8
Edge ID
100
AcDbText
10
1676.783487
20
561.792314
30
0.0
40
3.360000
72
1
11
1676.783487
21
561.792314
31
0.0
1
275
50
151.768335
 0
TEXT
100
AcDbText
 8
Edge ID
100
AcDbText
10
1705.586668
20
524.960751
30
0.0
40
3.360000
72
1
11
1705.586668
21
524.960751
31
0.0
1
195
50
96.210177
 0
TEXT
100
AcDbText
 8
Edge ID
100
AcDbText
10
1763.550270
20
162.850666
30
0.0
40
3.360000
72
1
11
1763.550270
21
162.850666
31
0.0
1
354
50
115.180597
 0
TEXT
100
AcDbText
 8
Edge ID
100
AcDbText
10
1781.626854
20
117.987153
30
0.0
40
3.360000
72
1
11
1781.626854
21
117.987153
31
0.0
1
381
50
105.033292
 0
TEXT
100
AcDbText
 8
Edge ID
100
AcDbText
10
1745.141175
20
45.253280
30
0.0
40
3.360000
72
1
11
1745.141175
21
45.253280
31
0.0
1
82
50
-12.552149
 0
TEXT
100
AcDbText
 8
Edge ID
100
AcDbText
10
1779.613586
20
70.973032
30
0.0
40
3.360000
72
1
11
1779.613586
21
70.973032
31
0.0
1
203
50
79.342549
  0
ENDSEC
  0
EOF
