  0
SECTION
  2
HEADER
  9
$ACADVER
  1
AC1009
  0
ENDSEC
  0
SECTION
  2
BLOCKS
  0
ENDSEC
  0
SECTION
  2
ENTITIES
  0
LINE
  8
CutLine
  6
CONTINUOUS
 62
8
 10
747.402537
 20
96.457033
 11
747.356329
 21
89.386116
  0
LINE
  8
CutLine
  6
CONTINUOUS
 62
8
 10
747.356329
 20
89.386116
 11
702.895293
 21
45.502412
  0
LINE
  8
CutLine
  6
CONTINUOUS
 62
8
 10
702.895293
 20
45.502412
 11
695.824376
 21
45.548621
  0
LINE
  8
CutLine
  6
CONTINUOUS
 62
8
 10
748.320293
 20
178.049202
 11
754.475170
 21
174.568184
  0
LINE
  8
CutLine
  6
CONTINUOUS
 62
8
 10
754.475170
 20
174.568184
 11
764.757370
 21
137.513795
  0
LINE
  8
CutLine
  6
CONTINUOUS
 62
8
 10
764.757370
 20
137.513795
 11
761.276352
 21
131.358918
  0
LINE
  8
CutLine
  6
CONTINUOUS
 62
8
 10
696.502838
 20
562.367913
 11
701.809432
 21
567.041248
  0
LINE
  8
CutLine
  6
CONTINUOUS
 62
8
 10
701.809432
 20
567.041248
 11
742.046286
 21
564.488087
  0
LINE
  8
CutLine
  6
CONTINUOUS
 62
8
 10
742.046286
 20
564.488087
 11
746.719621
 21
559.181493
  0
LINE
  8
CutLine
  6
CONTINUOUS
 62
8
 10
696.506989
 20
486.686895
 11
691.506714
 21
491.686621
  0
LINE
  8
CutLine
  6
CONTINUOUS
 62
8
 10
691.506714
 20
491.686621
 11
691.503112
 21
557.367638
  0
LINE
  8
CutLine
  6
CONTINUOUS
 62
8
 10
691.503112
 20
557.367638
 11
696.502838
 21
562.367913
  0
LINE
  8
CutLine
  6
CONTINUOUS
 62
8
 10
773.063267
 20
573.344497
 11
779.469238
 21
570.350581
  0
LINE
  8
CutLine
  6
CONTINUOUS
 62
8
 10
779.469238
 20
570.350581
 11
801.256829
 21
510.327834
  0
LINE
  8
CutLine
  6
CONTINUOUS
 62
8
 10
801.256829
 20
510.327834
 11
798.262913
 21
503.921863
  0
LINE
  8
CutLine
  6
CONTINUOUS
 62
8
 10
797.329959
 20
430.073005
 11
791.606658
 21
425.920435
  0
LINE
  8
CutLine
  6
CONTINUOUS
 62
8
 10
791.606658
 20
425.920435
 11
771.944292
 21
429.047683
  0
LINE
  8
CutLine
  6
CONTINUOUS
 62
8
 10
771.944292
 20
429.047683
 11
767.791722
 21
434.770983
  0
LINE
  8
CutLine
  6
CONTINUOUS
 62
8
 10
826.737616
 20
105.266926
 11
821.662363
 21
100.343329
  0
LINE
  8
CutLine
  6
CONTINUOUS
 62
8
 10
821.662363
 20
100.343329
 11
791.745763
 21
100.797086
  0
LINE
  8
CutLine
  6
CONTINUOUS
 62
8
 10
791.745763
 20
100.797086
 11
786.822166
 21
105.872340
  0
LINE
  8
CutLine
  6
CONTINUOUS
 62
8
 10
786.822166
 20
105.872340
 11
781.822166
 21
110.872340
  0
LINE
  8
CutLine
  6
CONTINUOUS
 62
8
 10
781.822166
 20
110.872340
 11
781.822166
 21
191.815268
  0
LINE
  8
CutLine
  6
CONTINUOUS
 62
8
 10
781.822166
 20
191.815268
 11
786.822166
 21
196.815268
  0
LINE
  8
CutLine
  6
CONTINUOUS
 62
8
 10
641.780274
 20
337.454580
 11
637.211689
 21
342.851619
  0
LINE
  8
CutLine
  6
CONTINUOUS
 62
8
 10
637.211689
 20
342.851619
 11
641.859085
 21
398.756059
  0
LINE
  8
CutLine
  6
CONTINUOUS
 62
8
 10
641.859085
 20
398.756059
 11
647.256123
 21
403.324645
  0
LINE
  8
CutLine
  6
CONTINUOUS
 62
8
 10
850.682892
 20
338.779278
 11
856.326535
 21
334.519079
  0
LINE
  8
CutLine
  6
CONTINUOUS
 62
8
 10
856.326535
 20
334.519079
 11
862.410294
 21
290.966487
  0
LINE
  8
CutLine
  6
CONTINUOUS
 62
8
 10
862.410294
 20
290.966487
 11
858.150095
 21
285.322844
  0
LINE
  8
CutLine
  6
CONTINUOUS
 62
8
 10
673.074769
 20
392.405652
 11
678.820241
 21
396.527490
  0
LINE
  8
CutLine
  6
CONTINUOUS
 62
8
 10
678.820241
 20
396.527490
 11
741.827706
 21
386.159818
  0
LINE
  8
CutLine
  6
CONTINUOUS
 62
8
 10
741.827706
 20
386.159818
 11
745.949544
 21
380.414346
  0
LINE
  8
CutLine
  6
CONTINUOUS
 62
8
 10
655.996541
 20
252.304113
 11
649.082311
 21
253.785135
  0
LINE
  8
CutLine
  6
CONTINUOUS
 62
8
 10
649.082311
 20
253.785135
 11
634.109327
 21
276.921004
  0
LINE
  8
CutLine
  6
CONTINUOUS
 62
8
 10
634.109327
 20
276.921004
 11
635.590350
 21
283.835234
  0
LINE
  8
CutLine
  6
CONTINUOUS
 62
8
 10
633.148143
 20
412.646641
 11
627.304477
 21
417.869244
  0
LINE
  8
CutLine
  6
CONTINUOUS
 62
8
 10
627.304477
 20
417.869244
 11
625.205149
 21
431.797246
  0
LINE
  8
CutLine
  6
CONTINUOUS
 62
8
 10
625.205149
 20
431.797246
 11
629.404084
 21
437.486617
  0
LINE
  8
CutLine
  6
CONTINUOUS
 62
8
 10
685.215946
 20
488.626958
 11
688.307770
 21
482.267664
  0
LINE
  8
CutLine
  6
CONTINUOUS
 62
8
 10
688.307770
 20
482.267664
 11
676.154679
 21
447.114991
  0
LINE
  8
CutLine
  6
CONTINUOUS
 62
8
 10
676.154679
 20
447.114991
 11
669.024487
 21
441.793354
  0
LINE
  8
CutLine
  6
CONTINUOUS
 62
8
 10
607.946555
 20
472.728287
 11
610.970521
 21
479.120129
  0
LINE
  8
CutLine
  6
CONTINUOUS
 62
8
 10
610.970521
 20
479.120129
 11
648.932958
 21
492.698657
  0
LINE
  8
CutLine
  6
CONTINUOUS
 62
8
 10
648.932958
 20
492.698657
 11
655.324799
 21
489.674692
  0
LINE
  8
CutLine
  6
CONTINUOUS
 62
8
 10
858.326148
 20
414.078284
 11
855.527132
 21
406.129551
  0
LINE
  8
CutLine
  6
CONTINUOUS
 62
8
 10
855.527132
 20
406.129551
 11
851.287898
 21
403.247692
  0
LINE
  8
CutLine
  6
CONTINUOUS
 62
8
 10
851.287898
 20
403.247692
 11
844.341890
 21
404.571694
  0
LINE
  8
CutLine
  6
CONTINUOUS
 62
8
 10
818.668965
 20
393.314350
 11
814.023910
 21
398.645716
  0
LINE
  8
CutLine
  6
CONTINUOUS
 62
8
 10
814.023910
 20
398.645716
 11
816.592281
 21
435.980366
  0
LINE
  8
CutLine
  6
CONTINUOUS
 62
8
 10
816.592281
 20
435.980366
 11
822.069873
 21
442.751014
  0
LINE
  8
CutLine
  6
CONTINUOUS
 62
8
 10
805.264353
 20
489.367796
 11
810.017749
 21
494.602796
  0
LINE
  8
CutLine
  6
CONTINUOUS
 62
8
 10
810.017749
 20
494.602796
 11
829.904150
 21
495.561646
  0
LINE
  8
CutLine
  6
CONTINUOUS
 62
8
 10
829.904150
 20
495.561646
 11
835.139150
 21
490.808250
  0
LINE
  8
CutLine
  6
CONTINUOUS
 62
8
 10
747.402537
 20
96.457033
 11
761.276352
 21
131.358918
  0
LINE
  8
ValleyLine
  6
CONTINUOUS
 62
1
 10
761.276352
 20
131.358918
 11
720.630735
 21
122.001892
  0
LINE
  8
CutLine
  6
CONTINUOUS
 62
8
 10
720.630735
 20
122.001892
 11
644.312329
 21
122.001892
  0
LINE
  8
CutLine
  6
CONTINUOUS
 62
8
 10
644.312329
 20
122.001892
 11
650.207959
 21
48.378104
  0
LINE
  8
CutLine
  6
CONTINUOUS
 62
8
 10
650.207959
 20
48.378104
 11
655.635053
 21
49.262305
  0
LINE
  8
CutLine
  6
CONTINUOUS
 62
8
 10
655.635053
 20
49.262305
 11
662.094037
 21
49.088592
  0
LINE
  8
CutLine
  6
CONTINUOUS
 62
8
 10
662.094037
 20
49.088592
 11
682.148581
 21
48.549212
  0
LINE
  8
CutLine
  6
CONTINUOUS
 62
8
 10
682.148581
 20
48.549212
 11
688.036340
 21
47.257383
  0
LINE
  8
CutLine
  6
CONTINUOUS
 62
8
 10
688.036340
 20
47.257383
 11
695.824376
 21
45.548621
  0
LINE
  8
MountainLine
  6
CONTINUOUS
 62
5
 10
695.824376
 20
45.548621
 11
747.402537
 21
96.457033
  0
LINE
  8
CutLine
  6
CONTINUOUS
 62
8
 10
748.320293
 20
178.049202
 11
720.630735
 21
122.001892
  0
LINE
  8
MountainLine
  6
CONTINUOUS
 62
5
 10
761.276352
 20
131.358918
 11
748.320293
 21
178.049202
  0
LINE
  8
MountainLine
  6
CONTINUOUS
 62
5
 10
746.719621
 20
559.181493
 11
696.502838
 21
562.367913
  0
LINE
  8
MountainLine
  6
CONTINUOUS
 62
5
 10
696.502838
 20
562.367913
 11
696.506989
 21
486.686895
  0
LINE
  8
MountainLine
  6
CONTINUOUS
 62
5
 10
798.262913
 20
503.921863
 11
773.063267
 21
573.344497
  0
LINE
  8
CutLine
  6
CONTINUOUS
 62
8
 10
773.063267
 20
573.344497
 11
746.719621
 21
559.181493
  0
LINE
  8
CutLine
  6
CONTINUOUS
 62
8
 10
696.506989
 20
486.686895
 11
721.425135
 21
415.225700
  0
LINE
  8
CutLine
  6
CONTINUOUS
 62
8
 10
721.425135
 20
415.225700
 11
767.791722
 21
434.770983
  0
LINE
  8
MountainLine
  6
CONTINUOUS
 62
5
 10
767.791722
 20
434.770983
 11
797.329959
 21
430.073005
  0
LINE
  8
CutLine
  6
CONTINUOUS
 62
8
 10
797.329959
 20
430.073005
 11
798.262913
 21
503.921863
  0
LINE
  8
MountainLine
  6
CONTINUOUS
 62
5
 10
786.822166
 20
105.872340
 11
826.737616
 21
105.266926
  0
LINE
  8
CutLine
  6
CONTINUOUS
 62
8
 10
826.737616
 20
105.266926
 11
829.185454
 21
125.267716
  0
LINE
  8
CutLine
  6
CONTINUOUS
 62
8
 10
829.185454
 20
125.267716
 11
829.845168
 21
130.563337
  0
LINE
  8
CutLine
  6
CONTINUOUS
 62
8
 10
829.845168
 20
130.563337
 11
836.209232
 21
149.618578
  0
LINE
  8
CutLine
  6
CONTINUOUS
 62
8
 10
836.209232
 20
149.618578
 11
837.942688
 21
154.808866
  0
LINE
  8
CutLine
  6
CONTINUOUS
 62
8
 10
837.942688
 20
154.808866
 11
847.843498
 21
172.169353
  0
LINE
  8
CutLine
  6
CONTINUOUS
 62
8
 10
847.843498
 20
172.169353
 11
850.636404
 21
177.066543
  0
LINE
  8
CutLine
  6
CONTINUOUS
 62
8
 10
850.636404
 20
177.066543
 11
858.506221
 21
186.167760
  0
LINE
  8
CutLine
  6
CONTINUOUS
 62
8
 10
858.506221
 20
186.167760
 11
786.822166
 21
196.815268
  0
LINE
  8
ValleyLine
  6
CONTINUOUS
 62
1
 10
786.822166
 20
196.815268
 11
786.822166
 21
105.872340
  0
LINE
  8
CutLine
  6
CONTINUOUS
 62
8
 10
666.644050
 20
180.620058
 11
678.669009
 21
181.028114
  0
LINE
  8
CutLine
  6
CONTINUOUS
 62
8
 10
678.669009
 20
181.028114
 11
684.158004
 21
182.314087
  0
LINE
  8
CutLine
  6
CONTINUOUS
 62
8
 10
684.158004
 20
182.314087
 11
703.616426
 21
186.872859
  0
LINE
  8
CutLine
  6
CONTINUOUS
 62
8
 10
703.616426
 20
186.872859
 11
708.598512
 21
189.136211
  0
LINE
  8
CutLine
  6
CONTINUOUS
 62
8
 10
708.598512
 20
189.136211
 11
726.889368
 21
197.445733
  0
LINE
  8
CutLine
  6
CONTINUOUS
 62
8
 10
726.889368
 20
197.445733
 11
731.217761
 21
200.567245
  0
LINE
  8
CutLine
  6
CONTINUOUS
 62
8
 10
731.217761
 20
200.567245
 11
747.535874
 21
212.388527
  0
LINE
  8
CutLine
  6
CONTINUOUS
 62
8
 10
747.535874
 20
212.388527
 11
746.939469
 21
252.304113
  0
LINE
  8
ValleyLine
  6
CONTINUOUS
 62
1
 10
746.939469
 20
252.304113
 11
655.996541
 21
252.304113
  0
LINE
  8
CutLine
  6
CONTINUOUS
 62
8
 10
655.996541
 20
252.304113
 11
666.644050
 21
180.620058
  0
LINE
  8
MountainLine
  6
CONTINUOUS
 62
5
 10
673.074769
 20
392.405652
 11
647.256123
 21
403.324645
  0
LINE
  8
ValleyLine
  6
CONTINUOUS
 62
1
 10
647.256123
 20
403.324645
 11
641.780274
 21
337.454580
  0
LINE
  8
ValleyLine
  6
CONTINUOUS
 62
1
 10
641.780274
 20
337.454580
 11
673.074769
 21
392.405652
  0
LINE
  8
MountainLine
  6
CONTINUOUS
 62
5
 10
844.341890
 20
404.571694
 11
818.668965
 21
393.314350
  0
LINE
  8
ValleyLine
  6
CONTINUOUS
 62
1
 10
818.668965
 20
393.314350
 11
850.682892
 21
338.779278
  0
LINE
  8
CutLine
  6
CONTINUOUS
 62
8
 10
850.682892
 20
338.779278
 11
844.341890
 21
404.571694
  0
LINE
  8
CutLine
  6
CONTINUOUS
 62
8
 10
837.871538
 20
253.709485
 11
858.150095
 21
285.322844
  0
LINE
  8
ValleyLine
  6
CONTINUOUS
 62
1
 10
858.150095
 20
285.322844
 11
850.682892
 21
338.779278
  0
LINE
  8
CutLine
  6
CONTINUOUS
 62
8
 10
818.668965
 20
393.314350
 11
745.949544
 21
380.414346
  0
LINE
  8
MountainLine
  6
CONTINUOUS
 62
5
 10
745.949544
 20
380.414346
 11
746.939469
 21
252.304113
  0
LINE
  8
CutLine
  6
CONTINUOUS
 62
8
 10
746.939469
 20
252.304113
 11
837.871538
 21
253.709485
  0
LINE
  8
MountainLine
  6
CONTINUOUS
 62
5
 10
745.949544
 20
380.414346
 11
673.074769
 21
392.405652
  0
LINE
  8
CutLine
  6
CONTINUOUS
 62
8
 10
641.780274
 20
337.454580
 11
635.590350
 21
283.835234
  0
LINE
  8
MountainLine
  6
CONTINUOUS
 62
5
 10
635.590350
 20
283.835234
 11
655.996541
 21
252.304113
  0
LINE
  8
CutLine
  6
CONTINUOUS
 62
8
 10
607.946555
 20
472.728287
 11
629.404084
 21
437.486617
  0
LINE
  8
ValleyLine
  6
CONTINUOUS
 62
1
 10
629.404084
 20
437.486617
 11
669.024487
 21
441.793354
  0
LINE
  8
ValleyLine
  6
CONTINUOUS
 62
1
 10
669.024487
 20
441.793354
 11
607.946555
 21
472.728287
  0
LINE
  8
ValleyLine
  6
CONTINUOUS
 62
1
 10
647.256123
 20
403.324645
 11
669.024487
 21
441.793354
  0
LINE
  8
ValleyLine
  6
CONTINUOUS
 62
1
 10
669.024487
 20
441.793354
 11
633.148143
 21
412.646641
  0
LINE
  8
CutLine
  6
CONTINUOUS
 62
8
 10
633.148143
 20
412.646641
 11
647.256123
 21
403.324645
  0
LINE
  8
ValleyLine
  6
CONTINUOUS
 62
1
 10
629.404084
 20
437.486617
 11
633.148143
 21
412.646641
  0
LINE
  8
CutLine
  6
CONTINUOUS
 62
8
 10
673.074769
 20
392.405652
 11
669.024487
 21
441.793354
  0
LINE
  8
CutLine
  6
CONTINUOUS
 62
8
 10
685.215946
 20
488.626958
 11
655.324799
 21
489.674692
  0
LINE
  8
ValleyLine
  6
CONTINUOUS
 62
1
 10
655.324799
 20
489.674692
 11
669.024487
 21
441.793354
  0
LINE
  8
ValleyLine
  6
CONTINUOUS
 62
1
 10
669.024487
 20
441.793354
 11
685.215946
 21
488.626958
  0
LINE
  8
MountainLine
  6
CONTINUOUS
 62
5
 10
655.324799
 20
489.674692
 11
607.946555
 21
472.728287
  0
LINE
  8
CutLine
  6
CONTINUOUS
 62
8
 10
861.743451
 20
438.965317
 11
882.736002
 21
474.485926
  0
LINE
  8
ValleyLine
  6
CONTINUOUS
 62
1
 10
882.736002
 20
474.485926
 11
822.069873
 21
442.751014
  0
LINE
  8
ValleyLine
  6
CONTINUOUS
 62
1
 10
822.069873
 20
442.751014
 11
861.743451
 21
438.965317
  0
LINE
  8
ValleyLine
  6
CONTINUOUS
 62
1
 10
822.069873
 20
442.751014
 11
844.341890
 21
404.571694
  0
LINE
  8
MountainLine
  6
CONTINUOUS
 62
5
 10
844.341890
 20
404.571694
 11
858.326148
 21
414.078284
  0
LINE
  8
ValleyLine
  6
CONTINUOUS
 62
1
 10
858.326148
 20
414.078284
 11
822.069873
 21
442.751014
  0
LINE
  8
CutLine
  6
CONTINUOUS
 62
8
 10
858.326148
 20
414.078284
 11
861.743451
 21
438.965317
  0
LINE
  8
ValleyLine
  6
CONTINUOUS
 62
1
 10
822.069873
 20
442.751014
 11
818.668965
 21
393.314350
  0
LINE
  8
MountainLine
  6
CONTINUOUS
 62
5
 10
835.139150
 20
490.808250
 11
805.264353
 21
489.367796
  0
LINE
  8
CutLine
  6
CONTINUOUS
 62
8
 10
805.264353
 20
489.367796
 11
822.069873
 21
442.751014
  0
LINE
  8
ValleyLine
  6
CONTINUOUS
 62
1
 10
822.069873
 20
442.751014
 11
835.139150
 21
490.808250
  0
LINE
  8
CutLine
  6
CONTINUOUS
 62
8
 10
882.736002
 20
474.485926
 11
835.139150
 21
490.808250
 0
TEXT
100
AcDbText
 8
Edge ID
100
AcDbText
10
734.475514
20
150.025547
30
0.0
40
3.360000
72
1
11
734.475514
21
150.025547
31
0.0
1
145
50
243.708831
 0
TEXT
100
AcDbText
 8
Edge ID
100
AcDbText
10
754.798322
20
154.704060
30
0.0
40
3.360000
72
1
11
754.798322
21
154.704060
31
0.0
1
2
50
105.508771
 0
TEXT
100
AcDbText
 8
Edge ID
100
AcDbText
10
754.339445
20
113.907975
30
0.0
40
3.360000
72
1
11
754.339445
21
113.907975
31
0.0
1
457
50
68.321732
 0
TEXT
100
AcDbText
 8
Edge ID
100
AcDbText
10
682.471532
20
122.001892
30
0.0
40
3.360000
72
1
11
682.471532
21
122.001892
31
0.0
1
221
50
180.000000
 0
TEXT
100
AcDbText
 8
Edge ID
100
AcDbText
10
647.260144
20
85.189998
30
0.0
40
3.360000
72
1
11
647.260144
21
85.189998
31
0.0
1
225
50
-85.421650
 0
TEXT
100
AcDbText
 8
Edge ID
100
AcDbText
10
721.613457
20
71.002827
30
0.0
40
3.360000
72
1
11
721.613457
21
71.002827
31
0.0
1
1
50
44.625578
 0
TEXT
100
AcDbText
 8
Edge ID
100
AcDbText
10
782.560840
20
432.421994
30
0.0
40
3.360000
72
1
11
782.560840
21
432.421994
31
0.0
1
15
50
-9.037049
 0
TEXT
100
AcDbText
 8
Edge ID
100
AcDbText
10
797.796436
20
466.997434
30
0.0
40
3.360000
72
1
11
797.796436
21
466.997434
31
0.0
1
456
50
89.276204
 0
TEXT
100
AcDbText
 8
Edge ID
100
AcDbText
10
708.966062
20
450.956297
30
0.0
40
3.360000
72
1
11
708.966062
21
450.956297
31
0.0
1
37
50
-70.776603
 0
TEXT
100
AcDbText
 8
Edge ID
100
AcDbText
10
744.608429
20
424.998341
30
0.0
40
3.360000
72
1
11
744.608429
21
424.998341
31
0.0
1
460
50
22.857277
 0
TEXT
100
AcDbText
 8
Edge ID
100
AcDbText
10
785.663090
20
538.633180
30
0.0
40
3.360000
72
1
11
785.663090
21
538.633180
31
0.0
1
14
50
109.950336
 0
TEXT
100
AcDbText
 8
Edge ID
100
AcDbText
10
759.891444
20
566.262995
30
0.0
40
3.360000
72
1
11
759.891444
21
566.262995
31
0.0
1
463
50
208.263589
 0
TEXT
100
AcDbText
 8
Edge ID
100
AcDbText
10
721.611229
20
560.774703
30
0.0
40
3.360000
72
1
11
721.611229
21
560.774703
31
0.0
1
12
50
176.369262
 0
TEXT
100
AcDbText
 8
Edge ID
100
AcDbText
10
696.504913
20
524.527404
30
0.0
40
3.360000
72
1
11
696.504913
21
524.527404
31
0.0
1
13
50
-89.996857
 0
TEXT
100
AcDbText
 8
Edge ID
100
AcDbText
10
822.664194
20
191.491514
30
0.0
40
3.360000
72
1
11
822.664194
21
191.491514
31
0.0
1
18
50
171.551408
 0
TEXT
100
AcDbText
 8
Edge ID
100
AcDbText
10
786.822166
20
151.343804
30
0.0
40
3.360000
72
1
11
786.822166
21
151.343804
31
0.0
1
57
50
-90.000000
 0
TEXT
100
AcDbText
 8
Edge ID
100
AcDbText
10
806.779891
20
105.569633
30
0.0
40
3.360000
72
1
11
806.779891
21
105.569633
31
0.0
1
56
50
-0.868962
 0
TEXT
100
AcDbText
 8
Edge ID
100
AcDbText
10
631.276114
20
425.066629
30
0.0
40
3.360000
72
1
11
631.276114
21
425.066629
31
0.0
1
458
50
-81.428493
 0
TEXT
100
AcDbText
 8
Edge ID
100
AcDbText
10
631.635677
20
481.201490
30
0.0
40
3.360000
72
1
11
631.635677
21
481.201490
31
0.0
1
460
50
199.681279
 0
TEXT
100
AcDbText
 8
Edge ID
100
AcDbText
10
671.049628
20
417.099503
30
0.0
40
3.360000
72
1
11
671.049628
21
417.099503
31
0.0
1
459
50
94.688331
 0
TEXT
100
AcDbText
 8
Edge ID
100
AcDbText
10
670.270372
20
489.150825
30
0.0
40
3.360000
72
1
11
670.270372
21
489.150825
31
0.0
1
15
50
177.992512
 0
TEXT
100
AcDbText
 8
Edge ID
100
AcDbText
10
677.120216
20
465.210156
30
0.0
40
3.360000
72
1
11
677.120216
21
465.210156
31
0.0
1
459
50
70.928550
 0
TEXT
100
AcDbText
 8
Edge ID
100
AcDbText
10
618.675320
20
455.107452
30
0.0
40
3.360000
72
1
11
618.675320
21
455.107452
31
0.0
1
74
50
-58.664098
 0
TEXT
100
AcDbText
 8
Edge ID
100
AcDbText
10
709.512157
20
386.409999
30
0.0
40
3.360000
72
1
11
709.512157
21
386.409999
31
0.0
1
456
50
170.655899
 0
TEXT
100
AcDbText
 8
Edge ID
100
AcDbText
10
638.685312
20
310.644907
30
0.0
40
3.360000
72
1
11
638.685312
21
310.644907
31
0.0
1
148
50
263.414811
 0
TEXT
100
AcDbText
 8
Edge ID
100
AcDbText
10
645.793445
20
268.069673
30
0.0
40
3.360000
72
1
11
645.793445
21
268.069673
31
0.0
1
457
50
-57.090017
 0
TEXT
100
AcDbText
 8
Edge ID
100
AcDbText
10
640.202133
20
407.985643
30
0.0
40
3.360000
72
1
11
640.202133
21
407.985643
31
0.0
1
149
50
-33.455153
 0
TEXT
100
AcDbText
 8
Edge ID
100
AcDbText
10
644.518199
20
370.389613
30
0.0
40
3.360000
72
1
11
644.518199
21
370.389613
31
0.0
1
454
50
265.247867
 0
TEXT
100
AcDbText
 8
Edge ID
100
AcDbText
10
747.237672
20
232.346320
30
0.0
40
3.360000
72
1
11
747.237672
21
232.346320
31
0.0
1
56
50
90.856030
 0
TEXT
100
AcDbText
 8
Edge ID
100
AcDbText
10
661.320295
20
216.462085
30
0.0
40
3.360000
72
1
11
661.320295
21
216.462085
31
0.0
1
1
50
-81.551408
 0
TEXT
100
AcDbText
 8
Edge ID
100
AcDbText
10
860.034800
20
426.521801
30
0.0
40
3.360000
72
1
11
860.034800
21
426.521801
31
0.0
1
41
50
82.181462
 0
TEXT
100
AcDbText
 8
Edge ID
100
AcDbText
10
858.937576
20
482.647088
30
0.0
40
3.360000
72
1
11
858.937576
21
482.647088
31
0.0
1
12
50
161.071690
 0
TEXT
100
AcDbText
 8
Edge ID
100
AcDbText
10
820.369419
20
418.032682
30
0.0
40
3.360000
72
1
11
820.369419
21
418.032682
31
0.0
1
462
50
266.064638
 0
TEXT
100
AcDbText
 8
Edge ID
100
AcDbText
10
820.201752
20
490.088023
30
0.0
40
3.360000
72
1
11
820.201752
21
490.088023
31
0.0
1
463
50
182.760457
 0
TEXT
100
AcDbText
 8
Edge ID
100
AcDbText
10
813.667113
20
466.059405
30
0.0
40
3.360000
72
1
11
813.667113
21
466.059405
31
0.0
1
462
50
-70.175581
 0
TEXT
100
AcDbText
 8
Edge ID
100
AcDbText
10
872.239727
20
456.725622
30
0.0
40
3.360000
72
1
11
872.239727
21
456.725622
31
0.0
1
24
50
59.417067
 0
TEXT
100
AcDbText
 8
Edge ID
100
AcDbText
10
848.010817
20
269.516165
30
0.0
40
3.360000
72
1
11
848.010817
21
269.516165
31
0.0
1
17
50
57.321642
 0
TEXT
100
AcDbText
 8
Edge ID
100
AcDbText
10
854.416493
20
312.051061
30
0.0
40
3.360000
72
1
11
854.416493
21
312.051061
31
0.0
1
455
50
97.952056
 0
TEXT
100
AcDbText
 8
Edge ID
100
AcDbText
10
782.309255
20
386.864348
30
0.0
40
3.360000
72
1
11
782.309255
21
386.864348
31
0.0
1
14
50
190.059293
 0
TEXT
100
AcDbText
 8
Edge ID
100
AcDbText
10
792.405504
20
253.006799
30
0.0
40
3.360000
72
1
11
792.405504
21
253.006799
31
0.0
1
57
50
0.885447
 0
TEXT
100
AcDbText
 8
Edge ID
100
AcDbText
10
851.334019
20
409.324989
30
0.0
40
3.360000
72
1
11
851.334019
21
409.324989
31
0.0
1
461
50
34.208122
 0
TEXT
100
AcDbText
 8
Edge ID
100
AcDbText
10
847.512391
20
371.675486
30
0.0
40
3.360000
72
1
11
847.512391
21
371.675486
31
0.0
1
21
50
95.505102
  0
ENDSEC
  0
EOF
