  0
SECTION
  2
HEADER
  9
$ACADVER
  1
AC1009
  0
ENDSEC
  0
SECTION
  2
BLOCKS
  0
ENDSEC
  0
SECTION
  2
ENTITIES
  0
LINE
  8
CutLine
  6
CONTINUOUS
 62
8
 10
1105.923868
 20
266.912689
 11
1104.496063
 21
259.987274
  0
LINE
  8
CutLine
  6
CONTINUOUS
 62
8
 10
1104.496063
 20
259.987274
 11
1078.332261
 21
242.767759
  0
LINE
  8
CutLine
  6
CONTINUOUS
 62
8
 10
1078.332261
 20
242.767759
 11
1071.406845
 21
244.195564
  0
LINE
  8
CutLine
  6
CONTINUOUS
 62
8
 10
1030.644307
 20
237.420017
 11
1025.691014
 21
242.466293
  0
LINE
  8
CutLine
  6
CONTINUOUS
 62
8
 10
1025.691014
 20
242.466293
 11
1026.067448
 21
282.948528
  0
LINE
  8
CutLine
  6
CONTINUOUS
 62
8
 10
1026.067448
 20
282.948528
 11
1031.116187
 21
288.166761
  0
LINE
  8
CutLine
  6
CONTINUOUS
 62
8
 10
1031.116187
 20
288.166761
 11
1034.101464
 21
294.576762
  0
LINE
  8
CutLine
  6
CONTINUOUS
 62
8
 10
1034.101464
 20
294.576762
 11
1064.996844
 21
305.838606
  0
LINE
  8
CutLine
  6
CONTINUOUS
 62
8
 10
1064.996844
 20
305.838606
 11
1071.406845
 21
302.853329
  0
LINE
  8
CutLine
  6
CONTINUOUS
 62
8
 10
1099.591450
 20
98.719439
 11
1100.034531
 21
105.776611
  0
LINE
  8
CutLine
  6
CONTINUOUS
 62
8
 10
1100.034531
 20
105.776611
 11
1120.001644
 21
123.384593
  0
LINE
  8
CutLine
  6
CONTINUOUS
 62
8
 10
1120.001644
 20
123.384593
 11
1127.058816
 21
122.941513
  0
LINE
  8
CutLine
  6
CONTINUOUS
 62
8
 10
1127.058816
 20
52.114468
 11
1120.212558
 21
53.883293
  0
LINE
  8
CutLine
  6
CONTINUOUS
 62
8
 10
1120.212558
 20
53.883293
 11
1097.822625
 21
91.873180
  0
LINE
  8
CutLine
  6
CONTINUOUS
 62
8
 10
1097.822625
 20
91.873180
 11
1099.591450
 21
98.719439
  0
LINE
  8
CutLine
  6
CONTINUOUS
 62
8
 10
1168.709875
 20
6.667781
 11
1161.700066
 21
7.596531
  0
LINE
  8
CutLine
  6
CONTINUOUS
 62
8
 10
1161.700066
 20
7.596531
 11
1159.317827
 21
10.706441
  0
LINE
  8
CutLine
  6
CONTINUOUS
 62
8
 10
1159.317827
 20
10.706441
 11
1160.246577
 21
17.716250
  0
LINE
  8
CutLine
  6
CONTINUOUS
 62
8
 10
1143.354366
 20
67.692543
 11
1149.890136
 21
64.993709
  0
LINE
  8
CutLine
  6
CONTINUOUS
 62
8
 10
1149.890136
 20
64.993709
 11
1171.408709
 21
13.203551
  0
LINE
  8
CutLine
  6
CONTINUOUS
 62
8
 10
1171.408709
 20
13.203551
 11
1168.709875
 21
6.667781
  0
LINE
  8
CutLine
  6
CONTINUOUS
 62
8
 10
1160.246577
 20
17.716250
 11
1156.602151
 21
11.656699
  0
LINE
  8
CutLine
  6
CONTINUOUS
 62
8
 10
1156.602151
 20
11.656699
 11
1132.569227
 21
5.675390
  0
LINE
  8
CutLine
  6
CONTINUOUS
 62
8
 10
1132.569227
 20
5.675390
 11
1126.509676
 21
9.319817
  0
LINE
  8
CutLine
  6
CONTINUOUS
 62
8
 10
1122.132690
 20
137.517360
 11
1119.905330
 21
130.806260
  0
LINE
  8
CutLine
  6
CONTINUOUS
 62
8
 10
1119.905330
 20
130.806260
 11
1090.893054
 21
116.253026
  0
LINE
  8
CutLine
  6
CONTINUOUS
 62
8
 10
1090.893054
 20
116.253026
 11
1084.181954
 21
118.480386
  0
LINE
  8
CutLine
  6
CONTINUOUS
 62
8
 10
1078.123078
 20
146.337911
 11
1084.405493
 21
149.583101
  0
LINE
  8
CutLine
  6
CONTINUOUS
 62
8
 10
1084.405493
 20
149.583101
 11
1096.292787
 21
145.793649
  0
LINE
  8
CutLine
  6
CONTINUOUS
 62
8
 10
1096.292787
 20
145.793649
 11
1099.537976
 21
139.511233
  0
LINE
  8
CutLine
  6
CONTINUOUS
 62
8
 10
923.860101
 20
141.415046
 11
925.051683
 21
148.384991
  0
LINE
  8
CutLine
  6
CONTINUOUS
 62
8
 10
925.051683
 20
148.384991
 11
935.784596
 21
155.983893
  0
LINE
  8
CutLine
  6
CONTINUOUS
 62
8
 10
1034.103158
 20
170.410434
 11
1035.699451
 21
169.272723
  0
LINE
  8
CutLine
  6
CONTINUOUS
 62
8
 10
999.827980
 20
218.234516
 11
1006.687808
 21
215.857491
  0
LINE
  8
CutLine
  6
CONTINUOUS
 62
8
 10
1006.687808
 20
215.857491
 11
1017.499509
 21
194.964210
  0
LINE
  8
CutLine
  6
CONTINUOUS
 62
8
 10
1017.499509
 20
194.964210
 11
1015.356764
 21
188.225617
  0
LINE
  8
CutLine
  6
CONTINUOUS
 62
8
 10
981.912205
 20
211.800871
 11
984.928114
 21
218.196518
  0
LINE
  8
CutLine
  6
CONTINUOUS
 62
8
 10
984.928114
 20
218.196518
 11
993.432333
 21
221.250426
  0
LINE
  8
CutLine
  6
CONTINUOUS
 62
8
 10
993.432333
 20
221.250426
 11
999.827980
 21
218.234516
  0
LINE
  8
CutLine
  6
CONTINUOUS
 62
8
 10
926.540588
 20
85.672750
 11
921.306201
 21
90.426820
  0
LINE
  8
CutLine
  6
CONTINUOUS
 62
8
 10
921.306201
 20
90.426820
 11
919.106030
 21
136.180659
  0
LINE
  8
CutLine
  6
CONTINUOUS
 62
8
 10
919.106030
 20
136.180659
 11
923.860101
 21
141.415046
  0
LINE
  8
CutLine
  6
CONTINUOUS
 62
8
 10
972.784228
 20
25.565323
 11
970.742463
 21
29.403493
  0
LINE
  8
CutLine
  6
CONTINUOUS
 62
8
 10
1035.589898
 20
52.536885
 11
1039.184025
 21
46.447365
  0
LINE
  8
CutLine
  6
CONTINUOUS
 62
8
 10
1039.184025
 20
46.447365
 11
1031.491899
 21
16.597218
  0
LINE
  8
CutLine
  6
CONTINUOUS
 62
8
 10
1031.491899
 20
16.597218
 11
1025.402379
 21
13.003091
  0
LINE
  8
CutLine
  6
CONTINUOUS
 62
8
 10
969.408246
 20
26.998731
 11
965.997312
 21
20.763477
  0
LINE
  8
CutLine
  6
CONTINUOUS
 62
8
 10
965.997312
 20
20.763477
 11
934.616686
 21
11.402278
  0
LINE
  8
CutLine
  6
CONTINUOUS
 62
8
 10
934.616686
 20
11.402278
 11
928.396019
 21
14.764315
  0
LINE
  8
CutLine
  6
CONTINUOUS
 62
8
 10
966.773169
 20
76.147073
 11
968.644222
 21
76.051632
  0
LINE
  8
CutLine
  6
CONTINUOUS
 62
8
 10
968.644222
 20
76.051632
 11
973.383014
 21
70.803408
  0
LINE
  8
CutLine
  6
CONTINUOUS
 62
8
 10
995.603198
 20
74.189382
 11
1001.878129
 21
76.013074
  0
LINE
  8
CutLine
  6
CONTINUOUS
 62
8
 10
1001.878129
 20
76.013074
 11
1002.602320
 21
69.518756
  0
LINE
  8
CutLine
  6
CONTINUOUS
 62
8
 10
1001.791952
 20
77.894063
 11
1007.992846
 21
81.292431
  0
LINE
  8
CutLine
  6
CONTINUOUS
 62
8
 10
1007.992846
 20
81.292431
 11
1035.224353
 21
73.342134
  0
LINE
  8
CutLine
  6
CONTINUOUS
 62
8
 10
1035.224353
 20
73.342134
 11
1038.622721
 21
67.141240
  0
LINE
  8
CutLine
  6
CONTINUOUS
 62
8
 10
1038.622721
 20
67.141240
 11
1042.501637
 21
61.229047
  0
LINE
  8
CutLine
  6
CONTINUOUS
 62
8
 10
1042.501637
 20
61.229047
 11
1041.502090
 21
56.415800
  0
LINE
  8
CutLine
  6
CONTINUOUS
 62
8
 10
1041.502090
 20
56.415800
 11
1035.589898
 21
52.536885
  0
LINE
  8
CutLine
  6
CONTINUOUS
 62
8
 10
1124.803601
 20
223.711218
 11
1131.729016
 21
225.139023
  0
LINE
  8
CutLine
  6
CONTINUOUS
 62
8
 10
1131.729016
 20
225.139023
 11
1157.892818
 21
207.919508
  0
LINE
  8
CutLine
  6
CONTINUOUS
 62
8
 10
1157.892818
 20
207.919508
 11
1159.320623
 21
200.994093
  0
LINE
  8
CutLine
  6
CONTINUOUS
 62
8
 10
1084.512942
 20
179.740021
 11
1079.464203
 21
184.958254
  0
LINE
  8
CutLine
  6
CONTINUOUS
 62
8
 10
1079.464203
 20
184.958254
 11
1079.087770
 21
225.440489
  0
LINE
  8
CutLine
  6
CONTINUOUS
 62
8
 10
1079.087770
 20
225.440489
 11
1084.041062
 21
230.486764
  0
LINE
  8
CutLine
  6
CONTINUOUS
 62
8
 10
1124.803601
 20
165.053452
 11
1118.393599
 21
162.068175
  0
LINE
  8
CutLine
  6
CONTINUOUS
 62
8
 10
1118.393599
 20
162.068175
 11
1087.498219
 21
173.330019
  0
LINE
  8
CutLine
  6
CONTINUOUS
 62
8
 10
1087.498219
 20
173.330019
 11
1084.512942
 21
179.740021
  0
LINE
  8
CutLine
  6
CONTINUOUS
 62
8
 10
986.875066
 20
454.078578
 11
991.694352
 21
459.321786
  0
LINE
  8
CutLine
  6
CONTINUOUS
 62
8
 10
991.694352
 20
459.321786
 11
1004.290459
 21
459.941643
  0
LINE
  8
CutLine
  6
CONTINUOUS
 62
8
 10
1004.290459
 20
459.941643
 11
1009.530170
 21
455.193440
  0
LINE
  8
CutLine
  6
CONTINUOUS
 62
8
 10
963.466709
 20
540.131940
 11
970.438437
 21
541.313042
  0
LINE
  8
CutLine
  6
CONTINUOUS
 62
8
 10
970.438437
 20
541.313042
 11
992.142839
 21
525.897284
  0
LINE
  8
CutLine
  6
CONTINUOUS
 62
8
 10
992.142839
 20
525.897284
 11
993.323941
 21
518.925555
  0
LINE
  8
CutLine
  6
CONTINUOUS
 62
8
 10
934.245473
 20
420.129811
 11
930.875776
 21
426.346333
  0
LINE
  8
CutLine
  6
CONTINUOUS
 62
8
 10
930.875776
 20
426.346333
 11
946.841535
 21
480.108439
  0
LINE
  8
CutLine
  6
CONTINUOUS
 62
8
 10
946.841535
 20
480.108439
 11
953.058056
 21
483.478136
  0
LINE
  8
CutLine
  6
CONTINUOUS
 62
8
 10
941.502804
 20
432.005299
 11
943.161926
 21
425.131631
  0
LINE
  8
CutLine
  6
CONTINUOUS
 62
8
 10
943.161926
 20
425.131631
 11
941.119141
 21
421.788933
  0
LINE
  8
CutLine
  6
CONTINUOUS
 62
8
 10
941.119141
 20
421.788933
 11
934.245473
 21
420.129811
  0
LINE
  8
CutLine
  6
CONTINUOUS
 62
8
 10
975.934474
 20
427.195027
 11
970.290759
 21
422.934924
  0
LINE
  8
CutLine
  6
CONTINUOUS
 62
8
 10
970.290759
 20
422.934924
 11
945.762908
 21
426.361584
  0
LINE
  8
CutLine
  6
CONTINUOUS
 62
8
 10
945.762908
 20
426.361584
 11
941.502804
 21
432.005299
  0
LINE
  8
CutLine
  6
CONTINUOUS
 62
8
 10
988.378622
 20
470.404068
 11
983.585130
 21
465.205757
  0
LINE
  8
CutLine
  6
CONTINUOUS
 62
8
 10
983.585130
 20
465.205757
 11
976.096485
 21
464.902353
  0
LINE
  8
CutLine
  6
CONTINUOUS
 62
8
 10
976.096485
 20
464.902353
 11
970.898174
 21
469.695844
  0
LINE
  8
CutLine
  6
CONTINUOUS
 62
8
 10
1031.193990
 20
461.183457
 11
1024.717538
 21
460.313863
  0
LINE
  8
CutLine
  6
CONTINUOUS
 62
8
 10
1024.717538
 20
460.313863
 11
1024.967850
 21
466.843638
  0
LINE
  8
CutLine
  6
CONTINUOUS
 62
8
 10
1173.806290
 20
465.338736
 11
1184.115265
 21
457.500743
  0
LINE
  8
CutLine
  6
CONTINUOUS
 62
8
 10
1184.115265
 20
457.500743
 11
1185.069293
 21
450.494329
  0
LINE
  8
CutLine
  6
CONTINUOUS
 62
8
 10
1074.470732
 20
482.459356
 11
1075.742051
 21
483.293164
  0
LINE
  8
CutLine
  6
CONTINUOUS
 62
8
 10
1185.980889
 20
592.313745
 11
1191.133612
 21
587.471283
  0
LINE
  8
CutLine
  6
CONTINUOUS
 62
8
 10
1191.133612
 20
587.471283
 11
1194.737613
 21
471.366493
  0
LINE
  8
CutLine
  6
CONTINUOUS
 62
8
 10
1194.737613
 20
471.366493
 11
1189.895150
 21
466.213770
  0
LINE
  8
CutLine
  6
CONTINUOUS
 62
8
 10
1111.986833
 20
529.809355
 11
1118.484973
 21
532.597576
  0
LINE
  8
CutLine
  6
CONTINUOUS
 62
8
 10
1118.484973
 20
532.597576
 11
1126.876067
 21
529.245316
  0
LINE
  8
CutLine
  6
CONTINUOUS
 62
8
 10
1126.876067
 20
529.245316
 11
1129.664287
 21
522.747176
  0
LINE
  8
CutLine
  6
CONTINUOUS
 62
8
 10
1074.677146
 20
483.514448
 11
1075.402915
 21
490.548171
  0
LINE
  8
CutLine
  6
CONTINUOUS
 62
8
 10
1075.402915
 20
490.548171
 11
1086.171991
 21
499.302716
  0
LINE
  8
CutLine
  6
CONTINUOUS
 62
8
 10
1086.171991
 20
499.302716
 11
1095.408216
 21
500.367435
  0
LINE
  8
CutLine
  6
CONTINUOUS
 62
8
 10
1138.556199
 20
381.461138
 11
1122.417747
 21
386.578042
  0
LINE
  8
CutLine
  6
CONTINUOUS
 62
8
 10
1122.417747
 20
386.578042
 11
1114.664876
 21
394.281494
  0
LINE
  8
CutLine
  6
CONTINUOUS
 62
8
 10
1148.936684
 20
423.140548
 11
1149.411997
 21
424.220174
  0
LINE
  8
CutLine
  6
CONTINUOUS
 62
8
 10
1183.768100
 20
449.535543
 11
1185.633735
 21
449.220002
  0
LINE
  8
CutLine
  6
CONTINUOUS
 62
8
 10
1180.002569
 20
393.895192
 11
1186.368594
 21
390.817251
  0
LINE
  8
CutLine
  6
CONTINUOUS
 62
8
 10
1186.368594
 20
390.817251
 11
1193.896589
 21
369.195504
  0
LINE
  8
CutLine
  6
CONTINUOUS
 62
8
 10
1193.896589
 20
369.195504
 11
1190.818648
 21
362.829478
  0
LINE
  8
CutLine
  6
CONTINUOUS
 62
8
 10
1174.486600
 20
323.177282
 11
1168.100561
 21
320.141083
  0
LINE
  8
CutLine
  6
CONTINUOUS
 62
8
 10
1168.100561
 20
320.141083
 11
1137.245419
 21
331.110856
  0
LINE
  8
CutLine
  6
CONTINUOUS
 62
8
 10
1137.245419
 20
331.110856
 11
1134.161142
 21
337.513988
  0
LINE
  8
CutLine
  6
CONTINUOUS
 62
8
 10
1126.475085
 20
353.229973
 11
1119.439406
 21
353.936522
  0
LINE
  8
CutLine
  6
CONTINUOUS
 62
8
 10
1119.439406
 20
353.936522
 11
1102.501355
 21
374.656314
  0
LINE
  8
CutLine
  6
CONTINUOUS
 62
8
 10
1102.501355
 20
374.656314
 11
1103.207904
 21
381.691993
  0
LINE
  8
CutLine
  6
CONTINUOUS
 62
8
 10
1110.438958
 20
385.994820
 11
1116.343946
 21
389.884693
  0
LINE
  8
CutLine
  6
CONTINUOUS
 62
8
 10
1116.343946
 20
389.884693
 11
1119.806892
 21
389.172254
  0
LINE
  8
CutLine
  6
CONTINUOUS
 62
8
 10
1130.847343
 20
383.905330
 11
1132.454560
 21
381.465508
  0
LINE
  8
CutLine
  6
CONTINUOUS
 62
8
 10
989.539047
 20
362.364459
 11
994.976977
 21
366.884295
  0
LINE
  8
CutLine
  6
CONTINUOUS
 62
8
 10
994.976977
 20
366.884295
 11
1023.965854
 21
364.211553
  0
LINE
  8
CutLine
  6
CONTINUOUS
 62
8
 10
1023.965854
 20
364.211553
 11
1028.485689
 21
358.773623
  0
LINE
  8
ValleyLine
  6
CONTINUOUS
 62
1
 10
1071.406845
 20
302.853329
 11
1071.406845
 21
244.195564
  0
LINE
  8
ValleyLine
  6
CONTINUOUS
 62
1
 10
1071.406845
 20
244.195564
 11
1105.923868
 21
266.912689
  0
LINE
  8
CutLine
  6
CONTINUOUS
 62
8
 10
1105.923868
 20
266.912689
 11
1101.197913
 21
320.774570
  0
LINE
  8
CutLine
  6
CONTINUOUS
 62
8
 10
1101.197913
 20
320.774570
 11
1071.406845
 21
302.853329
  0
LINE
  8
ValleyLine
  6
CONTINUOUS
 62
1
 10
1071.406845
 20
244.195564
 11
1031.116187
 21
288.166761
  0
LINE
  8
MountainLine
  6
CONTINUOUS
 62
5
 10
1031.116187
 20
288.166761
 11
1030.644307
 21
237.420017
  0
LINE
  8
CutLine
  6
CONTINUOUS
 62
8
 10
1030.644307
 20
237.420017
 11
1071.406845
 21
244.195564
  0
LINE
  8
MountainLine
  6
CONTINUOUS
 62
5
 10
1071.406845
 20
302.853329
 11
1031.116187
 21
288.166761
  0
LINE
  8
MountainLine
  6
CONTINUOUS
 62
5
 10
1127.058816
 20
52.114468
 11
1143.354366
 21
67.692543
  0
LINE
  8
CutLine
  6
CONTINUOUS
 62
8
 10
1143.354366
 20
67.692543
 11
1127.058816
 21
122.941513
  0
LINE
  8
MountainLine
  6
CONTINUOUS
 62
5
 10
1127.058816
 20
122.941513
 11
1099.591450
 21
98.719439
  0
LINE
  8
ValleyLine
  6
CONTINUOUS
 62
1
 10
1099.591450
 20
98.719439
 11
1127.058816
 21
52.114468
  0
LINE
  8
MountainLine
  6
CONTINUOUS
 62
5
 10
1127.058816
 20
52.114468
 11
1160.246577
 21
17.716250
  0
LINE
  8
MountainLine
  6
CONTINUOUS
 62
5
 10
1160.246577
 20
17.716250
 11
1168.709875
 21
6.667781
  0
LINE
  8
ValleyLine
  6
CONTINUOUS
 62
1
 10
1168.709875
 20
6.667781
 11
1143.354366
 21
67.692543
  0
LINE
  8
ValleyLine
  6
CONTINUOUS
 62
1
 10
1126.509676
 20
9.319817
 11
1160.246577
 21
17.716250
  0
LINE
  8
CutLine
  6
CONTINUOUS
 62
8
 10
1127.058816
 20
52.114468
 11
1126.509676
 21
9.319817
  0
LINE
  8
CutLine
  6
CONTINUOUS
 62
8
 10
1122.132690
 20
137.517360
 11
1099.537976
 21
139.511233
  0
LINE
  8
MountainLine
  6
CONTINUOUS
 62
5
 10
1099.537976
 20
139.511233
 11
1084.181954
 21
118.480386
  0
LINE
  8
MountainLine
  6
CONTINUOUS
 62
5
 10
1084.181954
 20
118.480386
 11
1122.132690
 21
137.517360
  0
LINE
  8
ValleyLine
  6
CONTINUOUS
 62
1
 10
1099.537976
 20
139.511233
 11
1078.123078
 21
146.337911
  0
LINE
  8
CutLine
  6
CONTINUOUS
 62
8
 10
1078.123078
 20
146.337911
 11
1066.102492
 21
182.774628
  0
LINE
  8
MountainLine
  6
CONTINUOUS
 62
5
 10
1066.102492
 20
182.774628
 11
1039.105262
 21
139.269055
  0
LINE
  8
CutLine
  6
CONTINUOUS
 62
8
 10
1039.105262
 20
139.269055
 11
1065.167867
 21
125.588599
  0
LINE
  8
CutLine
  6
CONTINUOUS
 62
8
 10
1065.167867
 20
125.588599
 11
1084.181954
 21
118.480386
  0
LINE
  8
CutLine
  6
CONTINUOUS
 62
8
 10
1066.102492
 20
182.774628
 11
1035.699451
 21
169.272723
  0
LINE
  8
MountainLine
  6
CONTINUOUS
 62
5
 10
1035.699451
 20
169.272723
 11
1039.105262
 21
139.269055
  0
LINE
  8
ValleyLine
  6
CONTINUOUS
 62
1
 10
943.463114
 20
155.293980
 11
923.860101
 21
141.415046
  0
LINE
  8
MountainLine
  6
CONTINUOUS
 62
5
 10
923.860101
 20
141.415046
 11
959.100818
 21
113.399086
  0
LINE
  8
ValleyLine
  6
CONTINUOUS
 62
1
 10
959.100818
 20
113.399086
 11
943.463114
 21
155.293980
  0
LINE
  8
MountainLine
  6
CONTINUOUS
 62
5
 10
967.590669
 20
111.695128
 11
989.394661
 21
106.789187
  0
LINE
  8
CutLine
  6
CONTINUOUS
 62
8
 10
989.394661
 20
106.789187
 11
993.844461
 21
118.390913
  0
LINE
  8
MountainLine
  6
CONTINUOUS
 62
5
 10
993.844461
 20
118.390913
 11
973.346818
 21
133.380077
  0
LINE
  8
MountainLine
  6
CONTINUOUS
 62
5
 10
973.346818
 20
133.380077
 11
943.463114
 21
155.293980
  0
LINE
  8
MountainLine
  6
CONTINUOUS
 62
5
 10
959.100818
 20
113.399086
 11
967.590669
 21
111.695128
  0
LINE
  8
ValleyLine
  6
CONTINUOUS
 62
1
 10
1035.699451
 20
169.272723
 11
990.167599
 21
162.727094
  0
LINE
  8
ValleyLine
  6
CONTINUOUS
 62
1
 10
990.167599
 20
162.727094
 11
943.463114
 21
155.293980
  0
LINE
  8
CutLine
  6
CONTINUOUS
 62
8
 10
993.844461
 20
118.390913
 11
1039.105262
 21
139.269055
  0
LINE
  8
MountainLine
  6
CONTINUOUS
 62
5
 10
981.912205
 20
211.800871
 11
919.725005
 21
157.426843
  0
LINE
  8
CutLine
  6
CONTINUOUS
 62
8
 10
919.725005
 20
157.426843
 11
943.463114
 21
155.293980
  0
LINE
  8
ValleyLine
  6
CONTINUOUS
 62
1
 10
943.463114
 20
155.293980
 11
981.912205
 21
211.800871
  0
LINE
  8
CutLine
  6
CONTINUOUS
 62
8
 10
981.912205
 20
211.800871
 11
928.084095
 21
283.310324
  0
LINE
  8
CutLine
  6
CONTINUOUS
 62
8
 10
928.084095
 20
283.310324
 11
919.725005
 21
157.426843
  0
LINE
  8
MountainLine
  6
CONTINUOUS
 62
5
 10
1015.356764
 20
188.225617
 11
999.827980
 21
218.234516
  0
LINE
  8
MountainLine
  6
CONTINUOUS
 62
5
 10
999.827980
 20
218.234516
 11
981.912205
 21
211.800871
  0
LINE
  8
ValleyLine
  6
CONTINUOUS
 62
1
 10
981.912205
 20
211.800871
 11
1015.356764
 21
188.225617
  0
LINE
  8
CutLine
  6
CONTINUOUS
 62
8
 10
1035.479887
 20
170.651193
 11
1015.356764
 21
188.225617
  0
LINE
  8
CutLine
  6
CONTINUOUS
 62
8
 10
990.167599
 20
162.727094
 11
1035.479887
 21
170.651193
  0
LINE
  8
MountainLine
  6
CONTINUOUS
 62
5
 10
959.075762
 20
113.274244
 11
926.540588
 21
85.672750
  0
LINE
  8
ValleyLine
  6
CONTINUOUS
 62
1
 10
926.540588
 20
85.672750
 11
950.729947
 21
71.958928
  0
LINE
  8
ValleyLine
  6
CONTINUOUS
 62
1
 10
950.729947
 20
71.958928
 11
959.075762
 21
113.274244
  0
LINE
  8
CutLine
  6
CONTINUOUS
 62
8
 10
950.729947
 20
71.958928
 11
991.810998
 21
82.683296
  0
LINE
  8
CutLine
  6
CONTINUOUS
 62
8
 10
991.810998
 20
82.683296
 11
989.394661
 21
106.789187
  0
LINE
  8
ValleyLine
  6
CONTINUOUS
 62
1
 10
923.860101
 20
141.415046
 11
926.540588
 21
85.672750
  0
LINE
  8
MountainLine
  6
CONTINUOUS
 62
5
 10
1002.602320
 20
69.518756
 11
977.895903
 21
42.296683
  0
LINE
  8
MountainLine
  6
CONTINUOUS
 62
5
 10
977.895903
 20
42.296683
 11
972.784228
 21
25.565323
  0
LINE
  8
CutLine
  6
CONTINUOUS
 62
8
 10
972.784228
 20
25.565323
 11
1025.402379
 21
13.003091
  0
LINE
  8
MountainLine
  6
CONTINUOUS
 62
5
 10
1025.402379
 20
13.003091
 11
1035.589898
 21
52.536885
  0
LINE
  8
MountainLine
  6
CONTINUOUS
 62
5
 10
1035.589898
 20
52.536885
 11
1002.602320
 21
69.518756
  0
LINE
  8
ValleyLine
  6
CONTINUOUS
 62
1
 10
977.895903
 20
42.296683
 11
950.729947
 21
71.958928
  0
LINE
  8
CutLine
  6
CONTINUOUS
 62
8
 10
926.540588
 20
85.672750
 11
914.134146
 21
55.207256
  0
LINE
  8
CutLine
  6
CONTINUOUS
 62
8
 10
914.134146
 20
55.207256
 11
928.396019
 21
14.764315
  0
LINE
  8
ValleyLine
  6
CONTINUOUS
 62
1
 10
928.396019
 20
14.764315
 11
969.408246
 21
26.998731
  0
LINE
  8
CutLine
  6
CONTINUOUS
 62
8
 10
969.408246
 20
26.998731
 11
977.895903
 21
42.296683
  0
LINE
  8
ValleyLine
  6
CONTINUOUS
 62
1
 10
973.383014
 20
70.803408
 11
950.729947
 21
71.958928
  0
LINE
  8
MountainLine
  6
CONTINUOUS
 62
5
 10
977.895903
 20
42.296683
 11
973.383014
 21
70.803408
  0
LINE
  8
MountainLine
  6
CONTINUOUS
 62
5
 10
1002.602320
 20
69.518756
 11
995.603198
 21
74.189382
  0
LINE
  8
CutLine
  6
CONTINUOUS
 62
8
 10
995.603198
 20
74.189382
 11
973.383014
 21
70.803408
  0
LINE
  8
ValleyLine
  6
CONTINUOUS
 62
1
 10
1038.622721
 20
67.141240
 11
1001.791952
 21
77.894063
  0
LINE
  8
CutLine
  6
CONTINUOUS
 62
8
 10
1001.791952
 20
77.894063
 11
1002.602320
 21
69.518756
  0
LINE
  8
MountainLine
  6
CONTINUOUS
 62
5
 10
1035.589898
 20
52.536885
 11
1038.622721
 21
67.141240
  0
LINE
  8
CutLine
  6
CONTINUOUS
 62
8
 10
1124.803601
 20
165.053452
 11
1154.594668
 21
147.132211
  0
LINE
  8
CutLine
  6
CONTINUOUS
 62
8
 10
1154.594668
 20
147.132211
 11
1159.320623
 21
200.994093
  0
LINE
  8
ValleyLine
  6
CONTINUOUS
 62
1
 10
1159.320623
 20
200.994093
 11
1124.803601
 21
223.711218
  0
LINE
  8
ValleyLine
  6
CONTINUOUS
 62
1
 10
1124.803601
 20
223.711218
 11
1124.803601
 21
165.053452
  0
LINE
  8
ValleyLine
  6
CONTINUOUS
 62
1
 10
1084.512942
 20
179.740021
 11
1124.803601
 21
223.711218
  0
LINE
  8
CutLine
  6
CONTINUOUS
 62
8
 10
1124.803601
 20
223.711218
 11
1084.041062
 21
230.486764
  0
LINE
  8
MountainLine
  6
CONTINUOUS
 62
5
 10
1084.041062
 20
230.486764
 11
1084.512942
 21
179.740021
  0
LINE
  8
MountainLine
  6
CONTINUOUS
 62
5
 10
1084.512942
 20
179.740021
 11
1124.803601
 21
165.053452
  0
LINE
  8
ValleyLine
  6
CONTINUOUS
 62
1
 10
1009.530170
 20
455.193440
 11
986.875066
 21
454.078578
  0
LINE
  8
CutLine
  6
CONTINUOUS
 62
8
 10
986.875066
 20
454.078578
 11
1024.057836
 21
433.582080
  0
LINE
  8
MountainLine
  6
CONTINUOUS
 62
5
 10
1024.057836
 20
433.582080
 11
1009.530170
 21
455.193440
  0
LINE
  8
MountainLine
  6
CONTINUOUS
 62
5
 10
1069.905537
 20
452.610090
 11
1044.613380
 21
497.128537
  0
LINE
  8
ValleyLine
  6
CONTINUOUS
 62
1
 10
1044.613380
 20
497.128537
 11
1031.193990
 21
461.183457
  0
LINE
  8
CutLine
  6
CONTINUOUS
 62
8
 10
1031.193990
 20
461.183457
 11
1009.530170
 21
455.193440
  0
LINE
  8
CutLine
  6
CONTINUOUS
 62
8
 10
1024.057836
 20
433.582080
 11
1043.332852
 21
439.948863
  0
LINE
  8
CutLine
  6
CONTINUOUS
 62
8
 10
1043.332852
 20
439.948863
 11
1069.905537
 21
452.610090
  0
LINE
  8
CutLine
  6
CONTINUOUS
 62
8
 10
1074.470732
 20
482.459356
 11
1044.613380
 21
497.128537
  0
LINE
  8
MountainLine
  6
CONTINUOUS
 62
5
 10
1069.905537
 20
452.610090
 11
1074.470732
 21
482.459356
  0
LINE
  8
MountainLine
  6
CONTINUOUS
 62
5
 10
953.058056
 20
483.478136
 11
970.898174
 21
469.695844
  0
LINE
  8
CutLine
  6
CONTINUOUS
 62
8
 10
963.466709
 20
540.131940
 11
953.058056
 21
483.478136
  0
LINE
  8
ValleyLine
  6
CONTINUOUS
 62
1
 10
970.898174
 20
469.695844
 11
993.323941
 21
518.925555
  0
LINE
  8
MountainLine
  6
CONTINUOUS
 62
5
 10
993.323941
 20
518.925555
 11
963.466709
 21
540.131940
  0
LINE
  8
MountainLine
  6
CONTINUOUS
 62
5
 10
941.502804
 20
432.005299
 11
970.898174
 21
469.695844
  0
LINE
  8
ValleyLine
  6
CONTINUOUS
 62
1
 10
953.058056
 20
483.478136
 11
934.245473
 21
420.129811
  0
LINE
  8
MountainLine
  6
CONTINUOUS
 62
5
 10
934.245473
 20
420.129811
 11
941.502804
 21
432.005299
  0
LINE
  8
ValleyLine
  6
CONTINUOUS
 62
1
 10
941.502804
 20
432.005299
 11
975.934474
 21
427.195027
  0
LINE
  8
CutLine
  6
CONTINUOUS
 62
8
 10
975.934474
 20
427.195027
 11
970.898174
 21
469.695844
  0
LINE
  8
MountainLine
  6
CONTINUOUS
 62
5
 10
970.898174
 20
469.695844
 11
988.378622
 21
470.404068
  0
LINE
  8
CutLine
  6
CONTINUOUS
 62
8
 10
988.378622
 20
470.404068
 11
1024.967850
 21
466.843638
  0
LINE
  8
MountainLine
  6
CONTINUOUS
 62
5
 10
1024.967850
 20
466.843638
 11
1031.096688
 21
503.436009
  0
LINE
  8
CutLine
  6
CONTINUOUS
 62
8
 10
1031.096688
 20
503.436009
 11
993.323941
 21
518.925555
  0
LINE
  8
CutLine
  6
CONTINUOUS
 62
8
 10
1044.613380
 20
497.128537
 11
1031.096688
 21
503.436009
  0
LINE
  8
MountainLine
  6
CONTINUOUS
 62
5
 10
1024.967850
 20
466.843638
 11
1031.193990
 21
461.183457
  0
LINE
  8
ValleyLine
  6
CONTINUOUS
 62
1
 10
1185.069293
 20
450.494329
 11
1166.096587
 21
464.919425
  0
LINE
  8
ValleyLine
  6
CONTINUOUS
 62
1
 10
1166.096587
 20
464.919425
 11
1148.825754
 21
423.788199
  0
LINE
  8
CutLine
  6
CONTINUOUS
 62
8
 10
1148.825754
 20
423.788199
 11
1185.069293
 21
450.494329
  0
LINE
  8
MountainLine
  6
CONTINUOUS
 62
5
 10
1166.096587
 20
464.919425
 11
1135.386636
 21
444.179274
  0
LINE
  8
MountainLine
  6
CONTINUOUS
 62
5
 10
1135.386636
 20
444.179274
 11
1114.323978
 21
429.995028
  0
LINE
  8
CutLine
  6
CONTINUOUS
 62
8
 10
1114.323978
 20
429.995028
 11
1118.323258
 21
418.230375
  0
LINE
  8
MountainLine
  6
CONTINUOUS
 62
5
 10
1118.323258
 20
418.230375
 11
1140.351571
 21
422.003407
  0
LINE
  8
MountainLine
  6
CONTINUOUS
 62
5
 10
1140.351571
 20
422.003407
 11
1148.881219
 21
423.464374
  0
LINE
  8
ValleyLine
  6
CONTINUOUS
 62
1
 10
1166.096587
 20
464.919425
 11
1119.715003
 21
474.155698
  0
LINE
  8
ValleyLine
  6
CONTINUOUS
 62
1
 10
1119.715003
 20
474.155698
 11
1074.470732
 21
482.459356
  0
LINE
  8
CutLine
  6
CONTINUOUS
 62
8
 10
1069.905537
 20
452.610090
 11
1114.323978
 21
429.995028
  0
LINE
  8
MountainLine
  6
CONTINUOUS
 62
5
 10
1189.895150
 20
466.213770
 11
1129.664287
 21
522.747176
  0
LINE
  8
ValleyLine
  6
CONTINUOUS
 62
1
 10
1129.664287
 20
522.747176
 11
1166.096587
 21
464.919425
  0
LINE
  8
CutLine
  6
CONTINUOUS
 62
8
 10
1166.096587
 20
464.919425
 11
1189.895150
 21
466.213770
  0
LINE
  8
ValleyLine
  6
CONTINUOUS
 62
1
 10
1189.895150
 20
466.213770
 11
1185.980889
 21
592.313745
  0
LINE
  8
CutLine
  6
CONTINUOUS
 62
8
 10
1185.980889
 20
592.313745
 11
1129.664287
 21
522.747176
  0
LINE
  8
CutLine
  6
CONTINUOUS
 62
8
 10
1111.986833
 20
529.809355
 11
1095.408216
 21
500.367435
  0
LINE
  8
ValleyLine
  6
CONTINUOUS
 62
1
 10
1095.408216
 20
500.367435
 11
1129.664287
 21
522.747176
  0
LINE
  8
MountainLine
  6
CONTINUOUS
 62
5
 10
1129.664287
 20
522.747176
 11
1111.986833
 21
529.809355
  0
LINE
  8
MountainLine
  6
CONTINUOUS
 62
5
 10
1095.408216
 20
500.367435
 11
1074.677146
 21
483.514448
  0
LINE
  8
CutLine
  6
CONTINUOUS
 62
8
 10
1074.677146
 20
483.514448
 11
1119.715003
 21
474.155698
  0
LINE
  8
MountainLine
  6
CONTINUOUS
 62
5
 10
1180.002569
 20
393.895192
 11
1148.936684
 21
423.140548
  0
LINE
  8
ValleyLine
  6
CONTINUOUS
 62
1
 10
1148.936684
 20
423.140548
 11
1155.137073
 21
381.449264
  0
LINE
  8
ValleyLine
  6
CONTINUOUS
 62
1
 10
1155.137073
 20
381.449264
 11
1180.002569
 21
393.895192
  0
LINE
  8
CutLine
  6
CONTINUOUS
 62
8
 10
1118.323258
 20
418.230375
 11
1114.664876
 21
394.281494
  0
LINE
  8
MountainLine
  6
CONTINUOUS
 62
5
 10
1114.664876
 20
394.281494
 11
1155.137073
 21
381.449264
  0
LINE
  8
MountainLine
  6
CONTINUOUS
 62
5
 10
1185.633735
 20
449.220002
 11
1148.936684
 21
423.140548
  0
LINE
  8
CutLine
  6
CONTINUOUS
 62
8
 10
1180.002569
 20
393.895192
 11
1185.633735
 21
449.220002
  0
LINE
  8
ValleyLine
  6
CONTINUOUS
 62
1
 10
1155.137073
 20
381.449264
 11
1126.475085
 21
353.229973
  0
LINE
  8
ValleyLine
  6
CONTINUOUS
 62
1
 10
1190.818648
 20
362.829478
 11
1180.002569
 21
393.895192
  0
LINE
  8
CutLine
  6
CONTINUOUS
 62
8
 10
1174.486600
 20
323.177282
 11
1190.818648
 21
362.829478
  0
LINE
  8
CutLine
  6
CONTINUOUS
 62
8
 10
1126.475085
 20
353.229973
 11
1134.161142
 21
337.513988
  0
LINE
  8
ValleyLine
  6
CONTINUOUS
 62
1
 10
1134.161142
 20
337.513988
 11
1174.486600
 21
323.177282
  0
LINE
  8
CutLine
  6
CONTINUOUS
 62
8
 10
1155.137073
 20
381.449264
 11
1132.454560
 21
381.465508
  0
LINE
  8
MountainLine
  6
CONTINUOUS
 62
5
 10
1132.454560
 20
381.465508
 11
1126.475085
 21
353.229973
  0
LINE
  8
MountainLine
  6
CONTINUOUS
 62
5
 10
1103.207904
 20
381.691993
 11
1126.475085
 21
353.229973
  0
LINE
  8
ValleyLine
  6
CONTINUOUS
 62
1
 10
1132.454560
 20
381.465508
 11
1110.438958
 21
385.994820
  0
LINE
  8
CutLine
  6
CONTINUOUS
 62
8
 10
1110.438958
 20
385.994820
 11
1103.207904
 21
381.691993
  0
LINE
  8
CutLine
  6
CONTINUOUS
 62
8
 10
960.208544
 20
388.238319
 11
960.208544
 21
294.398274
  0
LINE
  8
ValleyLine
  6
CONTINUOUS
 62
1
 10
960.208544
 20
294.398274
 11
989.539047
 21
362.364459
  0
LINE
  8
CutLine
  6
CONTINUOUS
 62
8
 10
989.539047
 20
362.364459
 11
960.208544
 21
388.238319
  0
LINE
  8
CutLine
  6
CONTINUOUS
 62
8
 10
960.208544
 20
294.398274
 11
1028.485689
 21
358.773623
  0
LINE
  8
MountainLine
  6
CONTINUOUS
 62
5
 10
1028.485689
 20
358.773623
 11
989.539047
 21
362.364459
 0
TEXT
100
AcDbText
 8
Edge ID
100
AcDbText
10
1051.261516
20
295.510045
30
0.0
40
3.360000
72
1
11
1051.261516
21
295.510045
31
0.0
1
116
50
200.027581
 0
TEXT
100
AcDbText
 8
Edge ID
100
AcDbText
10
1030.880247
20
262.793389
30
0.0
40
3.360000
72
1
11
1030.880247
21
262.793389
31
0.0
1
115
50
269.467237
 0
TEXT
100
AcDbText
 8
Edge ID
100
AcDbText
10
1051.025576
20
240.807790
30
0.0
40
3.360000
72
1
11
1051.025576
21
240.807790
31
0.0
1
114
50
9.437416
 0
TEXT
100
AcDbText
 8
Edge ID
100
AcDbText
10
1088.665357
20
255.554126
30
0.0
40
3.360000
72
1
11
1088.665357
21
255.554126
31
0.0
1
114
50
33.350621
 0
TEXT
100
AcDbText
 8
Edge ID
100
AcDbText
10
1103.560890
20
293.843630
30
0.0
40
3.360000
72
1
11
1103.560890
21
293.843630
31
0.0
1
175
50
95.014410
 0
TEXT
100
AcDbText
 8
Edge ID
100
AcDbText
10
1086.302379
20
311.813950
30
0.0
40
3.360000
72
1
11
1086.302379
21
311.813950
31
0.0
1
137
50
211.029612
 0
TEXT
100
AcDbText
 8
Edge ID
100
AcDbText
10
1143.378127
20
13.518033
30
0.0
40
3.360000
72
1
11
1143.378127
21
13.518033
31
0.0
1
137
50
13.975820
 0
TEXT
100
AcDbText
 8
Edge ID
100
AcDbText
10
1126.784246
20
30.717142
30
0.0
40
3.360000
72
1
11
1126.784246
21
30.717142
31
0.0
1
159
50
269.264822
 0
TEXT
100
AcDbText
 8
Edge ID
100
AcDbText
10
1164.478226
20
12.192015
30
0.0
40
3.360000
72
1
11
1164.478226
21
12.192015
31
0.0
1
135
50
-52.547329
 0
TEXT
100
AcDbText
 8
Edge ID
100
AcDbText
10
1156.032120
20
37.180162
30
0.0
40
3.360000
72
1
11
1156.032120
21
37.180162
31
0.0
1
136
50
112.562661
 0
TEXT
100
AcDbText
 8
Edge ID
100
AcDbText
10
1113.325133
20
110.830476
30
0.0
40
3.360000
72
1
11
1113.325133
21
110.830476
31
0.0
1
133
50
221.407433
 0
TEXT
100
AcDbText
 8
Edge ID
100
AcDbText
10
1113.325133
20
75.416953
30
0.0
40
3.360000
72
1
11
1113.325133
21
75.416953
31
0.0
1
134
50
-59.486366
 0
TEXT
100
AcDbText
 8
Edge ID
100
AcDbText
10
1135.206591
20
95.317028
30
0.0
40
3.360000
72
1
11
1135.206591
21
95.317028
31
0.0
1
207
50
106.433296
 0
TEXT
100
AcDbText
 8
Edge ID
100
AcDbText
10
1020.207337
20
72.517651
30
0.0
40
3.360000
72
1
11
1020.207337
21
72.517651
31
0.0
1
162
50
163.724721
 0
TEXT
100
AcDbText
 8
Edge ID
100
AcDbText
10
1002.197136
20
73.706409
30
0.0
40
3.360000
72
1
11
1002.197136
21
73.706409
31
0.0
1
161
50
-84.473448
 0
TEXT
100
AcDbText
 8
Edge ID
100
AcDbText
10
1037.106310
20
59.839062
30
0.0
40
3.360000
72
1
11
1037.106310
21
59.839062
31
0.0
1
163
50
78.268377
 0
TEXT
100
AcDbText
 8
Edge ID
100
AcDbText
10
925.200344
20
113.543898
30
0.0
40
3.360000
72
1
11
925.200344
21
113.543898
31
0.0
1
156
50
-87.246931
 0
TEXT
100
AcDbText
 8
Edge ID
100
AcDbText
10
1025.418326
20
179.438405
30
0.0
40
3.360000
72
1
11
1025.418326
21
179.438405
31
0.0
1
314
50
138.867833
 0
TEXT
100
AcDbText
 8
Edge ID
100
AcDbText
10
1012.823743
20
166.689144
30
0.0
40
3.360000
72
1
11
1012.823743
21
166.689144
31
0.0
1
153
50
9.919434
 0
TEXT
100
AcDbText
 8
Edge ID
100
AcDbText
10
999.102759
20
71.854069
30
0.0
40
3.360000
72
1
11
999.102759
21
71.854069
31
0.0
1
161
50
146.284181
 0
TEXT
100
AcDbText
 8
Edge ID
100
AcDbText
10
984.493106
20
72.496395
30
0.0
40
3.360000
72
1
11
984.493106
21
72.496395
31
0.0
1
151
50
188.664240
 0
TEXT
100
AcDbText
 8
Edge ID
100
AcDbText
10
1012.933525
20
165.999909
30
0.0
40
3.360000
72
1
11
1012.933525
21
165.999909
31
0.0
1
153
50
188.180754
 0
TEXT
100
AcDbText
 8
Edge ID
100
AcDbText
10
975.340065
20
33.931003
30
0.0
40
3.360000
72
1
11
975.340065
21
33.931003
31
0.0
1
157
50
253.011323
 0
TEXT
100
AcDbText
 8
Edge ID
100
AcDbText
10
999.093303
20
19.284207
30
0.0
40
3.360000
72
1
11
999.093303
21
19.284207
31
0.0
1
134
50
-13.427632
 0
TEXT
100
AcDbText
 8
Edge ID
100
AcDbText
10
1030.496138
20
32.769988
30
0.0
40
3.360000
72
1
11
1030.496138
21
32.769988
31
0.0
1
158
50
75.549751
 0
TEXT
100
AcDbText
 8
Edge ID
100
AcDbText
10
921.265082
20
34.985785
30
0.0
40
3.360000
72
1
11
921.265082
21
34.985785
31
0.0
1
116
50
-70.575218
 0
TEXT
100
AcDbText
 8
Edge ID
100
AcDbText
10
948.902132
20
20.881523
30
0.0
40
3.360000
72
1
11
948.902132
21
20.881523
31
0.0
1
159
50
16.610443
 0
TEXT
100
AcDbText
 8
Edge ID
100
AcDbText
10
973.652074
20
34.647707
30
0.0
40
3.360000
72
1
11
973.652074
21
34.647707
31
0.0
1
157
50
60.977476
 0
TEXT
100
AcDbText
 8
Edge ID
100
AcDbText
10
962.056481
20
71.381168
30
0.0
40
3.360000
72
1
11
962.056481
21
71.381168
31
0.0
1
160
50
177.079906
 0
TEXT
100
AcDbText
 8
Edge ID
100
AcDbText
10
920.337367
20
70.440003
30
0.0
40
3.360000
72
1
11
920.337367
21
70.440003
31
0.0
1
236
50
247.842407
 0
TEXT
100
AcDbText
 8
Edge ID
100
AcDbText
10
971.270473
20
77.321112
30
0.0
40
3.360000
72
1
11
971.270473
21
77.321112
31
0.0
1
150
50
14.630761
 0
TEXT
100
AcDbText
 8
Edge ID
100
AcDbText
10
933.661607
20
148.354513
30
0.0
40
3.360000
72
1
11
933.661607
21
148.354513
31
0.0
1
152
50
215.298496
 0
TEXT
100
AcDbText
 8
Edge ID
100
AcDbText
10
1007.592372
20
203.230066
30
0.0
40
3.360000
72
1
11
1007.592372
21
203.230066
31
0.0
1
154
50
117.360329
 0
TEXT
100
AcDbText
 8
Edge ID
100
AcDbText
10
990.870092
20
215.017694
30
0.0
40
3.360000
72
1
11
990.870092
21
215.017694
31
0.0
1
155
50
199.753469
 0
TEXT
100
AcDbText
 8
Edge ID
100
AcDbText
10
1050.900971
20
176.023675
30
0.0
40
3.360000
72
1
11
1050.900971
21
176.023675
31
0.0
1
88
50
203.945871
 0
TEXT
100
AcDbText
 8
Edge ID
100
AcDbText
10
1088.830527
20
142.924572
30
0.0
40
3.360000
72
1
11
1088.830527
21
142.924572
31
0.0
1
151
50
162.318669
 0
TEXT
100
AcDbText
 8
Edge ID
100
AcDbText
10
1072.112785
20
164.556269
30
0.0
40
3.360000
72
1
11
1072.112785
21
164.556269
31
0.0
1
162
50
108.257884
 0
TEXT
100
AcDbText
 8
Edge ID
100
AcDbText
10
1110.835333
20
138.514296
30
0.0
40
3.360000
72
1
11
1110.835333
21
138.514296
31
0.0
1
160
50
174.956991
 0
TEXT
100
AcDbText
 8
Edge ID
100
AcDbText
10
1103.157322
20
127.998873
30
0.0
40
3.360000
72
1
11
1103.157322
21
127.998873
31
0.0
1
150
50
26.639410
 0
TEXT
100
AcDbText
 8
Edge ID
100
AcDbText
10
954.998150
20
247.555598
30
0.0
40
3.360000
72
1
11
954.998150
21
247.555598
31
0.0
1
218
50
126.970283
 0
TEXT
100
AcDbText
 8
Edge ID
100
AcDbText
10
923.904550
20
220.368583
30
0.0
40
3.360000
72
1
11
923.904550
21
220.368583
31
0.0
1
259
50
266.200943
 0
TEXT
100
AcDbText
 8
Edge ID
100
AcDbText
10
931.594059
20
156.360412
30
0.0
40
3.360000
72
1
11
931.594059
21
156.360412
31
0.0
1
152
50
-5.134223
 0
TEXT
100
AcDbText
 8
Edge ID
100
AcDbText
10
1104.658272
20
172.396736
30
0.0
40
3.360000
72
1
11
1104.658272
21
172.396736
31
0.0
1
325
50
-20.027581
 0
TEXT
100
AcDbText
 8
Edge ID
100
AcDbText
10
1104.422331
20
227.098991
30
0.0
40
3.360000
72
1
11
1104.422331
21
227.098991
31
0.0
1
323
50
170.562584
 0
TEXT
100
AcDbText
 8
Edge ID
100
AcDbText
10
1084.277002
20
205.113392
30
0.0
40
3.360000
72
1
11
1084.277002
21
205.113392
31
0.0
1
324
50
-89.467237
 0
TEXT
100
AcDbText
 8
Edge ID
100
AcDbText
10
1139.699135
20
156.092832
30
0.0
40
3.360000
72
1
11
1139.699135
21
156.092832
31
0.0
1
356
50
-31.029612
 0
TEXT
100
AcDbText
 8
Edge ID
100
AcDbText
10
1156.957646
20
174.063152
30
0.0
40
3.360000
72
1
11
1156.957646
21
174.063152
31
0.0
1
380
50
84.985590
 0
TEXT
100
AcDbText
 8
Edge ID
100
AcDbText
10
1142.062112
20
212.352655
30
0.0
40
3.360000
72
1
11
1142.062112
21
212.352655
31
0.0
1
323
50
146.649379
 0
TEXT
100
AcDbText
 8
Edge ID
100
AcDbText
10
1037.855034
20
500.282273
30
0.0
40
3.360000
72
1
11
1037.855034
21
500.282273
31
0.0
1
409
50
154.984212
 0
TEXT
100
AcDbText
 8
Edge ID
100
AcDbText
10
1028.080920
20
464.013548
30
0.0
40
3.360000
72
1
11
1028.080920
21
464.013548
31
0.0
1
358
50
-42.273963
 0
TEXT
100
AcDbText
 8
Edge ID
100
AcDbText
10
1167.285210
20
436.180275
30
0.0
40
3.360000
72
1
11
1167.285210
21
436.180275
31
0.0
1
365
50
215.400226
 0
TEXT
100
AcDbText
 8
Edge ID
100
AcDbText
10
1182.818152
20
421.557597
30
0.0
40
3.360000
72
1
11
1182.818152
21
421.557597
31
0.0
1
423
50
84.188236
 0
TEXT
100
AcDbText
 8
Edge ID
100
AcDbText
10
1085.042681
20
491.940942
30
0.0
40
3.360000
72
1
11
1085.042681
21
491.940942
31
0.0
1
363
50
219.108825
 0
TEXT
100
AcDbText
 8
Edge ID
100
AcDbText
10
1097.196074
20
478.835073
30
0.0
40
3.360000
72
1
11
1097.196074
21
478.835073
31
0.0
1
360
50
-11.738857
 0
TEXT
100
AcDbText
 8
Edge ID
100
AcDbText
10
1114.841495
20
367.460983
30
0.0
40
3.360000
72
1
11
1114.841495
21
367.460983
31
0.0
1
368
50
-50.734630
 0
TEXT
100
AcDbText
 8
Edge ID
100
AcDbText
10
1121.446759
20
383.730164
30
0.0
40
3.360000
72
1
11
1121.446759
21
383.730164
31
0.0
1
369
50
168.374635
 0
TEXT
100
AcDbText
 8
Edge ID
100
AcDbText
10
1106.823431
20
383.843407
30
0.0
40
3.360000
72
1
11
1106.823431
21
383.843407
31
0.0
1
358
50
210.754693
 0
TEXT
100
AcDbText
 8
Edge ID
100
AcDbText
10
1097.092868
20
478.307527
30
0.0
40
3.360000
72
1
11
1097.092868
21
478.307527
31
0.0
1
360
50
169.600270
 0
TEXT
100
AcDbText
 8
Edge ID
100
AcDbText
10
958.718639
20
429.600163
30
0.0
40
3.360000
72
1
11
958.718639
21
429.600163
31
0.0
1
356
50
-7.953025
 0
TEXT
100
AcDbText
 8
Edge ID
100
AcDbText
10
973.416324
20
448.445436
30
0.0
40
3.360000
72
1
11
973.416324
21
448.445436
31
0.0
1
367
50
96.757973
 0
TEXT
100
AcDbText
 8
Edge ID
100
AcDbText
10
943.651765
20
451.803974
30
0.0
40
3.360000
72
1
11
943.651765
21
451.803974
31
0.0
1
354
50
253.460134
 0
TEXT
100
AcDbText
 8
Edge ID
100
AcDbText
10
937.874139
20
426.067555
30
0.0
40
3.360000
72
1
11
937.874139
21
426.067555
31
0.0
1
355
50
58.570123
 0
TEXT
100
AcDbText
 8
Edge ID
100
AcDbText
10
979.638398
20
470.049956
30
0.0
40
3.360000
72
1
11
979.638398
21
470.049956
31
0.0
1
357
50
2.320082
 0
TEXT
100
AcDbText
 8
Edge ID
100
AcDbText
10
1006.673236
20
468.623853
30
0.0
40
3.360000
72
1
11
1006.673236
21
468.623853
31
0.0
1
368
50
-5.557848
 0
TEXT
100
AcDbText
 8
Edge ID
100
AcDbText
10
1012.210314
20
511.180782
30
0.0
40
3.360000
72
1
11
1012.210314
21
511.180782
31
0.0
1
340
50
157.702838
 0
TEXT
100
AcDbText
 8
Edge ID
100
AcDbText
10
1182.652624
20
343.003380
30
0.0
40
3.360000
72
1
11
1182.652624
21
343.003380
31
0.0
1
325
50
67.614092
 0
TEXT
100
AcDbText
 8
Edge ID
100
AcDbText
10
1130.318113
20
345.371981
30
0.0
40
3.360000
72
1
11
1130.318113
21
345.371981
31
0.0
1
357
50
-63.938602
 0
TEXT
100
AcDbText
 8
Edge ID
100
AcDbText
10
1154.323871
20
330.345635
30
0.0
40
3.360000
72
1
11
1154.323871
21
330.345635
31
0.0
1
367
50
-19.571569
 0
TEXT
100
AcDbText
 8
Edge ID
100
AcDbText
10
1143.795816
20
381.457386
30
0.0
40
3.360000
72
1
11
1143.795816
21
381.457386
31
0.0
1
352
50
179.958969
 0
TEXT
100
AcDbText
 8
Edge ID
100
AcDbText
10
1185.410608
20
378.362335
30
0.0
40
3.360000
72
1
11
1185.410608
21
378.362335
31
0.0
1
366
50
109.196468
 0
TEXT
100
AcDbText
 8
Edge ID
100
AcDbText
10
1134.900974
20
387.865379
30
0.0
40
3.360000
72
1
11
1134.900974
21
387.865379
31
0.0
1
364
50
-17.591886
 0
TEXT
100
AcDbText
 8
Edge ID
100
AcDbText
10
978.395325
20
529.528748
30
0.0
40
3.360000
72
1
11
978.395325
21
529.528748
31
0.0
1
353
50
144.615362
 0
TEXT
100
AcDbText
 8
Edge ID
100
AcDbText
10
958.262383
20
511.805038
30
0.0
40
3.360000
72
1
11
958.262383
21
511.805038
31
0.0
1
206
50
259.589499
 0
TEXT
100
AcDbText
 8
Edge ID
100
AcDbText
10
1175.582940
20
457.706877
30
0.0
40
3.360000
72
1
11
1175.582940
21
457.706877
31
0.0
1
359
50
142.753991
 0
TEXT
100
AcDbText
 8
Edge ID
100
AcDbText
10
1166.947523
20
437.141264
30
0.0
40
3.360000
72
1
11
1166.947523
21
437.141264
31
0.0
1
365
50
36.384725
 0
TEXT
100
AcDbText
 8
Edge ID
100
AcDbText
10
1103.697524
20
515.088395
30
0.0
40
3.360000
72
1
11
1103.697524
21
515.088395
31
0.0
1
312
50
240.616329
 0
TEXT
100
AcDbText
 8
Edge ID
100
AcDbText
10
1120.825560
20
526.278266
30
0.0
40
3.360000
72
1
11
1120.825560
21
526.278266
31
0.0
1
362
50
158.223189
 0
TEXT
100
AcDbText
 8
Edge ID
100
AcDbText
10
1059.542056
20
489.793946
30
0.0
40
3.360000
72
1
11
1059.542056
21
489.793946
31
0.0
1
93
50
153.834706
 0
TEXT
100
AcDbText
 8
Edge ID
100
AcDbText
10
1020.362080
20
458.188449
30
0.0
40
3.360000
72
1
11
1020.362080
21
458.188449
31
0.0
1
369
50
195.456051
 0
TEXT
100
AcDbText
 8
Edge ID
100
AcDbText
10
998.202618
20
454.636009
30
0.0
40
3.360000
72
1
11
998.202618
21
454.636009
31
0.0
1
352
50
182.817264
 0
TEXT
100
AcDbText
 8
Edge ID
100
AcDbText
10
1005.466451
20
443.830329
30
0.0
40
3.360000
72
1
11
1005.466451
21
443.830329
31
0.0
1
364
50
-28.865155
 0
TEXT
100
AcDbText
 8
Edge ID
100
AcDbText
10
1187.938019
20
529.263758
30
0.0
40
3.360000
72
1
11
1187.938019
21
529.263758
31
0.0
1
361
50
91.777944
 0
TEXT
100
AcDbText
 8
Edge ID
100
AcDbText
10
1157.822588
20
557.530461
30
0.0
40
3.360000
72
1
11
1157.822588
21
557.530461
31
0.0
1
411
50
231.008604
 0
TEXT
100
AcDbText
 8
Edge ID
100
AcDbText
10
1177.995868
20
465.566597
30
0.0
40
3.360000
72
1
11
1177.995868
21
465.566597
31
0.0
1
359
50
3.113110
 0
TEXT
100
AcDbText
 8
Edge ID
100
AcDbText
10
994.347117
20
326.585949
30
0.0
40
3.360000
72
1
11
994.347117
21
326.585949
31
0.0
1
257
50
43.315207
 0
TEXT
100
AcDbText
 8
Edge ID
100
AcDbText
10
1009.012368
20
360.569041
30
0.0
40
3.360000
72
1
11
1009.012368
21
360.569041
31
0.0
1
442
50
174.732287
 0
TEXT
100
AcDbText
 8
Edge ID
100
AcDbText
10
960.208544
20
341.318297
30
0.0
40
3.360000
72
1
11
960.208544
21
341.318297
31
0.0
1
444
50
-90.000000
 0
TEXT
100
AcDbText
 8
Edge ID
100
AcDbText
10
974.873796
20
375.301389
30
0.0
40
3.360000
72
1
11
974.873796
21
375.301389
31
0.0
1
415
50
138.582920
  0
ENDSEC
  0
EOF
