  0
SECTION
  2
HEADER
  9
$ACADVER
  1
AC1009
  0
ENDSEC
  0
SECTION
  2
BLOCKS
  0
ENDSEC
  0
SECTION
  2
ENTITIES
  0
LINE
  8
CutLine
  6
CONTINUOUS
 62
8
 10
375.249124
 20
5.101882
 11
366.700865
 21
2.406900
  0
LINE
  8
CutLine
  6
CONTINUOUS
 62
8
 10
366.700865
 20
2.406900
 11
337.116935
 21
11.118843
  0
LINE
  8
CutLine
  6
CONTINUOUS
 62
8
 10
337.116935
 20
11.118843
 11
333.733022
 21
17.327638
  0
LINE
  8
CutLine
  6
CONTINUOUS
 62
8
 10
509.761827
 20
410.521559
 11
574.743745
 21
390.230197
  0
LINE
  8
CutLine
  6
CONTINUOUS
 62
8
 10
574.743745
 20
390.230197
 11
578.026130
 21
383.967135
  0
LINE
  8
CutLine
  6
CONTINUOUS
 62
8
 10
403.763078
 20
469.840107
 11
400.283920
 21
475.996036
  0
LINE
  8
CutLine
  6
CONTINUOUS
 62
8
 10
400.283920
 20
475.996036
 11
407.777885
 21
502.970695
  0
LINE
  8
CutLine
  6
CONTINUOUS
 62
8
 10
407.777885
 20
502.970695
 11
413.933814
 21
506.449853
  0
LINE
  8
CutLine
  6
CONTINUOUS
 62
8
 10
587.634458
 20
595.509519
 11
592.484185
 21
590.363632
  0
LINE
  8
CutLine
  6
CONTINUOUS
 62
8
 10
592.484185
 20
590.363632
 11
587.068636
 21
407.584776
  0
LINE
  8
CutLine
  6
CONTINUOUS
 62
8
 10
587.068636
 20
407.584776
 11
581.918036
 21
402.575968
  0
LINE
  8
CutLine
  6
CONTINUOUS
 62
8
 10
413.933814
 20
506.449853
 11
416.101858
 21
513.180349
  0
LINE
  8
CutLine
  6
CONTINUOUS
 62
8
 10
416.101858
 20
513.180349
 11
580.903961
 21
597.677563
  0
LINE
  8
CutLine
  6
CONTINUOUS
 62
8
 10
580.903961
 20
597.677563
 11
587.634458
 21
595.509519
  0
LINE
  8
CutLine
  6
CONTINUOUS
 62
8
 10
359.205354
 20
61.220861
 11
353.105741
 21
57.643890
  0
LINE
  8
CutLine
  6
CONTINUOUS
 62
8
 10
353.105741
 20
57.643890
 11
310.462181
 21
68.760877
  0
LINE
  8
CutLine
  6
CONTINUOUS
 62
8
 10
310.462181
 20
68.760877
 11
306.885210
 21
74.860490
  0
LINE
  8
CutLine
  6
CONTINUOUS
 62
8
 10
475.930454
 20
97.352403
 11
472.897405
 21
90.964868
  0
LINE
  8
CutLine
  6
CONTINUOUS
 62
8
 10
472.897405
 20
90.964868
 11
438.797155
 21
78.822433
  0
LINE
  8
CutLine
  6
CONTINUOUS
 62
8
 10
438.797155
 20
78.822433
 11
432.409619
 21
81.855482
  0
LINE
  8
CutLine
  6
CONTINUOUS
 62
8
 10
455.493678
 20
171.693347
 11
462.246022
 21
168.658129
  0
LINE
  8
CutLine
  6
CONTINUOUS
 62
8
 10
462.246022
 20
168.658129
 11
475.788398
 21
137.230498
  0
LINE
  8
CutLine
  6
CONTINUOUS
 62
8
 10
475.788398
 20
137.230498
 11
473.175216
 21
130.660012
  0
LINE
  8
CutLine
  6
CONTINUOUS
 62
8
 10
344.354269
 20
99.603503
 11
342.575273
 21
106.447126
  0
LINE
  8
CutLine
  6
CONTINUOUS
 62
8
 10
342.575273
 20
106.447126
 11
370.546876
 21
154.069276
  0
LINE
  8
CutLine
  6
CONTINUOUS
 62
8
 10
370.546876
 20
154.069276
 11
377.390499
 21
155.848271
  0
LINE
  8
CutLine
  6
CONTINUOUS
 62
8
 10
432.409619
 20
81.855482
 11
436.440703
 21
76.045977
  0
LINE
  8
CutLine
  6
CONTINUOUS
 62
8
 10
436.440703
 20
76.045977
 11
431.429430
 21
48.316952
  0
LINE
  8
CutLine
  6
CONTINUOUS
 62
8
 10
431.429430
 20
48.316952
 11
425.619924
 21
44.285867
  0
LINE
  8
CutLine
  6
CONTINUOUS
 62
8
 10
375.249124
 20
5.101882
 11
443.446560
 21
10.525136
  0
LINE
  8
CutLine
  6
CONTINUOUS
 62
8
 10
443.446560
 20
10.525136
 11
425.619924
 21
44.285867
  0
LINE
  8
ValleyLine
  6
CONTINUOUS
 62
1
 10
425.619924
 20
44.285867
 11
333.733022
 21
17.327638
  0
LINE
  8
MountainLine
  6
CONTINUOUS
 62
5
 10
333.733022
 20
17.327638
 11
375.249124
 21
5.101882
  0
LINE
  8
ValleyLine
  6
CONTINUOUS
 62
1
 10
425.619924
 20
44.285867
 11
359.205354
 21
61.220861
  0
LINE
  8
CutLine
  6
CONTINUOUS
 62
8
 10
359.205354
 20
61.220861
 11
333.733022
 21
17.327638
  0
LINE
  8
ValleyLine
  6
CONTINUOUS
 62
1
 10
455.493678
 20
171.693347
 11
506.619358
 21
185.991065
  0
LINE
  8
ValleyLine
  6
CONTINUOUS
 62
1
 10
506.619358
 20
185.991065
 11
419.181174
 21
280.927478
  0
LINE
  8
CutLine
  6
CONTINUOUS
 62
8
 10
419.181174
 20
280.927478
 11
417.687869
 21
275.759024
  0
LINE
  8
CutLine
  6
CONTINUOUS
 62
8
 10
417.687869
 20
275.759024
 11
415.230309
 21
267.253191
  0
LINE
  8
CutLine
  6
CONTINUOUS
 62
8
 10
415.230309
 20
267.253191
 11
413.165408
 21
262.911493
  0
LINE
  8
CutLine
  6
CONTINUOUS
 62
8
 10
413.165408
 20
262.911493
 11
402.100803
 21
239.646662
  0
LINE
  8
CutLine
  6
CONTINUOUS
 62
8
 10
402.100803
 20
239.646662
 11
399.797453
 21
237.128381
  0
LINE
  8
CutLine
  6
CONTINUOUS
 62
8
 10
399.797453
 20
237.128381
 11
383.841222
 21
219.683219
  0
LINE
  8
CutLine
  6
CONTINUOUS
 62
8
 10
383.841222
 20
219.683219
 11
381.290251
 21
218.533964
  0
LINE
  8
CutLine
  6
CONTINUOUS
 62
8
 10
381.290251
 20
218.533964
 11
367.666495
 21
212.396231
  0
LINE
  8
CutLine
  6
CONTINUOUS
 62
8
 10
367.666495
 20
212.396231
 11
377.390499
 21
155.848271
  0
LINE
  8
MountainLine
  6
CONTINUOUS
 62
5
 10
377.390499
 20
155.848271
 11
455.493678
 21
171.693347
  0
LINE
  8
CutLine
  6
CONTINUOUS
 62
8
 10
455.493678
 20
171.693347
 11
556.520629
 21
130.247579
  0
LINE
  8
CutLine
  6
CONTINUOUS
 62
8
 10
556.520629
 20
130.247579
 11
506.619358
 21
185.991065
  0
LINE
  8
CutLine
  6
CONTINUOUS
 62
8
 10
434.218812
 20
371.535719
 11
426.753567
 21
356.787171
  0
LINE
  8
CutLine
  6
CONTINUOUS
 62
8
 10
426.753567
 20
356.787171
 11
424.399337
 21
348.770743
  0
LINE
  8
CutLine
  6
CONTINUOUS
 62
8
 10
424.399337
 20
348.770743
 11
417.402636
 21
324.946202
  0
LINE
  8
CutLine
  6
CONTINUOUS
 62
8
 10
417.402636
 20
324.946202
 11
417.051383
 21
318.661961
  0
LINE
  8
CutLine
  6
CONTINUOUS
 62
8
 10
417.051383
 20
318.661961
 11
415.755143
 21
295.471129
  0
LINE
  8
CutLine
  6
CONTINUOUS
 62
8
 10
415.755143
 20
295.471129
 11
416.895926
 21
290.628459
  0
LINE
  8
CutLine
  6
CONTINUOUS
 62
8
 10
416.895926
 20
290.628459
 11
419.181174
 21
280.927478
  0
LINE
  8
CutLine
  6
CONTINUOUS
 62
8
 10
506.619358
 20
185.991065
 11
578.026130
 21
383.967135
  0
LINE
  8
ValleyLine
  6
CONTINUOUS
 62
1
 10
578.026130
 20
383.967135
 11
483.849261
 21
413.374961
  0
LINE
  8
ValleyLine
  6
CONTINUOUS
 62
1
 10
483.849261
 20
413.374961
 11
434.218812
 21
371.535719
  0
LINE
  8
ValleyLine
  6
CONTINUOUS
 62
1
 10
413.933814
 20
506.449853
 11
403.763078
 21
469.840107
  0
LINE
  8
CutLine
  6
CONTINUOUS
 62
8
 10
403.763078
 20
469.840107
 11
407.207510
 21
464.604880
  0
LINE
  8
CutLine
  6
CONTINUOUS
 62
8
 10
407.207510
 20
464.604880
 11
411.017544
 21
455.635396
  0
LINE
  8
CutLine
  6
CONTINUOUS
 62
8
 10
411.017544
 20
455.635396
 11
418.039833
 21
439.103728
  0
LINE
  8
CutLine
  6
CONTINUOUS
 62
8
 10
418.039833
 20
439.103728
 11
420.030473
 21
430.222390
  0
LINE
  8
CutLine
  6
CONTINUOUS
 62
8
 10
420.030473
 20
430.222390
 11
424.065939
 21
412.218010
  0
LINE
  8
CutLine
  6
CONTINUOUS
 62
8
 10
424.065939
 20
412.218010
 11
425.561414
 21
403.904062
  0
LINE
  8
CutLine
  6
CONTINUOUS
 62
8
 10
425.561414
 20
403.904062
 11
428.891027
 21
385.393444
  0
LINE
  8
CutLine
  6
CONTINUOUS
 62
8
 10
428.891027
 20
385.393444
 11
431.698030
 21
378.092327
  0
LINE
  8
CutLine
  6
CONTINUOUS
 62
8
 10
431.698030
 20
378.092327
 11
434.218812
 21
371.535719
  0
LINE
  8
ValleyLine
  6
CONTINUOUS
 62
1
 10
483.849261
 20
413.374961
 11
413.933814
 21
506.449853
  0
LINE
  8
ValleyLine
  6
CONTINUOUS
 62
1
 10
581.918036
 20
402.575968
 11
587.634458
 21
595.509519
  0
LINE
  8
ValleyLine
  6
CONTINUOUS
 62
1
 10
587.634458
 20
595.509519
 11
413.933814
 21
506.449853
  0
LINE
  8
CutLine
  6
CONTINUOUS
 62
8
 10
483.849261
 20
413.374961
 11
581.918036
 21
402.575968
  0
LINE
  8
ValleyLine
  6
CONTINUOUS
 62
1
 10
306.885210
 20
74.860490
 11
359.205354
 21
61.220861
  0
LINE
  8
CutLine
  6
CONTINUOUS
 62
8
 10
318.550977
 20
82.450350
 11
306.885210
 21
74.860490
  0
LINE
  8
ValleyLine
  6
CONTINUOUS
 62
1
 10
359.205354
 20
61.220861
 11
344.354269
 21
99.603503
  0
LINE
  8
CutLine
  6
CONTINUOUS
 62
8
 10
344.354269
 20
99.603503
 11
318.550977
 21
82.450350
  0
LINE
  8
ValleyLine
  6
CONTINUOUS
 62
1
 10
432.409619
 20
81.855482
 11
475.930454
 21
97.352403
  0
LINE
  8
ValleyLine
  6
CONTINUOUS
 62
1
 10
473.175216
 20
130.660012
 11
455.493678
 21
171.693347
  0
LINE
  8
ValleyLine
  6
CONTINUOUS
 62
1
 10
377.390499
 20
155.848271
 11
344.354269
 21
99.603503
  0
LINE
  8
ValleyLine
  6
CONTINUOUS
 62
1
 10
425.619924
 20
44.285867
 11
432.409619
 21
81.855482
  0
LINE
  8
CutLine
  6
CONTINUOUS
 62
8
 10
475.930454
 20
97.352403
 11
511.168856
 21
115.564598
  0
LINE
  8
CutLine
  6
CONTINUOUS
 62
8
 10
511.168856
 20
115.564598
 11
473.175216
 21
130.660012
 0
TEXT
100
AcDbText
 8
Edge ID
100
AcDbText
10
493.549655
20
106.458501
30
0.0
40
3.360000
72
1
11
493.549655
21
106.458501
31
0.0
1
239
50
27.331189
 0
TEXT
100
AcDbText
 8
Edge ID
100
AcDbText
10
492.172036
20
123.112305
30
0.0
40
3.360000
72
1
11
492.172036
21
123.112305
31
0.0
1
118
50
158.331371
 0
TEXT
100
AcDbText
 8
Edge ID
100
AcDbText
10
584.776247
20
499.042743
30
0.0
40
3.360000
72
1
11
584.776247
21
499.042743
31
0.0
1
173
50
88.302882
 0
TEXT
100
AcDbText
 8
Edge ID
100
AcDbText
10
500.784136
20
550.979686
30
0.0
40
3.360000
72
1
11
500.784136
21
550.979686
31
0.0
1
174
50
207.145088
 0
TEXT
100
AcDbText
 8
Edge ID
100
AcDbText
10
532.883648
20
407.975464
30
0.0
40
3.360000
72
1
11
532.883648
21
407.975464
31
0.0
1
171
50
-6.283895
 0
TEXT
100
AcDbText
 8
Edge ID
100
AcDbText
10
346.469188
20
39.274250
30
0.0
40
3.360000
72
1
11
346.469188
21
39.274250
31
0.0
1
115
50
239.872337
 0
TEXT
100
AcDbText
 8
Edge ID
100
AcDbText
10
331.452623
20
91.026926
30
0.0
40
3.360000
72
1
11
331.452623
21
91.026926
31
0.0
1
205
50
213.614612
 0
TEXT
100
AcDbText
 8
Edge ID
100
AcDbText
10
333.045282
20
68.040676
30
0.0
40
3.360000
72
1
11
333.045282
21
68.040676
31
0.0
1
175
50
-14.611540
 0
TEXT
100
AcDbText
 8
Edge ID
100
AcDbText
10
312.718094
20
78.655420
30
0.0
40
3.360000
72
1
11
312.718094
21
78.655420
31
0.0
1
135
50
213.048413
 0
TEXT
100
AcDbText
 8
Edge ID
100
AcDbText
10
408.848446
20
488.144980
30
0.0
40
3.360000
72
1
11
408.848446
21
488.144980
31
0.0
1
172
50
254.473909
 0
TEXT
100
AcDbText
 8
Edge ID
100
AcDbText
10
409.347842
20
7.813509
30
0.0
40
3.360000
72
1
11
409.347842
21
7.813509
31
0.0
1
237
50
4.546754
 0
TEXT
100
AcDbText
 8
Edge ID
100
AcDbText
10
434.533242
20
27.405501
30
0.0
40
3.360000
72
1
11
434.533242
21
27.405501
31
0.0
1
179
50
117.835341
 0
TEXT
100
AcDbText
 8
Edge ID
100
AcDbText
10
354.491073
20
11.214760
30
0.0
40
3.360000
72
1
11
354.491073
21
11.214760
31
0.0
1
170
50
-16.408767
 0
TEXT
100
AcDbText
 8
Edge ID
100
AcDbText
10
506.007154
20
150.970463
30
0.0
40
3.360000
72
1
11
506.007154
21
150.970463
31
0.0
1
180
50
-22.305629
 0
TEXT
100
AcDbText
 8
Edge ID
100
AcDbText
10
531.569993
20
158.119322
30
0.0
40
3.360000
72
1
11
531.569993
21
158.119322
31
0.0
1
229
50
131.834735
 0
TEXT
100
AcDbText
 8
Edge ID
100
AcDbText
10
542.322744
20
284.979100
30
0.0
40
3.360000
72
1
11
542.322744
21
284.979100
31
0.0
1
232
50
70.166445
 0
TEXT
100
AcDbText
 8
Edge ID
100
AcDbText
10
530.937695
20
398.671048
30
0.0
40
3.360000
72
1
11
530.937695
21
398.671048
31
0.0
1
171
50
162.658417
 0
TEXT
100
AcDbText
 8
Edge ID
100
AcDbText
10
454.170036
20
89.603943
30
0.0
40
3.360000
72
1
11
454.170036
21
89.603943
31
0.0
1
176
50
19.599823
 0
TEXT
100
AcDbText
 8
Edge ID
100
AcDbText
10
464.334447
20
151.176679
30
0.0
40
3.360000
72
1
11
464.334447
21
151.176679
31
0.0
1
177
50
113.311532
 0
TEXT
100
AcDbText
 8
Edge ID
100
AcDbText
10
360.872384
20
127.725887
30
0.0
40
3.360000
72
1
11
360.872384
21
127.725887
31
0.0
1
178
50
239.571498
 0
TEXT
100
AcDbText
 8
Edge ID
100
AcDbText
10
429.014771
20
63.070675
30
0.0
40
3.360000
72
1
11
429.014771
21
63.070675
31
0.0
1
179
50
79.755905
  0
ENDSEC
  0
EOF
