  0
SECTION
  2
HEADER
  9
$ACADVER
  1
AC1009
  0
ENDSEC
  0
SECTION
  2
BLOCKS
  0
ENDSEC
  0
SECTION
  2
ENTITIES
  0
LINE
  8
CutLine
  6
CONTINUOUS
 62
8
 10
46.425003
 20
399.861159
 11
41.502841
 21
404.937804
  0
LINE
  8
CutLine
  6
CONTINUOUS
 62
8
 10
41.502841
 20
404.937804
 11
41.849631
 21
427.383551
  0
LINE
  8
CutLine
  6
CONTINUOUS
 62
8
 10
41.849631
 20
427.383551
 11
46.955239
 21
434.180338
  0
LINE
  8
CutLine
  6
CONTINUOUS
 62
8
 10
69.772973
 20
409.837595
 11
67.139755
 21
403.275114
  0
LINE
  8
CutLine
  6
CONTINUOUS
 62
8
 10
67.139755
 20
403.275114
 11
52.987484
 21
397.227941
  0
LINE
  8
CutLine
  6
CONTINUOUS
 62
8
 10
52.987484
 20
397.227941
 11
46.425003
 21
399.861159
  0
LINE
  8
CutLine
  6
CONTINUOUS
 62
8
 10
16.991794
 20
510.749379
 11
18.540846
 21
517.648687
  0
LINE
  8
CutLine
  6
CONTINUOUS
 62
8
 10
18.540846
 20
517.648687
 11
45.034654
 21
534.426930
  0
LINE
  8
CutLine
  6
CONTINUOUS
 62
8
 10
45.034654
 20
534.426930
 11
55.160491
 21
534.921205
  0
LINE
  8
CutLine
  6
CONTINUOUS
 62
8
 10
63.688588
 20
508.934382
 11
66.311635
 21
502.367829
  0
LINE
  8
CutLine
  6
CONTINUOUS
 62
8
 10
66.311635
 20
502.367829
 11
64.755121
 21
498.740664
  0
LINE
  8
CutLine
  6
CONTINUOUS
 62
8
 10
64.755121
 20
498.740664
 11
58.188568
 21
496.117617
  0
LINE
  8
CutLine
  6
CONTINUOUS
 62
8
 10
112.077350
 20
515.956821
 11
107.847291
 21
510.290553
  0
LINE
  8
CutLine
  6
CONTINUOUS
 62
8
 10
107.847291
 20
510.290553
 11
69.354856
 21
504.704322
  0
LINE
  8
CutLine
  6
CONTINUOUS
 62
8
 10
69.354856
 20
504.704322
 11
63.688588
 21
508.934382
  0
LINE
  8
CutLine
  6
CONTINUOUS
 62
8
 10
83.374783
 20
431.119459
 11
81.345808
 21
429.489267
  0
LINE
  8
CutLine
  6
CONTINUOUS
 62
8
 10
79.828748
 20
465.936258
 11
85.309636
 21
461.468612
  0
LINE
  8
CutLine
  6
CONTINUOUS
 62
8
 10
85.309636
 20
461.468612
 11
87.842429
 21
436.600348
  0
LINE
  8
CutLine
  6
CONTINUOUS
 62
8
 10
87.842429
 20
436.600348
 11
83.374783
 21
431.119459
  0
LINE
  8
CutLine
  6
CONTINUOUS
 62
8
 10
135.509864
 20
590.026508
 11
141.856753
 21
586.909298
  0
LINE
  8
CutLine
  6
CONTINUOUS
 62
8
 10
141.856753
 20
586.909298
 11
148.450840
 21
567.586295
  0
LINE
  8
CutLine
  6
CONTINUOUS
 62
8
 10
148.450840
 20
567.586295
 11
146.110220
 21
558.963725
  0
LINE
  8
CutLine
  6
CONTINUOUS
 62
8
 10
181.730574
 20
117.142812
 11
181.107016
 21
109.816924
  0
LINE
  8
CutLine
  6
CONTINUOUS
 62
8
 10
181.107016
 20
109.816924
 11
175.284496
 21
104.521222
  0
LINE
  8
CutLine
  6
CONTINUOUS
 62
8
 10
175.284496
 20
104.521222
 11
168.221353
 21
104.855898
  0
LINE
  8
CutLine
  6
CONTINUOUS
 62
8
 10
179.571291
 20
86.214258
 11
184.816668
 21
81.472314
  0
LINE
  8
CutLine
  6
CONTINUOUS
 62
8
 10
184.816668
 20
81.472314
 11
187.298281
 21
32.241046
  0
LINE
  8
CutLine
  6
CONTINUOUS
 62
8
 10
187.298281
 20
32.241046
 11
182.556337
 21
26.995670
  0
LINE
  8
CutLine
  6
CONTINUOUS
 62
8
 10
156.732012
 20
59.859406
 11
155.672672
 21
52.868140
  0
LINE
  8
CutLine
  6
CONTINUOUS
 62
8
 10
155.672672
 20
52.868140
 11
131.740004
 21
35.233841
  0
LINE
  8
CutLine
  6
CONTINUOUS
 62
8
 10
131.740004
 20
35.233841
 11
123.083551
 21
35.066222
  0
LINE
  8
CutLine
  6
CONTINUOUS
 62
8
 10
111.330760
 20
42.954650
 11
103.377189
 21
45.726431
  0
LINE
  8
CutLine
  6
CONTINUOUS
 62
8
 10
103.377189
 20
45.726431
 11
50.447151
 21
123.111218
  0
LINE
  8
CutLine
  6
CONTINUOUS
 62
8
 10
50.447151
 20
123.111218
 11
51.751335
 21
130.060974
  0
LINE
  8
CutLine
  6
CONTINUOUS
 62
8
 10
111.330760
 20
134.141499
 11
117.286330
 21
137.953478
  0
LINE
  8
CutLine
  6
CONTINUOUS
 62
8
 10
117.286330
 20
137.953478
 11
142.902078
 21
132.331837
  0
LINE
  8
CutLine
  6
CONTINUOUS
 62
8
 10
142.902078
 20
132.331837
 11
149.290095
 21
125.810929
  0
LINE
  8
CutLine
  6
CONTINUOUS
 62
8
 10
117.854228
 20
437.535503
 11
119.784082
 21
444.338125
  0
LINE
  8
CutLine
  6
CONTINUOUS
 62
8
 10
119.784082
 20
444.338125
 11
129.821608
 21
449.939119
  0
LINE
  8
CutLine
  6
CONTINUOUS
 62
8
 10
129.821608
 20
449.939119
 11
136.624230
 21
448.009265
  0
LINE
  8
CutLine
  6
CONTINUOUS
 62
8
 10
88.082474
 20
382.581346
 11
83.066470
 21
377.597401
  0
LINE
  8
CutLine
  6
CONTINUOUS
 62
8
 10
83.066470
 20
377.597401
 11
51.270450
 21
377.699336
  0
LINE
  8
CutLine
  6
CONTINUOUS
 62
8
 10
51.270450
 20
377.699336
 11
46.286505
 21
382.715340
  0
LINE
  8
CutLine
  6
CONTINUOUS
 62
8
 10
94.803104
 20
416.801866
 11
101.402451
 21
422.604060
  0
LINE
  8
CutLine
  6
CONTINUOUS
 62
8
 10
101.402451
 20
422.604060
 11
110.936943
 21
423.714235
  0
LINE
  8
CutLine
  6
CONTINUOUS
 62
8
 10
110.936943
 20
423.714235
 11
116.481671
 21
419.326071
  0
LINE
  8
CutLine
  6
CONTINUOUS
 62
8
 10
102.694266
 20
336.391087
 11
96.385290
 21
333.197842
  0
LINE
  8
CutLine
  6
CONTINUOUS
 62
8
 10
96.385290
 20
333.197842
 11
92.437407
 21
334.492334
  0
LINE
  8
CutLine
  6
CONTINUOUS
 62
8
 10
92.437407
 20
334.492334
 11
89.244162
 21
340.801310
  0
LINE
  8
CutLine
  6
CONTINUOUS
 62
8
 10
144.648880
 20
417.297728
 11
153.719864
 21
416.274866
  0
LINE
  8
CutLine
  6
CONTINUOUS
 62
8
 10
153.719864
 20
416.274866
 11
166.573636
 21
405.624098
  0
LINE
  8
CutLine
  6
CONTINUOUS
 62
8
 10
215.775526
 20
452.543945
 11
221.033059
 21
448.936496
  0
LINE
  8
CutLine
  6
CONTINUOUS
 62
8
 10
223.928332
 20
428.741403
 11
221.000314
 21
424.474078
  0
LINE
  8
CutLine
  6
CONTINUOUS
 62
8
 10
218.606142
 20
403.825112
 11
220.885494
 21
401.762936
  0
LINE
  8
CutLine
  6
CONTINUOUS
 62
8
 10
214.305590
 20
145.315717
 11
216.893680
 21
143.107375
  0
LINE
  8
CutLine
  6
CONTINUOUS
 62
8
 10
219.003491
 20
128.176231
 11
215.946249
 21
124.593263
  0
LINE
  8
CutLine
  6
CONTINUOUS
 62
8
 10
194.555781
 20
124.164107
 11
187.498536
 21
123.722192
  0
LINE
  8
CutLine
  6
CONTINUOUS
 62
8
 10
187.498536
 20
123.722192
 11
179.634517
 21
130.659380
  0
LINE
  8
CutLine
  6
CONTINUOUS
 62
8
 10
5.835015
 20
262.247135
 11
4.519928
 21
269.194836
  0
LINE
  8
CutLine
  6
CONTINUOUS
 62
8
 10
4.519928
 20
269.194836
 11
8.439884
 21
274.945232
  0
LINE
  8
CutLine
  6
CONTINUOUS
 62
8
 10
8.439884
 20
274.945232
 11
15.387585
 21
276.260318
  0
LINE
  8
CutLine
  6
CONTINUOUS
 62
8
 10
124.153751
 20
237.550489
 11
125.634819
 21
230.636269
  0
LINE
  8
CutLine
  6
CONTINUOUS
 62
8
 10
125.634819
 20
230.636269
 11
93.865719
 21
181.546753
  0
LINE
  8
CutLine
  6
CONTINUOUS
 62
8
 10
93.865719
 20
181.546753
 11
86.951499
 21
180.065684
  0
LINE
  8
CutLine
  6
CONTINUOUS
 62
8
 10
46.158540
 20
316.641656
 11
52.963605
 21
318.562876
  0
LINE
  8
CutLine
  6
CONTINUOUS
 62
8
 10
52.963605
 20
318.562876
 11
94.173817
 21
295.498739
  0
LINE
  8
CutLine
  6
CONTINUOUS
 62
8
 10
94.173817
 20
295.498739
 11
97.899982
 21
287.683499
  0
LINE
  8
CutLine
  6
CONTINUOUS
 62
8
 10
112.029239
 20
288.531717
 11
116.034299
 21
296.430899
  0
LINE
  8
CutLine
  6
CONTINUOUS
 62
8
 10
116.034299
 20
296.430899
 11
197.771249
 21
341.259290
  0
LINE
  8
CutLine
  6
CONTINUOUS
 62
8
 10
197.771249
 20
341.259290
 11
204.559566
 21
339.279704
  0
LINE
  8
CutLine
  6
CONTINUOUS
 62
8
 10
154.344027
 20
425.684480
 11
162.209856
 21
427.482111
  0
LINE
  8
CutLine
  6
CONTINUOUS
 62
8
 10
162.209856
 20
427.482111
 11
180.643825
 21
418.721145
  0
LINE
  8
CutLine
  6
CONTINUOUS
 62
8
 10
180.643825
 20
418.721145
 11
183.013505
 21
412.058967
  0
LINE
  8
CutLine
  6
CONTINUOUS
 62
8
 10
170.714407
 20
158.234814
 11
169.625981
 21
165.221611
  0
LINE
  8
CutLine
  6
CONTINUOUS
 62
8
 10
169.625981
 20
165.221611
 11
198.952087
 21
205.370809
  0
LINE
  8
CutLine
  6
CONTINUOUS
 62
8
 10
198.952087
 20
205.370809
 11
205.938883
 21
206.459235
  0
LINE
  8
CutLine
  6
CONTINUOUS
 62
8
 10
205.037058
 20
339.131114
 11
208.018465
 21
343.026817
  0
LINE
  8
CutLine
  6
CONTINUOUS
 62
8
 10
271.343546
 20
325.702917
 11
276.096424
 21
320.467447
  0
LINE
  8
CutLine
  6
CONTINUOUS
 62
8
 10
276.096424
 20
320.467447
 11
274.069153
 21
278.508341
  0
LINE
  8
CutLine
  6
CONTINUOUS
 62
8
 10
274.069153
 20
278.508341
 11
268.833684
 21
273.755462
  0
LINE
  8
CutLine
  6
CONTINUOUS
 62
8
 10
208.152256
 20
211.970505
 11
203.734232
 21
217.491471
  0
LINE
  8
CutLine
  6
CONTINUOUS
 62
8
 10
203.734232
 20
217.491471
 11
209.586340
 21
270.226794
  0
LINE
  8
CutLine
  6
CONTINUOUS
 62
8
 10
209.586340
 20
270.226794
 11
215.107306
 21
274.644818
  0
LINE
  8
CutLine
  6
CONTINUOUS
 62
8
 10
268.833684
 20
273.755462
 11
273.908975
 21
268.831905
  0
LINE
  8
CutLine
  6
CONTINUOUS
 62
8
 10
273.908975
 20
268.831905
 11
274.546382
 21
226.828689
  0
LINE
  8
CutLine
  6
CONTINUOUS
 62
8
 10
274.546382
 20
226.828689
 11
269.622825
 21
221.753397
  0
LINE
  8
CutLine
  6
CONTINUOUS
 62
8
 10
199.639661
 20
425.681875
 11
193.719146
 21
429.548075
  0
LINE
  8
CutLine
  6
CONTINUOUS
 62
8
 10
193.719146
 20
429.548075
 11
192.022058
 21
437.632967
  0
LINE
  8
CutLine
  6
CONTINUOUS
 62
8
 10
192.022058
 20
437.632967
 11
195.888258
 21
443.553482
  0
LINE
  8
CutLine
  6
CONTINUOUS
 62
8
 10
209.702771
 20
96.732272
 11
203.000516
 21
94.478436
  0
LINE
  8
CutLine
  6
CONTINUOUS
 62
8
 10
203.000516
 20
94.478436
 11
192.409913
 21
99.738705
  0
LINE
  8
CutLine
  6
CONTINUOUS
 62
8
 10
192.409913
 20
99.738705
 11
190.156078
 21
106.440960
  0
LINE
  8
CutLine
  6
CONTINUOUS
 62
8
 10
238.701028
 20
33.289776
 11
232.366974
 21
36.432984
  0
LINE
  8
CutLine
  6
CONTINUOUS
 62
8
 10
232.366974
 20
36.432984
 11
230.146339
 21
43.028580
  0
LINE
  8
CutLine
  6
CONTINUOUS
 62
8
 10
230.146339
 20
43.028580
 11
233.289547
 21
49.362634
  0
LINE
  8
CutLine
  6
CONTINUOUS
 62
8
 10
249.348705
 20
8.301028
 11
242.788889
 21
10.940877
  0
LINE
  8
CutLine
  6
CONTINUOUS
 62
8
 10
242.788889
 20
10.940877
 11
236.061179
 21
26.729960
  0
LINE
  8
CutLine
  6
CONTINUOUS
 62
8
 10
236.061179
 20
26.729960
 11
238.701028
 21
33.289776
  0
LINE
  8
CutLine
  6
CONTINUOUS
 62
8
 10
286.392631
 20
18.900284
 11
282.960974
 21
12.717750
  0
LINE
  8
CutLine
  6
CONTINUOUS
 62
8
 10
282.960974
 20
12.717750
 11
255.531239
 21
4.869370
  0
LINE
  8
CutLine
  6
CONTINUOUS
 62
8
 10
255.531239
 20
4.869370
 11
249.348705
 21
8.301028
  0
LINE
  8
CutLine
  6
CONTINUOUS
 62
8
 10
247.948343
 20
142.900223
 11
254.204728
 21
139.605129
  0
LINE
  8
CutLine
  6
CONTINUOUS
 62
8
 10
254.204728
 20
139.605129
 11
289.687726
 21
25.156669
  0
LINE
  8
CutLine
  6
CONTINUOUS
 62
8
 10
289.687726
 20
25.156669
 11
286.392631
 21
18.900284
  0
LINE
  8
CutLine
  6
CONTINUOUS
 62
8
 10
214.440911
 20
96.503201
 11
210.940790
 21
102.256825
  0
LINE
  8
CutLine
  6
CONTINUOUS
 62
8
 10
215.292029
 20
121.673863
 11
219.508559
 21
124.601863
  0
LINE
  8
CutLine
  6
CONTINUOUS
 62
8
 10
216.600149
 20
145.184696
 11
214.487644
 21
147.417482
  0
LINE
  8
CutLine
  6
CONTINUOUS
 62
8
 10
234.448200
 20
193.400756
 11
240.569869
 21
189.861665
  0
LINE
  8
CutLine
  6
CONTINUOUS
 62
8
 10
240.569869
 20
189.861665
 11
251.487433
 21
149.021893
  0
LINE
  8
CutLine
  6
CONTINUOUS
 62
8
 10
251.487433
 20
149.021893
 11
247.948343
 21
142.900223
  0
LINE
  8
CutLine
  6
CONTINUOUS
 62
8
 10
258.609024
 20
539.472139
 11
264.912191
 21
542.676837
  0
LINE
  8
CutLine
  6
CONTINUOUS
 62
8
 10
264.912191
 20
542.676837
 11
292.038571
 21
533.836763
  0
LINE
  8
CutLine
  6
CONTINUOUS
 62
8
 10
292.038571
 20
533.836763
 11
295.243269
 21
527.533596
  0
LINE
  8
CutLine
  6
CONTINUOUS
 62
8
 10
247.074281
 20
514.880265
 11
244.670774
 21
521.530314
  0
LINE
  8
CutLine
  6
CONTINUOUS
 62
8
 10
244.670774
 20
521.530314
 11
251.958975
 21
537.068632
  0
LINE
  8
CutLine
  6
CONTINUOUS
 62
8
 10
251.958975
 20
537.068632
 11
258.609024
 21
539.472139
  0
LINE
  8
CutLine
  6
CONTINUOUS
 62
8
 10
220.508016
 20
452.598773
 11
217.957657
 21
459.193898
  0
LINE
  8
CutLine
  6
CONTINUOUS
 62
8
 10
217.957657
 20
459.193898
 11
234.447813
 21
496.479234
  0
LINE
  8
CutLine
  6
CONTINUOUS
 62
8
 10
234.447813
 20
496.479234
 11
241.042938
 21
499.029593
  0
LINE
  8
CutLine
  6
CONTINUOUS
 62
8
 10
252.314541
 20
405.013915
 11
255.628366
 21
398.767430
  0
LINE
  8
CutLine
  6
CONTINUOUS
 62
8
 10
255.628366
 20
398.767430
 11
243.230877
 21
358.352303
  0
LINE
  8
CutLine
  6
CONTINUOUS
 62
8
 10
243.230877
 20
358.352303
 11
236.984393
 21
355.038479
  0
LINE
  8
CutLine
  6
CONTINUOUS
 62
8
 10
220.903950
 20
403.872491
 11
218.938641
 21
406.692806
  0
LINE
  8
CutLine
  6
CONTINUOUS
 62
8
 10
220.669983
 20
421.625080
 11
224.559948
 21
424.335763
  0
LINE
  8
CutLine
  6
CONTINUOUS
 62
8
 10
69.772973
 20
409.837595
 11
83.051277
 21
429.121348
  0
LINE
  8
CutLine
  6
CONTINUOUS
 62
8
 10
83.051277
 20
429.121348
 11
64.002881
 21
433.230639
  0
LINE
  8
ValleyLine
  6
CONTINUOUS
 62
1
 10
64.002881
 20
433.230639
 11
46.955239
 21
434.180338
  0
LINE
  8
MountainLine
  6
CONTINUOUS
 62
5
 10
46.955239
 20
434.180338
 11
69.772973
 21
409.837595
  0
LINE
  8
MountainLine
  6
CONTINUOUS
 62
5
 10
46.955239
 20
434.180338
 11
46.425003
 21
399.861159
  0
LINE
  8
ValleyLine
  6
CONTINUOUS
 62
1
 10
46.425003
 20
399.861159
 11
69.772973
 21
409.837595
  0
LINE
  8
ValleyLine
  6
CONTINUOUS
 62
1
 10
55.160491
 20
534.921205
 11
16.991794
 21
510.749379
  0
LINE
  8
ValleyLine
  6
CONTINUOUS
 62
1
 10
16.991794
 20
510.749379
 11
58.188568
 21
496.117617
  0
LINE
  8
ValleyLine
  6
CONTINUOUS
 62
1
 10
58.188568
 20
496.117617
 11
63.688588
 21
508.934382
  0
LINE
  8
MountainLine
  6
CONTINUOUS
 62
5
 10
63.688588
 20
508.934382
 11
55.160491
 21
534.921205
  0
LINE
  8
ValleyLine
  6
CONTINUOUS
 62
1
 10
112.077350
 20
515.956821
 11
55.160491
 21
534.921205
  0
LINE
  8
ValleyLine
  6
CONTINUOUS
 62
1
 10
63.688588
 20
508.934382
 11
112.077350
 21
515.956821
  0
LINE
  8
CutLine
  6
CONTINUOUS
 62
8
 10
16.991794
 20
510.749379
 11
16.991794
 21
458.475508
  0
LINE
  8
ValleyLine
  6
CONTINUOUS
 62
1
 10
16.991794
 20
458.475508
 11
58.188568
 21
496.117617
  0
LINE
  8
ValleyLine
  6
CONTINUOUS
 62
1
 10
64.002881
 20
433.230639
 11
83.374783
 21
431.119459
  0
LINE
  8
ValleyLine
  6
CONTINUOUS
 62
1
 10
83.374783
 20
431.119459
 11
79.828748
 21
465.936258
  0
LINE
  8
CutLine
  6
CONTINUOUS
 62
8
 10
79.828748
 20
465.936258
 11
58.188568
 21
496.117617
  0
LINE
  8
CutLine
  6
CONTINUOUS
 62
8
 10
16.991794
 20
458.475508
 11
46.955239
 21
434.180338
  0
LINE
  8
ValleyLine
  6
CONTINUOUS
 62
1
 10
112.077350
 20
515.956821
 11
135.509864
 21
590.026508
  0
LINE
  8
CutLine
  6
CONTINUOUS
 62
8
 10
135.509864
 20
590.026508
 11
68.403238
 21
585.215013
  0
LINE
  8
ValleyLine
  6
CONTINUOUS
 62
1
 10
68.403238
 20
585.215013
 11
112.077350
 21
515.956821
  0
LINE
  8
CutLine
  6
CONTINUOUS
 62
8
 10
68.403238
 20
585.215013
 11
55.160491
 21
534.921205
  0
LINE
  8
CutLine
  6
CONTINUOUS
 62
8
 10
112.077350
 20
515.956821
 11
156.336628
 21
536.739105
  0
LINE
  8
CutLine
  6
CONTINUOUS
 62
8
 10
156.336628
 20
536.739105
 11
146.110220
 21
558.963725
  0
LINE
  8
MountainLine
  6
CONTINUOUS
 62
5
 10
146.110220
 20
558.963725
 11
135.509864
 21
590.026508
  0
LINE
  8
MountainLine
  6
CONTINUOUS
 62
5
 10
168.221353
 20
104.855898
 11
181.730574
 21
117.142812
  0
LINE
  8
ValleyLine
  6
CONTINUOUS
 62
1
 10
181.730574
 20
117.142812
 11
149.290095
 21
125.810929
  0
LINE
  8
MountainLine
  6
CONTINUOUS
 62
5
 10
149.290095
 20
125.810929
 11
168.221353
 21
104.855898
  0
LINE
  8
CutLine
  6
CONTINUOUS
 62
8
 10
181.730574
 20
117.142812
 11
178.436726
 21
138.383416
  0
LINE
  8
ValleyLine
  6
CONTINUOUS
 62
1
 10
178.436726
 20
138.383416
 11
149.290095
 21
125.810929
  0
LINE
  8
ValleyLine
  6
CONTINUOUS
 62
1
 10
149.290095
 20
125.810929
 11
156.732012
 21
59.859406
  0
LINE
  8
ValleyLine
  6
CONTINUOUS
 62
1
 10
156.732012
 20
59.859406
 11
168.221353
 21
104.855898
  0
LINE
  8
CutLine
  6
CONTINUOUS
 62
8
 10
179.571291
 20
86.214258
 11
168.221353
 21
104.855898
  0
LINE
  8
CutLine
  6
CONTINUOUS
 62
8
 10
156.732012
 20
59.859406
 11
182.556337
 21
26.995670
  0
LINE
  8
MountainLine
  6
CONTINUOUS
 62
5
 10
182.556337
 20
26.995670
 11
179.571291
 21
86.214258
  0
LINE
  8
MountainLine
  6
CONTINUOUS
 62
5
 10
156.732012
 20
59.859406
 11
111.330760
 21
134.141499
  0
LINE
  8
ValleyLine
  6
CONTINUOUS
 62
1
 10
111.330760
 20
134.141499
 11
111.330760
 21
42.954650
  0
LINE
  8
CutLine
  6
CONTINUOUS
 62
8
 10
111.330760
 20
42.954650
 11
123.083551
 21
35.066222
  0
LINE
  8
ValleyLine
  6
CONTINUOUS
 62
1
 10
123.083551
 20
35.066222
 11
156.732012
 21
59.859406
  0
LINE
  8
CutLine
  6
CONTINUOUS
 62
8
 10
111.330760
 20
134.141499
 11
51.751335
 21
130.060974
  0
LINE
  8
MountainLine
  6
CONTINUOUS
 62
5
 10
51.751335
 20
130.060974
 11
111.330760
 21
42.954650
  0
LINE
  8
ValleyLine
  6
CONTINUOUS
 62
1
 10
149.290095
 20
125.810929
 11
111.330760
 21
134.141499
  0
LINE
  8
CutLine
  6
CONTINUOUS
 62
8
 10
117.854228
 20
437.535503
 11
116.481671
 21
419.326071
  0
LINE
  8
MountainLine
  6
CONTINUOUS
 62
5
 10
116.481671
 20
419.326071
 11
144.648880
 21
417.297728
  0
LINE
  8
ValleyLine
  6
CONTINUOUS
 62
1
 10
144.648880
 20
417.297728
 11
117.854228
 21
437.535503
  0
LINE
  8
ValleyLine
  6
CONTINUOUS
 62
1
 10
136.624230
 20
448.009265
 11
117.854228
 21
437.535503
  0
LINE
  8
CutLine
  6
CONTINUOUS
 62
8
 10
144.648880
 20
417.297728
 11
136.624230
 21
448.009265
  0
LINE
  8
ValleyLine
  6
CONTINUOUS
 62
1
 10
88.082474
 20
382.581346
 11
144.648880
 21
417.297728
  0
LINE
  8
ValleyLine
  6
CONTINUOUS
 62
1
 10
116.481671
 20
419.326071
 11
88.082474
 21
382.581346
  0
LINE
  8
CutLine
  6
CONTINUOUS
 62
8
 10
94.803104
 20
416.801866
 11
46.286505
 21
382.715340
  0
LINE
  8
ValleyLine
  6
CONTINUOUS
 62
1
 10
46.286505
 20
382.715340
 11
88.082474
 21
382.581346
  0
LINE
  8
MountainLine
  6
CONTINUOUS
 62
5
 10
116.481671
 20
419.326071
 11
94.803104
 21
416.801866
  0
LINE
  8
CutLine
  6
CONTINUOUS
 62
8
 10
88.082474
 20
382.581346
 11
89.244162
 21
340.801310
  0
LINE
  8
MountainLine
  6
CONTINUOUS
 62
5
 10
89.244162
 20
340.801310
 11
102.694266
 21
336.391087
  0
LINE
  8
ValleyLine
  6
CONTINUOUS
 62
1
 10
102.694266
 20
336.391087
 11
174.573426
 21
392.501941
  0
LINE
  8
MountainLine
  6
CONTINUOUS
 62
5
 10
174.573426
 20
392.501941
 11
88.082474
 21
382.581346
  0
LINE
  8
ValleyLine
  6
CONTINUOUS
 62
1
 10
208.018465
 20
343.026817
 11
174.573426
 21
392.501941
  0
LINE
  8
CutLine
  6
CONTINUOUS
 62
8
 10
102.694266
 20
336.391087
 11
208.018465
 21
343.026817
  0
LINE
  8
ValleyLine
  6
CONTINUOUS
 62
1
 10
174.573426
 20
392.501941
 11
144.648880
 21
417.297728
  0
LINE
  8
ValleyLine
  6
CONTINUOUS
 62
1
 10
199.639661
 20
425.681875
 11
218.606142
 21
403.825112
  0
LINE
  8
CutLine
  6
CONTINUOUS
 62
8
 10
218.606142
 20
403.825112
 11
221.000314
 21
424.474078
  0
LINE
  8
MountainLine
  6
CONTINUOUS
 62
5
 10
221.000314
 20
424.474078
 11
215.775526
 21
452.543945
  0
LINE
  8
ValleyLine
  6
CONTINUOUS
 62
1
 10
215.775526
 20
452.543945
 11
199.639661
 21
425.681875
  0
LINE
  8
CutLine
  6
CONTINUOUS
 62
8
 10
199.639661
 20
425.681875
 11
183.013505
 21
412.058967
  0
LINE
  8
ValleyLine
  6
CONTINUOUS
 62
1
 10
183.013505
 20
412.058967
 11
220.561540
 21
364.735049
  0
LINE
  8
MountainLine
  6
CONTINUOUS
 62
5
 10
220.561540
 20
364.735049
 11
218.606142
 21
403.825112
  0
LINE
  8
MountainLine
  6
CONTINUOUS
 62
5
 10
215.946249
 20
124.593263
 11
214.305590
 21
145.315717
  0
LINE
  8
ValleyLine
  6
CONTINUOUS
 62
1
 10
214.305590
 20
145.315717
 11
194.555781
 21
124.164107
  0
LINE
  8
ValleyLine
  6
CONTINUOUS
 62
1
 10
194.555781
 20
124.164107
 11
209.702771
 21
96.732272
  0
LINE
  8
CutLine
  6
CONTINUOUS
 62
8
 10
209.702771
 20
96.732272
 11
215.946249
 21
124.593263
  0
LINE
  8
ValleyLine
  6
CONTINUOUS
 62
1
 10
178.436726
 20
138.383416
 11
194.555781
 21
124.164107
  0
LINE
  8
CutLine
  6
CONTINUOUS
 62
8
 10
214.305590
 20
145.315717
 11
217.683142
 21
184.308649
  0
LINE
  8
ValleyLine
  6
CONTINUOUS
 62
1
 10
217.683142
 20
184.308649
 11
178.436726
 21
138.383416
  0
LINE
  8
MountainLine
  6
CONTINUOUS
 62
5
 10
215.107306
 20
274.644818
 11
112.029239
 21
288.531717
  0
LINE
  8
ValleyLine
  6
CONTINUOUS
 62
1
 10
112.029239
 20
288.531717
 11
124.153751
 21
237.550489
  0
LINE
  8
CutLine
  6
CONTINUOUS
 62
8
 10
124.153751
 20
237.550489
 11
215.107306
 21
274.644818
  0
LINE
  8
CutLine
  6
CONTINUOUS
 62
8
 10
112.029239
 20
288.531717
 11
97.899982
 21
287.683499
  0
LINE
  8
ValleyLine
  6
CONTINUOUS
 62
1
 10
97.899982
 20
287.683499
 11
124.153751
 21
237.550489
  0
LINE
  8
CutLine
  6
CONTINUOUS
 62
8
 10
46.158540
 20
316.641656
 11
15.387585
 21
276.260318
  0
LINE
  8
ValleyLine
  6
CONTINUOUS
 62
1
 10
15.387585
 20
276.260318
 11
5.835015
 21
262.247135
  0
LINE
  8
CutLine
  6
CONTINUOUS
 62
8
 10
5.835015
 20
262.247135
 11
86.951499
 21
180.065684
  0
LINE
  8
MountainLine
  6
CONTINUOUS
 62
5
 10
86.951499
 20
180.065684
 11
124.153751
 21
237.550489
  0
LINE
  8
MountainLine
  6
CONTINUOUS
 62
5
 10
97.899982
 20
287.683499
 11
46.158540
 21
316.641656
  0
LINE
  8
ValleyLine
  6
CONTINUOUS
 62
1
 10
215.107306
 20
274.644818
 11
210.230447
 21
337.514989
  0
LINE
  8
CutLine
  6
CONTINUOUS
 62
8
 10
210.230447
 20
337.514989
 11
204.559566
 21
339.279704
  0
LINE
  8
MountainLine
  6
CONTINUOUS
 62
5
 10
204.559566
 20
339.279704
 11
112.029239
 21
288.531717
  0
LINE
  8
ValleyLine
  6
CONTINUOUS
 62
1
 10
174.573426
 20
392.501941
 11
183.013505
 21
412.058967
  0
LINE
  8
ValleyLine
  6
CONTINUOUS
 62
1
 10
183.013505
 20
412.058967
 11
154.344027
 21
425.684480
  0
LINE
  8
CutLine
  6
CONTINUOUS
 62
8
 10
154.344027
 20
425.684480
 11
174.573426
 21
392.501941
  0
LINE
  8
ValleyLine
  6
CONTINUOUS
 62
1
 10
178.436726
 20
138.383416
 11
170.714407
 21
158.234814
  0
LINE
  8
CutLine
  6
CONTINUOUS
 62
8
 10
170.714407
 20
158.234814
 11
149.290095
 21
125.810929
  0
LINE
  8
ValleyLine
  6
CONTINUOUS
 62
1
 10
205.938883
 20
206.459235
 11
217.683142
 21
184.308649
  0
LINE
  8
ValleyLine
  6
CONTINUOUS
 62
1
 10
217.683142
 20
184.308649
 11
234.448200
 21
193.400756
  0
LINE
  8
CutLine
  6
CONTINUOUS
 62
8
 10
234.448200
 20
193.400756
 11
269.622825
 21
221.753397
  0
LINE
  8
ValleyLine
  6
CONTINUOUS
 62
1
 10
269.622825
 20
221.753397
 11
208.152256
 21
211.970505
  0
LINE
  8
CutLine
  6
CONTINUOUS
 62
8
 10
208.152256
 20
211.970505
 11
205.938883
 21
206.459235
  0
LINE
  8
ValleyLine
  6
CONTINUOUS
 62
1
 10
205.938883
 20
206.459235
 11
170.714407
 21
158.234814
  0
LINE
  8
ValleyLine
  6
CONTINUOUS
 62
1
 10
236.984393
 20
355.038479
 11
220.561540
 21
364.735049
  0
LINE
  8
ValleyLine
  6
CONTINUOUS
 62
1
 10
220.561540
 20
364.735049
 11
208.018465
 21
343.026817
  0
LINE
  8
ValleyLine
  6
CONTINUOUS
 62
1
 10
208.018465
 20
343.026817
 11
210.230447
 21
337.514989
  0
LINE
  8
ValleyLine
  6
CONTINUOUS
 62
1
 10
210.230447
 20
337.514989
 11
271.343546
 21
325.702917
  0
LINE
  8
CutLine
  6
CONTINUOUS
 62
8
 10
271.343546
 20
325.702917
 11
236.984393
 21
355.038479
  0
LINE
  8
MountainLine
  6
CONTINUOUS
 62
5
 10
215.107306
 20
274.644818
 11
268.833684
 21
273.755462
  0
LINE
  8
ValleyLine
  6
CONTINUOUS
 62
1
 10
268.833684
 20
273.755462
 11
271.343546
 21
325.702917
  0
LINE
  8
ValleyLine
  6
CONTINUOUS
 62
1
 10
215.107306
 20
274.644818
 11
208.152256
 21
211.970505
  0
LINE
  8
ValleyLine
  6
CONTINUOUS
 62
1
 10
269.622825
 20
221.753397
 11
268.833684
 21
273.755462
  0
LINE
  8
MountainLine
  6
CONTINUOUS
 62
5
 10
195.888258
 20
443.553482
 11
199.639661
 21
425.681875
  0
LINE
  8
CutLine
  6
CONTINUOUS
 62
8
 10
215.775526
 20
452.543945
 11
195.888258
 21
443.553482
  0
LINE
  8
CutLine
  6
CONTINUOUS
 62
8
 10
194.555781
 20
124.164107
 11
190.156078
 21
106.440960
  0
LINE
  8
MountainLine
  6
CONTINUOUS
 62
5
 10
190.156078
 20
106.440960
 11
209.702771
 21
96.732272
  0
LINE
  8
ValleyLine
  6
CONTINUOUS
 62
1
 10
233.289547
 20
49.362634
 11
238.701028
 21
33.289776
  0
LINE
  8
ValleyLine
  6
CONTINUOUS
 62
1
 10
238.701028
 20
33.289776
 11
249.348705
 21
8.301028
  0
LINE
  8
MountainLine
  6
CONTINUOUS
 62
5
 10
249.348705
 20
8.301028
 11
286.392631
 21
18.900284
  0
LINE
  8
MountainLine
  6
CONTINUOUS
 62
5
 10
286.392631
 20
18.900284
 11
247.948343
 21
142.900223
  0
LINE
  8
ValleyLine
  6
CONTINUOUS
 62
1
 10
247.948343
 20
142.900223
 11
219.508559
 21
124.601863
  0
LINE
  8
MountainLine
  6
CONTINUOUS
 62
5
 10
219.508559
 20
124.601863
 11
214.440911
 21
96.503201
  0
LINE
  8
CutLine
  6
CONTINUOUS
 62
8
 10
214.440911
 20
96.503201
 11
233.289547
 21
49.362634
  0
LINE
  8
MountainLine
  6
CONTINUOUS
 62
5
 10
217.683142
 20
184.308649
 11
216.600149
 21
145.184696
  0
LINE
  8
CutLine
  6
CONTINUOUS
 62
8
 10
216.600149
 20
145.184696
 11
219.508559
 21
124.601863
  0
LINE
  8
MountainLine
  6
CONTINUOUS
 62
5
 10
247.948343
 20
142.900223
 11
234.448200
 21
193.400756
  0
LINE
  8
ValleyLine
  6
CONTINUOUS
 62
1
 10
224.559948
 20
424.335763
 11
252.314541
 21
405.013915
  0
LINE
  8
CutLine
  6
CONTINUOUS
 62
8
 10
252.314541
 20
405.013915
 11
295.243269
 21
527.533596
  0
LINE
  8
MountainLine
  6
CONTINUOUS
 62
5
 10
295.243269
 20
527.533596
 11
258.609024
 21
539.472139
  0
LINE
  8
ValleyLine
  6
CONTINUOUS
 62
1
 10
258.609024
 20
539.472139
 11
247.074281
 21
514.880265
  0
LINE
  8
CutLine
  6
CONTINUOUS
 62
8
 10
247.074281
 20
514.880265
 11
241.042938
 21
499.029593
  0
LINE
  8
ValleyLine
  6
CONTINUOUS
 62
1
 10
241.042938
 20
499.029593
 11
220.508016
 21
452.598773
  0
LINE
  8
CutLine
  6
CONTINUOUS
 62
8
 10
220.508016
 20
452.598773
 11
224.559948
 21
424.335763
  0
LINE
  8
CutLine
  6
CONTINUOUS
 62
8
 10
220.903950
 20
403.872491
 11
220.561540
 21
364.735049
  0
LINE
  8
MountainLine
  6
CONTINUOUS
 62
5
 10
236.984393
 20
355.038479
 11
252.314541
 21
405.013915
  0
LINE
  8
MountainLine
  6
CONTINUOUS
 62
5
 10
224.559948
 20
424.335763
 11
220.903950
 21
403.872491
 0
TEXT
100
AcDbText
 8
Edge ID
100
AcDbText
10
73.688832
20
432.175049
30
0.0
40
3.360000
72
1
11
73.688832
21
432.175049
31
0.0
1
469
50
-6.219635
 0
TEXT
100
AcDbText
 8
Edge ID
100
AcDbText
10
81.601765
20
448.527859
30
0.0
40
3.360000
72
1
11
81.601765
21
448.527859
31
0.0
1
470
50
95.815430
 0
TEXT
100
AcDbText
 8
Edge ID
100
AcDbText
10
69.008658
20
481.026937
30
0.0
40
3.360000
72
1
11
69.008658
21
481.026937
31
0.0
1
71
50
125.640706
 0
TEXT
100
AcDbText
 8
Edge ID
100
AcDbText
10
31.973517
20
446.327923
30
0.0
40
3.360000
72
1
11
31.973517
21
446.327923
31
0.0
1
40
50
-39.036072
 0
TEXT
100
AcDbText
 8
Edge ID
100
AcDbText
10
61.781864
20
560.068109
30
0.0
40
3.360000
72
1
11
61.781864
21
560.068109
31
0.0
1
495
50
255.248411
 0
TEXT
100
AcDbText
 8
Edge ID
100
AcDbText
10
87.882969
20
512.445602
30
0.0
40
3.360000
72
1
11
87.882969
21
512.445602
31
0.0
1
468
50
8.257425
 0
TEXT
100
AcDbText
 8
Edge ID
100
AcDbText
10
134.206989
20
526.347963
30
0.0
40
3.360000
72
1
11
134.206989
21
526.347963
31
0.0
1
468
50
25.152763
 0
TEXT
100
AcDbText
 8
Edge ID
100
AcDbText
10
151.223424
20
547.851415
30
0.0
40
3.360000
72
1
11
151.223424
21
547.851415
31
0.0
1
72
50
114.708990
 0
TEXT
100
AcDbText
 8
Edge ID
100
AcDbText
10
140.810042
20
574.495116
30
0.0
40
3.360000
72
1
11
140.810042
21
574.495116
31
0.0
1
471
50
108.842505
 0
TEXT
100
AcDbText
 8
Edge ID
100
AcDbText
10
46.690121
20
417.020749
30
0.0
40
3.360000
72
1
11
46.690121
21
417.020749
31
0.0
1
464
50
269.114842
 0
TEXT
100
AcDbText
 8
Edge ID
100
AcDbText
10
58.098988
20
404.849377
30
0.0
40
3.360000
72
1
11
58.098988
21
404.849377
31
0.0
1
465
50
23.136703
 0
TEXT
100
AcDbText
 8
Edge ID
100
AcDbText
10
16.991794
20
484.612444
30
0.0
40
3.360000
72
1
11
16.991794
21
484.612444
31
0.0
1
504
50
270.000000
 0
TEXT
100
AcDbText
 8
Edge ID
100
AcDbText
10
36.076143
20
522.835292
30
0.0
40
3.360000
72
1
11
36.076143
21
522.835292
31
0.0
1
466
50
212.345641
 0
TEXT
100
AcDbText
 8
Edge ID
100
AcDbText
10
60.938578
20
502.525999
30
0.0
40
3.360000
72
1
11
60.938578
21
502.525999
31
0.0
1
467
50
66.774521
 0
TEXT
100
AcDbText
 8
Edge ID
100
AcDbText
10
76.412125
20
419.479471
30
0.0
40
3.360000
72
1
11
76.412125
21
419.479471
31
0.0
1
65
50
55.449687
 0
TEXT
100
AcDbText
 8
Edge ID
100
AcDbText
10
73.527079
20
431.175993
30
0.0
40
3.360000
72
1
11
73.527079
21
431.175993
31
0.0
1
469
50
167.826204
 0
TEXT
100
AcDbText
 8
Edge ID
100
AcDbText
10
101.956551
20
587.620761
30
0.0
40
3.360000
72
1
11
101.956551
21
587.620761
31
0.0
1
63
50
184.101046
 0
TEXT
100
AcDbText
 8
Edge ID
100
AcDbText
10
211.629781
20
243.307661
30
0.0
40
3.360000
72
1
11
211.629781
21
243.307661
31
0.0
1
494
50
263.667721
 0
TEXT
100
AcDbText
 8
Edge ID
100
AcDbText
10
269.228254
20
247.754430
30
0.0
40
3.360000
72
1
11
269.228254
21
247.754430
31
0.0
1
495
50
90.869408
 0
TEXT
100
AcDbText
 8
Edge ID
100
AcDbText
10
188.326645
20
182.347025
30
0.0
40
3.360000
72
1
11
188.326645
21
182.347025
31
0.0
1
491
50
233.854555
 0
TEXT
100
AcDbText
 8
Edge ID
100
AcDbText
10
217.141645
20
164.746672
30
0.0
40
3.360000
72
1
11
217.141645
21
164.746672
31
0.0
1
503
50
268.414395
 0
TEXT
100
AcDbText
 8
Edge ID
100
AcDbText
10
218.054354
20
134.893279
30
0.0
40
3.360000
72
1
11
218.054354
21
134.893279
31
0.0
1
484
50
-81.957198
 0
TEXT
100
AcDbText
 8
Edge ID
100
AcDbText
10
241.198271
20
168.150489
30
0.0
40
3.360000
72
1
11
241.198271
21
168.150489
31
0.0
1
504
50
104.966720
 0
TEXT
100
AcDbText
 8
Edge ID
100
AcDbText
10
252.035512
20
207.577077
30
0.0
40
3.360000
72
1
11
252.035512
21
207.577077
31
0.0
1
466
50
38.870684
 0
TEXT
100
AcDbText
 8
Edge ID
100
AcDbText
10
207.045570
20
209.214870
30
0.0
40
3.360000
72
1
11
207.045570
21
209.214870
31
0.0
1
321
50
248.119189
 0
TEXT
100
AcDbText
 8
Edge ID
100
AcDbText
10
173.896322
20
95.535078
30
0.0
40
3.360000
72
1
11
173.896322
21
95.535078
31
0.0
1
497
50
121.335092
 0
TEXT
100
AcDbText
 8
Edge ID
100
AcDbText
10
169.644175
20
43.427538
30
0.0
40
3.360000
72
1
11
169.644175
21
43.427538
31
0.0
1
474
50
-51.839736
 0
TEXT
100
AcDbText
 8
Edge ID
100
AcDbText
10
181.063814
20
56.604964
30
0.0
40
3.360000
72
1
11
181.063814
21
56.604964
31
0.0
1
473
50
92.885680
 0
TEXT
100
AcDbText
 8
Edge ID
100
AcDbText
10
160.002251
20
142.022871
30
0.0
40
3.360000
72
1
11
160.002251
21
142.022871
31
0.0
1
476
50
236.544983
 0
TEXT
100
AcDbText
 8
Edge ID
100
AcDbText
10
180.083650
20
127.763114
30
0.0
40
3.360000
72
1
11
180.083650
21
127.763114
31
0.0
1
485
50
98.814828
 0
TEXT
100
AcDbText
 8
Edge ID
100
AcDbText
10
192.355930
20
115.302534
30
0.0
40
3.360000
72
1
11
192.355930
21
115.302534
31
0.0
1
472
50
256.058372
 0
TEXT
100
AcDbText
 8
Edge ID
100
AcDbText
10
199.929425
20
101.586616
30
0.0
40
3.360000
72
1
11
199.929425
21
101.586616
31
0.0
1
497
50
-26.413229
 0
TEXT
100
AcDbText
 8
Edge ID
100
AcDbText
10
186.496254
20
131.273762
30
0.0
40
3.360000
72
1
11
186.496254
21
131.273762
31
0.0
1
485
50
-41.416896
 0
TEXT
100
AcDbText
 8
Edge ID
100
AcDbText
10
215.994366
20
164.812183
30
0.0
40
3.360000
72
1
11
215.994366
21
164.812183
31
0.0
1
503
50
85.049419
 0
TEXT
100
AcDbText
 8
Edge ID
100
AcDbText
10
130.310427
20
129.976214
30
0.0
40
3.360000
72
1
11
130.310427
21
129.976214
31
0.0
1
476
50
167.622076
 0
TEXT
100
AcDbText
 8
Edge ID
100
AcDbText
10
81.541048
20
132.101236
30
0.0
40
3.360000
72
1
11
81.541048
21
132.101236
31
0.0
1
491
50
183.918002
 0
TEXT
100
AcDbText
 8
Edge ID
100
AcDbText
10
81.541048
20
86.507812
30
0.0
40
3.360000
72
1
11
81.541048
21
86.507812
31
0.0
1
475
50
-55.628455
 0
TEXT
100
AcDbText
 8
Edge ID
100
AcDbText
10
117.207155
20
39.010436
30
0.0
40
3.360000
72
1
11
117.207155
21
39.010436
31
0.0
1
319
50
-33.869358
 0
TEXT
100
AcDbText
 8
Edge ID
100
AcDbText
10
139.907782
20
47.462814
30
0.0
40
3.360000
72
1
11
139.907782
21
47.462814
31
0.0
1
474
50
36.383889
 0
TEXT
100
AcDbText
 8
Edge ID
100
AcDbText
10
174.975963
20
110.999355
30
0.0
40
3.360000
72
1
11
174.975963
21
110.999355
31
0.0
1
472
50
42.287164
 0
TEXT
100
AcDbText
 8
Edge ID
100
AcDbText
10
235.995288
20
41.326205
30
0.0
40
3.360000
72
1
11
235.995288
21
41.326205
31
0.0
1
498
50
-71.392421
 0
TEXT
100
AcDbText
 8
Edge ID
100
AcDbText
10
244.024867
20
20.795402
30
0.0
40
3.360000
72
1
11
244.024867
21
20.795402
31
0.0
1
499
50
-66.921202
 0
TEXT
100
AcDbText
 8
Edge ID
100
AcDbText
10
267.870668
20
13.600656
30
0.0
40
3.360000
72
1
11
267.870668
21
13.600656
31
0.0
1
500
50
15.967240
 0
TEXT
100
AcDbText
 8
Edge ID
100
AcDbText
10
267.170487
20
80.900254
30
0.0
40
3.360000
72
1
11
267.170487
21
80.900254
31
0.0
1
501
50
107.225252
 0
TEXT
100
AcDbText
 8
Edge ID
100
AcDbText
10
216.974735
20
110.552532
30
0.0
40
3.360000
72
1
11
216.974735
21
110.552532
31
0.0
1
502
50
259.776496
 0
TEXT
100
AcDbText
 8
Edge ID
100
AcDbText
10
223.865229
20
72.932918
30
0.0
40
3.360000
72
1
11
223.865229
21
72.932918
31
0.0
1
320
50
-68.206544
 0
TEXT
100
AcDbText
 8
Edge ID
100
AcDbText
10
215.125919
20
134.954490
30
0.0
40
3.360000
72
1
11
215.125919
21
134.954490
31
0.0
1
484
50
94.526835
 0
TEXT
100
AcDbText
 8
Edge ID
100
AcDbText
10
212.824510
20
110.662767
30
0.0
40
3.360000
72
1
11
212.824510
21
110.662767
31
0.0
1
502
50
77.369042
 0
TEXT
100
AcDbText
 8
Edge ID
100
AcDbText
10
270.088615
20
299.729190
30
0.0
40
3.360000
72
1
11
270.088615
21
299.729190
31
0.0
1
493
50
87.233883
 0
TEXT
100
AcDbText
 8
Edge ID
100
AcDbText
10
244.649467
20
380.026197
30
0.0
40
3.360000
72
1
11
244.649467
21
380.026197
31
0.0
1
508
50
72.946412
 0
TEXT
100
AcDbText
 8
Edge ID
100
AcDbText
10
222.731949
20
414.104127
30
0.0
40
3.360000
72
1
11
222.731949
21
414.104127
31
0.0
1
509
50
259.870330
 0
TEXT
100
AcDbText
 8
Edge ID
100
AcDbText
10
220.732745
20
384.303770
30
0.0
40
3.360000
72
1
11
220.732745
21
384.303770
31
0.0
1
483
50
269.498737
 0
TEXT
100
AcDbText
 8
Edge ID
100
AcDbText
10
209.124456
20
340.270903
30
0.0
40
3.360000
72
1
11
209.124456
21
340.270903
31
0.0
1
492
50
-68.133640
 0
TEXT
100
AcDbText
 8
Edge ID
100
AcDbText
10
254.163969
20
340.370698
30
0.0
40
3.360000
72
1
11
254.163969
21
340.370698
31
0.0
1
59
50
139.509573
 0
TEXT
100
AcDbText
 8
Edge ID
100
AcDbText
10
70.544805
20
399.758603
30
0.0
40
3.360000
72
1
11
70.544805
21
399.758603
31
0.0
1
488
50
215.090900
 0
TEXT
100
AcDbText
 8
Edge ID
100
AcDbText
10
67.184490
20
382.648343
30
0.0
40
3.360000
72
1
11
67.184490
21
382.648343
31
0.0
1
478
50
-0.183684
 0
TEXT
100
AcDbText
 8
Edge ID
100
AcDbText
10
105.642388
20
418.063969
30
0.0
40
3.360000
72
1
11
105.642388
21
418.063969
31
0.0
1
479
50
186.641488
 0
TEXT
100
AcDbText
 8
Edge ID
100
AcDbText
10
168.678766
20
418.871724
30
0.0
40
3.360000
72
1
11
168.678766
21
418.871724
31
0.0
1
490
50
154.580035
 0
TEXT
100
AcDbText
 8
Edge ID
100
AcDbText
10
164.458727
20
409.093211
30
0.0
40
3.360000
72
1
11
164.458727
21
409.093211
31
0.0
1
481
50
-58.631851
 0
TEXT
100
AcDbText
 8
Edge ID
100
AcDbText
10
30.773062
20
296.450987
30
0.0
40
3.360000
72
1
11
30.773062
21
296.450987
31
0.0
1
507
50
232.692262
 0
TEXT
100
AcDbText
 8
Edge ID
100
AcDbText
10
10.611300
20
269.253727
30
0.0
40
3.360000
72
1
11
10.611300
21
269.253727
31
0.0
1
486
50
235.718350
 0
TEXT
100
AcDbText
 8
Edge ID
100
AcDbText
10
46.393257
20
221.156410
30
0.0
40
3.360000
72
1
11
46.393257
21
221.156410
31
0.0
1
80
50
-45.373656
 0
TEXT
100
AcDbText
 8
Edge ID
100
AcDbText
10
105.552625
20
208.808087
30
0.0
40
3.360000
72
1
11
105.552625
21
208.808087
31
0.0
1
487
50
57.090401
 0
TEXT
100
AcDbText
 8
Edge ID
100
AcDbText
10
72.029261
20
302.162578
30
0.0
40
3.360000
72
1
11
72.029261
21
302.162578
31
0.0
1
488
50
150.765550
 0
TEXT
100
AcDbText
 8
Edge ID
100
AcDbText
10
104.964610
20
288.107608
30
0.0
40
3.360000
72
1
11
104.964610
21
288.107608
31
0.0
1
480
50
183.435498
 0
TEXT
100
AcDbText
 8
Edge ID
100
AcDbText
10
127.239229
20
442.772384
30
0.0
40
3.360000
72
1
11
127.239229
21
442.772384
31
0.0
1
477
50
209.161752
 0
TEXT
100
AcDbText
 8
Edge ID
100
AcDbText
10
140.636555
20
432.653497
30
0.0
40
3.360000
72
1
11
140.636555
21
432.653497
31
0.0
1
490
50
104.643482
 0
TEXT
100
AcDbText
 8
Edge ID
100
AcDbText
10
207.395006
20
338.397347
30
0.0
40
3.360000
72
1
11
207.395006
21
338.397347
31
0.0
1
492
50
162.714437
 0
TEXT
100
AcDbText
 8
Edge ID
100
AcDbText
10
158.294402
20
313.905711
30
0.0
40
3.360000
72
1
11
158.294402
21
313.905711
31
0.0
1
489
50
208.742437
 0
TEXT
100
AcDbText
 8
Edge ID
100
AcDbText
10
197.763959
20
434.617678
30
0.0
40
3.360000
72
1
11
197.763959
21
434.617678
31
0.0
1
496
50
-78.145239
 0
TEXT
100
AcDbText
 8
Edge ID
100
AcDbText
10
205.831892
20
448.048713
30
0.0
40
3.360000
72
1
11
205.831892
21
448.048713
31
0.0
1
479
50
204.326361
 0
TEXT
100
AcDbText
 8
Edge ID
100
AcDbText
10
191.326583
20
418.870421
30
0.0
40
3.360000
72
1
11
191.326583
21
418.870421
31
0.0
1
477
50
219.330028
 0
TEXT
100
AcDbText
 8
Edge ID
100
AcDbText
10
219.583841
20
384.280080
30
0.0
40
3.360000
72
1
11
219.583841
21
384.280080
31
0.0
1
483
50
92.863713
 0
TEXT
100
AcDbText
 8
Edge ID
100
AcDbText
10
159.611153
20
404.899834
30
0.0
40
3.360000
72
1
11
159.611153
21
404.899834
31
0.0
1
481
50
140.354504
 0
TEXT
100
AcDbText
 8
Edge ID
100
AcDbText
10
155.356366
20
339.708952
30
0.0
40
3.360000
72
1
11
155.356366
21
339.708952
31
0.0
1
489
50
3.605035
 0
TEXT
100
AcDbText
 8
Edge ID
100
AcDbText
10
88.663318
20
361.691328
30
0.0
40
3.360000
72
1
11
88.663318
21
361.691328
31
0.0
1
478
50
-88.407309
 0
TEXT
100
AcDbText
 8
Edge ID
100
AcDbText
10
95.969214
20
338.596199
30
0.0
40
3.360000
72
1
11
95.969214
21
338.596199
31
0.0
1
480
50
-18.154062
 0
TEXT
100
AcDbText
 8
Edge ID
100
AcDbText
10
169.630528
20
256.097653
30
0.0
40
3.360000
72
1
11
169.630528
21
256.097653
31
0.0
1
318
50
22.187508
 0
TEXT
100
AcDbText
 8
Edge ID
100
AcDbText
10
117.167949
20
428.430787
30
0.0
40
3.360000
72
1
11
117.167949
21
428.430787
31
0.0
1
496
50
265.689416
 0
TEXT
100
AcDbText
 8
Edge ID
100
AcDbText
10
273.778905
20
466.273755
30
0.0
40
3.360000
72
1
11
273.778905
21
466.273755
31
0.0
1
43
50
70.690442
 0
TEXT
100
AcDbText
 8
Edge ID
100
AcDbText
10
276.926147
20
533.502868
30
0.0
40
3.360000
72
1
11
276.926147
21
533.502868
31
0.0
1
505
50
161.949999
 0
TEXT
100
AcDbText
 8
Edge ID
100
AcDbText
10
252.841653
20
527.176202
30
0.0
40
3.360000
72
1
11
252.841653
21
527.176202
31
0.0
1
506
50
244.871219
 0
TEXT
100
AcDbText
 8
Edge ID
100
AcDbText
10
244.058609
20
506.954929
30
0.0
40
3.360000
72
1
11
244.058609
21
506.954929
31
0.0
1
486
50
249.167667
 0
TEXT
100
AcDbText
 8
Edge ID
100
AcDbText
10
230.775477
20
475.814183
30
0.0
40
3.360000
72
1
11
230.775477
21
475.814183
31
0.0
1
507
50
246.141669
 0
TEXT
100
AcDbText
 8
Edge ID
100
AcDbText
10
222.533982
20
438.467268
30
0.0
40
3.360000
72
1
11
222.533982
21
438.467268
31
0.0
1
482
50
-81.841372
 0
TEXT
100
AcDbText
 8
Edge ID
100
AcDbText
10
219.803228
20
414.149595
30
0.0
40
3.360000
72
1
11
219.803228
21
414.149595
31
0.0
1
509
50
83.386298
 0
TEXT
100
AcDbText
 8
Edge ID
100
AcDbText
10
218.387920
20
438.509011
30
0.0
40
3.360000
72
1
11
218.387920
21
438.509011
31
0.0
1
482
50
100.544090
  0
ENDSEC
  0
EOF
