  0
SECTION
  2
HEADER
  9
$ACADVER
  1
AC1009
  0
ENDSEC
  0
SECTION
  2
BLOCKS
  0
ENDSEC
  0
SECTION
  2
ENTITIES
  0
LINE
  8
CutLine
  6
CONTINUOUS
 62
8
 10
1040.970770
 20
473.645682
 11
1031.931067
 21
538.273359
  0
LINE
  8
CutLine
  6
CONTINUOUS
 62
8
 10
1031.931067
 20
538.273359
 11
1036.190236
 21
543.917779
  0
LINE
  8
CutLine
  6
CONTINUOUS
 62
8
 10
1075.788761
 20
445.321886
 11
1073.907830
 21
438.505575
  0
LINE
  8
CutLine
  6
CONTINUOUS
 62
8
 10
1073.907830
 20
438.505575
 11
1049.939728
 21
424.904516
  0
LINE
  8
CutLine
  6
CONTINUOUS
 62
8
 10
1049.939728
 20
424.904516
 11
1043.123417
 21
426.785447
  0
LINE
  8
CutLine
  6
CONTINUOUS
 62
8
 10
1119.029355
 20
503.478779
 11
1120.058484
 21
496.483002
  0
LINE
  8
CutLine
  6
CONTINUOUS
 62
8
 10
1120.058484
 20
496.483002
 11
1082.784537
 21
446.351015
  0
LINE
  8
CutLine
  6
CONTINUOUS
 62
8
 10
1082.784537
 20
446.351015
 11
1075.788761
 21
445.321886
  0
LINE
  8
CutLine
  6
CONTINUOUS
 62
8
 10
929.082941
 20
560.757861
 11
935.974703
 21
562.340145
  0
LINE
  8
CutLine
  6
CONTINUOUS
 62
8
 10
935.974703
 20
562.340145
 11
980.820258
 21
534.241826
  0
LINE
  8
CutLine
  6
CONTINUOUS
 62
8
 10
980.820258
 20
534.241826
 11
982.402543
 21
527.350065
  0
LINE
  8
CutLine
  6
CONTINUOUS
 62
8
 10
949.267895
 20
436.650079
 11
943.353380
 21
441.869054
  0
LINE
  8
CutLine
  6
CONTINUOUS
 62
8
 10
943.353380
 20
441.869054
 11
926.265993
 21
546.931357
  0
LINE
  8
CutLine
  6
CONTINUOUS
 62
8
 10
926.265993
 20
546.931357
 11
929.082941
 21
560.757861
  0
LINE
  8
CutLine
  6
CONTINUOUS
 62
8
 10
1028.580895
 20
374.426619
 11
1030.166464
 21
362.661645
  0
LINE
  8
CutLine
  6
CONTINUOUS
 62
8
 10
1030.166464
 20
362.661645
 11
1015.255083
 21
314.591009
  0
LINE
  8
CutLine
  6
CONTINUOUS
 62
8
 10
1015.255083
 20
314.591009
 11
1008.998210
 21
311.296842
  0
LINE
  8
CutLine
  6
CONTINUOUS
 62
8
 10
997.008137
 20
299.373216
 11
1001.075112
 21
292.673684
  0
LINE
  8
CutLine
  6
CONTINUOUS
 62
8
 10
1001.075112
 20
292.673684
 11
994.655494
 21
249.098511
  0
LINE
  8
CutLine
  6
CONTINUOUS
 62
8
 10
994.655494
 20
249.098511
 11
987.677442
 21
236.038185
  0
LINE
  8
CutLine
  6
CONTINUOUS
 62
8
 10
1132.336995
 20
194.090957
 11
1175.102260
 21
164.969397
  0
LINE
  8
CutLine
  6
CONTINUOUS
 62
8
 10
1175.102260
 20
164.969397
 11
1176.420770
 21
158.022345
  0
LINE
  8
CutLine
  6
CONTINUOUS
 62
8
 10
1058.761647
 20
65.601954
 11
1055.942642
 21
79.428039
  0
LINE
  8
CutLine
  6
CONTINUOUS
 62
8
 10
1055.942642
 20
79.428039
 11
1073.014405
 21
184.492882
  0
LINE
  8
CutLine
  6
CONTINUOUS
 62
8
 10
1073.014405
 20
184.492882
 11
1078.928144
 21
189.712736
  0
LINE
  8
CutLine
  6
CONTINUOUS
 62
8
 10
1176.420770
 20
158.022345
 11
1176.122847
 21
150.957556
  0
LINE
  8
CutLine
  6
CONTINUOUS
 62
8
 10
1176.122847
 20
150.957556
 11
1119.193734
 21
98.635581
  0
LINE
  8
CutLine
  6
CONTINUOUS
 62
8
 10
1119.193734
 20
98.635581
 11
1112.128945
 21
98.933504
  0
LINE
  8
CutLine
  6
CONTINUOUS
 62
8
 10
1157.069340
 20
250.413251
 11
1163.314609
 21
247.097138
  0
LINE
  8
CutLine
  6
CONTINUOUS
 62
8
 10
1163.314609
 20
247.097138
 11
1176.195709
 21
205.050525
  0
LINE
  8
CutLine
  6
CONTINUOUS
 62
8
 10
1176.195709
 20
205.050525
 11
1172.879596
 21
198.805255
  0
LINE
  8
CutLine
  6
CONTINUOUS
 62
8
 10
1126.675857
 20
326.987001
 11
1133.651329
 21
325.828210
  0
LINE
  8
CutLine
  6
CONTINUOUS
 62
8
 10
1133.651329
 20
325.828210
 11
1137.670425
 21
320.207757
  0
LINE
  8
CutLine
  6
CONTINUOUS
 62
8
 10
1137.670425
 20
320.207757
 11
1136.511634
 21
313.232285
  0
LINE
  8
CutLine
  6
CONTINUOUS
 62
8
 10
1119.029355
 20
503.478779
 11
1118.668648
 21
511.443906
  0
LINE
  8
CutLine
  6
CONTINUOUS
 62
8
 10
1118.668648
 20
511.443906
 11
1118.395928
 21
517.465547
  0
LINE
  8
CutLine
  6
CONTINUOUS
 62
8
 10
1118.395928
 20
517.465547
 11
1113.699152
 21
536.969803
  0
LINE
  8
CutLine
  6
CONTINUOUS
 62
8
 10
1113.699152
 20
536.969803
 11
1112.186455
 21
543.251554
  0
LINE
  8
CutLine
  6
CONTINUOUS
 62
8
 10
1112.186455
 20
543.251554
 11
1109.921822
 21
548.262202
  0
LINE
  8
CutLine
  6
CONTINUOUS
 62
8
 10
1109.921822
 20
548.262202
 11
1036.190236
 21
543.917779
  0
LINE
  8
ValleyLine
  6
CONTINUOUS
 62
1
 10
1036.190236
 20
543.917779
 11
1046.762246
 21
468.335165
  0
LINE
  8
ValleyLine
  6
CONTINUOUS
 62
1
 10
1046.762246
 20
468.335165
 11
1043.123417
 21
426.785447
  0
LINE
  8
MountainLine
  6
CONTINUOUS
 62
5
 10
1043.123417
 20
426.785447
 11
1075.788761
 21
445.321886
  0
LINE
  8
MountainLine
  6
CONTINUOUS
 62
5
 10
1075.788761
 20
445.321886
 11
1119.029355
 21
503.478779
  0
LINE
  8
MountainLine
  6
CONTINUOUS
 62
5
 10
949.267895
 20
436.650079
 11
995.088913
 21
433.151656
  0
LINE
  8
ValleyLine
  6
CONTINUOUS
 62
1
 10
995.088913
 20
433.151656
 11
1046.762246
 21
468.335165
  0
LINE
  8
CutLine
  6
CONTINUOUS
 62
8
 10
1046.762246
 20
468.335165
 11
982.402543
 21
527.350065
  0
LINE
  8
ValleyLine
  6
CONTINUOUS
 62
1
 10
982.402543
 20
527.350065
 11
929.082941
 21
560.757861
  0
LINE
  8
ValleyLine
  6
CONTINUOUS
 62
1
 10
929.082941
 20
560.757861
 11
949.267895
 21
436.650079
  0
LINE
  8
CutLine
  6
CONTINUOUS
 62
8
 10
997.008137
 20
299.373216
 11
1008.998210
 21
311.296842
  0
LINE
  8
ValleyLine
  6
CONTINUOUS
 62
1
 10
1008.998210
 20
311.296842
 11
1028.580895
 21
374.426619
  0
LINE
  8
CutLine
  6
CONTINUOUS
 62
8
 10
1028.580895
 20
374.426619
 11
1043.098492
 21
426.602725
  0
LINE
  8
MountainLine
  6
CONTINUOUS
 62
5
 10
1043.098492
 20
426.602725
 11
995.088913
 21
433.151656
  0
LINE
  8
CutLine
  6
CONTINUOUS
 62
8
 10
949.267895
 20
232.988035
 11
987.677442
 21
236.038185
  0
LINE
  8
MountainLine
  6
CONTINUOUS
 62
5
 10
987.677442
 20
236.038185
 11
997.008137
 21
299.373216
  0
LINE
  8
CutLine
  6
CONTINUOUS
 62
8
 10
949.267895
 20
436.650079
 11
949.267895
 21
232.988035
  0
LINE
  8
ValleyLine
  6
CONTINUOUS
 62
1
 10
1176.420770
 20
158.022345
 11
1124.749352
 21
193.208666
  0
LINE
  8
MountainLine
  6
CONTINUOUS
 62
5
 10
1124.749352
 20
193.208666
 11
1078.928144
 21
189.712736
  0
LINE
  8
ValleyLine
  6
CONTINUOUS
 62
1
 10
1078.928144
 20
189.712736
 11
1058.761647
 21
65.601954
  0
LINE
  8
CutLine
  6
CONTINUOUS
 62
8
 10
1058.761647
 20
65.601954
 11
1112.128945
 21
98.933504
  0
LINE
  8
MountainLine
  6
CONTINUOUS
 62
5
 10
1112.128945
 20
98.933504
 11
1176.420770
 21
158.022345
  0
LINE
  8
CutLine
  6
CONTINUOUS
 62
8
 10
1124.749352
 20
193.208666
 11
1172.879596
 21
198.805255
  0
LINE
  8
ValleyLine
  6
CONTINUOUS
 62
1
 10
1172.879596
 20
198.805255
 11
1157.069340
 21
250.413251
  0
LINE
  8
CutLine
  6
CONTINUOUS
 62
8
 10
1157.069340
 20
250.413251
 11
1136.511634
 21
313.232285
  0
LINE
  8
MountainLine
  6
CONTINUOUS
 62
5
 10
1136.511634
 20
313.232285
 11
1126.675857
 21
326.987001
  0
LINE
  8
CutLine
  6
CONTINUOUS
 62
8
 10
1126.675857
 20
326.987001
 11
1117.337393
 21
390.320887
  0
LINE
  8
CutLine
  6
CONTINUOUS
 62
8
 10
1117.337393
 20
390.320887
 11
1078.928144
 21
393.374780
  0
LINE
  8
CutLine
  6
CONTINUOUS
 62
8
 10
1078.928144
 20
393.374780
 11
1078.928144
 21
189.712736
 0
TEXT
100
AcDbText
 8
Edge ID
100
AcDbText
10
1073.056029
20
546.089990
30
0.0
40
3.360000
72
1
11
1073.056029
21
546.089990
31
0.0
1
28
50
183.372091
 0
TEXT
100
AcDbText
 8
Edge ID
100
AcDbText
10
1041.476241
20
506.126472
30
0.0
40
3.360000
72
1
11
1041.476241
21
506.126472
31
0.0
1
16
50
-82.037495
 0
TEXT
100
AcDbText
 8
Edge ID
100
AcDbText
10
1059.456089
20
436.053667
30
0.0
40
3.360000
72
1
11
1059.456089
21
436.053667
31
0.0
1
17
50
29.573393
 0
TEXT
100
AcDbText
 8
Edge ID
100
AcDbText
10
1097.409058
20
474.400333
30
0.0
40
3.360000
72
1
11
1097.409058
21
474.400333
31
0.0
1
18
50
53.368598
 0
TEXT
100
AcDbText
 8
Edge ID
100
AcDbText
10
968.472668
20
234.513110
30
0.0
40
3.360000
72
1
11
968.472668
21
234.513110
31
0.0
1
505
50
4.540401
 0
TEXT
100
AcDbText
 8
Edge ID
100
AcDbText
10
992.342789
20
267.705700
30
0.0
40
3.360000
72
1
11
992.342789
21
267.705700
31
0.0
1
22
50
81.619309
 0
TEXT
100
AcDbText
 8
Edge ID
100
AcDbText
10
949.267895
20
334.819057
30
0.0
40
3.360000
72
1
11
949.267895
21
334.819057
31
0.0
1
81
50
-90.000000
 0
TEXT
100
AcDbText
 8
Edge ID
100
AcDbText
10
1003.003173
20
305.335029
30
0.0
40
3.360000
72
1
11
1003.003173
21
305.335029
31
0.0
1
461
50
44.840799
 0
TEXT
100
AcDbText
 8
Edge ID
100
AcDbText
10
1018.789552
20
342.861731
30
0.0
40
3.360000
72
1
11
1018.789552
21
342.861731
31
0.0
1
21
50
72.766252
 0
TEXT
100
AcDbText
 8
Edge ID
100
AcDbText
10
1035.839693
20
400.514672
30
0.0
40
3.360000
72
1
11
1035.839693
21
400.514672
31
0.0
1
455
50
74.451186
 0
TEXT
100
AcDbText
 8
Edge ID
100
AcDbText
10
1014.582394
20
497.842615
30
0.0
40
3.360000
72
1
11
1014.582394
21
497.842615
31
0.0
1
25
50
137.480602
 0
TEXT
100
AcDbText
 8
Edge ID
100
AcDbText
10
955.742742
20
544.053963
30
0.0
40
3.360000
72
1
11
955.742742
21
544.053963
31
0.0
1
19
50
147.930490
 0
TEXT
100
AcDbText
 8
Edge ID
100
AcDbText
10
939.175418
20
498.703970
30
0.0
40
3.360000
72
1
11
939.175418
21
498.703970
31
0.0
1
20
50
-80.762270
 0
TEXT
100
AcDbText
 8
Edge ID
100
AcDbText
10
1122.006625
20
358.653944
30
0.0
40
3.360000
72
1
11
1122.006625
21
358.653944
31
0.0
1
39
50
98.387719
 0
TEXT
100
AcDbText
 8
Edge ID
100
AcDbText
10
1098.132768
20
391.847834
30
0.0
40
3.360000
72
1
11
1098.132768
21
391.847834
31
0.0
1
500
50
175.454014
 0
TEXT
100
AcDbText
 8
Edge ID
100
AcDbText
10
1078.928144
20
291.543758
30
0.0
40
3.360000
72
1
11
1078.928144
21
291.543758
31
0.0
1
8
50
-90.000000
 0
TEXT
100
AcDbText
 8
Edge ID
100
AcDbText
10
1148.814474
20
196.006960
30
0.0
40
3.360000
72
1
11
1148.814474
21
196.006960
31
0.0
1
2
50
6.632573
 0
TEXT
100
AcDbText
 8
Edge ID
100
AcDbText
10
1164.974468
20
224.609253
30
0.0
40
3.360000
72
1
11
1164.974468
21
224.609253
31
0.0
1
148
50
107.032594
 0
TEXT
100
AcDbText
 8
Edge ID
100
AcDbText
10
1146.790487
20
281.822768
30
0.0
40
3.360000
72
1
11
1146.790487
21
281.822768
31
0.0
1
454
50
108.120830
 0
TEXT
100
AcDbText
 8
Edge ID
100
AcDbText
10
1131.593746
20
320.109643
30
0.0
40
3.360000
72
1
11
1131.593746
21
320.109643
31
0.0
1
149
50
125.567952
 0
TEXT
100
AcDbText
 8
Edge ID
100
AcDbText
10
1150.585061
20
175.615505
30
0.0
40
3.360000
72
1
11
1150.585061
21
175.615505
31
0.0
1
145
50
145.746587
 0
TEXT
100
AcDbText
 8
Edge ID
100
AcDbText
10
1068.844895
20
127.657345
30
0.0
40
3.360000
72
1
11
1068.844895
21
127.657345
31
0.0
1
146
50
260.770791
 0
TEXT
100
AcDbText
 8
Edge ID
100
AcDbText
10
1085.445296
20
82.267729
30
0.0
40
3.360000
72
1
11
1085.445296
21
82.267729
31
0.0
1
5
50
31.987614
 0
TEXT
100
AcDbText
 8
Edge ID
100
AcDbText
10
1144.274858
20
128.477924
30
0.0
40
3.360000
72
1
11
1144.274858
21
128.477924
31
0.0
1
147
50
42.585258
  0
ENDSEC
  0
EOF
