  0
SECTION
  2
HEADER
  9
$ACADVER
  1
AC1009
  0
ENDSEC
  0
SECTION
  2
BLOCKS
  0
ENDSEC
  0
SECTION
  2
ENTITIES
  0
LINE
  8
CutLine
  6
CONTINUOUS
 62
8
 10
672.997804
 20
8.634843
 11
672.426104
 21
3.334688
  0
LINE
  8
CutLine
  6
CONTINUOUS
 62
8
 10
865.928200
 20
16.142433
 11
867.712796
 21
9.300268
  0
LINE
  8
CutLine
  6
CONTINUOUS
 62
8
 10
867.712796
 20
9.300268
 11
865.648431
 21
5.779055
  0
LINE
  8
CutLine
  6
CONTINUOUS
 62
8
 10
865.648431
 20
5.779055
 11
858.806266
 21
3.994459
  0
LINE
  8
CutLine
  6
CONTINUOUS
 62
8
 10
684.856332
 20
241.884435
 11
690.498658
 21
237.622492
  0
LINE
  8
CutLine
  6
CONTINUOUS
 62
8
 10
690.498658
 20
237.622492
 11
699.233279
 21
174.951445
  0
LINE
  8
CutLine
  6
CONTINUOUS
 62
8
 10
699.233279
 20
174.951445
 11
699.238109
 21
138.694962
  0
LINE
  8
CutLine
  6
CONTINUOUS
 62
8
 10
651.865693
 20
237.610789
 11
658.510742
 21
243.513374
  0
LINE
  8
CutLine
  6
CONTINUOUS
 62
8
 10
658.510742
 20
243.513374
 11
679.255425
 21
246.200664
  0
LINE
  8
CutLine
  6
CONTINUOUS
 62
8
 10
679.255425
 20
246.200664
 11
684.856332
 21
241.884435
  0
LINE
  8
CutLine
  6
CONTINUOUS
 62
8
 10
637.047723
 20
14.265058
 11
632.436849
 21
19.626012
  0
LINE
  8
CutLine
  6
CONTINUOUS
 62
8
 10
632.436849
 20
19.626012
 11
640.877552
 21
131.839773
  0
LINE
  8
CutLine
  6
CONTINUOUS
 62
8
 10
640.877552
 20
131.839773
 11
646.238506
 21
136.450648
  0
LINE
  8
CutLine
  6
CONTINUOUS
 62
8
 10
790.676119
 20
147.955458
 11
797.684412
 21
148.895578
  0
LINE
  8
CutLine
  6
CONTINUOUS
 62
8
 10
797.684412
 20
148.895578
 11
800.764969
 21
146.543744
  0
LINE
  8
CutLine
  6
CONTINUOUS
 62
8
 10
800.764969
 20
146.543744
 11
801.705089
 21
139.535451
  0
LINE
  8
CutLine
  6
CONTINUOUS
 62
8
 10
832.782773
 20
7.264774
 11
827.481571
 21
7.826684
  0
LINE
  8
CutLine
  6
CONTINUOUS
 62
8
 10
847.448559
 20
239.215046
 11
852.795171
 21
234.587548
  0
LINE
  8
CutLine
  6
CONTINUOUS
 62
8
 10
852.795171
 20
234.587548
 11
859.361873
 21
143.507434
  0
LINE
  8
CutLine
  6
CONTINUOUS
 62
8
 10
859.361873
 20
143.507434
 11
854.734375
 21
138.160821
  0
LINE
  8
CutLine
  6
CONTINUOUS
 62
8
 10
814.392256
 20
242.946953
 11
819.921608
 21
247.354476
  0
LINE
  8
CutLine
  6
CONTINUOUS
 62
8
 10
819.921608
 20
247.354476
 11
840.707580
 21
245.007835
  0
LINE
  8
CutLine
  6
CONTINUOUS
 62
8
 10
840.707580
 20
245.007835
 11
847.448559
 21
239.215046
  0
LINE
  8
CutLine
  6
CONTINUOUS
 62
8
 10
750.283668
 20
162.024637
 11
751.514969
 21
168.987675
  0
LINE
  8
CutLine
  6
CONTINUOUS
 62
8
 10
751.514969
 20
168.987675
 11
771.600292
 21
183.036860
  0
LINE
  8
CutLine
  6
CONTINUOUS
 62
8
 10
771.600292
 20
183.036860
 11
778.563330
 21
181.805559
  0
LINE
  8
CutLine
  6
CONTINUOUS
 62
8
 10
797.651790
 20
31.224277
 11
790.391157
 21
30.763494
  0
LINE
  8
CutLine
  6
CONTINUOUS
 62
8
 10
790.391157
 20
30.763494
 11
777.747392
 21
41.291341
  0
LINE
  8
CutLine
  6
CONTINUOUS
 62
8
 10
777.747392
 20
41.291341
 11
777.104372
 21
48.333111
  0
LINE
  8
CutLine
  6
CONTINUOUS
 62
8
 10
827.481571
 20
7.826684
 11
820.461575
 21
6.978363
  0
LINE
  8
CutLine
  6
CONTINUOUS
 62
8
 10
820.461575
 20
6.978363
 11
798.500111
 21
24.204281
  0
LINE
  8
CutLine
  6
CONTINUOUS
 62
8
 10
798.500111
 20
24.204281
 11
797.651790
 21
31.224277
  0
LINE
  8
CutLine
  6
CONTINUOUS
 62
8
 10
710.127476
 20
147.294750
 11
706.999921
 21
153.636548
  0
LINE
  8
CutLine
  6
CONTINUOUS
 62
8
 10
706.999921
 20
153.636548
 11
715.341533
 21
178.211449
  0
LINE
  8
CutLine
  6
CONTINUOUS
 62
8
 10
715.341533
 20
178.211449
 11
721.683330
 21
181.339005
  0
LINE
  8
CutLine
  6
CONTINUOUS
 62
8
 10
751.003543
 20
74.261145
 11
751.096058
 21
67.190683
  0
LINE
  8
CutLine
  6
CONTINUOUS
 62
8
 10
751.096058
 20
67.190683
 11
743.823387
 21
59.725166
  0
LINE
  8
CutLine
  6
CONTINUOUS
 62
8
 10
743.823387
 20
59.725166
 11
725.331558
 21
47.908432
  0
LINE
  8
CutLine
  6
CONTINUOUS
 62
8
 10
705.067552
 20
30.464849
 11
704.334497
 21
23.431882
  0
LINE
  8
CutLine
  6
CONTINUOUS
 62
8
 10
704.334497
 20
23.431882
 11
682.658555
 21
5.848035
  0
LINE
  8
CutLine
  6
CONTINUOUS
 62
8
 10
682.658555
 20
5.848035
 11
675.625587
 21
6.581090
  0
LINE
  8
CutLine
  6
CONTINUOUS
 62
8
 10
755.368223
 20
276.110322
 11
762.439255
 21
276.087843
  0
LINE
  8
CutLine
  6
CONTINUOUS
 62
8
 10
762.439255
 20
276.087843
 11
776.949189
 21
261.485355
  0
LINE
  8
CutLine
  6
CONTINUOUS
 62
8
 10
776.949189
 20
261.485355
 11
776.926709
 21
254.414323
  0
LINE
  8
CutLine
  6
CONTINUOUS
 62
8
 10
807.286068
 20
258.128358
 11
810.766668
 21
251.973244
  0
LINE
  8
CutLine
  6
CONTINUOUS
 62
8
 10
810.766668
 20
251.973244
 11
795.729721
 21
197.798287
  0
LINE
  8
CutLine
  6
CONTINUOUS
 62
8
 10
795.729721
 20
197.798287
 11
789.087692
 21
192.563437
  0
LINE
  8
CutLine
  6
CONTINUOUS
 62
8
 10
754.662236
 20
190.131943
 11
747.599326
 21
189.792393
  0
LINE
  8
CutLine
  6
CONTINUOUS
 62
8
 10
747.599326
 20
189.792393
 11
729.454992
 21
206.272167
  0
LINE
  8
CutLine
  6
CONTINUOUS
 62
8
 10
729.454992
 20
206.272167
 11
729.115442
 21
213.335078
  0
LINE
  8
CutLine
  6
CONTINUOUS
 62
8
 10
615.480253
 20
305.829578
 11
610.480253
 21
310.829578
  0
LINE
  8
CutLine
  6
CONTINUOUS
 62
8
 10
610.480253
 20
310.829578
 11
610.480253
 21
389.535318
  0
LINE
  8
CutLine
  6
CONTINUOUS
 62
8
 10
610.480253
 20
389.535318
 11
615.480253
 21
395.334144
  0
LINE
  8
CutLine
  6
CONTINUOUS
 62
8
 10
687.185096
 20
346.233361
 11
694.255595
 21
346.143665
  0
LINE
  8
CutLine
  6
CONTINUOUS
 62
8
 10
694.255595
 20
346.143665
 11
747.941432
 21
291.078220
  0
LINE
  8
CutLine
  6
CONTINUOUS
 62
8
 10
747.941432
 20
291.078220
 11
747.851736
 21
284.007721
  0
LINE
  8
CutLine
  6
CONTINUOUS
 62
8
 10
687.115975
 20
268.860879
 11
683.792434
 21
262.619559
  0
LINE
  8
CutLine
  6
CONTINUOUS
 62
8
 10
683.792434
 20
262.619559
 11
652.848135
 21
253.179939
  0
LINE
  8
CutLine
  6
CONTINUOUS
 62
8
 10
652.848135
 20
253.179939
 11
646.606815
 21
256.503479
  0
LINE
  8
CutLine
  6
CONTINUOUS
 62
8
 10
711.604319
 20
340.235768
 11
704.534016
 21
340.131769
  0
LINE
  8
CutLine
  6
CONTINUOUS
 62
8
 10
704.534016
 20
340.131769
 11
683.627479
 21
360.432182
  0
LINE
  8
CutLine
  6
CONTINUOUS
 62
8
 10
683.627479
 20
360.432182
 11
683.523480
 21
367.502485
  0
LINE
  8
CutLine
  6
CONTINUOUS
 62
8
 10
712.884582
 20
419.809854
 11
716.042302
 21
426.136686
  0
LINE
  8
CutLine
  6
CONTINUOUS
 62
8
 10
716.042302
 20
426.136686
 11
727.603323
 21
429.999616
  0
LINE
  8
CutLine
  6
CONTINUOUS
 62
8
 10
727.603323
 20
429.999616
 11
733.930155
 21
426.841895
  0
LINE
  8
CutLine
  6
CONTINUOUS
 62
8
 10
766.812988
 20
426.595537
 11
767.877363
 21
419.605036
  0
LINE
  8
CutLine
  6
CONTINUOUS
 62
8
 10
767.877363
 20
419.605036
 11
746.853089
 21
391.028535
  0
LINE
  8
CutLine
  6
CONTINUOUS
 62
8
 10
746.853089
 20
391.028535
 11
739.862587
 21
389.964159
  0
LINE
  8
CutLine
  6
CONTINUOUS
 62
8
 10
761.068853
 20
444.150951
 11
764.803154
 21
448.939226
  0
LINE
  8
CutLine
  6
CONTINUOUS
 62
8
 10
764.803154
 20
448.939226
 11
767.948201
 21
443.744876
  0
LINE
  8
CutLine
  6
CONTINUOUS
 62
8
 10
756.119338
 20
426.764925
 11
752.679433
 21
432.942875
  0
LINE
  8
CutLine
  6
CONTINUOUS
 62
8
 10
752.679433
 20
432.942875
 11
754.890904
 21
440.711046
  0
LINE
  8
CutLine
  6
CONTINUOUS
 62
8
 10
754.890904
 20
440.711046
 11
761.068853
 21
444.150951
  0
LINE
  8
CutLine
  6
CONTINUOUS
 62
8
 10
691.005038
 20
420.922235
 11
690.664582
 21
421.590452
  0
LINE
  8
CutLine
  6
CONTINUOUS
 62
8
 10
690.664582
 20
421.590452
 11
692.849799
 21
428.315392
  0
LINE
  8
CutLine
  6
CONTINUOUS
 62
8
 10
685.141818
 20
406.609880
 11
680.821211
 21
412.207411
  0
LINE
  8
CutLine
  6
CONTINUOUS
 62
8
 10
680.821211
 20
412.207411
 11
681.771314
 21
419.587066
  0
LINE
  8
CutLine
  6
CONTINUOUS
 62
8
 10
681.771314
 20
419.587066
 11
687.368845
 21
423.907673
  0
LINE
  8
CutLine
  6
CONTINUOUS
 62
8
 10
727.257746
 20
346.268624
 11
731.597523
 21
340.685942
  0
LINE
  8
CutLine
  6
CONTINUOUS
 62
8
 10
731.597523
 20
340.685942
 11
730.704264
 21
333.554798
  0
LINE
  8
CutLine
  6
CONTINUOUS
 62
8
 10
730.704264
 20
333.554798
 11
725.121583
 21
329.215021
  0
LINE
  8
CutLine
  6
CONTINUOUS
 62
8
 10
678.717007
 20
415.565795
 11
672.698618
 21
411.853787
  0
LINE
  8
CutLine
  6
CONTINUOUS
 62
8
 10
672.698618
 20
411.853787
 11
646.630726
 21
418.032619
  0
LINE
  8
CutLine
  6
CONTINUOUS
 62
8
 10
646.630726
 20
418.032619
 11
642.918719
 21
424.051008
  0
LINE
  8
CutLine
  6
CONTINUOUS
 62
8
 10
686.993904
 20
439.562266
 11
689.311456
 21
432.881776
  0
LINE
  8
CutLine
  6
CONTINUOUS
 62
8
 10
689.311456
 20
432.881776
 11
686.102515
 21
426.263715
  0
LINE
  8
CutLine
  6
CONTINUOUS
 62
8
 10
686.102515
 20
426.263715
 11
679.422025
 21
423.946162
  0
LINE
  8
CutLine
  6
CONTINUOUS
 62
8
 10
618.082025
 20
433.952887
 11
620.400938
 21
436.783581
  0
LINE
  8
CutLine
  6
CONTINUOUS
 62
8
 10
653.091295
 20
448.130926
 11
653.407449
 21
447.994623
  0
LINE
  8
CutLine
  6
CONTINUOUS
 62
8
 10
719.026089
 20
502.802546
 11
718.875860
 21
490.835922
  0
LINE
  8
CutLine
  6
CONTINUOUS
 62
8
 10
718.875860
 20
490.835922
 11
702.490908
 21
456.352232
  0
LINE
  8
CutLine
  6
CONTINUOUS
 62
8
 10
702.490908
 20
456.352232
 11
695.828945
 21
453.981948
  0
LINE
  8
CutLine
  6
CONTINUOUS
 62
8
 10
617.259463
 20
435.693125
 11
616.825043
 21
442.750835
  0
LINE
  8
CutLine
  6
CONTINUOUS
 62
8
 10
616.825043
 20
442.750835
 11
634.005361
 21
462.184858
  0
LINE
  8
CutLine
  6
CONTINUOUS
 62
8
 10
644.850542
 20
467.048232
 11
645.021804
 21
467.097315
  0
LINE
  8
CutLine
  6
CONTINUOUS
 62
8
 10
686.787694
 20
597.874779
 11
691.762642
 21
593.640185
  0
LINE
  8
CutLine
  6
CONTINUOUS
 62
8
 10
691.762642
 20
593.640185
 11
686.737767
 21
589.464957
  0
LINE
  8
CutLine
  6
CONTINUOUS
 62
8
 10
692.996283
 20
573.277708
 11
699.696269
 21
571.017135
  0
LINE
  8
CutLine
  6
CONTINUOUS
 62
8
 10
699.696269
 20
571.017135
 11
702.764390
 21
564.824407
  0
LINE
  8
CutLine
  6
CONTINUOUS
 62
8
 10
702.764390
 20
564.824407
 11
700.503817
 21
558.124421
  0
LINE
  8
CutLine
  6
CONTINUOUS
 62
8
 10
624.784346
 20
584.880092
 11
628.118871
 21
591.115551
  0
LINE
  8
CutLine
  6
CONTINUOUS
 62
8
 10
628.118871
 20
591.115551
 11
644.136893
 21
595.971068
  0
LINE
  8
CutLine
  6
CONTINUOUS
 62
8
 10
644.136893
 20
595.971068
 11
650.372351
 21
592.636543
  0
LINE
  8
CutLine
  6
CONTINUOUS
 62
8
 10
623.887829
 20
583.377866
 11
626.191411
 21
584.177014
  0
LINE
  8
CutLine
  6
CONTINUOUS
 62
8
 10
658.492731
 20
568.036775
 11
658.615902
 21
567.711134
  0
LINE
  8
CutLine
  6
CONTINUOUS
 62
8
 10
614.457628
 20
487.755222
 11
609.102760
 21
492.373164
  0
LINE
  8
CutLine
  6
CONTINUOUS
 62
8
 10
609.102760
 20
492.373164
 11
608.204499
 21
504.529338
  0
LINE
  8
CutLine
  6
CONTINUOUS
 62
8
 10
608.204499
 20
504.529338
 11
612.822441
 21
509.884206
  0
LINE
  8
CutLine
  6
CONTINUOUS
 62
8
 10
679.230441
 20
507.602565
 11
680.532368
 21
506.116552
  0
LINE
  8
CutLine
  6
CONTINUOUS
 62
8
 10
719.233442
 20
507.421764
 11
712.720172
 21
503.345436
  0
LINE
  8
CutLine
  6
CONTINUOUS
 62
8
 10
682.180824
 20
505.974633
 11
680.597614
 21
507.570042
  0
LINE
  8
CutLine
  6
CONTINUOUS
 62
8
 10
612.167515
 20
570.095324
 11
622.481381
 21
570.042084
  0
LINE
  8
CutLine
  6
CONTINUOUS
 62
8
 10
622.481381
 20
570.042084
 11
641.580027
 21
559.327197
  0
LINE
  8
CutLine
  6
CONTINUOUS
 62
8
 10
648.696964
 20
549.652474
 11
648.714065
 21
549.591663
  0
LINE
  8
CutLine
  6
CONTINUOUS
 62
8
 10
616.433761
 20
531.777678
 11
609.566145
 21
533.461676
  0
LINE
  8
CutLine
  6
CONTINUOUS
 62
8
 10
609.566145
 20
533.461676
 11
605.379427
 21
540.368665
  0
LINE
  8
CutLine
  6
CONTINUOUS
 62
8
 10
605.379427
 20
540.368665
 11
607.063425
 21
547.236281
  0
LINE
  8
CutLine
  6
CONTINUOUS
 62
8
 10
739.206335
 20
350.944781
 11
737.832307
 21
357.881066
  0
LINE
  8
CutLine
  6
CONTINUOUS
 62
8
 10
737.832307
 20
357.881066
 11
790.221466
 21
436.153293
  0
LINE
  8
CutLine
  6
CONTINUOUS
 62
8
 10
790.221466
 20
436.153293
 11
797.157751
 21
437.527320
  0
LINE
  8
CutLine
  6
CONTINUOUS
 62
8
 10
751.301751
 20
291.838781
 11
745.151141
 21
295.327335
  0
LINE
  8
CutLine
  6
CONTINUOUS
 62
8
 10
745.151141
 20
295.327335
 11
740.048729
 21
313.802895
  0
LINE
  8
CutLine
  6
CONTINUOUS
 62
8
 10
740.048729
 20
313.802895
 11
742.307005
 21
324.408273
  0
LINE
  8
CutLine
  6
CONTINUOUS
 62
8
 10
803.497147
 20
425.184438
 11
808.467103
 21
420.154573
  0
LINE
  8
CutLine
  6
CONTINUOUS
 62
8
 10
808.467103
 20
420.154573
 11
808.311627
 21
394.203001
  0
LINE
  8
CutLine
  6
CONTINUOUS
 62
8
 10
808.311627
 20
394.203001
 11
803.281762
 21
389.233045
  0
LINE
  8
CutLine
  6
CONTINUOUS
 62
8
 10
889.660002
 20
302.381416
 11
889.840787
 21
295.141129
  0
LINE
  8
CutLine
  6
CONTINUOUS
 62
8
 10
889.840787
 20
295.141129
 11
878.766506
 21
282.940178
  0
LINE
  8
CutLine
  6
CONTINUOUS
 62
8
 10
878.766506
 20
282.940178
 11
871.703708
 21
282.598294
  0
LINE
  8
CutLine
  6
CONTINUOUS
 62
8
 10
880.308756
 20
400.636943
 11
884.001596
 21
407.885720
  0
LINE
  8
CutLine
  6
CONTINUOUS
 62
8
 10
884.001596
 20
407.885720
 11
886.228190
 21
408.927789
  0
LINE
  8
CutLine
  6
CONTINUOUS
 62
8
 10
886.228190
 20
408.927789
 11
892.876193
 21
406.518628
  0
LINE
  8
CutLine
  6
CONTINUOUS
 62
8
 10
845.344606
 20
261.458877
 11
839.600724
 21
257.334823
  0
LINE
  8
CutLine
  6
CONTINUOUS
 62
8
 10
839.600724
 20
257.334823
 11
800.155203
 21
263.809829
  0
LINE
  8
CutLine
  6
CONTINUOUS
 62
8
 10
800.155203
 20
263.809829
 11
796.031149
 21
269.553711
  0
LINE
  8
CutLine
  6
CONTINUOUS
 62
8
 10
812.933981
 20
321.877463
 11
812.805699
 21
328.947367
  0
LINE
  8
CutLine
  6
CONTINUOUS
 62
8
 10
812.805699
 20
328.947367
 11
849.648089
 21
367.151452
  0
LINE
  8
CutLine
  6
CONTINUOUS
 62
8
 10
849.648089
 20
367.151452
 11
860.167324
 21
370.856552
  0
LINE
  8
CutLine
  6
CONTINUOUS
 62
8
 10
849.126142
 20
428.025813
 11
841.782222
 21
425.859425
  0
LINE
  8
CutLine
  6
CONTINUOUS
 62
8
 10
841.782222
 20
425.859425
 11
770.068656
 21
458.290241
  0
LINE
  8
CutLine
  6
CONTINUOUS
 62
8
 10
770.068656
 20
458.290241
 11
767.573111
 21
464.906301
  0
LINE
  8
CutLine
  6
CONTINUOUS
 62
8
 10
802.233760
 20
594.509706
 11
808.713079
 21
591.678023
  0
LINE
  8
CutLine
  6
CONTINUOUS
 62
8
 10
808.713079
 20
591.678023
 11
836.765213
 21
520.071808
  0
LINE
  8
CutLine
  6
CONTINUOUS
 62
8
 10
836.765213
 20
520.071808
 11
833.933531
 21
513.592489
  0
LINE
  8
CutLine
  6
CONTINUOUS
 62
8
 10
748.542664
 20
465.363319
 11
742.407706
 21
468.879324
  0
LINE
  8
CutLine
  6
CONTINUOUS
 62
8
 10
742.407706
 20
468.879324
 11
731.938855
 21
507.457531
  0
LINE
  8
CutLine
  6
CONTINUOUS
 62
8
 10
731.938855
 20
507.457531
 11
735.454860
 21
513.592489
  0
LINE
  8
CutLine
  6
CONTINUOUS
 62
8
 10
763.406294
 20
545.410953
 11
758.373148
 21
551.638432
  0
LINE
  8
CutLine
  6
CONTINUOUS
 62
8
 10
758.373148
 20
551.638432
 11
758.165951
 21
590.649510
  0
LINE
  8
CutLine
  6
CONTINUOUS
 62
8
 10
758.165951
 20
590.649510
 11
763.139325
 21
595.675995
  0
LINE
  8
CutLine
  6
CONTINUOUS
 62
8
 10
763.139325
 20
595.675995
 11
768.286198
 21
600.524675
  0
LINE
  8
CutLine
  6
CONTINUOUS
 62
8
 10
768.286198
 20
600.524675
 11
797.385080
 21
599.656579
  0
LINE
  8
CutLine
  6
CONTINUOUS
 62
8
 10
797.385080
 20
599.656579
 11
802.233760
 21
594.509706
  0
LINE
  8
MountainLine
  6
CONTINUOUS
 62
5
 10
659.939729
 20
18.840427
 11
637.047723
 21
14.265058
  0
LINE
  8
CutLine
  6
CONTINUOUS
 62
8
 10
637.047723
 20
14.265058
 11
644.367969
 21
2.235544
  0
LINE
  8
CutLine
  6
CONTINUOUS
 62
8
 10
644.367969
 20
2.235544
 11
672.426104
 21
3.334688
  0
LINE
  8
MountainLine
  6
CONTINUOUS
 62
5
 10
672.426104
 20
3.334688
 11
659.939729
 21
18.840427
  0
LINE
  8
ValleyLine
  6
CONTINUOUS
 62
1
 10
858.806266
 20
3.994459
 11
865.928200
 21
16.142433
  0
LINE
  8
MountainLine
  6
CONTINUOUS
 62
5
 10
865.928200
 20
16.142433
 11
842.964223
 21
20.341676
  0
LINE
  8
CutLine
  6
CONTINUOUS
 62
8
 10
842.964223
 20
20.341676
 11
830.733876
 21
4.633202
  0
LINE
  8
CutLine
  6
CONTINUOUS
 62
8
 10
830.733876
 20
4.633202
 11
858.806266
 21
3.994459
  0
LINE
  8
ValleyLine
  6
CONTINUOUS
 62
1
 10
675.625587
 20
6.581090
 11
710.127476
 21
147.294750
  0
LINE
  8
CutLine
  6
CONTINUOUS
 62
8
 10
710.127476
 20
147.294750
 11
699.238109
 21
138.694962
  0
LINE
  8
MountainLine
  6
CONTINUOUS
 62
5
 10
699.238109
 20
138.694962
 11
659.939729
 21
18.840427
  0
LINE
  8
CutLine
  6
CONTINUOUS
 62
8
 10
659.939729
 20
18.840427
 11
675.625587
 21
6.581090
  0
LINE
  8
MountainLine
  6
CONTINUOUS
 62
5
 10
699.238109
 20
138.694962
 11
684.856332
 21
241.884435
  0
LINE
  8
ValleyLine
  6
CONTINUOUS
 62
1
 10
684.856332
 20
241.884435
 11
651.865693
 21
237.610789
  0
LINE
  8
CutLine
  6
CONTINUOUS
 62
8
 10
651.865693
 20
237.610789
 11
646.238506
 21
136.450648
  0
LINE
  8
ValleyLine
  6
CONTINUOUS
 62
1
 10
646.238506
 20
136.450648
 11
637.047723
 21
14.265058
  0
LINE
  8
MountainLine
  6
CONTINUOUS
 62
5
 10
801.705089
 20
139.535451
 11
790.676119
 21
147.955458
  0
LINE
  8
ValleyLine
  6
CONTINUOUS
 62
1
 10
790.676119
 20
147.955458
 11
827.481571
 21
7.826684
  0
LINE
  8
MountainLine
  6
CONTINUOUS
 62
5
 10
827.481571
 20
7.826684
 11
842.964223
 21
20.341676
  0
LINE
  8
MountainLine
  6
CONTINUOUS
 62
5
 10
842.964223
 20
20.341676
 11
801.705089
 21
139.535451
  0
LINE
  8
ValleyLine
  6
CONTINUOUS
 62
1
 10
854.734375
 20
138.160821
 11
847.448559
 21
239.215046
  0
LINE
  8
ValleyLine
  6
CONTINUOUS
 62
1
 10
847.448559
 20
239.215046
 11
814.392256
 21
242.946953
  0
LINE
  8
CutLine
  6
CONTINUOUS
 62
8
 10
814.392256
 20
242.946953
 11
801.705089
 21
139.535451
  0
LINE
  8
CutLine
  6
CONTINUOUS
 62
8
 10
865.928200
 20
16.142433
 11
854.734375
 21
138.160821
  0
LINE
  8
MountainLine
  6
CONTINUOUS
 62
5
 10
778.563330
 20
181.805559
 11
750.283668
 21
162.024637
  0
LINE
  8
ValleyLine
  6
CONTINUOUS
 62
1
 10
750.283668
 20
162.024637
 11
751.003543
 21
74.261145
  0
LINE
  8
CutLine
  6
CONTINUOUS
 62
8
 10
751.003543
 20
74.261145
 11
777.104372
 21
48.333111
  0
LINE
  8
MountainLine
  6
CONTINUOUS
 62
5
 10
777.104372
 20
48.333111
 11
790.676119
 21
147.955458
  0
LINE
  8
CutLine
  6
CONTINUOUS
 62
8
 10
790.676119
 20
147.955458
 11
778.563330
 21
181.805559
  0
LINE
  8
MountainLine
  6
CONTINUOUS
 62
5
 10
777.104372
 20
48.333111
 11
797.651790
 21
31.224277
  0
LINE
  8
MountainLine
  6
CONTINUOUS
 62
5
 10
797.651790
 20
31.224277
 11
827.481571
 21
7.826684
  0
LINE
  8
CutLine
  6
CONTINUOUS
 62
8
 10
750.283668
 20
162.024637
 11
721.683330
 21
181.339005
  0
LINE
  8
ValleyLine
  6
CONTINUOUS
 62
1
 10
721.683330
 20
181.339005
 11
710.127476
 21
147.294750
  0
LINE
  8
MountainLine
  6
CONTINUOUS
 62
5
 10
710.127476
 20
147.294750
 11
725.331558
 21
47.908432
  0
LINE
  8
MountainLine
  6
CONTINUOUS
 62
5
 10
725.331558
 20
47.908432
 11
751.003543
 21
74.261145
  0
LINE
  8
MountainLine
  6
CONTINUOUS
 62
5
 10
675.625587
 20
6.581090
 11
705.067552
 21
30.464849
  0
LINE
  8
CutLine
  6
CONTINUOUS
 62
8
 10
705.067552
 20
30.464849
 11
725.331558
 21
47.908432
  0
LINE
  8
ValleyLine
  6
CONTINUOUS
 62
1
 10
776.926709
 20
254.414323
 11
755.368223
 21
276.110322
  0
LINE
  8
CutLine
  6
CONTINUOUS
 62
8
 10
755.368223
 20
276.110322
 11
729.115442
 21
213.335078
  0
LINE
  8
ValleyLine
  6
CONTINUOUS
 62
1
 10
729.115442
 20
213.335078
 11
776.926709
 21
254.414323
  0
LINE
  8
CutLine
  6
CONTINUOUS
 62
8
 10
807.286068
 20
258.128358
 11
776.926709
 21
254.414323
  0
LINE
  8
ValleyLine
  6
CONTINUOUS
 62
1
 10
776.926709
 20
254.414323
 11
789.087692
 21
192.563437
  0
LINE
  8
MountainLine
  6
CONTINUOUS
 62
5
 10
789.087692
 20
192.563437
 11
807.286068
 21
258.128358
  0
LINE
  8
ValleyLine
  6
CONTINUOUS
 62
1
 10
776.926709
 20
254.414323
 11
754.662236
 21
190.131943
  0
LINE
  8
CutLine
  6
CONTINUOUS
 62
8
 10
754.662236
 20
190.131943
 11
789.087692
 21
192.563437
  0
LINE
  8
MountainLine
  6
CONTINUOUS
 62
5
 10
729.115442
 20
213.335078
 11
754.662236
 21
190.131943
  0
LINE
  8
MountainLine
  6
CONTINUOUS
 62
5
 10
615.480253
 20
395.334144
 11
615.480253
 21
305.829578
  0
LINE
  8
ValleyLine
  6
CONTINUOUS
 62
1
 10
615.480253
 20
305.829578
 11
687.185096
 21
346.233361
  0
LINE
  8
CutLine
  6
CONTINUOUS
 62
8
 10
687.185096
 20
346.233361
 11
615.480253
 21
395.334144
  0
LINE
  8
ValleyLine
  6
CONTINUOUS
 62
1
 10
687.185096
 20
346.233361
 11
687.115975
 21
268.860879
  0
LINE
  8
MountainLine
  6
CONTINUOUS
 62
5
 10
687.115975
 20
268.860879
 11
747.851736
 21
284.007721
  0
LINE
  8
ValleyLine
  6
CONTINUOUS
 62
1
 10
747.851736
 20
284.007721
 11
687.185096
 21
346.233361
  0
LINE
  8
ValleyLine
  6
CONTINUOUS
 62
1
 10
646.606815
 20
256.503479
 11
687.185096
 21
346.233361
  0
LINE
  8
CutLine
  6
CONTINUOUS
 62
8
 10
615.480253
 20
305.829578
 11
608.055146
 21
288.301471
  0
LINE
  8
CutLine
  6
CONTINUOUS
 62
8
 10
608.055146
 20
288.301471
 11
646.606815
 21
256.503479
  0
LINE
  8
MountainLine
  6
CONTINUOUS
 62
5
 10
646.606815
 20
256.503479
 11
687.115975
 21
268.860879
  0
LINE
  8
CutLine
  6
CONTINUOUS
 62
8
 10
687.115975
 20
268.860879
 11
732.805494
 21
247.905842
  0
LINE
  8
CutLine
  6
CONTINUOUS
 62
8
 10
732.805494
 20
247.905842
 11
747.851736
 21
284.007721
  0
LINE
  8
MountainLine
  6
CONTINUOUS
 62
5
 10
683.523480
 20
367.502485
 11
711.604319
 21
340.235768
  0
LINE
  8
ValleyLine
  6
CONTINUOUS
 62
1
 10
711.604319
 20
340.235768
 11
727.257746
 21
346.268624
  0
LINE
  8
CutLine
  6
CONTINUOUS
 62
8
 10
727.257746
 20
346.268624
 11
739.862587
 21
389.964159
  0
LINE
  8
ValleyLine
  6
CONTINUOUS
 62
1
 10
739.862587
 20
389.964159
 11
683.523480
 21
367.502485
  0
LINE
  8
ValleyLine
  6
CONTINUOUS
 62
1
 10
739.862587
 20
389.964159
 11
700.652163
 21
413.001618
  0
LINE
  8
ValleyLine
  6
CONTINUOUS
 62
1
 10
700.652163
 20
413.001618
 11
685.141818
 21
406.609880
  0
LINE
  8
CutLine
  6
CONTINUOUS
 62
8
 10
685.141818
 20
406.609880
 11
683.523480
 21
367.502485
  0
LINE
  8
CutLine
  6
CONTINUOUS
 62
8
 10
756.119338
 20
426.764925
 11
733.930155
 21
426.841895
  0
LINE
  8
ValleyLine
  6
CONTINUOUS
 62
1
 10
739.862587
 20
389.964159
 11
756.119338
 21
426.764925
  0
LINE
  8
MountainLine
  6
CONTINUOUS
 62
5
 10
733.930155
 20
426.841895
 11
712.884582
 21
419.809854
  0
LINE
  8
ValleyLine
  6
CONTINUOUS
 62
1
 10
712.884582
 20
419.809854
 11
739.862587
 21
389.964159
  0
LINE
  8
ValleyLine
  6
CONTINUOUS
 62
1
 10
739.862587
 20
389.964159
 11
766.812988
 21
426.595537
  0
LINE
  8
CutLine
  6
CONTINUOUS
 62
8
 10
766.812988
 20
426.595537
 11
767.948201
 21
443.744876
  0
LINE
  8
MountainLine
  6
CONTINUOUS
 62
5
 10
767.948201
 20
443.744876
 11
761.068853
 21
444.150951
  0
LINE
  8
MountainLine
  6
CONTINUOUS
 62
5
 10
761.068853
 20
444.150951
 11
756.119338
 21
426.764925
  0
LINE
  8
CutLine
  6
CONTINUOUS
 62
8
 10
699.012255
 20
431.399943
 11
692.849799
 21
428.315392
  0
LINE
  8
ValleyLine
  6
CONTINUOUS
 62
1
 10
692.849799
 20
428.315392
 11
700.652163
 21
413.001618
  0
LINE
  8
CutLine
  6
CONTINUOUS
 62
8
 10
712.884582
 20
419.809854
 11
699.012255
 21
431.399943
  0
LINE
  8
MountainLine
  6
CONTINUOUS
 62
5
 10
687.368845
 20
423.907673
 11
685.141818
 21
406.609880
  0
LINE
  8
CutLine
  6
CONTINUOUS
 62
8
 10
700.652163
 20
413.001618
 11
687.368845
 21
423.907673
  0
LINE
  8
CutLine
  6
CONTINUOUS
 62
8
 10
711.604319
 20
340.235768
 11
725.121583
 21
329.215021
  0
LINE
  8
ValleyLine
  6
CONTINUOUS
 62
1
 10
725.121583
 20
329.215021
 11
727.257746
 21
346.268624
  0
LINE
  8
MountainLine
  6
CONTINUOUS
 62
5
 10
679.422025
 20
423.946162
 11
642.918719
 21
424.051008
  0
LINE
  8
MountainLine
  6
CONTINUOUS
 62
5
 10
642.918719
 20
424.051008
 11
678.717007
 21
415.565795
  0
LINE
  8
CutLine
  6
CONTINUOUS
 62
8
 10
678.717007
 20
415.565795
 11
679.422025
 21
423.946162
  0
LINE
  8
ValleyLine
  6
CONTINUOUS
 62
1
 10
671.617419
 20
463.177189
 11
653.250961
 21
448.186349
  0
LINE
  8
CutLine
  6
CONTINUOUS
 62
8
 10
686.993904
 20
439.562266
 11
695.828945
 21
453.981948
  0
LINE
  8
ValleyLine
  6
CONTINUOUS
 62
1
 10
695.828945
 20
453.981948
 11
671.617419
 21
463.177189
  0
LINE
  8
ValleyLine
  6
CONTINUOUS
 62
1
 10
679.422025
 20
423.946162
 11
686.993904
 21
439.562266
  0
LINE
  8
ValleyLine
  6
CONTINUOUS
 62
1
 10
653.407449
 20
447.994623
 11
618.082025
 21
433.952887
  0
LINE
  8
CutLine
  6
CONTINUOUS
 62
8
 10
618.082025
 20
433.952887
 11
642.918719
 21
424.051008
  0
LINE
  8
ValleyLine
  6
CONTINUOUS
 62
1
 10
695.828945
 20
453.981948
 11
719.026089
 21
502.802546
  0
LINE
  8
ValleyLine
  6
CONTINUOUS
 62
1
 10
719.026089
 20
502.802546
 11
671.617419
 21
463.177189
  0
LINE
  8
ValleyLine
  6
CONTINUOUS
 62
1
 10
719.026089
 20
502.802546
 11
671.384859
 21
478.171273
  0
LINE
  8
ValleyLine
  6
CONTINUOUS
 62
1
 10
671.384859
 20
478.171273
 11
671.617419
 21
463.177189
  0
LINE
  8
ValleyLine
  6
CONTINUOUS
 62
1
 10
671.384859
 20
478.171273
 11
645.021804
 21
467.097315
  0
LINE
  8
ValleyLine
  6
CONTINUOUS
 62
1
 10
645.021804
 20
467.097315
 11
617.259463
 21
435.693125
  0
LINE
  8
CutLine
  6
CONTINUOUS
 62
8
 10
617.259463
 20
435.693125
 11
653.250961
 21
448.186349
  0
LINE
  8
MountainLine
  6
CONTINUOUS
 62
5
 10
650.372351
 20
592.636543
 11
686.737767
 21
589.464957
  0
LINE
  8
ValleyLine
  6
CONTINUOUS
 62
1
 10
686.737767
 20
589.464957
 11
686.787694
 21
597.874779
  0
LINE
  8
CutLine
  6
CONTINUOUS
 62
8
 10
686.787694
 20
597.874779
 11
650.372351
 21
592.636543
  0
LINE
  8
ValleyLine
  6
CONTINUOUS
 62
1
 10
658.615902
 20
567.711134
 11
675.565796
 21
551.135465
  0
LINE
  8
ValleyLine
  6
CONTINUOUS
 62
1
 10
675.565796
 20
551.135465
 11
700.503817
 21
558.124421
  0
LINE
  8
ValleyLine
  6
CONTINUOUS
 62
1
 10
700.503817
 20
558.124421
 11
692.996283
 21
573.277708
  0
LINE
  8
CutLine
  6
CONTINUOUS
 62
8
 10
692.996283
 20
573.277708
 11
686.737767
 21
589.464957
  0
LINE
  8
MountainLine
  6
CONTINUOUS
 62
5
 10
650.372351
 20
592.636543
 11
624.784346
 21
584.880092
  0
LINE
  8
CutLine
  6
CONTINUOUS
 62
8
 10
624.784346
 20
584.880092
 11
658.789391
 21
567.888541
  0
LINE
  8
ValleyLine
  6
CONTINUOUS
 62
1
 10
675.565796
 20
551.135465
 11
719.233442
 21
507.421764
  0
LINE
  8
CutLine
  6
CONTINUOUS
 62
8
 10
719.233442
 20
507.421764
 11
700.503817
 21
558.124421
  0
LINE
  8
ValleyLine
  6
CONTINUOUS
 62
1
 10
673.990733
 20
536.222523
 11
719.233442
 21
507.421764
  0
LINE
  8
ValleyLine
  6
CONTINUOUS
 62
1
 10
675.565796
 20
551.135465
 11
673.990733
 21
536.222523
  0
LINE
  8
ValleyLine
  6
CONTINUOUS
 62
1
 10
658.615902
 20
567.711134
 11
623.887829
 21
583.377866
  0
LINE
  8
CutLine
  6
CONTINUOUS
 62
8
 10
623.887829
 20
583.377866
 11
648.725637
 21
549.613496
  0
LINE
  8
ValleyLine
  6
CONTINUOUS
 62
1
 10
648.725637
 20
549.613496
 11
673.990733
 21
536.222523
  0
LINE
  8
MountainLine
  6
CONTINUOUS
 62
5
 10
612.822441
 20
509.884206
 11
614.457628
 21
487.755222
  0
LINE
  8
ValleyLine
  6
CONTINUOUS
 62
1
 10
614.457628
 20
487.755222
 11
646.085969
 21
508.391033
  0
LINE
  8
MountainLine
  6
CONTINUOUS
 62
5
 10
646.085969
 20
508.391033
 11
612.822441
 21
509.884206
  0
LINE
  8
CutLine
  6
CONTINUOUS
 62
8
 10
616.433761
 20
531.777678
 11
612.822441
 21
509.884206
  0
LINE
  8
ValleyLine
  6
CONTINUOUS
 62
1
 10
646.085969
 20
508.391033
 11
616.433761
 21
531.777678
  0
LINE
  8
ValleyLine
  6
CONTINUOUS
 62
1
 10
614.457628
 20
487.755222
 11
645.021804
 21
467.097315
  0
LINE
  8
MountainLine
  6
CONTINUOUS
 62
5
 10
671.384859
 20
478.171273
 11
646.085969
 21
508.391033
  0
LINE
  8
ValleyLine
  6
CONTINUOUS
 62
1
 10
680.532368
 20
506.116552
 11
646.085969
 21
508.391033
  0
LINE
  8
CutLine
  6
CONTINUOUS
 62
8
 10
719.026089
 20
502.802546
 11
680.532368
 21
506.116552
  0
LINE
  8
CutLine
  6
CONTINUOUS
 62
8
 10
603.739922
 20
473.198356
 11
606.775362
 21
449.973936
  0
LINE
  8
CutLine
  6
CONTINUOUS
 62
8
 10
606.775362
 20
449.973936
 11
645.012006
 21
467.120639
  0
LINE
  8
CutLine
  6
CONTINUOUS
 62
8
 10
614.457628
 20
487.755222
 11
603.739922
 21
473.198356
  0
LINE
  8
MountainLine
  6
CONTINUOUS
 62
5
 10
646.085969
 20
508.391033
 11
673.990733
 21
536.222523
  0
LINE
  8
ValleyLine
  6
CONTINUOUS
 62
1
 10
648.725637
 20
549.613496
 11
616.433761
 21
531.777678
  0
LINE
  8
CutLine
  6
CONTINUOUS
 62
8
 10
646.085969
 20
508.391033
 11
680.597614
 21
507.570042
  0
LINE
  8
ValleyLine
  6
CONTINUOUS
 62
1
 10
680.597614
 20
507.570042
 11
719.233442
 21
507.421764
  0
LINE
  8
CutLine
  6
CONTINUOUS
 62
8
 10
612.167515
 20
570.095324
 11
607.063425
 21
547.236281
  0
LINE
  8
ValleyLine
  6
CONTINUOUS
 62
1
 10
648.714065
 20
549.591663
 11
612.167515
 21
570.095324
  0
LINE
  8
MountainLine
  6
CONTINUOUS
 62
5
 10
607.063425
 20
547.236281
 11
616.433761
 21
531.777678
  0
LINE
  8
MountainLine
  6
CONTINUOUS
 62
5
 10
797.157751
 20
437.527320
 11
739.206335
 21
350.944781
  0
LINE
  8
CutLine
  6
CONTINUOUS
 62
8
 10
739.206335
 20
350.944781
 11
742.307005
 21
324.408273
  0
LINE
  8
ValleyLine
  6
CONTINUOUS
 62
1
 10
742.307005
 20
324.408273
 11
797.157751
 21
437.527320
  0
LINE
  8
MountainLine
  6
CONTINUOUS
 62
5
 10
742.307005
 20
324.408273
 11
751.301751
 21
291.838781
  0
LINE
  8
MountainLine
  6
CONTINUOUS
 62
5
 10
751.301751
 20
291.838781
 11
803.281762
 21
389.233045
  0
LINE
  8
ValleyLine
  6
CONTINUOUS
 62
1
 10
803.281762
 20
389.233045
 11
803.497147
 21
425.184438
  0
LINE
  8
CutLine
  6
CONTINUOUS
 62
8
 10
803.497147
 20
425.184438
 11
797.157751
 21
437.527320
  0
LINE
  8
CutLine
  6
CONTINUOUS
 62
8
 10
812.933981
 20
321.877463
 11
803.281762
 21
389.233045
  0
LINE
  8
CutLine
  6
CONTINUOUS
 62
8
 10
751.301751
 20
291.838781
 11
796.031149
 21
269.553711
  0
LINE
  8
ValleyLine
  6
CONTINUOUS
 62
1
 10
796.031149
 20
269.553711
 11
812.933981
 21
321.877463
  0
LINE
  8
CutLine
  6
CONTINUOUS
 62
8
 10
889.660002
 20
302.381416
 11
892.876193
 21
406.518628
  0
LINE
  8
ValleyLine
  6
CONTINUOUS
 62
1
 10
892.876193
 20
406.518628
 11
871.703708
 21
282.598294
  0
LINE
  8
MountainLine
  6
CONTINUOUS
 62
5
 10
871.703708
 20
282.598294
 11
889.660002
 21
302.381416
  0
LINE
  8
MountainLine
  6
CONTINUOUS
 62
5
 10
892.876193
 20
406.518628
 11
880.308756
 21
400.636943
  0
LINE
  8
CutLine
  6
CONTINUOUS
 62
8
 10
880.308756
 20
400.636943
 11
860.167324
 21
370.856552
  0
LINE
  8
CutLine
  6
CONTINUOUS
 62
8
 10
845.344606
 20
261.458877
 11
871.703708
 21
282.598294
  0
LINE
  8
MountainLine
  6
CONTINUOUS
 62
5
 10
796.031149
 20
269.553711
 11
845.344606
 21
261.458877
  0
LINE
  8
MountainLine
  6
CONTINUOUS
 62
5
 10
860.167324
 20
370.856552
 11
812.933981
 21
321.877463
  0
LINE
  8
MountainLine
  6
CONTINUOUS
 62
5
 10
767.573111
 20
464.906301
 11
849.126142
 21
428.025813
  0
LINE
  8
CutLine
  6
CONTINUOUS
 62
8
 10
849.126142
 20
428.025813
 11
833.933531
 21
513.592489
  0
LINE
  8
ValleyLine
  6
CONTINUOUS
 62
1
 10
833.933531
 20
513.592489
 11
767.573111
 21
464.906301
  0
LINE
  8
ValleyLine
  6
CONTINUOUS
 62
1
 10
763.406294
 20
545.410953
 11
833.933531
 21
513.592489
  0
LINE
  8
ValleyLine
  6
CONTINUOUS
 62
1
 10
833.933531
 20
513.592489
 11
802.233760
 21
594.509706
  0
LINE
  8
MountainLine
  6
CONTINUOUS
 62
5
 10
802.233760
 20
594.509706
 11
763.406294
 21
545.410953
  0
LINE
  8
MountainLine
  6
CONTINUOUS
 62
5
 10
735.454860
 20
513.592489
 11
748.542664
 21
465.363319
  0
LINE
  8
CutLine
  6
CONTINUOUS
 62
8
 10
748.542664
 20
465.363319
 11
767.573111
 21
464.906301
  0
LINE
  8
ValleyLine
  6
CONTINUOUS
 62
1
 10
833.933531
 20
513.592489
 11
735.454860
 21
513.592489
  0
LINE
  8
CutLine
  6
CONTINUOUS
 62
8
 10
763.406294
 20
545.410953
 11
735.454860
 21
513.592489
  0
LINE
  8
ValleyLine
  6
CONTINUOUS
 62
1
 10
763.139325
 20
595.675995
 11
763.406294
 21
545.410953
  0
LINE
  8
MountainLine
  6
CONTINUOUS
 62
5
 10
802.233760
 20
594.509706
 11
763.139325
 21
595.675995
 0
TEXT
100
AcDbText
 8
Edge ID
100
AcDbText
10
690.346570
20
18.522970
30
0.0
40
3.360000
72
1
11
690.346570
21
18.522970
31
0.0
1
99
50
39.049478
 0
TEXT
100
AcDbText
 8
Edge ID
100
AcDbText
10
715.199555
20
39.186641
30
0.0
40
3.360000
72
1
11
715.199555
21
39.186641
31
0.0
1
304
50
40.722398
 0
TEXT
100
AcDbText
 8
Edge ID
100
AcDbText
10
641.643115
20
75.357853
30
0.0
40
3.360000
72
1
11
641.643115
21
75.357853
31
0.0
1
89
50
265.698320
 0
TEXT
100
AcDbText
 8
Edge ID
100
AcDbText
10
640.707846
20
8.250301
30
0.0
40
3.360000
72
1
11
640.707846
21
8.250301
31
0.0
1
216
50
-58.678492
 0
TEXT
100
AcDbText
 8
Edge ID
100
AcDbText
10
658.397037
20
2.785116
30
0.0
40
3.360000
72
1
11
658.397037
21
2.785116
31
0.0
1
166
50
2.243348
 0
TEXT
100
AcDbText
 8
Edge ID
100
AcDbText
10
666.182917
20
11.087557
30
0.0
40
3.360000
72
1
11
666.182917
21
11.087557
31
0.0
1
85
50
128.843607
 0
TEXT
100
AcDbText
 8
Edge ID
100
AcDbText
10
692.047220
20
190.289698
30
0.0
40
3.360000
72
1
11
692.047220
21
190.289698
31
0.0
1
87
50
97.934346
 0
TEXT
100
AcDbText
 8
Edge ID
100
AcDbText
10
668.361012
20
239.747612
30
0.0
40
3.360000
72
1
11
668.361012
21
239.747612
31
0.0
1
88
50
187.381058
 0
TEXT
100
AcDbText
 8
Edge ID
100
AcDbText
10
649.052100
20
187.030718
30
0.0
40
3.360000
72
1
11
649.052100
21
187.030718
31
0.0
1
214
50
266.816117
 0
TEXT
100
AcDbText
 8
Edge ID
100
AcDbText
10
704.682792
20
142.994856
30
0.0
40
3.360000
72
1
11
704.682792
21
142.994856
31
0.0
1
315
50
218.299625
 0
TEXT
100
AcDbText
 8
Edge ID
100
AcDbText
10
667.782658
20
12.710758
30
0.0
40
3.360000
72
1
11
667.782658
21
12.710758
31
0.0
1
85
50
-38.009526
 0
TEXT
100
AcDbText
 8
Edge ID
100
AcDbText
10
735.983499
20
171.681821
30
0.0
40
3.360000
72
1
11
735.983499
21
171.681821
31
0.0
1
102
50
145.968073
 0
TEXT
100
AcDbText
 8
Edge ID
100
AcDbText
10
715.905403
20
164.316878
30
0.0
40
3.360000
72
1
11
715.905403
21
164.316878
31
0.0
1
97
50
251.250926
 0
TEXT
100
AcDbText
 8
Edge ID
100
AcDbText
10
738.167551
20
61.084788
30
0.0
40
3.360000
72
1
11
738.167551
21
61.084788
31
0.0
1
98
50
45.749657
 0
TEXT
100
AcDbText
 8
Edge ID
100
AcDbText
10
787.378081
20
39.778694
30
0.0
40
3.360000
72
1
11
787.378081
21
39.778694
31
0.0
1
95
50
-39.782501
 0
TEXT
100
AcDbText
 8
Edge ID
100
AcDbText
10
812.566680
20
19.525481
30
0.0
40
3.360000
72
1
11
812.566680
21
19.525481
31
0.0
1
96
50
-38.109581
 0
TEXT
100
AcDbText
 8
Edge ID
100
AcDbText
10
860.331288
20
77.151627
30
0.0
40
3.360000
72
1
11
860.331288
21
77.151627
31
0.0
1
407
50
95.241577
 0
TEXT
100
AcDbText
 8
Edge ID
100
AcDbText
10
862.367233
20
10.068446
30
0.0
40
3.360000
72
1
11
862.367233
21
10.068446
31
0.0
1
86
50
59.618389
 0
TEXT
100
AcDbText
 8
Edge ID
100
AcDbText
10
836.849049
20
12.487439
30
0.0
40
3.360000
72
1
11
836.849049
21
12.487439
31
0.0
1
91
50
232.096290
 0
TEXT
100
AcDbText
 8
Edge ID
100
AcDbText
10
844.770071
20
4.313831
30
0.0
40
3.360000
72
1
11
844.770071
21
4.313831
31
0.0
1
371
50
-1.303451
 0
TEXT
100
AcDbText
 8
Edge ID
100
AcDbText
10
851.091467
20
188.687934
30
0.0
40
3.360000
72
1
11
851.091467
21
188.687934
31
0.0
1
92
50
94.123780
 0
TEXT
100
AcDbText
 8
Edge ID
100
AcDbText
10
830.920407
20
241.080999
30
0.0
40
3.360000
72
1
11
830.920407
21
241.080999
31
0.0
1
93
50
173.558839
 0
TEXT
100
AcDbText
 8
Edge ID
100
AcDbText
10
808.048672
20
191.241202
30
0.0
40
3.360000
72
1
11
808.048672
21
191.241202
31
0.0
1
311
50
263.005551
 0
TEXT
100
AcDbText
 8
Edge ID
100
AcDbText
10
796.190604
20
143.745455
30
0.0
40
3.360000
72
1
11
796.190604
21
143.745455
31
0.0
1
90
50
142.640273
 0
TEXT
100
AcDbText
 8
Edge ID
100
AcDbText
10
835.222897
20
14.084180
30
0.0
40
3.360000
72
1
11
835.222897
21
14.084180
31
0.0
1
91
50
38.949423
 0
TEXT
100
AcDbText
 8
Edge ID
100
AcDbText
10
764.423499
20
171.915098
30
0.0
40
3.360000
72
1
11
764.423499
21
171.915098
31
0.0
1
94
50
214.971836
 0
TEXT
100
AcDbText
 8
Edge ID
100
AcDbText
10
764.053958
20
61.297128
30
0.0
40
3.360000
72
1
11
764.053958
21
61.297128
31
0.0
1
297
50
-44.809713
 0
TEXT
100
AcDbText
 8
Edge ID
100
AcDbText
10
784.619724
20
164.880509
30
0.0
40
3.360000
72
1
11
784.619724
21
164.880509
31
0.0
1
313
50
109.689045
 0
TEXT
100
AcDbText
 8
Edge ID
100
AcDbText
10
741.888839
20
201.733511
30
0.0
40
3.360000
72
1
11
741.888839
21
201.733511
31
0.0
1
102
50
-42.247616
 0
TEXT
100
AcDbText
 8
Edge ID
100
AcDbText
10
766.147466
20
265.262323
30
0.0
40
3.360000
72
1
11
766.147466
21
265.262323
31
0.0
1
100
50
134.817849
 0
TEXT
100
AcDbText
 8
Edge ID
100
AcDbText
10
742.241832
20
244.722700
30
0.0
40
3.360000
72
1
11
742.241832
21
244.722700
31
0.0
1
317
50
247.305184
 0
TEXT
100
AcDbText
 8
Edge ID
100
AcDbText
10
771.874964
20
191.347690
30
0.0
40
3.360000
72
1
11
771.874964
21
191.347690
31
0.0
1
94
50
4.040130
 0
TEXT
100
AcDbText
 8
Edge ID
100
AcDbText
10
792.106389
20
256.271341
30
0.0
40
3.360000
72
1
11
792.106389
21
256.271341
31
0.0
1
100
50
186.974665
 0
TEXT
100
AcDbText
 8
Edge ID
100
AcDbText
10
798.186880
20
225.345897
30
0.0
40
3.360000
72
1
11
798.186880
21
225.345897
31
0.0
1
101
50
74.487331
 0
TEXT
100
AcDbText
 8
Edge ID
100
AcDbText
10
709.960734
20
258.383361
30
0.0
40
3.360000
72
1
11
709.960734
21
258.383361
31
0.0
1
414
50
-24.638079
 0
TEXT
100
AcDbText
 8
Edge ID
100
AcDbText
10
740.328615
20
265.956781
30
0.0
40
3.360000
72
1
11
740.328615
21
265.956781
31
0.0
1
442
50
67.375006
 0
TEXT
100
AcDbText
 8
Edge ID
100
AcDbText
10
666.861395
20
262.682179
30
0.0
40
3.360000
72
1
11
666.861395
21
262.682179
31
0.0
1
220
50
16.964431
 0
TEXT
100
AcDbText
 8
Edge ID
100
AcDbText
10
611.767699
20
297.065525
30
0.0
40
3.360000
72
1
11
611.767699
21
297.065525
31
0.0
1
155
50
247.041930
 0
TEXT
100
AcDbText
 8
Edge ID
100
AcDbText
10
627.330980
20
272.402475
30
0.0
40
3.360000
72
1
11
627.330980
21
272.402475
31
0.0
1
316
50
-39.516321
 0
TEXT
100
AcDbText
 8
Edge ID
100
AcDbText
10
717.518416
20
315.120541
30
0.0
40
3.360000
72
1
11
717.518416
21
315.120541
31
0.0
1
219
50
134.273190
 0
TEXT
100
AcDbText
 8
Edge ID
100
AcDbText
10
615.480253
20
350.581861
30
0.0
40
3.360000
72
1
11
615.480253
21
350.581861
31
0.0
1
218
50
-90.000000
 0
TEXT
100
AcDbText
 8
Edge ID
100
AcDbText
10
651.332674
20
370.783752
30
0.0
40
3.360000
72
1
11
651.332674
21
370.783752
31
0.0
1
219
50
145.598122
 0
TEXT
100
AcDbText
 8
Edge ID
100
AcDbText
10
686.255331
20
415.258776
30
0.0
40
3.360000
72
1
11
686.255331
21
415.258776
31
0.0
1
286
50
262.663735
 0
TEXT
100
AcDbText
 8
Edge ID
100
AcDbText
10
694.010504
20
418.454645
30
0.0
40
3.360000
72
1
11
694.010504
21
418.454645
31
0.0
1
285
50
140.612842
 0
TEXT
100
AcDbText
 8
Edge ID
100
AcDbText
10
695.931027
20
429.857667
30
0.0
40
3.360000
72
1
11
695.931027
21
429.857667
31
0.0
1
168
50
206.589758
 0
TEXT
100
AcDbText
 8
Edge ID
100
AcDbText
10
696.750981
20
420.658505
30
0.0
40
3.360000
72
1
11
696.750981
21
420.658505
31
0.0
1
285
50
-63.001170
 0
TEXT
100
AcDbText
 8
Edge ID
100
AcDbText
10
705.948418
20
425.604899
30
0.0
40
3.360000
72
1
11
705.948418
21
425.604899
31
0.0
1
310
50
140.121829
 0
TEXT
100
AcDbText
 8
Edge ID
100
AcDbText
10
684.332649
20
387.056183
30
0.0
40
3.360000
72
1
11
684.332649
21
387.056183
31
0.0
1
165
50
267.630345
 0
TEXT
100
AcDbText
 8
Edge ID
100
AcDbText
10
723.407368
20
423.325875
30
0.0
40
3.360000
72
1
11
723.407368
21
423.325875
31
0.0
1
281
50
198.476225
 0
TEXT
100
AcDbText
 8
Edge ID
100
AcDbText
10
718.362951
20
334.725394
30
0.0
40
3.360000
72
1
11
718.362951
21
334.725394
31
0.0
1
374
50
-39.190672
 0
TEXT
100
AcDbText
 8
Edge ID
100
AcDbText
10
726.189664
20
337.741822
30
0.0
40
3.360000
72
1
11
726.189664
21
337.741822
31
0.0
1
287
50
82.860221
 0
TEXT
100
AcDbText
 8
Edge ID
100
AcDbText
10
753.337788
20
408.279848
30
0.0
40
3.360000
72
1
11
753.337788
21
408.279848
31
0.0
1
282
50
53.657376
 0
TEXT
100
AcDbText
 8
Edge ID
100
AcDbText
10
767.380594
20
435.170207
30
0.0
40
3.360000
72
1
11
767.380594
21
435.170207
31
0.0
1
287
50
86.212791
 0
TEXT
100
AcDbText
 8
Edge ID
100
AcDbText
10
764.508527
20
443.947914
30
0.0
40
3.360000
72
1
11
764.508527
21
443.947914
31
0.0
1
283
50
176.621862
 0
TEXT
100
AcDbText
 8
Edge ID
100
AcDbText
10
758.594096
20
435.457938
30
0.0
40
3.360000
72
1
11
758.594096
21
435.457938
31
0.0
1
284
50
254.109219
 0
TEXT
100
AcDbText
 8
Edge ID
100
AcDbText
10
697.563900
20
353.869126
30
0.0
40
3.360000
72
1
11
697.563900
21
353.869126
31
0.0
1
280
50
-44.157282
 0
TEXT
100
AcDbText
 8
Edge ID
100
AcDbText
10
733.560167
20
368.116391
30
0.0
40
3.360000
72
1
11
733.560167
21
368.116391
31
0.0
1
282
50
73.908748
 0
TEXT
100
AcDbText
 8
Edge ID
100
AcDbText
10
745.024747
20
426.803410
30
0.0
40
3.360000
72
1
11
745.024747
21
426.803410
31
0.0
1
306
50
179.801253
 0
TEXT
100
AcDbText
 8
Edge ID
100
AcDbText
10
641.251865
20
575.544500
30
0.0
40
3.360000
72
1
11
641.251865
21
575.544500
31
0.0
1
305
50
155.718633
 0
TEXT
100
AcDbText
 8
Edge ID
100
AcDbText
10
636.306733
20
566.495681
30
0.0
40
3.360000
72
1
11
636.306733
21
566.495681
31
0.0
1
309
50
-53.660988
 0
TEXT
100
AcDbText
 8
Edge ID
100
AcDbText
10
689.867025
20
581.371332
30
0.0
40
3.360000
72
1
11
689.867025
21
581.371332
31
0.0
1
298
50
111.138122
 0
TEXT
100
AcDbText
 8
Edge ID
100
AcDbText
10
637.578349
20
588.758318
30
0.0
40
3.360000
72
1
11
637.578349
21
588.758318
31
0.0
1
304
50
196.863546
 0
TEXT
100
AcDbText
 8
Edge ID
100
AcDbText
10
641.786869
20
576.384316
30
0.0
40
3.360000
72
1
11
641.786869
21
576.384316
31
0.0
1
305
50
-26.550261
 0
TEXT
100
AcDbText
 8
Edge ID
100
AcDbText
10
686.762730
20
593.669868
30
0.0
40
3.360000
72
1
11
686.762730
21
593.669868
31
0.0
1
302
50
89.659853
 0
TEXT
100
AcDbText
 8
Edge ID
100
AcDbText
10
668.580022
20
595.255661
30
0.0
40
3.360000
72
1
11
668.580022
21
595.255661
31
0.0
1
98
50
188.185673
 0
TEXT
100
AcDbText
 8
Edge ID
100
AcDbText
10
699.915528
20
507.495903
30
0.0
40
3.360000
72
1
11
699.915528
21
507.495903
31
0.0
1
308
50
-0.219891
 0
TEXT
100
AcDbText
 8
Edge ID
100
AcDbText
10
663.341792
20
507.980537
30
0.0
40
3.360000
72
1
11
663.341792
21
507.980537
31
0.0
1
307
50
-1.362741
 0
TEXT
100
AcDbText
 8
Edge ID
100
AcDbText
10
611.748593
20
539.506980
30
0.0
40
3.360000
72
1
11
611.748593
21
539.506980
31
0.0
1
310
50
-58.777571
 0
TEXT
100
AcDbText
 8
Edge ID
100
AcDbText
10
609.615470
20
558.665802
30
0.0
40
3.360000
72
1
11
609.615470
21
558.665802
31
0.0
1
169
50
257.413159
 0
TEXT
100
AcDbText
 8
Edge ID
100
AcDbText
10
630.440790
20
559.843493
30
0.0
40
3.360000
72
1
11
630.440790
21
559.843493
31
0.0
1
309
50
150.706327
 0
TEXT
100
AcDbText
 8
Edge ID
100
AcDbText
10
614.628101
20
520.830942
30
0.0
40
3.360000
72
1
11
614.628101
21
520.830942
31
0.0
1
281
50
260.633425
 0
TEXT
100
AcDbText
 8
Edge ID
100
AcDbText
10
709.868630
20
532.773092
30
0.0
40
3.360000
72
1
11
709.868630
21
532.773092
31
0.0
1
300
50
110.274293
 0
TEXT
100
AcDbText
 8
Edge ID
100
AcDbText
10
696.750050
20
565.701064
30
0.0
40
3.360000
72
1
11
696.750050
21
565.701064
31
0.0
1
303
50
116.355624
 0
TEXT
100
AcDbText
 8
Edge ID
100
AcDbText
10
631.140633
20
451.395220
30
0.0
40
3.360000
72
1
11
631.140633
21
451.395220
31
0.0
1
301
50
228.522255
 0
TEXT
100
AcDbText
 8
Edge ID
100
AcDbText
10
635.255212
20
441.939737
30
0.0
40
3.360000
72
1
11
635.255212
21
441.939737
31
0.0
1
299
50
19.142705
 0
TEXT
100
AcDbText
 8
Edge ID
100
AcDbText
10
683.207964
20
431.754214
30
0.0
40
3.360000
72
1
11
683.207964
21
431.754214
31
0.0
1
298
50
64.132353
 0
TEXT
100
AcDbText
 8
Edge ID
100
AcDbText
10
635.744737
20
440.973755
30
0.0
40
3.360000
72
1
11
635.744737
21
440.973755
31
0.0
1
299
50
201.677653
 0
TEXT
100
AcDbText
 8
Edge ID
100
AcDbText
10
630.500372
20
429.001947
30
0.0
40
3.360000
72
1
11
630.500372
21
429.001947
31
0.0
1
95
50
-21.736153
 0
TEXT
100
AcDbText
 8
Edge ID
100
AcDbText
10
660.817863
20
419.808401
30
0.0
40
3.360000
72
1
11
660.817863
21
419.808401
31
0.0
1
297
50
-13.334641
 0
TEXT
100
AcDbText
 8
Edge ID
100
AcDbText
10
679.069516
20
419.755979
30
0.0
40
3.360000
72
1
11
679.069516
21
419.755979
31
0.0
1
302
50
85.191180
 0
TEXT
100
AcDbText
 8
Edge ID
100
AcDbText
10
699.779229
20
504.459549
30
0.0
40
3.360000
72
1
11
699.779229
21
504.459549
31
0.0
1
308
50
175.079419
 0
TEXT
100
AcDbText
 8
Edge ID
100
AcDbText
10
663.309169
20
507.253792
30
0.0
40
3.360000
72
1
11
663.309169
21
507.253792
31
0.0
1
307
50
176.222268
 0
TEXT
100
AcDbText
 8
Edge ID
100
AcDbText
10
609.098775
20
480.476789
30
0.0
40
3.360000
72
1
11
609.098775
21
480.476789
31
0.0
1
284
50
233.637098
 0
TEXT
100
AcDbText
 8
Edge ID
100
AcDbText
10
605.257642
20
461.586146
30
0.0
40
3.360000
72
1
11
605.257642
21
461.586146
31
0.0
1
373
50
-82.553632
 0
TEXT
100
AcDbText
 8
Edge ID
100
AcDbText
10
625.893684
20
458.547287
30
0.0
40
3.360000
72
1
11
625.893684
21
458.547287
31
0.0
1
301
50
24.153200
 0
TEXT
100
AcDbText
 8
Edge ID
100
AcDbText
10
613.640034
20
498.819714
30
0.0
40
3.360000
72
1
11
613.640034
21
498.819714
31
0.0
1
306
50
-85.773897
 0
TEXT
100
AcDbText
 8
Edge ID
100
AcDbText
10
707.427517
20
478.392247
30
0.0
40
3.360000
72
1
11
707.427517
21
478.392247
31
0.0
1
300
50
64.585234
 0
TEXT
100
AcDbText
 8
Edge ID
100
AcDbText
10
691.411424
20
446.772107
30
0.0
40
3.360000
72
1
11
691.411424
21
446.772107
31
0.0
1
303
50
58.503904
 0
TEXT
100
AcDbText
 8
Edge ID
100
AcDbText
10
820.687877
20
265.506294
30
0.0
40
3.360000
72
1
11
820.687877
21
265.506294
31
0.0
1
316
50
-9.322002
 0
TEXT
100
AcDbText
 8
Edge ID
100
AcDbText
10
836.550652
20
346.367007
30
0.0
40
3.360000
72
1
11
836.550652
21
346.367007
31
0.0
1
317
50
226.039501
 0
TEXT
100
AcDbText
 8
Edge ID
100
AcDbText
10
886.592475
20
403.577786
30
0.0
40
3.360000
72
1
11
886.592475
21
403.577786
31
0.0
1
315
50
205.080058
 0
TEXT
100
AcDbText
 8
Edge ID
100
AcDbText
10
870.238040
20
385.746747
30
0.0
40
3.360000
72
1
11
870.238040
21
385.746747
31
0.0
1
97
50
235.928252
 0
TEXT
100
AcDbText
 8
Edge ID
100
AcDbText
10
858.524157
20
272.028585
30
0.0
40
3.360000
72
1
11
858.524157
21
272.028585
31
0.0
1
154
50
38.728843
 0
TEXT
100
AcDbText
 8
Edge ID
100
AcDbText
10
891.268098
20
354.450022
30
0.0
40
3.360000
72
1
11
891.268098
21
354.450022
31
0.0
1
87
50
88.231030
 0
TEXT
100
AcDbText
 8
Edge ID
100
AcDbText
10
880.681855
20
292.489855
30
0.0
40
3.360000
72
1
11
880.681855
21
292.489855
31
0.0
1
314
50
47.771316
 0
TEXT
100
AcDbText
 8
Edge ID
100
AcDbText
10
808.107871
20
355.555254
30
0.0
40
3.360000
72
1
11
808.107871
21
355.555254
31
0.0
1
101
50
98.155104
 0
TEXT
100
AcDbText
 8
Edge ID
100
AcDbText
10
773.666450
20
280.696246
30
0.0
40
3.360000
72
1
11
773.666450
21
280.696246
31
0.0
1
413
50
-26.483393
 0
TEXT
100
AcDbText
 8
Edge ID
100
AcDbText
10
746.804378
20
308.123527
30
0.0
40
3.360000
72
1
11
746.804378
21
308.123527
31
0.0
1
312
50
-74.561397
 0
TEXT
100
AcDbText
 8
Edge ID
100
AcDbText
10
803.389455
20
407.208742
30
0.0
40
3.360000
72
1
11
803.389455
21
407.208742
31
0.0
1
313
50
89.656745
 0
TEXT
100
AcDbText
 8
Edge ID
100
AcDbText
10
800.327449
20
431.355879
30
0.0
40
3.360000
72
1
11
800.327449
21
431.355879
31
0.0
1
90
50
117.185370
 0
TEXT
100
AcDbText
 8
Edge ID
100
AcDbText
10
768.182043
20
394.236051
30
0.0
40
3.360000
72
1
11
768.182043
21
394.236051
31
0.0
1
311
50
236.204818
 0
TEXT
100
AcDbText
 8
Edge ID
100
AcDbText
10
740.756670
20
337.676527
30
0.0
40
3.360000
72
1
11
740.756670
21
337.676527
31
0.0
1
363
50
-83.335469
 0
TEXT
100
AcDbText
 8
Edge ID
100
AcDbText
10
763.272810
20
570.543474
30
0.0
40
3.360000
72
1
11
763.272810
21
570.543474
31
0.0
1
414
50
-89.695692
 0
TEXT
100
AcDbText
 8
Edge ID
100
AcDbText
10
782.686542
20
595.092851
30
0.0
40
3.360000
72
1
11
782.686542
21
595.092851
31
0.0
1
415
50
178.291223
 0
TEXT
100
AcDbText
 8
Edge ID
100
AcDbText
10
749.430577
20
529.501721
30
0.0
40
3.360000
72
1
11
749.430577
21
529.501721
31
0.0
1
220
50
228.701798
 0
TEXT
100
AcDbText
 8
Edge ID
100
AcDbText
10
741.998762
20
489.477904
30
0.0
40
3.360000
72
1
11
741.998762
21
489.477904
31
0.0
1
413
50
-74.817450
 0
TEXT
100
AcDbText
 8
Edge ID
100
AcDbText
10
758.057887
20
465.134810
30
0.0
40
3.360000
72
1
11
758.057887
21
465.134810
31
0.0
1
362
50
-1.375700
 0
TEXT
100
AcDbText
 8
Edge ID
100
AcDbText
10
818.083645
20
554.051097
30
0.0
40
3.360000
72
1
11
818.083645
21
554.051097
31
0.0
1
412
50
111.393039
 0
TEXT
100
AcDbText
 8
Edge ID
100
AcDbText
10
808.349626
20
446.466057
30
0.0
40
3.360000
72
1
11
808.349626
21
446.466057
31
0.0
1
411
50
-24.333771
 0
TEXT
100
AcDbText
 8
Edge ID
100
AcDbText
10
841.529836
20
470.809151
30
0.0
40
3.360000
72
1
11
841.529836
21
470.809151
31
0.0
1
412
50
100.068107
  0
ENDSEC
  0
EOF
