  0
SECTION
  2
HEADER
  9
$ACADVER
  1
AC1009
  0
ENDSEC
  0
SECTION
  2
BLOCKS
  0
ENDSEC
  0
SECTION
  2
ENTITIES
  0
LINE
  8
CutLine
  6
CONTINUOUS
 62
8
 10
1257.241769
 20
560.703025
 11
1262.022046
 21
565.913491
  0
LINE
  8
CutLine
  6
CONTINUOUS
 62
8
 10
1262.022046
 20
565.913491
 11
1339.271311
 21
569.239749
  0
LINE
  8
CutLine
  6
CONTINUOUS
 62
8
 10
1339.271311
 20
569.239749
 11
1344.481777
 21
564.459472
  0
LINE
  8
CutLine
  6
CONTINUOUS
 62
8
 10
1399.767701
 20
456.205070
 11
1406.311294
 21
453.525259
  0
LINE
  8
CutLine
  6
CONTINUOUS
 62
8
 10
1406.311294
 20
453.525259
 11
1440.538128
 21
371.820905
  0
LINE
  8
CutLine
  6
CONTINUOUS
 62
8
 10
1440.538128
 20
371.820905
 11
1440.831115
 21
358.180819
  0
LINE
  8
CutLine
  6
CONTINUOUS
 62
8
 10
1375.507290
 20
435.142686
 11
1368.477969
 21
435.909926
  0
LINE
  8
CutLine
  6
CONTINUOUS
 62
8
 10
1368.477969
 20
435.909926
 11
1354.371230
 21
453.473422
  0
LINE
  8
CutLine
  6
CONTINUOUS
 62
8
 10
1247.946236
 20
452.852567
 11
1248.527353
 21
459.899716
  0
LINE
  8
CutLine
  6
CONTINUOUS
 62
8
 10
1248.527353
 20
459.899716
 11
1297.241052
 21
501.191445
  0
LINE
  8
CutLine
  6
CONTINUOUS
 62
8
 10
1297.241052
 20
501.191445
 11
1304.288201
 21
500.610327
  0
LINE
  8
CutLine
  6
CONTINUOUS
 62
8
 10
1363.493628
 20
428.380342
 11
1370.112986
 21
425.893557
  0
LINE
  8
CutLine
  6
CONTINUOUS
 62
8
 10
1370.112986
 20
425.893557
 11
1403.247982
 21
352.880440
  0
LINE
  8
CutLine
  6
CONTINUOUS
 62
8
 10
1403.247982
 20
352.880440
 11
1405.210780
 21
336.456405
  0
LINE
  8
CutLine
  6
CONTINUOUS
 62
8
 10
1237.022071
 20
277.330399
 11
1232.219041
 21
282.519898
  0
LINE
  8
CutLine
  6
CONTINUOUS
 62
8
 10
1232.219041
 20
282.519898
 11
1233.894469
 21
325.839797
  0
LINE
  8
CutLine
  6
CONTINUOUS
 62
8
 10
1233.894469
 20
325.839797
 11
1239.083968
 21
330.642828
  0
LINE
  8
CutLine
  6
CONTINUOUS
 62
8
 10
1306.327305
 20
297.507518
 11
1302.924262
 21
291.309187
  0
LINE
  8
CutLine
  6
CONTINUOUS
 62
8
 10
1302.924262
 20
291.309187
 11
1243.220402
 21
273.927356
  0
LINE
  8
CutLine
  6
CONTINUOUS
 62
8
 10
1243.220402
 20
273.927356
 11
1237.022071
 21
277.330399
  0
LINE
  8
CutLine
  6
CONTINUOUS
 62
8
 10
1272.782979
 20
384.982574
 11
1278.112839
 21
389.629356
  0
LINE
  8
CutLine
  6
CONTINUOUS
 62
8
 10
1278.112839
 20
389.629356
 11
1321.015887
 21
386.691882
  0
LINE
  8
CutLine
  6
CONTINUOUS
 62
8
 10
1496.689263
 20
463.757910
 11
1500.000000
 21
465.055998
  0
LINE
  8
CutLine
  6
CONTINUOUS
 62
8
 10
1457.492694
 20
300.458463
 11
1458.347420
 21
293.439243
  0
LINE
  8
CutLine
  6
CONTINUOUS
 62
8
 10
1458.347420
 20
293.439243
 11
1417.465482
 21
241.220491
  0
LINE
  8
CutLine
  6
CONTINUOUS
 62
8
 10
1417.465482
 20
241.220491
 11
1410.446263
 21
240.365765
  0
LINE
  8
CutLine
  6
CONTINUOUS
 62
8
 10
1273.867267
 20
97.966577
 11
1274.165419
 21
111.606550
  0
LINE
  8
CutLine
  6
CONTINUOUS
 62
8
 10
1274.165419
 20
111.606550
 11
1308.423191
 21
193.297937
  0
LINE
  8
CutLine
  6
CONTINUOUS
 62
8
 10
1308.423191
 20
193.297937
 11
1314.967799
 21
195.975270
  0
LINE
  8
CutLine
  6
CONTINUOUS
 62
8
 10
1360.366517
 20
193.237894
 11
1346.249714
 21
175.669458
  0
LINE
  8
CutLine
  6
CONTINUOUS
 62
8
 10
1346.249714
 20
175.669458
 11
1339.220232
 21
174.903701
  0
LINE
  8
CutLine
  6
CONTINUOUS
 62
8
 10
1326.552714
 20
267.222173
 11
1327.138446
 21
274.268939
  0
LINE
  8
CutLine
  6
CONTINUOUS
 62
8
 10
1327.138446
 20
274.268939
 11
1363.205920
 21
304.800642
  0
LINE
  8
CutLine
  6
CONTINUOUS
 62
8
 10
1363.205920
 20
304.800642
 11
1370.252687
 21
304.214910
  0
LINE
  8
CutLine
  6
CONTINUOUS
 62
8
 10
1410.446263
 20
240.365765
 11
1417.493411
 21
240.946883
  0
LINE
  8
CutLine
  6
CONTINUOUS
 62
8
 10
1417.493411
 20
240.946883
 11
1466.207110
 21
199.655153
  0
LINE
  8
CutLine
  6
CONTINUOUS
 62
8
 10
1466.207110
 20
199.655153
 11
1466.788227
 21
192.608005
  0
LINE
  8
CutLine
  6
CONTINUOUS
 62
8
 10
1309.523683
 20
76.211843
 11
1311.486481
 21
92.635878
  0
LINE
  8
CutLine
  6
CONTINUOUS
 62
8
 10
1311.486481
 20
92.635878
 11
1344.621477
 21
165.648995
  0
LINE
  8
CutLine
  6
CONTINUOUS
 62
8
 10
1344.621477
 20
165.648995
 11
1351.240835
 21
168.135780
  0
LINE
  8
CutLine
  6
CONTINUOUS
 62
8
 10
1477.712392
 20
17.085837
 11
1471.514061
 21
13.682794
  0
LINE
  8
CutLine
  6
CONTINUOUS
 62
8
 10
1471.514061
 20
13.682794
 11
1411.810201
 21
31.064625
  0
LINE
  8
CutLine
  6
CONTINUOUS
 62
8
 10
1411.810201
 20
31.064625
 11
1408.407159
 21
37.262955
  0
LINE
  8
CutLine
  6
CONTINUOUS
 62
8
 10
1393.718576
 20
126.447320
 11
1436.621624
 21
129.384794
  0
LINE
  8
CutLine
  6
CONTINUOUS
 62
8
 10
1436.621624
 20
129.384794
 11
1441.951484
 21
124.738012
  0
LINE
  8
MountainLine
  6
CONTINUOUS
 62
5
 10
1344.481777
 20
564.459472
 11
1257.241769
 21
560.703025
  0
LINE
  8
CutLine
  6
CONTINUOUS
 62
8
 10
1257.241769
 20
560.703025
 11
1304.288201
 21
500.610327
  0
LINE
  8
ValleyLine
  6
CONTINUOUS
 62
1
 10
1304.288201
 20
500.610327
 11
1349.068224
 21
468.060459
  0
LINE
  8
ValleyLine
  6
CONTINUOUS
 62
1
 10
1349.068224
 20
468.060459
 11
1344.481777
 21
564.459472
  0
LINE
  8
CutLine
  6
CONTINUOUS
 62
8
 10
1375.507290
 20
435.142686
 11
1440.831115
 21
358.180819
  0
LINE
  8
ValleyLine
  6
CONTINUOUS
 62
1
 10
1440.831115
 20
358.180819
 11
1399.767701
 21
456.205070
  0
LINE
  8
MountainLine
  6
CONTINUOUS
 62
5
 10
1399.767701
 20
456.205070
 11
1375.507290
 21
435.142686
  0
LINE
  8
CutLine
  6
CONTINUOUS
 62
8
 10
1388.167084
 20
527.449418
 11
1344.481777
 21
564.459472
  0
LINE
  8
ValleyLine
  6
CONTINUOUS
 62
1
 10
1349.068224
 20
468.060459
 11
1375.507290
 21
435.142686
  0
LINE
  8
CutLine
  6
CONTINUOUS
 62
8
 10
1399.767701
 20
456.205070
 11
1388.167084
 21
527.449418
  0
LINE
  8
CutLine
  6
CONTINUOUS
 62
8
 10
1247.946236
 20
452.852567
 11
1253.651813
 21
438.717484
  0
LINE
  8
CutLine
  6
CONTINUOUS
 62
8
 10
1253.651813
 20
438.717484
 11
1256.518538
 21
431.615448
  0
LINE
  8
CutLine
  6
CONTINUOUS
 62
8
 10
1256.518538
 20
431.615448
 11
1267.255530
 21
414.460138
  0
LINE
  8
CutLine
  6
CONTINUOUS
 62
8
 10
1267.255530
 20
414.460138
 11
1271.657324
 21
407.427061
  0
LINE
  8
CutLine
  6
CONTINUOUS
 62
8
 10
1271.657324
 20
407.427061
 11
1276.337105
 21
402.309328
  0
LINE
  8
CutLine
  6
CONTINUOUS
 62
8
 10
1276.337105
 20
402.309328
 11
1338.845951
 21
380.459392
  0
LINE
  8
ValleyLine
  6
CONTINUOUS
 62
1
 10
1338.845951
 20
380.459392
 11
1304.288201
 21
500.610327
  0
LINE
  8
MountainLine
  6
CONTINUOUS
 62
5
 10
1304.288201
 20
500.610327
 11
1247.946236
 21
452.852567
  0
LINE
  8
ValleyLine
  6
CONTINUOUS
 62
1
 10
1405.210780
 20
336.456405
 11
1363.493628
 21
428.380342
  0
LINE
  8
ValleyLine
  6
CONTINUOUS
 62
1
 10
1338.845951
 20
380.459392
 11
1405.210780
 21
336.456405
  0
LINE
  8
CutLine
  6
CONTINUOUS
 62
8
 10
1363.493628
 20
428.380342
 11
1349.068224
 21
468.060459
  0
LINE
  8
CutLine
  6
CONTINUOUS
 62
8
 10
1243.656823
 20
333.929489
 11
1242.032924
 21
332.762346
  0
LINE
  8
CutLine
  6
CONTINUOUS
 62
8
 10
1242.032924
 20
332.762346
 11
1239.083968
 21
330.642828
  0
LINE
  8
MountainLine
  6
CONTINUOUS
 62
5
 10
1239.083968
 20
330.642828
 11
1237.022071
 21
277.330399
  0
LINE
  8
ValleyLine
  6
CONTINUOUS
 62
1
 10
1237.022071
 20
277.330399
 11
1306.327305
 21
297.507518
  0
LINE
  8
MountainLine
  6
CONTINUOUS
 62
5
 10
1306.327305
 20
297.507518
 11
1243.656823
 21
333.929489
  0
LINE
  8
CutLine
  6
CONTINUOUS
 62
8
 10
1246.770777
 20
336.456405
 11
1243.656823
 21
333.929489
  0
LINE
  8
CutLine
  6
CONTINUOUS
 62
8
 10
1306.327305
 20
297.507518
 11
1405.210780
 21
336.456405
  0
LINE
  8
ValleyLine
  6
CONTINUOUS
 62
1
 10
1405.210780
 20
336.456405
 11
1246.770777
 21
336.456405
  0
LINE
  8
CutLine
  6
CONTINUOUS
 62
8
 10
1272.782979
 20
384.982574
 11
1247.316440
 21
339.996388
  0
LINE
  8
MountainLine
  6
CONTINUOUS
 62
5
 10
1247.316440
 20
339.996388
 11
1338.845951
 21
380.459392
  0
LINE
  8
ValleyLine
  6
CONTINUOUS
 62
1
 10
1338.845951
 20
380.459392
 11
1272.782979
 21
384.982574
  0
LINE
  8
CutLine
  6
CONTINUOUS
 62
8
 10
1247.316440
 20
339.996388
 11
1246.770777
 21
336.456405
  0
LINE
  8
CutLine
  6
CONTINUOUS
 62
8
 10
1496.689263
 20
463.757910
 11
1500.000000
 21
457.692628
  0
LINE
  8
ValleyLine
  6
CONTINUOUS
 62
1
 10
1500.000000
 20
462.312129
 11
1496.689263
 21
463.757910
  0
LINE
  8
ValleyLine
  6
CONTINUOUS
 62
1
 10
1410.446263
 20
240.365765
 11
1457.492694
 21
300.458463
  0
LINE
  8
CutLine
  6
CONTINUOUS
 62
8
 10
1457.492694
 20
300.458463
 11
1370.252687
 21
304.214910
  0
LINE
  8
ValleyLine
  6
CONTINUOUS
 62
1
 10
1370.252687
 20
304.214910
 11
1365.666239
 21
207.815897
  0
LINE
  8
ValleyLine
  6
CONTINUOUS
 62
1
 10
1365.666239
 20
207.815897
 11
1410.446263
 21
240.365765
  0
LINE
  8
CutLine
  6
CONTINUOUS
 62
8
 10
1273.867267
 20
97.966577
 11
1339.220232
 21
174.903701
  0
LINE
  8
MountainLine
  6
CONTINUOUS
 62
5
 10
1339.220232
 20
174.903701
 11
1314.967799
 21
195.975270
  0
LINE
  8
ValleyLine
  6
CONTINUOUS
 62
1
 10
1314.967799
 20
195.975270
 11
1273.867267
 21
97.966577
  0
LINE
  8
ValleyLine
  6
CONTINUOUS
 62
1
 10
1339.220232
 20
174.903701
 11
1365.666239
 21
207.815897
  0
LINE
  8
MountainLine
  6
CONTINUOUS
 62
5
 10
1370.252687
 20
304.214910
 11
1326.552714
 21
267.222173
  0
LINE
  8
CutLine
  6
CONTINUOUS
 62
8
 10
1326.552714
 20
267.222173
 11
1314.967799
 21
195.975270
  0
LINE
  8
CutLine
  6
CONTINUOUS
 62
8
 10
1375.888512
 20
120.214830
 11
1438.397358
 21
142.064766
  0
LINE
  8
CutLine
  6
CONTINUOUS
 62
8
 10
1438.397358
 20
142.064766
 11
1440.332867
 21
148.723996
  0
LINE
  8
CutLine
  6
CONTINUOUS
 62
8
 10
1440.332867
 20
148.723996
 11
1444.048679
 21
156.142399
  0
LINE
  8
CutLine
  6
CONTINUOUS
 62
8
 10
1444.048679
 20
156.142399
 11
1453.112411
 21
174.237603
  0
LINE
  8
CutLine
  6
CONTINUOUS
 62
8
 10
1453.112411
 20
174.237603
 11
1457.685828
 21
180.380965
  0
LINE
  8
CutLine
  6
CONTINUOUS
 62
8
 10
1457.685828
 20
180.380965
 11
1466.788227
 21
192.608005
  0
LINE
  8
MountainLine
  6
CONTINUOUS
 62
5
 10
1466.788227
 20
192.608005
 11
1410.446263
 21
240.365765
  0
LINE
  8
ValleyLine
  6
CONTINUOUS
 62
1
 10
1410.446263
 20
240.365765
 11
1375.888512
 21
120.214830
  0
LINE
  8
ValleyLine
  6
CONTINUOUS
 62
1
 10
1351.240835
 20
168.135780
 11
1309.523683
 21
76.211843
  0
LINE
  8
ValleyLine
  6
CONTINUOUS
 62
1
 10
1309.523683
 20
76.211843
 11
1375.888512
 21
120.214830
  0
LINE
  8
CutLine
  6
CONTINUOUS
 62
8
 10
1365.666239
 20
207.815897
 11
1351.240835
 21
168.135780
  0
LINE
  8
CutLine
  6
CONTINUOUS
 62
8
 10
1477.712392
 20
17.085837
 11
1475.650495
 21
70.398266
  0
LINE
  8
CutLine
  6
CONTINUOUS
 62
8
 10
1475.650495
 20
70.398266
 11
1472.701533
 21
72.517775
  0
LINE
  8
CutLine
  6
CONTINUOUS
 62
8
 10
1472.701533
 20
72.517775
 11
1471.077640
 21
73.684927
  0
LINE
  8
MountainLine
  6
CONTINUOUS
 62
5
 10
1471.077640
 20
73.684927
 11
1408.407159
 21
37.262955
  0
LINE
  8
ValleyLine
  6
CONTINUOUS
 62
1
 10
1408.407159
 20
37.262955
 11
1477.712392
 21
17.085837
  0
LINE
  8
ValleyLine
  6
CONTINUOUS
 62
1
 10
1467.963686
 20
76.211843
 11
1309.523683
 21
76.211843
  0
LINE
  8
CutLine
  6
CONTINUOUS
 62
8
 10
1309.523683
 20
76.211843
 11
1408.407159
 21
37.262955
  0
LINE
  8
CutLine
  6
CONTINUOUS
 62
8
 10
1471.077640
 20
73.684927
 11
1467.963686
 21
76.211843
  0
LINE
  8
CutLine
  6
CONTINUOUS
 62
8
 10
1467.418023
 20
79.751826
 11
1441.951484
 21
124.738012
  0
LINE
  8
ValleyLine
  6
CONTINUOUS
 62
1
 10
1441.951484
 20
124.738012
 11
1375.888512
 21
120.214830
  0
LINE
  8
MountainLine
  6
CONTINUOUS
 62
5
 10
1375.888512
 20
120.214830
 11
1467.418023
 21
79.751826
  0
LINE
  8
CutLine
  6
CONTINUOUS
 62
8
 10
1467.963686
 20
76.211843
 11
1467.418023
 21
79.751826
 0
TEXT
100
AcDbText
 8
Edge ID
100
AcDbText
10
1366.324430
20
545.954445
30
0.0
40
3.360000
72
1
11
1366.324430
21
545.954445
31
0.0
1
77
50
139.728834
 0
TEXT
100
AcDbText
 8
Edge ID
100
AcDbText
10
1362.287757
20
451.601572
30
0.0
40
3.360000
72
1
11
1362.287757
21
451.601572
31
0.0
1
27
50
-51.229088
 0
TEXT
100
AcDbText
 8
Edge ID
100
AcDbText
10
1393.967392
20
491.827244
30
0.0
40
3.360000
72
1
11
1393.967392
21
491.827244
31
0.0
1
31
50
99.248228
 0
TEXT
100
AcDbText
 8
Edge ID
100
AcDbText
10
1356.280926
20
448.220400
30
0.0
40
3.360000
72
1
11
1356.280926
21
448.220400
31
0.0
1
27
50
109.978350
 0
TEXT
100
AcDbText
 8
Edge ID
100
AcDbText
10
1355.769043
20
316.981961
30
0.0
40
3.360000
72
1
11
1355.769043
21
316.981961
31
0.0
1
26
50
21.498821
 0
TEXT
100
AcDbText
 8
Edge ID
100
AcDbText
10
1408.169202
20
396.661753
30
0.0
40
3.360000
72
1
11
1408.169202
21
396.661753
31
0.0
1
29
50
-49.676012
 0
TEXT
100
AcDbText
 8
Edge ID
100
AcDbText
10
1420.299408
20
407.192945
30
0.0
40
3.360000
72
1
11
1420.299408
21
407.192945
31
0.0
1
26
50
112.729335
 0
TEXT
100
AcDbText
 8
Edge ID
100
AcDbText
10
1384.352204
20
382.418373
30
0.0
40
3.360000
72
1
11
1384.352204
21
382.418373
31
0.0
1
29
50
114.409617
 0
TEXT
100
AcDbText
 8
Edge ID
100
AcDbText
10
1307.591528
20
391.384360
30
0.0
40
3.360000
72
1
11
1307.591528
21
391.384360
31
0.0
1
32
50
-19.267048
 0
TEXT
100
AcDbText
 8
Edge ID
100
AcDbText
10
1276.117218
20
476.731447
30
0.0
40
3.360000
72
1
11
1276.117218
21
476.731447
31
0.0
1
28
50
220.285978
 0
TEXT
100
AcDbText
 8
Edge ID
100
AcDbText
10
1238.053020
20
303.986613
30
0.0
40
3.360000
72
1
11
1238.053020
21
303.986613
31
0.0
1
30
50
267.785148
 0
TEXT
100
AcDbText
 8
Edge ID
100
AcDbText
10
1271.674688
20
287.418958
30
0.0
40
3.360000
72
1
11
1271.674688
21
287.418958
31
0.0
1
31
50
16.232080
 0
TEXT
100
AcDbText
 8
Edge ID
100
AcDbText
10
1305.814465
20
382.720983
30
0.0
40
3.360000
72
1
11
1305.814465
21
382.720983
31
0.0
1
32
50
176.083201
 0
TEXT
100
AcDbText
 8
Edge ID
100
AcDbText
10
1300.861773
20
562.581249
30
0.0
40
3.360000
72
1
11
1300.861773
21
562.581249
31
0.0
1
25
50
182.465563
 0
TEXT
100
AcDbText
 8
Edge ID
100
AcDbText
10
1280.764985
20
530.656676
30
0.0
40
3.360000
72
1
11
1280.764985
21
530.656676
31
0.0
1
16
50
-51.942692
 0
TEXT
100
AcDbText
 8
Edge ID
100
AcDbText
10
1352.443235
20
191.359799
30
0.0
40
3.360000
72
1
11
1352.443235
21
191.359799
31
0.0
1
223
50
51.217004
 0
TEXT
100
AcDbText
 8
Edge ID
100
AcDbText
10
1348.402700
20
285.718542
30
0.0
40
3.360000
72
1
11
1348.402700
21
285.718542
31
0.0
1
224
50
220.248457
 0
TEXT
100
AcDbText
 8
Edge ID
100
AcDbText
10
1320.760256
20
231.598721
30
0.0
40
3.360000
72
1
11
1320.760256
21
231.598721
31
0.0
1
227
50
260.764399
 0
TEXT
100
AcDbText
 8
Edge ID
100
AcDbText
10
1358.453537
20
187.975838
30
0.0
40
3.360000
72
1
11
1358.453537
21
187.975838
31
0.0
1
223
50
250.021650
 0
TEXT
100
AcDbText
 8
Edge ID
100
AcDbText
10
1358.965421
20
56.737399
30
0.0
40
3.360000
72
1
11
1358.965421
21
56.737399
31
0.0
1
222
50
-21.498821
 0
TEXT
100
AcDbText
 8
Edge ID
100
AcDbText
10
1306.543749
20
136.435139
30
0.0
40
3.360000
72
1
11
1306.543749
21
136.435139
31
0.0
1
226
50
49.654315
 0
TEXT
100
AcDbText
 8
Edge ID
100
AcDbText
10
1294.417533
20
146.970923
30
0.0
40
3.360000
72
1
11
1294.417533
21
146.970923
31
0.0
1
222
50
247.248968
 0
TEXT
100
AcDbText
 8
Edge ID
100
AcDbText
10
1330.382259
20
122.173811
30
0.0
40
3.360000
72
1
11
1330.382259
21
122.173811
31
0.0
1
226
50
245.590383
 0
TEXT
100
AcDbText
 8
Edge ID
100
AcDbText
10
1438.617245
20
216.486885
30
0.0
40
3.360000
72
1
11
1438.617245
21
216.486885
31
0.0
1
225
50
139.714022
 0
TEXT
100
AcDbText
 8
Edge ID
100
AcDbText
10
1407.142935
20
131.139798
30
0.0
40
3.360000
72
1
11
1407.142935
21
131.139798
31
0.0
1
228
50
19.267048
 0
TEXT
100
AcDbText
 8
Edge ID
100
AcDbText
10
1443.059775
20
27.174396
30
0.0
40
3.360000
72
1
11
1443.059775
21
27.174396
31
0.0
1
227
50
-16.232080
 0
TEXT
100
AcDbText
 8
Edge ID
100
AcDbText
10
1476.681444
20
43.742051
30
0.0
40
3.360000
72
1
11
1476.681444
21
43.742051
31
0.0
1
4
50
92.214852
 0
TEXT
100
AcDbText
 8
Edge ID
100
AcDbText
10
1408.919998
20
122.476421
30
0.0
40
3.360000
72
1
11
1408.919998
21
122.476421
31
0.0
1
228
50
183.916799
 0
TEXT
100
AcDbText
 8
Edge ID
100
AcDbText
10
1433.969478
20
270.412114
30
0.0
40
3.360000
72
1
11
1433.969478
21
270.412114
31
0.0
1
221
50
51.942692
 0
TEXT
100
AcDbText
 8
Edge ID
100
AcDbText
10
1413.872690
20
302.336687
30
0.0
40
3.360000
72
1
11
1413.872690
21
302.336687
31
0.0
1
147
50
177.534437
  0
ENDSEC
  0
EOF
