  0
SECTION
  2
HEADER
  9
$ACADVER
  1
AC1009
  0
ENDSEC
  0
SECTION
  2
BLOCKS
  0
ENDSEC
  0
SECTION
  2
ENTITIES
  0
LINE
  8
CutLine
  6
CONTINUOUS
 62
8
 10
2634.579330
 20
113.428426
 11
2636.830439
 21
111.656580
  0
LINE
  8
CutLine
  6
CONTINUOUS
 62
8
 10
2636.830439
 20
111.656580
 11
2641.914761
 21
116.570811
  0
LINE
  8
CutLine
  6
CONTINUOUS
 62
8
 10
2641.914761
 20
116.570811
 11
2672.792908
 21
116.045530
  0
LINE
  8
CutLine
  6
CONTINUOUS
 62
8
 10
2672.792908
 20
116.045530
 11
2677.707140
 21
110.961209
  0
LINE
  8
CutLine
  6
CONTINUOUS
 62
8
 10
2552.323451
 20
59.844730
 11
2552.486201
 21
52.775535
  0
LINE
  8
CutLine
  6
CONTINUOUS
 62
8
 10
2552.486201
 20
52.775535
 11
2512.300236
 21
10.695612
  0
LINE
  8
CutLine
  6
CONTINUOUS
 62
8
 10
2512.300236
 20
10.695612
 11
2504.672489
 21
9.947986
  0
LINE
  8
CutLine
  6
CONTINUOUS
 62
8
 10
2509.344374
 20
86.437855
 11
2512.637819
 21
92.695109
  0
LINE
  8
CutLine
  6
CONTINUOUS
 62
8
 10
2512.637819
 20
92.695109
 11
2524.763165
 21
96.457890
  0
LINE
  8
CutLine
  6
CONTINUOUS
 62
8
 10
2486.008486
 20
53.393440
 11
2483.243171
 21
61.702828
  0
LINE
  8
CutLine
  6
CONTINUOUS
 62
8
 10
2483.243171
 20
61.702828
 11
2484.339124
 21
65.424432
  0
LINE
  8
CutLine
  6
CONTINUOUS
 62
8
 10
2484.339124
 20
65.424432
 11
2490.547923
 21
68.808336
  0
LINE
  8
CutLine
  6
CONTINUOUS
 62
8
 10
2630.474436
 20
81.311268
 11
2629.074460
 21
74.380174
  0
LINE
  8
CutLine
  6
CONTINUOUS
 62
8
 10
2629.074460
 20
74.380174
 11
2599.054141
 21
54.449245
  0
LINE
  8
CutLine
  6
CONTINUOUS
 62
8
 10
2599.054141
 20
54.449245
 11
2592.123046
 21
55.849221
  0
LINE
  8
CutLine
  6
CONTINUOUS
 62
8
 10
2429.355416
 20
118.415055
 11
2424.837629
 21
121.464326
  0
LINE
  8
CutLine
  6
CONTINUOUS
 62
8
 10
2551.905013
 20
259.782538
 11
2554.694403
 21
253.284899
  0
LINE
  8
CutLine
  6
CONTINUOUS
 62
8
 10
2554.694403
 20
253.284899
 11
2532.690725
 21
198.178350
  0
LINE
  8
CutLine
  6
CONTINUOUS
 62
8
 10
2532.690725
 20
198.178350
 11
2526.193086
 21
195.388960
  0
LINE
  8
CutLine
  6
CONTINUOUS
 62
8
 10
2472.883670
 20
170.980759
 11
2471.075195
 21
184.756613
  0
LINE
  8
CutLine
  6
CONTINUOUS
 62
8
 10
2471.075195
 20
184.756613
 11
2476.261764
 21
206.173995
  0
LINE
  8
CutLine
  6
CONTINUOUS
 62
8
 10
2476.261764
 20
206.173995
 11
2482.298117
 21
209.856716
  0
LINE
  8
CutLine
  6
CONTINUOUS
 62
8
 10
2513.764250
 20
155.718037
 11
2516.044812
 21
149.024829
  0
LINE
  8
CutLine
  6
CONTINUOUS
 62
8
 10
2516.044812
 20
149.024829
 11
2500.970686
 21
118.369356
  0
LINE
  8
CutLine
  6
CONTINUOUS
 62
8
 10
2466.346862
 20
94.255216
 11
2459.523474
 21
92.400123
  0
LINE
  8
CutLine
  6
CONTINUOUS
 62
8
 10
2459.523474
 20
92.400123
 11
2430.591855
 21
108.963023
  0
LINE
  8
CutLine
  6
CONTINUOUS
 62
8
 10
2430.591855
 20
108.963023
 11
2425.310834
 21
117.747701
  0
LINE
  8
CutLine
  6
CONTINUOUS
 62
8
 10
2507.926579
 20
93.818315
 11
2502.729355
 21
89.023644
  0
LINE
  8
CutLine
  6
CONTINUOUS
 62
8
 10
2502.729355
 20
89.023644
 11
2487.200048
 21
89.649287
  0
LINE
  8
CutLine
  6
CONTINUOUS
 62
8
 10
2487.200048
 20
89.649287
 11
2482.405377
 21
94.846510
  0
LINE
  8
CutLine
  6
CONTINUOUS
 62
8
 10
2636.005764
 20
179.733439
 11
2641.060139
 21
172.731687
  0
LINE
  8
CutLine
  6
CONTINUOUS
 62
8
 10
2641.060139
 20
172.731687
 11
2641.477724
 21
118.811313
  0
LINE
  8
CutLine
  6
CONTINUOUS
 62
8
 10
2641.477724
 20
118.811313
 11
2636.516596
 21
113.772742
  0
LINE
  8
CutLine
  6
CONTINUOUS
 62
8
 10
2534.577914
 20
134.913747
 11
2537.292324
 21
141.443064
  0
LINE
  8
CutLine
  6
CONTINUOUS
 62
8
 10
2537.292324
 20
141.443064
 11
2566.476918
 21
153.487612
  0
LINE
  8
CutLine
  6
CONTINUOUS
 62
8
 10
2566.476918
 20
153.487612
 11
2573.006235
 21
150.773202
  0
LINE
  8
CutLine
  6
CONTINUOUS
 62
8
 10
2591.797981
 20
169.288556
 11
2585.829917
 21
173.080945
  0
LINE
  8
CutLine
  6
CONTINUOUS
 62
8
 10
2585.829917
 20
173.080945
 11
2557.012820
 21
302.359416
  0
LINE
  8
CutLine
  6
CONTINUOUS
 62
8
 10
2557.012820
 20
302.359416
 11
2560.805209
 21
308.327480
  0
LINE
  8
CutLine
  6
CONTINUOUS
 62
8
 10
2692.599829
 20
311.267182
 11
2696.117137
 21
305.132971
  0
LINE
  8
CutLine
  6
CONTINUOUS
 62
8
 10
2696.117137
 20
305.132971
 11
2687.489574
 21
273.313264
  0
LINE
  8
CutLine
  6
CONTINUOUS
 62
8
 10
2687.489574
 20
273.313264
 11
2681.355363
 21
269.795956
  0
LINE
  8
CutLine
  6
CONTINUOUS
 62
8
 10
2572.589055
 20
343.337151
 11
2578.710391
 21
346.876818
  0
LINE
  8
CutLine
  6
CONTINUOUS
 62
8
 10
2578.710391
 20
346.876818
 11
2689.060162
 21
317.388518
  0
LINE
  8
CutLine
  6
CONTINUOUS
 62
8
 10
2689.060162
 20
317.388518
 11
2692.599829
 21
311.267182
  0
LINE
  8
CutLine
  6
CONTINUOUS
 62
8
 10
2500.908811
 20
481.384618
 11
2507.962724
 21
480.892360
  0
LINE
  8
CutLine
  6
CONTINUOUS
 62
8
 10
2507.962724
 20
480.892360
 11
2521.302978
 21
465.550527
  0
LINE
  8
CutLine
  6
CONTINUOUS
 62
8
 10
2521.302978
 20
465.550527
 11
2520.810721
 21
458.496614
  0
LINE
  8
CutLine
  6
CONTINUOUS
 62
8
 10
2415.970397
 20
454.659662
 11
2411.378544
 21
460.036918
  0
LINE
  8
CutLine
  6
CONTINUOUS
 62
8
 10
2411.378544
 20
460.036918
 11
2413.937788
 21
492.521406
  0
LINE
  8
CutLine
  6
CONTINUOUS
 62
8
 10
2413.937788
 20
492.521406
 11
2419.315044
 21
497.113260
  0
LINE
  8
CutLine
  6
CONTINUOUS
 62
8
 10
2462.121144
 20
231.836368
 11
2463.287140
 21
223.723855
  0
LINE
  8
CutLine
  6
CONTINUOUS
 62
8
 10
2463.287140
 20
223.723855
 11
2422.786425
 21
151.890781
  0
LINE
  8
CutLine
  6
CONTINUOUS
 62
8
 10
2422.786425
 20
151.890781
 11
2415.975338
 21
149.991020
  0
LINE
  8
CutLine
  6
CONTINUOUS
 62
8
 10
2464.305089
 20
230.809221
 11
2463.379257
 21
234.339442
  0
LINE
  8
CutLine
  6
CONTINUOUS
 62
8
 10
2607.870591
 20
470.752666
 11
2611.459787
 21
464.660239
  0
LINE
  8
CutLine
  6
CONTINUOUS
 62
8
 10
2611.459787
 20
464.660239
 11
2594.475105
 21
398.969416
  0
LINE
  8
CutLine
  6
CONTINUOUS
 62
8
 10
2594.475105
 20
398.969416
 11
2588.382678
 21
395.380220
  0
LINE
  8
CutLine
  6
CONTINUOUS
 62
8
 10
2537.412133
 20
445.809099
 11
2540.139870
 21
452.332859
  0
LINE
  8
CutLine
  6
CONTINUOUS
 62
8
 10
2540.139870
 20
452.332859
 11
2553.595897
 21
457.854062
  0
LINE
  8
CutLine
  6
CONTINUOUS
 62
8
 10
2553.595897
 20
457.854062
 11
2560.119658
 21
455.126325
  0
LINE
  8
ValleyLine
  6
CONTINUOUS
 62
1
 10
2552.323451
 20
59.844730
 11
2630.474436
 21
81.311268
  0
LINE
  8
ValleyLine
  6
CONTINUOUS
 62
1
 10
2630.474436
 20
81.311268
 11
2599.767097
 21
107.241146
  0
LINE
  8
ValleyLine
  6
CONTINUOUS
 62
1
 10
2599.767097
 20
107.241146
 11
2558.858277
 21
101.803192
  0
LINE
  8
MountainLine
  6
CONTINUOUS
 62
5
 10
2558.858277
 20
101.803192
 11
2552.323451
 21
59.844730
  0
LINE
  8
MountainLine
  6
CONTINUOUS
 62
5
 10
2630.474436
 20
81.311268
 11
2636.830439
 21
111.656580
  0
LINE
  8
ValleyLine
  6
CONTINUOUS
 62
1
 10
2636.830439
 20
111.656580
 11
2599.767097
 21
107.241146
  0
LINE
  8
ValleyLine
  6
CONTINUOUS
 62
1
 10
2677.707140
 20
110.961209
 11
2636.830439
 21
111.656580
  0
LINE
  8
CutLine
  6
CONTINUOUS
 62
8
 10
2630.474436
 20
81.311268
 11
2677.707140
 21
110.961209
  0
LINE
  8
ValleyLine
  6
CONTINUOUS
 62
1
 10
2504.672489
 20
9.947986
 11
2552.323451
 21
59.844730
  0
LINE
  8
MountainLine
  6
CONTINUOUS
 62
5
 10
2552.323451
 20
59.844730
 11
2510.534326
 21
66.204649
  0
LINE
  8
ValleyLine
  6
CONTINUOUS
 62
1
 10
2510.534326
 20
66.204649
 11
2504.672489
 21
9.947986
  0
LINE
  8
ValleyLine
  6
CONTINUOUS
 62
1
 10
2509.344374
 20
86.437855
 11
2510.534326
 21
66.204649
  0
LINE
  8
ValleyLine
  6
CONTINUOUS
 62
1
 10
2558.858277
 20
101.803192
 11
2509.344374
 21
86.437855
  0
LINE
  8
ValleyLine
  6
CONTINUOUS
 62
1
 10
2510.534326
 20
66.204649
 11
2486.008486
 21
53.393440
  0
LINE
  8
CutLine
  6
CONTINUOUS
 62
8
 10
2486.008486
 20
53.393440
 11
2504.672489
 21
9.947986
  0
LINE
  8
MountainLine
  6
CONTINUOUS
 62
5
 10
2510.534326
 20
66.204649
 11
2490.547923
 21
68.808336
  0
LINE
  8
ValleyLine
  6
CONTINUOUS
 62
1
 10
2490.547923
 20
68.808336
 11
2486.008486
 21
53.393440
  0
LINE
  8
CutLine
  6
CONTINUOUS
 62
8
 10
2509.344374
 20
86.437855
 11
2490.547923
 21
68.808336
  0
LINE
  8
CutLine
  6
CONTINUOUS
 62
8
 10
2552.323451
 20
59.844730
 11
2592.123046
 21
55.849221
  0
LINE
  8
MountainLine
  6
CONTINUOUS
 62
5
 10
2592.123046
 20
55.849221
 11
2630.474436
 21
81.311268
  0
LINE
  8
MountainLine
  6
CONTINUOUS
 62
5
 10
2472.883670
 20
170.980759
 11
2475.431149
 21
126.017522
  0
LINE
  8
ValleyLine
  6
CONTINUOUS
 62
1
 10
2475.431149
 20
126.017522
 11
2513.764250
 21
155.718037
  0
LINE
  8
MountainLine
  6
CONTINUOUS
 62
5
 10
2513.764250
 20
155.718037
 11
2472.883670
 21
170.980759
  0
LINE
  8
CutLine
  6
CONTINUOUS
 62
8
 10
2472.883670
 20
170.980759
 11
2424.837629
 21
121.464326
  0
LINE
  8
ValleyLine
  6
CONTINUOUS
 62
1
 10
2424.837629
 20
121.464326
 11
2475.431149
 21
126.017522
  0
LINE
  8
ValleyLine
  6
CONTINUOUS
 62
1
 10
2526.193086
 20
195.388960
 11
2551.905013
 21
259.782538
  0
LINE
  8
CutLine
  6
CONTINUOUS
 62
8
 10
2551.905013
 20
259.782538
 11
2482.298117
 21
209.856716
  0
LINE
  8
ValleyLine
  6
CONTINUOUS
 62
1
 10
2482.298117
 20
209.856716
 11
2472.883670
 21
170.980759
  0
LINE
  8
CutLine
  6
CONTINUOUS
 62
8
 10
2513.764250
 20
155.718037
 11
2526.193086
 21
195.388960
  0
LINE
  8
ValleyLine
  6
CONTINUOUS
 62
1
 10
2475.431149
 20
126.017522
 11
2493.619348
 21
114.750391
  0
LINE
  8
ValleyLine
  6
CONTINUOUS
 62
1
 10
2493.619348
 20
114.750391
 11
2513.764250
 21
155.718037
  0
LINE
  8
ValleyLine
  6
CONTINUOUS
 62
1
 10
2493.619348
 20
114.750391
 11
2466.346862
 21
94.255216
  0
LINE
  8
CutLine
  6
CONTINUOUS
 62
8
 10
2466.346862
 20
94.255216
 11
2482.405377
 21
94.846510
  0
LINE
  8
ValleyLine
  6
CONTINUOUS
 62
1
 10
2482.405377
 20
94.846510
 11
2493.619348
 21
114.750391
  0
LINE
  8
CutLine
  6
CONTINUOUS
 62
8
 10
2475.431149
 20
126.017522
 11
2425.310834
 21
117.747701
  0
LINE
  8
ValleyLine
  6
CONTINUOUS
 62
1
 10
2425.310834
 20
117.747701
 11
2466.346862
 21
94.255216
  0
LINE
  8
ValleyLine
  6
CONTINUOUS
 62
1
 10
2482.405377
 20
94.846510
 11
2507.926579
 21
93.818315
  0
LINE
  8
ValleyLine
  6
CONTINUOUS
 62
1
 10
2507.926579
 20
93.818315
 11
2493.619348
 21
114.750391
  0
LINE
  8
MountainLine
  6
CONTINUOUS
 62
5
 10
2636.516596
 20
113.772742
 11
2636.005764
 21
179.733439
  0
LINE
  8
CutLine
  6
CONTINUOUS
 62
8
 10
2636.005764
 20
179.733439
 11
2573.006235
 21
150.773202
  0
LINE
  8
ValleyLine
  6
CONTINUOUS
 62
1
 10
2573.006235
 20
150.773202
 11
2534.577914
 21
134.913747
  0
LINE
  8
ValleyLine
  6
CONTINUOUS
 62
1
 10
2534.577914
 20
134.913747
 11
2558.858277
 21
101.803192
  0
LINE
  8
CutLine
  6
CONTINUOUS
 62
8
 10
2599.767097
 20
107.241146
 11
2636.516596
 21
113.772742
  0
LINE
  8
CutLine
  6
CONTINUOUS
 62
8
 10
2534.577914
 20
134.913747
 11
2493.619348
 21
114.750391
  0
LINE
  8
CutLine
  6
CONTINUOUS
 62
8
 10
2507.926579
 20
93.818315
 11
2558.858277
 21
101.803192
  0
LINE
  8
ValleyLine
  6
CONTINUOUS
 62
1
 10
2560.805209
 20
308.327480
 11
2591.797981
 21
169.288556
  0
LINE
  8
CutLine
  6
CONTINUOUS
 62
8
 10
2591.797981
 20
169.288556
 11
2681.355363
 21
269.795956
  0
LINE
  8
ValleyLine
  6
CONTINUOUS
 62
1
 10
2681.355363
 20
269.795956
 11
2692.599829
 21
311.267182
  0
LINE
  8
ValleyLine
  6
CONTINUOUS
 62
1
 10
2692.599829
 20
311.267182
 11
2572.589055
 21
343.337151
  0
LINE
  8
ValleyLine
  6
CONTINUOUS
 62
1
 10
2572.589055
 20
343.337151
 11
2560.805209
 21
308.327480
  0
LINE
  8
ValleyLine
  6
CONTINUOUS
 62
1
 10
2415.970397
 20
454.659662
 11
2462.121144
 21
231.836368
  0
LINE
  8
CutLine
  6
CONTINUOUS
 62
8
 10
2462.121144
 20
231.836368
 11
2482.866058
 21
273.109351
  0
LINE
  8
MountainLine
  6
CONTINUOUS
 62
5
 10
2482.866058
 20
273.109351
 11
2537.412133
 21
445.809099
  0
LINE
  8
CutLine
  6
CONTINUOUS
 62
8
 10
2537.412133
 20
445.809099
 11
2520.810721
 21
458.496614
  0
LINE
  8
CutLine
  6
CONTINUOUS
 62
8
 10
2415.245661
 20
579.779243
 11
2419.315044
 21
497.113260
  0
LINE
  8
MountainLine
  6
CONTINUOUS
 62
5
 10
2419.315044
 20
497.113260
 11
2500.908811
 21
481.384618
  0
LINE
  8
CutLine
  6
CONTINUOUS
 62
8
 10
2500.908811
 20
481.384618
 11
2415.245661
 21
579.779243
  0
LINE
  8
ValleyLine
  6
CONTINUOUS
 62
1
 10
2520.810721
 20
458.496614
 11
2500.908811
 21
481.384618
  0
LINE
  8
ValleyLine
  6
CONTINUOUS
 62
1
 10
2419.315044
 20
497.113260
 11
2415.970397
 21
454.659662
  0
LINE
  8
ValleyLine
  6
CONTINUOUS
 62
1
 10
2415.975338
 20
149.991020
 11
2462.121144
 21
231.836368
  0
LINE
  8
CutLine
  6
CONTINUOUS
 62
8
 10
2415.970397
 20
454.659662
 11
2415.975338
 21
149.991020
  0
LINE
  8
MountainLine
  6
CONTINUOUS
 62
5
 10
2482.866058
 20
273.109351
 11
2523.439162
 21
257.408698
  0
LINE
  8
MountainLine
  6
CONTINUOUS
 62
5
 10
2523.439162
 20
257.408698
 11
2537.412133
 21
445.809099
  0
LINE
  8
CutLine
  6
CONTINUOUS
 62
8
 10
2464.305089
 20
230.809221
 11
2523.439162
 21
257.408698
  0
LINE
  8
MountainLine
  6
CONTINUOUS
 62
5
 10
2482.866058
 20
273.109351
 11
2464.305089
 21
230.809221
  0
LINE
  8
MountainLine
  6
CONTINUOUS
 62
5
 10
2560.805209
 20
308.327480
 11
2537.412133
 21
445.809099
  0
LINE
  8
CutLine
  6
CONTINUOUS
 62
8
 10
2523.439162
 20
257.408698
 11
2560.805209
 21
308.327480
  0
LINE
  8
CutLine
  6
CONTINUOUS
 62
8
 10
2572.589055
 20
343.337151
 11
2588.382678
 21
395.380220
  0
LINE
  8
ValleyLine
  6
CONTINUOUS
 62
1
 10
2588.382678
 20
395.380220
 11
2607.870591
 21
470.752666
  0
LINE
  8
CutLine
  6
CONTINUOUS
 62
8
 10
2607.870591
 20
470.752666
 11
2560.119658
 21
455.126325
  0
LINE
  8
ValleyLine
  6
CONTINUOUS
 62
1
 10
2560.119658
 20
455.126325
 11
2537.412133
 21
445.809099
 0
TEXT
100
AcDbText
 8
Edge ID
100
AcDbText
10
2499.946149
20
77.623096
30
0.0
40
3.360000
72
1
11
2499.946149
21
77.623096
31
0.0
1
128
50
223.165117
 0
TEXT
100
AcDbText
 8
Edge ID
100
AcDbText
10
2657.268790
20
111.308894
30
0.0
40
3.360000
72
1
11
2657.268790
21
111.308894
31
0.0
1
118
50
179.025411
 0
TEXT
100
AcDbText
 8
Edge ID
100
AcDbText
10
2654.090788
20
96.136238
30
0.0
40
3.360000
72
1
11
2654.090788
21
96.136238
31
0.0
1
182
50
32.118208
 0
TEXT
100
AcDbText
 8
Edge ID
100
AcDbText
10
2514.098631
20
124.832069
30
0.0
40
3.360000
72
1
11
2514.098631
21
124.832069
31
0.0
1
126
50
206.210408
 0
TEXT
100
AcDbText
 8
Edge ID
100
AcDbText
10
2533.392428
20
97.810754
30
0.0
40
3.360000
72
1
11
2533.392428
21
97.810754
31
0.0
1
120
50
8.910087
 0
TEXT
100
AcDbText
 8
Edge ID
100
AcDbText
10
2572.223249
20
57.846975
30
0.0
40
3.360000
72
1
11
2572.223249
21
57.846975
31
0.0
1
125
50
-5.732756
 0
TEXT
100
AcDbText
 8
Edge ID
100
AcDbText
10
2611.298741
20
68.580245
30
0.0
40
3.360000
72
1
11
2611.298741
21
68.580245
31
0.0
1
122
50
33.580765
 0
TEXT
100
AcDbText
 8
Edge ID
100
AcDbText
10
2450.370991
20
121.882612
30
0.0
40
3.360000
72
1
11
2450.370991
21
121.882612
31
0.0
1
123
50
189.369350
 0
TEXT
100
AcDbText
 8
Edge ID
100
AcDbText
10
2445.828848
20
106.001459
30
0.0
40
3.360000
72
1
11
2445.828848
21
106.001459
31
0.0
1
127
50
-29.790463
 0
TEXT
100
AcDbText
 8
Edge ID
100
AcDbText
10
2503.691799
20
135.234214
30
0.0
40
3.360000
72
1
11
2503.691799
21
135.234214
31
0.0
1
126
50
63.815404
 0
TEXT
100
AcDbText
 8
Edge ID
100
AcDbText
10
2448.860649
20
146.222543
30
0.0
40
3.360000
72
1
11
2448.860649
21
146.222543
31
0.0
1
119
50
225.863456
 0
TEXT
100
AcDbText
 8
Edge ID
100
AcDbText
10
2450.134389
20
123.740924
30
0.0
40
3.360000
72
1
11
2450.134389
21
123.740924
31
0.0
1
123
50
5.142517
 0
TEXT
100
AcDbText
 8
Edge ID
100
AcDbText
10
2488.278205
20
61.100888
30
0.0
40
3.360000
72
1
11
2488.278205
21
61.100888
31
0.0
1
121
50
253.591154
 0
TEXT
100
AcDbText
 8
Edge ID
100
AcDbText
10
2534.101326
20
94.120524
30
0.0
40
3.360000
72
1
11
2534.101326
21
94.120524
31
0.0
1
120
50
197.240354
 0
TEXT
100
AcDbText
 8
Edge ID
100
AcDbText
10
2495.340487
20
31.670713
30
0.0
40
3.360000
72
1
11
2495.340487
21
31.670713
31
0.0
1
127
50
-66.751823
 0
TEXT
100
AcDbText
 8
Edge ID
100
AcDbText
10
2528.497970
20
34.896358
30
0.0
40
3.360000
72
1
11
2528.497970
21
34.896358
31
0.0
1
119
50
46.318853
 0
TEXT
100
AcDbText
 8
Edge ID
100
AcDbText
10
2519.978668
20
175.553499
30
0.0
40
3.360000
72
1
11
2519.978668
21
175.553499
31
0.0
1
130
50
72.604310
 0
TEXT
100
AcDbText
 8
Edge ID
100
AcDbText
10
2636.261180
20
146.753090
30
0.0
40
3.360000
72
1
11
2636.261180
21
146.753090
31
0.0
1
129
50
90.443717
 0
TEXT
100
AcDbText
 8
Edge ID
100
AcDbText
10
2604.506000
20
165.253320
30
0.0
40
3.360000
72
1
11
2604.506000
21
165.253320
31
0.0
1
124
50
204.687756
 0
TEXT
100
AcDbText
 8
Edge ID
100
AcDbText
10
2553.792075
20
142.843474
30
0.0
40
3.360000
72
1
11
2553.792075
21
142.843474
31
0.0
1
130
50
202.426051
 0
TEXT
100
AcDbText
 8
Edge ID
100
AcDbText
10
2618.141846
20
110.506944
30
0.0
40
3.360000
72
1
11
2618.141846
21
110.506944
31
0.0
1
117
50
10.078107
 0
TEXT
100
AcDbText
 8
Edge ID
100
AcDbText
10
2477.590894
20
190.418738
30
0.0
40
3.360000
72
1
11
2477.590894
21
190.418738
31
0.0
1
125
50
256.386964
 0
TEXT
100
AcDbText
 8
Edge ID
100
AcDbText
10
2618.298768
20
109.448863
30
0.0
40
3.360000
72
1
11
2618.298768
21
109.448863
31
0.0
1
117
50
186.793746
 0
TEXT
100
AcDbText
 8
Edge ID
100
AcDbText
10
2539.049050
20
227.585749
30
0.0
40
3.360000
72
1
11
2539.049050
21
227.585749
31
0.0
1
124
50
68.233502
 0
TEXT
100
AcDbText
 8
Edge ID
100
AcDbText
10
2517.101565
20
234.819627
30
0.0
40
3.360000
72
1
11
2517.101565
21
234.819627
31
0.0
1
234
50
215.650132
 0
TEXT
100
AcDbText
 8
Edge ID
100
AcDbText
10
2495.165978
20
94.332413
30
0.0
40
3.360000
72
1
11
2495.165978
21
94.332413
31
0.0
1
128
50
-2.307079
 0
TEXT
100
AcDbText
 8
Edge ID
100
AcDbText
10
2474.376120
20
94.550863
30
0.0
40
3.360000
72
1
11
2474.376120
21
94.550863
31
0.0
1
121
50
2.108749
 0
TEXT
100
AcDbText
 8
Edge ID
100
AcDbText
10
2580.485866
20
369.358685
30
0.0
40
3.360000
72
1
11
2580.485866
21
369.358685
31
0.0
1
387
50
73.118416
 0
TEXT
100
AcDbText
 8
Edge ID
100
AcDbText
10
2598.126634
20
433.066443
30
0.0
40
3.360000
72
1
11
2598.126634
21
433.066443
31
0.0
1
295
50
75.503368
 0
TEXT
100
AcDbText
 8
Edge ID
100
AcDbText
10
2583.995124
20
462.939495
30
0.0
40
3.360000
72
1
11
2583.995124
21
462.939495
31
0.0
1
450
50
198.120520
 0
TEXT
100
AcDbText
 8
Edge ID
100
AcDbText
10
2548.765895
20
450.467712
30
0.0
40
3.360000
72
1
11
2548.765895
21
450.467712
31
0.0
1
296
50
202.309052
 0
TEXT
100
AcDbText
 8
Edge ID
100
AcDbText
10
2510.859766
20
469.940616
30
0.0
40
3.360000
72
1
11
2510.859766
21
469.940616
31
0.0
1
291
50
131.008087
 0
TEXT
100
AcDbText
 8
Edge ID
100
AcDbText
10
2417.642721
20
475.886461
30
0.0
40
3.360000
72
1
11
2417.642721
21
475.886461
31
0.0
1
292
50
265.495338
 0
TEXT
100
AcDbText
 8
Edge ID
100
AcDbText
10
2576.301595
20
238.808018
30
0.0
40
3.360000
72
1
11
2576.301595
21
238.808018
31
0.0
1
288
50
-77.433800
 0
TEXT
100
AcDbText
 8
Edge ID
100
AcDbText
10
2636.576672
20
219.542256
30
0.0
40
3.360000
72
1
11
2636.576672
21
219.542256
31
0.0
1
420
50
48.297281
 0
TEXT
100
AcDbText
 8
Edge ID
100
AcDbText
10
2686.977596
20
290.531569
30
0.0
40
3.360000
72
1
11
2686.977596
21
290.531569
31
0.0
1
289
50
74.829617
 0
TEXT
100
AcDbText
 8
Edge ID
100
AcDbText
10
2632.594442
20
327.302167
30
0.0
40
3.360000
72
1
11
2632.594442
21
327.302167
31
0.0
1
290
50
165.038681
 0
TEXT
100
AcDbText
 8
Edge ID
100
AcDbText
10
2493.872125
20
244.108960
30
0.0
40
3.360000
72
1
11
2493.872125
21
244.108960
31
0.0
1
443
50
24.218997
 0
TEXT
100
AcDbText
 8
Edge ID
100
AcDbText
10
2473.585573
20
251.959286
30
0.0
40
3.360000
72
1
11
2473.585573
21
251.959286
31
0.0
1
294
50
246.308506
 0
TEXT
100
AcDbText
 8
Edge ID
100
AcDbText
10
2417.280353
20
538.446251
30
0.0
40
3.360000
72
1
11
2417.280353
21
538.446251
31
0.0
1
105
50
-87.181787
 0
TEXT
100
AcDbText
 8
Edge ID
100
AcDbText
10
2458.077236
20
530.581930
30
0.0
40
3.360000
72
1
11
2458.077236
21
530.581930
31
0.0
1
453
50
131.043092
 0
TEXT
100
AcDbText
 8
Edge ID
100
AcDbText
10
2542.122185
20
282.868089
30
0.0
40
3.360000
72
1
11
2542.122185
21
282.868089
31
0.0
1
445
50
53.727430
 0
TEXT
100
AcDbText
 8
Edge ID
100
AcDbText
10
2439.048241
20
190.913694
30
0.0
40
3.360000
72
1
11
2439.048241
21
190.913694
31
0.0
1
293
50
60.584953
 0
TEXT
100
AcDbText
 8
Edge ID
100
AcDbText
10
2415.972868
20
302.325341
30
0.0
40
3.360000
72
1
11
2415.972868
21
302.325341
31
0.0
1
107
50
-89.999071
 0
TEXT
100
AcDbText
 8
Edge ID
100
AcDbText
10
2472.493601
20
252.472860
30
0.0
40
3.360000
72
1
11
2472.493601
21
252.472860
31
0.0
1
294
50
63.314665
 0
TEXT
100
AcDbText
 8
Edge ID
100
AcDbText
10
2529.111427
20
452.152857
30
0.0
40
3.360000
72
1
11
2529.111427
21
452.152857
31
0.0
1
452
50
142.611376
  0
ENDSEC
  0
EOF
