  0
SECTION
  2
HEADER
  9
$ACADVER
  1
AC1009
  0
ENDSEC
  0
SECTION
  2
BLOCKS
  0
ENDSEC
  0
SECTION
  2
ENTITIES
  0
LINE
  8
CutLine
  6
CONTINUOUS
 62
8
 10
0.403054
 20
196.906104
 11
9.622177
 21
201.530876
  0
LINE
  8
CutLine
  6
CONTINUOUS
 62
8
 10
9.622177
 20
201.530876
 11
148.886740
 21
195.798712
  0
LINE
  8
CutLine
  6
CONTINUOUS
 62
8
 10
148.886740
 20
195.798712
 11
153.676883
 21
190.597315
  0
LINE
  8
CutLine
  6
CONTINUOUS
 62
8
 10
239.033515
 20
146.851539
 11
244.975880
 21
150.684071
  0
LINE
  8
CutLine
  6
CONTINUOUS
 62
8
 10
244.975880
 20
150.684071
 11
284.312754
 21
142.193521
  0
LINE
  8
CutLine
  6
CONTINUOUS
 62
8
 10
284.312754
 20
142.193521
 11
288.145286
 21
136.251156
  0
LINE
  8
CutLine
  6
CONTINUOUS
 62
8
 10
279.407122
 20
21.404438
 11
273.941541
 21
16.918079
  0
LINE
  8
CutLine
  6
CONTINUOUS
 62
8
 10
273.941541
 20
16.918079
 11
238.356908
 21
20.419430
  0
LINE
  8
CutLine
  6
CONTINUOUS
 62
8
 10
238.356908
 20
20.419430
 11
233.870548
 21
25.885012
  0
LINE
  8
CutLine
  6
CONTINUOUS
 62
8
 10
288.145286
 20
136.251156
 11
293.462466
 21
131.589869
  0
LINE
  8
CutLine
  6
CONTINUOUS
 62
8
 10
293.462466
 20
131.589869
 11
296.885939
 21
79.506612
  0
LINE
  8
CutLine
  6
CONTINUOUS
 62
8
 10
296.885939
 20
79.506612
 11
292.224652
 21
74.189432
  0
LINE
  8
CutLine
  6
CONTINUOUS
 62
8
 10
23.797694
 20
207.208905
 11
29.281806
 21
215.944194
  0
LINE
  8
CutLine
  6
CONTINUOUS
 62
8
 10
29.281806
 20
215.944194
 11
235.231508
 21
329.547006
  0
LINE
  8
CutLine
  6
CONTINUOUS
 62
8
 10
235.231508
 20
329.547006
 11
244.060411
 21
328.706843
  0
LINE
  8
CutLine
  6
CONTINUOUS
 62
8
 10
63.006948
 20
27.465803
 11
61.558746
 21
34.502816
  0
LINE
  8
CutLine
  6
CONTINUOUS
 62
8
 10
61.558746
 20
34.502816
 11
170.298241
 21
205.363946
  0
LINE
  8
CutLine
  6
CONTINUOUS
 62
8
 10
170.298241
 20
205.363946
 11
177.200987
 21
206.897597
  0
LINE
  8
CutLine
  6
CONTINUOUS
 62
8
 10
220.853630
 20
170.216912
 11
224.166856
 21
163.970110
  0
LINE
  8
CutLine
  6
CONTINUOUS
 62
8
 10
224.166856
 20
163.970110
 11
220.970873
 21
153.554942
  0
LINE
  8
CutLine
  6
CONTINUOUS
 62
8
 10
220.970873
 20
153.554942
 11
214.724071
 21
150.241717
  0
LINE
  8
CutLine
  6
CONTINUOUS
 62
8
 10
190.100974
 20
221.664249
 11
197.046645
 21
222.990015
  0
LINE
  8
CutLine
  6
CONTINUOUS
 62
8
 10
197.046645
 20
222.990015
 11
219.857655
 21
207.491413
  0
LINE
  8
CutLine
  6
CONTINUOUS
 62
8
 10
219.857655
 20
207.491413
 11
221.183421
 21
200.545742
  0
LINE
  8
CutLine
  6
CONTINUOUS
 62
8
 10
80.537656
 20
401.344985
 11
70.609598
 21
413.533988
  0
LINE
  8
CutLine
  6
CONTINUOUS
 62
8
 10
70.609598
 20
413.533988
 11
2.724028
 21
593.969516
  0
LINE
  8
CutLine
  6
CONTINUOUS
 62
8
 10
2.724028
 20
593.969516
 11
5.643107
 21
600.409934
  0
LINE
  8
CutLine
  6
CONTINUOUS
 62
8
 10
289.675865
 20
384.415456
 11
287.479379
 21
377.694188
  0
LINE
  8
CutLine
  6
CONTINUOUS
 62
8
 10
287.479379
 20
377.694188
 11
247.956859
 21
357.640842
  0
LINE
  8
CutLine
  6
CONTINUOUS
 62
8
 10
247.956859
 20
357.640842
 11
241.235590
 21
359.837327
  0
LINE
  8
CutLine
  6
CONTINUOUS
 62
8
 10
177.153198
 20
569.360931
 11
183.991116
 21
567.560135
  0
LINE
  8
CutLine
  6
CONTINUOUS
 62
8
 10
183.991116
 20
567.560135
 11
265.023770
 21
428.588341
  0
LINE
  8
CutLine
  6
CONTINUOUS
 62
8
 10
265.023770
 20
428.588341
 11
263.222974
 21
421.750422
  0
LINE
  8
CutLine
  6
CONTINUOUS
 62
8
 10
193.783551
 20
319.630328
 11
186.744825
 21
320.305853
  0
LINE
  8
CutLine
  6
CONTINUOUS
 62
8
 10
186.744825
 20
320.305853
 11
161.137551
 21
351.350123
  0
LINE
  8
CutLine
  6
CONTINUOUS
 62
8
 10
161.137551
 20
351.350123
 11
161.813076
 21
358.388849
  0
LINE
  8
CutLine
  6
CONTINUOUS
 62
8
 10
3.932107
 20
515.815675
 11
10.721041
 21
513.838207
  0
LINE
  8
CutLine
  6
CONTINUOUS
 62
8
 10
10.721041
 20
513.838207
 11
79.719199
 21
388.124845
  0
LINE
  8
CutLine
  6
CONTINUOUS
 62
8
 10
79.719199
 20
388.124845
 11
77.741731
 21
381.335912
  0
LINE
  8
CutLine
  6
CONTINUOUS
 62
8
 10
145.542814
 20
376.766035
 11
144.697001
 21
369.745736
  0
LINE
  8
CutLine
  6
CONTINUOUS
 62
8
 10
144.697001
 20
369.745736
 11
136.127268
 21
363.018946
  0
LINE
  8
CutLine
  6
CONTINUOUS
 62
8
 10
136.127268
 20
363.018946
 11
129.106969
 21
363.864759
  0
LINE
  8
CutLine
  6
CONTINUOUS
 62
8
 10
104.540640
 20
346.058212
 11
102.697262
 21
338.157388
  0
LINE
  8
CutLine
  6
CONTINUOUS
 62
8
 10
102.697262
 20
338.157388
 11
10.970691
 21
264.351888
  0
LINE
  8
CutLine
  6
CONTINUOUS
 62
8
 10
10.970691
 20
264.351888
 11
2.890315
 21
264.267811
  0
LINE
  8
MountainLine
  6
CONTINUOUS
 62
5
 10
153.676883
 20
190.597315
 11
0.403054
 21
196.906104
  0
LINE
  8
CutLine
  6
CONTINUOUS
 62
8
 10
0.403054
 20
196.906104
 11
43.392793
 21
8.736195
  0
LINE
  8
CutLine
  6
CONTINUOUS
 62
8
 10
43.392793
 20
8.736195
 11
153.676883
 21
190.597315
  0
LINE
  8
ValleyLine
  6
CONTINUOUS
 62
1
 10
288.145286
 20
136.251156
 11
239.033515
 21
146.851539
  0
LINE
  8
CutLine
  6
CONTINUOUS
 62
8
 10
239.033515
 20
146.851539
 11
214.724071
 21
150.241717
  0
LINE
  8
MountainLine
  6
CONTINUOUS
 62
5
 10
214.724071
 20
150.241717
 11
63.006948
 21
27.465803
  0
LINE
  8
CutLine
  6
CONTINUOUS
 62
8
 10
63.006948
 20
27.465803
 11
233.870548
 21
25.885012
  0
LINE
  8
ValleyLine
  6
CONTINUOUS
 62
1
 10
233.870548
 20
25.885012
 11
279.407122
 21
21.404438
  0
LINE
  8
CutLine
  6
CONTINUOUS
 62
8
 10
279.407122
 20
21.404438
 11
292.224652
 21
74.189432
  0
LINE
  8
MountainLine
  6
CONTINUOUS
 62
5
 10
292.224652
 20
74.189432
 11
288.145286
 21
136.251156
  0
LINE
  8
ValleyLine
  6
CONTINUOUS
 62
1
 10
177.200987
 20
206.897597
 11
190.100974
 21
221.664249
  0
LINE
  8
CutLine
  6
CONTINUOUS
 62
8
 10
190.100974
 20
221.664249
 11
244.060411
 21
328.706843
  0
LINE
  8
ValleyLine
  6
CONTINUOUS
 62
1
 10
244.060411
 20
328.706843
 11
23.797694
 21
207.208905
  0
LINE
  8
CutLine
  6
CONTINUOUS
 62
8
 10
23.797694
 20
207.208905
 11
177.200987
 21
206.897597
  0
LINE
  8
MountainLine
  6
CONTINUOUS
 62
5
 10
214.724071
 20
150.241717
 11
177.200987
 21
206.897597
  0
LINE
  8
ValleyLine
  6
CONTINUOUS
 62
1
 10
177.200987
 20
206.897597
 11
63.006948
 21
27.465803
  0
LINE
  8
ValleyLine
  6
CONTINUOUS
 62
1
 10
214.724071
 20
150.241717
 11
220.853630
 21
170.216912
  0
LINE
  8
CutLine
  6
CONTINUOUS
 62
8
 10
220.853630
 20
170.216912
 11
221.183421
 21
200.545742
  0
LINE
  8
MountainLine
  6
CONTINUOUS
 62
5
 10
221.183421
 20
200.545742
 11
190.100974
 21
221.664249
  0
LINE
  8
CutLine
  6
CONTINUOUS
 62
8
 10
157.455911
 20
578.374967
 11
5.643107
 21
600.409934
  0
LINE
  8
ValleyLine
  6
CONTINUOUS
 62
1
 10
5.643107
 20
600.409934
 11
80.537656
 21
401.344985
  0
LINE
  8
CutLine
  6
CONTINUOUS
 62
8
 10
80.537656
 20
401.344985
 11
157.455911
 21
578.374967
  0
LINE
  8
MountainLine
  6
CONTINUOUS
 62
5
 10
241.235590
 20
359.837327
 11
289.675865
 21
384.415456
  0
LINE
  8
CutLine
  6
CONTINUOUS
 62
8
 10
289.675865
 20
384.415456
 11
263.222974
 21
421.750422
  0
LINE
  8
ValleyLine
  6
CONTINUOUS
 62
1
 10
263.222974
 20
421.750422
 11
177.153198
 21
569.360931
  0
LINE
  8
MountainLine
  6
CONTINUOUS
 62
5
 10
177.153198
 20
569.360931
 11
145.542814
 21
376.766035
  0
LINE
  8
CutLine
  6
CONTINUOUS
 62
8
 10
145.542814
 20
376.766035
 11
161.813076
 21
358.388849
  0
LINE
  8
ValleyLine
  6
CONTINUOUS
 62
1
 10
161.813076
 20
358.388849
 11
193.783551
 21
319.630328
  0
LINE
  8
CutLine
  6
CONTINUOUS
 62
8
 10
193.783551
 20
319.630328
 11
241.235590
 21
359.837327
  0
LINE
  8
MountainLine
  6
CONTINUOUS
 62
5
 10
77.741731
 20
381.335912
 11
3.932107
 21
515.815675
  0
LINE
  8
CutLine
  6
CONTINUOUS
 62
8
 10
3.932107
 20
515.815675
 11
2.890315
 21
264.267811
  0
LINE
  8
ValleyLine
  6
CONTINUOUS
 62
1
 10
2.890315
 20
264.267811
 11
70.966123
 21
362.936054
  0
LINE
  8
ValleyLine
  6
CONTINUOUS
 62
1
 10
70.966123
 20
362.936054
 11
77.741731
 21
381.335912
  0
LINE
  8
CutLine
  6
CONTINUOUS
 62
8
 10
177.153198
 20
569.360931
 11
77.741731
 21
381.335912
  0
LINE
  8
MountainLine
  6
CONTINUOUS
 62
5
 10
77.741731
 20
381.335912
 11
145.542814
 21
376.766035
  0
LINE
  8
MountainLine
  6
CONTINUOUS
 62
5
 10
70.966123
 20
362.936054
 11
104.540640
 21
346.058212
  0
LINE
  8
CutLine
  6
CONTINUOUS
 62
8
 10
104.540640
 20
346.058212
 11
129.106969
 21
363.864759
  0
LINE
  8
ValleyLine
  6
CONTINUOUS
 62
1
 10
129.106969
 20
363.864759
 11
145.542814
 21
376.766035
  0
LINE
  8
ValleyLine
  6
CONTINUOUS
 62
1
 10
2.890315
 20
264.267811
 11
104.540640
 21
346.058212
 0
TEXT
100
AcDbText
 8
Edge ID
100
AcDbText
10
77.039968
20
193.751709
30
0.0
40
3.360000
72
1
11
77.039968
21
193.751709
31
0.0
1
113
50
177.643022
 0
TEXT
100
AcDbText
 8
Edge ID
100
AcDbText
10
21.897924
20
102.821149
30
0.0
40
3.360000
72
1
11
21.897924
21
102.821149
31
0.0
1
173
50
-77.130938
 0
TEXT
100
AcDbText
 8
Edge ID
100
AcDbText
10
98.534838
20
99.666755
30
0.0
40
3.360000
72
1
11
98.534838
21
99.666755
31
0.0
1
266
50
58.766570
 0
TEXT
100
AcDbText
 8
Edge ID
100
AcDbText
10
217.788851
20
160.229314
30
0.0
40
3.360000
72
1
11
217.788851
21
160.229314
31
0.0
1
267
50
72.940920
 0
TEXT
100
AcDbText
 8
Edge ID
100
AcDbText
10
221.018526
20
185.381327
30
0.0
40
3.360000
72
1
11
221.018526
21
185.381327
31
0.0
1
106
50
89.377000
 0
TEXT
100
AcDbText
 8
Edge ID
100
AcDbText
10
205.642197
20
211.104995
30
0.0
40
3.360000
72
1
11
205.642197
21
211.104995
31
0.0
1
268
50
145.806434
 0
TEXT
100
AcDbText
 8
Edge ID
100
AcDbText
10
120.103968
20
117.181700
30
0.0
40
3.360000
72
1
11
120.103968
21
117.181700
31
0.0
1
266
50
237.526496
 0
TEXT
100
AcDbText
 8
Edge ID
100
AcDbText
10
217.080692
20
275.185546
30
0.0
40
3.360000
72
1
11
217.080692
21
275.185546
31
0.0
1
112
50
63.247641
 0
TEXT
100
AcDbText
 8
Edge ID
100
AcDbText
10
133.929052
20
267.957874
30
0.0
40
3.360000
72
1
11
133.929052
21
267.957874
31
0.0
1
265
50
208.881333
 0
TEXT
100
AcDbText
 8
Edge ID
100
AcDbText
10
100.499341
20
207.053251
30
0.0
40
3.360000
72
1
11
100.499341
21
207.053251
31
0.0
1
113
50
-0.116273
 0
TEXT
100
AcDbText
 8
Edge ID
100
AcDbText
10
263.589400
20
141.551348
30
0.0
40
3.360000
72
1
11
263.589400
21
141.551348
31
0.0
1
262
50
167.820017
 0
TEXT
100
AcDbText
 8
Edge ID
100
AcDbText
10
226.878793
20
148.546628
30
0.0
40
3.360000
72
1
11
226.878793
21
148.546628
31
0.0
1
111
50
172.060777
 0
TEXT
100
AcDbText
 8
Edge ID
100
AcDbText
10
148.438748
20
26.675407
30
0.0
40
3.360000
72
1
11
148.438748
21
26.675407
31
0.0
1
231
50
-0.530072
 0
TEXT
100
AcDbText
 8
Edge ID
100
AcDbText
10
256.638835
20
23.644725
30
0.0
40
3.360000
72
1
11
256.638835
21
23.644725
31
0.0
1
263
50
-5.619532
 0
TEXT
100
AcDbText
 8
Edge ID
100
AcDbText
10
285.815887
20
47.796935
30
0.0
40
3.360000
72
1
11
285.815887
21
47.796935
31
0.0
1
243
50
76.351306
 0
TEXT
100
AcDbText
 8
Edge ID
100
AcDbText
10
290.184969
20
105.220294
30
0.0
40
3.360000
72
1
11
290.184969
21
105.220294
31
0.0
1
264
50
93.760687
 0
TEXT
100
AcDbText
 8
Edge ID
100
AcDbText
10
81.549509
20
589.392450
30
0.0
40
3.360000
72
1
11
81.549509
21
589.392450
31
0.0
1
451
50
171.741440
 0
TEXT
100
AcDbText
 8
Edge ID
100
AcDbText
10
43.090381
20
500.877459
30
0.0
40
3.360000
72
1
11
43.090381
21
500.877459
31
0.0
1
322
50
-69.382108
 0
TEXT
100
AcDbText
 8
Edge ID
100
AcDbText
10
118.996783
20
489.859976
30
0.0
40
3.360000
72
1
11
118.996783
21
489.859976
31
0.0
1
379
50
66.515400
 0
TEXT
100
AcDbText
 8
Edge ID
100
AcDbText
10
116.823805
20
354.961486
30
0.0
40
3.360000
72
1
11
116.823805
21
354.961486
31
0.0
1
291
50
35.935932
 0
TEXT
100
AcDbText
 8
Edge ID
100
AcDbText
10
137.324892
20
370.315397
30
0.0
40
3.360000
72
1
11
137.324892
21
370.315397
31
0.0
1
452
50
38.130053
 0
TEXT
100
AcDbText
 8
Edge ID
100
AcDbText
10
53.715477
20
305.163012
30
0.0
40
3.360000
72
1
11
53.715477
21
305.163012
31
0.0
1
453
50
38.821028
 0
TEXT
100
AcDbText
 8
Edge ID
100
AcDbText
10
127.447465
20
475.348421
30
0.0
40
3.360000
72
1
11
127.447465
21
475.348421
31
0.0
1
322
50
242.133963
 0
TEXT
100
AcDbText
 8
Edge ID
100
AcDbText
10
40.836919
20
448.575793
30
0.0
40
3.360000
72
1
11
40.836919
21
448.575793
31
0.0
1
451
50
118.760315
 0
TEXT
100
AcDbText
 8
Edge ID
100
AcDbText
10
3.411211
20
390.041743
30
0.0
40
3.360000
72
1
11
3.411211
21
390.041743
31
0.0
1
265
50
269.762709
 0
TEXT
100
AcDbText
 8
Edge ID
100
AcDbText
10
265.455728
20
372.126392
30
0.0
40
3.360000
72
1
11
265.455728
21
372.126392
31
0.0
1
448
50
26.902798
 0
TEXT
100
AcDbText
 8
Edge ID
100
AcDbText
10
276.449420
20
403.082939
30
0.0
40
3.360000
72
1
11
276.449420
21
403.082939
31
0.0
1
419
50
125.318662
 0
TEXT
100
AcDbText
 8
Edge ID
100
AcDbText
10
220.188086
20
495.555676
30
0.0
40
3.360000
72
1
11
220.188086
21
495.555676
31
0.0
1
449
50
120.245908
 0
TEXT
100
AcDbText
 8
Edge ID
100
AcDbText
10
153.677945
20
367.577442
30
0.0
40
3.360000
72
1
11
153.677945
21
367.577442
31
0.0
1
296
50
-48.479892
 0
TEXT
100
AcDbText
 8
Edge ID
100
AcDbText
10
177.798314
20
339.009589
30
0.0
40
3.360000
72
1
11
177.798314
21
339.009589
31
0.0
1
450
50
-50.482035
 0
TEXT
100
AcDbText
 8
Edge ID
100
AcDbText
10
217.509571
20
339.733828
30
0.0
40
3.360000
72
1
11
217.509571
21
339.733828
31
0.0
1
430
50
40.275229
  0
ENDSEC
  0
EOF
