  0
SECTION
  2
HEADER
  9
$ACADVER
  1
AC1009
  0
ENDSEC
  0
SECTION
  2
BLOCKS
  0
ENDSEC
  0
SECTION
  2
ENTITIES
  0
LINE
  8
CutLine
  6
CONTINUOUS
 62
8
 10
759.378207
 20
361.612725
 11
760.899282
 21
368.518254
  0
LINE
  8
CutLine
  6
CONTINUOUS
 62
8
 10
760.899282
 20
368.518254
 11
802.076485
 21
394.829776
  0
LINE
  8
CutLine
  6
CONTINUOUS
 62
8
 10
802.076485
 20
394.829776
 11
810.270499
 21
394.132021
  0
LINE
  8
CutLine
  6
CONTINUOUS
 62
8
 10
866.048883
 20
333.006629
 11
859.187599
 21
330.353373
  0
LINE
  8
CutLine
  6
CONTINUOUS
 62
8
 10
859.187599
 20
330.353373
 11
815.182702
 21
347.844605
  0
LINE
  8
CutLine
  6
CONTINUOUS
 62
8
 10
815.182702
 20
347.844605
 11
812.383168
 21
354.337880
  0
LINE
  8
CutLine
  6
CONTINUOUS
 62
8
 10
836.160175
 20
420.226841
 11
831.689874
 21
424.858463
  0
LINE
  8
CutLine
  6
CONTINUOUS
 62
8
 10
831.689874
 20
424.858463
 11
837.145464
 21
428.274901
  0
LINE
  8
CutLine
  6
CONTINUOUS
 62
8
 10
881.924385
 20
401.995516
 11
884.058903
 21
395.254311
  0
LINE
  8
CutLine
  6
CONTINUOUS
 62
8
 10
884.058903
 20
395.254311
 11
875.985536
 21
379.699321
  0
LINE
  8
CutLine
  6
CONTINUOUS
 62
8
 10
875.985536
 20
379.699321
 11
869.244332
 21
377.564803
  0
LINE
  8
CutLine
  6
CONTINUOUS
 62
8
 10
894.822227
 20
503.980465
 11
898.993664
 21
498.270902
  0
LINE
  8
CutLine
  6
CONTINUOUS
 62
8
 10
898.993664
 20
498.270902
 11
893.551581
 21
463.310657
  0
LINE
  8
CutLine
  6
CONTINUOUS
 62
8
 10
893.551581
 20
463.310657
 11
887.842018
 21
459.139219
  0
LINE
  8
CutLine
  6
CONTINUOUS
 62
8
 10
850.325737
 20
454.780670
 11
840.968424
 21
475.162186
  0
LINE
  8
CutLine
  6
CONTINUOUS
 62
8
 10
840.968424
 20
475.162186
 11
841.400567
 21
497.584915
  0
LINE
  8
CutLine
  6
CONTINUOUS
 62
8
 10
864.094342
 20
546.737638
 11
871.072531
 21
545.595329
  0
LINE
  8
CutLine
  6
CONTINUOUS
 62
8
 10
871.072531
 20
545.595329
 11
895.964536
 21
510.958655
  0
LINE
  8
CutLine
  6
CONTINUOUS
 62
8
 10
895.964536
 20
510.958655
 11
894.822227
 21
503.980465
  0
LINE
  8
CutLine
  6
CONTINUOUS
 62
8
 10
798.551123
 20
491.548925
 11
793.871410
 21
486.247955
  0
LINE
  8
CutLine
  6
CONTINUOUS
 62
8
 10
793.871410
 20
486.247955
 11
752.243669
 21
483.656798
  0
LINE
  8
CutLine
  6
CONTINUOUS
 62
8
 10
752.243669
 20
483.656798
 11
744.016394
 21
488.154361
  0
LINE
  8
CutLine
  6
CONTINUOUS
 62
8
 10
744.016394
 20
488.154361
 11
739.016394
 21
493.154361
  0
LINE
  8
CutLine
  6
CONTINUOUS
 62
8
 10
739.016394
 20
493.154361
 11
739.016394
 21
592.578501
  0
LINE
  8
CutLine
  6
CONTINUOUS
 62
8
 10
739.016394
 20
592.578501
 11
744.016394
 21
599.753436
  0
LINE
  8
CutLine
  6
CONTINUOUS
 62
8
 10
744.016394
 20
599.753436
 11
751.085732
 21
599.909846
  0
LINE
  8
CutLine
  6
CONTINUOUS
 62
8
 10
751.085732
 20
599.909846
 11
811.320820
 21
542.282478
  0
LINE
  8
CutLine
  6
CONTINUOUS
 62
8
 10
811.320820
 20
542.282478
 11
811.477230
 21
535.213140
  0
LINE
  8
CutLine
  6
CONTINUOUS
 62
8
 10
622.450537
 20
122.774559
 11
617.374793
 21
127.697650
  0
LINE
  8
CutLine
  6
CONTINUOUS
 62
8
 10
617.374793
 20
127.697650
 11
617.150545
 21
142.386007
  0
LINE
  8
CutLine
  6
CONTINUOUS
 62
8
 10
617.150545
 20
142.386007
 11
622.073635
 21
147.461751
  0
LINE
  8
CutLine
  6
CONTINUOUS
 62
8
 10
738.434211
 20
312.825172
 11
745.699160
 21
316.678645
  0
LINE
  8
CutLine
  6
CONTINUOUS
 62
8
 10
745.699160
 20
316.678645
 11
793.894327
 21
308.611172
  0
LINE
  8
CutLine
  6
CONTINUOUS
 62
8
 10
793.894327
 20
308.611172
 11
798.000241
 21
302.854309
  0
LINE
  8
CutLine
  6
CONTINUOUS
 62
8
 10
677.813221
 20
352.922257
 11
692.316679
 21
347.115489
  0
LINE
  8
CutLine
  6
CONTINUOUS
 62
8
 10
692.316679
 20
347.115489
 11
700.327578
 21
333.703020
  0
LINE
  8
CutLine
  6
CONTINUOUS
 62
8
 10
690.672097
 20
274.469389
 11
683.633647
 21
273.790994
  0
LINE
  8
CutLine
  6
CONTINUOUS
 62
8
 10
683.633647
 20
273.790994
 11
670.109627
 21
284.937197
  0
LINE
  8
CutLine
  6
CONTINUOUS
 62
8
 10
670.109627
 20
284.937197
 11
669.431232
 21
291.975648
  0
LINE
  8
CutLine
  6
CONTINUOUS
 62
8
 10
700.327578
 20
333.703020
 11
706.685708
 21
332.698178
  0
LINE
  8
CutLine
  6
CONTINUOUS
 62
8
 10
706.685708
 20
332.698178
 11
704.388376
 21
326.685044
  0
LINE
  8
CutLine
  6
CONTINUOUS
 62
8
 10
669.247698
 20
395.799919
 11
678.433583
 21
375.340568
  0
LINE
  8
CutLine
  6
CONTINUOUS
 62
8
 10
678.433583
 20
375.340568
 11
677.813221
 21
352.922257
  0
LINE
  8
CutLine
  6
CONTINUOUS
 62
8
 10
629.104798
 20
432.125465
 11
623.375024
 21
436.269098
  0
LINE
  8
CutLine
  6
CONTINUOUS
 62
8
 10
623.375024
 20
436.269098
 11
616.499613
 21
479.067129
  0
LINE
  8
CutLine
  6
CONTINUOUS
 62
8
 10
616.499613
 20
479.067129
 11
620.643246
 21
484.796903
  0
LINE
  8
CutLine
  6
CONTINUOUS
 62
8
 10
620.643246
 20
484.796903
 11
627.727243
 21
485.963317
  0
LINE
  8
CutLine
  6
CONTINUOUS
 62
8
 10
627.727243
 20
485.963317
 11
680.775821
 21
449.104799
  0
LINE
  8
CutLine
  6
CONTINUOUS
 62
8
 10
680.775821
 20
449.104799
 11
682.028991
 21
442.145663
  0
LINE
  8
CutLine
  6
CONTINUOUS
 62
8
 10
762.536517
 20
425.292437
 11
756.730258
 21
417.930136
  0
LINE
  8
CutLine
  6
CONTINUOUS
 62
8
 10
756.730258
 20
417.930136
 11
717.417511
 21
403.998489
  0
LINE
  8
CutLine
  6
CONTINUOUS
 62
8
 10
717.417511
 20
403.998489
 11
711.034562
 21
407.041180
  0
LINE
  8
CutLine
  6
CONTINUOUS
 62
8
 10
802.930942
 20
589.160091
 11
809.046081
 21
592.710453
  0
LINE
  8
CutLine
  6
CONTINUOUS
 62
8
 10
809.046081
 20
592.710453
 11
823.244770
 21
588.942778
  0
LINE
  8
CutLine
  6
CONTINUOUS
 62
8
 10
823.244770
 20
588.942778
 11
826.795132
 21
582.827639
  0
LINE
  8
CutLine
  6
CONTINUOUS
 62
8
 10
886.379132
 20
285.233706
 11
891.442412
 21
280.297797
  0
LINE
  8
CutLine
  6
CONTINUOUS
 62
8
 10
891.442412
 20
280.297797
 11
892.017239
 21
235.171232
  0
LINE
  8
CutLine
  6
CONTINUOUS
 62
8
 10
892.017239
 20
235.171232
 11
887.081330
 21
230.107952
  0
LINE
  8
CutLine
  6
CONTINUOUS
 62
8
 10
887.081330
 20
230.107952
 11
891.819977
 21
224.859597
  0
LINE
  8
CutLine
  6
CONTINUOUS
 62
8
 10
891.819977
 20
224.859597
 11
889.804233
 21
185.363949
  0
LINE
  8
CutLine
  6
CONTINUOUS
 62
8
 10
889.804233
 20
185.363949
 11
884.555879
 21
180.625302
  0
LINE
  8
CutLine
  6
CONTINUOUS
 62
8
 10
827.544872
 20
173.920520
 11
824.223268
 21
180.884708
  0
LINE
  8
CutLine
  6
CONTINUOUS
 62
8
 10
824.223268
 20
180.884708
 11
835.179171
 21
222.078055
  0
LINE
  8
CutLine
  6
CONTINUOUS
 62
8
 10
835.179171
 20
222.078055
 11
841.296330
 21
225.624936
  0
LINE
  8
CutLine
  6
CONTINUOUS
 62
8
 10
781.423665
 20
90.639202
 11
790.174633
 21
90.748144
  0
LINE
  8
CutLine
  6
CONTINUOUS
 62
8
 10
790.174633
 20
90.748144
 11
836.414930
 21
59.406784
  0
LINE
  8
CutLine
  6
CONTINUOUS
 62
8
 10
836.414930
 20
59.406784
 11
837.748504
 21
52.462608
  0
LINE
  8
CutLine
  6
CONTINUOUS
 62
8
 10
883.268338
 20
65.108477
 11
885.392277
 21
58.363932
  0
LINE
  8
CutLine
  6
CONTINUOUS
 62
8
 10
885.392277
 20
58.363932
 11
865.363438
 21
19.921919
  0
LINE
  8
CutLine
  6
CONTINUOUS
 62
8
 10
865.363438
 20
19.921919
 11
858.618893
 21
17.797980
  0
LINE
  8
CutLine
  6
CONTINUOUS
 62
8
 10
805.273283
 20
18.150316
 11
798.701199
 21
15.541157
  0
LINE
  8
CutLine
  6
CONTINUOUS
 62
8
 10
798.701199
 20
15.541157
 11
761.818854
 21
31.460791
  0
LINE
  8
CutLine
  6
CONTINUOUS
 62
8
 10
761.818854
 20
31.460791
 11
756.930935
 21
39.016464
  0
LINE
  8
CutLine
  6
CONTINUOUS
 62
8
 10
830.363735
 20
120.104348
 11
825.609099
 21
114.870474
  0
LINE
  8
CutLine
  6
CONTINUOUS
 62
8
 10
825.609099
 20
114.870474
 11
801.126044
 21
113.695804
  0
LINE
  8
CutLine
  6
CONTINUOUS
 62
8
 10
801.126044
 20
113.695804
 11
795.892170
 21
118.450440
  0
LINE
  8
CutLine
  6
CONTINUOUS
 62
8
 10
795.892170
 20
118.450440
 11
793.302680
 21
125.030299
  0
LINE
  8
CutLine
  6
CONTINUOUS
 62
8
 10
793.302680
 20
125.030299
 11
807.260417
 21
157.103377
  0
LINE
  8
CutLine
  6
CONTINUOUS
 62
8
 10
807.260417
 20
157.103377
 11
813.840276
 21
159.692868
  0
LINE
  8
CutLine
  6
CONTINUOUS
 62
8
 10
744.958399
 20
69.227397
 11
749.391258
 21
63.718335
  0
LINE
  8
CutLine
  6
CONTINUOUS
 62
8
 10
749.391258
 20
63.718335
 11
746.511462
 21
37.114873
  0
LINE
  8
CutLine
  6
CONTINUOUS
 62
8
 10
746.511462
 20
37.114873
 11
741.002400
 21
32.682014
  0
LINE
  8
CutLine
  6
CONTINUOUS
 62
8
 10
681.116308
 20
7.208212
 11
680.235451
 21
15.347159
  0
LINE
  8
CutLine
  6
CONTINUOUS
 62
8
 10
680.235451
 20
15.347159
 11
695.021527
 21
39.506309
  0
LINE
  8
CutLine
  6
CONTINUOUS
 62
8
 10
695.021527
 20
39.506309
 11
701.896291
 21
41.160881
  0
LINE
  8
CutLine
  6
CONTINUOUS
 62
8
 10
708.942108
 20
67.195386
 11
715.981547
 21
66.527334
  0
LINE
  8
CutLine
  6
CONTINUOUS
 62
8
 10
715.981547
 20
66.527334
 11
721.275177
 21
60.123611
  0
LINE
  8
CutLine
  6
CONTINUOUS
 62
8
 10
721.275177
 20
60.123611
 11
720.607126
 21
53.084172
  0
LINE
  8
CutLine
  6
CONTINUOUS
 62
8
 10
624.700486
 20
8.530628
 11
619.700486
 21
14.563889
  0
LINE
  8
CutLine
  6
CONTINUOUS
 62
8
 10
619.700486
 20
14.563889
 11
619.700486
 21
94.510280
  0
LINE
  8
CutLine
  6
CONTINUOUS
 62
8
 10
619.700486
 20
94.510280
 11
624.700486
 21
99.510280
  0
LINE
  8
CutLine
  6
CONTINUOUS
 62
8
 10
677.283093
 20
39.214103
 11
680.184208
 21
32.765574
  0
LINE
  8
CutLine
  6
CONTINUOUS
 62
8
 10
680.184208
 20
32.765574
 11
671.550447
 21
10.010232
  0
LINE
  8
CutLine
  6
CONTINUOUS
 62
8
 10
671.550447
 20
10.010232
 11
664.576136
 21
5.723352
  0
LINE
  8
CutLine
  6
CONTINUOUS
 62
8
 10
677.814430
 20
112.334815
 11
680.838940
 21
118.726399
  0
LINE
  8
CutLine
  6
CONTINUOUS
 62
8
 10
680.838940
 20
118.726399
 11
712.168623
 21
129.929489
  0
LINE
  8
CutLine
  6
CONTINUOUS
 62
8
 10
712.168623
 20
129.929489
 11
718.560207
 21
126.904979
  0
LINE
  8
CutLine
  6
CONTINUOUS
 62
8
 10
710.084860
 20
339.097814
 11
705.084860
 21
344.097814
  0
LINE
  8
CutLine
  6
CONTINUOUS
 62
8
 10
705.084860
 20
344.097814
 11
705.084860
 21
363.699763
  0
LINE
  8
CutLine
  6
CONTINUOUS
 62
8
 10
705.084860
 20
363.699763
 11
710.084860
 21
368.699763
  0
LINE
  8
CutLine
  6
CONTINUOUS
 62
8
 10
710.084860
 20
368.699763
 11
711.490112
 21
375.629790
  0
LINE
  8
CutLine
  6
CONTINUOUS
 62
8
 10
711.490112
 20
375.629790
 11
721.684693
 21
382.386945
  0
LINE
  8
CutLine
  6
CONTINUOUS
 62
8
 10
721.684693
 20
382.386945
 11
728.614719
 21
380.981694
  0
LINE
  8
CutLine
  6
CONTINUOUS
 62
8
 10
828.405188
 20
231.986095
 11
830.529282
 21
225.241599
  0
LINE
  8
CutLine
  6
CONTINUOUS
 62
8
 10
830.529282
 20
225.241599
 11
808.557748
 21
183.068542
  0
LINE
  8
CutLine
  6
CONTINUOUS
 62
8
 10
808.557748
 20
183.068542
 11
801.722487
 21
180.770232
  0
LINE
  8
CutLine
  6
CONTINUOUS
 62
8
 10
740.858062
 20
166.918249
 11
739.074037
 21
173.760562
  0
LINE
  8
CutLine
  6
CONTINUOUS
 62
8
 10
739.074037
 20
173.760562
 11
759.078075
 21
207.875191
  0
LINE
  8
CutLine
  6
CONTINUOUS
 62
8
 10
759.078075
 20
207.875191
 11
765.920388
 21
209.659216
  0
LINE
  8
CutLine
  6
CONTINUOUS
 62
8
 10
796.779015
 20
255.343864
 11
797.167784
 21
263.981840
  0
LINE
  8
CutLine
  6
CONTINUOUS
 62
8
 10
797.167784
 20
263.981840
 11
825.975937
 21
300.981152
  0
LINE
  8
CutLine
  6
CONTINUOUS
 62
8
 10
825.975937
 20
300.981152
 11
832.992857
 21
301.854560
  0
LINE
  8
CutLine
  6
CONTINUOUS
 62
8
 10
801.722487
 20
180.770232
 11
804.887044
 21
174.446817
  0
LINE
  8
CutLine
  6
CONTINUOUS
 62
8
 10
804.887044
 20
174.446817
 11
791.422292
 21
134.003968
  0
LINE
  8
CutLine
  6
CONTINUOUS
 62
8
 10
791.422292
 20
134.003968
 11
784.822011
 21
130.007813
  0
LINE
  8
CutLine
  6
CONTINUOUS
 62
8
 10
664.006025
 20
467.650897
 11
657.315861
 21
469.940376
  0
LINE
  8
CutLine
  6
CONTINUOUS
 62
8
 10
657.315861
 20
469.940376
 11
641.922892
 21
501.349886
  0
LINE
  8
CutLine
  6
CONTINUOUS
 62
8
 10
641.922892
 20
501.349886
 11
644.212371
 21
508.040050
  0
LINE
  8
CutLine
  6
CONTINUOUS
 62
8
 10
678.723460
 20
507.945720
 11
683.382819
 21
502.626851
  0
LINE
  8
CutLine
  6
CONTINUOUS
 62
8
 10
683.382819
 20
502.626851
 11
680.855398
 21
464.387528
  0
LINE
  8
CutLine
  6
CONTINUOUS
 62
8
 10
680.855398
 20
464.387528
 11
675.532052
 21
459.660435
  0
LINE
  8
CutLine
  6
CONTINUOUS
 62
8
 10
672.965956
 20
600.399058
 11
680.008546
 21
601.033034
  0
LINE
  8
CutLine
  6
CONTINUOUS
 62
8
 10
680.008546
 20
601.033034
 11
713.418077
 21
573.141816
  0
LINE
  8
CutLine
  6
CONTINUOUS
 62
8
 10
713.418077
 20
573.141816
 11
714.052054
 21
566.099226
  0
LINE
  8
CutLine
  6
CONTINUOUS
 62
8
 10
615.746449
 20
527.551981
 11
611.128432
 21
534.308368
  0
LINE
  8
CutLine
  6
CONTINUOUS
 62
8
 10
611.128432
 20
534.308368
 11
614.390766
 21
590.779075
  0
LINE
  8
CutLine
  6
CONTINUOUS
 62
8
 10
614.390766
 20
590.779075
 11
619.670814
 21
595.482381
  0
LINE
  8
CutLine
  6
CONTINUOUS
 62
8
 10
727.347008
 20
224.454924
 11
732.856069
 21
220.022065
  0
LINE
  8
CutLine
  6
CONTINUOUS
 62
8
 10
732.856069
 20
220.022065
 11
735.735866
 21
193.418603
  0
LINE
  8
CutLine
  6
CONTINUOUS
 62
8
 10
735.735866
 20
193.418603
 11
731.303007
 21
187.909541
  0
LINE
  8
CutLine
  6
CONTINUOUS
 62
8
 10
688.240899
 20
215.976057
 11
681.366134
 21
217.630629
  0
LINE
  8
CutLine
  6
CONTINUOUS
 62
8
 10
681.366134
 20
217.630629
 11
666.580058
 21
241.789779
  0
LINE
  8
CutLine
  6
CONTINUOUS
 62
8
 10
666.580058
 20
241.789779
 11
667.460916
 21
249.928726
  0
LINE
  8
CutLine
  6
CONTINUOUS
 62
8
 10
706.951733
 20
204.052766
 11
707.619785
 21
197.013327
  0
LINE
  8
CutLine
  6
CONTINUOUS
 62
8
 10
707.619785
 20
197.013327
 11
702.326155
 21
190.609604
  0
LINE
  8
CutLine
  6
CONTINUOUS
 62
8
 10
702.326155
 20
190.609604
 11
695.286715
 21
189.941553
  0
LINE
  8
CutLine
  6
CONTINUOUS
 62
8
 10
611.045094
 20
157.626658
 11
606.045094
 21
162.626658
  0
LINE
  8
CutLine
  6
CONTINUOUS
 62
8
 10
606.045094
 20
162.626658
 11
606.045094
 21
242.573049
  0
LINE
  8
CutLine
  6
CONTINUOUS
 62
8
 10
606.045094
 20
242.573049
 11
611.045094
 21
248.606310
  0
LINE
  8
CutLine
  6
CONTINUOUS
 62
8
 10
650.920743
 20
251.413586
 11
657.895055
 21
247.126706
  0
LINE
  8
CutLine
  6
CONTINUOUS
 62
8
 10
657.895055
 20
247.126706
 11
666.528816
 21
224.371364
  0
LINE
  8
CutLine
  6
CONTINUOUS
 62
8
 10
666.528816
 20
224.371364
 11
663.627700
 21
217.922835
  0
LINE
  8
CutLine
  6
CONTINUOUS
 62
8
 10
704.904814
 20
130.231959
 11
698.513231
 21
127.207449
  0
LINE
  8
CutLine
  6
CONTINUOUS
 62
8
 10
698.513231
 20
127.207449
 11
667.183548
 21
138.410539
  0
LINE
  8
CutLine
  6
CONTINUOUS
 62
8
 10
667.183548
 20
138.410539
 11
664.159038
 21
144.802123
  0
LINE
  8
CutLine
  6
CONTINUOUS
 62
8
 10
823.326141
 20
439.950959
 11
816.396114
 21
438.545708
  0
LINE
  8
CutLine
  6
CONTINUOUS
 62
8
 10
816.396114
 20
438.545708
 11
806.201533
 21
445.302864
  0
LINE
  8
CutLine
  6
CONTINUOUS
 62
8
 10
806.201533
 20
445.302864
 11
804.796282
 21
452.232890
  0
LINE
  8
MountainLine
  6
CONTINUOUS
 62
5
 10
812.383168
 20
354.337880
 11
810.270499
 21
394.132021
  0
LINE
  8
MountainLine
  6
CONTINUOUS
 62
5
 10
810.270499
 20
394.132021
 11
759.378207
 21
361.612725
  0
LINE
  8
CutLine
  6
CONTINUOUS
 62
8
 10
759.378207
 20
361.612725
 11
812.383168
 21
354.337880
  0
LINE
  8
ValleyLine
  6
CONTINUOUS
 62
1
 10
812.383168
 20
354.337880
 11
866.048883
 21
333.006629
  0
LINE
  8
CutLine
  6
CONTINUOUS
 62
8
 10
866.048883
 20
333.006629
 11
869.244332
 21
377.564803
  0
LINE
  8
ValleyLine
  6
CONTINUOUS
 62
1
 10
869.244332
 20
377.564803
 11
812.383168
 21
354.337880
  0
LINE
  8
MountainLine
  6
CONTINUOUS
 62
5
 10
810.270499
 20
394.132021
 11
869.244332
 21
377.564803
  0
LINE
  8
MountainLine
  6
CONTINUOUS
 62
5
 10
869.244332
 20
377.564803
 11
836.160175
 21
420.226841
  0
LINE
  8
CutLine
  6
CONTINUOUS
 62
8
 10
836.160175
 20
420.226841
 11
810.270499
 21
394.132021
  0
LINE
  8
ValleyLine
  6
CONTINUOUS
 62
1
 10
881.924385
 20
401.995516
 11
837.145464
 21
428.274901
  0
LINE
  8
MountainLine
  6
CONTINUOUS
 62
5
 10
837.145464
 20
428.274901
 11
836.160175
 21
420.226841
  0
LINE
  8
MountainLine
  6
CONTINUOUS
 62
5
 10
836.160175
 20
420.226841
 11
881.924385
 21
401.995516
  0
LINE
  8
ValleyLine
  6
CONTINUOUS
 62
1
 10
869.244332
 20
377.564803
 11
881.924385
 21
401.995516
  0
LINE
  8
CutLine
  6
CONTINUOUS
 62
8
 10
881.924385
 20
401.995516
 11
887.842018
 21
459.139219
  0
LINE
  8
MountainLine
  6
CONTINUOUS
 62
5
 10
887.842018
 20
459.139219
 11
850.325737
 21
454.780670
  0
LINE
  8
ValleyLine
  6
CONTINUOUS
 62
1
 10
850.325737
 20
454.780670
 11
881.924385
 21
401.995516
  0
LINE
  8
CutLine
  6
CONTINUOUS
 62
8
 10
850.325737
 20
454.780670
 11
837.145464
 21
428.274901
  0
LINE
  8
ValleyLine
  6
CONTINUOUS
 62
1
 10
894.822227
 20
503.980465
 11
841.400567
 21
497.584915
  0
LINE
  8
MountainLine
  6
CONTINUOUS
 62
5
 10
841.400567
 20
497.584915
 11
887.842018
 21
459.139219
  0
LINE
  8
MountainLine
  6
CONTINUOUS
 62
5
 10
887.842018
 20
459.139219
 11
894.822227
 21
503.980465
  0
LINE
  8
ValleyLine
  6
CONTINUOUS
 62
1
 10
841.400567
 20
497.584915
 11
850.325737
 21
454.780670
  0
LINE
  8
MountainLine
  6
CONTINUOUS
 62
5
 10
894.822227
 20
503.980465
 11
864.094342
 21
546.737638
  0
LINE
  8
MountainLine
  6
CONTINUOUS
 62
5
 10
864.094342
 20
546.737638
 11
811.477230
 21
535.213140
  0
LINE
  8
ValleyLine
  6
CONTINUOUS
 62
1
 10
811.477230
 20
535.213140
 11
894.822227
 21
503.980465
  0
LINE
  8
ValleyLine
  6
CONTINUOUS
 62
1
 10
744.016394
 20
488.154361
 11
798.551123
 21
491.548925
  0
LINE
  8
ValleyLine
  6
CONTINUOUS
 62
1
 10
811.477230
 20
535.213140
 11
744.016394
 21
488.154361
  0
LINE
  8
CutLine
  6
CONTINUOUS
 62
8
 10
798.551123
 20
491.548925
 11
841.400567
 21
497.584915
  0
LINE
  8
MountainLine
  6
CONTINUOUS
 62
5
 10
744.016394
 20
599.753436
 11
744.016394
 21
488.154361
  0
LINE
  8
MountainLine
  6
CONTINUOUS
 62
5
 10
811.477230
 20
535.213140
 11
744.016394
 21
599.753436
  0
LINE
  8
CutLine
  6
CONTINUOUS
 62
8
 10
864.094342
 20
546.737638
 11
851.234966
 21
598.511326
  0
LINE
  8
CutLine
  6
CONTINUOUS
 62
8
 10
851.234966
 20
598.511326
 11
811.477230
 21
535.213140
  0
LINE
  8
CutLine
  6
CONTINUOUS
 62
8
 10
622.450537
 20
122.774559
 11
657.623922
 21
129.551738
  0
LINE
  8
CutLine
  6
CONTINUOUS
 62
8
 10
657.623922
 20
129.551738
 11
622.073635
 21
147.461751
  0
LINE
  8
ValleyLine
  6
CONTINUOUS
 62
1
 10
622.073635
 20
147.461751
 11
622.450537
 21
122.774559
  0
LINE
  8
MountainLine
  6
CONTINUOUS
 62
5
 10
738.434211
 20
312.825172
 11
752.087406
 21
275.386859
  0
LINE
  8
CutLine
  6
CONTINUOUS
 62
8
 10
752.087406
 20
275.386859
 11
798.000241
 21
302.854309
  0
LINE
  8
MountainLine
  6
CONTINUOUS
 62
5
 10
798.000241
 20
302.854309
 11
738.434211
 21
312.825172
  0
LINE
  8
ValleyLine
  6
CONTINUOUS
 62
1
 10
752.087406
 20
275.386859
 11
690.672097
 21
274.469389
  0
LINE
  8
CutLine
  6
CONTINUOUS
 62
8
 10
690.672097
 20
274.469389
 11
711.075921
 21
234.728658
  0
LINE
  8
CutLine
  6
CONTINUOUS
 62
8
 10
711.075921
 20
234.728658
 11
752.087406
 21
275.386859
  0
LINE
  8
CutLine
  6
CONTINUOUS
 62
8
 10
738.434211
 20
312.825172
 11
704.388376
 21
326.685044
  0
LINE
  8
MountainLine
  6
CONTINUOUS
 62
5
 10
704.388376
 20
326.685044
 11
690.672097
 21
274.469389
  0
LINE
  8
MountainLine
  6
CONTINUOUS
 62
5
 10
690.672097
 20
274.469389
 11
738.434211
 21
312.825172
  0
LINE
  8
CutLine
  6
CONTINUOUS
 62
8
 10
641.590275
 20
342.228034
 11
669.431232
 21
291.975648
  0
LINE
  8
ValleyLine
  6
CONTINUOUS
 62
1
 10
669.431232
 20
291.975648
 11
677.813221
 21
352.922257
  0
LINE
  8
MountainLine
  6
CONTINUOUS
 62
5
 10
677.813221
 20
352.922257
 11
641.590275
 21
342.228034
  0
LINE
  8
ValleyLine
  6
CONTINUOUS
 62
1
 10
669.431232
 20
291.975648
 11
700.327578
 21
333.703020
  0
LINE
  8
MountainLine
  6
CONTINUOUS
 62
5
 10
700.327578
 20
333.703020
 11
677.813221
 21
352.922257
  0
LINE
  8
ValleyLine
  6
CONTINUOUS
 62
1
 10
669.431232
 20
291.975648
 11
690.672097
 21
274.469389
  0
LINE
  8
MountainLine
  6
CONTINUOUS
 62
5
 10
704.388376
 20
326.685044
 11
669.431232
 21
291.975648
  0
LINE
  8
MountainLine
  6
CONTINUOUS
 62
5
 10
704.388376
 20
326.685044
 11
700.327578
 21
333.703020
  0
LINE
  8
ValleyLine
  6
CONTINUOUS
 62
1
 10
669.247698
 20
395.799919
 11
617.593557
 21
380.745799
  0
LINE
  8
CutLine
  6
CONTINUOUS
 62
8
 10
617.593557
 20
380.745799
 11
641.590275
 21
342.228034
  0
LINE
  8
MountainLine
  6
CONTINUOUS
 62
5
 10
641.590275
 20
342.228034
 11
669.247698
 21
395.799919
  0
LINE
  8
ValleyLine
  6
CONTINUOUS
 62
1
 10
677.813221
 20
352.922257
 11
669.247698
 21
395.799919
  0
LINE
  8
MountainLine
  6
CONTINUOUS
 62
5
 10
620.643246
 20
484.796903
 11
629.104798
 21
432.125465
  0
LINE
  8
MountainLine
  6
CONTINUOUS
 62
5
 10
629.104798
 20
432.125465
 11
682.028991
 21
442.145663
  0
LINE
  8
MountainLine
  6
CONTINUOUS
 62
5
 10
682.028991
 20
442.145663
 11
620.643246
 21
484.796903
  0
LINE
  8
CutLine
  6
CONTINUOUS
 62
8
 10
629.104798
 20
432.125465
 11
617.593557
 21
380.745799
  0
LINE
  8
ValleyLine
  6
CONTINUOUS
 62
1
 10
617.593557
 20
380.745799
 11
682.028991
 21
442.145663
  0
LINE
  8
ValleyLine
  6
CONTINUOUS
 62
1
 10
711.034562
 20
407.041180
 11
762.536517
 21
425.292437
  0
LINE
  8
ValleyLine
  6
CONTINUOUS
 62
1
 10
762.536517
 20
425.292437
 11
682.028991
 21
442.145663
  0
LINE
  8
CutLine
  6
CONTINUOUS
 62
8
 10
669.247698
 20
395.799919
 11
711.034562
 21
407.041180
  0
LINE
  8
CutLine
  6
CONTINUOUS
 62
8
 10
718.796609
 20
527.962656
 11
682.028991
 21
442.145663
  0
LINE
  8
CutLine
  6
CONTINUOUS
 62
8
 10
762.536517
 20
425.292437
 11
718.796609
 21
527.962656
  0
LINE
  8
CutLine
  6
CONTINUOUS
 62
8
 10
811.717712
 20
550.335046
 11
826.795132
 21
582.827639
  0
LINE
  8
ValleyLine
  6
CONTINUOUS
 62
1
 10
826.795132
 20
582.827639
 11
802.930942
 21
589.160091
  0
LINE
  8
CutLine
  6
CONTINUOUS
 62
8
 10
802.930942
 20
589.160091
 11
811.717712
 21
550.335046
  0
LINE
  8
ValleyLine
  6
CONTINUOUS
 62
1
 10
887.081330
 20
230.107952
 11
886.379132
 21
285.233706
  0
LINE
  8
MountainLine
  6
CONTINUOUS
 62
5
 10
847.121492
 20
283.080125
 11
887.081330
 21
230.107952
  0
LINE
  8
CutLine
  6
CONTINUOUS
 62
8
 10
886.379132
 20
285.233706
 11
881.655037
 21
343.990579
  0
LINE
  8
CutLine
  6
CONTINUOUS
 62
8
 10
881.655037
 20
343.990579
 11
847.121492
 21
283.080125
  0
LINE
  8
MountainLine
  6
CONTINUOUS
 62
5
 10
841.296330
 20
225.624936
 11
884.555879
 21
180.625302
  0
LINE
  8
ValleyLine
  6
CONTINUOUS
 62
1
 10
884.555879
 20
180.625302
 11
887.081330
 21
230.107952
  0
LINE
  8
CutLine
  6
CONTINUOUS
 62
8
 10
847.121492
 20
283.080125
 11
841.296330
 21
225.624936
  0
LINE
  8
CutLine
  6
CONTINUOUS
 62
8
 10
827.544872
 20
173.920520
 11
884.555879
 21
180.625302
  0
LINE
  8
ValleyLine
  6
CONTINUOUS
 62
1
 10
841.296330
 20
225.624936
 11
827.544872
 21
173.920520
  0
LINE
  8
CutLine
  6
CONTINUOUS
 62
8
 10
887.447077
 20
117.595780
 11
824.993409
 21
168.196067
  0
LINE
  8
MountainLine
  6
CONTINUOUS
 62
5
 10
824.993409
 20
168.196067
 11
830.363735
 21
120.104348
  0
LINE
  8
MountainLine
  6
CONTINUOUS
 62
5
 10
830.363735
 20
120.104348
 11
883.268338
 21
65.108477
  0
LINE
  8
CutLine
  6
CONTINUOUS
 62
8
 10
883.268338
 20
65.108477
 11
887.447077
 21
117.595780
  0
LINE
  8
MountainLine
  6
CONTINUOUS
 62
5
 10
837.748504
 20
52.462608
 11
781.423665
 21
90.639202
  0
LINE
  8
MountainLine
  6
CONTINUOUS
 62
5
 10
781.423665
 20
90.639202
 11
805.273283
 21
18.150316
  0
LINE
  8
ValleyLine
  6
CONTINUOUS
 62
1
 10
805.273283
 20
18.150316
 11
837.748504
 21
52.462608
  0
LINE
  8
ValleyLine
  6
CONTINUOUS
 62
1
 10
837.748504
 20
52.462608
 11
858.618893
 21
17.797980
  0
LINE
  8
MountainLine
  6
CONTINUOUS
 62
5
 10
858.618893
 20
17.797980
 11
883.268338
 21
65.108477
  0
LINE
  8
ValleyLine
  6
CONTINUOUS
 62
1
 10
883.268338
 20
65.108477
 11
837.748504
 21
52.462608
  0
LINE
  8
CutLine
  6
CONTINUOUS
 62
8
 10
805.273283
 20
18.150316
 11
858.618893
 21
17.797980
  0
LINE
  8
CutLine
  6
CONTINUOUS
 62
8
 10
830.363735
 20
120.104348
 11
837.748504
 21
52.462608
  0
LINE
  8
CutLine
  6
CONTINUOUS
 62
8
 10
781.423665
 20
90.639202
 11
741.434115
 21
117.887867
  0
LINE
  8
CutLine
  6
CONTINUOUS
 62
8
 10
741.434115
 20
117.887867
 11
756.930935
 21
39.016464
  0
LINE
  8
MountainLine
  6
CONTINUOUS
 62
5
 10
756.930935
 20
39.016464
 11
805.273283
 21
18.150316
  0
LINE
  8
MountainLine
  6
CONTINUOUS
 62
5
 10
795.892170
 20
118.450440
 11
830.363735
 21
120.104348
  0
LINE
  8
ValleyLine
  6
CONTINUOUS
 62
1
 10
830.363735
 20
120.104348
 11
813.840276
 21
159.692868
  0
LINE
  8
ValleyLine
  6
CONTINUOUS
 62
1
 10
813.840276
 20
159.692868
 11
795.892170
 21
118.450440
  0
LINE
  8
CutLine
  6
CONTINUOUS
 62
8
 10
824.993409
 20
168.196067
 11
813.840276
 21
159.692868
  0
LINE
  8
ValleyLine
  6
CONTINUOUS
 62
1
 10
677.814430
 20
112.334815
 11
693.300978
 21
76.355299
  0
LINE
  8
CutLine
  6
CONTINUOUS
 62
8
 10
693.300978
 20
76.355299
 11
694.853693
 21
85.332051
  0
LINE
  8
MountainLine
  6
CONTINUOUS
 62
5
 10
694.853693
 20
85.332051
 11
677.814430
 21
112.334815
  0
LINE
  8
MountainLine
  6
CONTINUOUS
 62
5
 10
700.304587
 20
91.788362
 11
677.814430
 21
112.334815
  0
LINE
  8
CutLine
  6
CONTINUOUS
 62
8
 10
694.853693
 20
85.332051
 11
700.304587
 21
91.788362
  0
LINE
  8
MountainLine
  6
CONTINUOUS
 62
5
 10
741.002400
 20
32.682014
 11
744.958399
 21
69.227397
  0
LINE
  8
CutLine
  6
CONTINUOUS
 62
8
 10
744.958399
 20
69.227397
 11
736.916856
 21
68.190270
  0
LINE
  8
CutLine
  6
CONTINUOUS
 62
8
 10
681.116308
 20
7.208212
 11
741.002400
 21
32.682014
  0
LINE
  8
MountainLine
  6
CONTINUOUS
 62
5
 10
701.896291
 20
41.160881
 11
681.116308
 21
7.208212
  0
LINE
  8
ValleyLine
  6
CONTINUOUS
 62
1
 10
720.607126
 20
53.084172
 11
708.942108
 21
67.195386
  0
LINE
  8
MountainLine
  6
CONTINUOUS
 62
5
 10
708.942108
 20
67.195386
 11
701.896291
 21
41.160881
  0
LINE
  8
CutLine
  6
CONTINUOUS
 62
8
 10
736.916856
 20
68.190270
 11
720.607126
 21
53.084172
  0
LINE
  8
CutLine
  6
CONTINUOUS
 62
8
 10
700.080204
 20
69.540884
 11
693.300978
 21
76.355299
  0
LINE
  8
MountainLine
  6
CONTINUOUS
 62
5
 10
693.300978
 20
76.355299
 11
701.896291
 21
41.160881
  0
LINE
  8
MountainLine
  6
CONTINUOUS
 62
5
 10
701.896291
 20
41.160881
 11
700.080204
 21
69.540884
  0
LINE
  8
ValleyLine
  6
CONTINUOUS
 62
1
 10
693.300978
 20
76.355299
 11
677.283093
 21
39.214103
  0
LINE
  8
CutLine
  6
CONTINUOUS
 62
8
 10
677.283093
 20
39.214103
 11
701.896291
 21
41.160881
  0
LINE
  8
CutLine
  6
CONTINUOUS
 62
8
 10
708.942108
 20
67.195386
 11
700.080204
 21
69.540884
  0
LINE
  8
CutLine
  6
CONTINUOUS
 62
8
 10
677.814430
 20
112.334815
 11
624.700486
 21
99.510280
  0
LINE
  8
MountainLine
  6
CONTINUOUS
 62
5
 10
624.700486
 20
99.510280
 11
693.300978
 21
76.355299
  0
LINE
  8
MountainLine
  6
CONTINUOUS
 62
5
 10
624.700486
 20
8.530628
 11
677.283093
 21
39.214103
  0
LINE
  8
ValleyLine
  6
CONTINUOUS
 62
1
 10
677.283093
 20
39.214103
 11
624.700486
 21
99.510280
  0
LINE
  8
MountainLine
  6
CONTINUOUS
 62
5
 10
624.700486
 20
99.510280
 11
624.700486
 21
8.530628
  0
LINE
  8
CutLine
  6
CONTINUOUS
 62
8
 10
624.700486
 20
8.530628
 11
664.576136
 21
5.723352
  0
LINE
  8
ValleyLine
  6
CONTINUOUS
 62
1
 10
664.576136
 20
5.723352
 11
677.283093
 21
39.214103
  0
LINE
  8
ValleyLine
  6
CONTINUOUS
 62
1
 10
718.560207
 20
126.904979
 11
677.814430
 21
112.334815
  0
LINE
  8
ValleyLine
  6
CONTINUOUS
 62
1
 10
700.304587
 20
91.788362
 11
718.560207
 21
126.904979
  0
LINE
  8
CutLine
  6
CONTINUOUS
 62
8
 10
724.704246
 20
90.238196
 11
731.000152
 21
90.343943
  0
LINE
  8
MountainLine
  6
CONTINUOUS
 62
5
 10
731.000152
 20
90.343943
 11
718.560207
 21
126.904979
  0
LINE
  8
MountainLine
  6
CONTINUOUS
 62
5
 10
718.560207
 20
126.904979
 11
724.704246
 21
90.238196
  0
LINE
  8
CutLine
  6
CONTINUOUS
 62
8
 10
709.162491
 20
91.293909
 11
717.453686
 21
90.438272
  0
LINE
  8
MountainLine
  6
CONTINUOUS
 62
5
 10
717.453686
 20
90.438272
 11
718.560207
 21
126.904979
  0
LINE
  8
MountainLine
  6
CONTINUOUS
 62
5
 10
718.560207
 20
126.904979
 11
709.162491
 21
91.293909
  0
LINE
  8
CutLine
  6
CONTINUOUS
 62
8
 10
717.453686
 20
90.438272
 11
724.704246
 21
90.238196
  0
LINE
  8
CutLine
  6
CONTINUOUS
 62
8
 10
731.000152
 20
90.343943
 11
736.015942
 21
89.989623
  0
LINE
  8
MountainLine
  6
CONTINUOUS
 62
5
 10
736.015942
 20
89.989623
 11
718.560207
 21
126.904979
  0
LINE
  8
CutLine
  6
CONTINUOUS
 62
8
 10
700.304587
 20
91.788362
 11
709.162491
 21
91.293909
  0
LINE
  8
CutLine
  6
CONTINUOUS
 62
8
 10
739.830723
 20
88.702529
 11
718.560207
 21
126.904979
  0
LINE
  8
CutLine
  6
CONTINUOUS
 62
8
 10
736.015942
 20
89.989623
 11
739.830723
 21
88.702529
  0
LINE
  8
MountainLine
  6
CONTINUOUS
 62
5
 10
710.084860
 20
368.699763
 11
710.084860
 21
339.097814
  0
LINE
  8
CutLine
  6
CONTINUOUS
 62
8
 10
710.084860
 20
339.097814
 11
711.022326
 21
343.128354
  0
LINE
  8
MountainLine
  6
CONTINUOUS
 62
5
 10
711.022326
 20
343.128354
 11
710.084860
 21
368.699763
  0
LINE
  8
CutLine
  6
CONTINUOUS
 62
8
 10
712.765794
 20
347.574409
 11
716.773646
 21
351.710621
  0
LINE
  8
ValleyLine
  6
CONTINUOUS
 62
1
 10
710.084860
 20
368.699763
 11
712.765794
 21
347.574409
  0
LINE
  8
CutLine
  6
CONTINUOUS
 62
8
 10
716.773646
 20
351.710621
 11
720.899178
 21
355.511713
  0
LINE
  8
MountainLine
  6
CONTINUOUS
 62
5
 10
720.899178
 20
355.511713
 11
710.084860
 21
368.699763
  0
LINE
  8
CutLine
  6
CONTINUOUS
 62
8
 10
711.022326
 20
343.128354
 11
712.765794
 21
347.574409
  0
LINE
  8
CutLine
  6
CONTINUOUS
 62
8
 10
720.899178
 20
355.511713
 11
724.974133
 21
359.279625
  0
LINE
  8
CutLine
  6
CONTINUOUS
 62
8
 10
729.961982
 20
363.080906
 11
737.863577
 21
365.181136
  0
LINE
  8
MountainLine
  6
CONTINUOUS
 62
5
 10
710.084860
 20
368.699763
 11
729.961982
 21
363.080906
  0
LINE
  8
CutLine
  6
CONTINUOUS
 62
8
 10
737.863577
 20
365.181136
 11
728.614719
 21
380.981694
  0
LINE
  8
MountainLine
  6
CONTINUOUS
 62
5
 10
728.614719
 20
380.981694
 11
710.084860
 21
368.699763
  0
LINE
  8
CutLine
  6
CONTINUOUS
 62
8
 10
724.974133
 20
359.279625
 11
729.961982
 21
363.080906
  0
LINE
  8
ValleyLine
  6
CONTINUOUS
 62
1
 10
801.722487
 20
180.770232
 11
828.405188
 21
231.986095
  0
LINE
  8
MountainLine
  6
CONTINUOUS
 62
5
 10
828.405188
 20
231.986095
 11
765.920388
 21
209.659216
  0
LINE
  8
ValleyLine
  6
CONTINUOUS
 62
1
 10
765.920388
 20
209.659216
 11
740.858062
 21
166.918249
  0
LINE
  8
MountainLine
  6
CONTINUOUS
 62
5
 10
740.858062
 20
166.918249
 11
801.722487
 21
180.770232
  0
LINE
  8
ValleyLine
  6
CONTINUOUS
 62
1
 10
832.992857
 20
301.854560
 11
796.779015
 21
255.343864
  0
LINE
  8
CutLine
  6
CONTINUOUS
 62
8
 10
828.405188
 20
231.986095
 11
832.992857
 21
301.854560
  0
LINE
  8
CutLine
  6
CONTINUOUS
 62
8
 10
796.779015
 20
255.343864
 11
765.920388
 21
209.659216
  0
LINE
  8
CutLine
  6
CONTINUOUS
 62
8
 10
740.858062
 20
166.918249
 11
784.822011
 21
130.007813
  0
LINE
  8
ValleyLine
  6
CONTINUOUS
 62
1
 10
784.822011
 20
130.007813
 11
801.722487
 21
180.770232
  0
LINE
  8
ValleyLine
  6
CONTINUOUS
 62
1
 10
644.212371
 20
508.040050
 11
664.006025
 21
467.650897
  0
LINE
  8
ValleyLine
  6
CONTINUOUS
 62
1
 10
664.006025
 20
467.650897
 11
678.723460
 21
507.945720
  0
LINE
  8
MountainLine
  6
CONTINUOUS
 62
5
 10
678.723460
 20
507.945720
 11
644.212371
 21
508.040050
  0
LINE
  8
CutLine
  6
CONTINUOUS
 62
8
 10
664.006025
 20
467.650897
 11
675.532052
 21
459.660435
  0
LINE
  8
MountainLine
  6
CONTINUOUS
 62
5
 10
675.532052
 20
459.660435
 11
678.723460
 21
507.945720
  0
LINE
  8
ValleyLine
  6
CONTINUOUS
 62
1
 10
714.052054
 20
566.099226
 11
672.965956
 21
600.399058
  0
LINE
  8
ValleyLine
  6
CONTINUOUS
 62
1
 10
672.965956
 20
600.399058
 11
678.723460
 21
507.945720
  0
LINE
  8
CutLine
  6
CONTINUOUS
 62
8
 10
678.723460
 20
507.945720
 11
714.052054
 21
566.099226
  0
LINE
  8
CutLine
  6
CONTINUOUS
 62
8
 10
672.965956
 20
600.399058
 11
619.670814
 21
595.482381
  0
LINE
  8
MountainLine
  6
CONTINUOUS
 62
5
 10
619.670814
 20
595.482381
 11
615.746449
 21
527.551981
  0
LINE
  8
ValleyLine
  6
CONTINUOUS
 62
1
 10
615.746449
 20
527.551981
 11
672.965956
 21
600.399058
  0
LINE
  8
ValleyLine
  6
CONTINUOUS
 62
1
 10
672.965956
 20
600.399058
 11
644.212371
 21
508.040050
  0
LINE
  8
CutLine
  6
CONTINUOUS
 62
8
 10
615.746449
 20
527.551981
 11
644.212371
 21
508.040050
  0
LINE
  8
CutLine
  6
CONTINUOUS
 62
8
 10
681.198301
 20
171.804887
 11
679.645586
 21
180.781639
  0
LINE
  8
ValleyLine
  6
CONTINUOUS
 62
1
 10
679.645586
 20
180.781639
 11
664.159038
 21
144.802123
  0
LINE
  8
MountainLine
  6
CONTINUOUS
 62
5
 10
664.159038
 20
144.802123
 11
681.198301
 21
171.804887
  0
LINE
  8
CutLine
  6
CONTINUOUS
 62
8
 10
686.649195
 20
165.348576
 11
681.198301
 21
171.804887
  0
LINE
  8
MountainLine
  6
CONTINUOUS
 62
5
 10
664.159038
 20
144.802123
 11
686.649195
 21
165.348576
  0
LINE
  8
MountainLine
  6
CONTINUOUS
 62
5
 10
731.303007
 20
187.909541
 11
727.347008
 21
224.454924
  0
LINE
  8
CutLine
  6
CONTINUOUS
 62
8
 10
723.261463
 20
188.946668
 11
731.303007
 21
187.909541
  0
LINE
  8
CutLine
  6
CONTINUOUS
 62
8
 10
727.347008
 20
224.454924
 11
667.460916
 21
249.928726
  0
LINE
  8
MountainLine
  6
CONTINUOUS
 62
5
 10
667.460916
 20
249.928726
 11
688.240899
 21
215.976057
  0
LINE
  8
MountainLine
  6
CONTINUOUS
 62
5
 10
688.240899
 20
215.976057
 11
695.286715
 21
189.941553
  0
LINE
  8
ValleyLine
  6
CONTINUOUS
 62
1
 10
695.286715
 20
189.941553
 11
706.951733
 21
204.052766
  0
LINE
  8
CutLine
  6
CONTINUOUS
 62
8
 10
706.951733
 20
204.052766
 11
723.261463
 21
188.946668
  0
LINE
  8
MountainLine
  6
CONTINUOUS
 62
5
 10
688.240899
 20
215.976057
 11
679.645586
 21
180.781639
  0
LINE
  8
CutLine
  6
CONTINUOUS
 62
8
 10
679.645586
 20
180.781639
 11
686.424811
 21
187.596055
  0
LINE
  8
MountainLine
  6
CONTINUOUS
 62
5
 10
686.424811
 20
187.596055
 11
688.240899
 21
215.976057
  0
LINE
  8
ValleyLine
  6
CONTINUOUS
 62
1
 10
663.627700
 20
217.922835
 11
679.645586
 21
180.781639
  0
LINE
  8
CutLine
  6
CONTINUOUS
 62
8
 10
688.240899
 20
215.976057
 11
663.627700
 21
217.922835
  0
LINE
  8
CutLine
  6
CONTINUOUS
 62
8
 10
686.424811
 20
187.596055
 11
695.286715
 21
189.941553
  0
LINE
  8
CutLine
  6
CONTINUOUS
 62
8
 10
611.045094
 20
157.626658
 11
664.159038
 21
144.802123
  0
LINE
  8
MountainLine
  6
CONTINUOUS
 62
5
 10
679.645586
 20
180.781639
 11
611.045094
 21
157.626658
  0
LINE
  8
MountainLine
  6
CONTINUOUS
 62
5
 10
663.627700
 20
217.922835
 11
611.045094
 21
248.606310
  0
LINE
  8
MountainLine
  6
CONTINUOUS
 62
5
 10
611.045094
 20
248.606310
 11
611.045094
 21
157.626658
  0
LINE
  8
ValleyLine
  6
CONTINUOUS
 62
1
 10
611.045094
 20
157.626658
 11
663.627700
 21
217.922835
  0
LINE
  8
ValleyLine
  6
CONTINUOUS
 62
1
 10
663.627700
 20
217.922835
 11
650.920743
 21
251.413586
  0
LINE
  8
CutLine
  6
CONTINUOUS
 62
8
 10
650.920743
 20
251.413586
 11
611.045094
 21
248.606310
  0
LINE
  8
CutLine
  6
CONTINUOUS
 62
8
 10
695.507098
 20
165.843029
 11
686.649195
 21
165.348576
  0
LINE
  8
ValleyLine
  6
CONTINUOUS
 62
1
 10
686.649195
 20
165.348576
 11
704.904814
 21
130.231959
  0
LINE
  8
MountainLine
  6
CONTINUOUS
 62
5
 10
704.904814
 20
130.231959
 11
695.507098
 21
165.843029
  0
LINE
  8
CutLine
  6
CONTINUOUS
 62
8
 10
722.360549
 20
167.147315
 11
717.344759
 21
166.792995
  0
LINE
  8
MountainLine
  6
CONTINUOUS
 62
5
 10
717.344759
 20
166.792995
 11
704.904814
 21
130.231959
  0
LINE
  8
MountainLine
  6
CONTINUOUS
 62
5
 10
704.904814
 20
130.231959
 11
722.360549
 21
167.147315
  0
LINE
  8
CutLine
  6
CONTINUOUS
 62
8
 10
711.048853
 20
166.898742
 11
703.798294
 21
166.698667
  0
LINE
  8
MountainLine
  6
CONTINUOUS
 62
5
 10
703.798294
 20
166.698667
 11
704.904814
 21
130.231959
  0
LINE
  8
MountainLine
  6
CONTINUOUS
 62
5
 10
704.904814
 20
130.231959
 11
711.048853
 21
166.898742
  0
LINE
  8
CutLine
  6
CONTINUOUS
 62
8
 10
703.798294
 20
166.698667
 11
695.507098
 21
165.843029
  0
LINE
  8
CutLine
  6
CONTINUOUS
 62
8
 10
717.344759
 20
166.792995
 11
711.048853
 21
166.898742
  0
LINE
  8
CutLine
  6
CONTINUOUS
 62
8
 10
726.175330
 20
168.434409
 11
722.360549
 21
167.147315
  0
LINE
  8
CutLine
  6
CONTINUOUS
 62
8
 10
704.904814
 20
130.231959
 11
726.175330
 21
168.434409
  0
LINE
  8
ValleyLine
  6
CONTINUOUS
 62
1
 10
664.159038
 20
144.802123
 11
704.904814
 21
130.231959
  0
LINE
  8
CutLine
  6
CONTINUOUS
 62
8
 10
805.733748
 20
477.804299
 11
804.796282
 21
481.834839
  0
LINE
  8
CutLine
  6
CONTINUOUS
 62
8
 10
804.796282
 20
481.834839
 11
804.796282
 21
452.232890
  0
LINE
  8
MountainLine
  6
CONTINUOUS
 62
5
 10
804.796282
 20
452.232890
 11
805.733748
 21
477.804299
  0
LINE
  8
CutLine
  6
CONTINUOUS
 62
8
 10
811.485068
 20
469.222032
 11
807.477215
 21
473.358244
  0
LINE
  8
ValleyLine
  6
CONTINUOUS
 62
1
 10
807.477215
 20
473.358244
 11
804.796282
 21
452.232890
  0
LINE
  8
MountainLine
  6
CONTINUOUS
 62
5
 10
804.796282
 20
452.232890
 11
815.610600
 21
465.420940
  0
LINE
  8
CutLine
  6
CONTINUOUS
 62
8
 10
815.610600
 20
465.420940
 11
811.485068
 21
469.222032
  0
LINE
  8
CutLine
  6
CONTINUOUS
 62
8
 10
807.477215
 20
473.358244
 11
805.733748
 21
477.804299
  0
LINE
  8
CutLine
  6
CONTINUOUS
 62
8
 10
819.685554
 20
461.653028
 11
815.610600
 21
465.420940
  0
LINE
  8
CutLine
  6
CONTINUOUS
 62
8
 10
832.574999
 20
455.751517
 11
824.673404
 21
457.851748
  0
LINE
  8
MountainLine
  6
CONTINUOUS
 62
5
 10
824.673404
 20
457.851748
 11
804.796282
 21
452.232890
  0
LINE
  8
CutLine
  6
CONTINUOUS
 62
8
 10
823.326141
 20
439.950959
 11
832.574999
 21
455.751517
  0
LINE
  8
MountainLine
  6
CONTINUOUS
 62
5
 10
804.796282
 20
452.232890
 11
823.326141
 21
439.950959
  0
LINE
  8
CutLine
  6
CONTINUOUS
 62
8
 10
824.673404
 20
457.851748
 11
819.685554
 21
461.653028
  0
ENDSEC
  0
EOF
