  0
SECTION
  2
HEADER
  9
$ACADVER
  1
AC1009
  0
ENDSEC
  0
SECTION
  2
BLOCKS
  0
ENDSEC
  0
SECTION
  2
ENTITIES
  0
LINE
  8
CutLine
  6
CONTINUOUS
 62
8
 10
262.532969
 20
401.279451
 11
266.742467
 21
406.961011
  0
LINE
  8
CutLine
  6
CONTINUOUS
 62
8
 10
266.742467
 20
406.961011
 11
278.545192
 21
408.717582
  0
LINE
  8
CutLine
  6
CONTINUOUS
 62
8
 10
278.545192
 20
408.717582
 11
284.226752
 21
404.508085
  0
LINE
  8
CutLine
  6
CONTINUOUS
 62
8
 10
282.792671
 20
340.505495
 11
286.589231
 21
332.982001
  0
LINE
  8
CutLine
  6
CONTINUOUS
 62
8
 10
286.589231
 20
332.982001
 11
285.732936
 21
327.927995
  0
LINE
  8
CutLine
  6
CONTINUOUS
 62
8
 10
285.732936
 20
327.927995
 11
279.967951
 21
323.833493
  0
LINE
  8
CutLine
  6
CONTINUOUS
 62
8
 10
270.312520
 20
297.516207
 11
263.249653
 21
297.856663
  0
LINE
  8
CutLine
  6
CONTINUOUS
 62
8
 10
263.249653
 20
297.856663
 11
238.092449
 21
325.562036
  0
LINE
  8
CutLine
  6
CONTINUOUS
 62
8
 10
238.092449
 20
325.562036
 11
237.000617
 21
334.202267
  0
LINE
  8
CutLine
  6
CONTINUOUS
 62
8
 10
191.731220
 20
354.357453
 11
191.245836
 21
361.411842
  0
LINE
  8
CutLine
  6
CONTINUOUS
 62
8
 10
191.245836
 20
361.411842
 11
204.324397
 21
376.423156
  0
LINE
  8
CutLine
  6
CONTINUOUS
 62
8
 10
204.324397
 20
376.423156
 11
211.378786
 21
376.908540
  0
LINE
  8
CutLine
  6
CONTINUOUS
 62
8
 10
156.611592
 20
352.585558
 11
151.611592
 21
357.585558
  0
LINE
  8
CutLine
  6
CONTINUOUS
 62
8
 10
151.611592
 20
357.585558
 11
151.611592
 21
384.323161
  0
LINE
  8
CutLine
  6
CONTINUOUS
 62
8
 10
151.611592
 20
384.323161
 11
156.611592
 21
393.925737
  0
LINE
  8
CutLine
  6
CONTINUOUS
 62
8
 10
173.849780
 20
356.439130
 11
170.061038
 21
350.468750
  0
LINE
  8
CutLine
  6
CONTINUOUS
 62
8
 10
170.061038
 20
350.468750
 11
162.581972
 21
348.796816
  0
LINE
  8
CutLine
  6
CONTINUOUS
 62
8
 10
162.581972
 20
348.796816
 11
156.611592
 21
352.585558
  0
LINE
  8
CutLine
  6
CONTINUOUS
 62
8
 10
156.611592
 20
393.925737
 11
163.243267
 21
391.471987
  0
LINE
  8
CutLine
  6
CONTINUOUS
 62
8
 10
163.243267
 20
391.471987
 11
175.023690
 21
365.853978
  0
LINE
  8
CutLine
  6
CONTINUOUS
 62
8
 10
175.023690
 20
365.853978
 11
173.849780
 21
356.439130
  0
LINE
  8
CutLine
  6
CONTINUOUS
 62
8
 10
244.579115
 20
43.597240
 11
244.382232
 21
36.528914
  0
LINE
  8
CutLine
  6
CONTINUOUS
 62
8
 10
244.382232
 20
36.528914
 11
228.061426
 21
21.092676
  0
LINE
  8
CutLine
  6
CONTINUOUS
 62
8
 10
228.061426
 20
21.092676
 11
220.993100
 21
21.289559
  0
LINE
  8
CutLine
  6
CONTINUOUS
 62
8
 10
275.456575
 20
86.154259
 11
278.393847
 21
79.722118
  0
LINE
  8
CutLine
  6
CONTINUOUS
 62
8
 10
278.393847
 20
79.722118
 11
274.277738
 21
68.687223
  0
LINE
  8
CutLine
  6
CONTINUOUS
 62
8
 10
274.277738
 20
68.687223
 11
266.906541
 21
63.232434
  0
LINE
  8
CutLine
  6
CONTINUOUS
 62
8
 10
286.236822
 20
111.160691
 11
288.848938
 21
104.589782
  0
LINE
  8
CutLine
  6
CONTINUOUS
 62
8
 10
288.848938
 20
104.589782
 11
282.027485
 21
88.766375
  0
LINE
  8
CutLine
  6
CONTINUOUS
 62
8
 10
282.027485
 20
88.766375
 11
275.456575
 21
86.154259
  0
LINE
  8
CutLine
  6
CONTINUOUS
 62
8
 10
220.993100
 20
102.735324
 11
225.938240
 21
115.293749
  0
LINE
  8
CutLine
  6
CONTINUOUS
 62
8
 10
225.938240
 20
115.293749
 11
269.716799
 21
161.853477
  0
LINE
  8
CutLine
  6
CONTINUOUS
 62
8
 10
269.716799
 20
161.853477
 11
276.784518
 21
162.071065
  0
LINE
  8
CutLine
  6
CONTINUOUS
 62
8
 10
170.498867
 20
558.847875
 11
170.529749
 21
565.918876
  0
LINE
  8
CutLine
  6
CONTINUOUS
 62
8
 10
170.529749
 20
565.918876
 11
203.109865
 21
598.215641
  0
LINE
  8
CutLine
  6
CONTINUOUS
 62
8
 10
203.109865
 20
598.215641
 11
214.171119
 21
602.140308
  0
LINE
  8
CutLine
  6
CONTINUOUS
 62
8
 10
263.140908
 20
430.878896
 11
261.896276
 21
423.918229
  0
LINE
  8
CutLine
  6
CONTINUOUS
 62
8
 10
261.896276
 20
423.918229
 11
195.280008
 21
377.511526
  0
LINE
  8
CutLine
  6
CONTINUOUS
 62
8
 10
195.280008
 20
377.511526
 11
188.319341
 21
378.756158
  0
LINE
  8
CutLine
  6
CONTINUOUS
 62
8
 10
155.689286
 20
430.878896
 11
162.385394
 21
463.700870
  0
LINE
  8
CutLine
  6
CONTINUOUS
 62
8
 10
162.385394
 20
463.700870
 11
178.471543
 21
493.083784
  0
LINE
  8
CutLine
  6
CONTINUOUS
 62
8
 10
231.954575
 20
226.033991
 11
224.897198
 21
225.594192
  0
LINE
  8
CutLine
  6
CONTINUOUS
 62
8
 10
224.897198
 20
225.594192
 11
204.853437
 21
243.286342
  0
LINE
  8
CutLine
  6
CONTINUOUS
 62
8
 10
204.853437
 20
243.286342
 11
204.413638
 21
250.343719
  0
LINE
  8
CutLine
  6
CONTINUOUS
 62
8
 10
204.413638
 20
250.343719
 11
206.297278
 21
257.159283
  0
LINE
  8
CutLine
  6
CONTINUOUS
 62
8
 10
206.297278
 20
257.159283
 11
250.420165
 21
282.174300
  0
LINE
  8
CutLine
  6
CONTINUOUS
 62
8
 10
250.420165
 20
282.174300
 11
257.386763
 21
280.376288
  0
LINE
  8
CutLine
  6
CONTINUOUS
 62
8
 10
249.781890
 20
216.127005
 11
245.943233
 21
222.065414
  0
LINE
  8
CutLine
  6
CONTINUOUS
 62
8
 10
245.943233
 20
222.065414
 11
250.678387
 21
244.113685
  0
LINE
  8
CutLine
  6
CONTINUOUS
 62
8
 10
200.920484
 20
208.254295
 11
195.572438
 21
206.209504
  0
LINE
  8
CutLine
  6
CONTINUOUS
 62
8
 10
195.572438
 20
206.209504
 11
196.641102
 21
211.834513
  0
LINE
  8
CutLine
  6
CONTINUOUS
 62
8
 10
208.652249
 20
338.834645
 11
212.448578
 21
332.869086
  0
LINE
  8
CutLine
  6
CONTINUOUS
 62
8
 10
212.448578
 20
332.869086
 11
200.247619
 21
277.962767
  0
LINE
  8
CutLine
  6
CONTINUOUS
 62
8
 10
200.247619
 20
277.962767
 11
194.282061
 21
274.166438
  0
LINE
  8
CutLine
  6
CONTINUOUS
 62
8
 10
135.980655
 20
225.772330
 11
131.451091
 21
231.202160
  0
LINE
  8
CutLine
  6
CONTINUOUS
 62
8
 10
131.451091
 20
231.202160
 11
135.212440
 21
272.812928
  0
LINE
  8
CutLine
  6
CONTINUOUS
 62
8
 10
135.212440
 20
272.812928
 11
140.642270
 21
277.342492
  0
LINE
  8
CutLine
  6
CONTINUOUS
 62
8
 10
142.098911
 20
329.102423
 11
150.368465
 21
335.024444
  0
LINE
  8
CutLine
  6
CONTINUOUS
 62
8
 10
150.368465
 20
335.024444
 11
198.472387
 21
340.218761
  0
LINE
  8
CutLine
  6
CONTINUOUS
 62
8
 10
198.472387
 20
340.218761
 11
203.980275
 21
335.784443
  0
LINE
  8
CutLine
  6
CONTINUOUS
 62
8
 10
63.056379
 20
242.352114
 11
57.263857
 21
238.296663
  0
LINE
  8
CutLine
  6
CONTINUOUS
 62
8
 10
57.263857
 20
238.296663
 11
15.386352
 21
245.683385
  0
LINE
  8
CutLine
  6
CONTINUOUS
 62
8
 10
15.386352
 20
245.683385
 11
11.330901
 21
251.475908
  0
LINE
  8
CutLine
  6
CONTINUOUS
 62
8
 10
129.661114
 20
173.927056
 11
127.297255
 21
167.262810
  0
LINE
  8
CutLine
  6
CONTINUOUS
 62
8
 10
127.297255
 20
167.262810
 11
119.275444
 21
163.441755
  0
LINE
  8
CutLine
  6
CONTINUOUS
 62
8
 10
119.275444
 20
163.441755
 11
112.611198
 21
165.805614
  0
LINE
  8
CutLine
  6
CONTINUOUS
 62
8
 10
11.556109
 20
583.621209
 11
22.948467
 21
587.372501
  0
LINE
  8
CutLine
  6
CONTINUOUS
 62
8
 10
22.948467
 20
587.372501
 11
142.673771
 21
573.918776
  0
LINE
  8
CutLine
  6
CONTINUOUS
 62
8
 10
142.673771
 20
573.918776
 11
147.084155
 21
568.391705
  0
LINE
  8
CutLine
  6
CONTINUOUS
 62
8
 10
11.330901
 20
251.475908
 11
6.347372
 21
256.492325
  0
LINE
  8
CutLine
  6
CONTINUOUS
 62
8
 10
6.347372
 20
256.492325
 11
6.539692
 21
314.968696
  0
LINE
  8
CutLine
  6
CONTINUOUS
 62
8
 10
6.539692
 20
314.968696
 11
11.556109
 21
319.952225
  0
LINE
  8
CutLine
  6
CONTINUOUS
 62
8
 10
122.752084
 20
277.762624
 11
127.303721
 21
269.955081
  0
LINE
  8
CutLine
  6
CONTINUOUS
 62
8
 10
127.303721
 20
269.955081
 11
125.109155
 21
232.455611
  0
LINE
  8
CutLine
  6
CONTINUOUS
 62
8
 10
125.109155
 20
232.455611
 11
119.825582
 21
227.756264
  0
LINE
  8
CutLine
  6
CONTINUOUS
 62
8
 10
124.950174
 20
321.811025
 11
129.814571
 21
316.679004
  0
LINE
  8
CutLine
  6
CONTINUOUS
 62
8
 10
129.814571
 20
316.679004
 11
129.355257
 21
299.522482
  0
LINE
  8
CutLine
  6
CONTINUOUS
 62
8
 10
129.355257
 20
299.522482
 11
124.223236
 21
294.658085
  0
LINE
  8
CutLine
  6
CONTINUOUS
 62
8
 10
147.515156
 20
215.043411
 11
154.539937
 21
215.851160
  0
LINE
  8
CutLine
  6
CONTINUOUS
 62
8
 10
154.539937
 20
215.851160
 11
191.178573
 21
186.769423
  0
LINE
  8
CutLine
  6
CONTINUOUS
 62
8
 10
191.178573
 20
186.769423
 11
193.621093
 21
178.447052
  0
LINE
  8
CutLine
  6
CONTINUOUS
 62
8
 10
211.696226
 20
183.798907
 11
209.735972
 21
190.592831
  0
LINE
  8
CutLine
  6
CONTINUOUS
 62
8
 10
209.735972
 20
190.592831
 11
226.218338
 21
220.443761
  0
LINE
  8
CutLine
  6
CONTINUOUS
 62
8
 10
226.218338
 20
220.443761
 11
233.012262
 21
222.404015
  0
LINE
  8
CutLine
  6
CONTINUOUS
 62
8
 10
233.012262
 20
222.404015
 11
239.685368
 21
224.742743
  0
LINE
  8
CutLine
  6
CONTINUOUS
 62
8
 10
239.685368
 20
224.742743
 11
243.242368
 21
223.031950
  0
LINE
  8
CutLine
  6
CONTINUOUS
 62
8
 10
243.242368
 20
223.031950
 11
245.581096
 21
216.358843
  0
LINE
  8
CutLine
  6
CONTINUOUS
 62
8
 10
256.221483
 20
191.292581
 11
255.482085
 21
184.260277
  0
LINE
  8
CutLine
  6
CONTINUOUS
 62
8
 10
255.482085
 20
184.260277
 11
214.881873
 21
151.385458
  0
LINE
  8
CutLine
  6
CONTINUOUS
 62
8
 10
214.881873
 20
151.385458
 11
207.849570
 21
152.124856
  0
LINE
  8
CutLine
  6
CONTINUOUS
 62
8
 10
202.530908
 20
153.810949
 11
197.125200
 21
149.252624
  0
LINE
  8
CutLine
  6
CONTINUOUS
 62
8
 10
197.125200
 20
149.252624
 11
145.816507
 21
153.616132
  0
LINE
  8
CutLine
  6
CONTINUOUS
 62
8
 10
145.816507
 20
153.616132
 11
141.258182
 21
159.021840
  0
LINE
  8
CutLine
  6
CONTINUOUS
 62
8
 10
5.348283
 20
166.961222
 11
9.153553
 21
172.921081
  0
LINE
  8
CutLine
  6
CONTINUOUS
 62
8
 10
9.153553
 20
172.921081
 11
29.468543
 21
177.403404
  0
LINE
  8
CutLine
  6
CONTINUOUS
 62
8
 10
29.468543
 20
177.403404
 11
35.428402
 21
173.598134
  0
LINE
  8
CutLine
  6
CONTINUOUS
 62
8
 10
28.928553
 20
67.903561
 11
23.041821
 21
71.821009
  0
LINE
  8
CutLine
  6
CONTINUOUS
 62
8
 10
23.041821
 20
71.821009
 11
8.982438
 21
141.816362
  0
LINE
  8
CutLine
  6
CONTINUOUS
 62
8
 10
8.982438
 20
141.816362
 11
12.899886
 21
147.703093
  0
LINE
  8
CutLine
  6
CONTINUOUS
 62
8
 10
35.428402
 20
173.598134
 11
30.117525
 21
180.157167
  0
LINE
  8
CutLine
  6
CONTINUOUS
 62
8
 10
30.117525
 20
180.157167
 11
27.777938
 21
230.394665
  0
LINE
  8
CutLine
  6
CONTINUOUS
 62
8
 10
27.777938
 20
230.394665
 11
32.539925
 21
235.621852
  0
LINE
  8
CutLine
  6
CONTINUOUS
 62
8
 10
31.299928
 20
67.962991
 11
29.004328
 21
76.381546
  0
LINE
  8
CutLine
  6
CONTINUOUS
 62
8
 10
91.255525
 20
60.411863
 11
85.781311
 21
55.936040
  0
LINE
  8
CutLine
  6
CONTINUOUS
 62
8
 10
85.781311
 20
55.936040
 11
57.393396
 21
58.784497
  0
LINE
  8
CutLine
  6
CONTINUOUS
 62
8
 10
57.393396
 20
58.784497
 11
52.917574
 21
64.258711
  0
LINE
  8
CutLine
  6
CONTINUOUS
 62
8
 10
99.757774
 20
103.678096
 11
103.962038
 21
97.992661
  0
LINE
  8
CutLine
  6
CONTINUOUS
 62
8
 10
103.962038
 20
97.992661
 11
102.931233
 21
91.110035
  0
LINE
  8
CutLine
  6
CONTINUOUS
 62
8
 10
102.931233
 20
91.110035
 11
97.245798
 21
86.905771
  0
LINE
  8
CutLine
  6
CONTINUOUS
 62
8
 10
68.700270
 20
193.118536
 11
75.767944
 21
193.337612
  0
LINE
  8
CutLine
  6
CONTINUOUS
 62
8
 10
75.767944
 20
193.337612
 11
107.225950
 21
163.771179
  0
LINE
  8
CutLine
  6
CONTINUOUS
 62
8
 10
107.225950
 20
163.771179
 11
112.250199
 21
152.187268
  0
LINE
  8
CutLine
  6
CONTINUOUS
 62
8
 10
158.424228
 20
43.128085
 11
161.035548
 21
36.556859
  0
LINE
  8
CutLine
  6
CONTINUOUS
 62
8
 10
161.035548
 20
36.556859
 11
152.930216
 21
17.761571
  0
LINE
  8
CutLine
  6
CONTINUOUS
 62
8
 10
152.930216
 20
17.761571
 11
146.358991
 21
15.150251
  0
LINE
  8
CutLine
  6
CONTINUOUS
 62
8
 10
188.356053
 20
107.639454
 11
194.685037
 21
104.486049
  0
LINE
  8
CutLine
  6
CONTINUOUS
 62
8
 10
194.685037
 20
104.486049
 11
197.495679
 21
96.093373
  0
LINE
  8
CutLine
  6
CONTINUOUS
 62
8
 10
197.495679
 20
96.093373
 11
194.342274
 21
89.764389
  0
LINE
  8
CutLine
  6
CONTINUOUS
 62
8
 10
146.358991
 20
74.916169
 11
141.760888
 21
80.288083
  0
LINE
  8
CutLine
  6
CONTINUOUS
 62
8
 10
141.760888
 20
80.288083
 11
145.191999
 21
124.495540
  0
LINE
  8
CutLine
  6
CONTINUOUS
 62
8
 10
145.191999
 20
124.495540
 11
150.677178
 21
130.552990
  0
LINE
  8
CutLine
  6
CONTINUOUS
 62
8
 10
267.203840
 20
360.203991
 11
256.113228
 21
399.945647
  0
LINE
  8
ValleyLine
  6
CONTINUOUS
 62
1
 10
256.113228
 20
399.945647
 11
237.000617
 21
334.202267
  0
LINE
  8
ValleyLine
  6
CONTINUOUS
 62
1
 10
237.000617
 20
334.202267
 11
267.203840
 21
360.203991
  0
LINE
  8
ValleyLine
  6
CONTINUOUS
 62
1
 10
267.203840
 20
360.203991
 11
284.226752
 21
404.508085
  0
LINE
  8
MountainLine
  6
CONTINUOUS
 62
5
 10
284.226752
 20
404.508085
 11
262.532969
 21
401.279451
  0
LINE
  8
CutLine
  6
CONTINUOUS
 62
8
 10
262.532969
 20
401.279451
 11
267.203840
 21
360.203991
  0
LINE
  8
ValleyLine
  6
CONTINUOUS
 62
1
 10
267.203840
 20
360.203991
 11
282.792671
 21
340.505495
  0
LINE
  8
CutLine
  6
CONTINUOUS
 62
8
 10
282.792671
 20
340.505495
 11
284.226752
 21
404.508085
  0
LINE
  8
ValleyLine
  6
CONTINUOUS
 62
1
 10
237.000617
 20
334.202267
 11
279.967951
 21
323.833493
  0
LINE
  8
MountainLine
  6
CONTINUOUS
 62
5
 10
279.967951
 20
323.833493
 11
282.792671
 21
340.505495
  0
LINE
  8
ValleyLine
  6
CONTINUOUS
 62
1
 10
282.792671
 20
340.505495
 11
237.000617
 21
334.202267
  0
LINE
  8
ValleyLine
  6
CONTINUOUS
 62
1
 10
237.000617
 20
334.202267
 11
270.312520
 21
297.516207
  0
LINE
  8
CutLine
  6
CONTINUOUS
 62
8
 10
270.312520
 20
297.516207
 11
279.967951
 21
323.833493
  0
LINE
  8
MountainLine
  6
CONTINUOUS
 62
5
 10
211.378786
 20
376.908540
 11
191.731220
 21
354.357453
  0
LINE
  8
CutLine
  6
CONTINUOUS
 62
8
 10
191.731220
 20
354.357453
 11
237.000617
 21
334.202267
  0
LINE
  8
ValleyLine
  6
CONTINUOUS
 62
1
 10
237.000617
 20
334.202267
 11
211.378786
 21
376.908540
  0
LINE
  8
CutLine
  6
CONTINUOUS
 62
8
 10
256.113228
 20
399.945647
 11
211.378786
 21
376.908540
  0
LINE
  8
ValleyLine
  6
CONTINUOUS
 62
1
 10
156.611592
 20
393.925737
 11
156.611592
 21
352.585558
  0
LINE
  8
MountainLine
  6
CONTINUOUS
 62
5
 10
156.611592
 20
352.585558
 11
173.849780
 21
356.439130
  0
LINE
  8
MountainLine
  6
CONTINUOUS
 62
5
 10
173.849780
 20
356.439130
 11
156.611592
 21
393.925737
  0
LINE
  8
ValleyLine
  6
CONTINUOUS
 62
1
 10
220.993100
 20
102.735324
 11
244.579115
 21
43.597240
  0
LINE
  8
CutLine
  6
CONTINUOUS
 62
8
 10
244.579115
 20
43.597240
 11
266.906541
 21
63.232434
  0
LINE
  8
ValleyLine
  6
CONTINUOUS
 62
1
 10
266.906541
 20
63.232434
 11
220.993100
 21
102.735324
  0
LINE
  8
CutLine
  6
CONTINUOUS
 62
8
 10
220.993100
 20
102.735324
 11
220.993100
 21
21.289559
  0
LINE
  8
MountainLine
  6
CONTINUOUS
 62
5
 10
220.993100
 20
21.289559
 11
244.579115
 21
43.597240
  0
LINE
  8
ValleyLine
  6
CONTINUOUS
 62
1
 10
275.456575
 20
86.154259
 11
220.993100
 21
102.735324
  0
LINE
  8
MountainLine
  6
CONTINUOUS
 62
5
 10
266.906541
 20
63.232434
 11
275.456575
 21
86.154259
  0
LINE
  8
ValleyLine
  6
CONTINUOUS
 62
1
 10
286.236822
 20
111.160691
 11
220.993100
 21
102.735324
  0
LINE
  8
MountainLine
  6
CONTINUOUS
 62
5
 10
275.456575
 20
86.154259
 11
286.236822
 21
111.160691
  0
LINE
  8
CutLine
  6
CONTINUOUS
 62
8
 10
286.236822
 20
111.160691
 11
276.784518
 21
162.071065
  0
LINE
  8
ValleyLine
  6
CONTINUOUS
 62
1
 10
276.784518
 20
162.071065
 11
220.993100
 21
102.735324
  0
LINE
  8
ValleyLine
  6
CONTINUOUS
 62
1
 10
214.171119
 20
602.140308
 11
170.498867
 21
558.847875
  0
LINE
  8
MountainLine
  6
CONTINUOUS
 62
5
 10
170.498867
 20
558.847875
 11
275.110339
 21
534.306260
  0
LINE
  8
CutLine
  6
CONTINUOUS
 62
8
 10
275.110339
 20
534.306260
 11
214.171119
 21
602.140308
  0
LINE
  8
CutLine
  6
CONTINUOUS
 62
8
 10
155.689286
 20
430.878896
 11
188.319341
 21
378.756158
  0
LINE
  8
ValleyLine
  6
CONTINUOUS
 62
1
 10
188.319341
 20
378.756158
 11
263.140908
 21
430.878896
  0
LINE
  8
MountainLine
  6
CONTINUOUS
 62
5
 10
263.140908
 20
430.878896
 11
155.689286
 21
430.878896
  0
LINE
  8
CutLine
  6
CONTINUOUS
 62
8
 10
263.140908
 20
430.878896
 11
276.047277
 21
481.791550
  0
LINE
  8
MountainLine
  6
CONTINUOUS
 62
5
 10
276.047277
 20
481.791550
 11
178.471543
 21
493.083784
  0
LINE
  8
ValleyLine
  6
CONTINUOUS
 62
1
 10
178.471543
 20
493.083784
 11
155.689286
 21
430.878896
  0
LINE
  8
CutLine
  6
CONTINUOUS
 62
8
 10
276.047277
 20
481.791550
 11
275.110339
 21
534.306260
  0
LINE
  8
CutLine
  6
CONTINUOUS
 62
8
 10
170.498867
 20
558.847875
 11
178.471543
 21
493.083784
  0
LINE
  8
ValleyLine
  6
CONTINUOUS
 62
1
 10
204.413638
 20
250.343719
 11
231.954575
 21
226.033991
  0
LINE
  8
CutLine
  6
CONTINUOUS
 62
8
 10
231.954575
 20
226.033991
 11
257.130376
 21
250.343719
  0
LINE
  8
MountainLine
  6
CONTINUOUS
 62
5
 10
257.130376
 20
250.343719
 11
204.413638
 21
250.343719
  0
LINE
  8
MountainLine
  6
CONTINUOUS
 62
5
 10
257.386763
 20
280.376288
 11
204.413638
 21
250.343719
  0
LINE
  8
ValleyLine
  6
CONTINUOUS
 62
1
 10
257.130376
 20
250.343719
 11
257.386763
 21
280.376288
  0
LINE
  8
ValleyLine
  6
CONTINUOUS
 62
1
 10
257.130376
 20
250.343719
 11
281.856486
 21
278.053488
  0
LINE
  8
MountainLine
  6
CONTINUOUS
 62
5
 10
281.856486
 20
278.053488
 11
257.386763
 21
280.376288
  0
LINE
  8
CutLine
  6
CONTINUOUS
 62
8
 10
281.856486
 20
278.053488
 11
279.063453
 21
291.717991
  0
LINE
  8
CutLine
  6
CONTINUOUS
 62
8
 10
279.063453
 20
291.717991
 11
257.386763
 21
280.376288
  0
LINE
  8
ValleyLine
  6
CONTINUOUS
 62
1
 10
257.130376
 20
250.343719
 11
249.781890
 21
216.127005
  0
LINE
  8
ValleyLine
  6
CONTINUOUS
 62
1
 10
249.781890
 20
216.127005
 11
286.219583
 21
216.116033
  0
LINE
  8
CutLine
  6
CONTINUOUS
 62
8
 10
286.219583
 20
216.116033
 11
281.856486
 21
278.053488
  0
LINE
  8
CutLine
  6
CONTINUOUS
 62
8
 10
249.781890
 20
216.127005
 11
273.489398
 21
188.065996
  0
LINE
  8
CutLine
  6
CONTINUOUS
 62
8
 10
273.489398
 20
188.065996
 11
286.219583
 21
216.116033
  0
LINE
  8
ValleyLine
  6
CONTINUOUS
 62
1
 10
194.282061
 20
274.166438
 11
196.641102
 21
211.834513
  0
LINE
  8
ValleyLine
  6
CONTINUOUS
 62
1
 10
196.641102
 20
211.834513
 11
200.920484
 21
208.254295
  0
LINE
  8
CutLine
  6
CONTINUOUS
 62
8
 10
200.920484
 20
208.254295
 11
194.282061
 21
274.166438
  0
LINE
  8
CutLine
  6
CONTINUOUS
 62
8
 10
208.652249
 20
338.834645
 11
203.980275
 21
335.784443
  0
LINE
  8
ValleyLine
  6
CONTINUOUS
 62
1
 10
203.980275
 20
335.784443
 11
194.282061
 21
274.166438
  0
LINE
  8
ValleyLine
  6
CONTINUOUS
 62
1
 10
194.282061
 20
274.166438
 11
208.652249
 21
338.834645
  0
LINE
  8
CutLine
  6
CONTINUOUS
 62
8
 10
135.980655
 20
225.772330
 11
196.641102
 21
211.834513
  0
LINE
  8
ValleyLine
  6
CONTINUOUS
 62
1
 10
140.642270
 20
277.342492
 11
135.980655
 21
225.772330
  0
LINE
  8
MountainLine
  6
CONTINUOUS
 62
5
 10
194.282061
 20
274.166438
 11
140.642270
 21
277.342492
  0
LINE
  8
ValleyLine
  6
CONTINUOUS
 62
1
 10
203.980275
 20
335.784443
 11
142.098911
 21
329.102423
  0
LINE
  8
CutLine
  6
CONTINUOUS
 62
8
 10
142.098911
 20
329.102423
 11
140.642270
 21
277.342492
  0
LINE
  8
MountainLine
  6
CONTINUOUS
 62
5
 10
119.825582
 20
227.756264
 11
67.522378
 21
254.644435
  0
LINE
  8
MountainLine
  6
CONTINUOUS
 62
5
 10
67.522378
 20
254.644435
 11
11.330901
 21
251.475908
  0
LINE
  8
ValleyLine
  6
CONTINUOUS
 62
1
 10
11.330901
 20
251.475908
 11
63.056379
 21
242.352114
  0
LINE
  8
ValleyLine
  6
CONTINUOUS
 62
1
 10
112.611198
 20
165.805614
 11
129.661114
 21
173.927056
  0
LINE
  8
ValleyLine
  6
CONTINUOUS
 62
1
 10
129.661114
 20
173.927056
 11
119.825582
 21
227.756264
  0
LINE
  8
CutLine
  6
CONTINUOUS
 62
8
 10
63.056379
 20
242.352114
 11
112.611198
 21
165.805614
  0
LINE
  8
CutLine
  6
CONTINUOUS
 62
8
 10
167.131574
 20
521.056998
 11
147.084155
 21
568.391705
  0
LINE
  8
MountainLine
  6
CONTINUOUS
 62
5
 10
147.084155
 20
568.391705
 11
11.556109
 21
583.621209
  0
LINE
  8
CutLine
  6
CONTINUOUS
 62
8
 10
124.950174
 20
321.811025
 11
167.131574
 21
521.056998
  0
LINE
  8
CutLine
  6
CONTINUOUS
 62
8
 10
11.556109
 20
583.621209
 11
11.556109
 21
319.952225
  0
LINE
  8
MountainLine
  6
CONTINUOUS
 62
5
 10
11.556109
 20
319.952225
 11
11.330901
 21
251.475908
  0
LINE
  8
ValleyLine
  6
CONTINUOUS
 62
1
 10
119.825582
 20
227.756264
 11
122.752084
 21
277.762624
  0
LINE
  8
MountainLine
  6
CONTINUOUS
 62
5
 10
122.752084
 20
277.762624
 11
67.522378
 21
254.644435
  0
LINE
  8
CutLine
  6
CONTINUOUS
 62
8
 10
122.752084
 20
277.762624
 11
124.223236
 21
294.658085
  0
LINE
  8
ValleyLine
  6
CONTINUOUS
 62
1
 10
124.223236
 20
294.658085
 11
124.950174
 21
321.811025
  0
LINE
  8
ValleyLine
  6
CONTINUOUS
 62
1
 10
129.661114
 20
173.927056
 11
193.621093
 21
178.447052
  0
LINE
  8
MountainLine
  6
CONTINUOUS
 62
5
 10
193.621093
 20
178.447052
 11
147.515156
 21
215.043411
  0
LINE
  8
CutLine
  6
CONTINUOUS
 62
8
 10
147.515156
 20
215.043411
 11
119.825582
 21
227.756264
  0
LINE
  8
ValleyLine
  6
CONTINUOUS
 62
1
 10
211.696226
 20
183.798907
 11
256.221483
 21
191.292581
  0
LINE
  8
CutLine
  6
CONTINUOUS
 62
8
 10
256.221483
 20
191.292581
 11
245.581096
 21
216.358843
  0
LINE
  8
ValleyLine
  6
CONTINUOUS
 62
1
 10
233.012262
 20
222.404015
 11
211.696226
 21
183.798907
  0
LINE
  8
ValleyLine
  6
CONTINUOUS
 62
1
 10
245.581096
 20
216.358843
 11
233.012262
 21
222.404015
  0
LINE
  8
CutLine
  6
CONTINUOUS
 62
8
 10
202.530908
 20
153.810949
 11
207.849570
 21
152.124856
  0
LINE
  8
CutLine
  6
CONTINUOUS
 62
8
 10
211.696226
 20
183.798907
 11
193.621093
 21
178.447052
  0
LINE
  8
ValleyLine
  6
CONTINUOUS
 62
1
 10
193.621093
 20
178.447052
 11
202.530908
 21
153.810949
  0
LINE
  8
ValleyLine
  6
CONTINUOUS
 62
1
 10
207.849570
 20
152.124856
 11
256.221483
 21
191.292581
  0
LINE
  8
CutLine
  6
CONTINUOUS
 62
8
 10
129.661114
 20
173.927056
 11
141.258182
 21
159.021840
  0
LINE
  8
MountainLine
  6
CONTINUOUS
 62
5
 10
141.258182
 20
159.021840
 11
193.621093
 21
178.447052
  0
LINE
  8
ValleyLine
  6
CONTINUOUS
 62
1
 10
141.258182
 20
159.021840
 11
202.530908
 21
153.810949
  0
LINE
  8
ValleyLine
  6
CONTINUOUS
 62
1
 10
29.240451
 20
102.799589
 11
35.428402
 21
173.598134
  0
LINE
  8
ValleyLine
  6
CONTINUOUS
 62
1
 10
12.899886
 20
147.703093
 11
29.240451
 21
102.799589
  0
LINE
  8
MountainLine
  6
CONTINUOUS
 62
5
 10
35.428402
 20
173.598134
 11
5.348283
 21
166.961222
  0
LINE
  8
CutLine
  6
CONTINUOUS
 62
8
 10
5.348283
 20
166.961222
 11
12.899886
 21
147.703093
  0
LINE
  8
CutLine
  6
CONTINUOUS
 62
8
 10
28.928553
 20
67.903561
 11
29.240451
 21
102.799589
  0
LINE
  8
ValleyLine
  6
CONTINUOUS
 62
1
 10
12.899886
 20
147.703093
 11
28.928553
 21
67.903561
  0
LINE
  8
MountainLine
  6
CONTINUOUS
 62
5
 10
32.539925
 20
235.621852
 11
35.428402
 21
173.598134
  0
LINE
  8
CutLine
  6
CONTINUOUS
 62
8
 10
68.700270
 20
193.118536
 11
32.539925
 21
235.621852
  0
LINE
  8
MountainLine
  6
CONTINUOUS
 62
5
 10
52.917574
 20
64.258711
 11
68.700270
 21
193.118536
  0
LINE
  8
ValleyLine
  6
CONTINUOUS
 62
1
 10
29.240451
 20
102.799589
 11
31.299928
 21
67.962991
  0
LINE
  8
CutLine
  6
CONTINUOUS
 62
8
 10
31.299928
 20
67.962991
 11
52.917574
 21
64.258711
  0
LINE
  8
MountainLine
  6
CONTINUOUS
 62
5
 10
52.917574
 20
64.258711
 11
91.255525
 21
60.411863
  0
LINE
  8
CutLine
  6
CONTINUOUS
 62
8
 10
91.255525
 20
60.411863
 11
97.245798
 21
86.905771
  0
LINE
  8
ValleyLine
  6
CONTINUOUS
 62
1
 10
97.245798
 20
86.905771
 11
99.757774
 21
103.678096
  0
LINE
  8
CutLine
  6
CONTINUOUS
 62
8
 10
99.757774
 20
103.678096
 11
112.250199
 21
152.187268
  0
LINE
  8
ValleyLine
  6
CONTINUOUS
 62
1
 10
112.250199
 20
152.187268
 11
68.700270
 21
193.118536
  0
LINE
  8
MountainLine
  6
CONTINUOUS
 62
5
 10
146.358991
 20
15.150251
 11
158.424228
 21
43.128085
  0
LINE
  8
CutLine
  6
CONTINUOUS
 62
8
 10
146.358991
 20
74.916169
 11
146.358991
 21
15.150251
  0
LINE
  8
ValleyLine
  6
CONTINUOUS
 62
1
 10
194.342274
 20
89.764389
 11
188.356053
 21
107.639454
  0
LINE
  8
MountainLine
  6
CONTINUOUS
 62
5
 10
188.356053
 20
107.639454
 11
146.358991
 21
74.916169
  0
LINE
  8
CutLine
  6
CONTINUOUS
 62
8
 10
158.424228
 20
43.128085
 11
194.342274
 21
89.764389
  0
LINE
  8
CutLine
  6
CONTINUOUS
 62
8
 10
188.356053
 20
107.639454
 11
150.677178
 21
130.552990
  0
LINE
  8
ValleyLine
  6
CONTINUOUS
 62
1
 10
150.677178
 20
130.552990
 11
146.358991
 21
74.916169
  0
ENDSEC
  0
EOF
