  0
SECTION
  2
HEADER
  9
$ACADVER
  1
AC1009
  0
ENDSEC
  0
SECTION
  2
BLOCKS
  0
ENDSEC
  0
SECTION
  2
ENTITIES
  0
LINE
  8
CutLine
  6
CONTINUOUS
 62
8
 10
477.057633
 20
424.811128
 11
481.295283
 21
430.471722
  0
LINE
  8
CutLine
  6
CONTINUOUS
 62
8
 10
481.295283
 20
430.471722
 11
516.316537
 21
435.506283
  0
LINE
  8
CutLine
  6
CONTINUOUS
 62
8
 10
516.316537
 20
435.506283
 11
521.977131
 21
431.268633
  0
LINE
  8
CutLine
  6
CONTINUOUS
 62
8
 10
463.994003
 20
345.500401
 11
459.884136
 21
351.313525
  0
LINE
  8
CutLine
  6
CONTINUOUS
 62
8
 10
459.884136
 20
351.313525
 11
471.025845
 21
418.956060
  0
LINE
  8
CutLine
  6
CONTINUOUS
 62
8
 10
471.025845
 20
418.956060
 11
477.057633
 21
424.811128
  0
LINE
  8
CutLine
  6
CONTINUOUS
 62
8
 10
517.289983
 20
313.592486
 11
510.431693
 21
311.870903
  0
LINE
  8
CutLine
  6
CONTINUOUS
 62
8
 10
510.431693
 20
311.870903
 11
465.715586
 21
338.642110
  0
LINE
  8
CutLine
  6
CONTINUOUS
 62
8
 10
465.715586
 20
338.642110
 11
463.994003
 21
345.500401
  0
LINE
  8
CutLine
  6
CONTINUOUS
 62
8
 10
521.977131
 20
431.268633
 11
529.034172
 21
431.713800
  0
LINE
  8
CutLine
  6
CONTINUOUS
 62
8
 10
529.034172
 20
431.713800
 11
563.371837
 21
401.451198
  0
LINE
  8
CutLine
  6
CONTINUOUS
 62
8
 10
563.371837
 20
401.451198
 11
565.076783
 21
393.283884
  0
LINE
  8
CutLine
  6
CONTINUOUS
 62
8
 10
592.983530
 20
327.009320
 11
596.830083
 21
321.076021
  0
LINE
  8
CutLine
  6
CONTINUOUS
 62
8
 10
596.830083
 20
321.076021
 11
584.800559
 21
264.697841
  0
LINE
  8
CutLine
  6
CONTINUOUS
 62
8
 10
584.800559
 20
264.697841
 11
578.372358
 21
258.531858
  0
LINE
  8
CutLine
  6
CONTINUOUS
 62
8
 10
578.570373
 20
369.292918
 11
584.916181
 21
366.173507
  0
LINE
  8
CutLine
  6
CONTINUOUS
 62
8
 10
584.916181
 20
366.173507
 11
596.102941
 21
333.355127
  0
LINE
  8
CutLine
  6
CONTINUOUS
 62
8
 10
596.102941
 20
333.355127
 11
592.983530
 21
327.009320
  0
LINE
  8
CutLine
  6
CONTINUOUS
 62
8
 10
542.542868
 20
272.528597
 11
536.290547
 21
275.831396
  0
LINE
  8
CutLine
  6
CONTINUOUS
 62
8
 10
536.290547
 20
275.831396
 11
530.013612
 21
296.165842
  0
LINE
  8
CutLine
  6
CONTINUOUS
 62
8
 10
530.013612
 20
296.165842
 11
533.316412
 21
302.418163
  0
LINE
  8
CutLine
  6
CONTINUOUS
 62
8
 10
577.962881
 20
467.803283
 11
573.769692
 21
462.109675
  0
LINE
  8
CutLine
  6
CONTINUOUS
 62
8
 10
573.769692
 20
462.109675
 11
569.790392
 21
461.505777
  0
LINE
  8
CutLine
  6
CONTINUOUS
 62
8
 10
569.790392
 20
461.505777
 11
564.096785
 21
465.698965
  0
LINE
  8
CutLine
  6
CONTINUOUS
 62
8
 10
485.545336
 20
459.231668
 11
480.614216
 21
454.163725
  0
LINE
  8
CutLine
  6
CONTINUOUS
 62
8
 10
480.614216
 20
454.163725
 11
476.589729
 21
454.108655
  0
LINE
  8
CutLine
  6
CONTINUOUS
 62
8
 10
476.589729
 20
454.108655
 11
471.521786
 21
459.039776
  0
LINE
  8
CutLine
  6
CONTINUOUS
 62
8
 10
469.498416
 20
567.638567
 11
476.538327
 21
568.301629
  0
LINE
  8
CutLine
  6
CONTINUOUS
 62
8
 10
476.538327
 20
568.301629
 11
488.884528
 21
558.080918
  0
LINE
  8
CutLine
  6
CONTINUOUS
 62
8
 10
488.884528
 20
558.080918
 11
489.547590
 21
551.041006
  0
LINE
  8
CutLine
  6
CONTINUOUS
 62
8
 10
520.314839
 20
517.197646
 11
518.827892
 21
524.110604
  0
LINE
  8
CutLine
  6
CONTINUOUS
 62
8
 10
518.827892
 20
524.110604
 11
531.422699
 21
543.608385
  0
LINE
  8
CutLine
  6
CONTINUOUS
 62
8
 10
531.422699
 20
543.608385
 11
545.132520
 21
555.617424
  0
LINE
  8
CutLine
  6
CONTINUOUS
 62
8
 10
562.197096
 20
575.270633
 11
561.026427
 21
582.244121
  0
LINE
  8
CutLine
  6
CONTINUOUS
 62
8
 10
561.026427
 20
582.244121
 11
571.889111
 21
597.489710
  0
LINE
  8
CutLine
  6
CONTINUOUS
 62
8
 10
571.889111
 20
597.489710
 11
578.862599
 21
598.660379
  0
LINE
  8
CutLine
  6
CONTINUOUS
 62
8
 10
430.179462
 20
480.840980
 11
432.331481
 21
474.105342
  0
LINE
  8
CutLine
  6
CONTINUOUS
 62
8
 10
432.331481
 20
474.105342
 11
417.782914
 21
445.895614
  0
LINE
  8
CutLine
  6
CONTINUOUS
 62
8
 10
417.782914
 20
445.895614
 11
411.047276
 21
443.743595
  0
LINE
  8
CutLine
  6
CONTINUOUS
 62
8
 10
443.413469
 20
571.232618
 11
445.500954
 21
564.476701
  0
LINE
  8
CutLine
  6
CONTINUOUS
 62
8
 10
445.500954
 20
564.476701
 11
442.224333
 21
558.269804
  0
LINE
  8
CutLine
  6
CONTINUOUS
 62
8
 10
442.224333
 20
558.269804
 11
435.468417
 21
556.182319
  0
LINE
  8
CutLine
  6
CONTINUOUS
 62
8
 10
313.717405
 20
588.648704
 11
319.338372
 21
592.938778
  0
LINE
  8
CutLine
  6
CONTINUOUS
 62
8
 10
319.338372
 20
592.938778
 11
396.474685
 21
582.580617
  0
LINE
  8
CutLine
  6
CONTINUOUS
 62
8
 10
396.474685
 20
582.580617
 11
443.413469
 21
571.232618
  0
LINE
  8
CutLine
  6
CONTINUOUS
 62
8
 10
310.112208
 20
526.635971
 11
305.410828
 21
531.917734
  0
LINE
  8
CutLine
  6
CONTINUOUS
 62
8
 10
305.410828
 20
531.917734
 11
308.435642
 21
583.947325
  0
LINE
  8
CutLine
  6
CONTINUOUS
 62
8
 10
308.435642
 20
583.947325
 11
313.717405
 21
588.648704
  0
LINE
  8
CutLine
  6
CONTINUOUS
 62
8
 10
429.124524
 20
507.221273
 11
435.683336
 21
504.578929
  0
LINE
  8
CutLine
  6
CONTINUOUS
 62
8
 10
435.683336
 20
504.578929
 11
438.043401
 21
499.034308
  0
LINE
  8
CutLine
  6
CONTINUOUS
 62
8
 10
438.043401
 20
499.034308
 11
435.401056
 21
492.475496
  0
LINE
  8
CutLine
  6
CONTINUOUS
 62
8
 10
325.734702
 20
481.504590
 11
318.777515
 21
482.768533
  0
LINE
  8
CutLine
  6
CONTINUOUS
 62
8
 10
318.777515
 20
482.768533
 11
306.661609
 21
500.264087
  0
LINE
  8
CutLine
  6
CONTINUOUS
 62
8
 10
306.661609
 20
500.264087
 11
307.925552
 21
507.221273
  0
LINE
  8
CutLine
  6
CONTINUOUS
 62
8
 10
341.784360
 20
94.660780
 11
333.659758
 21
98.312076
  0
LINE
  8
CutLine
  6
CONTINUOUS
 62
8
 10
333.659758
 20
98.312076
 11
303.408676
 21
147.384274
  0
LINE
  8
CutLine
  6
CONTINUOUS
 62
8
 10
303.408676
 20
147.384274
 11
305.041113
 21
154.264328
  0
LINE
  8
CutLine
  6
CONTINUOUS
 62
8
 10
393.778857
 20
71.955492
 11
387.195738
 21
69.374302
  0
LINE
  8
CutLine
  6
CONTINUOUS
 62
8
 10
387.195738
 20
69.374302
 11
344.365550
 21
88.077661
  0
LINE
  8
CutLine
  6
CONTINUOUS
 62
8
 10
344.365550
 20
88.077661
 11
341.784360
 21
94.660780
  0
LINE
  8
CutLine
  6
CONTINUOUS
 62
8
 10
370.839267
 20
119.869378
 11
377.820398
 21
116.866612
  0
LINE
  8
CutLine
  6
CONTINUOUS
 62
8
 10
377.820398
 20
116.866612
 11
396.129504
 21
78.624409
  0
LINE
  8
CutLine
  6
CONTINUOUS
 62
8
 10
396.129504
 20
78.624409
 11
393.778857
 21
71.955492
  0
LINE
  8
CutLine
  6
CONTINUOUS
 62
8
 10
305.041113
 20
154.264328
 11
300.800000
 21
158.390810
  0
LINE
  8
CutLine
  6
CONTINUOUS
 62
8
 10
300.800000
 20
195.202744
 11
304.429183
 21
198.932743
  0
LINE
  8
CutLine
  6
CONTINUOUS
 62
8
 10
380.847809
 20
167.026353
 11
382.014068
 21
160.052126
  0
LINE
  8
CutLine
  6
CONTINUOUS
 62
8
 10
382.014068
 20
160.052126
 11
376.474748
 21
152.288179
  0
LINE
  8
CutLine
  6
CONTINUOUS
 62
8
 10
376.474748
 20
152.288179
 11
369.500521
 21
151.121920
  0
LINE
  8
CutLine
  6
CONTINUOUS
 62
8
 10
309.089557
 20
226.060668
 11
307.954893
 21
234.326526
  0
LINE
  8
CutLine
  6
CONTINUOUS
 62
8
 10
307.954893
 20
234.326526
 11
330.146064
 21
274.357168
  0
LINE
  8
CutLine
  6
CONTINUOUS
 62
8
 10
330.146064
 20
274.357168
 11
336.943278
 21
276.305981
  0
LINE
  8
CutLine
  6
CONTINUOUS
 62
8
 10
381.425029
 20
285.296785
 11
389.071869
 21
281.805350
  0
LINE
  8
CutLine
  6
CONTINUOUS
 62
8
 10
389.071869
 20
281.805350
 11
422.266654
 21
221.824049
  0
LINE
  8
CutLine
  6
CONTINUOUS
 62
8
 10
422.266654
 20
221.824049
 11
420.345843
 21
214.968839
  0
LINE
  8
CutLine
  6
CONTINUOUS
 62
8
 10
448.217406
 20
205.853805
 11
445.726607
 21
212.471654
  0
LINE
  8
CutLine
  6
CONTINUOUS
 62
8
 10
445.726607
 20
212.471654
 11
485.919517
 21
301.179846
  0
LINE
  8
CutLine
  6
CONTINUOUS
 62
8
 10
485.919517
 20
301.179846
 11
493.629592
 21
306.081254
  0
LINE
  8
CutLine
  6
CONTINUOUS
 62
8
 10
412.148657
 20
66.264817
 11
406.560537
 21
71.486373
  0
LINE
  8
CutLine
  6
CONTINUOUS
 62
8
 10
406.560537
 20
71.486373
 11
401.665084
 21
117.173500
  0
LINE
  8
CutLine
  6
CONTINUOUS
 62
8
 10
401.665084
 20
117.173500
 11
406.103916
 21
122.677750
  0
LINE
  8
CutLine
  6
CONTINUOUS
 62
8
 10
394.475390
 20
180.465850
 11
401.543326
 21
180.676281
  0
LINE
  8
CutLine
  6
CONTINUOUS
 62
8
 10
401.543326
 20
180.676281
 11
457.318485
 21
128.126245
  0
LINE
  8
CutLine
  6
CONTINUOUS
 62
8
 10
487.557442
 20
22.344040
 11
478.764807
 21
17.165787
  0
LINE
  8
CutLine
  6
CONTINUOUS
 62
8
 10
478.764807
 20
17.165787
 11
422.093812
 21
16.023438
  0
LINE
  8
CutLine
  6
CONTINUOUS
 62
8
 10
422.093812
 20
16.023438
 11
416.994060
 21
20.921655
  0
LINE
  8
CutLine
  6
CONTINUOUS
 62
8
 10
564.776189
 20
62.998495
 11
568.498909
 21
54.130402
  0
LINE
  8
CutLine
  6
CONTINUOUS
 62
8
 10
568.498909
 20
54.130402
 11
563.683271
 21
22.105065
  0
LINE
  8
CutLine
  6
CONTINUOUS
 62
8
 10
563.683271
 20
22.105065
 11
557.995368
 21
17.904141
  0
LINE
  8
CutLine
  6
CONTINUOUS
 62
8
 10
534.712306
 20
204.002762
 11
538.855558
 21
198.272712
  0
LINE
  8
CutLine
  6
CONTINUOUS
 62
8
 10
538.855558
 20
198.272712
 11
526.941914
 21
124.144213
  0
LINE
  8
CutLine
  6
CONTINUOUS
 62
8
 10
587.318981
 20
176.338880
 11
590.978874
 21
170.288658
  0
LINE
  8
CutLine
  6
CONTINUOUS
 62
8
 10
590.978874
 20
170.288658
 11
579.845955
 21
125.063959
  0
LINE
  8
CutLine
  6
CONTINUOUS
 62
8
 10
579.845955
 20
125.063959
 11
573.228833
 21
119.101175
  0
LINE
  8
CutLine
  6
CONTINUOUS
 62
8
 10
326.245535
 20
395.097367
 11
326.676391
 21
402.155296
  0
LINE
  8
CutLine
  6
CONTINUOUS
 62
8
 10
326.676391
 20
402.155296
 11
358.380142
 21
430.210988
  0
LINE
  8
CutLine
  6
CONTINUOUS
 62
8
 10
358.380142
 20
430.210988
 11
366.027591
 21
430.301817
  0
LINE
  8
CutLine
  6
CONTINUOUS
 62
8
 10
411.558109
 20
432.858362
 11
418.293747
 21
430.706343
  0
LINE
  8
CutLine
  6
CONTINUOUS
 62
8
 10
418.293747
 20
430.706343
 11
432.842314
 21
402.496615
  0
LINE
  8
CutLine
  6
CONTINUOUS
 62
8
 10
432.842314
 20
402.496615
 11
430.690295
 21
395.760977
  0
LINE
  8
CutLine
  6
CONTINUOUS
 62
8
 10
366.027591
 20
430.301817
 11
370.739419
 21
435.574262
  0
LINE
  8
CutLine
  6
CONTINUOUS
 62
8
 10
370.739419
 20
435.574262
 11
406.285663
 21
437.570189
  0
LINE
  8
CutLine
  6
CONTINUOUS
 62
8
 10
406.285663
 20
437.570189
 11
411.558109
 21
432.858362
  0
LINE
  8
CutLine
  6
CONTINUOUS
 62
8
 10
310.623041
 20
349.965986
 11
305.094849
 21
354.374965
  0
LINE
  8
CutLine
  6
CONTINUOUS
 62
8
 10
305.094849
 20
354.374965
 11
304.027406
 21
363.852492
  0
LINE
  8
CutLine
  6
CONTINUOUS
 62
8
 10
304.027406
 20
363.852492
 11
308.436385
 21
369.380684
  0
LINE
  8
CutLine
  6
CONTINUOUS
 62
8
 10
429.635357
 20
369.380684
 11
435.610566
 21
362.176769
  0
LINE
  8
CutLine
  6
CONTINUOUS
 62
8
 10
435.610566
 20
362.176769
 11
440.295320
 21
326.020668
  0
LINE
  8
CutLine
  6
CONTINUOUS
 62
8
 10
440.295320
 20
326.020668
 11
435.979250
 21
320.419638
  0
LINE
  8
CutLine
  6
CONTINUOUS
 62
8
 10
443.924302
 20
305.369339
 11
396.985518
 21
294.021340
  0
LINE
  8
CutLine
  6
CONTINUOUS
 62
8
 10
396.985518
 20
294.021340
 11
319.849205
 21
283.663179
  0
LINE
  8
CutLine
  6
CONTINUOUS
 62
8
 10
319.849205
 20
283.663179
 11
314.228238
 21
287.953253
  0
LINE
  8
MountainLine
  6
CONTINUOUS
 62
5
 10
463.994003
 20
345.500401
 11
521.977131
 21
431.268633
  0
LINE
  8
MountainLine
  6
CONTINUOUS
 62
5
 10
521.977131
 20
431.268633
 11
477.057633
 21
424.811128
  0
LINE
  8
ValleyLine
  6
CONTINUOUS
 62
1
 10
477.057633
 20
424.811128
 11
463.994003
 21
345.500401
  0
LINE
  8
MountainLine
  6
CONTINUOUS
 62
5
 10
463.994003
 20
345.500401
 11
517.289983
 21
313.592486
  0
LINE
  8
ValleyLine
  6
CONTINUOUS
 62
1
 10
517.289983
 20
313.592486
 11
565.076783
 21
393.283884
  0
LINE
  8
ValleyLine
  6
CONTINUOUS
 62
1
 10
565.076783
 20
393.283884
 11
463.994003
 21
345.500401
  0
LINE
  8
MountainLine
  6
CONTINUOUS
 62
5
 10
565.076783
 20
393.283884
 11
521.977131
 21
431.268633
  0
LINE
  8
MountainLine
  6
CONTINUOUS
 62
5
 10
578.372358
 20
258.531858
 11
592.983530
 21
327.009320
  0
LINE
  8
ValleyLine
  6
CONTINUOUS
 62
1
 10
592.983530
 20
327.009320
 11
542.542868
 21
272.528597
  0
LINE
  8
CutLine
  6
CONTINUOUS
 62
8
 10
537.012168
 20
219.695116
 11
578.372358
 21
258.531858
  0
LINE
  8
CutLine
  6
CONTINUOUS
 62
8
 10
542.542868
 20
272.528597
 11
537.012168
 21
219.695116
  0
LINE
  8
MountainLine
  6
CONTINUOUS
 62
5
 10
592.983530
 20
327.009320
 11
578.570373
 21
369.292918
  0
LINE
  8
MountainLine
  6
CONTINUOUS
 62
5
 10
578.570373
 20
369.292918
 11
533.316412
 21
302.418163
  0
LINE
  8
ValleyLine
  6
CONTINUOUS
 62
1
 10
533.316412
 20
302.418163
 11
592.983530
 21
327.009320
  0
LINE
  8
MountainLine
  6
CONTINUOUS
 62
5
 10
533.316412
 20
302.418163
 11
542.542868
 21
272.528597
  0
LINE
  8
CutLine
  6
CONTINUOUS
 62
8
 10
517.289983
 20
313.592486
 11
533.316412
 21
302.418163
  0
LINE
  8
MountainLine
  6
CONTINUOUS
 62
5
 10
578.570373
 20
369.292918
 11
517.289983
 21
313.592486
  0
LINE
  8
CutLine
  6
CONTINUOUS
 62
8
 10
578.570373
 20
369.292918
 11
565.076783
 21
393.283884
  0
LINE
  8
ValleyLine
  6
CONTINUOUS
 62
1
 10
578.862599
 20
598.660379
 11
564.096785
 21
465.698965
  0
LINE
  8
ValleyLine
  6
CONTINUOUS
 62
1
 10
564.096785
 20
465.698965
 11
577.962881
 21
467.803283
  0
LINE
  8
CutLine
  6
CONTINUOUS
 62
8
 10
577.962881
 20
467.803283
 11
578.862599
 21
598.660379
  0
LINE
  8
ValleyLine
  6
CONTINUOUS
 62
1
 10
471.521786
 20
459.039776
 11
485.545336
 21
459.231668
  0
LINE
  8
ValleyLine
  6
CONTINUOUS
 62
1
 10
485.545336
 20
459.231668
 11
449.231810
 21
587.987618
  0
LINE
  8
CutLine
  6
CONTINUOUS
 62
8
 10
449.231810
 20
587.987618
 11
471.521786
 21
459.039776
  0
LINE
  8
CutLine
  6
CONTINUOUS
 62
8
 10
520.314839
 20
517.197646
 11
489.547590
 21
551.041006
  0
LINE
  8
MountainLine
  6
CONTINUOUS
 62
5
 10
489.547590
 20
551.041006
 11
485.545336
 21
459.231668
  0
LINE
  8
CutLine
  6
CONTINUOUS
 62
8
 10
485.545336
 20
459.231668
 11
526.600019
 21
440.858173
  0
LINE
  8
ValleyLine
  6
CONTINUOUS
 62
1
 10
526.600019
 20
440.858173
 11
520.314839
 21
517.197646
  0
LINE
  8
CutLine
  6
CONTINUOUS
 62
8
 10
469.498416
 20
567.638567
 11
449.231810
 21
587.987618
  0
LINE
  8
MountainLine
  6
CONTINUOUS
 62
5
 10
489.547590
 20
551.041006
 11
469.498416
 21
567.638567
  0
LINE
  8
MountainLine
  6
CONTINUOUS
 62
5
 10
564.096785
 20
465.698965
 11
545.132520
 21
555.617424
  0
LINE
  8
MountainLine
  6
CONTINUOUS
 62
5
 10
545.132520
 20
555.617424
 11
520.314839
 21
517.197646
  0
LINE
  8
CutLine
  6
CONTINUOUS
 62
8
 10
526.600019
 20
440.858173
 11
564.096785
 21
465.698965
  0
LINE
  8
MountainLine
  6
CONTINUOUS
 62
5
 10
578.862599
 20
598.660379
 11
562.197096
 21
575.270633
  0
LINE
  8
CutLine
  6
CONTINUOUS
 62
8
 10
562.197096
 20
575.270633
 11
545.132520
 21
555.617424
  0
LINE
  8
CutLine
  6
CONTINUOUS
 62
8
 10
365.516758
 20
446.300140
 11
411.047276
 21
443.743595
  0
LINE
  8
MountainLine
  6
CONTINUOUS
 62
5
 10
411.047276
 20
443.743595
 11
430.179462
 21
480.840980
  0
LINE
  8
ValleyLine
  6
CONTINUOUS
 62
1
 10
430.179462
 20
480.840980
 11
365.516758
 21
446.300140
  0
LINE
  8
ValleyLine
  6
CONTINUOUS
 62
1
 10
430.179462
 20
480.840980
 11
325.734702
 21
481.504590
  0
LINE
  8
CutLine
  6
CONTINUOUS
 62
8
 10
325.734702
 20
481.504590
 11
365.516758
 21
446.300140
  0
LINE
  8
MountainLine
  6
CONTINUOUS
 62
5
 10
435.468417
 20
556.182319
 11
443.413469
 21
571.232618
  0
LINE
  8
ValleyLine
  6
CONTINUOUS
 62
1
 10
443.413469
 20
571.232618
 11
313.717405
 21
588.648704
  0
LINE
  8
MountainLine
  6
CONTINUOUS
 62
5
 10
313.717405
 20
588.648704
 11
435.468417
 21
556.182319
  0
LINE
  8
ValleyLine
  6
CONTINUOUS
 62
1
 10
310.112208
 20
526.635971
 11
429.124524
 21
507.221273
  0
LINE
  8
CutLine
  6
CONTINUOUS
 62
8
 10
429.124524
 20
507.221273
 11
435.468417
 21
556.182319
  0
LINE
  8
ValleyLine
  6
CONTINUOUS
 62
1
 10
435.468417
 20
556.182319
 11
310.112208
 21
526.635971
  0
LINE
  8
MountainLine
  6
CONTINUOUS
 62
5
 10
313.717405
 20
588.648704
 11
310.112208
 21
526.635971
  0
LINE
  8
MountainLine
  6
CONTINUOUS
 62
5
 10
307.925552
 20
507.221273
 11
435.401056
 21
492.475496
  0
LINE
  8
ValleyLine
  6
CONTINUOUS
 62
1
 10
435.401056
 20
492.475496
 11
429.124524
 21
507.221273
  0
LINE
  8
MountainLine
  6
CONTINUOUS
 62
5
 10
429.124524
 20
507.221273
 11
307.925552
 21
507.221273
  0
LINE
  8
CutLine
  6
CONTINUOUS
 62
8
 10
310.112208
 20
526.635971
 11
307.925552
 21
507.221273
  0
LINE
  8
MountainLine
  6
CONTINUOUS
 62
5
 10
307.925552
 20
507.221273
 11
325.734702
 21
481.504590
  0
LINE
  8
CutLine
  6
CONTINUOUS
 62
8
 10
430.179462
 20
480.840980
 11
435.401056
 21
492.475496
  0
LINE
  8
ValleyLine
  6
CONTINUOUS
 62
1
 10
370.839267
 20
119.869378
 11
305.041113
 21
154.264328
  0
LINE
  8
MountainLine
  6
CONTINUOUS
 62
5
 10
305.041113
 20
154.264328
 11
341.784360
 21
94.660780
  0
LINE
  8
ValleyLine
  6
CONTINUOUS
 62
1
 10
341.784360
 20
94.660780
 11
393.778857
 21
71.955492
  0
LINE
  8
MountainLine
  6
CONTINUOUS
 62
5
 10
393.778857
 20
71.955492
 11
370.839267
 21
119.869378
  0
LINE
  8
CutLine
  6
CONTINUOUS
 62
8
 10
370.839267
 20
119.869378
 11
369.500521
 21
151.121920
  0
LINE
  8
ValleyLine
  6
CONTINUOUS
 62
1
 10
369.500521
 20
151.121920
 11
305.041113
 21
154.264328
  0
LINE
  8
MountainLine
  6
CONTINUOUS
 62
5
 10
304.429183
 20
198.932743
 11
305.041113
 21
154.264328
  0
LINE
  8
MountainLine
  6
CONTINUOUS
 62
5
 10
369.500521
 20
151.121920
 11
304.429183
 21
198.932743
  0
LINE
  8
ValleyLine
  6
CONTINUOUS
 62
1
 10
380.847809
 20
167.026353
 11
309.089557
 21
226.060668
  0
LINE
  8
CutLine
  6
CONTINUOUS
 62
8
 10
309.089557
 20
226.060668
 11
304.429183
 21
198.932743
  0
LINE
  8
MountainLine
  6
CONTINUOUS
 62
5
 10
304.429183
 20
198.932743
 11
380.847809
 21
167.026353
  0
LINE
  8
MountainLine
  6
CONTINUOUS
 62
5
 10
369.500521
 20
151.121920
 11
380.847809
 21
167.026353
  0
LINE
  8
MountainLine
  6
CONTINUOUS
 62
5
 10
420.345843
 20
214.968839
 11
336.943278
 21
276.305981
  0
LINE
  8
MountainLine
  6
CONTINUOUS
 62
5
 10
336.943278
 20
276.305981
 11
309.089557
 21
226.060668
  0
LINE
  8
ValleyLine
  6
CONTINUOUS
 62
1
 10
309.089557
 20
226.060668
 11
420.345843
 21
214.968839
  0
LINE
  8
CutLine
  6
CONTINUOUS
 62
8
 10
380.847809
 20
167.026353
 11
420.345843
 21
214.968839
  0
LINE
  8
ValleyLine
  6
CONTINUOUS
 62
1
 10
420.345843
 20
214.968839
 11
381.425029
 21
285.296785
  0
LINE
  8
CutLine
  6
CONTINUOUS
 62
8
 10
381.425029
 20
285.296785
 11
336.943278
 21
276.305981
  0
LINE
  8
MountainLine
  6
CONTINUOUS
 62
5
 10
493.629592
 20
306.081254
 11
448.217406
 21
205.853805
  0
LINE
  8
CutLine
  6
CONTINUOUS
 62
8
 10
448.217406
 20
205.853805
 11
458.222592
 21
120.404744
  0
LINE
  8
MountainLine
  6
CONTINUOUS
 62
5
 10
487.557442
 20
22.344040
 11
493.629592
 21
306.081254
  0
LINE
  8
ValleyLine
  6
CONTINUOUS
 62
1
 10
406.103916
 20
122.677750
 11
412.148657
 21
66.264817
  0
LINE
  8
CutLine
  6
CONTINUOUS
 62
8
 10
394.475390
 20
180.465850
 11
406.103916
 21
122.677750
  0
LINE
  8
ValleyLine
  6
CONTINUOUS
 62
1
 10
458.222592
 20
120.404744
 11
394.475390
 21
180.465850
  0
LINE
  8
CutLine
  6
CONTINUOUS
 62
8
 10
412.148657
 20
66.264817
 11
416.994060
 21
20.921655
  0
LINE
  8
MountainLine
  6
CONTINUOUS
 62
5
 10
416.994060
 20
20.921655
 11
487.557442
 21
22.344040
  0
LINE
  8
CutLine
  6
CONTINUOUS
 62
8
 10
487.557442
 20
22.344040
 11
557.995368
 21
17.904141
  0
LINE
  8
ValleyLine
  6
CONTINUOUS
 62
1
 10
557.995368
 20
17.904141
 11
564.776189
 21
62.998495
  0
LINE
  8
CutLine
  6
CONTINUOUS
 62
8
 10
564.776189
 20
62.998495
 11
573.228833
 21
119.101175
  0
LINE
  8
MountainLine
  6
CONTINUOUS
 62
5
 10
521.060632
 20
119.059972
 11
534.712306
 21
204.002762
  0
LINE
  8
CutLine
  6
CONTINUOUS
 62
8
 10
534.712306
 20
204.002762
 11
493.629592
 21
306.081254
  0
LINE
  8
ValleyLine
  6
CONTINUOUS
 62
1
 10
573.228833
 20
119.101175
 11
587.318981
 21
176.338880
  0
LINE
  8
CutLine
  6
CONTINUOUS
 62
8
 10
587.318981
 20
176.338880
 11
521.060632
 21
119.059972
  0
LINE
  8
MountainLine
  6
CONTINUOUS
 62
5
 10
366.027591
 20
430.301817
 11
326.245535
 21
395.097367
  0
LINE
  8
ValleyLine
  6
CONTINUOUS
 62
1
 10
326.245535
 20
395.097367
 11
430.690295
 21
395.760977
  0
LINE
  8
ValleyLine
  6
CONTINUOUS
 62
1
 10
430.690295
 20
395.760977
 11
366.027591
 21
430.301817
  0
LINE
  8
MountainLine
  6
CONTINUOUS
 62
5
 10
430.690295
 20
395.760977
 11
411.558109
 21
432.858362
  0
LINE
  8
ValleyLine
  6
CONTINUOUS
 62
1
 10
411.558109
 20
432.858362
 11
366.027591
 21
430.301817
  0
LINE
  8
MountainLine
  6
CONTINUOUS
 62
5
 10
308.436385
 20
369.380684
 11
310.623041
 21
349.965986
  0
LINE
  8
ValleyLine
  6
CONTINUOUS
 62
1
 10
310.623041
 20
349.965986
 11
429.635357
 21
369.380684
  0
LINE
  8
MountainLine
  6
CONTINUOUS
 62
5
 10
429.635357
 20
369.380684
 11
308.436385
 21
369.380684
  0
LINE
  8
MountainLine
  6
CONTINUOUS
 62
5
 10
435.911889
 20
384.126461
 11
308.436385
 21
369.380684
  0
LINE
  8
CutLine
  6
CONTINUOUS
 62
8
 10
429.635357
 20
369.380684
 11
435.911889
 21
384.126461
  0
LINE
  8
CutLine
  6
CONTINUOUS
 62
8
 10
435.911889
 20
384.126461
 11
430.690295
 21
395.760977
  0
LINE
  8
CutLine
  6
CONTINUOUS
 62
8
 10
326.245535
 20
395.097367
 11
308.436385
 21
369.380684
  0
LINE
  8
CutLine
  6
CONTINUOUS
 62
8
 10
310.623041
 20
349.965986
 11
314.228238
 21
287.953253
  0
LINE
  8
MountainLine
  6
CONTINUOUS
 62
5
 10
314.228238
 20
287.953253
 11
435.979250
 21
320.419638
  0
LINE
  8
ValleyLine
  6
CONTINUOUS
 62
1
 10
435.979250
 20
320.419638
 11
310.623041
 21
349.965986
  0
LINE
  8
MountainLine
  6
CONTINUOUS
 62
5
 10
435.979250
 20
320.419638
 11
429.635357
 21
369.380684
  0
LINE
  8
ValleyLine
  6
CONTINUOUS
 62
1
 10
314.228238
 20
287.953253
 11
443.924302
 21
305.369339
  0
LINE
  8
CutLine
  6
CONTINUOUS
 62
8
 10
443.924302
 20
305.369339
 11
435.979250
 21
320.419638
  0
ENDSEC
  0
EOF
