  0
SECTION
  2
HEADER
  9
$ACADVER
  1
AC1009
  0
ENDSEC
  0
SECTION
  2
BLOCKS
  0
ENDSEC
  0
SECTION
  2
ENTITIES
  0
LINE
  8
CutLine
  6
CONTINUOUS
 62
8
 10
914.585591
 20
534.419376
 11
909.855456
 21
539.675403
  0
LINE
  8
CutLine
  6
CONTINUOUS
 62
8
 10
909.855456
 20
539.675403
 11
912.851437
 21
596.566105
  0
LINE
  8
CutLine
  6
CONTINUOUS
 62
8
 10
912.851437
 20
596.566105
 11
918.107464
 21
601.296240
  0
LINE
  8
CutLine
  6
CONTINUOUS
 62
8
 10
940.813024
 20
302.190958
 11
934.922485
 21
306.102678
  0
LINE
  8
CutLine
  6
CONTINUOUS
 62
8
 10
934.922485
 20
306.102678
 11
923.697690
 21
361.705695
  0
LINE
  8
CutLine
  6
CONTINUOUS
 62
8
 10
923.697690
 20
361.705695
 11
927.609409
 21
367.596234
  0
LINE
  8
CutLine
  6
CONTINUOUS
 62
8
 10
1004.629335
 20
369.873077
 11
1007.475967
 21
363.400312
  0
LINE
  8
CutLine
  6
CONTINUOUS
 62
8
 10
1007.475967
 20
363.400312
 11
999.233653
 21
342.217031
  0
LINE
  8
CutLine
  6
CONTINUOUS
 62
8
 10
999.233653
 20
342.217031
 11
992.760888
 21
339.370399
  0
LINE
  8
CutLine
  6
CONTINUOUS
 62
8
 10
917.174544
 20
428.684401
 11
911.730801
 21
433.197234
  0
LINE
  8
CutLine
  6
CONTINUOUS
 62
8
 10
911.730801
 20
433.197234
 11
907.515840
 21
478.278483
  0
LINE
  8
CutLine
  6
CONTINUOUS
 62
8
 10
907.515840
 20
478.278483
 11
912.028674
 21
483.722226
  0
LINE
  8
CutLine
  6
CONTINUOUS
 62
8
 10
981.484969
 20
516.616469
 11
987.862170
 21
513.561748
  0
LINE
  8
CutLine
  6
CONTINUOUS
 62
8
 10
987.862170
 20
513.561748
 11
1007.328831
 21
458.299406
  0
LINE
  8
CutLine
  6
CONTINUOUS
 62
8
 10
1007.328831
 20
458.299406
 11
1004.274110
 21
451.922206
  0
LINE
  8
CutLine
  6
CONTINUOUS
 62
8
 10
1150.212519
 20
550.248668
 11
1150.571400
 21
542.487057
  0
LINE
  8
CutLine
  6
CONTINUOUS
 62
8
 10
1150.571400
 20
542.487057
 11
1131.276938
 21
517.256963
  0
LINE
  8
CutLine
  6
CONTINUOUS
 62
8
 10
1131.276938
 20
517.256963
 11
1124.267879
 21
516.322575
  0
LINE
  8
CutLine
  6
CONTINUOUS
 62
8
 10
1012.352558
 20
480.201942
 11
1015.812197
 21
489.049390
  0
LINE
  8
CutLine
  6
CONTINUOUS
 62
8
 10
1015.812197
 20
489.049390
 11
1081.705583
 21
538.497150
  0
LINE
  8
CutLine
  6
CONTINUOUS
 62
8
 10
1081.705583
 20
538.497150
 11
1088.705852
 21
537.499034
  0
LINE
  8
CutLine
  6
CONTINUOUS
 62
8
 10
1184.179833
 20
453.611333
 11
1178.613790
 21
449.250236
  0
LINE
  8
CutLine
  6
CONTINUOUS
 62
8
 10
1178.613790
 20
449.250236
 11
1177.362253
 21
449.402146
  0
LINE
  8
CutLine
  6
CONTINUOUS
 62
8
 10
1177.362253
 20
449.402146
 11
1173.001156
 21
454.968189
  0
LINE
  8
CutLine
  6
CONTINUOUS
 62
8
 10
1194.261151
 20
507.860971
 11
1198.263471
 21
502.031611
  0
LINE
  8
CutLine
  6
CONTINUOUS
 62
8
 10
1198.263471
 20
502.031611
 11
1190.547340
 21
460.509532
  0
LINE
  8
CutLine
  6
CONTINUOUS
 62
8
 10
1190.547340
 20
460.509532
 11
1184.179833
 21
453.611333
  0
LINE
  8
CutLine
  6
CONTINUOUS
 62
8
 10
1178.012957
 20
509.602041
 11
1183.517220
 21
514.040857
  0
LINE
  8
CutLine
  6
CONTINUOUS
 62
8
 10
1183.517220
 20
514.040857
 11
1189.822336
 21
513.365234
  0
LINE
  8
CutLine
  6
CONTINUOUS
 62
8
 10
1189.822336
 20
513.365234
 11
1194.261151
 21
507.860971
  0
LINE
  8
CutLine
  6
CONTINUOUS
 62
8
 10
1163.201800
 20
456.105562
 11
1158.354615
 21
451.638268
  0
LINE
  8
CutLine
  6
CONTINUOUS
 62
8
 10
1158.354615
 20
451.638268
 11
1154.668795
 21
457.103307
  0
LINE
  8
CutLine
  6
CONTINUOUS
 62
8
 10
1093.168559
 20
483.234812
 11
1133.464935
 21
494.383150
  0
LINE
  8
CutLine
  6
CONTINUOUS
 62
8
 10
1133.464935
 20
494.383150
 11
1139.617125
 21
490.897384
  0
LINE
  8
CutLine
  6
CONTINUOUS
 62
8
 10
1164.999328
 20
357.168890
 11
1158.692435
 21
353.971531
  0
LINE
  8
CutLine
  6
CONTINUOUS
 62
8
 10
1158.692435
 20
353.971531
 11
1115.475495
 21
368.110942
  0
LINE
  8
CutLine
  6
CONTINUOUS
 62
8
 10
1115.475495
 20
368.110942
 11
1112.278136
 21
374.417835
  0
LINE
  8
CutLine
  6
CONTINUOUS
 62
8
 10
1108.835411
 20
378.522676
 11
1109.894325
 21
372.559575
  0
LINE
  8
CutLine
  6
CONTINUOUS
 62
8
 10
1196.199932
 20
274.617382
 11
1191.117791
 21
269.700896
  0
LINE
  8
CutLine
  6
CONTINUOUS
 62
8
 10
1191.117791
 20
269.700896
 11
1115.189634
 21
270.958863
  0
LINE
  8
CutLine
  6
CONTINUOUS
 62
8
 10
1115.189634
 20
270.958863
 11
1109.334799
 21
276.056551
  0
LINE
  8
CutLine
  6
CONTINUOUS
 62
8
 10
1152.795863
 20
337.395556
 11
1159.752086
 21
336.126318
  0
LINE
  8
CutLine
  6
CONTINUOUS
 62
8
 10
1159.752086
 20
336.126318
 11
1197.469171
 21
281.573605
  0
LINE
  8
CutLine
  6
CONTINUOUS
 62
8
 10
1197.469171
 20
281.573605
 11
1196.199932
 21
274.617382
  0
LINE
  8
CutLine
  6
CONTINUOUS
 62
8
 10
1008.219757
 20
329.823038
 11
1006.007319
 21
337.134951
  0
LINE
  8
CutLine
  6
CONTINUOUS
 62
8
 10
1006.007319
 20
337.134951
 11
1027.025578
 21
384.237071
  0
LINE
  8
CutLine
  6
CONTINUOUS
 62
8
 10
1027.025578
 20
384.237071
 11
1033.816397
 21
387.185353
  0
LINE
  8
CutLine
  6
CONTINUOUS
 62
8
 10
1161.310706
 20
176.581874
 11
1165.978891
 21
171.270749
  0
LINE
  8
CutLine
  6
CONTINUOUS
 62
8
 10
1165.978891
 20
171.270749
 11
1162.713505
 21
120.587461
  0
LINE
  8
CutLine
  6
CONTINUOUS
 62
8
 10
1162.713505
 20
120.587461
 11
1157.402380
 21
115.919275
  0
LINE
  8
CutLine
  6
CONTINUOUS
 62
8
 10
1113.296321
 20
133.387158
 11
1106.609632
 21
137.333243
  0
LINE
  8
CutLine
  6
CONTINUOUS
 62
8
 10
1106.609632
 20
137.333243
 11
1098.075084
 21
161.616644
  0
LINE
  8
CutLine
  6
CONTINUOUS
 62
8
 10
1098.075084
 20
161.616644
 11
1101.134361
 21
167.991660
  0
LINE
  8
CutLine
  6
CONTINUOUS
 62
8
 10
1157.402380
 20
115.919275
 11
1164.373906
 21
114.736980
  0
LINE
  8
CutLine
  6
CONTINUOUS
 62
8
 10
1164.373906
 20
114.736980
 11
1191.794132
 21
76.117064
  0
LINE
  8
CutLine
  6
CONTINUOUS
 62
8
 10
1191.794132
 20
76.117064
 11
1190.611837
 21
69.145538
  0
LINE
  8
CutLine
  6
CONTINUOUS
 62
8
 10
1113.008274
 20
39.562429
 11
1108.949328
 21
45.352503
  0
LINE
  8
CutLine
  6
CONTINUOUS
 62
8
 10
1108.949328
 20
45.352503
 11
1118.276966
 21
98.420850
  0
LINE
  8
CutLine
  6
CONTINUOUS
 62
8
 10
1118.276966
 20
98.420850
 11
1124.067040
 21
102.479796
  0
LINE
  8
CutLine
  6
CONTINUOUS
 62
8
 10
1048.451222
 20
306.847027
 11
1055.486785
 21
306.139321
  0
LINE
  8
CutLine
  6
CONTINUOUS
 62
8
 10
1055.486785
 20
306.139321
 11
1085.524434
 21
269.382857
  0
LINE
  8
CutLine
  6
CONTINUOUS
 62
8
 10
1085.524434
 20
269.382857
 11
1084.816728
 21
262.347294
  0
LINE
  8
CutLine
  6
CONTINUOUS
 62
8
 10
1101.134361
 20
167.991660
 11
1092.273635
 21
171.972145
  0
LINE
  8
CutLine
  6
CONTINUOUS
 62
8
 10
1092.273635
 20
171.972145
 11
1051.564935
 21
230.480367
  0
LINE
  8
CutLine
  6
CONTINUOUS
 62
8
 10
1051.564935
 20
230.480367
 11
1052.813552
 21
237.440320
  0
LINE
  8
CutLine
  6
CONTINUOUS
 62
8
 10
1084.816728
 20
262.347294
 11
1112.213328
 21
245.196846
  0
LINE
  8
CutLine
  6
CONTINUOUS
 62
8
 10
1112.213328
 20
245.196846
 11
1164.945804
 21
199.444636
  0
LINE
  8
CutLine
  6
CONTINUOUS
 62
8
 10
1164.945804
 20
199.444636
 11
1165.445724
 21
192.391263
  0
LINE
  8
CutLine
  6
CONTINUOUS
 62
8
 10
911.668452
 20
177.921639
 11
911.335667
 21
185.984742
  0
LINE
  8
CutLine
  6
CONTINUOUS
 62
8
 10
911.335667
 20
185.984742
 11
966.155909
 21
261.654297
  0
LINE
  8
CutLine
  6
CONTINUOUS
 62
8
 10
966.155909
 20
261.654297
 11
973.722411
 21
263.576050
  0
LINE
  8
CutLine
  6
CONTINUOUS
 62
8
 10
1005.596477
 20
85.331926
 11
1010.580525
 21
80.316024
  0
LINE
  8
CutLine
  6
CONTINUOUS
 62
8
 10
1010.580525
 20
80.316024
 11
1010.462161
 21
43.157255
  0
LINE
  8
CutLine
  6
CONTINUOUS
 62
8
 10
1010.462161
 20
43.157255
 11
1005.446259
 21
38.173207
  0
LINE
  8
CutLine
  6
CONTINUOUS
 62
8
 10
921.792189
 20
50.822853
 11
916.497383
 21
55.509540
  0
LINE
  8
CutLine
  6
CONTINUOUS
 62
8
 10
916.497383
 20
55.509540
 11
913.912794
 21
97.932311
  0
LINE
  8
CutLine
  6
CONTINUOUS
 62
8
 10
913.912794
 20
97.932311
 11
918.208572
 21
109.643389
  0
LINE
  8
CutLine
  6
CONTINUOUS
 62
8
 10
1012.813236
 20
86.536134
 11
1006.795571
 21
90.249314
  0
LINE
  8
CutLine
  6
CONTINUOUS
 62
8
 10
1006.795571
 20
90.249314
 11
1003.914585
 21
102.414471
  0
LINE
  8
CutLine
  6
CONTINUOUS
 62
8
 10
1078.299225
 20
139.722907
 11
1083.775176
 21
135.249210
  0
LINE
  8
CutLine
  6
CONTINUOUS
 62
8
 10
1083.775176
 20
135.249210
 11
1088.984185
 21
83.537923
  0
LINE
  8
CutLine
  6
CONTINUOUS
 62
8
 10
1088.984185
 20
83.537923
 11
1084.510487
 21
78.061973
  0
LINE
  8
CutLine
  6
CONTINUOUS
 62
8
 10
1039.466870
 20
237.710379
 11
1046.235456
 21
235.664348
  0
LINE
  8
CutLine
  6
CONTINUOUS
 62
8
 10
1046.235456
 20
235.664348
 11
1065.485340
 21
199.734569
  0
LINE
  8
CutLine
  6
CONTINUOUS
 62
8
 10
1065.485340
 20
199.734569
 11
1063.439309
 21
192.965983
  0
LINE
  8
CutLine
  6
CONTINUOUS
 62
8
 10
974.654651
 20
259.663825
 11
978.070756
 21
264.458011
  0
LINE
  8
CutLine
  6
CONTINUOUS
 62
8
 10
1087.543466
 20
11.406242
 11
1079.113080
 21
9.828203
  0
LINE
  8
CutLine
  6
CONTINUOUS
 62
8
 10
1079.113080
 20
9.828203
 11
1026.956746
 21
34.212679
  0
LINE
  8
CutLine
  6
CONTINUOUS
 62
8
 10
1026.956746
 20
34.212679
 11
1024.544949
 21
40.859727
  0
LINE
  8
ValleyLine
  6
CONTINUOUS
 62
1
 10
914.585591
 20
534.419376
 11
981.484969
 21
516.616469
  0
LINE
  8
CutLine
  6
CONTINUOUS
 62
8
 10
981.484969
 20
516.616469
 11
918.107464
 21
601.296240
  0
LINE
  8
ValleyLine
  6
CONTINUOUS
 62
1
 10
918.107464
 20
601.296240
 11
914.585591
 21
534.419376
  0
LINE
  8
ValleyLine
  6
CONTINUOUS
 62
1
 10
1004.629335
 20
369.873077
 11
917.174544
 21
428.684401
  0
LINE
  8
CutLine
  6
CONTINUOUS
 62
8
 10
917.174544
 20
428.684401
 11
927.609409
 21
367.596234
  0
LINE
  8
CutLine
  6
CONTINUOUS
 62
8
 10
940.813024
 20
302.190958
 11
992.760888
 21
339.370399
  0
LINE
  8
ValleyLine
  6
CONTINUOUS
 62
1
 10
992.760888
 20
339.370399
 11
927.609409
 21
367.596234
  0
LINE
  8
ValleyLine
  6
CONTINUOUS
 62
1
 10
927.609409
 20
367.596234
 11
940.813024
 21
302.190958
  0
LINE
  8
MountainLine
  6
CONTINUOUS
 62
5
 10
992.760888
 20
339.370399
 11
1004.629335
 21
369.873077
  0
LINE
  8
CutLine
  6
CONTINUOUS
 62
8
 10
1028.128415
 20
398.036494
 11
1004.274110
 21
451.922206
  0
LINE
  8
ValleyLine
  6
CONTINUOUS
 62
1
 10
1004.274110
 20
451.922206
 11
1004.629335
 21
369.873077
  0
LINE
  8
CutLine
  6
CONTINUOUS
 62
8
 10
1004.629335
 20
369.873077
 11
1028.128415
 21
398.036494
  0
LINE
  8
MountainLine
  6
CONTINUOUS
 62
5
 10
1004.274110
 20
451.922206
 11
917.174544
 21
428.684401
  0
LINE
  8
ValleyLine
  6
CONTINUOUS
 62
1
 10
912.028674
 20
483.722226
 11
917.174544
 21
428.684401
  0
LINE
  8
ValleyLine
  6
CONTINUOUS
 62
1
 10
981.484969
 20
516.616469
 11
912.028674
 21
483.722226
  0
LINE
  8
ValleyLine
  6
CONTINUOUS
 62
1
 10
1004.274110
 20
451.922206
 11
981.484969
 21
516.616469
  0
LINE
  8
CutLine
  6
CONTINUOUS
 62
8
 10
914.585591
 20
534.419376
 11
912.028674
 21
483.722226
  0
LINE
  8
MountainLine
  6
CONTINUOUS
 62
5
 10
1088.705852
 20
537.499034
 11
1124.267879
 21
516.322575
  0
LINE
  8
ValleyLine
  6
CONTINUOUS
 62
1
 10
1124.267879
 20
516.322575
 11
1150.212519
 21
550.248668
  0
LINE
  8
CutLine
  6
CONTINUOUS
 62
8
 10
1150.212519
 20
550.248668
 11
1088.705852
 21
537.499034
  0
LINE
  8
ValleyLine
  6
CONTINUOUS
 62
1
 10
1012.352558
 20
480.201942
 11
1086.579007
 21
476.223934
  0
LINE
  8
MountainLine
  6
CONTINUOUS
 62
5
 10
1086.579007
 20
476.223934
 11
1088.705852
 21
537.499034
  0
LINE
  8
ValleyLine
  6
CONTINUOUS
 62
1
 10
1088.705852
 20
537.499034
 11
1012.352558
 21
480.201942
  0
LINE
  8
CutLine
  6
CONTINUOUS
 62
8
 10
1086.579007
 20
476.223934
 11
1124.267879
 21
516.322575
  0
LINE
  8
ValleyLine
  6
CONTINUOUS
 62
1
 10
1173.001156
 20
454.968189
 11
1184.179833
 21
453.611333
  0
LINE
  8
ValleyLine
  6
CONTINUOUS
 62
1
 10
1184.179833
 20
453.611333
 11
1194.261151
 21
507.860971
  0
LINE
  8
ValleyLine
  6
CONTINUOUS
 62
1
 10
1194.261151
 20
507.860971
 11
1178.012957
 21
509.602041
  0
LINE
  8
CutLine
  6
CONTINUOUS
 62
8
 10
1163.201800
 20
456.105562
 11
1173.001156
 21
454.968189
  0
LINE
  8
ValleyLine
  6
CONTINUOUS
 62
1
 10
1154.668795
 20
457.103307
 11
1163.201800
 21
456.105562
  0
LINE
  8
ValleyLine
  6
CONTINUOUS
 62
1
 10
1178.012957
 20
509.602041
 11
1154.668795
 21
457.103307
  0
LINE
  8
CutLine
  6
CONTINUOUS
 62
8
 10
1178.012957
 20
509.602041
 11
1139.617125
 21
490.897384
  0
LINE
  8
MountainLine
  6
CONTINUOUS
 62
5
 10
1139.617125
 20
490.897384
 11
1154.668795
 21
457.103307
  0
LINE
  8
ValleyLine
  6
CONTINUOUS
 62
1
 10
1139.617125
 20
490.897384
 11
1086.579007
 21
476.223934
  0
LINE
  8
ValleyLine
  6
CONTINUOUS
 62
1
 10
1086.579007
 20
476.223934
 11
1154.668795
 21
457.103307
  0
LINE
  8
CutLine
  6
CONTINUOUS
 62
8
 10
1085.115154
 20
406.804888
 11
1112.278136
 21
374.417835
  0
LINE
  8
MountainLine
  6
CONTINUOUS
 62
5
 10
1112.278136
 20
374.417835
 11
1086.579007
 21
476.223934
  0
LINE
  8
ValleyLine
  6
CONTINUOUS
 62
1
 10
1086.579007
 20
476.223934
 11
1085.115154
 21
406.804888
  0
LINE
  8
ValleyLine
  6
CONTINUOUS
 62
1
 10
1086.579007
 20
476.223934
 11
1164.999328
 21
357.168890
  0
LINE
  8
CutLine
  6
CONTINUOUS
 62
8
 10
1164.999328
 20
357.168890
 11
1154.668795
 21
457.103307
  0
LINE
  8
ValleyLine
  6
CONTINUOUS
 62
1
 10
1112.278136
 20
374.417835
 11
1164.999328
 21
357.168890
  0
LINE
  8
ValleyLine
  6
CONTINUOUS
 62
1
 10
1012.352558
 20
480.201942
 11
1085.115154
 21
406.804888
  0
LINE
  8
CutLine
  6
CONTINUOUS
 62
8
 10
1012.352558
 20
480.201942
 11
1033.816397
 21
387.185353
  0
LINE
  8
MountainLine
  6
CONTINUOUS
 62
5
 10
1033.816397
 20
387.185353
 11
1085.115154
 21
406.804888
  0
LINE
  8
CutLine
  6
CONTINUOUS
 62
8
 10
1067.157363
 20
314.937324
 11
1109.334799
 21
276.056551
  0
LINE
  8
ValleyLine
  6
CONTINUOUS
 62
1
 10
1109.334799
 20
276.056551
 11
1109.894325
 21
372.559575
  0
LINE
  8
ValleyLine
  6
CONTINUOUS
 62
1
 10
1033.816397
 20
387.185353
 11
1067.157363
 21
314.937324
  0
LINE
  8
ValleyLine
  6
CONTINUOUS
 62
1
 10
1109.894325
 20
372.559575
 11
1085.115154
 21
406.804888
  0
LINE
  8
MountainLine
  6
CONTINUOUS
 62
5
 10
1109.334799
 20
276.056551
 11
1196.199932
 21
274.617382
  0
LINE
  8
ValleyLine
  6
CONTINUOUS
 62
1
 10
1196.199932
 20
274.617382
 11
1152.795863
 21
337.395556
  0
LINE
  8
CutLine
  6
CONTINUOUS
 62
8
 10
1152.795863
 20
337.395556
 11
1109.894325
 21
372.559575
  0
LINE
  8
CutLine
  6
CONTINUOUS
 62
8
 10
1008.219757
 20
329.823038
 11
1067.157363
 21
314.937324
  0
LINE
  8
ValleyLine
  6
CONTINUOUS
 62
1
 10
1033.816397
 20
387.185353
 11
1008.219757
 21
329.823038
  0
LINE
  8
ValleyLine
  6
CONTINUOUS
 62
1
 10
1161.310706
 20
176.581874
 11
1113.296321
 21
133.387158
  0
LINE
  8
ValleyLine
  6
CONTINUOUS
 62
1
 10
1113.296321
 20
133.387158
 11
1157.402380
 21
115.919275
  0
LINE
  8
MountainLine
  6
CONTINUOUS
 62
5
 10
1157.402380
 20
115.919275
 11
1161.310706
 21
176.581874
  0
LINE
  8
MountainLine
  6
CONTINUOUS
 62
5
 10
1101.134361
 20
167.991660
 11
1113.296321
 21
133.387158
  0
LINE
  8
ValleyLine
  6
CONTINUOUS
 62
1
 10
1161.310706
 20
176.581874
 11
1101.134361
 21
167.991660
  0
LINE
  8
MountainLine
  6
CONTINUOUS
 62
5
 10
1190.611837
 20
69.145538
 11
1157.402380
 21
115.919275
  0
LINE
  8
MountainLine
  6
CONTINUOUS
 62
5
 10
1124.067040
 20
102.479796
 11
1190.611837
 21
69.145538
  0
LINE
  8
CutLine
  6
CONTINUOUS
 62
8
 10
1113.296321
 20
133.387158
 11
1124.067040
 21
102.479796
  0
LINE
  8
CutLine
  6
CONTINUOUS
 62
8
 10
1113.008274
 20
39.562429
 11
1190.611837
 21
69.145538
  0
LINE
  8
MountainLine
  6
CONTINUOUS
 62
5
 10
1124.067040
 20
102.479796
 11
1113.008274
 21
39.562429
  0
LINE
  8
ValleyLine
  6
CONTINUOUS
 62
1
 10
1052.813552
 20
237.440320
 11
1084.816728
 21
262.347294
  0
LINE
  8
ValleyLine
  6
CONTINUOUS
 62
1
 10
1084.816728
 20
262.347294
 11
1048.451222
 21
306.847027
  0
LINE
  8
CutLine
  6
CONTINUOUS
 62
8
 10
1048.451222
 20
306.847027
 11
1052.813552
 21
237.440320
  0
LINE
  8
MountainLine
  6
CONTINUOUS
 62
5
 10
1165.445724
 20
192.391263
 11
1052.813552
 21
237.440320
  0
LINE
  8
ValleyLine
  6
CONTINUOUS
 62
1
 10
1052.813552
 20
237.440320
 11
1101.134361
 21
167.991660
  0
LINE
  8
ValleyLine
  6
CONTINUOUS
 62
1
 10
1165.445724
 20
192.391263
 11
1084.816728
 21
262.347294
  0
LINE
  8
CutLine
  6
CONTINUOUS
 62
8
 10
1161.310706
 20
176.581874
 11
1165.445724
 21
192.391263
  0
LINE
  8
CutLine
  6
CONTINUOUS
 62
8
 10
902.400000
 20
218.531112
 11
904.718822
 21
219.974541
  0
LINE
  8
CutLine
  6
CONTINUOUS
 62
8
 10
904.718822
 20
219.974541
 11
902.400000
 21
220.835511
  0
LINE
  8
ValleyLine
  6
CONTINUOUS
 62
1
 10
1000.258339
 20
139.550037
 11
988.932853
 21
199.744134
  0
LINE
  8
ValleyLine
  6
CONTINUOUS
 62
1
 10
973.722411
 20
263.576050
 11
911.668452
 21
177.921639
  0
LINE
  8
CutLine
  6
CONTINUOUS
 62
8
 10
988.932853
 20
199.744134
 11
973.722411
 21
263.576050
  0
LINE
  8
MountainLine
  6
CONTINUOUS
 62
5
 10
918.208572
 20
109.643389
 11
1005.596477
 21
85.331926
  0
LINE
  8
CutLine
  6
CONTINUOUS
 62
8
 10
1005.596477
 20
85.331926
 11
1000.258339
 21
139.550037
  0
LINE
  8
CutLine
  6
CONTINUOUS
 62
8
 10
911.668452
 20
177.921639
 11
918.208572
 21
109.643389
  0
LINE
  8
CutLine
  6
CONTINUOUS
 62
8
 10
921.792189
 20
50.822853
 11
1005.446259
 21
38.173207
  0
LINE
  8
ValleyLine
  6
CONTINUOUS
 62
1
 10
1005.446259
 20
38.173207
 11
1005.596477
 21
85.331926
  0
LINE
  8
ValleyLine
  6
CONTINUOUS
 62
1
 10
1005.596477
 20
85.331926
 11
921.792189
 21
50.822853
  0
LINE
  8
ValleyLine
  6
CONTINUOUS
 62
1
 10
918.208572
 20
109.643389
 11
921.792189
 21
50.822853
  0
LINE
  8
CutLine
  6
CONTINUOUS
 62
8
 10
1012.813236
 20
86.536134
 11
1024.544949
 21
40.859727
  0
LINE
  8
MountainLine
  6
CONTINUOUS
 62
5
 10
1024.544949
 20
40.859727
 11
1084.510487
 21
78.061973
  0
LINE
  8
ValleyLine
  6
CONTINUOUS
 62
1
 10
1084.510487
 20
78.061973
 11
1012.813236
 21
86.536134
  0
LINE
  8
ValleyLine
  6
CONTINUOUS
 62
1
 10
1000.258339
 20
139.550037
 11
1012.813236
 21
86.536134
  0
LINE
  8
MountainLine
  6
CONTINUOUS
 62
5
 10
1012.813236
 20
86.536134
 11
1078.299225
 21
139.722907
  0
LINE
  8
ValleyLine
  6
CONTINUOUS
 62
1
 10
1078.299225
 20
139.722907
 11
1000.258339
 21
139.550037
  0
LINE
  8
ValleyLine
  6
CONTINUOUS
 62
1
 10
1084.510487
 20
78.061973
 11
1078.299225
 21
139.722907
  0
LINE
  8
MountainLine
  6
CONTINUOUS
 62
5
 10
1000.258339
 20
139.550037
 11
1063.439309
 21
192.965983
  0
LINE
  8
ValleyLine
  6
CONTINUOUS
 62
1
 10
1063.439309
 20
192.965983
 11
988.932853
 21
199.744134
  0
LINE
  8
CutLine
  6
CONTINUOUS
 62
8
 10
1078.299225
 20
139.722907
 11
1063.439309
 21
192.965983
  0
LINE
  8
ValleyLine
  6
CONTINUOUS
 62
1
 10
1063.439309
 20
192.965983
 11
1039.466870
 21
237.710379
  0
LINE
  8
MountainLine
  6
CONTINUOUS
 62
5
 10
1039.466870
 20
237.710379
 11
988.932853
 21
199.744134
  0
LINE
  8
CutLine
  6
CONTINUOUS
 62
8
 10
1039.466870
 20
237.710379
 11
978.070756
 21
264.458011
  0
LINE
  8
ValleyLine
  6
CONTINUOUS
 62
1
 10
978.070756
 20
264.458011
 11
988.932853
 21
199.744134
  0
LINE
  8
ValleyLine
  6
CONTINUOUS
 62
1
 10
1024.544949
 20
40.859727
 11
1087.543466
 21
11.406242
  0
LINE
  8
CutLine
  6
CONTINUOUS
 62
8
 10
1087.543466
 20
11.406242
 11
1084.510487
 21
78.061973
  0
ENDSEC
  0
EOF
