  0
SECTION
  2
HEADER
  9
$ACADVER
  1
AC1009
  0
ENDSEC
  0
SECTION
  2
BLOCKS
  0
ENDSEC
  0
SECTION
  2
ENTITIES
  0
LINE
  8
CutLine
  6
CONTINUOUS
 62
8
 10
1720.342102
 20
207.539188
 11
1715.173330
 21
202.713859
  0
LINE
  8
CutLine
  6
CONTINUOUS
 62
8
 10
1715.173330
 20
202.713859
 11
1687.007445
 21
203.681768
  0
LINE
  8
CutLine
  6
CONTINUOUS
 62
8
 10
1687.007445
 20
203.681768
 11
1677.508584
 21
209.011143
  0
LINE
  8
CutLine
  6
CONTINUOUS
 62
8
 10
1674.861793
 20
320.826352
 11
1702.803673
 21
323.772681
  0
LINE
  8
CutLine
  6
CONTINUOUS
 62
8
 10
1702.803673
 20
323.772681
 11
1726.825616
 21
321.995368
  0
LINE
  8
CutLine
  6
CONTINUOUS
 62
8
 10
1726.825616
 20
321.995368
 11
1731.443059
 21
316.640070
  0
LINE
  8
CutLine
  6
CONTINUOUS
 62
8
 10
1675.791037
 20
283.647951
 11
1670.681334
 21
288.535787
  0
LINE
  8
CutLine
  6
CONTINUOUS
 62
8
 10
1670.681334
 20
288.535787
 11
1670.540942
 21
294.861998
  0
LINE
  8
CutLine
  6
CONTINUOUS
 62
8
 10
1670.540942
 20
294.861998
 11
1675.405116
 21
299.946964
  0
LINE
  8
CutLine
  6
CONTINUOUS
 62
8
 10
1781.319826
 20
304.856197
 11
1784.631436
 21
298.608538
  0
LINE
  8
CutLine
  6
CONTINUOUS
 62
8
 10
1784.631436
 20
298.608538
 11
1783.395250
 21
294.583729
  0
LINE
  8
CutLine
  6
CONTINUOUS
 62
8
 10
1783.395250
 20
294.583729
 11
1777.147591
 21
291.272119
  0
LINE
  8
CutLine
  6
CONTINUOUS
 62
8
 10
1676.072805
 20
270.605872
 11
1670.967169
 21
275.497956
  0
LINE
  8
CutLine
  6
CONTINUOUS
 62
8
 10
1670.967169
 20
275.497956
 11
1670.901862
 21
278.555388
  0
LINE
  8
CutLine
  6
CONTINUOUS
 62
8
 10
1670.901862
 20
278.555388
 11
1675.786019
 21
283.652751
  0
LINE
  8
CutLine
  6
CONTINUOUS
 62
8
 10
1777.147591
 20
291.272119
 11
1780.851753
 21
285.248898
  0
LINE
  8
CutLine
  6
CONTINUOUS
 62
8
 10
1780.851753
 20
285.248898
 11
1779.468832
 21
279.448184
  0
LINE
  8
CutLine
  6
CONTINUOUS
 62
8
 10
1779.468832
 20
279.448184
 11
1773.445611
 21
275.744022
  0
LINE
  8
CutLine
  6
CONTINUOUS
 62
8
 10
1763.174300
 20
206.029233
 11
1743.549965
 21
201.717940
  0
LINE
  8
CutLine
  6
CONTINUOUS
 62
8
 10
1743.549965
 20
201.717940
 11
1725.162844
 21
202.366137
  0
LINE
  8
CutLine
  6
CONTINUOUS
 62
8
 10
1725.162844
 20
202.366137
 11
1720.342102
 21
207.539188
  0
LINE
  8
CutLine
  6
CONTINUOUS
 62
8
 10
1765.194340
 20
222.840150
 11
1769.562108
 21
217.279340
  0
LINE
  8
CutLine
  6
CONTINUOUS
 62
8
 10
1769.562108
 20
217.279340
 11
1768.735110
 21
210.397001
  0
LINE
  8
CutLine
  6
CONTINUOUS
 62
8
 10
1768.735110
 20
210.397001
 11
1763.174300
 21
206.029233
  0
LINE
  8
CutLine
  6
CONTINUOUS
 62
8
 10
1770.243497
 20
258.474227
 11
1774.436663
 21
252.780602
  0
LINE
  8
CutLine
  6
CONTINUOUS
 62
8
 10
1774.436663
 20
252.780602
 11
1773.198655
 21
244.623142
  0
LINE
  8
CutLine
  6
CONTINUOUS
 62
8
 10
1773.198655
 20
244.623142
 11
1767.505031
 21
240.429975
  0
LINE
  8
CutLine
  6
CONTINUOUS
 62
8
 10
1677.508584
 20
209.011143
 11
1672.186488
 21
218.096173
  0
LINE
  8
CutLine
  6
CONTINUOUS
 62
8
 10
1672.186488
 20
218.096173
 11
1676.858233
 21
227.532130
  0
LINE
  8
CutLine
  6
CONTINUOUS
 62
8
 10
1676.597973
 20
244.177152
 11
1671.503771
 21
249.081140
  0
LINE
  8
CutLine
  6
CONTINUOUS
 62
8
 10
1671.503771
 20
249.081140
 11
1671.427165
 21
253.107726
  0
LINE
  8
CutLine
  6
CONTINUOUS
 62
8
 10
1671.427165
 20
253.107726
 11
1676.331153
 21
258.201928
  0
LINE
  8
CutLine
  6
CONTINUOUS
 62
8
 10
1597.995563
 20
343.622947
 11
1593.066934
 21
338.552581
  0
LINE
  8
CutLine
  6
CONTINUOUS
 62
8
 10
1593.066934
 20
338.552581
 11
1545.419474
 21
337.877166
  0
LINE
  8
CutLine
  6
CONTINUOUS
 62
8
 10
1545.419474
 20
337.877166
 11
1533.094801
 21
342.702963
  0
LINE
  8
CutLine
  6
CONTINUOUS
 62
8
 10
1610.613240
 20
372.421410
 11
1613.130896
 21
365.708444
  0
LINE
  8
CutLine
  6
CONTINUOUS
 62
8
 10
1613.130896
 20
365.708444
 11
1604.581821
 21
346.196119
  0
LINE
  8
CutLine
  6
CONTINUOUS
 62
8
 10
1604.581821
 20
346.196119
 11
1597.995563
 21
343.622947
  0
LINE
  8
CutLine
  6
CONTINUOUS
 62
8
 10
1526.809569
 20
356.936040
 11
1519.928151
 21
358.562717
  0
LINE
  8
CutLine
  6
CONTINUOUS
 62
8
 10
1519.928151
 20
358.562717
 11
1516.152622
 21
364.675777
  0
LINE
  8
CutLine
  6
CONTINUOUS
 62
8
 10
1516.152622
 20
364.675777
 11
1517.779298
 21
371.557196
  0
LINE
  8
CutLine
  6
CONTINUOUS
 62
8
 10
1528.009749
 20
540.453000
 11
1521.570332
 21
543.374286
  0
LINE
  8
CutLine
  6
CONTINUOUS
 62
8
 10
1521.570332
 20
543.374286
 11
1518.846966
 21
550.620358
  0
LINE
  8
CutLine
  6
CONTINUOUS
 62
8
 10
1518.846966
 20
550.620358
 11
1521.768252
 21
557.059775
  0
LINE
  8
CutLine
  6
CONTINUOUS
 62
8
 10
1545.882162
 20
598.086190
 11
1553.700027
 21
596.626392
  0
LINE
  8
CutLine
  6
CONTINUOUS
 62
8
 10
1553.700027
 20
596.626392
 11
1605.466405
 21
535.950010
  0
LINE
  8
CutLine
  6
CONTINUOUS
 62
8
 10
1605.466405
 20
535.950010
 11
1604.907842
 21
528.901038
  0
LINE
  8
CutLine
  6
CONTINUOUS
 62
8
 10
1530.353628
 20
432.203573
 11
1528.280412
 21
438.963882
  0
LINE
  8
CutLine
  6
CONTINUOUS
 62
8
 10
1528.280412
 20
438.963882
 11
1528.880669
 21
440.095157
  0
LINE
  8
CutLine
  6
CONTINUOUS
 62
8
 10
1528.880669
 20
440.095157
 11
1535.640978
 21
442.168373
  0
LINE
  8
CutLine
  6
CONTINUOUS
 62
8
 10
1513.097733
 20
404.247953
 11
1511.479873
 21
411.082627
  0
LINE
  8
CutLine
  6
CONTINUOUS
 62
8
 10
1511.479873
 20
411.082627
 11
1518.335883
 21
412.607545
  0
LINE
  8
CutLine
  6
CONTINUOUS
 62
8
 10
1605.640607
 20
422.730041
 11
1597.627136
 21
415.431403
  0
LINE
  8
CutLine
  6
CONTINUOUS
 62
8
 10
1597.627136
 20
415.431403
 11
1514.647035
 21
393.419499
  0
LINE
  8
CutLine
  6
CONTINUOUS
 62
8
 10
1514.647035
 20
393.419499
 11
1508.532182
 21
396.970356
  0
LINE
  8
CutLine
  6
CONTINUOUS
 62
8
 10
1539.394302
 20
452.325048
 11
1535.288391
 21
458.081913
  0
LINE
  8
CutLine
  6
CONTINUOUS
 62
8
 10
1535.288391
 20
458.081913
 11
1535.497586
 21
459.331643
  0
LINE
  8
CutLine
  6
CONTINUOUS
 62
8
 10
1535.497586
 20
459.331643
 11
1541.254452
 21
463.437554
  0
LINE
  8
CutLine
  6
CONTINUOUS
 62
8
 10
1537.397300
 20
505.909857
 11
1531.381089
 21
509.625393
  0
LINE
  8
CutLine
  6
CONTINUOUS
 62
8
 10
1531.381089
 20
509.625393
 11
1529.640824
 21
516.986633
  0
LINE
  8
CutLine
  6
CONTINUOUS
 62
8
 10
1529.640824
 20
516.986633
 11
1533.356360
 21
523.002843
  0
LINE
  8
CutLine
  6
CONTINUOUS
 62
8
 10
1687.414976
 20
521.050810
 11
1683.351400
 21
526.837636
  0
LINE
  8
CutLine
  6
CONTINUOUS
 62
8
 10
1683.351400
 20
526.837636
 11
1684.045407
 21
530.804702
  0
LINE
  8
CutLine
  6
CONTINUOUS
 62
8
 10
1684.045407
 20
530.804702
 11
1689.832233
 21
534.868278
  0
LINE
  8
CutLine
  6
CONTINUOUS
 62
8
 10
1689.832233
 20
534.868278
 11
1685.749075
 21
540.641303
  0
LINE
  8
CutLine
  6
CONTINUOUS
 62
8
 10
1685.749075
 20
540.641303
 11
1686.872340
 21
547.192763
  0
LINE
  8
CutLine
  6
CONTINUOUS
 62
8
 10
1686.872340
 20
547.192763
 11
1692.645365
 21
551.275921
  0
LINE
  8
CutLine
  6
CONTINUOUS
 62
8
 10
1780.236520
 20
524.611602
 11
1785.218727
 21
519.593872
  0
LINE
  8
CutLine
  6
CONTINUOUS
 62
8
 10
1785.218727
 20
519.593872
 11
1785.189417
 21
511.343055
  0
LINE
  8
CutLine
  6
CONTINUOUS
 62
8
 10
1785.189417
 20
511.343055
 11
1780.171687
 21
506.360848
  0
LINE
  8
CutLine
  6
CONTINUOUS
 62
8
 10
1781.239625
 20
559.269358
 11
1786.063781
 21
554.099491
  0
LINE
  8
CutLine
  6
CONTINUOUS
 62
8
 10
1786.063781
 20
554.099491
 11
1785.824141
 21
547.171787
  0
LINE
  8
CutLine
  6
CONTINUOUS
 62
8
 10
1785.824141
 20
547.171787
 11
1780.654274
 21
542.347631
  0
LINE
  8
CutLine
  6
CONTINUOUS
 62
8
 10
1682.981281
 20
495.932447
 11
1678.926243
 21
501.725258
  0
LINE
  8
CutLine
  6
CONTINUOUS
 62
8
 10
1678.926243
 20
501.725258
 11
1679.457676
 21
504.736858
  0
LINE
  8
CutLine
  6
CONTINUOUS
 62
8
 10
1679.457676
 20
504.736858
 11
1685.250488
 21
508.791897
  0
LINE
  8
CutLine
  6
CONTINUOUS
 62
8
 10
1780.696618
 20
488.844460
 11
1786.084686
 21
484.265299
  0
LINE
  8
CutLine
  6
CONTINUOUS
 62
8
 10
1786.084686
 20
484.265299
 11
1786.566566
 21
478.327647
  0
LINE
  8
CutLine
  6
CONTINUOUS
 62
8
 10
1786.566566
 20
478.327647
 11
1781.991180
 21
472.944020
  0
LINE
  8
CutLine
  6
CONTINUOUS
 62
8
 10
1680.134766
 20
479.854717
 11
1676.083014
 21
485.649828
  0
LINE
  8
CutLine
  6
CONTINUOUS
 62
8
 10
1676.083014
 20
485.649828
 11
1677.186170
 21
491.880694
  0
LINE
  8
CutLine
  6
CONTINUOUS
 62
8
 10
1677.186170
 20
491.880694
 11
1682.981281
 21
495.932447
  0
LINE
  8
CutLine
  6
CONTINUOUS
 62
8
 10
1781.992094
 20
472.945096
 11
1787.673471
 21
468.737875
  0
LINE
  8
CutLine
  6
CONTINUOUS
 62
8
 10
1787.673471
 20
468.737875
 11
1788.282707
 21
464.651133
  0
LINE
  8
CutLine
  6
CONTINUOUS
 62
8
 10
1788.282707
 20
464.651133
 11
1784.112634
 21
459.019919
  0
LINE
  8
CutLine
  6
CONTINUOUS
 62
8
 10
1676.456468
 20
459.144943
 11
1672.407889
 21
464.942270
  0
LINE
  8
CutLine
  6
CONTINUOUS
 62
8
 10
1672.407889
 20
464.942270
 11
1674.337439
 21
475.806138
  0
LINE
  8
CutLine
  6
CONTINUOUS
 62
8
 10
1674.337439
 20
475.806138
 11
1680.134766
 21
479.854717
  0
LINE
  8
CutLine
  6
CONTINUOUS
 62
8
 10
1784.126662
 20
459.038862
 11
1790.041663
 21
455.210061
  0
LINE
  8
CutLine
  6
CONTINUOUS
 62
8
 10
1790.041663
 20
455.210061
 11
1790.581794
 21
452.687324
  0
LINE
  8
CutLine
  6
CONTINUOUS
 62
8
 10
1790.581794
 20
452.687324
 11
1786.739403
 21
446.751329
  0
LINE
  8
CutLine
  6
CONTINUOUS
 62
8
 10
1733.029002
 20
454.842256
 11
1727.664216
 21
450.235841
  0
LINE
  8
CutLine
  6
CONTINUOUS
 62
8
 10
1727.664216
 20
450.235841
 11
1703.645981
 21
452.062574
  0
LINE
  8
CutLine
  6
CONTINUOUS
 62
8
 10
1703.645981
 20
452.062574
 11
1676.456468
 21
459.144943
  0
LINE
  8
CutLine
  6
CONTINUOUS
 62
8
 10
1678.995093
 20
427.812851
 11
1685.720032
 21
425.627628
  0
LINE
  8
CutLine
  6
CONTINUOUS
 62
8
 10
1685.720032
 20
425.627628
 11
1705.857103
 21
386.104325
  0
LINE
  8
CutLine
  6
CONTINUOUS
 62
8
 10
1705.857103
 20
386.104325
 11
1703.671879
 21
379.379386
  0
LINE
  8
CutLine
  6
CONTINUOUS
 62
8
 10
1696.579975
 20
370.624225
 11
1697.723294
 21
363.646201
  0
LINE
  8
CutLine
  6
CONTINUOUS
 62
8
 10
1697.723294
 20
363.646201
 11
1697.240183
 21
362.973757
  0
LINE
  8
CutLine
  6
CONTINUOUS
 62
8
 10
1697.240183
 20
362.973757
 11
1690.262159
 21
361.830438
  0
LINE
  8
CutLine
  6
CONTINUOUS
 62
8
 10
1651.084940
 20
400.475502
 11
1650.624827
 21
407.531585
  0
LINE
  8
CutLine
  6
CONTINUOUS
 62
8
 10
1650.624827
 20
407.531585
 11
1654.291572
 21
411.709890
  0
LINE
  8
CutLine
  6
CONTINUOUS
 62
8
 10
1654.291572
 20
411.709890
 11
1661.347654
 21
412.170003
  0
LINE
  8
CutLine
  6
CONTINUOUS
 62
8
 10
1684.175055
 20
352.333046
 11
1685.951877
 21
345.488858
  0
LINE
  8
CutLine
  6
CONTINUOUS
 62
8
 10
1685.951877
 20
345.488858
 11
1685.076506
 21
343.999605
  0
LINE
  8
CutLine
  6
CONTINUOUS
 62
8
 10
1685.076506
 20
343.999605
 11
1678.232318
 21
342.222783
  0
LINE
  8
CutLine
  6
CONTINUOUS
 62
8
 10
1631.867566
 20
372.138763
 11
1630.253046
 21
379.023044
  0
LINE
  8
CutLine
  6
CONTINUOUS
 62
8
 10
1630.253046
 20
379.023044
 11
1633.985108
 21
385.041920
  0
LINE
  8
CutLine
  6
CONTINUOUS
 62
8
 10
1633.985108
 20
385.041920
 11
1640.869389
 21
386.656440
  0
LINE
  8
CutLine
  6
CONTINUOUS
 62
8
 10
1627.476250
 20
467.413221
 11
1630.156883
 21
473.956477
  0
LINE
  8
CutLine
  6
CONTINUOUS
 62
8
 10
1630.156883
 20
473.956477
 11
1644.180871
 21
479.829203
  0
LINE
  8
CutLine
  6
CONTINUOUS
 62
8
 10
1644.180871
 20
479.829203
 11
1650.724127
 21
477.148569
  0
LINE
  8
CutLine
  6
CONTINUOUS
 62
8
 10
1701.790756
 20
165.978223
 11
1706.762537
 21
171.006283
  0
LINE
  8
CutLine
  6
CONTINUOUS
 62
8
 10
1706.762537
 20
171.006283
 11
1712.321518
 21
171.037568
  0
LINE
  8
CutLine
  6
CONTINUOUS
 62
8
 10
1712.321518
 20
171.037568
 11
1717.349578
 21
166.065786
  0
LINE
  8
CutLine
  6
CONTINUOUS
 62
8
 10
1668.065655
 20
171.879188
 11
1674.016831
 21
175.698022
  0
LINE
  8
CutLine
  6
CONTINUOUS
 62
8
 10
1674.016831
 20
175.698022
 11
1680.935983
 21
174.187891
  0
LINE
  8
CutLine
  6
CONTINUOUS
 62
8
 10
1680.935983
 20
174.187891
 11
1684.754817
 21
168.236714
  0
LINE
  8
CutLine
  6
CONTINUOUS
 62
8
 10
1689.195913
 20
67.244617
 11
1683.305113
 21
71.155943
  0
LINE
  8
CutLine
  6
CONTINUOUS
 62
8
 10
1683.305113
 20
71.155943
 11
1666.015361
 21
156.772775
  0
LINE
  8
CutLine
  6
CONTINUOUS
 62
8
 10
1666.015361
 20
156.772775
 11
1668.065655
 21
171.879188
  0
LINE
  8
CutLine
  6
CONTINUOUS
 62
8
 10
1721.944705
 20
83.173209
 11
1719.635321
 21
76.489891
  0
LINE
  8
CutLine
  6
CONTINUOUS
 62
8
 10
1719.635321
 20
76.489891
 11
1695.879232
 21
64.935234
  0
LINE
  8
CutLine
  6
CONTINUOUS
 62
8
 10
1695.879232
 20
64.935234
 11
1689.195913
 21
67.244617
  0
LINE
  8
CutLine
  6
CONTINUOUS
 62
8
 10
1528.004383
 20
48.499412
 11
1525.178456
 21
54.981244
  0
LINE
  8
CutLine
  6
CONTINUOUS
 62
8
 10
1525.178456
 20
54.981244
 11
1528.008473
 21
62.186332
  0
LINE
  8
CutLine
  6
CONTINUOUS
 62
8
 10
1528.008473
 20
62.186332
 11
1534.490304
 21
65.012258
  0
LINE
  8
CutLine
  6
CONTINUOUS
 62
8
 10
1551.510142
 20
7.121560
 11
1544.461306
 21
6.561275
  0
LINE
  8
CutLine
  6
CONTINUOUS
 62
8
 10
1544.461306
 20
6.561275
 11
1521.694785
 21
25.975043
  0
LINE
  8
CutLine
  6
CONTINUOUS
 62
8
 10
1521.694785
 20
25.975043
 11
1521.134499
 21
33.023878
  0
LINE
  8
CutLine
  6
CONTINUOUS
 62
8
 10
1538.431620
 20
173.215300
 11
1531.592730
 21
175.012403
  0
LINE
  8
CutLine
  6
CONTINUOUS
 62
8
 10
1531.592730
 20
175.012403
 11
1530.721777
 21
176.504245
  0
LINE
  8
CutLine
  6
CONTINUOUS
 62
8
 10
1530.721777
 20
176.504245
 11
1532.518880
 21
183.343135
  0
LINE
  8
CutLine
  6
CONTINUOUS
 62
8
 10
1526.704409
 20
192.986567
 11
1519.871652
 21
194.612509
  0
LINE
  8
CutLine
  6
CONTINUOUS
 62
8
 10
1519.871652
 20
194.612509
 11
1521.590212
 21
201.422561
  0
LINE
  8
CutLine
  6
CONTINUOUS
 62
8
 10
1517.132571
 20
208.766749
 11
1523.299165
 21
212.226968
  0
LINE
  8
CutLine
  6
CONTINUOUS
 62
8
 10
1523.299165
 20
212.226968
 11
1605.945347
 21
188.992729
  0
LINE
  8
CutLine
  6
CONTINUOUS
 62
8
 10
1605.945347
 20
188.992729
 11
1613.850222
 21
181.576613
  0
LINE
  8
CutLine
  6
CONTINUOUS
 62
8
 10
1548.870263
 20
141.823832
 11
1543.174625
 21
146.014263
  0
LINE
  8
CutLine
  6
CONTINUOUS
 62
8
 10
1543.174625
 20
146.014263
 11
1542.983898
 21
147.266945
  0
LINE
  8
CutLine
  6
CONTINUOUS
 62
8
 10
1542.983898
 20
147.266945
 11
1547.174329
 21
152.962582
  0
LINE
  8
CutLine
  6
CONTINUOUS
 62
8
 10
1548.785188
 20
129.244208
 11
1543.819116
 21
134.277907
  0
LINE
  8
CutLine
  6
CONTINUOUS
 62
8
 10
1543.819116
 20
134.277907
 11
1543.836563
 21
136.857760
  0
LINE
  8
CutLine
  6
CONTINUOUS
 62
8
 10
1543.836563
 20
136.857760
 11
1548.870263
 21
141.823832
  0
LINE
  8
CutLine
  6
CONTINUOUS
 62
8
 10
1547.174329
 20
152.962582
 11
1540.795505
 21
156.013912
  0
LINE
  8
CutLine
  6
CONTINUOUS
 62
8
 10
1540.795505
 20
156.013912
 11
1540.519990
 21
156.794724
  0
LINE
  8
CutLine
  6
CONTINUOUS
 62
8
 10
1540.519990
 20
156.794724
 11
1543.571320
 21
163.173547
  0
LINE
  8
CutLine
  6
CONTINUOUS
 62
8
 10
1540.093886
 20
82.381601
 11
1536.467550
 21
88.451996
  0
LINE
  8
CutLine
  6
CONTINUOUS
 62
8
 10
1536.467550
 20
88.451996
 11
1538.316273
 21
95.786748
  0
LINE
  8
CutLine
  6
CONTINUOUS
 62
8
 10
1538.316273
 20
95.786748
 11
1544.386667
 21
99.413084
  0
LINE
  8
CutLine
  6
CONTINUOUS
 62
8
 10
1648.637634
 20
69.497539
 11
1642.910858
 21
65.349764
  0
LINE
  8
CutLine
  6
CONTINUOUS
 62
8
 10
1642.910858
 20
65.349764
 11
1621.791166
 21
68.726932
  0
LINE
  8
CutLine
  6
CONTINUOUS
 62
8
 10
1621.791166
 20
68.726932
 11
1611.550521
 21
75.427996
  0
LINE
  8
CutLine
  6
CONTINUOUS
 62
8
 10
1630.736230
 20
107.146275
 11
1637.398839
 21
104.777807
  0
LINE
  8
CutLine
  6
CONTINUOUS
 62
8
 10
1637.398839
 20
104.777807
 11
1651.006102
 21
76.160148
  0
LINE
  8
CutLine
  6
CONTINUOUS
 62
8
 10
1651.006102
 20
76.160148
 11
1648.637634
 21
69.497539
  0
LINE
  8
CutLine
  6
CONTINUOUS
 62
8
 10
1579.004870
 20
265.620854
 11
1572.768534
 21
262.287969
  0
LINE
  8
CutLine
  6
CONTINUOUS
 62
8
 10
1572.768534
 20
262.287969
 11
1565.893056
 21
264.374097
  0
LINE
  8
CutLine
  6
CONTINUOUS
 62
8
 10
1565.893056
 20
264.374097
 11
1562.560172
 21
270.610433
  0
LINE
  8
CutLine
  6
CONTINUOUS
 62
8
 10
1576.817323
 20
323.997788
 11
1583.261664
 21
326.908197
  0
LINE
  8
CutLine
  6
CONTINUOUS
 62
8
 10
1583.261664
 20
326.908197
 11
1584.459689
 21
326.455620
  0
LINE
  8
CutLine
  6
CONTINUOUS
 62
8
 10
1584.459689
 20
326.455620
 11
1587.370098
 21
320.011280
  0
LINE
  8
CutLine
  6
CONTINUOUS
 62
8
 10
1546.672264
 20
276.884995
 11
1543.742232
 21
283.320437
  0
LINE
  8
CutLine
  6
CONTINUOUS
 62
8
 10
1543.742232
 20
283.320437
 11
1555.531185
 21
314.817222
  0
LINE
  8
CutLine
  6
CONTINUOUS
 62
8
 10
1555.531185
 20
314.817222
 11
1566.014555
 21
328.562185
  0
LINE
  8
CutLine
  6
CONTINUOUS
 62
8
 10
1598.467911
 20
198.107120
 11
1591.876410
 21
222.517929
  0
LINE
  8
CutLine
  6
CONTINUOUS
 62
8
 10
1591.876410
 20
222.517929
 11
1589.606437
 21
257.565986
  0
LINE
  8
CutLine
  6
CONTINUOUS
 62
8
 10
1589.606437
 20
257.565986
 11
1593.883812
 21
262.435801
  0
LINE
  8
CutLine
  6
CONTINUOUS
 62
8
 10
1623.072685
 20
203.570261
 11
1619.275342
 21
197.605348
  0
LINE
  8
CutLine
  6
CONTINUOUS
 62
8
 10
1619.275342
 20
197.605348
 11
1604.432824
 21
194.309777
  0
LINE
  8
CutLine
  6
CONTINUOUS
 62
8
 10
1604.432824
 20
194.309777
 11
1598.467911
 21
198.107120
  0
LINE
  8
CutLine
  6
CONTINUOUS
 62
8
 10
1608.598316
 20
313.782429
 11
1614.364206
 21
309.689202
  0
LINE
  8
CutLine
  6
CONTINUOUS
 62
8
 10
1614.364206
 20
309.689202
 11
1621.780288
 21
265.976857
  0
LINE
  8
CutLine
  6
CONTINUOUS
 62
8
 10
1621.780288
 20
265.976857
 11
1617.687060
 21
260.210967
  0
LINE
  8
MountainLine
  6
CONTINUOUS
 62
5
 10
1677.508584
 20
209.011143
 11
1720.342102
 21
207.539188
  0
LINE
  8
ValleyLine
  6
CONTINUOUS
 62
1
 10
1675.408952
 20
299.799577
 11
1729.907938
 21
307.442817
  0
LINE
  8
MountainLine
  6
CONTINUOUS
 62
5
 10
1729.907938
 20
307.442817
 11
1674.861793
 21
320.826352
  0
LINE
  8
CutLine
  6
CONTINUOUS
 62
8
 10
1674.861793
 20
320.826352
 11
1675.408952
 21
299.799577
  0
LINE
  8
MountainLine
  6
CONTINUOUS
 62
5
 10
1781.319826
 20
304.856197
 11
1729.907938
 21
307.442817
  0
LINE
  8
CutLine
  6
CONTINUOUS
 62
8
 10
1781.319826
 20
304.856197
 11
1785.759448
 21
316.626666
  0
LINE
  8
CutLine
  6
CONTINUOUS
 62
8
 10
1785.759448
 20
316.626666
 11
1731.443059
 21
316.640070
  0
LINE
  8
MountainLine
  6
CONTINUOUS
 62
5
 10
1731.443059
 20
316.640070
 11
1674.861793
 21
320.826352
  0
LINE
  8
MountainLine
  6
CONTINUOUS
 62
5
 10
1675.418865
 20
299.885639
 11
1727.699772
 21
292.550459
  0
LINE
  8
ValleyLine
  6
CONTINUOUS
 62
1
 10
1675.791037
 20
283.647951
 11
1727.699772
 21
292.550459
  0
LINE
  8
ValleyLine
  6
CONTINUOUS
 62
1
 10
1675.428778
 20
299.971700
 11
1675.791037
 21
283.647951
  0
LINE
  8
ValleyLine
  6
CONTINUOUS
 62
1
 10
1777.147591
 20
291.272119
 11
1781.319826
 21
304.856197
  0
LINE
  8
ValleyLine
  6
CONTINUOUS
 62
1
 10
1675.793946
 20
283.661024
 11
1676.072805
 21
270.605872
  0
LINE
  8
ValleyLine
  6
CONTINUOUS
 62
1
 10
1773.445611
 20
275.744022
 11
1777.147591
 21
291.272119
  0
LINE
  8
MountainLine
  6
CONTINUOUS
 62
5
 10
1676.330119
 20
258.226154
 11
1723.371469
 21
252.489590
  0
LINE
  8
MountainLine
  6
CONTINUOUS
 62
5
 10
1676.597973
 20
244.177152
 11
1722.546608
 21
241.706601
  0
LINE
  8
MountainLine
  6
CONTINUOUS
 62
5
 10
1676.858233
 20
227.532130
 11
1721.768530
 21
229.987777
  0
LINE
  8
MountainLine
  6
CONTINUOUS
 62
5
 10
1720.342102
 20
207.539188
 11
1763.174300
 21
206.029233
  0
LINE
  8
MountainLine
  6
CONTINUOUS
 62
5
 10
1763.174300
 20
206.029233
 11
1721.043542
 21
218.452135
  0
LINE
  8
MountainLine
  6
CONTINUOUS
 62
5
 10
1765.194340
 20
222.840150
 11
1721.768530
 21
229.987777
  0
LINE
  8
ValleyLine
  6
CONTINUOUS
 62
1
 10
1763.174300
 20
206.029233
 11
1765.194340
 21
222.840150
  0
LINE
  8
CutLine
  6
CONTINUOUS
 62
8
 10
1765.194340
 20
222.840150
 11
1767.505031
 21
240.429975
  0
LINE
  8
ValleyLine
  6
CONTINUOUS
 62
1
 10
1767.505031
 20
240.429975
 11
1770.243497
 21
258.474227
  0
LINE
  8
MountainLine
  6
CONTINUOUS
 62
5
 10
1722.546608
 20
241.706601
 11
1767.505031
 21
240.429975
  0
LINE
  8
ValleyLine
  6
CONTINUOUS
 62
1
 10
1676.858233
 20
227.532130
 11
1677.508584
 21
209.011143
  0
LINE
  8
CutLine
  6
CONTINUOUS
 62
8
 10
1676.597973
 20
244.177152
 11
1676.858233
 21
227.532130
  0
LINE
  8
ValleyLine
  6
CONTINUOUS
 62
1
 10
1676.331153
 20
258.201928
 11
1676.597973
 21
244.177152
  0
LINE
  8
MountainLine
  6
CONTINUOUS
 62
5
 10
1676.073791
 20
270.626846
 11
1724.944775
 21
269.046005
  0
LINE
  8
CutLine
  6
CONTINUOUS
 62
8
 10
1676.074778
 20
270.647820
 11
1676.329085
 21
258.250380
  0
LINE
  8
CutLine
  6
CONTINUOUS
 62
8
 10
1770.243497
 20
258.474227
 11
1773.445611
 21
275.744022
  0
LINE
  8
MountainLine
  6
CONTINUOUS
 62
5
 10
1533.094801
 20
342.702963
 11
1597.995563
 21
343.622947
  0
LINE
  8
ValleyLine
  6
CONTINUOUS
 62
1
 10
1597.995563
 20
343.622947
 11
1526.809569
 21
356.936040
  0
LINE
  8
CutLine
  6
CONTINUOUS
 62
8
 10
1526.809569
 20
356.936040
 11
1533.094801
 21
342.702963
  0
LINE
  8
ValleyLine
  6
CONTINUOUS
 62
1
 10
1597.995563
 20
343.622947
 11
1610.613240
 21
372.421410
  0
LINE
  8
MountainLine
  6
CONTINUOUS
 62
5
 10
1610.613240
 20
372.421410
 11
1526.809569
 21
356.936040
  0
LINE
  8
CutLine
  6
CONTINUOUS
 62
8
 10
1610.613240
 20
372.421410
 11
1611.750337
 21
408.820728
  0
LINE
  8
MountainLine
  6
CONTINUOUS
 62
5
 10
1611.750337
 20
408.820728
 11
1517.779298
 21
371.557196
  0
LINE
  8
ValleyLine
  6
CONTINUOUS
 62
1
 10
1517.779298
 20
371.557196
 11
1610.613240
 21
372.421410
  0
LINE
  8
CutLine
  6
CONTINUOUS
 62
8
 10
1507.628025
 20
385.295734
 11
1517.779298
 21
371.557196
  0
LINE
  8
CutLine
  6
CONTINUOUS
 62
8
 10
1611.750337
 20
408.820728
 11
1507.628025
 21
385.295734
  0
LINE
  8
ValleyLine
  6
CONTINUOUS
 62
1
 10
1517.779298
 20
371.557196
 11
1526.809569
 21
356.936040
  0
LINE
  8
CutLine
  6
CONTINUOUS
 62
8
 10
1528.009749
 20
540.453000
 11
1533.356360
 21
523.002843
  0
LINE
  8
ValleyLine
  6
CONTINUOUS
 62
1
 10
1521.768252
 20
557.059775
 11
1528.009749
 21
540.453000
  0
LINE
  8
CutLine
  6
CONTINUOUS
 62
8
 10
1515.127527
 20
572.635019
 11
1521.768252
 21
557.059775
  0
LINE
  8
CutLine
  6
CONTINUOUS
 62
8
 10
1545.882162
 20
598.086190
 11
1515.127527
 21
572.635019
  0
LINE
  8
ValleyLine
  6
CONTINUOUS
 62
1
 10
1604.907842
 20
528.901038
 11
1545.882162
 21
598.086190
  0
LINE
  8
ValleyLine
  6
CONTINUOUS
 62
1
 10
1535.640978
 20
442.168373
 11
1530.353628
 21
432.203573
  0
LINE
  8
CutLine
  6
CONTINUOUS
 62
8
 10
1530.353628
 20
432.203573
 11
1524.292052
 21
422.164109
  0
LINE
  8
CutLine
  6
CONTINUOUS
 62
8
 10
1524.292052
 20
422.164109
 11
1518.335883
 21
412.607545
  0
LINE
  8
ValleyLine
  6
CONTINUOUS
 62
1
 10
1518.335883
 20
412.607545
 11
1513.097733
 21
404.247953
  0
LINE
  8
CutLine
  6
CONTINUOUS
 62
8
 10
1513.097733
 20
404.247953
 11
1508.532182
 21
396.970356
  0
LINE
  8
ValleyLine
  6
CONTINUOUS
 62
1
 10
1508.532182
 20
396.970356
 11
1605.640607
 21
422.730041
  0
LINE
  8
CutLine
  6
CONTINUOUS
 62
8
 10
1540.034871
 20
490.165980
 11
1541.355054
 21
476.017064
  0
LINE
  8
ValleyLine
  6
CONTINUOUS
 62
1
 10
1541.254452
 20
463.437554
 11
1539.394302
 21
452.325048
  0
LINE
  8
CutLine
  6
CONTINUOUS
 62
8
 10
1605.640607
 20
422.730041
 11
1623.623320
 21
496.903044
  0
LINE
  8
CutLine
  6
CONTINUOUS
 62
8
 10
1541.355054
 20
476.017064
 11
1541.254452
 21
463.437554
  0
LINE
  8
CutLine
  6
CONTINUOUS
 62
8
 10
1539.394302
 20
452.325048
 11
1535.640978
 21
442.168373
  0
LINE
  8
ValleyLine
  6
CONTINUOUS
 62
1
 10
1533.356360
 20
523.002843
 11
1537.397300
 21
505.909857
  0
LINE
  8
CutLine
  6
CONTINUOUS
 62
8
 10
1537.397300
 20
505.909857
 11
1540.034871
 21
490.165980
  0
LINE
  8
CutLine
  6
CONTINUOUS
 62
8
 10
1623.623320
 20
496.903044
 11
1642.078445
 21
534.283466
  0
LINE
  8
CutLine
  6
CONTINUOUS
 62
8
 10
1642.078445
 20
534.283466
 11
1604.907842
 21
528.901038
  0
LINE
  8
CutLine
  6
CONTINUOUS
 62
8
 10
1738.683562
 20
564.354493
 11
1696.132029
 21
569.477379
  0
LINE
  8
ValleyLine
  6
CONTINUOUS
 62
1
 10
1689.832233
 20
534.868278
 11
1687.414976
 21
521.050810
  0
LINE
  8
MountainLine
  6
CONTINUOUS
 62
5
 10
1687.414976
 20
521.050810
 11
1734.775457
 21
519.471961
  0
LINE
  8
ValleyLine
  6
CONTINUOUS
 62
1
 10
1692.645365
 20
551.275921
 11
1689.832233
 21
534.868278
  0
LINE
  8
MountainLine
  6
CONTINUOUS
 62
5
 10
1689.832233
 20
534.868278
 11
1735.615278
 21
530.253795
  0
LINE
  8
MountainLine
  6
CONTINUOUS
 62
5
 10
1736.645935
 20
541.953111
 11
1692.645365
 21
551.275921
  0
LINE
  8
CutLine
  6
CONTINUOUS
 62
8
 10
1780.236520
 20
524.611602
 11
1780.654274
 21
542.347631
  0
LINE
  8
MountainLine
  6
CONTINUOUS
 62
5
 10
1780.654274
 20
542.347631
 11
1736.645935
 21
541.953111
  0
LINE
  8
ValleyLine
  6
CONTINUOUS
 62
1
 10
1780.171687
 20
506.360848
 11
1780.236520
 21
524.611602
  0
LINE
  8
MountainLine
  6
CONTINUOUS
 62
5
 10
1780.236520
 20
524.611602
 11
1735.615278
 21
530.253795
  0
LINE
  8
ValleyLine
  6
CONTINUOUS
 62
1
 10
1780.654274
 20
542.347631
 11
1781.239625
 21
559.269358
  0
LINE
  8
MountainLine
  6
CONTINUOUS
 62
5
 10
1781.239625
 20
559.269358
 11
1737.700206
 21
553.463330
  0
LINE
  8
CutLine
  6
CONTINUOUS
 62
8
 10
1781.239625
 20
559.269358
 11
1738.683562
 21
564.354493
  0
LINE
  8
CutLine
  6
CONTINUOUS
 62
8
 10
1696.132029
 20
569.477379
 11
1692.645365
 21
551.275921
  0
LINE
  8
CutLine
  6
CONTINUOUS
 62
8
 10
1687.405492
 20
521.003250
 11
1685.250488
 21
508.791897
  0
LINE
  8
MountainLine
  6
CONTINUOUS
 62
5
 10
1685.250488
 20
508.791897
 11
1733.786847
 21
502.870386
  0
LINE
  8
CutLine
  6
CONTINUOUS
 62
8
 10
1780.690272
 20
488.824315
 11
1780.171687
 21
506.360848
  0
LINE
  8
ValleyLine
  6
CONTINUOUS
 62
1
 10
1685.250488
 20
508.791897
 11
1682.981281
 21
495.932447
  0
LINE
  8
ValleyLine
  6
CONTINUOUS
 62
1
 10
1781.987405
 20
472.939578
 11
1780.696618
 21
488.844460
  0
LINE
  8
ValleyLine
  6
CONTINUOUS
 62
1
 10
1732.926145
 20
479.220713
 11
1682.981281
 21
495.932447
  0
LINE
  8
ValleyLine
  6
CONTINUOUS
 62
1
 10
1682.981281
 20
495.932447
 11
1680.134766
 21
479.854717
  0
LINE
  8
MountainLine
  6
CONTINUOUS
 62
5
 10
1680.134766
 20
479.854717
 11
1732.926145
 21
479.220713
  0
LINE
  8
ValleyLine
  6
CONTINUOUS
 62
1
 10
1784.074592
 20
458.968548
 11
1781.990886
 21
472.945990
  0
LINE
  8
ValleyLine
  6
CONTINUOUS
 62
1
 10
1732.883325
 20
464.165605
 11
1680.134766
 21
479.854717
  0
LINE
  8
ValleyLine
  6
CONTINUOUS
 62
1
 10
1680.134766
 20
479.854717
 11
1676.456468
 21
459.144943
  0
LINE
  8
MountainLine
  6
CONTINUOUS
 62
5
 10
1676.456468
 20
459.144943
 11
1732.883325
 21
464.165605
  0
LINE
  8
MountainLine
  6
CONTINUOUS
 62
5
 10
1732.883325
 20
464.165605
 11
1784.105668
 21
459.052452
  0
LINE
  8
ValleyLine
  6
CONTINUOUS
 62
1
 10
1786.739403
 20
446.751329
 11
1784.105668
 21
459.052452
  0
LINE
  8
CutLine
  6
CONTINUOUS
 62
8
 10
1733.029002
 20
454.842256
 11
1786.739403
 21
446.751329
  0
LINE
  8
MountainLine
  6
CONTINUOUS
 62
5
 10
1676.456468
 20
459.144943
 11
1733.029002
 21
454.842256
  0
LINE
  8
MountainLine
  6
CONTINUOUS
 62
5
 10
1670.668095
 20
421.076554
 11
1696.579975
 21
370.624225
  0
LINE
  8
CutLine
  6
CONTINUOUS
 62
8
 10
1696.579975
 20
370.624225
 11
1703.671879
 21
379.379386
  0
LINE
  8
ValleyLine
  6
CONTINUOUS
 62
1
 10
1678.995093
 20
427.812851
 11
1670.668095
 21
421.076554
  0
LINE
  8
MountainLine
  6
CONTINUOUS
 62
5
 10
1703.671879
 20
379.379386
 11
1678.995093
 21
427.812851
  0
LINE
  8
MountainLine
  6
CONTINUOUS
 62
5
 10
1650.738729
 20
477.059786
 11
1670.668095
 21
421.076554
  0
LINE
  8
MountainLine
  6
CONTINUOUS
 62
5
 10
1661.347654
 20
412.170003
 11
1690.262159
 21
361.830438
  0
LINE
  8
ValleyLine
  6
CONTINUOUS
 62
1
 10
1690.262159
 20
361.830438
 11
1696.579975
 21
370.624225
  0
LINE
  8
ValleyLine
  6
CONTINUOUS
 62
1
 10
1650.738729
 20
477.059786
 11
1661.424044
 21
412.091412
  0
LINE
  8
ValleyLine
  6
CONTINUOUS
 62
1
 10
1661.347654
 20
412.170003
 11
1651.084940
 21
400.475502
  0
LINE
  8
CutLine
  6
CONTINUOUS
 62
8
 10
1651.084940
 20
400.475502
 11
1640.869389
 21
386.656440
  0
LINE
  8
CutLine
  6
CONTINUOUS
 62
8
 10
1684.175055
 20
352.333046
 11
1690.262159
 21
361.830438
  0
LINE
  8
ValleyLine
  6
CONTINUOUS
 62
1
 10
1678.232318
 20
342.222783
 11
1684.175055
 21
352.333046
  0
LINE
  8
ValleyLine
  6
CONTINUOUS
 62
1
 10
1640.869389
 20
386.656440
 11
1631.867566
 21
372.138763
  0
LINE
  8
CutLine
  6
CONTINUOUS
 62
8
 10
1631.867566
 20
372.138763
 11
1678.232318
 21
342.222783
  0
LINE
  8
CutLine
  6
CONTINUOUS
 62
8
 10
1678.995093
 20
427.812851
 11
1650.738729
 21
477.059786
  0
LINE
  8
CutLine
  6
CONTINUOUS
 62
8
 10
1627.476250
 20
467.413221
 11
1661.424044
 21
412.091412
  0
LINE
  8
ValleyLine
  6
CONTINUOUS
 62
1
 10
1650.724127
 20
477.148569
 11
1627.476250
 21
467.413221
  0
LINE
  8
CutLine
  6
CONTINUOUS
 62
8
 10
1743.061080
 20
106.468186
 11
1717.349578
 21
166.065786
  0
LINE
  8
ValleyLine
  6
CONTINUOUS
 62
1
 10
1717.349578
 20
166.065786
 11
1701.790756
 21
165.978223
  0
LINE
  8
ValleyLine
  6
CONTINUOUS
 62
1
 10
1701.790756
 20
165.978223
 11
1743.061080
 21
106.468186
  0
LINE
  8
MountainLine
  6
CONTINUOUS
 62
5
 10
1721.944705
 20
83.173209
 11
1701.790756
 21
165.978223
  0
LINE
  8
CutLine
  6
CONTINUOUS
 62
8
 10
1701.790756
 20
165.978223
 11
1684.754817
 21
168.236714
  0
LINE
  8
ValleyLine
  6
CONTINUOUS
 62
1
 10
1684.754817
 20
168.236714
 11
1721.944705
 21
83.173209
  0
LINE
  8
MountainLine
  6
CONTINUOUS
 62
5
 10
1689.195913
 20
67.244617
 11
1684.754817
 21
168.236714
  0
LINE
  8
ValleyLine
  6
CONTINUOUS
 62
1
 10
1684.754817
 20
168.236714
 11
1668.065655
 21
171.879188
  0
LINE
  8
ValleyLine
  6
CONTINUOUS
 62
1
 10
1668.065655
 20
171.879188
 11
1689.195913
 21
67.244617
  0
LINE
  8
ValleyLine
  6
CONTINUOUS
 62
1
 10
1689.195913
 20
67.244617
 11
1721.944705
 21
83.173209
  0
LINE
  8
CutLine
  6
CONTINUOUS
 62
8
 10
1721.944705
 20
83.173209
 11
1743.061080
 21
106.468186
  0
LINE
  8
CutLine
  6
CONTINUOUS
 62
8
 10
1540.093886
 20
82.381601
 11
1534.490304
 21
65.012258
  0
LINE
  8
ValleyLine
  6
CONTINUOUS
 62
1
 10
1534.490304
 20
65.012258
 11
1528.004383
 21
48.499412
  0
LINE
  8
CutLine
  6
CONTINUOUS
 62
8
 10
1528.004383
 20
48.499412
 11
1521.134499
 21
33.023878
  0
LINE
  8
MountainLine
  6
CONTINUOUS
 62
5
 10
1521.134499
 20
33.023878
 11
1551.510142
 21
7.121560
  0
LINE
  8
CutLine
  6
CONTINUOUS
 62
8
 10
1551.510142
 20
7.121560
 11
1611.550521
 21
75.427996
  0
LINE
  8
CutLine
  6
CONTINUOUS
 62
8
 10
1538.431620
 20
173.215300
 11
1543.571320
 21
163.173547
  0
LINE
  8
ValleyLine
  6
CONTINUOUS
 62
1
 10
1532.518880
 20
183.343135
 11
1538.431620
 21
173.215300
  0
LINE
  8
CutLine
  6
CONTINUOUS
 62
8
 10
1526.704409
 20
192.986567
 11
1532.518880
 21
183.343135
  0
LINE
  8
ValleyLine
  6
CONTINUOUS
 62
1
 10
1521.590212
 20
201.422561
 11
1526.704409
 21
192.986567
  0
LINE
  8
ValleyLine
  6
CONTINUOUS
 62
1
 10
1613.850222
 20
181.576613
 11
1517.132571
 21
208.766749
  0
LINE
  8
CutLine
  6
CONTINUOUS
 62
8
 10
1517.132571
 20
208.766749
 11
1521.590212
 21
201.422561
  0
LINE
  8
CutLine
  6
CONTINUOUS
 62
8
 10
1548.785188
 20
129.244208
 11
1547.256320
 21
115.116317
  0
LINE
  8
ValleyLine
  6
CONTINUOUS
 62
1
 10
1547.174329
 20
152.962582
 11
1548.870263
 21
141.823832
  0
LINE
  8
CutLine
  6
CONTINUOUS
 62
8
 10
1630.736230
 20
107.146275
 11
1613.850222
 21
181.576613
  0
LINE
  8
ValleyLine
  6
CONTINUOUS
 62
1
 10
1548.870263
 20
141.823832
 11
1548.785188
 21
129.244208
  0
LINE
  8
ValleyLine
  6
CONTINUOUS
 62
1
 10
1543.571320
 20
163.173547
 11
1547.174329
 21
152.962582
  0
LINE
  8
ValleyLine
  6
CONTINUOUS
 62
1
 10
1544.386667
 20
99.413084
 11
1540.093886
 21
82.381601
  0
LINE
  8
CutLine
  6
CONTINUOUS
 62
8
 10
1547.256320
 20
115.116317
 11
1544.386667
 21
99.413084
  0
LINE
  8
ValleyLine
  6
CONTINUOUS
 62
1
 10
1611.550521
 20
75.427996
 11
1648.637634
 21
69.497539
  0
LINE
  8
ValleyLine
  6
CONTINUOUS
 62
1
 10
1648.637634
 20
69.497539
 11
1630.736230
 21
107.146275
  0
LINE
  8
CutLine
  6
CONTINUOUS
 62
8
 10
1597.687993
 20
316.726996
 11
1587.370098
 21
320.011280
  0
LINE
  8
MountainLine
  6
CONTINUOUS
 62
5
 10
1587.370098
 20
320.011280
 11
1594.219255
 21
262.363994
  0
LINE
  8
CutLine
  6
CONTINUOUS
 62
8
 10
1579.004870
 20
265.620854
 11
1594.219255
 21
262.363994
  0
LINE
  8
ValleyLine
  6
CONTINUOUS
 62
1
 10
1562.560172
 20
270.610433
 11
1579.004870
 21
265.620854
  0
LINE
  8
ValleyLine
  6
CONTINUOUS
 62
1
 10
1587.370098
 20
320.011280
 11
1576.817323
 21
323.997788
  0
LINE
  8
CutLine
  6
CONTINUOUS
 62
8
 10
1576.817323
 20
323.997788
 11
1566.014555
 21
328.562185
  0
LINE
  8
ValleyLine
  6
CONTINUOUS
 62
1
 10
1566.014555
 20
328.562185
 11
1546.672264
 21
276.884995
  0
LINE
  8
CutLine
  6
CONTINUOUS
 62
8
 10
1546.672264
 20
276.884995
 11
1562.560172
 21
270.610433
  0
LINE
  8
MountainLine
  6
CONTINUOUS
 62
5
 10
1597.687993
 20
316.726996
 11
1606.992267
 21
260.777970
  0
LINE
  8
CutLine
  6
CONTINUOUS
 62
8
 10
1608.602836
 20
313.931612
 11
1597.687993
 21
316.726996
  0
LINE
  8
MountainLine
  6
CONTINUOUS
 62
5
 10
1623.072685
 20
203.570261
 11
1606.992267
 21
260.777970
  0
LINE
  8
ValleyLine
  6
CONTINUOUS
 62
1
 10
1594.235717
 20
262.622003
 11
1623.072685
 21
203.570261
  0
LINE
  8
MountainLine
  6
CONTINUOUS
 62
5
 10
1594.272823
 20
262.878692
 11
1598.467911
 21
198.107120
  0
LINE
  8
ValleyLine
  6
CONTINUOUS
 62
1
 10
1598.467911
 20
198.107120
 11
1623.072685
 21
203.570261
  0
LINE
  8
ValleyLine
  6
CONTINUOUS
 62
1
 10
1606.992267
 20
260.777970
 11
1617.687060
 21
260.210967
  0
LINE
  8
MountainLine
  6
CONTINUOUS
 62
5
 10
1617.687060
 20
260.210967
 11
1608.598316
 21
313.782429
  0
LINE
  8
CutLine
  6
CONTINUOUS
 62
8
 10
1623.034328
 20
203.706719
 11
1617.687060
 21
260.210967
  0
ENDSEC
  0
EOF
