  0
SECTION
  2
HEADER
  9
$ACADVER
  1
AC1009
  0
ENDSEC
  0
SECTION
  2
BLOCKS
  0
ENDSEC
  0
SECTION
  2
ENTITIES
  0
LINE
  8
CutLine
  6
CONTINUOUS
 62
8
 10
2718.356037
 20
408.269953
 11
2714.806601
 21
414.385630
  0
LINE
  8
CutLine
  6
CONTINUOUS
 62
8
 10
2714.806601
 20
414.385630
 11
2733.328884
 21
484.145261
  0
LINE
  8
CutLine
  6
CONTINUOUS
 62
8
 10
2733.328884
 20
484.145261
 11
2739.444561
 21
487.694697
  0
LINE
  8
CutLine
  6
CONTINUOUS
 62
8
 10
2790.301279
 20
352.424479
 11
2794.638426
 21
346.839754
  0
LINE
  8
CutLine
  6
CONTINUOUS
 62
8
 10
2794.638426
 20
346.839754
 11
2787.066782
 21
286.623137
  0
LINE
  8
CutLine
  6
CONTINUOUS
 62
8
 10
2787.066782
 20
286.623137
 11
2781.181109
 21
279.892580
  0
LINE
  8
CutLine
  6
CONTINUOUS
 62
8
 10
2770.091844
 20
190.964957
 11
2758.616798
 21
205.896667
  0
LINE
  8
CutLine
  6
CONTINUOUS
 62
8
 10
2758.616798
 20
205.896667
 11
2716.434266
 21
309.545644
  0
LINE
  8
CutLine
  6
CONTINUOUS
 62
8
 10
2716.434266
 20
309.545644
 11
2719.180661
 21
316.061572
  0
LINE
  8
CutLine
  6
CONTINUOUS
 62
8
 10
2822.773827
 20
499.072487
 11
2822.449535
 21
482.880600
  0
LINE
  8
CutLine
  6
CONTINUOUS
 62
8
 10
2822.449535
 20
482.880600
 11
2805.456266
 21
433.890949
  0
LINE
  8
CutLine
  6
CONTINUOUS
 62
8
 10
2805.456266
 20
433.890949
 11
2799.093796
 21
430.805666
  0
LINE
  8
CutLine
  6
CONTINUOUS
 62
8
 10
2739.444561
 20
487.694697
 11
2739.185704
 21
497.131934
  0
LINE
  8
CutLine
  6
CONTINUOUS
 62
8
 10
2739.185704
 20
497.131934
 11
2768.611252
 21
547.269756
  0
LINE
  8
CutLine
  6
CONTINUOUS
 62
8
 10
2768.611252
 20
547.269756
 11
2777.134653
 21
551.914373
  0
LINE
  8
CutLine
  6
CONTINUOUS
 62
8
 10
2777.134653
 20
551.914373
 11
2781.697624
 21
557.400601
  0
LINE
  8
CutLine
  6
CONTINUOUS
 62
8
 10
2781.697624
 20
557.400601
 11
2855.499292
 21
564.853558
  0
LINE
  8
CutLine
  6
CONTINUOUS
 62
8
 10
2855.499292
 20
564.853558
 11
2860.976366
 21
560.381236
  0
LINE
  8
CutLine
  6
CONTINUOUS
 62
8
 10
2966.840559
 20
90.061041
 11
2960.358972
 21
92.887528
  0
LINE
  8
CutLine
  6
CONTINUOUS
 62
8
 10
2960.358972
 20
92.887528
 11
2940.177872
 21
144.280687
  0
LINE
  8
CutLine
  6
CONTINUOUS
 62
8
 10
2940.177872
 20
144.280687
 11
2941.523938
 21
154.532311
  0
LINE
  8
CutLine
  6
CONTINUOUS
 62
8
 10
2929.791353
 20
420.046703
 11
2936.368392
 21
417.450060
  0
LINE
  8
CutLine
  6
CONTINUOUS
 62
8
 10
2936.368392
 20
417.450060
 11
2962.107806
 21
358.128029
  0
LINE
  8
CutLine
  6
CONTINUOUS
 62
8
 10
2962.107806
 20
358.128029
 11
2959.511163
 21
351.550990
  0
LINE
  8
CutLine
  6
CONTINUOUS
 62
8
 10
2959.511163
 20
351.550990
 11
2965.316301
 21
347.513617
  0
LINE
  8
CutLine
  6
CONTINUOUS
 62
8
 10
2965.316301
 20
347.513617
 11
2977.763194
 21
278.212176
  0
LINE
  8
CutLine
  6
CONTINUOUS
 62
8
 10
2977.763194
 20
278.212176
 11
2973.725821
 21
272.407038
  0
LINE
  8
CutLine
  6
CONTINUOUS
 62
8
 10
2880.606796
 20
271.956404
 11
2873.601006
 21
272.914998
  0
LINE
  8
CutLine
  6
CONTINUOUS
 62
8
 10
2873.601006
 20
272.914998
 11
2843.496234
 21
312.564105
  0
LINE
  8
CutLine
  6
CONTINUOUS
 62
8
 10
2843.496234
 20
312.564105
 11
2844.454827
 21
319.569896
  0
LINE
  8
CutLine
  6
CONTINUOUS
 62
8
 10
2941.523938
 20
154.532311
 11
2931.408138
 21
163.967795
  0
LINE
  8
CutLine
  6
CONTINUOUS
 62
8
 10
2931.408138
 20
163.967795
 11
2909.254104
 21
209.788108
  0
LINE
  8
CutLine
  6
CONTINUOUS
 62
8
 10
2909.254104
 20
209.788108
 11
2911.579114
 21
216.466007
  0
LINE
  8
CutLine
  6
CONTINUOUS
 62
8
 10
2988.541681
 20
196.879854
 11
2994.777301
 21
188.515861
  0
LINE
  8
CutLine
  6
CONTINUOUS
 62
8
 10
2994.777301
 20
188.515861
 11
3003.967430
 21
123.684605
  0
LINE
  8
CutLine
  6
CONTINUOUS
 62
8
 10
3003.967430
 20
123.684605
 11
2999.718678
 21
118.032339
  0
LINE
  8
CutLine
  6
CONTINUOUS
 62
8
 10
2989.764993
 20
520.745575
 11
2995.295471
 21
516.339464
  0
LINE
  8
CutLine
  6
CONTINUOUS
 62
8
 10
2995.295471
 20
516.339464
 11
3004.539127
 21
434.648712
  0
LINE
  8
CutLine
  6
CONTINUOUS
 62
8
 10
3004.539127
 20
434.648712
 11
3000.133017
 21
429.118233
  0
LINE
  8
CutLine
  6
CONTINUOUS
 62
8
 10
2934.328567
 20
474.556341
 11
2927.358739
 21
475.748607
  0
LINE
  8
CutLine
  6
CONTINUOUS
 62
8
 10
2927.358739
 20
475.748607
 11
2888.668342
 21
530.407417
  0
LINE
  8
CutLine
  6
CONTINUOUS
 62
8
 10
2888.668342
 20
530.407417
 11
2889.860608
 21
537.377245
  0
LINE
  8
CutLine
  6
CONTINUOUS
 62
8
 10
3001.270831
 20
294.063366
 11
2992.378391
 21
307.048692
  0
LINE
  8
CutLine
  6
CONTINUOUS
 62
8
 10
2992.378391
 20
307.048692
 11
2967.080588
 21
395.975433
  0
LINE
  8
CutLine
  6
CONTINUOUS
 62
8
 10
2967.080588
 20
395.975433
 11
2970.156782
 21
403.435353
  0
LINE
  8
CutLine
  6
CONTINUOUS
 62
8
 10
2800.552514
 20
181.168700
 11
2800.428893
 21
188.238687
  0
LINE
  8
CutLine
  6
CONTINUOUS
 62
8
 10
2800.428893
 20
188.238687
 11
2845.387343
 21
234.797343
  0
LINE
  8
CutLine
  6
CONTINUOUS
 62
8
 10
2845.387343
 20
234.797343
 11
2852.457331
 21
234.920964
  0
LINE
  8
CutLine
  6
CONTINUOUS
 62
8
 10
2713.541381
 20
5.890580
 11
2710.017601
 21
13.372507
  0
LINE
  8
CutLine
  6
CONTINUOUS
 62
8
 10
2710.017601
 20
13.372507
 11
2735.208657
 21
132.095991
  0
LINE
  8
CutLine
  6
CONTINUOUS
 62
8
 10
2735.208657
 20
132.095991
 11
2741.137575
 21
135.949292
  0
LINE
  8
CutLine
  6
CONTINUOUS
 62
8
 10
2877.938287
 20
110.547032
 11
2876.100194
 21
103.719045
  0
LINE
  8
CutLine
  6
CONTINUOUS
 62
8
 10
2876.100194
 20
103.719045
 11
2866.241734
 21
98.042583
  0
LINE
  8
CutLine
  6
CONTINUOUS
 62
8
 10
2837.052916
 20
82.474295
 11
2831.690636
 21
83.917819
  0
LINE
  8
CutLine
  6
CONTINUOUS
 62
8
 10
2880.749317
 20
105.780417
 11
2883.181201
 21
112.420142
  0
LINE
  8
CutLine
  6
CONTINUOUS
 62
8
 10
2883.181201
 20
112.420142
 11
2928.454950
 21
133.420247
  0
LINE
  8
CutLine
  6
CONTINUOUS
 62
8
 10
2928.454950
 20
133.420247
 11
2935.094674
 21
130.988363
  0
LINE
  8
CutLine
  6
CONTINUOUS
 62
8
 10
2855.759239
 20
12.341833
 11
2851.041728
 21
7.074473
  0
LINE
  8
CutLine
  6
CONTINUOUS
 62
8
 10
2851.041728
 20
7.074473
 11
2793.312923
 21
3.895451
  0
LINE
  8
CutLine
  6
CONTINUOUS
 62
8
 10
2793.312923
 20
3.895451
 11
2787.954589
 21
8.607953
  0
LINE
  8
CutLine
  6
CONTINUOUS
 62
8
 10
2790.505202
 20
56.994474
 11
2790.899858
 21
58.347991
  0
LINE
  8
CutLine
  6
CONTINUOUS
 62
8
 10
2828.775573
 20
82.090503
 11
2833.662036
 21
80.665718
  0
LINE
  8
CutLine
  6
CONTINUOUS
 62
8
 10
2966.042171
 20
57.554624
 11
2964.685216
 21
50.614979
  0
LINE
  8
CutLine
  6
CONTINUOUS
 62
8
 10
2964.685216
 20
50.614979
 11
2923.213269
 21
22.708966
  0
LINE
  8
CutLine
  6
CONTINUOUS
 62
8
 10
2923.213269
 20
22.708966
 11
2916.273624
 21
24.065921
  0
LINE
  8
ValleyLine
  6
CONTINUOUS
 62
1
 10
2739.444561
 20
487.694697
 11
2718.356037
 21
408.269953
  0
LINE
  8
ValleyLine
  6
CONTINUOUS
 62
1
 10
2799.093796
 20
430.805666
 11
2739.444561
 21
487.694697
  0
LINE
  8
CutLine
  6
CONTINUOUS
 62
8
 10
2790.301279
 20
352.424479
 11
2799.093796
 21
430.805666
  0
LINE
  8
CutLine
  6
CONTINUOUS
 62
8
 10
2718.356037
 20
408.269953
 11
2719.180661
 21
316.061572
  0
LINE
  8
ValleyLine
  6
CONTINUOUS
 62
1
 10
2781.181109
 20
279.892580
 11
2790.301279
 21
352.424479
  0
LINE
  8
CutLine
  6
CONTINUOUS
 62
8
 10
2770.091844
 20
190.964957
 11
2781.181109
 21
279.892580
  0
LINE
  8
ValleyLine
  6
CONTINUOUS
 62
1
 10
2719.180661
 20
316.061572
 11
2770.091844
 21
190.964957
  0
LINE
  8
ValleyLine
  6
CONTINUOUS
 62
1
 10
2799.093796
 20
430.805666
 11
2822.773827
 21
499.072487
  0
LINE
  8
ValleyLine
  6
CONTINUOUS
 62
1
 10
2822.773827
 20
499.072487
 11
2777.134653
 21
551.914373
  0
LINE
  8
ValleyLine
  6
CONTINUOUS
 62
1
 10
2777.134653
 20
551.914373
 11
2739.444561
 21
487.694697
  0
LINE
  8
CutLine
  6
CONTINUOUS
 62
8
 10
2822.773827
 20
499.072487
 11
2860.976366
 21
560.381236
  0
LINE
  8
MountainLine
  6
CONTINUOUS
 62
5
 10
2860.976366
 20
560.381236
 11
2777.134653
 21
551.914373
  0
LINE
  8
ValleyLine
  6
CONTINUOUS
 62
1
 10
2966.840559
 20
90.061041
 11
2999.718678
 21
118.032339
  0
LINE
  8
MountainLine
  6
CONTINUOUS
 62
5
 10
2999.718678
 20
118.032339
 11
2941.523938
 21
154.532311
  0
LINE
  8
ValleyLine
  6
CONTINUOUS
 62
1
 10
2941.523938
 20
154.532311
 11
2966.840559
 21
90.061041
  0
LINE
  8
ValleyLine
  6
CONTINUOUS
 62
1
 10
2959.511163
 20
351.550990
 11
2929.791353
 21
420.046703
  0
LINE
  8
MountainLine
  6
CONTINUOUS
 62
5
 10
2929.791353
 20
420.046703
 11
2844.454827
 21
319.569896
  0
LINE
  8
MountainLine
  6
CONTINUOUS
 62
5
 10
2844.454827
 20
319.569896
 11
2959.511163
 21
351.550990
  0
LINE
  8
CutLine
  6
CONTINUOUS
 62
8
 10
2929.791353
 20
420.046703
 11
2902.170292
 21
489.476471
  0
LINE
  8
CutLine
  6
CONTINUOUS
 62
8
 10
2902.170292
 20
489.476471
 11
2804.423430
 21
366.031544
  0
LINE
  8
CutLine
  6
CONTINUOUS
 62
8
 10
2804.423430
 20
366.031544
 11
2844.454827
 21
319.569896
  0
LINE
  8
ValleyLine
  6
CONTINUOUS
 62
1
 10
2973.725821
 20
272.407038
 11
2959.511163
 21
351.550990
  0
LINE
  8
ValleyLine
  6
CONTINUOUS
 62
1
 10
2844.454827
 20
319.569896
 11
2880.606796
 21
271.956404
  0
LINE
  8
CutLine
  6
CONTINUOUS
 62
8
 10
2880.606796
 20
271.956404
 11
2911.579114
 21
216.466007
  0
LINE
  8
MountainLine
  6
CONTINUOUS
 62
5
 10
2911.579114
 20
216.466007
 11
2988.541681
 21
196.879854
  0
LINE
  8
CutLine
  6
CONTINUOUS
 62
8
 10
2988.541681
 20
196.879854
 11
2973.725821
 21
272.407038
  0
LINE
  8
ValleyLine
  6
CONTINUOUS
 62
1
 10
2911.579114
 20
216.466007
 11
2941.523938
 21
154.532311
  0
LINE
  8
ValleyLine
  6
CONTINUOUS
 62
1
 10
2941.523938
 20
154.532311
 11
2988.541681
 21
196.879854
  0
LINE
  8
ValleyLine
  6
CONTINUOUS
 62
1
 10
2999.718678
 20
118.032339
 11
2988.541681
 21
196.879854
  0
LINE
  8
CutLine
  6
CONTINUOUS
 62
8
 10
2966.840559
 20
90.061041
 11
2977.396646
 21
6.533269
  0
LINE
  8
CutLine
  6
CONTINUOUS
 62
8
 10
2977.396646
 20
6.533269
 11
2999.718678
 21
118.032339
  0
LINE
  8
ValleyLine
  6
CONTINUOUS
 62
1
 10
2934.328567
 20
474.556341
 11
3000.133017
 21
429.118233
  0
LINE
  8
ValleyLine
  6
CONTINUOUS
 62
1
 10
3000.133017
 20
429.118233
 11
2989.764993
 21
520.745575
  0
LINE
  8
ValleyLine
  6
CONTINUOUS
 62
1
 10
2989.764993
 20
520.745575
 11
2889.860608
 21
537.377245
  0
LINE
  8
ValleyLine
  6
CONTINUOUS
 62
1
 10
2889.860608
 20
537.377245
 11
2934.328567
 21
474.556341
  0
LINE
  8
CutLine
  6
CONTINUOUS
 62
8
 10
2934.328567
 20
474.556341
 11
2970.156782
 21
403.435353
  0
LINE
  8
ValleyLine
  6
CONTINUOUS
 62
1
 10
2970.156782
 20
403.435353
 11
3000.133017
 21
429.118233
  0
LINE
  8
CutLine
  6
CONTINUOUS
 62
8
 10
2838.906476
 20
599.582534
 11
2889.860608
 21
537.377245
  0
LINE
  8
MountainLine
  6
CONTINUOUS
 62
5
 10
2889.860608
 20
537.377245
 11
2971.853677
 21
600.946576
  0
LINE
  8
CutLine
  6
CONTINUOUS
 62
8
 10
2971.853677
 20
600.946576
 11
2838.906476
 21
599.582534
  0
LINE
  8
CutLine
  6
CONTINUOUS
 62
8
 10
2989.764993
 20
520.745575
 11
2971.853677
 21
600.946576
  0
LINE
  8
CutLine
  6
CONTINUOUS
 62
8
 10
3001.270831
 20
294.063366
 11
3000.133017
 21
429.118233
  0
LINE
  8
ValleyLine
  6
CONTINUOUS
 62
1
 10
2970.156782
 20
403.435353
 11
3001.270831
 21
294.063366
  0
LINE
  8
CutLine
  6
CONTINUOUS
 62
8
 10
2877.938287
 20
110.547032
 11
2931.602330
 21
137.174626
  0
LINE
  8
CutLine
  6
CONTINUOUS
 62
8
 10
2931.602330
 20
137.174626
 11
2852.457331
 21
234.920964
  0
LINE
  8
ValleyLine
  6
CONTINUOUS
 62
1
 10
2852.457331
 20
234.920964
 11
2800.552514
 21
181.168700
  0
LINE
  8
ValleyLine
  6
CONTINUOUS
 62
1
 10
2713.541381
 20
5.890580
 11
2749.205174
 21
30.010407
  0
LINE
  8
ValleyLine
  6
CONTINUOUS
 62
1
 10
2741.137575
 20
135.949292
 11
2713.541381
 21
5.890580
  0
LINE
  8
ValleyLine
  6
CONTINUOUS
 62
1
 10
2741.137575
 20
135.949292
 11
2789.984936
 21
57.774470
  0
LINE
  8
CutLine
  6
CONTINUOUS
 62
8
 10
2789.984936
 20
57.774470
 11
2831.690636
 21
83.917819
  0
LINE
  8
ValleyLine
  6
CONTINUOUS
 62
1
 10
2749.205174
 20
30.010407
 11
2790.245069
 21
57.384472
  0
LINE
  8
ValleyLine
  6
CONTINUOUS
 62
1
 10
2831.690636
 20
83.917819
 11
2877.938287
 21
110.547032
  0
LINE
  8
CutLine
  6
CONTINUOUS
 62
8
 10
2800.552514
 20
181.168700
 11
2741.137575
 21
135.949292
  0
LINE
  8
CutLine
  6
CONTINUOUS
 62
8
 10
2966.042171
 20
57.554624
 11
2935.094674
 21
130.988363
  0
LINE
  8
ValleyLine
  6
CONTINUOUS
 62
1
 10
2935.094674
 20
130.988363
 11
2880.749317
 21
105.780417
  0
LINE
  8
ValleyLine
  6
CONTINUOUS
 62
1
 10
2787.954589
 20
8.607953
 11
2855.759239
 21
12.341833
  0
LINE
  8
ValleyLine
  6
CONTINUOUS
 62
1
 10
2790.505202
 20
56.994474
 11
2787.954589
 21
8.607953
  0
LINE
  8
ValleyLine
  6
CONTINUOUS
 62
1
 10
2833.662036
 20
80.665718
 11
2790.505202
 21
56.994474
  0
LINE
  8
ValleyLine
  6
CONTINUOUS
 62
1
 10
2916.273624
 20
24.065921
 11
2966.042171
 21
57.554624
  0
LINE
  8
MountainLine
  6
CONTINUOUS
 62
5
 10
2916.273624
 20
24.065921
 11
2833.662036
 21
80.665718
  0
LINE
  8
CutLine
  6
CONTINUOUS
 62
8
 10
2855.759239
 20
12.341833
 11
2916.273624
 21
24.065921
  0
LINE
  8
CutLine
  6
CONTINUOUS
 62
8
 10
2880.749317
 20
105.780417
 11
2833.662036
 21
80.665718
  0
LINE
  8
CutLine
  6
CONTINUOUS
 62
8
 10
2713.541381
 20
5.890580
 11
2787.954589
 21
8.607953
  0
ENDSEC
  0
EOF
