  0
SECTION
  2
HEADER
  9
$ACADVER
  1
AC1009
  0
ENDSEC
  0
SECTION
  2
BLOCKS
  0
ENDSEC
  0
SECTION
  2
ENTITIES
  0
LINE
  8
CutLine
  6
CONTINUOUS
 62
8
 10
722.310234
 20
459.026132
 11
717.243151
 21
454.094127
  0
LINE
  8
CutLine
  6
CONTINUOUS
 62
8
 10
717.243151
 20
454.094127
 11
699.212193
 21
454.337708
  0
LINE
  8
CutLine
  6
CONTINUOUS
 62
8
 10
699.212193
 20
454.337708
 11
694.280188
 21
459.404791
  0
LINE
  8
CutLine
  6
CONTINUOUS
 62
8
 10
732.292040
 20
573.296287
 11
735.517883
 21
567.003915
  0
LINE
  8
CutLine
  6
CONTINUOUS
 62
8
 10
735.517883
 20
567.003915
 11
725.670216
 21
536.437702
  0
LINE
  8
CutLine
  6
CONTINUOUS
 62
8
 10
725.670216
 20
536.437702
 11
715.740308
 21
521.921297
  0
LINE
  8
CutLine
  6
CONTINUOUS
 62
8
 10
684.247373
 20
579.585335
 11
690.439895
 21
583.817388
  0
LINE
  8
CutLine
  6
CONTINUOUS
 62
8
 10
690.439895
 20
583.817388
 11
727.983298
 21
578.902956
  0
LINE
  8
CutLine
  6
CONTINUOUS
 62
8
 10
727.983298
 20
578.902956
 11
732.292040
 21
573.296287
  0
LINE
  8
CutLine
  6
CONTINUOUS
 62
8
 10
825.151367
 20
421.138922
 11
818.803802
 21
424.254755
  0
LINE
  8
CutLine
  6
CONTINUOUS
 62
8
 10
818.803802
 20
424.254755
 11
818.028171
 21
426.526016
  0
LINE
  8
CutLine
  6
CONTINUOUS
 62
8
 10
818.028171
 20
426.526016
 11
821.144004
 21
432.873581
  0
LINE
  8
CutLine
  6
CONTINUOUS
 62
8
 10
834.958637
 20
372.951522
 11
829.202054
 21
377.057829
  0
LINE
  8
CutLine
  6
CONTINUOUS
 62
8
 10
829.202054
 20
377.057829
 11
827.793973
 21
385.473242
  0
LINE
  8
CutLine
  6
CONTINUOUS
 62
8
 10
827.793973
 20
385.473242
 11
831.900279
 21
391.229825
  0
LINE
  8
CutLine
  6
CONTINUOUS
 62
8
 10
830.031399
 20
338.122585
 11
825.868265
 21
343.838205
  0
LINE
  8
CutLine
  6
CONTINUOUS
 62
8
 10
825.868265
 20
343.838205
 11
826.900211
 21
350.404668
  0
LINE
  8
CutLine
  6
CONTINUOUS
 62
8
 10
826.900211
 20
350.404668
 11
832.615831
 21
354.567802
  0
LINE
  8
CutLine
  6
CONTINUOUS
 62
8
 10
823.492695
 20
312.536049
 11
820.131551
 21
318.757200
  0
LINE
  8
CutLine
  6
CONTINUOUS
 62
8
 10
820.131551
 20
318.757200
 11
820.817967
 21
321.056996
  0
LINE
  8
CutLine
  6
CONTINUOUS
 62
8
 10
820.817967
 20
321.056996
 11
827.039118
 21
324.418140
  0
LINE
  8
CutLine
  6
CONTINUOUS
 62
8
 10
805.495093
 20
265.449015
 11
802.758124
 21
271.968908
  0
LINE
  8
CutLine
  6
CONTINUOUS
 62
8
 10
802.758124
 20
271.968908
 11
806.932162
 21
282.182830
  0
LINE
  8
CutLine
  6
CONTINUOUS
 62
8
 10
806.932162
 20
282.182830
 11
813.452054
 21
284.919799
  0
LINE
  8
CutLine
  6
CONTINUOUS
 62
8
 10
838.229979
 20
373.015371
 11
845.604479
 21
355.814811
  0
LINE
  8
CutLine
  6
CONTINUOUS
 62
8
 10
845.604479
 20
355.814811
 11
860.812334
 21
243.493111
  0
LINE
  8
CutLine
  6
CONTINUOUS
 62
8
 10
860.812334
 20
243.493111
 11
856.528400
 21
237.867464
  0
LINE
  8
CutLine
  6
CONTINUOUS
 62
8
 10
778.232736
 20
215.815563
 11
776.408799
 21
222.647346
  0
LINE
  8
CutLine
  6
CONTINUOUS
 62
8
 10
776.408799
 20
222.647346
 11
787.146286
 21
241.206359
  0
LINE
  8
CutLine
  6
CONTINUOUS
 62
8
 10
787.146286
 20
241.206359
 11
793.978069
 21
243.030296
  0
LINE
  8
CutLine
  6
CONTINUOUS
 62
8
 10
787.474165
 20
146.991655
 11
779.193518
 21
149.226046
  0
LINE
  8
CutLine
  6
CONTINUOUS
 62
8
 10
779.193518
 20
149.226046
 11
750.411503
 21
184.466263
  0
LINE
  8
CutLine
  6
CONTINUOUS
 62
8
 10
750.411503
 20
184.466263
 11
751.121190
 21
191.501627
  0
LINE
  8
CutLine
  6
CONTINUOUS
 62
8
 10
778.693332
 20
596.886451
 11
785.745444
 21
598.623847
  0
LINE
  8
CutLine
  6
CONTINUOUS
 62
8
 10
785.745444
 20
598.623847
 11
895.254102
 21
536.249003
  0
LINE
  8
CutLine
  6
CONTINUOUS
 62
8
 10
895.254102
 20
536.249003
 11
898.696504
 21
528.534055
  0
LINE
  8
CutLine
  6
CONTINUOUS
 62
8
 10
898.696504
 20
528.534055
 11
896.002618
 21
521.996244
  0
LINE
  8
CutLine
  6
CONTINUOUS
 62
8
 10
896.002618
 20
521.996244
 11
857.778779
 21
506.080474
  0
LINE
  8
CutLine
  6
CONTINUOUS
 62
8
 10
857.778779
 20
506.080474
 11
851.240968
 21
508.774360
  0
LINE
  8
CutLine
  6
CONTINUOUS
 62
8
 10
772.144463
 20
527.754355
 11
765.104200
 21
527.095034
  0
LINE
  8
CutLine
  6
CONTINUOUS
 62
8
 10
765.104200
 20
527.095034
 11
744.764152
 21
543.951615
  0
LINE
  8
CutLine
  6
CONTINUOUS
 62
8
 10
744.764152
 20
543.951615
 11
744.104831
 21
550.991877
  0
LINE
  8
CutLine
  6
CONTINUOUS
 62
8
 10
619.005182
 20
380.184142
 11
614.005182
 21
390.539884
  0
LINE
  8
CutLine
  6
CONTINUOUS
 62
8
 10
614.005182
 20
390.539884
 11
614.005182
 21
578.846187
  0
LINE
  8
CutLine
  6
CONTINUOUS
 62
8
 10
614.005182
 20
578.846187
 11
619.005182
 21
583.846187
  0
LINE
  8
CutLine
  6
CONTINUOUS
 62
8
 10
619.005182
 20
583.846187
 11
624.385301
 21
588.434685
  0
LINE
  8
CutLine
  6
CONTINUOUS
 62
8
 10
624.385301
 20
588.434685
 11
652.826230
 21
586.176156
  0
LINE
  8
CutLine
  6
CONTINUOUS
 62
8
 10
652.826230
 20
586.176156
 11
657.414729
 21
580.796037
  0
LINE
  8
CutLine
  6
CONTINUOUS
 62
8
 10
664.826200
 20
383.682566
 11
660.221351
 21
378.316435
  0
LINE
  8
CutLine
  6
CONTINUOUS
 62
8
 10
660.221351
 20
378.316435
 11
624.371313
 21
375.579293
  0
LINE
  8
CutLine
  6
CONTINUOUS
 62
8
 10
624.371313
 20
375.579293
 11
619.005182
 21
380.184142
  0
LINE
  8
CutLine
  6
CONTINUOUS
 62
8
 10
666.745424
 20
517.461006
 11
671.647600
 21
510.606409
  0
LINE
  8
CutLine
  6
CONTINUOUS
 62
8
 10
671.647600
 20
510.606409
 11
670.684850
 21
443.498412
  0
LINE
  8
CutLine
  6
CONTINUOUS
 62
8
 10
670.684850
 20
443.498412
 11
664.826200
 21
383.682566
  0
LINE
  8
CutLine
  6
CONTINUOUS
 62
8
 10
616.246897
 20
142.635081
 11
623.238331
 21
141.576852
  0
LINE
  8
CutLine
  6
CONTINUOUS
 62
8
 10
623.238331
 20
141.576852
 11
627.337940
 21
136.014853
  0
LINE
  8
CutLine
  6
CONTINUOUS
 62
8
 10
627.337940
 20
136.014853
 11
626.279711
 21
129.023419
  0
LINE
  8
CutLine
  6
CONTINUOUS
 62
8
 10
654.309757
 20
129.402078
 11
658.763234
 21
123.909670
  0
LINE
  8
CutLine
  6
CONTINUOUS
 62
8
 10
658.763234
 20
123.909670
 11
653.232239
 21
70.960390
  0
LINE
  8
CutLine
  6
CONTINUOUS
 62
8
 10
653.232239
 20
70.960390
 11
647.739831
 21
66.506913
  0
LINE
  8
CutLine
  6
CONTINUOUS
 62
8
 10
669.748496
 20
47.336578
 11
665.663228
 21
53.108110
  0
LINE
  8
CutLine
  6
CONTINUOUS
 62
8
 10
665.663228
 20
53.108110
 11
673.078648
 21
96.453836
  0
LINE
  8
CutLine
  6
CONTINUOUS
 62
8
 10
673.078648
 20
96.453836
 11
678.850180
 21
100.539105
  0
LINE
  8
CutLine
  6
CONTINUOUS
 62
8
 10
857.983206
 20
148.597245
 11
864.736425
 21
146.501047
  0
LINE
  8
CutLine
  6
CONTINUOUS
 62
8
 10
864.736425
 20
146.501047
 11
886.843470
 21
104.492554
  0
LINE
  8
CutLine
  6
CONTINUOUS
 62
8
 10
886.843470
 20
104.492554
 11
887.432984
 21
92.635863
  0
LINE
  8
CutLine
  6
CONTINUOUS
 62
8
 10
779.899181
 20
11.013842
 11
774.678698
 21
6.244506
  0
LINE
  8
CutLine
  6
CONTINUOUS
 62
8
 10
774.678698
 20
6.244506
 11
693.818185
 21
9.896216
  0
LINE
  8
CutLine
  6
CONTINUOUS
 62
8
 10
693.818185
 20
9.896216
 11
689.048849
 21
15.116698
  0
LINE
  8
CutLine
  6
CONTINUOUS
 62
8
 10
712.450214
 20
154.111517
 11
718.365557
 21
157.985626
  0
LINE
  8
CutLine
  6
CONTINUOUS
 62
8
 10
718.365557
 20
157.985626
 11
780.875857
 21
144.951377
  0
LINE
  8
CutLine
  6
CONTINUOUS
 62
8
 10
780.875857
 20
144.951377
 11
784.749966
 21
139.036035
  0
LINE
  8
CutLine
  6
CONTINUOUS
 62
8
 10
892.482644
 20
38.897139
 11
893.678633
 21
31.927949
  0
LINE
  8
CutLine
  6
CONTINUOUS
 62
8
 10
893.678633
 20
31.927949
 11
877.768685
 21
9.426121
  0
LINE
  8
CutLine
  6
CONTINUOUS
 62
8
 10
877.768685
 20
9.426121
 11
870.799495
 21
8.230132
  0
LINE
  8
CutLine
  6
CONTINUOUS
 62
8
 10
690.463960
 20
152.459369
 11
685.463960
 21
165.574964
  0
LINE
  8
CutLine
  6
CONTINUOUS
 62
8
 10
685.463960
 20
165.574964
 11
685.463960
 21
285.563718
  0
LINE
  8
CutLine
  6
CONTINUOUS
 62
8
 10
685.463960
 20
285.563718
 11
690.463960
 21
290.563718
  0
LINE
  8
CutLine
  6
CONTINUOUS
 62
8
 10
793.212067
 20
286.660871
 11
794.845981
 21
279.781168
  0
LINE
  8
CutLine
  6
CONTINUOUS
 62
8
 10
794.845981
 20
279.781168
 11
754.517903
 21
214.330976
  0
LINE
  8
CutLine
  6
CONTINUOUS
 62
8
 10
754.517903
 20
214.330976
 11
747.638199
 21
212.697061
  0
LINE
  8
CutLine
  6
CONTINUOUS
 62
8
 10
733.779857
 20
305.910956
 11
736.330056
 21
312.506143
  0
LINE
  8
CutLine
  6
CONTINUOUS
 62
8
 10
736.330056
 20
312.506143
 11
771.498213
 21
328.060955
  0
LINE
  8
CutLine
  6
CONTINUOUS
 62
8
 10
771.498213
 20
328.060955
 11
778.093399
 21
325.510756
  0
LINE
  8
CutLine
  6
CONTINUOUS
 62
8
 10
661.887052
 20
355.385129
 11
667.745702
 21
295.569283
  0
LINE
  8
CutLine
  6
CONTINUOUS
 62
8
 10
667.745702
 20
295.569283
 11
668.708452
 21
228.461286
  0
LINE
  8
CutLine
  6
CONTINUOUS
 62
8
 10
668.708452
 20
228.461286
 11
663.806276
 21
221.606689
  0
LINE
  8
CutLine
  6
CONTINUOUS
 62
8
 10
616.066033
 20
155.221508
 11
611.066033
 21
160.221508
  0
LINE
  8
CutLine
  6
CONTINUOUS
 62
8
 10
611.066033
 20
160.221508
 11
611.066033
 21
348.527811
  0
LINE
  8
CutLine
  6
CONTINUOUS
 62
8
 10
611.066033
 20
348.527811
 11
616.066033
 21
358.883553
  0
LINE
  8
CutLine
  6
CONTINUOUS
 62
8
 10
663.806276
 20
221.606689
 11
667.873250
 21
214.907157
  0
LINE
  8
CutLine
  6
CONTINUOUS
 62
8
 10
667.873250
 20
214.907157
 11
661.453633
 21
171.331984
  0
LINE
  8
CutLine
  6
CONTINUOUS
 62
8
 10
661.453633
 20
171.331984
 11
654.475581
 21
158.271658
  0
LINE
  8
CutLine
  6
CONTINUOUS
 62
8
 10
680.866593
 20
310.683656
 11
677.516138
 21
316.910569
  0
LINE
  8
CutLine
  6
CONTINUOUS
 62
8
 10
677.516138
 20
316.910569
 11
698.528954
 21
386.874233
  0
LINE
  8
CutLine
  6
CONTINUOUS
 62
8
 10
698.528954
 20
386.874233
 11
704.755867
 21
390.224689
  0
LINE
  8
CutLine
  6
CONTINUOUS
 62
8
 10
792.544344
 20
424.489354
 11
798.355517
 21
420.460674
  0
LINE
  8
CutLine
  6
CONTINUOUS
 62
8
 10
798.355517
 20
420.460674
 11
804.764362
 21
385.082094
  0
LINE
  8
CutLine
  6
CONTINUOUS
 62
8
 10
804.764362
 20
385.082094
 11
800.735682
 21
379.270921
  0
LINE
  8
CutLine
  6
CONTINUOUS
 62
8
 10
746.320001
 20
466.513911
 11
750.524671
 21
472.199045
  0
LINE
  8
CutLine
  6
CONTINUOUS
 62
8
 10
750.524671
 20
472.199045
 11
781.863461
 21
476.890337
  0
LINE
  8
CutLine
  6
CONTINUOUS
 62
8
 10
781.863461
 20
476.890337
 11
787.548596
 21
472.685667
  0
LINE
  8
MountainLine
  6
CONTINUOUS
 62
5
 10
694.280188
 20
459.404791
 11
722.310234
 21
459.026132
  0
LINE
  8
CutLine
  6
CONTINUOUS
 62
8
 10
722.310234
 20
459.026132
 11
715.740308
 21
521.921297
  0
LINE
  8
ValleyLine
  6
CONTINUOUS
 62
1
 10
715.740308
 20
521.921297
 11
694.280188
 21
459.404791
  0
LINE
  8
CutLine
  6
CONTINUOUS
 62
8
 10
684.247373
 20
579.585335
 11
684.247373
 21
445.793128
  0
LINE
  8
CutLine
  6
CONTINUOUS
 62
8
 10
684.247373
 20
445.793128
 11
694.280188
 21
459.404791
  0
LINE
  8
MountainLine
  6
CONTINUOUS
 62
5
 10
694.280188
 20
459.404791
 11
684.247373
 21
579.585335
  0
LINE
  8
ValleyLine
  6
CONTINUOUS
 62
1
 10
715.740308
 20
521.921297
 11
732.292040
 21
573.296287
  0
LINE
  8
MountainLine
  6
CONTINUOUS
 62
5
 10
732.292040
 20
573.296287
 11
684.247373
 21
579.585335
  0
LINE
  8
CutLine
  6
CONTINUOUS
 62
8
 10
828.676119
 20
407.561673
 11
831.900279
 21
391.229825
  0
LINE
  8
CutLine
  6
CONTINUOUS
 62
8
 10
825.151367
 20
421.138922
 11
828.676119
 21
407.561673
  0
LINE
  8
ValleyLine
  6
CONTINUOUS
 62
1
 10
821.144004
 20
432.873581
 11
825.151367
 21
421.138922
  0
LINE
  8
CutLine
  6
CONTINUOUS
 62
8
 10
816.318862
 20
445.007532
 11
821.144004
 21
432.873581
  0
LINE
  8
CutLine
  6
CONTINUOUS
 62
8
 10
810.033419
 20
460.077012
 11
816.318862
 21
445.007532
  0
LINE
  8
CutLine
  6
CONTINUOUS
 62
8
 10
801.322764
 20
479.222485
 11
810.033419
 21
460.077012
  0
LINE
  8
MountainLine
  6
CONTINUOUS
 62
5
 10
851.240968
 20
508.774360
 11
788.939728
 21
501.174734
  0
LINE
  8
CutLine
  6
CONTINUOUS
 62
8
 10
788.939728
 20
501.174734
 11
801.322764
 21
479.222485
  0
LINE
  8
ValleyLine
  6
CONTINUOUS
 62
1
 10
831.900279
 20
391.229825
 11
838.229979
 21
373.015371
  0
LINE
  8
CutLine
  6
CONTINUOUS
 62
8
 10
838.229979
 20
373.015371
 11
851.240968
 21
508.774360
  0
LINE
  8
MountainLine
  6
CONTINUOUS
 62
5
 10
834.958637
 20
372.951522
 11
838.229979
 21
373.015371
  0
LINE
  8
ValleyLine
  6
CONTINUOUS
 62
1
 10
831.900279
 20
391.229825
 11
834.958637
 21
372.951522
  0
LINE
  8
ValleyLine
  6
CONTINUOUS
 62
1
 10
832.615831
 20
354.567802
 11
830.031399
 21
338.122585
  0
LINE
  8
CutLine
  6
CONTINUOUS
 62
8
 10
830.031399
 20
338.122585
 11
827.039118
 21
324.418140
  0
LINE
  8
ValleyLine
  6
CONTINUOUS
 62
1
 10
827.039118
 20
324.418140
 11
823.492695
 21
312.536049
  0
LINE
  8
CutLine
  6
CONTINUOUS
 62
8
 10
823.492695
 20
312.536049
 11
819.144697
 21
300.223061
  0
LINE
  8
CutLine
  6
CONTINUOUS
 62
8
 10
819.144697
 20
300.223061
 11
813.452054
 21
284.919799
  0
LINE
  8
ValleyLine
  6
CONTINUOUS
 62
1
 10
813.452054
 20
284.919799
 11
805.495093
 21
265.449015
  0
LINE
  8
CutLine
  6
CONTINUOUS
 62
8
 10
805.495093
 20
265.449015
 11
793.978069
 21
243.030296
  0
LINE
  8
MountainLine
  6
CONTINUOUS
 62
5
 10
793.978069
 20
243.030296
 11
856.528400
 21
237.867464
  0
LINE
  8
MountainLine
  6
CONTINUOUS
 62
5
 10
856.528400
 20
237.867464
 11
838.229979
 21
373.015371
  0
LINE
  8
ValleyLine
  6
CONTINUOUS
 62
1
 10
838.229979
 20
373.015371
 11
832.615831
 21
354.567802
  0
LINE
  8
CutLine
  6
CONTINUOUS
 62
8
 10
834.958637
 20
372.951522
 11
832.615831
 21
354.567802
  0
LINE
  8
ValleyLine
  6
CONTINUOUS
 62
1
 10
793.978069
 20
243.030296
 11
778.232736
 21
215.815563
  0
LINE
  8
ValleyLine
  6
CONTINUOUS
 62
1
 10
778.232736
 20
215.815563
 11
856.528400
 21
237.867464
  0
LINE
  8
ValleyLine
  6
CONTINUOUS
 62
1
 10
851.240968
 20
508.774360
 11
772.144463
 21
527.754355
  0
LINE
  8
CutLine
  6
CONTINUOUS
 62
8
 10
772.144463
 20
527.754355
 11
788.939728
 21
501.174734
  0
LINE
  8
CutLine
  6
CONTINUOUS
 62
8
 10
787.474165
 20
146.991655
 11
902.400000
 21
218.531112
  0
LINE
  8
CutLine
  6
CONTINUOUS
 62
8
 10
902.400000
 20
220.835511
 11
856.528400
 21
237.867464
  0
LINE
  8
MountainLine
  6
CONTINUOUS
 62
5
 10
856.528400
 20
237.867464
 11
787.474165
 21
146.991655
  0
LINE
  8
CutLine
  6
CONTINUOUS
 62
8
 10
778.232736
 20
215.815563
 11
751.121190
 21
191.501627
  0
LINE
  8
ValleyLine
  6
CONTINUOUS
 62
1
 10
751.121190
 20
191.501627
 11
787.474165
 21
146.991655
  0
LINE
  8
ValleyLine
  6
CONTINUOUS
 62
1
 10
898.696504
 20
528.534055
 11
778.693332
 21
596.886451
  0
LINE
  8
MountainLine
  6
CONTINUOUS
 62
5
 10
778.693332
 20
596.886451
 11
851.240968
 21
508.774360
  0
LINE
  8
MountainLine
  6
CONTINUOUS
 62
5
 10
851.240968
 20
508.774360
 11
898.696504
 21
528.534055
  0
LINE
  8
ValleyLine
  6
CONTINUOUS
 62
1
 10
744.104831
 20
550.991877
 11
772.144463
 21
527.754355
  0
LINE
  8
CutLine
  6
CONTINUOUS
 62
8
 10
778.693332
 20
596.886451
 11
744.104831
 21
550.991877
  0
LINE
  8
ValleyLine
  6
CONTINUOUS
 62
1
 10
619.005182
 20
583.846187
 11
619.005182
 21
380.184142
  0
LINE
  8
CutLine
  6
CONTINUOUS
 62
8
 10
666.745424
 20
517.461006
 11
657.414729
 21
580.796037
  0
LINE
  8
MountainLine
  6
CONTINUOUS
 62
5
 10
657.414729
 20
580.796037
 11
619.005182
 21
583.846187
  0
LINE
  8
MountainLine
  6
CONTINUOUS
 62
5
 10
619.005182
 20
380.184142
 11
664.826200
 21
383.682566
  0
LINE
  8
ValleyLine
  6
CONTINUOUS
 62
1
 10
664.826200
 20
383.682566
 11
666.745424
 21
517.461006
  0
LINE
  8
ValleyLine
  6
CONTINUOUS
 62
1
 10
647.739831
 20
66.506913
 11
626.279711
 21
129.023419
  0
LINE
  8
MountainLine
  6
CONTINUOUS
 62
5
 10
626.279711
 20
129.023419
 11
616.246897
 21
8.842875
  0
LINE
  8
CutLine
  6
CONTINUOUS
 62
8
 10
616.246897
 20
8.842875
 11
664.291564
 21
15.131923
  0
LINE
  8
CutLine
  6
CONTINUOUS
 62
8
 10
664.291564
 20
15.131923
 11
647.739831
 21
66.506913
  0
LINE
  8
MountainLine
  6
CONTINUOUS
 62
5
 10
626.279711
 20
129.023419
 11
616.246897
 21
142.635081
  0
LINE
  8
CutLine
  6
CONTINUOUS
 62
8
 10
616.246897
 20
142.635081
 11
616.246897
 21
8.842875
  0
LINE
  8
CutLine
  6
CONTINUOUS
 62
8
 10
654.309757
 20
129.402078
 11
626.279711
 21
129.023419
  0
LINE
  8
ValleyLine
  6
CONTINUOUS
 62
1
 10
647.739831
 20
66.506913
 11
654.309757
 21
129.402078
  0
LINE
  8
ValleyLine
  6
CONTINUOUS
 62
1
 10
678.850180
 20
100.539105
 11
669.748496
 21
47.336578
  0
LINE
  8
CutLine
  6
CONTINUOUS
 62
8
 10
669.748496
 20
47.336578
 11
689.048849
 21
15.116698
  0
LINE
  8
MountainLine
  6
CONTINUOUS
 62
5
 10
689.048849
 20
15.116698
 11
678.850180
 21
100.539105
  0
LINE
  8
ValleyLine
  6
CONTINUOUS
 62
1
 10
887.432984
 20
92.635863
 11
857.983206
 21
148.597245
  0
LINE
  8
CutLine
  6
CONTINUOUS
 62
8
 10
857.983206
 20
148.597245
 11
784.749966
 21
139.036035
  0
LINE
  8
MountainLine
  6
CONTINUOUS
 62
5
 10
784.749966
 20
139.036035
 11
779.899181
 21
11.013842
  0
LINE
  8
CutLine
  6
CONTINUOUS
 62
8
 10
779.899181
 20
11.013842
 11
870.799495
 21
8.230132
  0
LINE
  8
MountainLine
  6
CONTINUOUS
 62
5
 10
870.799495
 20
8.230132
 11
887.432984
 21
92.635863
  0
LINE
  8
ValleyLine
  6
CONTINUOUS
 62
1
 10
689.048849
 20
15.116698
 11
779.899181
 21
11.013842
  0
LINE
  8
MountainLine
  6
CONTINUOUS
 62
5
 10
784.749966
 20
139.036035
 11
712.450214
 21
154.111517
  0
LINE
  8
CutLine
  6
CONTINUOUS
 62
8
 10
712.450214
 20
154.111517
 11
678.850180
 21
100.539105
  0
LINE
  8
ValleyLine
  6
CONTINUOUS
 62
1
 10
870.799495
 20
8.230132
 11
892.482644
 21
38.897139
  0
LINE
  8
CutLine
  6
CONTINUOUS
 62
8
 10
892.482644
 20
38.897139
 11
887.432984
 21
92.635863
  0
LINE
  8
ValleyLine
  6
CONTINUOUS
 62
1
 10
690.463960
 20
290.563718
 11
690.463960
 21
152.459369
  0
LINE
  8
CutLine
  6
CONTINUOUS
 62
8
 10
690.463960
 20
152.459369
 11
747.638199
 21
212.697061
  0
LINE
  8
MountainLine
  6
CONTINUOUS
 62
5
 10
747.638199
 20
212.697061
 11
690.463960
 21
290.563718
  0
LINE
  8
MountainLine
  6
CONTINUOUS
 62
5
 10
733.779857
 20
305.910956
 11
747.638199
 21
212.697061
  0
LINE
  8
MountainLine
  6
CONTINUOUS
 62
5
 10
747.638199
 20
212.697061
 11
793.212067
 21
286.660871
  0
LINE
  8
ValleyLine
  6
CONTINUOUS
 62
1
 10
793.212067
 20
286.660871
 11
733.779857
 21
305.910956
  0
LINE
  8
CutLine
  6
CONTINUOUS
 62
8
 10
733.779857
 20
305.910956
 11
690.463960
 21
290.563718
  0
LINE
  8
CutLine
  6
CONTINUOUS
 62
8
 10
793.212067
 20
286.660871
 11
778.093399
 21
325.510756
  0
LINE
  8
MountainLine
  6
CONTINUOUS
 62
5
 10
778.093399
 20
325.510756
 11
733.779857
 21
305.910956
  0
LINE
  8
ValleyLine
  6
CONTINUOUS
 62
1
 10
663.806276
 20
221.606689
 11
661.887052
 21
355.385129
  0
LINE
  8
CutLine
  6
CONTINUOUS
 62
8
 10
661.887052
 20
355.385129
 11
616.066033
 21
358.883553
  0
LINE
  8
ValleyLine
  6
CONTINUOUS
 62
1
 10
616.066033
 20
358.883553
 11
616.066033
 21
155.221508
  0
LINE
  8
CutLine
  6
CONTINUOUS
 62
8
 10
616.066033
 20
155.221508
 11
654.475581
 21
158.271658
  0
LINE
  8
MountainLine
  6
CONTINUOUS
 62
5
 10
654.475581
 20
158.271658
 11
663.806276
 21
221.606689
  0
LINE
  8
MountainLine
  6
CONTINUOUS
 62
5
 10
800.735682
 20
379.270921
 11
704.755867
 21
390.224689
  0
LINE
  8
ValleyLine
  6
CONTINUOUS
 62
1
 10
704.755867
 20
390.224689
 11
680.866593
 21
310.683656
  0
LINE
  8
CutLine
  6
CONTINUOUS
 62
8
 10
680.866593
 20
310.683656
 11
800.735682
 21
379.270921
  0
LINE
  8
ValleyLine
  6
CONTINUOUS
 62
1
 10
792.544344
 20
424.489354
 11
746.320001
 21
466.513911
  0
LINE
  8
CutLine
  6
CONTINUOUS
 62
8
 10
746.320001
 20
466.513911
 11
704.755867
 21
390.224689
  0
LINE
  8
MountainLine
  6
CONTINUOUS
 62
5
 10
704.755867
 20
390.224689
 11
792.544344
 21
424.489354
  0
LINE
  8
MountainLine
  6
CONTINUOUS
 62
5
 10
800.735682
 20
379.270921
 11
792.544344
 21
424.489354
  0
LINE
  8
CutLine
  6
CONTINUOUS
 62
8
 10
792.544344
 20
424.489354
 11
787.548596
 21
472.685667
  0
LINE
  8
ValleyLine
  6
CONTINUOUS
 62
1
 10
787.548596
 20
472.685667
 11
746.320001
 21
466.513911
  0
ENDSEC
  0
EOF
