  0
SECTION
  2
HEADER
  9
$ACADVER
  1
AC1009
  0
ENDSEC
  0
SECTION
  2
BLOCKS
  0
ENDSEC
  0
SECTION
  2
ENTITIES
  0
LINE
  8
CutLine
  6
CONTINUOUS
 62
8
 10
32.880938
 20
299.510405
 11
34.160571
 21
292.556087
  0
LINE
  8
CutLine
  6
CONTINUOUS
 62
8
 10
34.160571
 20
292.556087
 11
26.531769
 21
281.486719
  0
LINE
  8
CutLine
  6
CONTINUOUS
 62
8
 10
26.531769
 20
281.486719
 11
19.577451
 21
280.207086
  0
LINE
  8
CutLine
  6
CONTINUOUS
 62
8
 10
19.577451
 20
280.207086
 11
14.577451
 21
290.685166
  0
LINE
  8
CutLine
  6
CONTINUOUS
 62
8
 10
14.577451
 20
290.685166
 11
14.577451
 21
354.984479
  0
LINE
  8
CutLine
  6
CONTINUOUS
 62
8
 10
14.577451
 20
354.984479
 11
19.577451
 21
359.984479
  0
LINE
  8
CutLine
  6
CONTINUOUS
 62
8
 10
50.073582
 20
399.144179
 11
56.980233
 21
397.628205
  0
LINE
  8
CutLine
  6
CONTINUOUS
 62
8
 10
56.980233
 20
397.628205
 11
64.250140
 21
386.269389
  0
LINE
  8
CutLine
  6
CONTINUOUS
 62
8
 10
64.250140
 20
386.269389
 11
62.734166
 21
379.362739
  0
LINE
  8
CutLine
  6
CONTINUOUS
 62
8
 10
38.378639
 20
418.981188
 11
45.225142
 21
417.213309
  0
LINE
  8
CutLine
  6
CONTINUOUS
 62
8
 10
45.225142
 20
417.213309
 11
51.841461
 21
405.990682
  0
LINE
  8
CutLine
  6
CONTINUOUS
 62
8
 10
51.841461
 20
405.990682
 11
50.073582
 21
399.144179
  0
LINE
  8
CutLine
  6
CONTINUOUS
 62
8
 10
79.360851
 20
357.233419
 11
79.707685
 21
350.170863
  0
LINE
  8
CutLine
  6
CONTINUOUS
 62
8
 10
79.707685
 20
350.170863
 11
67.834639
 21
337.071448
  0
LINE
  8
CutLine
  6
CONTINUOUS
 62
8
 10
67.834639
 20
337.071448
 11
60.772083
 21
336.724613
  0
LINE
  8
CutLine
  6
CONTINUOUS
 62
8
 10
189.429946
 20
32.300011
 11
195.284807
 21
28.335088
  0
LINE
  8
CutLine
  6
CONTINUOUS
 62
8
 10
195.284807
 20
28.335088
 11
197.643262
 21
16.080976
  0
LINE
  8
CutLine
  6
CONTINUOUS
 62
8
 10
197.643262
 20
16.080976
 11
193.678339
 21
10.226115
  0
LINE
  8
CutLine
  6
CONTINUOUS
 62
8
 10
136.099509
 20
42.217863
 11
132.378037
 21
48.230404
  0
LINE
  8
CutLine
  6
CONTINUOUS
 62
8
 10
132.378037
 20
48.230404
 11
136.531813
 21
65.878454
  0
LINE
  8
CutLine
  6
CONTINUOUS
 62
8
 10
136.531813
 20
65.878454
 11
142.544355
 21
69.599925
  0
LINE
  8
CutLine
  6
CONTINUOUS
 62
8
 10
186.517427
 20
71.527656
 11
191.654753
 21
66.668862
  0
LINE
  8
CutLine
  6
CONTINUOUS
 62
8
 10
191.654753
 20
66.668862
 11
191.928539
 21
56.843080
  0
LINE
  8
CutLine
  6
CONTINUOUS
 62
8
 10
191.928539
 20
56.843080
 11
187.069744
 21
51.705754
  0
LINE
  8
CutLine
  6
CONTINUOUS
 62
8
 10
142.544355
 20
69.599925
 11
143.926505
 21
76.534596
  0
LINE
  8
CutLine
  6
CONTINUOUS
 62
8
 10
143.926505
 20
76.534596
 11
155.142634
 21
84.022766
  0
LINE
  8
CutLine
  6
CONTINUOUS
 62
8
 10
155.142634
 20
84.022766
 11
162.077305
 21
82.640615
  0
LINE
  8
CutLine
  6
CONTINUOUS
 62
8
 10
249.679998
 20
350.669461
 11
255.017692
 21
353.662930
  0
LINE
  8
CutLine
  6
CONTINUOUS
 62
8
 10
255.017692
 20
353.662930
 11
256.049758
 21
347.630793
  0
LINE
  8
CutLine
  6
CONTINUOUS
 62
8
 10
276.816711
 20
396.819343
 11
277.603065
 21
390.802719
  0
LINE
  8
CutLine
  6
CONTINUOUS
 62
8
 10
277.603065
 20
390.802719
 11
271.703741
 21
392.222607
  0
LINE
  8
CutLine
  6
CONTINUOUS
 62
8
 10
237.931856
 20
297.321998
 11
230.095962
 21
304.540400
  0
LINE
  8
CutLine
  6
CONTINUOUS
 62
8
 10
230.095962
 20
304.540400
 11
229.402816
 21
306.513164
  0
LINE
  8
CutLine
  6
CONTINUOUS
 62
8
 10
229.402816
 20
306.513164
 11
232.462649
 21
312.887913
  0
LINE
  8
CutLine
  6
CONTINUOUS
 62
8
 10
240.956158
 20
317.248294
 11
245.149265
 21
311.554626
  0
LINE
  8
CutLine
  6
CONTINUOUS
 62
8
 10
245.149265
 20
311.554626
 11
244.794170
 21
309.214998
  0
LINE
  8
CutLine
  6
CONTINUOUS
 62
8
 10
244.794170
 20
309.214998
 11
237.931856
 21
297.321998
  0
LINE
  8
CutLine
  6
CONTINUOUS
 62
8
 10
227.628264
 20
327.538929
 11
221.899503
 21
331.683962
  0
LINE
  8
CutLine
  6
CONTINUOUS
 62
8
 10
221.899503
 20
331.683962
 11
221.217547
 21
335.935640
  0
LINE
  8
CutLine
  6
CONTINUOUS
 62
8
 10
221.217547
 20
335.935640
 11
225.362580
 21
341.664400
  0
LINE
  8
CutLine
  6
CONTINUOUS
 62
8
 10
224.860653
 20
374.461074
 11
224.505756
 21
386.366990
  0
LINE
  8
CutLine
  6
CONTINUOUS
 62
8
 10
224.505756
 20
386.366990
 11
227.307055
 21
392.930460
  0
LINE
  8
CutLine
  6
CONTINUOUS
 62
8
 10
227.307055
 20
392.930460
 11
233.868439
 21
395.566410
  0
LINE
  8
CutLine
  6
CONTINUOUS
 62
8
 10
264.033211
 20
381.432261
 11
266.451665
 21
374.787633
  0
LINE
  8
CutLine
  6
CONTINUOUS
 62
8
 10
266.451665
 20
374.787633
 11
263.147649
 21
367.702134
  0
LINE
  8
CutLine
  6
CONTINUOUS
 62
8
 10
263.147649
 20
367.702134
 11
256.503021
 21
365.283680
  0
LINE
  8
CutLine
  6
CONTINUOUS
 62
8
 10
224.487337
 20
356.715762
 11
219.593607
 21
361.819819
  0
LINE
  8
CutLine
  6
CONTINUOUS
 62
8
 10
219.593607
 20
361.819819
 11
219.756595
 21
369.567344
  0
LINE
  8
CutLine
  6
CONTINUOUS
 62
8
 10
219.756595
 20
369.567344
 11
224.860653
 21
374.461074
  0
LINE
  8
CutLine
  6
CONTINUOUS
 62
8
 10
286.815861
 20
424.800068
 11
282.210855
 21
413.646793
  0
LINE
  8
CutLine
  6
CONTINUOUS
 62
8
 10
282.210855
 20
413.646793
 11
271.650354
 21
403.769462
  0
LINE
  8
CutLine
  6
CONTINUOUS
 62
8
 10
271.650354
 20
403.769462
 11
264.583233
 21
404.005693
  0
LINE
  8
CutLine
  6
CONTINUOUS
 62
8
 10
245.833566
 20
418.089220
 11
247.221840
 21
425.022668
  0
LINE
  8
CutLine
  6
CONTINUOUS
 62
8
 10
247.221840
 20
425.022668
 11
254.447178
 21
429.837268
  0
LINE
  8
CutLine
  6
CONTINUOUS
 62
8
 10
254.447178
 20
429.837268
 11
264.048624
 21
430.226813
  0
LINE
  8
CutLine
  6
CONTINUOUS
 62
8
 10
266.508808
 20
436.664034
 11
259.437741
 21
436.667726
  0
LINE
  8
CutLine
  6
CONTINUOUS
 62
8
 10
259.437741
 20
436.667726
 11
254.047537
 21
442.063562
  0
LINE
  8
CutLine
  6
CONTINUOUS
 62
8
 10
254.047537
 20
442.063562
 11
254.051229
 21
449.134629
  0
LINE
  8
CutLine
  6
CONTINUOUS
 62
8
 10
149.898830
 20
255.048632
 11
156.595554
 21
252.778415
  0
LINE
  8
CutLine
  6
CONTINUOUS
 62
8
 10
156.595554
 20
252.778415
 11
160.262936
 21
245.349260
  0
LINE
  8
CutLine
  6
CONTINUOUS
 62
8
 10
160.262936
 20
245.349260
 11
157.992719
 21
238.652536
  0
LINE
  8
CutLine
  6
CONTINUOUS
 62
8
 10
157.992719
 20
238.652536
 11
163.462038
 21
227.531693
  0
LINE
  8
CutLine
  6
CONTINUOUS
 62
8
 10
163.462038
 20
227.531693
 11
163.508301
 21
226.425142
  0
LINE
  8
CutLine
  6
CONTINUOUS
 62
8
 10
163.508301
 20
226.425142
 11
158.721528
 21
221.220644
  0
LINE
  8
CutLine
  6
CONTINUOUS
 62
8
 10
142.826287
 20
250.723848
 11
137.511305
 21
255.387640
  0
LINE
  8
CutLine
  6
CONTINUOUS
 62
8
 10
137.511305
 20
255.387640
 11
137.196278
 21
260.215080
  0
LINE
  8
CutLine
  6
CONTINUOUS
 62
8
 10
137.196278
 20
260.215080
 11
141.352918
 21
273.301605
  0
LINE
  8
CutLine
  6
CONTINUOUS
 62
8
 10
153.165983
 20
237.302292
 11
146.153652
 21
238.211799
  0
LINE
  8
CutLine
  6
CONTINUOUS
 62
8
 10
146.153652
 20
238.211799
 11
143.300250
 21
241.915689
  0
LINE
  8
CutLine
  6
CONTINUOUS
 62
8
 10
143.300250
 20
241.915689
 11
142.826287
 21
250.723848
  0
LINE
  8
CutLine
  6
CONTINUOUS
 62
8
 10
176.488881
 20
191.913795
 11
178.737251
 21
183.262520
  0
LINE
  8
CutLine
  6
CONTINUOUS
 62
8
 10
178.737251
 20
183.262520
 11
178.461135
 21
182.480357
  0
LINE
  8
CutLine
  6
CONTINUOUS
 62
8
 10
178.461135
 20
182.480357
 11
172.081880
 21
179.429929
  0
LINE
  8
CutLine
  6
CONTINUOUS
 62
8
 10
165.249847
 20
223.901763
 11
171.775022
 21
221.177411
  0
LINE
  8
CutLine
  6
CONTINUOUS
 62
8
 10
171.775022
 20
221.177411
 11
174.104363
 21
215.508823
  0
LINE
  8
CutLine
  6
CONTINUOUS
 62
8
 10
174.104363
 20
215.508823
 11
171.380011
 21
208.983648
  0
LINE
  8
CutLine
  6
CONTINUOUS
 62
8
 10
140.709193
 20
208.273228
 11
136.408568
 21
213.886127
  0
LINE
  8
CutLine
  6
CONTINUOUS
 62
8
 10
136.408568
 20
213.886127
 11
136.779925
 21
216.691528
  0
LINE
  8
CutLine
  6
CONTINUOUS
 62
8
 10
136.779925
 20
216.691528
 11
142.392824
 21
220.992152
  0
LINE
  8
CutLine
  6
CONTINUOUS
 62
8
 10
168.317588
 20
173.676447
 11
175.533390
 21
178.499061
  0
LINE
  8
CutLine
  6
CONTINUOUS
 62
8
 10
175.533390
 20
178.499061
 11
182.501308
 21
173.324749
  0
LINE
  8
CutLine
  6
CONTINUOUS
 62
8
 10
183.215564
 20
142.891451
 11
176.989255
 21
139.539872
  0
LINE
  8
CutLine
  6
CONTINUOUS
 62
8
 10
176.989255
 20
139.539872
 11
161.637972
 21
144.147442
  0
LINE
  8
CutLine
  6
CONTINUOUS
 62
8
 10
161.637972
 20
144.147442
 11
158.286393
 21
150.373751
  0
LINE
  8
CutLine
  6
CONTINUOUS
 62
8
 10
115.364106
 20
166.174824
 11
117.209424
 21
173.000862
  0
LINE
  8
CutLine
  6
CONTINUOUS
 62
8
 10
117.209424
 20
173.000862
 11
120.447882
 21
174.860993
  0
LINE
  8
CutLine
  6
CONTINUOUS
 62
8
 10
120.447882
 20
174.860993
 11
127.273921
 21
173.015675
  0
LINE
  8
CutLine
  6
CONTINUOUS
 62
8
 10
95.863322
 20
555.078500
 11
103.500355
 21
550.684126
  0
LINE
  8
CutLine
  6
CONTINUOUS
 62
8
 10
103.500355
 20
550.684126
 11
124.944847
 21
505.744707
  0
LINE
  8
CutLine
  6
CONTINUOUS
 62
8
 10
124.944847
 20
505.744707
 11
130.220758
 21
483.078507
  0
LINE
  8
CutLine
  6
CONTINUOUS
 62
8
 10
85.757665
 20
469.403890
 11
59.435851
 21
469.011150
  0
LINE
  8
CutLine
  6
CONTINUOUS
 62
8
 10
59.435851
 20
469.011150
 11
54.361812
 21
473.935998
  0
LINE
  8
CutLine
  6
CONTINUOUS
 62
8
 10
81.140500
 20
531.971128
 11
79.610424
 21
538.874668
  0
LINE
  8
CutLine
  6
CONTINUOUS
 62
8
 10
79.610424
 20
538.874668
 11
88.125081
 21
552.238368
  0
LINE
  8
CutLine
  6
CONTINUOUS
 62
8
 10
88.125081
 20
552.238368
 11
95.863322
 21
555.078500
  0
LINE
  8
CutLine
  6
CONTINUOUS
 62
8
 10
54.361812
 20
473.935998
 11
47.860684
 21
476.717246
  0
LINE
  8
CutLine
  6
CONTINUOUS
 62
8
 10
47.860684
 20
476.717246
 11
30.220714
 21
520.735011
  0
LINE
  8
CutLine
  6
CONTINUOUS
 62
8
 10
30.220714
 20
520.735011
 11
33.001961
 21
527.236139
  0
LINE
  8
CutLine
  6
CONTINUOUS
 62
8
 10
70.725474
 20
396.090617
 11
65.836209
 21
392.756321
  0
LINE
  8
CutLine
  6
CONTINUOUS
 62
8
 10
65.836209
 20
392.756321
 11
64.913121
 21
398.601863
  0
LINE
  8
CutLine
  6
CONTINUOUS
 62
8
 10
26.273986
 20
127.308008
 11
19.962817
 21
124.119099
  0
LINE
  8
CutLine
  6
CONTINUOUS
 62
8
 10
19.962817
 20
124.119099
 11
9.612782
 21
127.520702
  0
LINE
  8
CutLine
  6
CONTINUOUS
 62
8
 10
9.612782
 20
127.520702
 11
6.423873
 21
133.831871
  0
LINE
  8
CutLine
  6
CONTINUOUS
 62
8
 10
6.423873
 20
133.831871
 11
6.154365
 21
140.897801
  0
LINE
  8
CutLine
  6
CONTINUOUS
 62
8
 10
6.154365
 20
140.897801
 11
18.170083
 21
153.866471
  0
LINE
  8
CutLine
  6
CONTINUOUS
 62
8
 10
18.170083
 20
153.866471
 11
25.236013
 21
154.135979
  0
LINE
  8
CutLine
  6
CONTINUOUS
 62
8
 10
31.170186
 20
60.486729
 11
38.354852
 21
72.154813
  0
LINE
  8
CutLine
  6
CONTINUOUS
 62
8
 10
38.354852
 20
72.154813
 11
73.305179
 21
98.469045
  0
LINE
  8
CutLine
  6
CONTINUOUS
 62
8
 10
73.305179
 20
98.469045
 11
80.307023
 21
97.482038
  0
LINE
  8
CutLine
  6
CONTINUOUS
 62
8
 10
128.039421
 20
65.182004
 11
128.822598
 21
58.154442
  0
LINE
  8
CutLine
  6
CONTINUOUS
 62
8
 10
128.822598
 20
58.154442
 11
90.995073
 21
10.838186
  0
LINE
  8
CutLine
  6
CONTINUOUS
 62
8
 10
90.995073
 20
10.838186
 11
83.967511
 21
10.055009
  0
LINE
  8
CutLine
  6
CONTINUOUS
 62
8
 10
96.182146
 20
156.904777
 11
102.724115
 21
159.588553
  0
LINE
  8
CutLine
  6
CONTINUOUS
 62
8
 10
102.724115
 20
159.588553
 11
125.462655
 21
150.079327
  0
LINE
  8
CutLine
  6
CONTINUOUS
 62
8
 10
125.462655
 20
150.079327
 11
128.146430
 21
143.537359
  0
LINE
  8
CutLine
  6
CONTINUOUS
 62
8
 10
72.483182
 20
162.885257
 11
78.554607
 21
166.509868
  0
LINE
  8
CutLine
  6
CONTINUOUS
 62
8
 10
78.554607
 20
166.509868
 11
92.557535
 21
162.976202
  0
LINE
  8
CutLine
  6
CONTINUOUS
 62
8
 10
92.557535
 20
162.976202
 11
96.182146
 21
156.904777
  0
LINE
  8
CutLine
  6
CONTINUOUS
 62
8
 10
61.482319
 20
109.767648
 11
54.612064
 21
107.876389
  0
LINE
  8
CutLine
  6
CONTINUOUS
 62
8
 10
54.612064
 20
107.876389
 11
46.341679
 21
112.492902
  0
LINE
  8
CutLine
  6
CONTINUOUS
 62
8
 10
46.341679
 20
112.492902
 11
44.412826
 21
119.295808
  0
LINE
  8
CutLine
  6
CONTINUOUS
 62
8
 10
80.573100
 20
205.371416
 11
85.533755
 21
200.332378
  0
LINE
  8
CutLine
  6
CONTINUOUS
 62
8
 10
85.533755
 20
200.332378
 11
85.468814
 21
192.047584
  0
LINE
  8
CutLine
  6
CONTINUOUS
 62
8
 10
85.468814
 20
192.047584
 11
80.429776
 21
187.086929
  0
LINE
  8
CutLine
  6
CONTINUOUS
 62
8
 10
75.640202
 20
204.484252
 11
72.014965
 21
198.498778
  0
LINE
  8
CutLine
  6
CONTINUOUS
 62
8
 10
72.014965
 20
198.498778
 11
66.107204
 21
202.249324
  0
LINE
  8
CutLine
  6
CONTINUOUS
 62
8
 10
66.107204
 20
202.249324
 11
59.254023
 21
203.991136
  0
LINE
  8
CutLine
  6
CONTINUOUS
 62
8
 10
59.254023
 20
203.991136
 11
57.096243
 21
207.619538
  0
LINE
  8
CutLine
  6
CONTINUOUS
 62
8
 10
57.096243
 20
207.619538
 11
58.838055
 21
214.472719
  0
LINE
  8
CutLine
  6
CONTINUOUS
 62
8
 10
51.782086
 20
225.188079
 11
44.829087
 21
226.474860
  0
LINE
  8
CutLine
  6
CONTINUOUS
 62
8
 10
44.829087
 20
226.474860
 11
44.160941
 21
227.446473
  0
LINE
  8
CutLine
  6
CONTINUOUS
 62
8
 10
44.160941
 20
227.446473
 11
45.447722
 21
234.399472
  0
LINE
  8
CutLine
  6
CONTINUOUS
 62
8
 10
76.862370
 20
255.499735
 11
82.594713
 21
251.359657
  0
LINE
  8
CutLine
  6
CONTINUOUS
 62
8
 10
82.594713
 20
251.359657
 11
83.839542
 21
243.641418
  0
LINE
  8
CutLine
  6
CONTINUOUS
 62
8
 10
83.839542
 20
243.641418
 11
79.699464
 21
237.909075
  0
LINE
  8
CutLine
  6
CONTINUOUS
 62
8
 10
61.562749
 20
268.356348
 11
67.083818
 21
270.873470
  0
LINE
  8
CutLine
  6
CONTINUOUS
 62
8
 10
67.083818
 20
270.873470
 11
67.457390
 21
264.817188
  0
LINE
  8
CutLine
  6
CONTINUOUS
 62
8
 10
80.679940
 20
221.810388
 11
77.462734
 21
216.604485
  0
LINE
  8
CutLine
  6
CONTINUOUS
 62
8
 10
77.462734
 20
216.604485
 11
73.635646
 21
221.379968
  0
LINE
  8
CutLine
  6
CONTINUOUS
 62
8
 10
61.562749
 20
302.556723
 11
68.185138
 21
300.078021
  0
LINE
  8
CutLine
  6
CONTINUOUS
 62
8
 10
68.185138
 20
300.078021
 11
76.655528
 21
281.473863
  0
LINE
  8
CutLine
  6
CONTINUOUS
 62
8
 10
76.655528
 20
281.473863
 11
74.176826
 21
274.851474
  0
LINE
  8
CutLine
  6
CONTINUOUS
 62
8
 10
10.629631
 20
252.041841
 11
10.501991
 21
259.111757
  0
LINE
  8
CutLine
  6
CONTINUOUS
 62
8
 10
10.501991
 20
259.111757
 11
35.284597
 21
284.805665
  0
LINE
  8
CutLine
  6
CONTINUOUS
 62
8
 10
35.284597
 20
284.805665
 11
42.382453
 21
284.962274
  0
LINE
  8
CutLine
  6
CONTINUOUS
 62
8
 10
275.584372
 20
319.054298
 11
268.276539
 21
310.904229
  0
LINE
  8
CutLine
  6
CONTINUOUS
 62
8
 10
268.276539
 20
310.904229
 11
266.217633
 21
310.116349
  0
LINE
  8
CutLine
  6
CONTINUOUS
 62
8
 10
266.217633
 20
310.116349
 11
259.760891
 21
312.999139
  0
LINE
  8
CutLine
  6
CONTINUOUS
 62
8
 10
259.760891
 20
329.941616
 11
266.234522
 21
332.598746
  0
LINE
  8
CutLine
  6
CONTINUOUS
 62
8
 10
266.234522
 20
332.598746
 11
268.754662
 21
326.070566
  0
LINE
  8
CutLine
  6
CONTINUOUS
 62
8
 10
221.086807
 20
271.230882
 11
222.417927
 21
264.286235
  0
LINE
  8
CutLine
  6
CONTINUOUS
 62
8
 10
222.417927
 20
264.286235
 11
213.714854
 21
251.455694
  0
LINE
  8
CutLine
  6
CONTINUOUS
 62
8
 10
213.714854
 20
251.455694
 11
206.770207
 21
250.124575
  0
LINE
  8
CutLine
  6
CONTINUOUS
 62
8
 10
201.494861
 20
294.408648
 11
208.074533
 21
293.925184
  0
LINE
  8
CutLine
  6
CONTINUOUS
 62
8
 10
208.074533
 20
293.925184
 11
212.694685
 21
288.572222
  0
LINE
  8
CutLine
  6
CONTINUOUS
 62
8
 10
98.004905
 20
205.676817
 11
89.358885
 21
210.809733
  0
LINE
  8
CutLine
  6
CONTINUOUS
 62
8
 10
89.358885
 20
210.809733
 11
89.417807
 21
220.864435
  0
LINE
  8
CutLine
  6
CONTINUOUS
 62
8
 10
90.868574
 20
255.565590
 11
84.474432
 21
258.584687
  0
LINE
  8
CutLine
  6
CONTINUOUS
 62
8
 10
84.474432
 20
258.584687
 11
83.381287
 21
261.633544
  0
LINE
  8
CutLine
  6
CONTINUOUS
 62
8
 10
83.381287
 20
261.633544
 11
86.400384
 21
268.027686
  0
LINE
  8
CutLine
  6
CONTINUOUS
 62
8
 10
82.720321
 20
273.835404
 11
86.282709
 21
279.943546
  0
LINE
  8
CutLine
  6
CONTINUOUS
 62
8
 10
86.282709
 20
279.943546
 11
90.332804
 21
281.009728
  0
LINE
  8
CutLine
  6
CONTINUOUS
 62
8
 10
90.332804
 20
281.009728
 11
96.440945
 21
277.447340
  0
LINE
  8
CutLine
  6
CONTINUOUS
 62
8
 10
93.262042
 20
167.531003
 11
89.870043
 21
180.836233
  0
LINE
  8
CutLine
  6
CONTINUOUS
 62
8
 10
89.870043
 20
180.836233
 11
90.160601
 21
183.184749
  0
LINE
  8
CutLine
  6
CONTINUOUS
 62
8
 10
90.160601
 20
183.184749
 11
95.736687
 21
187.532997
  0
LINE
  8
CutLine
  6
CONTINUOUS
 62
8
 10
111.350117
 20
193.837817
 11
112.706092
 21
186.897980
  0
LINE
  8
CutLine
  6
CONTINUOUS
 62
8
 10
112.706092
 20
186.897980
 11
109.675165
 21
182.395004
  0
LINE
  8
CutLine
  6
CONTINUOUS
 62
8
 10
109.675165
 20
182.395004
 11
102.735329
 21
181.039029
  0
LINE
  8
CutLine
  6
CONTINUOUS
 62
8
 10
96.371830
 20
222.068145
 11
90.626382
 21
226.190016
  0
LINE
  8
CutLine
  6
CONTINUOUS
 62
8
 10
90.626382
 20
226.190016
 11
89.631370
 21
232.237220
  0
LINE
  8
CutLine
  6
CONTINUOUS
 62
8
 10
89.631370
 20
232.237220
 11
93.753242
 21
237.982668
  0
LINE
  8
CutLine
  6
CONTINUOUS
 62
8
 10
122.261023
 20
221.079423
 11
125.359557
 21
214.723395
  0
LINE
  8
CutLine
  6
CONTINUOUS
 62
8
 10
125.359557
 20
214.723395
 11
123.705796
 21
209.923515
  0
LINE
  8
CutLine
  6
CONTINUOUS
 62
8
 10
123.705796
 20
209.923515
 11
117.349768
 21
206.824982
  0
LINE
  8
CutLine
  6
CONTINUOUS
 62
8
 10
123.731037
 20
261.019592
 11
129.335622
 21
256.708138
  0
LINE
  8
CutLine
  6
CONTINUOUS
 62
8
 10
129.335622
 20
256.708138
 11
130.258435
 21
249.631780
  0
LINE
  8
CutLine
  6
CONTINUOUS
 62
8
 10
130.258435
 20
249.631780
 11
126.698413
 21
238.265029
  0
LINE
  8
CutLine
  6
CONTINUOUS
 62
8
 10
104.043591
 20
302.547793
 11
113.182296
 21
299.577344
  0
LINE
  8
CutLine
  6
CONTINUOUS
 62
8
 10
113.182296
 20
299.577344
 11
118.837197
 21
292.988870
  0
LINE
  8
CutLine
  6
CONTINUOUS
 62
8
 10
118.837197
 20
292.988870
 11
118.299579
 21
285.938269
  0
LINE
  8
CutLine
  6
CONTINUOUS
 62
8
 10
80.657002
 20
303.477379
 11
76.214605
 21
308.978752
  0
LINE
  8
CutLine
  6
CONTINUOUS
 62
8
 10
76.214605
 20
308.978752
 11
77.776462
 21
323.644588
  0
LINE
  8
CutLine
  6
CONTINUOUS
 62
8
 10
77.776462
 20
323.644588
 11
83.698343
 21
332.035556
  0
LINE
  8
CutLine
  6
CONTINUOUS
 62
8
 10
83.698343
 20
332.035556
 11
80.399676
 21
338.290058
  0
LINE
  8
CutLine
  6
CONTINUOUS
 62
8
 10
80.399676
 20
338.290058
 11
85.817948
 21
355.801749
  0
LINE
  8
CutLine
  6
CONTINUOUS
 62
8
 10
85.817948
 20
355.801749
 11
92.857146
 21
361.636528
  0
LINE
  8
CutLine
  6
CONTINUOUS
 62
8
 10
92.857146
 20
361.636528
 11
99.710378
 21
359.894918
  0
LINE
  8
CutLine
  6
CONTINUOUS
 62
8
 10
99.710378
 20
359.894918
 11
117.645775
 21
329.737781
  0
LINE
  8
CutLine
  6
CONTINUOUS
 62
8
 10
117.645775
 20
329.737781
 11
118.779854
 21
318.049276
  0
LINE
  8
CutLine
  6
CONTINUOUS
 62
8
 10
154.579626
 20
334.105088
 11
161.187899
 21
336.621181
  0
LINE
  8
CutLine
  6
CONTINUOUS
 62
8
 10
161.187899
 20
336.621181
 11
187.863305
 21
324.657549
  0
LINE
  8
CutLine
  6
CONTINUOUS
 62
8
 10
187.863305
 20
324.657549
 11
190.379398
 21
318.049276
  0
LINE
  8
CutLine
  6
CONTINUOUS
 62
8
 10
191.454948
 20
267.592220
 11
193.436173
 21
260.804382
  0
LINE
  8
CutLine
  6
CONTINUOUS
 62
8
 10
193.436173
 20
260.804382
 11
187.076581
 21
249.202101
  0
LINE
  8
CutLine
  6
CONTINUOUS
 62
8
 10
187.076581
 20
249.202101
 11
180.288743
 21
247.220876
  0
LINE
  8
CutLine
  6
CONTINUOUS
 62
8
 10
198.457046
 20
235.013409
 11
201.619713
 21
229.829770
  0
LINE
  8
CutLine
  6
CONTINUOUS
 62
8
 10
201.619713
 20
229.829770
 11
195.649741
 21
228.719813
  0
LINE
  8
CutLine
  6
CONTINUOUS
 62
8
 10
180.003976
 20
235.833084
 11
173.063047
 21
237.183451
  0
LINE
  8
CutLine
  6
CONTINUOUS
 62
8
 10
173.063047
 20
237.183451
 11
153.229258
 21
266.598709
  0
LINE
  8
CutLine
  6
CONTINUOUS
 62
8
 10
153.229258
 20
266.598709
 11
154.579626
 21
273.539639
  0
LINE
  8
CutLine
  6
CONTINUOUS
 62
8
 10
207.658169
 20
303.174743
 11
212.976466
 21
300.244163
  0
LINE
  8
CutLine
  6
CONTINUOUS
 62
8
 10
212.976466
 20
300.244163
 11
208.344477
 21
296.317681
  0
LINE
  8
CutLine
  6
CONTINUOUS
 62
8
 10
205.744186
 20
309.410393
 11
201.465012
 21
302.510191
  0
LINE
  8
CutLine
  6
CONTINUOUS
 62
8
 10
118.589855
 20
301.341046
 11
108.896742
 21
300.970323
  0
LINE
  8
CutLine
  6
CONTINUOUS
 62
8
 10
108.586695
 20
301.071100
 11
103.415066
 21
309.410393
  0
LINE
  8
CutLine
  6
CONTINUOUS
 62
8
 10
300.800000
 20
158.390810
 11
299.973092
 21
159.195368
  0
LINE
  8
CutLine
  6
CONTINUOUS
 62
8
 10
299.973092
 20
159.195368
 11
299.498142
 21
193.864722
  0
LINE
  8
CutLine
  6
CONTINUOUS
 62
8
 10
299.498142
 20
193.864722
 11
300.800000
 21
195.202744
  0
LINE
  8
CutLine
  6
CONTINUOUS
 62
8
 10
194.152890
 20
141.641149
 11
199.514482
 21
146.251284
  0
LINE
  8
CutLine
  6
CONTINUOUS
 62
8
 10
199.514482
 20
146.251284
 11
224.091632
 21
144.399180
  0
LINE
  8
CutLine
  6
CONTINUOUS
 62
8
 10
224.091632
 20
144.399180
 11
228.701766
 21
139.037589
  0
LINE
  8
CutLine
  6
CONTINUOUS
 62
8
 10
193.307507
 20
86.854657
 11
188.385245
 21
91.931205
  0
LINE
  8
CutLine
  6
CONTINUOUS
 62
8
 10
188.385245
 20
91.931205
 11
189.076342
 21
136.718888
  0
LINE
  8
CutLine
  6
CONTINUOUS
 62
8
 10
189.076342
 20
136.718888
 11
194.152890
 21
141.641149
  0
LINE
  8
CutLine
  6
CONTINUOUS
 62
8
 10
228.701766
 20
139.037589
 11
233.627162
 21
144.111096
  0
LINE
  8
CutLine
  6
CONTINUOUS
 62
8
 10
233.627162
 20
144.111096
 11
262.016014
 21
144.531610
  0
LINE
  8
CutLine
  6
CONTINUOUS
 62
8
 10
262.016014
 20
144.531610
 11
267.089521
 21
139.606214
  0
LINE
  8
CutLine
  6
CONTINUOUS
 62
8
 10
255.513150
 20
99.503295
 11
259.835490
 21
93.907102
  0
LINE
  8
CutLine
  6
CONTINUOUS
 62
8
 10
259.835490
 20
93.907102
 11
259.484859
 21
91.176997
  0
LINE
  8
CutLine
  6
CONTINUOUS
 62
8
 10
259.484859
 20
91.176997
 11
253.888666
 21
86.854657
  0
LINE
  8
CutLine
  6
CONTINUOUS
 62
8
 10
252.698751
 20
34.334818
 11
245.946071
 21
36.432748
  0
LINE
  8
CutLine
  6
CONTINUOUS
 62
8
 10
245.946071
 20
36.432748
 11
234.305892
 21
58.565558
  0
LINE
  8
CutLine
  6
CONTINUOUS
 62
8
 10
234.305892
 20
58.565558
 11
236.403823
 21
65.318238
  0
LINE
  8
CutLine
  6
CONTINUOUS
 62
8
 10
268.893712
 20
81.226035
 11
274.905793
 21
77.503820
  0
LINE
  8
CutLine
  6
CONTINUOUS
 62
8
 10
274.905793
 20
77.503820
 11
283.921070
 21
39.179582
  0
LINE
  8
CutLine
  6
CONTINUOUS
 62
8
 10
283.921070
 20
39.179582
 11
280.198855
 21
33.167501
  0
LINE
  8
CutLine
  6
CONTINUOUS
 62
8
 10
277.898495
 20
16.305007
 11
270.922723
 21
15.148025
  0
LINE
  8
CutLine
  6
CONTINUOUS
 62
8
 10
270.922723
 20
15.148025
 11
253.855733
 21
27.359046
  0
LINE
  8
CutLine
  6
CONTINUOUS
 62
8
 10
253.855733
 20
27.359046
 11
252.698751
 21
34.334818
  0
LINE
  8
CutLine
  6
CONTINUOUS
 62
8
 10
266.872996
 20
216.908939
 11
263.947618
 21
210.471380
  0
LINE
  8
CutLine
  6
CONTINUOUS
 62
8
 10
263.947618
 20
210.471380
 11
258.305508
 21
208.354939
  0
LINE
  8
CutLine
  6
CONTINUOUS
 62
8
 10
258.305508
 20
208.354939
 11
251.867949
 21
211.280318
  0
LINE
  8
CutLine
  6
CONTINUOUS
 62
8
 10
275.877779
 20
281.829967
 11
281.507727
 21
277.551687
  0
LINE
  8
CutLine
  6
CONTINUOUS
 62
8
 10
281.507727
 20
277.551687
 11
282.456419
 21
270.597421
  0
LINE
  8
CutLine
  6
CONTINUOUS
 62
8
 10
282.456419
 20
270.597421
 11
278.178139
 21
264.967473
  0
LINE
  8
CutLine
  6
CONTINUOUS
 62
8
 10
251.867949
 20
211.280318
 11
257.464142
 21
206.957977
  0
LINE
  8
CutLine
  6
CONTINUOUS
 62
8
 10
257.464142
 20
206.957977
 11
257.814774
 21
204.227872
  0
LINE
  8
CutLine
  6
CONTINUOUS
 62
8
 10
257.814774
 20
204.227872
 11
253.492434
 21
198.631679
  0
LINE
  8
CutLine
  6
CONTINUOUS
 62
8
 10
191.286791
 20
211.280318
 11
196.241074
 21
219.345671
  0
LINE
  8
CutLine
  6
CONTINUOUS
 62
8
 10
196.241074
 20
219.345671
 11
226.912956
 21
234.673257
  0
LINE
  8
CutLine
  6
CONTINUOUS
 62
8
 10
226.912956
 20
234.673257
 11
234.383107
 21
232.816736
  0
LINE
  8
CutLine
  6
CONTINUOUS
 62
8
 10
265.068805
 20
158.528760
 11
259.995298
 21
153.603364
  0
LINE
  8
CutLine
  6
CONTINUOUS
 62
8
 10
259.995298
 20
153.603364
 11
231.606446
 21
154.023878
  0
LINE
  8
CutLine
  6
CONTINUOUS
 62
8
 10
231.606446
 20
154.023878
 11
226.681050
 21
159.097385
  0
LINE
  8
CutLine
  6
CONTINUOUS
 62
8
 10
196.614713
 20
384.305557
 11
197.773121
 21
377.330022
  0
LINE
  8
CutLine
  6
CONTINUOUS
 62
8
 10
197.773121
 20
377.330022
 11
171.716454
 21
340.895639
  0
LINE
  8
CutLine
  6
CONTINUOUS
 62
8
 10
171.716454
 20
340.895639
 11
164.740918
 21
339.737231
  0
LINE
  8
CutLine
  6
CONTINUOUS
 62
8
 10
130.271037
 20
362.668060
 11
131.308268
 21
369.662640
  0
LINE
  8
CutLine
  6
CONTINUOUS
 62
8
 10
131.308268
 20
369.662640
 11
140.294726
 21
376.328070
  0
LINE
  8
CutLine
  6
CONTINUOUS
 62
8
 10
140.294726
 20
376.328070
 11
149.100467
 21
376.634213
  0
LINE
  8
CutLine
  6
CONTINUOUS
 62
8
 10
140.833987
 20
344.823062
 11
135.362105
 21
340.344390
  0
LINE
  8
CutLine
  6
CONTINUOUS
 62
8
 10
135.362105
 20
340.344390
 11
117.321458
 21
342.145108
  0
LINE
  8
CutLine
  6
CONTINUOUS
 62
8
 10
117.321458
 20
342.145108
 11
112.842786
 21
347.616990
  0
LINE
  8
CutLine
  6
CONTINUOUS
 62
8
 10
213.489191
 20
525.557333
 11
228.882988
 21
521.035634
  0
LINE
  8
CutLine
  6
CONTINUOUS
 62
8
 10
228.882988
 20
521.035634
 11
244.528149
 21
510.271967
  0
LINE
  8
CutLine
  6
CONTINUOUS
 62
8
 10
244.528149
 20
510.271967
 11
245.813416
 21
503.318688
  0
LINE
  8
CutLine
  6
CONTINUOUS
 62
8
 10
194.489096
 20
446.337763
 11
189.726722
 21
446.535516
  0
LINE
  8
CutLine
  6
CONTINUOUS
 62
8
 10
189.726722
 20
446.535516
 11
184.938469
 21
451.738652
  0
LINE
  8
CutLine
  6
CONTINUOUS
 62
8
 10
166.769059
 20
587.291893
 11
173.469364
 21
589.551519
  0
LINE
  8
CutLine
  6
CONTINUOUS
 62
8
 10
173.469364
 20
589.551519
 11
208.594487
 21
572.142964
  0
LINE
  8
CutLine
  6
CONTINUOUS
 62
8
 10
208.594487
 20
572.142964
 11
212.207794
 21
564.771754
  0
LINE
  8
CutLine
  6
CONTINUOUS
 62
8
 10
137.403278
 20
483.949735
 11
132.276937
 21
488.820117
  0
LINE
  8
CutLine
  6
CONTINUOUS
 62
8
 10
132.276937
 20
488.820117
 11
131.190124
 21
531.266676
  0
LINE
  8
CutLine
  6
CONTINUOUS
 62
8
 10
131.190124
 20
531.266676
 11
135.933543
 21
541.351721
  0
LINE
  8
CutLine
  6
CONTINUOUS
 62
8
 10
140.528417
 20
549.221809
 11
137.148323
 21
545.861113
  0
LINE
  8
CutLine
  6
CONTINUOUS
 62
8
 10
137.148323
 20
545.861113
 11
130.077285
 21
545.881462
  0
LINE
  8
CutLine
  6
CONTINUOUS
 62
8
 10
240.255322
 20
452.910922
 11
243.451539
 21
446.603450
  0
LINE
  8
CutLine
  6
CONTINUOUS
 62
8
 10
243.451539
 20
446.603450
 11
235.671192
 21
422.837482
  0
LINE
  8
CutLine
  6
CONTINUOUS
 62
8
 10
235.671192
 20
422.837482
 11
229.363720
 21
419.641266
  0
LINE
  8
CutLine
  6
CONTINUOUS
 62
8
 10
185.560590
 20
438.032328
 11
180.576450
 21
441.223064
  0
LINE
  8
CutLine
  6
CONTINUOUS
 62
8
 10
180.576450
 20
441.223064
 11
185.592185
 21
444.363900
  0
LINE
  8
CutLine
  6
CONTINUOUS
 62
8
 10
85.460251
 20
587.568643
 11
94.425844
 21
594.256482
  0
LINE
  8
CutLine
  6
CONTINUOUS
 62
8
 10
94.425844
 20
594.256482
 11
127.077260
 21
600.112780
  0
LINE
  8
CutLine
  6
CONTINUOUS
 62
8
 10
127.077260
 20
600.112780
 11
132.881432
 21
596.074019
  0
LINE
  8
CutLine
  6
CONTINUOUS
 62
8
 10
73.546135
 20
533.168317
 11
66.481453
 21
532.867877
  0
LINE
  8
CutLine
  6
CONTINUOUS
 62
8
 10
66.481453
 20
532.867877
 11
55.763977
 21
542.710971
  0
LINE
  8
CutLine
  6
CONTINUOUS
 62
8
 10
55.763977
 20
542.710971
 11
53.366343
 21
551.701749
  0
LINE
  8
CutLine
  6
CONTINUOUS
 62
8
 10
31.444530
 20
543.387578
 11
28.073779
 21
537.171628
  0
LINE
  8
CutLine
  6
CONTINUOUS
 62
8
 10
28.073779
 20
537.171628
 11
15.584436
 21
533.464964
  0
LINE
  8
CutLine
  6
CONTINUOUS
 62
8
 10
15.584436
 20
533.464964
 11
9.368486
 21
536.835715
  0
LINE
  8
CutLine
  6
CONTINUOUS
 62
8
 10
22.120042
 20
561.909829
 11
19.204139
 21
568.351685
  0
LINE
  8
CutLine
  6
CONTINUOUS
 62
8
 10
19.204139
 20
568.351685
 11
24.296289
 21
581.866078
  0
LINE
  8
CutLine
  6
CONTINUOUS
 62
8
 10
24.296289
 20
581.866078
 11
30.738145
 21
584.781981
  0
LINE
  8
ValleyLine
  6
CONTINUOUS
 62
1
 10
19.577451
 20
359.984479
 11
46.348282
 21
318.189519
  0
LINE
  8
CutLine
  6
CONTINUOUS
 62
8
 10
46.348282
 20
318.189519
 11
60.772083
 21
336.724613
  0
LINE
  8
ValleyLine
  6
CONTINUOUS
 62
1
 10
60.772083
 20
336.724613
 11
19.577451
 21
359.984479
  0
LINE
  8
CutLine
  6
CONTINUOUS
 62
8
 10
32.880938
 20
299.510405
 11
46.348282
 21
318.189519
  0
LINE
  8
ValleyLine
  6
CONTINUOUS
 62
1
 10
19.577451
 20
359.984479
 11
32.880938
 21
299.510405
  0
LINE
  8
ValleyLine
  6
CONTINUOUS
 62
1
 10
19.577451
 20
280.207086
 11
32.880938
 21
299.510405
  0
LINE
  8
ValleyLine
  6
CONTINUOUS
 62
1
 10
19.577451
 20
359.984479
 11
19.577451
 21
280.207086
  0
LINE
  8
ValleyLine
  6
CONTINUOUS
 62
1
 10
50.073582
 20
399.144179
 11
19.577451
 21
359.984479
  0
LINE
  8
ValleyLine
  6
CONTINUOUS
 62
1
 10
19.577451
 20
359.984479
 11
62.734166
 21
379.362739
  0
LINE
  8
ValleyLine
  6
CONTINUOUS
 62
1
 10
62.734166
 20
379.362739
 11
50.073582
 21
399.144179
  0
LINE
  8
ValleyLine
  6
CONTINUOUS
 62
1
 10
50.073582
 20
399.144179
 11
38.378639
 21
418.981188
  0
LINE
  8
ValleyLine
  6
CONTINUOUS
 62
1
 10
38.378639
 20
418.981188
 11
19.577451
 21
359.984479
  0
LINE
  8
CutLine
  6
CONTINUOUS
 62
8
 10
38.378639
 20
418.981188
 11
26.904188
 21
439.424716
  0
LINE
  8
CutLine
  6
CONTINUOUS
 62
8
 10
26.904188
 20
439.424716
 11
19.577451
 21
359.984479
  0
LINE
  8
ValleyLine
  6
CONTINUOUS
 62
1
 10
19.577451
 20
359.984479
 11
79.360851
 21
357.233419
  0
LINE
  8
CutLine
  6
CONTINUOUS
 62
8
 10
79.360851
 20
357.233419
 11
62.734166
 21
379.362739
  0
LINE
  8
ValleyLine
  6
CONTINUOUS
 62
1
 10
60.772083
 20
336.724613
 11
79.360851
 21
357.233419
  0
LINE
  8
CutLine
  6
CONTINUOUS
 62
8
 10
186.517427
 20
71.527656
 11
187.990342
 21
92.370360
  0
LINE
  8
CutLine
  6
CONTINUOUS
 62
8
 10
187.990342
 20
92.370360
 11
162.077305
 21
82.640615
  0
LINE
  8
MountainLine
  6
CONTINUOUS
 62
5
 10
162.077305
 20
82.640615
 11
186.517427
 21
71.527656
  0
LINE
  8
CutLine
  6
CONTINUOUS
 62
8
 10
136.099509
 20
42.217863
 11
132.667146
 21
18.018153
  0
LINE
  8
ValleyLine
  6
CONTINUOUS
 62
1
 10
193.678339
 20
10.226115
 11
189.429946
 21
32.300011
  0
LINE
  8
CutLine
  6
CONTINUOUS
 62
8
 10
132.667146
 20
18.018153
 11
193.678339
 21
10.226115
  0
LINE
  8
ValleyLine
  6
CONTINUOUS
 62
1
 10
142.544355
 20
69.599925
 11
136.099509
 21
42.217863
  0
LINE
  8
MountainLine
  6
CONTINUOUS
 62
5
 10
189.429946
 20
32.300011
 11
142.544355
 21
69.599925
  0
LINE
  8
ValleyLine
  6
CONTINUOUS
 62
1
 10
187.069744
 20
51.705754
 11
186.517427
 21
71.527656
  0
LINE
  8
MountainLine
  6
CONTINUOUS
 62
5
 10
142.544355
 20
69.599925
 11
187.069744
 21
51.705754
  0
LINE
  8
ValleyLine
  6
CONTINUOUS
 62
1
 10
162.077305
 20
82.640615
 11
142.544355
 21
69.599925
  0
LINE
  8
CutLine
  6
CONTINUOUS
 62
8
 10
189.429946
 20
32.300011
 11
187.069744
 21
51.705754
  0
LINE
  8
MountainLine
  6
CONTINUOUS
 62
5
 10
256.049758
 20
347.630793
 11
249.679998
 21
350.669461
  0
LINE
  8
ValleyLine
  6
CONTINUOUS
 62
1
 10
249.679998
 20
350.669461
 11
243.676911
 21
335.329789
  0
LINE
  8
CutLine
  6
CONTINUOUS
 62
8
 10
243.676911
 20
335.329789
 11
256.049758
 21
347.630793
  0
LINE
  8
ValleyLine
  6
CONTINUOUS
 62
1
 10
264.583233
 20
404.005693
 11
264.033211
 21
381.432261
  0
LINE
  8
CutLine
  6
CONTINUOUS
 62
8
 10
264.033211
 20
381.432261
 11
271.703741
 21
392.222607
  0
LINE
  8
ValleyLine
  6
CONTINUOUS
 62
1
 10
271.703741
 20
392.222607
 11
264.583233
 21
404.005693
  0
LINE
  8
CutLine
  6
CONTINUOUS
 62
8
 10
276.816711
 20
396.819343
 11
264.583233
 21
404.005693
  0
LINE
  8
ValleyLine
  6
CONTINUOUS
 62
1
 10
271.703741
 20
392.222607
 11
276.816711
 21
396.819343
  0
LINE
  8
ValleyLine
  6
CONTINUOUS
 62
1
 10
232.462649
 20
312.887913
 11
237.931856
 21
297.321998
  0
LINE
  8
ValleyLine
  6
CONTINUOUS
 62
1
 10
237.931856
 20
297.321998
 11
240.956158
 21
317.248294
  0
LINE
  8
CutLine
  6
CONTINUOUS
 62
8
 10
240.956158
 20
317.248294
 11
243.676911
 21
335.329789
  0
LINE
  8
ValleyLine
  6
CONTINUOUS
 62
1
 10
243.676911
 20
335.329789
 11
227.628264
 21
327.538929
  0
LINE
  8
MountainLine
  6
CONTINUOUS
 62
5
 10
225.362580
 20
341.664400
 11
243.676911
 21
335.329789
  0
LINE
  8
ValleyLine
  6
CONTINUOUS
 62
1
 10
249.679998
 20
350.669461
 11
225.362580
 21
341.664400
  0
LINE
  8
ValleyLine
  6
CONTINUOUS
 62
1
 10
225.362580
 20
341.664400
 11
227.628264
 21
327.538929
  0
LINE
  8
CutLine
  6
CONTINUOUS
 62
8
 10
227.628264
 20
327.538929
 11
232.462649
 21
312.887913
  0
LINE
  8
CutLine
  6
CONTINUOUS
 62
8
 10
249.679998
 20
350.669461
 11
256.503021
 21
365.283680
  0
LINE
  8
ValleyLine
  6
CONTINUOUS
 62
1
 10
256.503021
 20
365.283680
 11
224.487337
 21
356.715762
  0
LINE
  8
MountainLine
  6
CONTINUOUS
 62
5
 10
224.487337
 20
356.715762
 11
249.679998
 21
350.669461
  0
LINE
  8
CutLine
  6
CONTINUOUS
 62
8
 10
224.487337
 20
356.715762
 11
225.362580
 21
341.664400
  0
LINE
  8
ValleyLine
  6
CONTINUOUS
 62
1
 10
256.503021
 20
365.283680
 11
233.868439
 21
395.566410
  0
LINE
  8
ValleyLine
  6
CONTINUOUS
 62
1
 10
233.868439
 20
395.566410
 11
224.860653
 21
374.461074
  0
LINE
  8
MountainLine
  6
CONTINUOUS
 62
5
 10
224.860653
 20
374.461074
 11
256.503021
 21
365.283680
  0
LINE
  8
MountainLine
  6
CONTINUOUS
 62
5
 10
264.583233
 20
404.005693
 11
233.868439
 21
395.566410
  0
LINE
  8
ValleyLine
  6
CONTINUOUS
 62
1
 10
256.503021
 20
365.283680
 11
264.033211
 21
381.432261
  0
LINE
  8
ValleyLine
  6
CONTINUOUS
 62
1
 10
224.860653
 20
374.461074
 11
224.487337
 21
356.715762
  0
LINE
  8
ValleyLine
  6
CONTINUOUS
 62
1
 10
264.583233
 20
404.005693
 11
245.833566
 21
418.089220
  0
LINE
  8
CutLine
  6
CONTINUOUS
 62
8
 10
245.833566
 20
418.089220
 11
233.868439
 21
395.566410
  0
LINE
  8
MountainLine
  6
CONTINUOUS
 62
5
 10
286.815861
 20
424.800068
 11
264.048624
 21
430.226813
  0
LINE
  8
MountainLine
  6
CONTINUOUS
 62
5
 10
264.048624
 20
430.226813
 11
264.583233
 21
404.005693
  0
LINE
  8
ValleyLine
  6
CONTINUOUS
 62
1
 10
264.583233
 20
404.005693
 11
286.815861
 21
424.800068
  0
LINE
  8
MountainLine
  6
CONTINUOUS
 62
5
 10
264.048624
 20
430.226813
 11
245.833566
 21
418.089220
  0
LINE
  8
ValleyLine
  6
CONTINUOUS
 62
1
 10
266.508808
 20
436.664034
 11
286.815861
 21
424.800068
  0
LINE
  8
CutLine
  6
CONTINUOUS
 62
8
 10
286.815861
 20
424.800068
 11
291.607421
 21
453.117203
  0
LINE
  8
ValleyLine
  6
CONTINUOUS
 62
1
 10
291.607421
 20
453.117203
 11
266.508808
 21
436.664034
  0
LINE
  8
CutLine
  6
CONTINUOUS
 62
8
 10
266.508808
 20
436.664034
 11
264.048624
 21
430.226813
  0
LINE
  8
ValleyLine
  6
CONTINUOUS
 62
1
 10
291.607421
 20
453.117203
 11
254.051229
 21
449.134629
  0
LINE
  8
MountainLine
  6
CONTINUOUS
 62
5
 10
254.051229
 20
449.134629
 11
266.508808
 21
436.664034
  0
LINE
  8
CutLine
  6
CONTINUOUS
 62
8
 10
291.607421
 20
453.117203
 11
290.791140
 21
484.091949
  0
LINE
  8
CutLine
  6
CONTINUOUS
 62
8
 10
290.791140
 20
484.091949
 11
254.051229
 21
449.134629
  0
LINE
  8
MountainLine
  6
CONTINUOUS
 62
5
 10
153.165983
 20
237.302292
 11
157.992719
 21
238.652536
  0
LINE
  8
ValleyLine
  6
CONTINUOUS
 62
1
 10
157.992719
 20
238.652536
 11
149.898830
 21
255.048632
  0
LINE
  8
ValleyLine
  6
CONTINUOUS
 62
1
 10
149.898830
 20
255.048632
 11
153.165983
 21
237.302292
  0
LINE
  8
MountainLine
  6
CONTINUOUS
 62
5
 10
158.721528
 20
221.220644
 11
157.992719
 21
238.652536
  0
LINE
  8
ValleyLine
  6
CONTINUOUS
 62
1
 10
153.165983
 20
237.302292
 11
158.721528
 21
221.220644
  0
LINE
  8
CutLine
  6
CONTINUOUS
 62
8
 10
153.165983
 20
237.302292
 11
143.611433
 21
235.161376
  0
LINE
  8
CutLine
  6
CONTINUOUS
 62
8
 10
143.611433
 20
235.161376
 11
142.392824
 21
220.992152
  0
LINE
  8
MountainLine
  6
CONTINUOUS
 62
5
 10
142.392824
 20
220.992152
 11
158.721528
 21
221.220644
  0
LINE
  8
CutLine
  6
CONTINUOUS
 62
8
 10
149.898830
 20
255.048632
 11
141.352918
 21
273.301605
  0
LINE
  8
ValleyLine
  6
CONTINUOUS
 62
1
 10
141.352918
 20
273.301605
 11
142.826287
 21
250.723848
  0
LINE
  8
ValleyLine
  6
CONTINUOUS
 62
1
 10
142.826287
 20
250.723848
 11
153.165983
 21
237.302292
  0
LINE
  8
CutLine
  6
CONTINUOUS
 62
8
 10
140.709193
 20
208.273228
 11
139.019965
 21
197.222417
  0
LINE
  8
CutLine
  6
CONTINUOUS
 62
8
 10
176.488881
 20
191.913795
 11
171.380011
 21
208.983648
  0
LINE
  8
MountainLine
  6
CONTINUOUS
 62
5
 10
139.019965
 20
197.222417
 11
168.317588
 21
173.676447
  0
LINE
  8
CutLine
  6
CONTINUOUS
 62
8
 10
168.317588
 20
173.676447
 11
172.081880
 21
179.429929
  0
LINE
  8
ValleyLine
  6
CONTINUOUS
 62
1
 10
172.081880
 20
179.429929
 11
176.488881
 21
191.913795
  0
LINE
  8
CutLine
  6
CONTINUOUS
 62
8
 10
165.249847
 20
223.901763
 11
158.721528
 21
221.220644
  0
LINE
  8
ValleyLine
  6
CONTINUOUS
 62
1
 10
171.380011
 20
208.983648
 11
165.249847
 21
223.901763
  0
LINE
  8
ValleyLine
  6
CONTINUOUS
 62
1
 10
142.392824
 20
220.992152
 11
140.709193
 21
208.273228
  0
LINE
  8
ValleyLine
  6
CONTINUOUS
 62
1
 10
168.317588
 20
173.676447
 11
183.215564
 21
142.891451
  0
LINE
  8
CutLine
  6
CONTINUOUS
 62
8
 10
183.215564
 20
142.891451
 11
182.501308
 21
173.324749
  0
LINE
  8
MountainLine
  6
CONTINUOUS
 62
5
 10
182.501308
 20
173.324749
 11
168.317588
 21
173.676447
  0
LINE
  8
CutLine
  6
CONTINUOUS
 62
8
 10
139.019965
 20
197.222417
 11
138.981084
 21
187.481199
  0
LINE
  8
ValleyLine
  6
CONTINUOUS
 62
1
 10
138.981084
 20
187.481199
 11
168.317588
 21
173.676447
  0
LINE
  8
CutLine
  6
CONTINUOUS
 62
8
 10
138.981084
 20
187.481199
 11
127.273921
 21
173.015675
  0
LINE
  8
MountainLine
  6
CONTINUOUS
 62
5
 10
127.273921
 20
173.015675
 11
158.286393
 21
150.373751
  0
LINE
  8
MountainLine
  6
CONTINUOUS
 62
5
 10
158.286393
 20
150.373751
 11
183.215564
 21
142.891451
  0
LINE
  8
ValleyLine
  6
CONTINUOUS
 62
1
 10
127.273921
 20
173.015675
 11
115.364106
 21
166.174824
  0
LINE
  8
CutLine
  6
CONTINUOUS
 62
8
 10
115.364106
 20
166.174824
 11
158.286393
 21
150.373751
  0
LINE
  8
ValleyLine
  6
CONTINUOUS
 62
1
 10
130.220758
 20
483.078507
 11
95.863322
 21
555.078500
  0
LINE
  8
ValleyLine
  6
CONTINUOUS
 62
1
 10
95.863322
 20
555.078500
 11
95.863322
 21
474.555230
  0
LINE
  8
ValleyLine
  6
CONTINUOUS
 62
1
 10
95.863322
 20
474.555230
 11
130.220758
 21
483.078507
  0
LINE
  8
CutLine
  6
CONTINUOUS
 62
8
 10
63.037573
 20
509.799825
 11
56.421067
 21
509.547075
  0
LINE
  8
ValleyLine
  6
CONTINUOUS
 62
1
 10
54.361812
 20
473.935998
 11
95.863322
 21
474.555230
  0
LINE
  8
CutLine
  6
CONTINUOUS
 62
8
 10
78.507598
 20
519.618330
 11
71.449077
 21
512.109854
  0
LINE
  8
CutLine
  6
CONTINUOUS
 62
8
 10
81.140500
 20
531.971128
 11
78.507598
 21
519.618330
  0
LINE
  8
MountainLine
  6
CONTINUOUS
 62
5
 10
95.863322
 20
555.078500
 11
81.140500
 21
531.971128
  0
LINE
  8
CutLine
  6
CONTINUOUS
 62
8
 10
71.449077
 20
512.109854
 11
63.037573
 21
509.799825
  0
LINE
  8
CutLine
  6
CONTINUOUS
 62
8
 10
56.421067
 20
509.547075
 11
49.416779
 21
512.710744
  0
LINE
  8
CutLine
  6
CONTINUOUS
 62
8
 10
49.416779
 20
512.710744
 11
44.573130
 21
519.291028
  0
LINE
  8
ValleyLine
  6
CONTINUOUS
 62
1
 10
33.001961
 20
527.236139
 11
54.361812
 21
473.935998
  0
LINE
  8
CutLine
  6
CONTINUOUS
 62
8
 10
44.573130
 20
519.291028
 11
36.966652
 21
532.172841
  0
LINE
  8
CutLine
  6
CONTINUOUS
 62
8
 10
36.966652
 20
532.172841
 11
33.001961
 21
527.236139
  0
LINE
  8
CutLine
  6
CONTINUOUS
 62
8
 10
133.499030
 20
403.368500
 11
130.220758
 21
483.078507
  0
LINE
  8
ValleyLine
  6
CONTINUOUS
 62
1
 10
95.863322
 20
474.555230
 11
133.499030
 21
403.368500
  0
LINE
  8
CutLine
  6
CONTINUOUS
 62
8
 10
72.635655
 20
419.115171
 11
77.349143
 21
425.185746
  0
LINE
  8
CutLine
  6
CONTINUOUS
 62
8
 10
71.429173
 20
411.033991
 11
72.635655
 21
419.115171
  0
LINE
  8
CutLine
  6
CONTINUOUS
 62
8
 10
58.884422
 20
455.705304
 11
64.913121
 21
398.601863
  0
LINE
  8
ValleyLine
  6
CONTINUOUS
 62
1
 10
64.913121
 20
398.601863
 11
70.725474
 21
396.090617
  0
LINE
  8
CutLine
  6
CONTINUOUS
 62
8
 10
70.725474
 20
396.090617
 11
71.429173
 21
411.033991
  0
LINE
  8
CutLine
  6
CONTINUOUS
 62
8
 10
83.316609
 20
428.054786
 11
91.832495
 21
429.944047
  0
LINE
  8
CutLine
  6
CONTINUOUS
 62
8
 10
95.863322
 20
474.555230
 11
58.884422
 21
455.705304
  0
LINE
  8
CutLine
  6
CONTINUOUS
 62
8
 10
91.832495
 20
429.944047
 11
101.581973
 21
426.605243
  0
LINE
  8
CutLine
  6
CONTINUOUS
 62
8
 10
101.581973
 20
426.605243
 11
109.683159
 21
416.915322
  0
LINE
  8
CutLine
  6
CONTINUOUS
 62
8
 10
109.683159
 20
416.915322
 11
133.499030
 21
403.368500
  0
LINE
  8
CutLine
  6
CONTINUOUS
 62
8
 10
77.349143
 20
425.185746
 11
83.316609
 21
428.054786
  0
LINE
  8
ValleyLine
  6
CONTINUOUS
 62
1
 10
6.423873
 20
133.831871
 11
26.273986
 21
127.308008
  0
LINE
  8
MountainLine
  6
CONTINUOUS
 62
5
 10
26.273986
 20
127.308008
 11
25.236013
 21
154.135979
  0
LINE
  8
ValleyLine
  6
CONTINUOUS
 62
1
 10
25.236013
 20
154.135979
 11
6.423873
 21
133.831871
  0
LINE
  8
MountainLine
  6
CONTINUOUS
 62
5
 10
103.222174
 20
82.031000
 11
96.182146
 21
156.904777
  0
LINE
  8
MountainLine
  6
CONTINUOUS
 62
5
 10
96.182146
 20
156.904777
 11
80.307023
 21
97.482038
  0
LINE
  8
ValleyLine
  6
CONTINUOUS
 62
1
 10
80.307023
 20
97.482038
 11
103.222174
 21
82.031000
  0
LINE
  8
MountainLine
  6
CONTINUOUS
 62
5
 10
31.170186
 20
60.486729
 11
103.222174
 21
82.031000
  0
LINE
  8
MountainLine
  6
CONTINUOUS
 62
5
 10
80.307023
 20
97.482038
 11
31.170186
 21
60.486729
  0
LINE
  8
MountainLine
  6
CONTINUOUS
 62
5
 10
128.092926
 20
65.261356
 11
103.222174
 21
82.031000
  0
LINE
  8
CutLine
  6
CONTINUOUS
 62
8
 10
55.546290
 20
35.865419
 11
83.967511
 21
10.055009
  0
LINE
  8
MountainLine
  6
CONTINUOUS
 62
5
 10
83.967511
 20
10.055009
 11
128.039421
 21
65.182004
  0
LINE
  8
CutLine
  6
CONTINUOUS
 62
8
 10
31.170186
 20
60.486729
 11
55.546290
 21
35.865419
  0
LINE
  8
CutLine
  6
CONTINUOUS
 62
8
 10
162.729633
 20
126.865670
 11
128.146430
 21
143.537359
  0
LINE
  8
CutLine
  6
CONTINUOUS
 62
8
 10
128.146430
 20
65.340708
 11
162.729633
 21
126.865670
  0
LINE
  8
ValleyLine
  6
CONTINUOUS
 62
1
 10
128.146430
 20
143.537359
 11
96.182146
 21
156.904777
  0
LINE
  8
ValleyLine
  6
CONTINUOUS
 62
1
 10
96.182146
 20
156.904777
 11
72.483182
 21
162.885257
  0
LINE
  8
CutLine
  6
CONTINUOUS
 62
8
 10
61.482319
 20
109.767648
 11
80.307023
 21
97.482038
  0
LINE
  8
CutLine
  6
CONTINUOUS
 62
8
 10
72.483182
 20
162.885257
 11
44.698544
 21
167.281536
  0
LINE
  8
MountainLine
  6
CONTINUOUS
 62
5
 10
44.698544
 20
167.281536
 11
61.482319
 21
109.767648
  0
LINE
  8
CutLine
  6
CONTINUOUS
 62
8
 10
26.273986
 20
127.308008
 11
44.412826
 21
119.295808
  0
LINE
  8
MountainLine
  6
CONTINUOUS
 62
5
 10
44.412826
 20
119.295808
 11
44.698544
 21
167.281536
  0
LINE
  8
CutLine
  6
CONTINUOUS
 62
8
 10
44.698544
 20
167.281536
 11
25.236013
 21
154.135979
  0
LINE
  8
ValleyLine
  6
CONTINUOUS
 62
1
 10
44.412826
 20
119.295808
 11
61.482319
 21
109.767648
  0
LINE
  8
MountainLine
  6
CONTINUOUS
 62
5
 10
80.573100
 20
205.371416
 11
75.640202
 21
204.484252
  0
LINE
  8
ValleyLine
  6
CONTINUOUS
 62
1
 10
75.640202
 20
204.484252
 11
80.429776
 21
187.086929
  0
LINE
  8
ValleyLine
  6
CONTINUOUS
 62
1
 10
80.429776
 20
187.086929
 11
80.573100
 21
205.371416
  0
LINE
  8
CutLine
  6
CONTINUOUS
 62
8
 10
80.573100
 20
205.371416
 11
73.635646
 21
221.379968
  0
LINE
  8
ValleyLine
  6
CONTINUOUS
 62
1
 10
73.635646
 20
221.379968
 11
75.640202
 21
204.484252
  0
LINE
  8
MountainLine
  6
CONTINUOUS
 62
5
 10
66.107204
 20
202.249324
 11
75.640202
 21
204.484252
  0
LINE
  8
ValleyLine
  6
CONTINUOUS
 62
1
 10
58.838055
 20
214.472719
 11
66.107204
 21
202.249324
  0
LINE
  8
MountainLine
  6
CONTINUOUS
 62
5
 10
73.635646
 20
221.379968
 11
58.838055
 21
214.472719
  0
LINE
  8
CutLine
  6
CONTINUOUS
 62
8
 10
80.688442
 20
166.934094
 11
80.429776
 21
187.086929
  0
LINE
  8
CutLine
  6
CONTINUOUS
 62
8
 10
72.179612
 20
187.898963
 11
80.688442
 21
166.934094
  0
LINE
  8
CutLine
  6
CONTINUOUS
 62
8
 10
75.640202
 20
204.484252
 11
72.179612
 21
187.898963
  0
LINE
  8
ValleyLine
  6
CONTINUOUS
 62
1
 10
45.447722
 20
234.399472
 11
51.782086
 21
225.188079
  0
LINE
  8
ValleyLine
  6
CONTINUOUS
 62
1
 10
79.699464
 20
237.909075
 11
76.862370
 21
255.499735
  0
LINE
  8
MountainLine
  6
CONTINUOUS
 62
5
 10
61.562749
 20
268.356348
 11
45.447722
 21
234.399472
  0
LINE
  8
ValleyLine
  6
CONTINUOUS
 62
1
 10
67.457390
 20
264.817188
 11
61.562749
 21
268.356348
  0
LINE
  8
CutLine
  6
CONTINUOUS
 62
8
 10
76.862370
 20
255.499735
 11
67.457390
 21
264.817188
  0
LINE
  8
MountainLine
  6
CONTINUOUS
 62
5
 10
73.635646
 20
221.379968
 11
80.679940
 21
221.810388
  0
LINE
  8
CutLine
  6
CONTINUOUS
 62
8
 10
80.679940
 20
221.810388
 11
79.699464
 21
237.909075
  0
LINE
  8
CutLine
  6
CONTINUOUS
 62
8
 10
51.782086
 20
225.188079
 11
58.838055
 21
214.472719
  0
LINE
  8
ValleyLine
  6
CONTINUOUS
 62
1
 10
61.562749
 20
302.556723
 11
61.562749
 21
268.356348
  0
LINE
  8
CutLine
  6
CONTINUOUS
 62
8
 10
61.562749
 20
268.356348
 11
74.176826
 21
274.851474
  0
LINE
  8
ValleyLine
  6
CONTINUOUS
 62
1
 10
74.176826
 20
274.851474
 11
61.562749
 21
302.556723
  0
LINE
  8
ValleyLine
  6
CONTINUOUS
 62
1
 10
41.169367
 20
243.150959
 11
61.562749
 21
268.356348
  0
LINE
  8
CutLine
  6
CONTINUOUS
 62
8
 10
61.562749
 20
302.556723
 11
42.382453
 21
284.962274
  0
LINE
  8
CutLine
  6
CONTINUOUS
 62
8
 10
24.330019
 20
251.072161
 11
41.169367
 21
243.150959
  0
LINE
  8
MountainLine
  6
CONTINUOUS
 62
5
 10
42.382453
 20
284.962274
 11
24.330019
 21
251.072161
  0
LINE
  8
CutLine
  6
CONTINUOUS
 62
8
 10
41.169367
 20
243.150959
 11
45.447722
 21
234.399472
  0
LINE
  8
MountainLine
  6
CONTINUOUS
 62
5
 10
42.382453
 20
284.962274
 11
10.629631
 21
252.041841
  0
LINE
  8
CutLine
  6
CONTINUOUS
 62
8
 10
10.629631
 20
252.041841
 11
24.330019
 21
251.072161
  0
LINE
  8
ValleyLine
  6
CONTINUOUS
 62
1
 10
268.754662
 20
326.070566
 11
259.760891
 21
312.999139
  0
LINE
  8
ValleyLine
  6
CONTINUOUS
 62
1
 10
259.760891
 20
312.999139
 11
275.584372
 21
319.054298
  0
LINE
  8
CutLine
  6
CONTINUOUS
 62
8
 10
275.584372
 20
319.054298
 11
268.754662
 21
326.070566
  0
LINE
  8
MountainLine
  6
CONTINUOUS
 62
5
 10
268.754662
 20
326.070566
 11
259.760891
 21
329.941616
  0
LINE
  8
CutLine
  6
CONTINUOUS
 62
8
 10
259.760891
 20
329.941616
 11
259.760891
 21
312.999139
  0
LINE
  8
CutLine
  6
CONTINUOUS
 62
8
 10
221.086807
 20
271.230882
 11
235.638395
 21
288.974239
  0
LINE
  8
MountainLine
  6
CONTINUOUS
 62
5
 10
235.638395
 20
288.974239
 11
191.454948
 21
267.592220
  0
LINE
  8
CutLine
  6
CONTINUOUS
 62
8
 10
191.454948
 20
267.592220
 11
206.770207
 21
250.124575
  0
LINE
  8
ValleyLine
  6
CONTINUOUS
 62
1
 10
206.770207
 20
250.124575
 11
221.086807
 21
271.230882
  0
LINE
  8
CutLine
  6
CONTINUOUS
 62
8
 10
235.638395
 20
288.974239
 11
212.694685
 21
288.572222
  0
LINE
  8
MountainLine
  6
CONTINUOUS
 62
5
 10
187.259507
 20
290.441160
 11
191.454948
 21
267.592220
  0
LINE
  8
ValleyLine
  6
CONTINUOUS
 62
1
 10
212.694685
 20
288.572222
 11
187.259507
 21
290.441160
  0
LINE
  8
CutLine
  6
CONTINUOUS
 62
8
 10
96.371830
 20
222.068145
 11
89.417807
 21
220.864435
  0
LINE
  8
MountainLine
  6
CONTINUOUS
 62
5
 10
89.417807
 20
220.864435
 11
98.004905
 21
205.676817
  0
LINE
  8
ValleyLine
  6
CONTINUOUS
 62
1
 10
98.004905
 20
205.676817
 11
96.371830
 21
222.068145
  0
LINE
  8
ValleyLine
  6
CONTINUOUS
 62
1
 10
90.868574
 20
255.565590
 11
96.440945
 21
277.447340
  0
LINE
  8
ValleyLine
  6
CONTINUOUS
 62
1
 10
96.440945
 20
277.447340
 11
86.400384
 21
268.027686
  0
LINE
  8
ValleyLine
  6
CONTINUOUS
 62
1
 10
86.400384
 20
268.027686
 11
90.868574
 21
255.565590
  0
LINE
  8
MountainLine
  6
CONTINUOUS
 62
5
 10
96.440945
 20
277.447340
 11
82.720321
 21
273.835404
  0
LINE
  8
CutLine
  6
CONTINUOUS
 62
8
 10
82.720321
 20
273.835404
 11
86.400384
 21
268.027686
  0
LINE
  8
CutLine
  6
CONTINUOUS
 62
8
 10
93.262042
 20
167.531003
 11
102.735329
 21
181.039029
  0
LINE
  8
ValleyLine
  6
CONTINUOUS
 62
1
 10
95.736687
 20
187.532997
 11
93.262042
 21
167.531003
  0
LINE
  8
CutLine
  6
CONTINUOUS
 62
8
 10
98.004905
 20
205.676817
 11
95.736687
 21
187.532997
  0
LINE
  8
ValleyLine
  6
CONTINUOUS
 62
1
 10
111.350117
 20
193.837817
 11
98.004905
 21
205.676817
  0
LINE
  8
MountainLine
  6
CONTINUOUS
 62
5
 10
98.004905
 20
205.676817
 11
117.349768
 21
206.824982
  0
LINE
  8
ValleyLine
  6
CONTINUOUS
 62
1
 10
117.349768
 20
206.824982
 11
96.371830
 21
222.068145
  0
LINE
  8
CutLine
  6
CONTINUOUS
 62
8
 10
111.350117
 20
193.837817
 11
117.349768
 21
206.824982
  0
LINE
  8
ValleyLine
  6
CONTINUOUS
 62
1
 10
102.735329
 20
181.039029
 11
111.350117
 21
193.837817
  0
LINE
  8
ValleyLine
  6
CONTINUOUS
 62
1
 10
93.753242
 20
237.982668
 11
96.371830
 21
222.068145
  0
LINE
  8
MountainLine
  6
CONTINUOUS
 62
5
 10
96.371830
 20
222.068145
 11
122.261023
 21
221.079423
  0
LINE
  8
ValleyLine
  6
CONTINUOUS
 62
1
 10
122.261023
 20
221.079423
 11
93.753242
 21
237.982668
  0
LINE
  8
ValleyLine
  6
CONTINUOUS
 62
1
 10
117.349768
 20
206.824982
 11
122.261023
 21
221.079423
  0
LINE
  8
ValleyLine
  6
CONTINUOUS
 62
1
 10
123.731037
 20
261.019592
 11
93.753242
 21
237.982668
  0
LINE
  8
MountainLine
  6
CONTINUOUS
 62
5
 10
93.753242
 20
237.982668
 11
126.698413
 21
238.265029
  0
LINE
  8
ValleyLine
  6
CONTINUOUS
 62
1
 10
126.698413
 20
238.265029
 11
123.731037
 21
261.019592
  0
LINE
  8
MountainLine
  6
CONTINUOUS
 62
5
 10
123.731037
 20
261.019592
 11
96.440945
 21
277.447340
  0
LINE
  8
CutLine
  6
CONTINUOUS
 62
8
 10
90.868574
 20
255.565590
 11
93.753242
 21
237.982668
  0
LINE
  8
CutLine
  6
CONTINUOUS
 62
8
 10
122.261023
 20
221.079423
 11
126.698413
 21
238.265029
  0
LINE
  8
CutLine
  6
CONTINUOUS
 62
8
 10
123.731037
 20
261.019592
 11
118.299579
 21
285.938269
  0
LINE
  8
ValleyLine
  6
CONTINUOUS
 62
1
 10
118.299579
 20
285.938269
 11
96.440945
 21
277.447340
  0
LINE
  8
MountainLine
  6
CONTINUOUS
 62
5
 10
104.043591
 20
302.547793
 11
80.657002
 21
303.477379
  0
LINE
  8
CutLine
  6
CONTINUOUS
 62
8
 10
80.657002
 20
303.477379
 11
96.440945
 21
277.447340
  0
LINE
  8
MountainLine
  6
CONTINUOUS
 62
5
 10
96.440945
 20
277.447340
 11
104.043591
 21
302.547793
  0
LINE
  8
MountainLine
  6
CONTINUOUS
 62
5
 10
118.299579
 20
285.938269
 11
104.043591
 21
302.547793
  0
LINE
  8
ValleyLine
  6
CONTINUOUS
 62
1
 10
80.657002
 20
303.477379
 11
103.415066
 21
309.410393
  0
LINE
  8
ValleyLine
  6
CONTINUOUS
 62
1
 10
103.415066
 20
309.410393
 11
83.698343
 21
332.035556
  0
LINE
  8
MountainLine
  6
CONTINUOUS
 62
5
 10
83.698343
 20
332.035556
 11
80.657002
 21
303.477379
  0
LINE
  8
CutLine
  6
CONTINUOUS
 62
8
 10
104.043591
 20
302.547793
 11
103.415066
 21
309.410393
  0
LINE
  8
MountainLine
  6
CONTINUOUS
 62
5
 10
103.415066
 20
309.410393
 11
118.779854
 21
318.049276
  0
LINE
  8
ValleyLine
  6
CONTINUOUS
 62
1
 10
118.779854
 20
318.049276
 11
83.698343
 21
332.035556
  0
LINE
  8
ValleyLine
  6
CONTINUOUS
 62
1
 10
92.857146
 20
361.636528
 11
83.698343
 21
332.035556
  0
LINE
  8
MountainLine
  6
CONTINUOUS
 62
5
 10
118.779854
 20
318.049276
 11
92.857146
 21
361.636528
  0
LINE
  8
ValleyLine
  6
CONTINUOUS
 62
1
 10
154.579626
 20
334.105088
 11
154.579626
 21
273.539639
  0
LINE
  8
ValleyLine
  6
CONTINUOUS
 62
1
 10
154.579626
 20
273.539639
 11
190.569397
 21
301.341046
  0
LINE
  8
MountainLine
  6
CONTINUOUS
 62
5
 10
190.569397
 20
301.341046
 11
154.579626
 21
334.105088
  0
LINE
  8
MountainLine
  6
CONTINUOUS
 62
5
 10
190.379398
 20
318.049276
 11
154.579626
 21
334.105088
  0
LINE
  8
ValleyLine
  6
CONTINUOUS
 62
1
 10
190.569397
 20
301.341046
 11
190.379398
 21
318.049276
  0
LINE
  8
CutLine
  6
CONTINUOUS
 62
8
 10
154.579626
 20
334.105088
 11
118.779854
 21
318.049276
  0
LINE
  8
ValleyLine
  6
CONTINUOUS
 62
1
 10
118.779854
 20
318.049276
 11
118.589855
 21
301.341046
  0
LINE
  8
MountainLine
  6
CONTINUOUS
 62
5
 10
118.589855
 20
301.341046
 11
154.579626
 21
334.105088
  0
LINE
  8
CutLine
  6
CONTINUOUS
 62
8
 10
118.589855
 20
301.341046
 11
154.579626
 21
273.539639
  0
LINE
  8
MountainLine
  6
CONTINUOUS
 62
5
 10
180.288743
 20
247.220876
 11
191.454948
 21
267.592220
  0
LINE
  8
ValleyLine
  6
CONTINUOUS
 62
1
 10
154.579626
 20
273.539639
 11
180.288743
 21
247.220876
  0
LINE
  8
ValleyLine
  6
CONTINUOUS
 62
1
 10
187.259507
 20
290.441160
 11
154.579626
 21
273.539639
  0
LINE
  8
ValleyLine
  6
CONTINUOUS
 62
1
 10
180.288743
 20
247.220876
 11
180.003976
 21
235.833084
  0
LINE
  8
MountainLine
  6
CONTINUOUS
 62
5
 10
180.003976
 20
235.833084
 11
198.457046
 21
235.013409
  0
LINE
  8
CutLine
  6
CONTINUOUS
 62
8
 10
198.457046
 20
235.013409
 11
180.288743
 21
247.220876
  0
LINE
  8
CutLine
  6
CONTINUOUS
 62
8
 10
180.003976
 20
235.833084
 11
195.649741
 21
228.719813
  0
LINE
  8
MountainLine
  6
CONTINUOUS
 62
5
 10
195.649741
 20
228.719813
 11
198.457046
 21
235.013409
  0
LINE
  8
ValleyLine
  6
CONTINUOUS
 62
1
 10
154.579626
 20
273.539639
 11
180.003976
 21
235.833084
  0
LINE
  8
ValleyLine
  6
CONTINUOUS
 62
1
 10
190.569397
 20
301.341046
 11
187.259507
 21
290.441160
  0
LINE
  8
CutLine
  6
CONTINUOUS
 62
8
 10
187.259507
 20
290.441160
 11
208.344477
 21
296.317681
  0
LINE
  8
MountainLine
  6
CONTINUOUS
 62
5
 10
208.344477
 20
296.317681
 11
190.569397
 21
301.341046
  0
LINE
  8
MountainLine
  6
CONTINUOUS
 62
5
 10
208.344477
 20
296.317681
 11
207.658169
 21
303.174743
  0
LINE
  8
CutLine
  6
CONTINUOUS
 62
8
 10
207.658169
 20
303.174743
 11
190.569397
 21
301.341046
  0
LINE
  8
CutLine
  6
CONTINUOUS
 62
8
 10
205.744186
 20
309.410393
 11
190.379398
 21
318.049276
  0
LINE
  8
ValleyLine
  6
CONTINUOUS
 62
1
 10
190.569397
 20
301.341046
 11
205.744186
 21
309.410393
  0
LINE
  8
ValleyLine
  6
CONTINUOUS
 62
1
 10
103.415066
 20
309.410393
 11
118.589855
 21
301.341046
  0
LINE
  8
ValleyLine
  6
CONTINUOUS
 62
1
 10
193.307507
 20
86.854657
 11
255.513150
 21
99.503295
  0
LINE
  8
ValleyLine
  6
CONTINUOUS
 62
1
 10
228.701766
 20
139.037589
 11
194.152890
 21
141.641149
  0
LINE
  8
MountainLine
  6
CONTINUOUS
 62
5
 10
194.152890
 20
141.641149
 11
193.307507
 21
86.854657
  0
LINE
  8
ValleyLine
  6
CONTINUOUS
 62
1
 10
267.089521
 20
139.606214
 11
228.701766
 21
139.037589
  0
LINE
  8
CutLine
  6
CONTINUOUS
 62
8
 10
255.513150
 20
99.503295
 11
267.089521
 21
139.606214
  0
LINE
  8
CutLine
  6
CONTINUOUS
 62
8
 10
193.307507
 20
86.854657
 11
236.403823
 21
65.318238
  0
LINE
  8
MountainLine
  6
CONTINUOUS
 62
5
 10
236.403823
 20
65.318238
 11
253.888666
 21
86.854657
  0
LINE
  8
ValleyLine
  6
CONTINUOUS
 62
1
 10
253.888666
 20
86.854657
 11
193.307507
 21
86.854657
  0
LINE
  8
MountainLine
  6
CONTINUOUS
 62
5
 10
253.888666
 20
86.854657
 11
255.513150
 21
99.503295
  0
LINE
  8
MountainLine
  6
CONTINUOUS
 62
5
 10
236.403823
 20
65.318238
 11
252.698751
 21
34.334818
  0
LINE
  8
ValleyLine
  6
CONTINUOUS
 62
1
 10
252.698751
 20
34.334818
 11
268.893712
 21
81.226035
  0
LINE
  8
ValleyLine
  6
CONTINUOUS
 62
1
 10
268.893712
 20
81.226035
 11
236.403823
 21
65.318238
  0
LINE
  8
CutLine
  6
CONTINUOUS
 62
8
 10
268.893712
 20
81.226035
 11
253.888666
 21
86.854657
  0
LINE
  8
MountainLine
  6
CONTINUOUS
 62
5
 10
280.198855
 20
33.167501
 11
268.893712
 21
81.226035
  0
LINE
  8
MountainLine
  6
CONTINUOUS
 62
5
 10
252.698751
 20
34.334818
 11
280.198855
 21
33.167501
  0
LINE
  8
CutLine
  6
CONTINUOUS
 62
8
 10
277.898495
 20
16.305007
 11
280.198855
 21
33.167501
  0
LINE
  8
ValleyLine
  6
CONTINUOUS
 62
1
 10
252.698751
 20
34.334818
 11
277.898495
 21
16.305007
  0
LINE
  8
MountainLine
  6
CONTINUOUS
 62
5
 10
234.383107
 20
232.816736
 11
251.867949
 21
211.280318
  0
LINE
  8
ValleyLine
  6
CONTINUOUS
 62
1
 10
251.867949
 20
211.280318
 11
266.872996
 21
216.908939
  0
LINE
  8
ValleyLine
  6
CONTINUOUS
 62
1
 10
266.872996
 20
216.908939
 11
234.383107
 21
232.816736
  0
LINE
  8
ValleyLine
  6
CONTINUOUS
 62
1
 10
266.872996
 20
216.908939
 11
250.678034
 21
263.800156
  0
LINE
  8
CutLine
  6
CONTINUOUS
 62
8
 10
250.678034
 20
263.800156
 11
234.383107
 21
232.816736
  0
LINE
  8
CutLine
  6
CONTINUOUS
 62
8
 10
266.872996
 20
216.908939
 11
278.178139
 21
264.967473
  0
LINE
  8
MountainLine
  6
CONTINUOUS
 62
5
 10
278.178139
 20
264.967473
 11
250.678034
 21
263.800156
  0
LINE
  8
MountainLine
  6
CONTINUOUS
 62
5
 10
278.178139
 20
264.967473
 11
275.877779
 21
281.829967
  0
LINE
  8
CutLine
  6
CONTINUOUS
 62
8
 10
275.877779
 20
281.829967
 11
250.678034
 21
263.800156
  0
LINE
  8
ValleyLine
  6
CONTINUOUS
 62
1
 10
191.286791
 20
211.280318
 11
253.492434
 21
198.631679
  0
LINE
  8
MountainLine
  6
CONTINUOUS
 62
5
 10
253.492434
 20
198.631679
 11
251.867949
 21
211.280318
  0
LINE
  8
ValleyLine
  6
CONTINUOUS
 62
1
 10
251.867949
 20
211.280318
 11
191.286791
 21
211.280318
  0
LINE
  8
ValleyLine
  6
CONTINUOUS
 62
1
 10
234.383107
 20
232.816736
 11
191.286791
 21
211.280318
  0
LINE
  8
CutLine
  6
CONTINUOUS
 62
8
 10
192.132174
 20
156.493825
 11
226.681050
 21
159.097385
  0
LINE
  8
CutLine
  6
CONTINUOUS
 62
8
 10
191.286791
 20
211.280318
 11
192.132174
 21
156.493825
  0
LINE
  8
CutLine
  6
CONTINUOUS
 62
8
 10
265.068805
 20
158.528760
 11
253.492434
 21
198.631679
  0
LINE
  8
ValleyLine
  6
CONTINUOUS
 62
1
 10
226.681050
 20
159.097385
 11
265.068805
 21
158.528760
  0
LINE
  8
MountainLine
  6
CONTINUOUS
 62
5
 10
164.740918
 20
339.737231
 11
196.614713
 21
384.305557
  0
LINE
  8
ValleyLine
  6
CONTINUOUS
 62
1
 10
196.614713
 20
384.305557
 11
171.948932
 21
380.323345
  0
LINE
  8
ValleyLine
  6
CONTINUOUS
 62
1
 10
171.948932
 20
380.323345
 11
149.100134
 21
376.636281
  0
LINE
  8
ValleyLine
  6
CONTINUOUS
 62
1
 10
149.100467
 20
376.634213
 11
130.271037
 21
362.668060
  0
LINE
  8
ValleyLine
  6
CONTINUOUS
 62
1
 10
112.842786
 20
347.616990
 11
140.833987
 21
344.823062
  0
LINE
  8
CutLine
  6
CONTINUOUS
 62
8
 10
130.271037
 20
362.668060
 11
112.842786
 21
347.616990
  0
LINE
  8
CutLine
  6
CONTINUOUS
 62
8
 10
140.833987
 20
344.823062
 11
164.740918
 21
339.737231
  0
LINE
  8
CutLine
  6
CONTINUOUS
 62
8
 10
125.750525
 20
565.409545
 11
124.729519
 21
549.271330
  0
LINE
  8
CutLine
  6
CONTINUOUS
 62
8
 10
124.729519
 20
549.271330
 11
130.077285
 21
545.881462
  0
LINE
  8
MountainLine
  6
CONTINUOUS
 62
5
 10
130.077285
 20
545.881462
 11
125.750525
 21
565.409545
  0
LINE
  8
MountainLine
  6
CONTINUOUS
 62
5
 10
245.813416
 20
503.318688
 11
213.489191
 21
525.557333
  0
LINE
  8
ValleyLine
  6
CONTINUOUS
 62
1
 10
213.489191
 20
525.557333
 11
213.489191
 21
450.553111
  0
LINE
  8
ValleyLine
  6
CONTINUOUS
 62
1
 10
213.489191
 20
450.553111
 11
245.813416
 21
503.318688
  0
LINE
  8
ValleyLine
  6
CONTINUOUS
 62
1
 10
213.489191
 20
450.553111
 11
240.255322
 21
452.910922
  0
LINE
  8
CutLine
  6
CONTINUOUS
 62
8
 10
240.255322
 20
452.910922
 11
245.813416
 21
503.318688
  0
LINE
  8
ValleyLine
  6
CONTINUOUS
 62
1
 10
184.938469
 20
451.738652
 11
213.489191
 21
450.553111
  0
LINE
  8
CutLine
  6
CONTINUOUS
 62
8
 10
137.403278
 20
483.949735
 11
184.938469
 21
451.738652
  0
LINE
  8
ValleyLine
  6
CONTINUOUS
 62
1
 10
213.489191
 20
525.557333
 11
137.403278
 21
483.949735
  0
LINE
  8
MountainLine
  6
CONTINUOUS
 62
5
 10
212.207794
 20
564.771754
 11
166.769059
 21
587.291893
  0
LINE
  8
ValleyLine
  6
CONTINUOUS
 62
1
 10
166.769059
 20
587.291893
 11
150.341156
 21
566.029038
  0
LINE
  8
ValleyLine
  6
CONTINUOUS
 62
1
 10
150.341156
 20
566.029038
 11
212.207794
 21
564.771754
  0
LINE
  8
ValleyLine
  6
CONTINUOUS
 62
1
 10
150.341156
 20
566.029038
 11
213.489191
 21
525.557333
  0
LINE
  8
CutLine
  6
CONTINUOUS
 62
8
 10
213.489191
 20
525.557333
 11
212.207794
 21
564.771754
  0
LINE
  8
CutLine
  6
CONTINUOUS
 62
8
 10
150.341156
 20
566.029038
 11
135.933543
 21
541.351721
  0
LINE
  8
ValleyLine
  6
CONTINUOUS
 62
1
 10
135.933543
 20
541.351721
 11
137.403278
 21
483.949735
  0
LINE
  8
ValleyLine
  6
CONTINUOUS
 62
1
 10
132.881432
 20
596.074019
 11
150.341156
 21
566.029038
  0
LINE
  8
CutLine
  6
CONTINUOUS
 62
8
 10
166.769059
 20
587.291893
 11
132.881432
 21
596.074019
  0
LINE
  8
ValleyLine
  6
CONTINUOUS
 62
1
 10
130.077285
 20
545.881462
 11
150.341156
 21
566.029038
  0
LINE
  8
ValleyLine
  6
CONTINUOUS
 62
1
 10
150.341156
 20
566.029038
 11
125.750525
 21
565.409545
  0
LINE
  8
MountainLine
  6
CONTINUOUS
 62
5
 10
132.881432
 20
596.074019
 11
125.750525
 21
565.409545
  0
LINE
  8
ValleyLine
  6
CONTINUOUS
 62
1
 10
213.489191
 20
450.553111
 11
229.363720
 21
419.641266
  0
LINE
  8
MountainLine
  6
CONTINUOUS
 62
5
 10
229.363720
 20
419.641266
 11
240.255322
 21
452.910922
  0
LINE
  8
ValleyLine
  6
CONTINUOUS
 62
1
 10
199.698708
 20
430.183883
 11
213.489191
 21
450.553111
  0
LINE
  8
CutLine
  6
CONTINUOUS
 62
8
 10
213.489191
 20
450.553111
 11
185.592185
 21
444.363900
  0
LINE
  8
MountainLine
  6
CONTINUOUS
 62
5
 10
185.592185
 20
444.363900
 11
199.698708
 21
430.183883
  0
LINE
  8
MountainLine
  6
CONTINUOUS
 62
5
 10
199.698708
 20
430.183883
 11
229.363720
 21
419.641266
  0
LINE
  8
ValleyLine
  6
CONTINUOUS
 62
1
 10
185.592185
 20
444.363900
 11
185.560590
 21
438.032328
  0
LINE
  8
CutLine
  6
CONTINUOUS
 62
8
 10
185.560590
 20
438.032328
 11
199.698708
 21
430.183883
  0
LINE
  8
CutLine
  6
CONTINUOUS
 62
8
 10
196.729632
 20
410.683213
 11
187.768194
 21
404.413196
  0
LINE
  8
ValleyLine
  6
CONTINUOUS
 62
1
 10
187.768194
 20
404.413196
 11
196.614713
 21
384.305557
  0
LINE
  8
ValleyLine
  6
CONTINUOUS
 62
1
 10
196.614713
 20
384.305557
 11
196.729632
 21
410.683213
  0
LINE
  8
MountainLine
  6
CONTINUOUS
 62
5
 10
202.844504
 20
416.541688
 11
196.614713
 21
384.305557
  0
LINE
  8
CutLine
  6
CONTINUOUS
 62
8
 10
196.614713
 20
384.305557
 11
229.363720
 21
419.641266
  0
LINE
  8
ValleyLine
  6
CONTINUOUS
 62
1
 10
229.363720
 20
419.641266
 11
202.844504
 21
416.541688
  0
LINE
  8
CutLine
  6
CONTINUOUS
 62
8
 10
202.844504
 20
416.541688
 11
196.729632
 21
410.683213
  0
LINE
  8
CutLine
  6
CONTINUOUS
 62
8
 10
199.698708
 20
430.183883
 11
202.844504
 21
416.541688
  0
LINE
  8
CutLine
  6
CONTINUOUS
 62
8
 10
159.916820
 20
397.476721
 11
144.384876
 21
403.628748
  0
LINE
  8
CutLine
  6
CONTINUOUS
 62
8
 10
144.384876
 20
403.628748
 11
149.099800
 21
376.638350
  0
LINE
  8
ValleyLine
  6
CONTINUOUS
 62
1
 10
149.099800
 20
376.638350
 11
159.916820
 21
397.476721
  0
LINE
  8
CutLine
  6
CONTINUOUS
 62
8
 10
172.863327
 20
396.483573
 11
159.916820
 21
397.476721
  0
LINE
  8
CutLine
  6
CONTINUOUS
 62
8
 10
187.768194
 20
404.413196
 11
181.601158
 21
398.776181
  0
LINE
  8
CutLine
  6
CONTINUOUS
 62
8
 10
181.601158
 20
398.776181
 11
172.863327
 21
396.483573
  0
LINE
  8
ValleyLine
  6
CONTINUOUS
 62
1
 10
107.730306
 20
573.432215
 11
85.460251
 21
587.568643
  0
LINE
  8
ValleyLine
  6
CONTINUOUS
 62
1
 10
85.460251
 20
587.568643
 11
97.615889
 21
569.270596
  0
LINE
  8
CutLine
  6
CONTINUOUS
 62
8
 10
97.615889
 20
569.270596
 11
107.730306
 21
573.432215
  0
LINE
  8
ValleyLine
  6
CONTINUOUS
 62
1
 10
115.962249
 20
575.419299
 11
132.881432
 21
596.074019
  0
LINE
  8
ValleyLine
  6
CONTINUOUS
 62
1
 10
132.881432
 20
596.074019
 11
85.460251
 21
587.568643
  0
LINE
  8
MountainLine
  6
CONTINUOUS
 62
5
 10
85.460251
 20
587.568643
 11
115.962249
 21
575.419299
  0
LINE
  8
CutLine
  6
CONTINUOUS
 62
8
 10
107.730306
 20
573.432215
 11
115.962249
 21
575.419299
  0
LINE
  8
CutLine
  6
CONTINUOUS
 62
8
 10
115.962249
 20
575.419299
 11
125.750525
 21
565.409545
  0
LINE
  8
CutLine
  6
CONTINUOUS
 62
8
 10
82.897178
 20
561.000559
 11
89.542252
 21
567.120096
  0
LINE
  8
CutLine
  6
CONTINUOUS
 62
8
 10
89.542252
 20
567.120096
 11
97.615889
 21
569.270596
  0
LINE
  8
ValleyLine
  6
CONTINUOUS
 62
1
 10
85.460251
 20
587.568643
 11
68.798055
 21
568.950641
  0
LINE
  8
ValleyLine
  6
CONTINUOUS
 62
1
 10
68.798055
 20
568.950641
 11
53.364781
 21
551.703146
  0
LINE
  8
ValleyLine
  6
CONTINUOUS
 62
1
 10
53.364781
 20
551.703146
 11
76.747499
 21
549.564658
  0
LINE
  8
CutLine
  6
CONTINUOUS
 62
8
 10
76.747499
 20
549.564658
 11
82.897178
 21
561.000559
  0
LINE
  8
MountainLine
  6
CONTINUOUS
 62
5
 10
53.366343
 20
551.701749
 11
73.546135
 21
533.168317
  0
LINE
  8
CutLine
  6
CONTINUOUS
 62
8
 10
73.546135
 20
533.168317
 11
76.747499
 21
549.564658
  0
LINE
  8
CutLine
  6
CONTINUOUS
 62
8
 10
31.444530
 20
543.387578
 11
53.363220
 21
551.704543
  0
LINE
  8
CutLine
  6
CONTINUOUS
 62
8
 10
22.120042
 20
561.909829
 11
9.368486
 21
536.835715
  0
LINE
  8
ValleyLine
  6
CONTINUOUS
 62
1
 10
9.368486
 20
536.835715
 11
31.444530
 21
543.387578
  0
LINE
  8
ValleyLine
  6
CONTINUOUS
 62
1
 10
30.738145
 20
584.781981
 11
22.120042
 21
561.909829
  0
LINE
  8
CutLine
  6
CONTINUOUS
 62
8
 10
85.460251
 20
587.568643
 11
30.738145
 21
584.781981
  0
ENDSEC
  0
EOF
