  0
SECTION
  2
HEADER
  9
$ACADVER
  1
AC1009
  0
ENDSEC
  0
SECTION
  2
BLOCKS
  0
ENDSEC
  0
SECTION
  2
ENTITIES
  0
LINE
  8
CutLine
  6
CONTINUOUS
 62
8
 10
2501.422801
 20
57.457404
 11
2494.406743
 21
58.337705
  0
LINE
  8
CutLine
  6
CONTINUOUS
 62
8
 10
2494.406743
 20
58.337705
 11
2450.120851
 21
115.331045
  0
LINE
  8
CutLine
  6
CONTINUOUS
 62
8
 10
2450.120851
 20
115.331045
 11
2451.001151
 21
122.347103
  0
LINE
  8
CutLine
  6
CONTINUOUS
 62
8
 10
2458.724041
 20
265.063944
 11
2466.770218
 21
261.165153
  0
LINE
  8
CutLine
  6
CONTINUOUS
 62
8
 10
2466.770218
 20
261.165153
 11
2497.248920
 21
208.682589
  0
LINE
  8
CutLine
  6
CONTINUOUS
 62
8
 10
2497.248920
 20
208.682589
 11
2495.436136
 21
201.847838
  0
LINE
  8
CutLine
  6
CONTINUOUS
 62
8
 10
2415.763264
 20
207.560699
 11
2410.691052
 21
212.487429
  0
LINE
  8
CutLine
  6
CONTINUOUS
 62
8
 10
2410.691052
 20
212.487429
 11
2409.063060
 21
324.379458
  0
LINE
  8
CutLine
  6
CONTINUOUS
 62
8
 10
2409.063060
 20
324.379458
 11
2413.798398
 21
342.606065
  0
LINE
  8
CutLine
  6
CONTINUOUS
 62
8
 10
2534.130071
 20
133.118673
 11
2541.192139
 21
132.762040
  0
LINE
  8
CutLine
  6
CONTINUOUS
 62
8
 10
2541.192139
 20
132.762040
 11
2575.961986
 21
94.293678
  0
LINE
  8
CutLine
  6
CONTINUOUS
 62
8
 10
2575.961986
 20
94.293678
 11
2582.581670
 21
79.513213
  0
LINE
  8
CutLine
  6
CONTINUOUS
 62
8
 10
2641.687069
 20
37.983121
 11
2638.390541
 21
31.727492
  0
LINE
  8
CutLine
  6
CONTINUOUS
 62
8
 10
2638.390541
 20
31.727492
 11
2567.535468
 21
9.777747
  0
LINE
  8
CutLine
  6
CONTINUOUS
 62
8
 10
2567.535468
 20
9.777747
 11
2561.192807
 21
13.047314
  0
LINE
  8
CutLine
  6
CONTINUOUS
 62
8
 10
2610.127513
 20
147.978079
 11
2618.079702
 21
141.369722
  0
LINE
  8
CutLine
  6
CONTINUOUS
 62
8
 10
2618.079702
 20
141.369722
 11
2638.184350
 21
89.946607
  0
LINE
  8
CutLine
  6
CONTINUOUS
 62
8
 10
2638.184350
 20
89.946607
 11
2635.348227
 21
83.469230
  0
LINE
  8
CutLine
  6
CONTINUOUS
 62
8
 10
2575.057613
 20
275.529707
 11
2581.094697
 21
271.848183
  0
LINE
  8
CutLine
  6
CONTINUOUS
 62
8
 10
2581.094697
 20
271.848183
 11
2593.708470
 21
219.806061
  0
LINE
  8
CutLine
  6
CONTINUOUS
 62
8
 10
2593.708470
 20
219.806061
 11
2590.026945
 21
213.768977
  0
LINE
  8
CutLine
  6
CONTINUOUS
 62
8
 10
2506.419254
 20
212.600130
 11
2499.512855
 21
214.117250
  0
LINE
  8
CutLine
  6
CONTINUOUS
 62
8
 10
2499.512855
 20
214.117250
 11
2461.566761
 21
273.427526
  0
LINE
  8
CutLine
  6
CONTINUOUS
 62
8
 10
2461.566761
 20
273.427526
 11
2463.083881
 21
280.333925
  0
LINE
  8
CutLine
  6
CONTINUOUS
 62
8
 10
2411.462072
 20
420.500265
 11
2418.237757
 21
424.507223
  0
LINE
  8
CutLine
  6
CONTINUOUS
 62
8
 10
2418.237757
 20
424.507223
 11
2562.879576
 21
402.027148
  0
LINE
  8
CutLine
  6
CONTINUOUS
 62
8
 10
2562.879576
 20
402.027148
 11
2567.052385
 21
396.318587
  0
LINE
  8
CutLine
  6
CONTINUOUS
 62
8
 10
2438.360298
 20
350.787274
 11
2431.895610
 21
353.652201
  0
LINE
  8
CutLine
  6
CONTINUOUS
 62
8
 10
2431.895610
 20
353.652201
 11
2408.597144
 21
414.035577
  0
LINE
  8
CutLine
  6
CONTINUOUS
 62
8
 10
2408.597144
 20
414.035577
 11
2411.462072
 21
420.500265
  0
LINE
  8
CutLine
  6
CONTINUOUS
 62
8
 10
2567.052385
 20
396.318587
 11
2572.227582
 21
391.500151
  0
LINE
  8
CutLine
  6
CONTINUOUS
 62
8
 10
2572.227582
 20
391.500151
 11
2574.058790
 21
340.204224
  0
LINE
  8
CutLine
  6
CONTINUOUS
 62
8
 10
2574.058790
 20
340.204224
 11
2569.240354
 21
335.029026
  0
LINE
  8
CutLine
  6
CONTINUOUS
 62
8
 10
2592.219484
 20
81.659316
 11
2585.261825
 21
82.920656
  0
LINE
  8
CutLine
  6
CONTINUOUS
 62
8
 10
2585.261825
 20
82.920656
 11
2547.962679
 21
136.738162
  0
LINE
  8
CutLine
  6
CONTINUOUS
 62
8
 10
2547.962679
 20
136.738162
 11
2546.856411
 21
147.111952
  0
LINE
  8
CutLine
  6
CONTINUOUS
 62
8
 10
2635.348227
 20
83.469230
 11
2642.324144
 21
82.313123
  0
LINE
  8
CutLine
  6
CONTINUOUS
 62
8
 10
2642.324144
 20
82.313123
 11
2681.462807
 21
27.624638
  0
LINE
  8
CutLine
  6
CONTINUOUS
 62
8
 10
2681.462807
 20
27.624638
 11
2684.346459
 21
15.003962
  0
LINE
  8
CutLine
  6
CONTINUOUS
 62
8
 10
2632.266300
 20
149.163041
 11
2626.731647
 21
153.563905
  0
LINE
  8
CutLine
  6
CONTINUOUS
 62
8
 10
2626.731647
 20
153.563905
 11
2622.138072
 21
193.817903
  0
LINE
  8
CutLine
  6
CONTINUOUS
 62
8
 10
2622.138072
 20
193.817903
 11
2626.538937
 21
199.352557
  0
LINE
  8
CutLine
  6
CONTINUOUS
 62
8
 10
2559.964724
 20
427.897770
 11
2566.951026
 21
426.806173
  0
LINE
  8
CutLine
  6
CONTINUOUS
 62
8
 10
2566.951026
 20
426.806173
 11
2607.549510
 21
371.171419
  0
LINE
  8
CutLine
  6
CONTINUOUS
 62
8
 10
2607.549510
 20
371.171419
 11
2606.457913
 21
364.185117
  0
LINE
  8
CutLine
  6
CONTINUOUS
 62
8
 10
2632.205637
 20
296.670989
 11
2637.753677
 21
292.287012
  0
LINE
  8
CutLine
  6
CONTINUOUS
 62
8
 10
2637.753677
 20
292.287012
 11
2644.998469
 21
230.473034
  0
LINE
  8
CutLine
  6
CONTINUOUS
 62
8
 10
2644.998469
 20
230.473034
 11
2640.614492
 21
224.924994
  0
LINE
  8
CutLine
  6
CONTINUOUS
 62
8
 10
2622.217541
 20
248.647019
 11
2615.774871
 21
253.090060
  0
LINE
  8
CutLine
  6
CONTINUOUS
 62
8
 10
2615.774871
 20
253.090060
 11
2592.673322
 21
335.275609
  0
LINE
  8
CutLine
  6
CONTINUOUS
 62
8
 10
2592.673322
 20
335.275609
 11
2596.133762
 21
341.442079
  0
LINE
  8
CutLine
  6
CONTINUOUS
 62
8
 10
2699.639480
 20
216.980710
 11
2704.615896
 21
211.957235
  0
LINE
  8
CutLine
  6
CONTINUOUS
 62
8
 10
2704.615896
 20
211.957235
 11
2704.372884
 21
160.318169
  0
LINE
  8
CutLine
  6
CONTINUOUS
 62
8
 10
2704.372884
 20
160.318169
 11
2699.349410
 21
155.341754
  0
LINE
  8
CutLine
  6
CONTINUOUS
 62
8
 10
2576.183910
 20
439.135931
 11
2569.487730
 21
436.864110
  0
LINE
  8
CutLine
  6
CONTINUOUS
 62
8
 10
2569.487730
 20
436.864110
 11
2521.338419
 21
460.618548
  0
LINE
  8
CutLine
  6
CONTINUOUS
 62
8
 10
2617.132264
 20
595.349816
 11
2622.181630
 21
590.399675
  0
LINE
  8
CutLine
  6
CONTINUOUS
 62
8
 10
2622.181630
 20
590.399675
 11
2623.602317
 21
447.227512
  0
LINE
  8
CutLine
  6
CONTINUOUS
 62
8
 10
2623.602317
 20
447.227512
 11
2618.694634
 21
437.899322
  0
LINE
  8
CutLine
  6
CONTINUOUS
 62
8
 10
2455.756312
 20
436.952637
 11
2451.093429
 21
431.636857
  0
LINE
  8
CutLine
  6
CONTINUOUS
 62
8
 10
2451.093429
 20
431.636857
 11
2418.634128
 21
429.513067
  0
LINE
  8
CutLine
  6
CONTINUOUS
 62
8
 10
2418.634128
 20
429.513067
 11
2413.318348
 21
434.175950
  0
LINE
  8
CutLine
  6
CONTINUOUS
 62
8
 10
2409.172565
 20
591.579608
 11
2414.115239
 21
596.636284
  0
LINE
  8
CutLine
  6
CONTINUOUS
 62
8
 10
2414.115239
 20
596.636284
 11
2508.108420
 21
597.707894
  0
LINE
  8
CutLine
  6
CONTINUOUS
 62
8
 10
2508.108420
 20
597.707894
 11
2513.165096
 21
592.765220
  0
LINE
  8
CutLine
  6
CONTINUOUS
 62
8
 10
2554.185131
 20
413.540062
 11
2548.431453
 21
409.429686
  0
LINE
  8
CutLine
  6
CONTINUOUS
 62
8
 10
2548.431453
 20
409.429686
 11
2508.278613
 21
416.118945
  0
LINE
  8
CutLine
  6
CONTINUOUS
 62
8
 10
2508.278613
 20
416.118945
 11
2504.168237
 21
421.872623
  0
LINE
  8
ValleyLine
  6
CONTINUOUS
 62
1
 10
2451.001151
 20
122.347103
 11
2501.422801
 21
57.457404
  0
LINE
  8
ValleyLine
  6
CONTINUOUS
 62
1
 10
2501.422801
 20
57.457404
 11
2534.130071
 21
133.118673
  0
LINE
  8
CutLine
  6
CONTINUOUS
 62
8
 10
2534.130071
 20
133.118673
 11
2495.436136
 21
201.847838
  0
LINE
  8
CutLine
  6
CONTINUOUS
 62
8
 10
2415.763264
 20
207.560699
 11
2451.001151
 21
122.347103
  0
LINE
  8
ValleyLine
  6
CONTINUOUS
 62
1
 10
2495.436136
 20
201.847838
 11
2458.724041
 21
265.063944
  0
LINE
  8
CutLine
  6
CONTINUOUS
 62
8
 10
2458.724041
 20
265.063944
 11
2413.798398
 21
342.606065
  0
LINE
  8
ValleyLine
  6
CONTINUOUS
 62
1
 10
2413.798398
 20
342.606065
 11
2415.763264
 21
207.560699
  0
LINE
  8
ValleyLine
  6
CONTINUOUS
 62
1
 10
2582.581670
 20
79.513213
 11
2534.130071
 21
133.118673
  0
LINE
  8
ValleyLine
  6
CONTINUOUS
 62
1
 10
2561.192807
 20
13.047314
 11
2582.581670
 21
79.513213
  0
LINE
  8
CutLine
  6
CONTINUOUS
 62
8
 10
2501.422801
 20
57.457404
 11
2561.192807
 21
13.047314
  0
LINE
  8
MountainLine
  6
CONTINUOUS
 62
5
 10
2561.192807
 20
13.047314
 11
2641.687069
 21
37.983121
  0
LINE
  8
CutLine
  6
CONTINUOUS
 62
8
 10
2641.687069
 20
37.983121
 11
2582.581670
 21
79.513213
  0
LINE
  8
ValleyLine
  6
CONTINUOUS
 62
1
 10
2592.219484
 20
81.659316
 11
2635.348227
 21
83.469230
  0
LINE
  8
ValleyLine
  6
CONTINUOUS
 62
1
 10
2635.348227
 20
83.469230
 11
2610.127513
 21
147.978079
  0
LINE
  8
MountainLine
  6
CONTINUOUS
 62
5
 10
2610.127513
 20
147.978079
 11
2592.219484
 21
81.659316
  0
LINE
  8
ValleyLine
  6
CONTINUOUS
 62
1
 10
2590.026945
 20
213.768977
 11
2575.057613
 21
275.529707
  0
LINE
  8
CutLine
  6
CONTINUOUS
 62
8
 10
2506.419254
 20
212.600130
 11
2546.856411
 21
147.111952
  0
LINE
  8
MountainLine
  6
CONTINUOUS
 62
5
 10
2546.856411
 20
147.111952
 11
2590.026945
 21
213.768977
  0
LINE
  8
CutLine
  6
CONTINUOUS
 62
8
 10
2575.057613
 20
275.529707
 11
2569.240354
 21
335.029026
  0
LINE
  8
MountainLine
  6
CONTINUOUS
 62
5
 10
2569.240354
 20
335.029026
 11
2463.083881
 21
280.333925
  0
LINE
  8
ValleyLine
  6
CONTINUOUS
 62
1
 10
2463.083881
 20
280.333925
 11
2506.419254
 21
212.600130
  0
LINE
  8
CutLine
  6
CONTINUOUS
 62
8
 10
2438.360298
 20
350.787274
 11
2463.083881
 21
280.333925
  0
LINE
  8
MountainLine
  6
CONTINUOUS
 62
5
 10
2569.240354
 20
335.029026
 11
2438.360298
 21
350.787274
  0
LINE
  8
MountainLine
  6
CONTINUOUS
 62
5
 10
2567.052385
 20
396.318587
 11
2411.462072
 21
420.500265
  0
LINE
  8
ValleyLine
  6
CONTINUOUS
 62
1
 10
2411.462072
 20
420.500265
 11
2438.360298
 21
350.787274
  0
LINE
  8
ValleyLine
  6
CONTINUOUS
 62
1
 10
2569.240354
 20
335.029026
 11
2567.052385
 21
396.318587
  0
LINE
  8
CutLine
  6
CONTINUOUS
 62
8
 10
2610.127513
 20
147.978079
 11
2590.026945
 21
213.768977
  0
LINE
  8
ValleyLine
  6
CONTINUOUS
 62
1
 10
2546.856411
 20
147.111952
 11
2610.127513
 21
147.978079
  0
LINE
  8
ValleyLine
  6
CONTINUOUS
 62
1
 10
2546.856411
 20
147.111952
 11
2592.219484
 21
81.659316
  0
LINE
  8
CutLine
  6
CONTINUOUS
 62
8
 10
2592.219484
 20
81.659316
 11
2684.346459
 21
15.003962
  0
LINE
  8
ValleyLine
  6
CONTINUOUS
 62
1
 10
2684.346459
 20
15.003962
 11
2635.348227
 21
83.469230
  0
LINE
  8
ValleyLine
  6
CONTINUOUS
 62
1
 10
2632.266300
 20
149.163041
 11
2699.349410
 21
155.341754
  0
LINE
  8
ValleyLine
  6
CONTINUOUS
 62
1
 10
2699.349410
 20
155.341754
 11
2640.614492
 21
224.924994
  0
LINE
  8
ValleyLine
  6
CONTINUOUS
 62
1
 10
2626.538937
 20
199.352557
 11
2632.266300
 21
149.163041
  0
LINE
  8
ValleyLine
  6
CONTINUOUS
 62
1
 10
2640.614492
 20
224.924994
 11
2626.538937
 21
199.352557
  0
LINE
  8
CutLine
  6
CONTINUOUS
 62
8
 10
2632.205637
 20
296.670989
 11
2606.457913
 21
364.185117
  0
LINE
  8
ValleyLine
  6
CONTINUOUS
 62
1
 10
2606.457913
 20
364.185117
 11
2559.964724
 21
427.897770
  0
LINE
  8
CutLine
  6
CONTINUOUS
 62
8
 10
2559.964724
 20
427.897770
 11
2596.133762
 21
341.442079
  0
LINE
  8
MountainLine
  6
CONTINUOUS
 62
5
 10
2622.217541
 20
248.647019
 11
2640.614492
 21
224.924994
  0
LINE
  8
ValleyLine
  6
CONTINUOUS
 62
1
 10
2640.614492
 20
224.924994
 11
2632.205637
 21
296.670989
  0
LINE
  8
ValleyLine
  6
CONTINUOUS
 62
1
 10
2596.133762
 20
341.442079
 11
2622.217541
 21
248.647019
  0
LINE
  8
CutLine
  6
CONTINUOUS
 62
8
 10
2622.217541
 20
248.647019
 11
2626.538937
 21
199.352557
  0
LINE
  8
CutLine
  6
CONTINUOUS
 62
8
 10
2699.639480
 20
216.980710
 11
2699.822407
 21
284.887845
  0
LINE
  8
CutLine
  6
CONTINUOUS
 62
8
 10
2699.822407
 20
284.887845
 11
2640.614492
 21
224.924994
  0
LINE
  8
ValleyLine
  6
CONTINUOUS
 62
1
 10
2640.614492
 20
224.924994
 11
2699.639480
 21
216.980710
  0
LINE
  8
ValleyLine
  6
CONTINUOUS
 62
1
 10
2699.349410
 20
155.341754
 11
2699.639480
 21
216.980710
  0
LINE
  8
CutLine
  6
CONTINUOUS
 62
8
 10
2632.266300
 20
149.163041
 11
2699.973512
 21
95.358323
  0
LINE
  8
CutLine
  6
CONTINUOUS
 62
8
 10
2699.973512
 20
95.358323
 11
2699.349410
 21
155.341754
  0
LINE
  8
ValleyLine
  6
CONTINUOUS
 62
1
 10
2515.406718
 20
469.120328
 11
2576.183910
 21
439.135931
  0
LINE
  8
CutLine
  6
CONTINUOUS
 62
8
 10
2617.132264
 20
595.349816
 11
2513.165096
 21
592.765220
  0
LINE
  8
ValleyLine
  6
CONTINUOUS
 62
1
 10
2513.165096
 20
592.765220
 11
2515.406718
 21
469.120328
  0
LINE
  8
CutLine
  6
CONTINUOUS
 62
8
 10
2576.183910
 20
439.135931
 11
2618.694634
 21
437.899322
  0
LINE
  8
MountainLine
  6
CONTINUOUS
 62
5
 10
2618.694634
 20
437.899322
 11
2617.132264
 21
595.349816
  0
LINE
  8
CutLine
  6
CONTINUOUS
 62
8
 10
2409.172565
 20
591.579608
 11
2413.318348
 21
434.175950
  0
LINE
  8
ValleyLine
  6
CONTINUOUS
 62
1
 10
2413.318348
 20
434.175950
 11
2455.756312
 21
436.952637
  0
LINE
  8
ValleyLine
  6
CONTINUOUS
 62
1
 10
2455.756312
 20
436.952637
 11
2515.406718
 21
469.120328
  0
LINE
  8
ValleyLine
  6
CONTINUOUS
 62
1
 10
2513.165096
 20
592.765220
 11
2409.172565
 21
591.579608
  0
LINE
  8
CutLine
  6
CONTINUOUS
 62
8
 10
2554.185131
 20
413.540062
 11
2515.406718
 21
469.120328
  0
LINE
  8
MountainLine
  6
CONTINUOUS
 62
5
 10
2515.406718
 20
469.120328
 11
2504.168237
 21
421.872623
  0
LINE
  8
ValleyLine
  6
CONTINUOUS
 62
1
 10
2504.168237
 20
421.872623
 11
2554.185131
 21
413.540062
  0
LINE
  8
CutLine
  6
CONTINUOUS
 62
8
 10
2455.756312
 20
436.952637
 11
2504.168237
 21
421.872623
  0
ENDSEC
  0
EOF
