  0
SECTION
  2
HEADER
  9
$ACADVER
  1
AC1009
  0
ENDSEC
  0
SECTION
  2
BLOCKS
  0
ENDSEC
  0
SECTION
  2
ENTITIES
  0
LINE
  8
CutLine
  6
CONTINUOUS
 62
8
 10
312.402266
 20
232.032978
 11
318.864770
 21
229.163127
  0
LINE
  8
CutLine
  6
CONTINUOUS
 62
8
 10
318.864770
 20
229.163127
 11
326.218389
 21
210.061201
  0
LINE
  8
CutLine
  6
CONTINUOUS
 62
8
 10
326.218389
 20
210.061201
 11
323.348538
 21
203.598698
  0
LINE
  8
CutLine
  6
CONTINUOUS
 62
8
 10
310.032218
 20
172.314071
 11
305.414998
 21
182.058283
  0
LINE
  8
CutLine
  6
CONTINUOUS
 62
8
 10
305.414998
 20
182.058283
 11
307.207921
 21
227.235188
  0
LINE
  8
CutLine
  6
CONTINUOUS
 62
8
 10
307.207921
 20
227.235188
 11
312.402266
 21
232.032978
  0
LINE
  8
CutLine
  6
CONTINUOUS
 62
8
 10
357.388945
 20
155.574729
 11
360.288891
 21
149.125674
  0
LINE
  8
CutLine
  6
CONTINUOUS
 62
8
 10
360.288891
 20
149.125674
 11
357.147643
 21
140.851056
  0
LINE
  8
CutLine
  6
CONTINUOUS
 62
8
 10
357.147643
 20
140.851056
 11
350.698588
 21
137.951111
  0
LINE
  8
CutLine
  6
CONTINUOUS
 62
8
 10
501.510884
 20
22.001590
 11
502.866905
 21
17.124294
  0
LINE
  8
CutLine
  6
CONTINUOUS
 62
8
 10
502.866905
 20
17.124294
 11
499.388961
 21
10.967679
  0
LINE
  8
CutLine
  6
CONTINUOUS
 62
8
 10
491.496915
 20
75.641011
 11
498.398056
 21
74.100152
  0
LINE
  8
CutLine
  6
CONTINUOUS
 62
8
 10
498.398056
 20
74.100152
 11
527.353580
 21
28.497602
  0
LINE
  8
CutLine
  6
CONTINUOUS
 62
8
 10
527.353580
 20
28.497602
 11
525.812721
 21
21.596460
  0
LINE
  8
CutLine
  6
CONTINUOUS
 62
8
 10
449.040450
 20
57.362843
 11
445.508202
 21
65.323303
  0
LINE
  8
CutLine
  6
CONTINUOUS
 62
8
 10
445.508202
 20
65.323303
 11
452.719461
 21
102.044827
  0
LINE
  8
CutLine
  6
CONTINUOUS
 62
8
 10
452.719461
 20
102.044827
 11
458.589235
 21
105.987637
  0
LINE
  8
CutLine
  6
CONTINUOUS
 62
8
 10
458.589235
 20
105.987637
 11
465.617905
 21
106.760807
  0
LINE
  8
CutLine
  6
CONTINUOUS
 62
8
 10
465.617905
 20
106.760807
 11
479.686656
 21
95.480513
  0
LINE
  8
CutLine
  6
CONTINUOUS
 62
8
 10
479.686656
 20
95.480513
 11
480.459827
 21
88.451843
  0
LINE
  8
CutLine
  6
CONTINUOUS
 62
8
 10
499.388961
 20
10.967679
 11
494.739013
 21
5.640580
  0
LINE
  8
CutLine
  6
CONTINUOUS
 62
8
 10
494.739013
 20
5.640580
 11
454.513778
 21
2.910459
  0
LINE
  8
CutLine
  6
CONTINUOUS
 62
8
 10
454.513778
 20
2.910459
 11
449.186679
 21
7.560407
  0
LINE
  8
CutLine
  6
CONTINUOUS
 62
8
 10
592.771830
 20
191.533106
 11
593.661639
 21
182.406360
  0
LINE
  8
CutLine
  6
CONTINUOUS
 62
8
 10
593.661639
 20
182.406360
 11
588.228163
 21
171.957025
  0
LINE
  8
CutLine
  6
CONTINUOUS
 62
8
 10
588.228163
 20
171.957025
 11
581.485344
 21
169.827615
  0
LINE
  8
CutLine
  6
CONTINUOUS
 62
8
 10
526.020397
 20
117.974316
 11
521.446240
 21
123.366634
  0
LINE
  8
CutLine
  6
CONTINUOUS
 62
8
 10
521.446240
 20
123.366634
 11
526.675033
 21
187.061455
  0
LINE
  8
CutLine
  6
CONTINUOUS
 62
8
 10
526.675033
 20
187.061455
 11
532.683973
 21
199.147029
  0
LINE
  8
CutLine
  6
CONTINUOUS
 62
8
 10
570.145746
 20
145.069810
 11
568.501316
 21
138.192612
  0
LINE
  8
CutLine
  6
CONTINUOUS
 62
8
 10
568.501316
 20
138.192612
 11
532.897595
 21
116.329886
  0
LINE
  8
CutLine
  6
CONTINUOUS
 62
8
 10
532.897595
 20
116.329886
 11
526.020397
 21
117.974316
  0
LINE
  8
CutLine
  6
CONTINUOUS
 62
8
 10
592.387130
 20
221.263677
 11
597.451404
 21
216.328788
  0
LINE
  8
CutLine
  6
CONTINUOUS
 62
8
 10
597.451404
 20
216.328788
 11
597.706719
 21
196.597380
  0
LINE
  8
CutLine
  6
CONTINUOUS
 62
8
 10
597.706719
 20
196.597380
 11
592.771830
 21
191.533106
  0
LINE
  8
CutLine
  6
CONTINUOUS
 62
8
 10
432.830505
 20
127.339087
 11
433.270304
 21
134.396464
  0
LINE
  8
CutLine
  6
CONTINUOUS
 62
8
 10
433.270304
 20
134.396464
 11
453.314065
 21
152.088614
  0
LINE
  8
CutLine
  6
CONTINUOUS
 62
8
 10
453.314065
 20
152.088614
 11
460.371442
 21
151.648815
  0
LINE
  8
CutLine
  6
CONTINUOUS
 62
8
 10
510.273354
 20
99.629318
 11
514.170767
 21
93.729304
  0
LINE
  8
CutLine
  6
CONTINUOUS
 62
8
 10
514.170767
 20
93.729304
 11
513.380335
 21
89.862228
  0
LINE
  8
CutLine
  6
CONTINUOUS
 62
8
 10
513.380335
 20
89.862228
 11
507.480321
 21
85.964815
  0
LINE
  8
CutLine
  6
CONTINUOUS
 62
8
 10
479.095254
 20
133.569121
 11
474.360100
 21
155.617392
  0
LINE
  8
CutLine
  6
CONTINUOUS
 62
8
 10
474.360100
 20
155.617392
 11
478.198757
 21
161.555802
  0
LINE
  8
CutLine
  6
CONTINUOUS
 62
8
 10
514.636451
 20
161.566773
 11
519.272743
 21
156.227786
  0
LINE
  8
CutLine
  6
CONTINUOUS
 62
8
 10
519.272743
 20
156.227786
 11
515.715197
 21
105.725729
  0
LINE
  8
CutLine
  6
CONTINUOUS
 62
8
 10
515.715197
 20
105.725729
 11
510.273354
 21
99.629318
  0
LINE
  8
CutLine
  6
CONTINUOUS
 62
8
 10
577.052530
 20
251.789519
 11
572.772474
 21
246.160921
  0
LINE
  8
CutLine
  6
CONTINUOUS
 62
8
 10
572.772474
 20
246.160921
 11
530.636929
 21
240.426384
  0
LINE
  8
CutLine
  6
CONTINUOUS
 62
8
 10
530.636929
 20
240.426384
 11
525.008331
 21
244.706440
  0
LINE
  8
CutLine
  6
CONTINUOUS
 62
8
 10
525.008331
 20
244.706440
 11
524.961093
 21
235.959245
  0
LINE
  8
CutLine
  6
CONTINUOUS
 62
8
 10
524.961093
 20
235.959245
 11
479.449581
 21
171.374467
  0
LINE
  8
CutLine
  6
CONTINUOUS
 62
8
 10
479.449581
 20
171.374467
 11
472.482294
 21
170.167442
  0
LINE
  8
CutLine
  6
CONTINUOUS
 62
8
 10
466.750996
 20
282.436591
 11
461.519091
 21
287.193393
  0
LINE
  8
CutLine
  6
CONTINUOUS
 62
8
 10
461.519091
 20
287.193393
 11
461.188448
 21
294.144924
  0
LINE
  8
CutLine
  6
CONTINUOUS
 62
8
 10
461.188448
 20
294.144924
 11
465.945250
 21
299.376830
  0
LINE
  8
CutLine
  6
CONTINUOUS
 62
8
 10
589.886255
 20
583.686864
 11
594.685807
 21
578.494148
  0
LINE
  8
CutLine
  6
CONTINUOUS
 62
8
 10
594.685807
 20
578.494148
 11
584.769984
 21
326.483421
  0
LINE
  8
CutLine
  6
CONTINUOUS
 62
8
 10
584.769984
 20
326.483421
 11
579.519738
 21
320.221746
  0
LINE
  8
CutLine
  6
CONTINUOUS
 62
8
 10
431.971280
 20
527.287695
 11
429.576866
 21
533.941024
  0
LINE
  8
CutLine
  6
CONTINUOUS
 62
8
 10
429.576866
 20
533.941024
 11
447.210901
 21
571.403197
  0
LINE
  8
CutLine
  6
CONTINUOUS
 62
8
 10
447.210901
 20
571.403197
 11
453.864229
 21
573.797611
  0
LINE
  8
CutLine
  6
CONTINUOUS
 62
8
 10
392.032051
 20
185.984123
 11
394.799888
 21
194.204029
  0
LINE
  8
CutLine
  6
CONTINUOUS
 62
8
 10
394.799888
 20
194.204029
 11
432.553585
 21
221.822781
  0
LINE
  8
CutLine
  6
CONTINUOUS
 62
8
 10
432.553585
 20
221.822781
 11
439.541176
 21
220.739467
  0
LINE
  8
CutLine
  6
CONTINUOUS
 62
8
 10
455.764867
 20
178.952946
 11
456.364170
 21
171.907321
  0
LINE
  8
CutLine
  6
CONTINUOUS
 62
8
 10
456.364170
 20
171.907321
 11
450.636371
 21
165.114514
  0
LINE
  8
CutLine
  6
CONTINUOUS
 62
8
 10
450.636371
 20
165.114514
 11
443.590746
 21
164.515210
  0
LINE
  8
CutLine
  6
CONTINUOUS
 62
8
 10
382.160521
 20
161.717371
 11
380.792507
 21
156.157577
  0
LINE
  8
CutLine
  6
CONTINUOUS
 62
8
 10
380.792507
 20
156.157577
 11
376.779681
 21
160.241693
  0
LINE
  8
CutLine
  6
CONTINUOUS
 62
8
 10
354.399568
 20
231.455819
 11
361.111169
 21
229.229968
  0
LINE
  8
CutLine
  6
CONTINUOUS
 62
8
 10
361.111169
 20
229.229968
 11
376.407160
 21
198.754091
  0
LINE
  8
CutLine
  6
CONTINUOUS
 62
8
 10
376.407160
 20
198.754091
 11
374.181309
 21
192.042490
  0
LINE
  8
CutLine
  6
CONTINUOUS
 62
8
 10
329.985102
 20
201.280943
 11
327.596135
 21
207.936229
  0
LINE
  8
CutLine
  6
CONTINUOUS
 62
8
 10
327.596135
 20
207.936229
 11
334.947492
 21
223.520515
  0
LINE
  8
CutLine
  6
CONTINUOUS
 62
8
 10
334.947492
 20
223.520515
 11
341.602778
 21
225.909483
  0
LINE
  8
CutLine
  6
CONTINUOUS
 62
8
 10
318.116406
 20
237.990915
 11
313.116406
 21
247.593491
  0
LINE
  8
CutLine
  6
CONTINUOUS
 62
8
 10
313.116406
 20
247.593491
 11
313.116406
 21
274.331094
  0
LINE
  8
CutLine
  6
CONTINUOUS
 62
8
 10
313.116406
 20
274.331094
 11
318.116406
 21
279.331094
  0
LINE
  8
CutLine
  6
CONTINUOUS
 62
8
 10
412.096741
 20
103.459820
 11
419.133536
 21
104.155179
  0
LINE
  8
CutLine
  6
CONTINUOUS
 62
8
 10
419.133536
 20
104.155179
 11
435.219203
 21
90.962706
  0
LINE
  8
CutLine
  6
CONTINUOUS
 62
8
 10
435.219203
 20
90.962706
 11
435.914562
 21
83.925911
  0
LINE
  8
CutLine
  6
CONTINUOUS
 62
8
 10
420.463645
 20
70.171953
 11
421.292133
 21
63.149588
  0
LINE
  8
CutLine
  6
CONTINUOUS
 62
8
 10
421.292133
 20
63.149588
 11
377.071947
 21
7.099691
  0
LINE
  8
CutLine
  6
CONTINUOUS
 62
8
 10
377.071947
 20
7.099691
 11
370.049582
 21
6.271203
  0
LINE
  8
CutLine
  6
CONTINUOUS
 62
8
 10
370.049582
 20
6.271203
 11
369.046151
 21
9.253176
  0
LINE
  8
CutLine
  6
CONTINUOUS
 62
8
 10
311.082313
 20
27.803460
 11
307.458833
 21
33.875560
  0
LINE
  8
CutLine
  6
CONTINUOUS
 62
8
 10
307.458833
 20
33.875560
 11
311.661319
 21
50.515762
  0
LINE
  8
CutLine
  6
CONTINUOUS
 62
8
 10
311.661319
 20
50.515762
 11
317.733419
 21
54.139241
  0
LINE
  8
CutLine
  6
CONTINUOUS
 62
8
 10
323.085570
 20
70.231953
 11
319.283439
 21
76.193815
  0
LINE
  8
CutLine
  6
CONTINUOUS
 62
8
 10
319.283439
 20
76.193815
 11
327.942212
 21
115.339538
  0
LINE
  8
CutLine
  6
CONTINUOUS
 62
8
 10
327.942212
 20
115.339538
 11
333.904074
 21
119.141670
  0
LINE
  8
CutLine
  6
CONTINUOUS
 62
8
 10
391.264634
 20
135.926520
 11
393.948253
 21
142.468552
  0
LINE
  8
CutLine
  6
CONTINUOUS
 62
8
 10
393.948253
 20
142.468552
 11
436.205562
 21
160.141682
  0
LINE
  8
CutLine
  6
CONTINUOUS
 62
8
 10
436.205562
 20
160.141682
 11
442.747594
 21
157.458063
  0
LINE
  8
CutLine
  6
CONTINUOUS
 62
8
 10
367.961960
 20
7.397606
 11
361.707570
 21
4.098727
  0
LINE
  8
CutLine
  6
CONTINUOUS
 62
8
 10
361.707570
 20
4.098727
 11
350.307919
 21
7.625456
  0
LINE
  8
CutLine
  6
CONTINUOUS
 62
8
 10
350.307919
 20
7.625456
 11
347.009039
 21
13.879846
  0
LINE
  8
CutLine
  6
CONTINUOUS
 62
8
 10
306.299500
 20
360.333750
 11
302.125029
 21
366.041095
  0
LINE
  8
CutLine
  6
CONTINUOUS
 62
8
 10
302.125029
 20
366.041095
 11
312.189343
 21
430.921654
  0
LINE
  8
CutLine
  6
CONTINUOUS
 62
8
 10
312.189343
 20
430.921654
 11
317.896688
 21
435.096126
  0
LINE
  8
CutLine
  6
CONTINUOUS
 62
8
 10
306.299500
 20
509.858501
 11
304.974844
 21
516.804384
  0
LINE
  8
CutLine
  6
CONTINUOUS
 62
8
 10
304.974844
 20
516.804384
 11
309.282765
 21
523.142649
  0
LINE
  8
CutLine
  6
CONTINUOUS
 62
8
 10
309.282765
 20
523.142649
 11
316.228647
 21
524.467306
  0
LINE
  8
CutLine
  6
CONTINUOUS
 62
8
 10
410.766452
 20
383.474895
 11
408.965307
 21
376.637069
  0
LINE
  8
CutLine
  6
CONTINUOUS
 62
8
 10
408.965307
 20
376.637069
 11
399.733876
 21
371.254972
  0
LINE
  8
CutLine
  6
CONTINUOUS
 62
8
 10
399.733876
 20
371.254972
 11
392.896049
 21
373.056118
  0
LINE
  8
CutLine
  6
CONTINUOUS
 62
8
 10
410.766452
 20
486.717356
 11
416.559728
 21
482.662981
  0
LINE
  8
CutLine
  6
CONTINUOUS
 62
8
 10
416.559728
 20
482.662981
 11
423.936120
 21
440.889402
  0
LINE
  8
CutLine
  6
CONTINUOUS
 62
8
 10
423.936120
 20
440.889402
 11
419.881745
 21
435.096126
  0
LINE
  8
CutLine
  6
CONTINUOUS
 62
8
 10
392.896049
 20
497.136134
 11
399.733876
 21
498.937279
  0
LINE
  8
CutLine
  6
CONTINUOUS
 62
8
 10
399.733876
 20
498.937279
 11
408.965307
 21
493.555183
  0
LINE
  8
CutLine
  6
CONTINUOUS
 62
8
 10
408.965307
 20
493.555183
 11
410.766452
 21
486.717356
  0
LINE
  8
CutLine
  6
CONTINUOUS
 62
8
 10
326.646625
 20
336.918652
 11
330.301048
 21
342.972179
  0
LINE
  8
CutLine
  6
CONTINUOUS
 62
8
 10
330.301048
 20
342.972179
 11
369.441344
 21
352.644835
  0
LINE
  8
CutLine
  6
CONTINUOUS
 62
8
 10
369.441344
 20
352.644835
 11
375.494872
 21
348.990413
  0
LINE
  8
CutLine
  6
CONTINUOUS
 62
8
 10
396.355870
 20
370.423965
 11
403.365835
 21
369.496396
  0
LINE
  8
CutLine
  6
CONTINUOUS
 62
8
 10
403.365835
 20
369.496396
 11
442.204829
 21
318.811469
  0
LINE
  8
CutLine
  6
CONTINUOUS
 62
8
 10
442.204829
 20
318.811469
 11
441.277260
 21
311.801503
  0
LINE
  8
CutLine
  6
CONTINUOUS
 62
8
 10
462.609067
 20
241.094514
 11
458.400550
 21
235.412228
  0
LINE
  8
CutLine
  6
CONTINUOUS
 62
8
 10
458.400550
 20
235.412228
 11
438.708450
 21
232.478027
  0
LINE
  8
CutLine
  6
CONTINUOUS
 62
8
 10
438.708450
 20
232.478027
 11
433.026164
 21
236.686544
  0
LINE
  8
CutLine
  6
CONTINUOUS
 62
8
 10
394.689765
 20
204.095149
 11
387.692076
 21
205.111195
  0
LINE
  8
CutLine
  6
CONTINUOUS
 62
8
 10
387.692076
 20
205.111195
 11
348.418700
 21
257.726585
  0
LINE
  8
CutLine
  6
CONTINUOUS
 62
8
 10
348.418700
 20
257.726585
 11
349.434746
 21
264.724274
  0
LINE
  8
CutLine
  6
CONTINUOUS
 62
8
 10
336.414810
 20
527.533070
 11
330.338183
 21
523.917187
  0
LINE
  8
CutLine
  6
CONTINUOUS
 62
8
 10
330.338183
 20
523.917187
 11
311.211897
 21
528.772985
  0
LINE
  8
CutLine
  6
CONTINUOUS
 62
8
 10
311.211897
 20
528.772985
 11
307.596013
 21
534.849612
  0
LINE
  8
CutLine
  6
CONTINUOUS
 62
8
 10
308.129420
 20
595.741504
 11
313.802934
 21
599.961841
  0
LINE
  8
CutLine
  6
CONTINUOUS
 62
8
 10
313.802934
 20
599.961841
 11
340.103906
 21
596.098839
  0
LINE
  8
CutLine
  6
CONTINUOUS
 62
8
 10
340.103906
 20
596.098839
 11
359.992829
 21
588.123973
  0
LINE
  8
CutLine
  6
CONTINUOUS
 62
8
 10
389.947238
 20
530.418567
 11
389.015484
 21
523.409157
  0
LINE
  8
CutLine
  6
CONTINUOUS
 62
8
 10
389.015484
 20
523.409157
 11
371.176189
 21
509.756110
  0
LINE
  8
CutLine
  6
CONTINUOUS
 62
8
 10
371.176189
 20
509.756110
 11
364.166779
 21
510.687864
  0
LINE
  8
CutLine
  6
CONTINUOUS
 62
8
 10
410.736923
 20
601.272239
 11
416.727820
 21
593.093678
  0
LINE
  8
CutLine
  6
CONTINUOUS
 62
8
 10
416.727820
 20
593.093678
 11
422.197745
 21
546.337601
  0
LINE
  8
CutLine
  6
CONTINUOUS
 62
8
 10
422.197745
 20
546.337601
 11
417.812594
 21
540.790489
  0
LINE
  8
CutLine
  6
CONTINUOUS
 62
8
 10
312.140703
 20
116.549774
 11
350.698588
 21
137.951111
  0
LINE
  8
MountainLine
  6
CONTINUOUS
 62
5
 10
350.698588
 20
137.951111
 11
310.032218
 21
172.314071
  0
LINE
  8
CutLine
  6
CONTINUOUS
 62
8
 10
310.032218
 20
172.314071
 11
312.140703
 21
116.549774
  0
LINE
  8
MountainLine
  6
CONTINUOUS
 62
5
 10
323.348538
 20
203.598698
 11
312.402266
 21
232.032978
  0
LINE
  8
ValleyLine
  6
CONTINUOUS
 62
1
 10
312.402266
 20
232.032978
 11
310.032218
 21
172.314071
  0
LINE
  8
CutLine
  6
CONTINUOUS
 62
8
 10
357.388945
 20
155.574729
 11
323.348538
 21
203.598698
  0
LINE
  8
ValleyLine
  6
CONTINUOUS
 62
1
 10
350.698588
 20
137.951111
 11
357.388945
 21
155.574729
  0
LINE
  8
MountainLine
  6
CONTINUOUS
 62
5
 10
499.388961
 20
10.967679
 11
488.336724
 21
50.720024
  0
LINE
  8
ValleyLine
  6
CONTINUOUS
 62
1
 10
488.336724
 20
50.720024
 11
449.040450
 21
57.362843
  0
LINE
  8
ValleyLine
  6
CONTINUOUS
 62
1
 10
449.040450
 20
57.362843
 11
499.388961
 21
10.967679
  0
LINE
  8
ValleyLine
  6
CONTINUOUS
 62
1
 10
525.812721
 20
21.596460
 11
488.336724
 21
50.720024
  0
LINE
  8
CutLine
  6
CONTINUOUS
 62
8
 10
488.336724
 20
50.720024
 11
505.573786
 21
13.144844
  0
LINE
  8
CutLine
  6
CONTINUOUS
 62
8
 10
505.573786
 20
13.144844
 11
525.812721
 21
21.596460
  0
LINE
  8
MountainLine
  6
CONTINUOUS
 62
5
 10
525.812721
 20
21.596460
 11
491.496915
 21
75.641011
  0
LINE
  8
ValleyLine
  6
CONTINUOUS
 62
1
 10
491.496915
 20
75.641011
 11
488.336724
 21
50.720024
  0
LINE
  8
ValleyLine
  6
CONTINUOUS
 62
1
 10
480.459827
 20
88.451843
 11
449.040450
 21
57.362843
  0
LINE
  8
ValleyLine
  6
CONTINUOUS
 62
1
 10
449.040450
 20
57.362843
 11
491.496915
 21
75.641011
  0
LINE
  8
CutLine
  6
CONTINUOUS
 62
8
 10
491.496915
 20
75.641011
 11
480.459827
 21
88.451843
  0
LINE
  8
ValleyLine
  6
CONTINUOUS
 62
1
 10
458.589235
 20
105.987637
 11
449.040450
 21
57.362843
  0
LINE
  8
MountainLine
  6
CONTINUOUS
 62
5
 10
480.459827
 20
88.451843
 11
458.589235
 21
105.987637
  0
LINE
  8
CutLine
  6
CONTINUOUS
 62
8
 10
420.709921
 20
16.706589
 11
449.186679
 21
7.560407
  0
LINE
  8
ValleyLine
  6
CONTINUOUS
 62
1
 10
449.186679
 20
7.560407
 11
449.040450
 21
57.362843
  0
LINE
  8
CutLine
  6
CONTINUOUS
 62
8
 10
449.040450
 20
57.362843
 11
420.709921
 21
16.706589
  0
LINE
  8
MountainLine
  6
CONTINUOUS
 62
5
 10
449.186679
 20
7.560407
 11
499.388961
 21
10.967679
  0
LINE
  8
ValleyLine
  6
CONTINUOUS
 62
1
 10
532.683973
 20
199.147029
 11
581.485344
 21
169.827615
  0
LINE
  8
MountainLine
  6
CONTINUOUS
 62
5
 10
581.485344
 20
169.827615
 11
592.771830
 21
191.533106
  0
LINE
  8
ValleyLine
  6
CONTINUOUS
 62
1
 10
592.771830
 20
191.533106
 11
532.683973
 21
199.147029
  0
LINE
  8
ValleyLine
  6
CONTINUOUS
 62
1
 10
532.683973
 20
199.147029
 11
570.145746
 21
145.069810
  0
LINE
  8
CutLine
  6
CONTINUOUS
 62
8
 10
570.145746
 20
145.069810
 11
581.485344
 21
169.827615
  0
LINE
  8
ValleyLine
  6
CONTINUOUS
 62
1
 10
532.683973
 20
199.147029
 11
526.020397
 21
117.974316
  0
LINE
  8
ValleyLine
  6
CONTINUOUS
 62
1
 10
526.020397
 20
117.974316
 11
570.145746
 21
145.069810
  0
LINE
  8
ValleyLine
  6
CONTINUOUS
 62
1
 10
532.683973
 20
199.147029
 11
592.387130
 21
221.263677
  0
LINE
  8
CutLine
  6
CONTINUOUS
 62
8
 10
592.387130
 20
221.263677
 11
593.142967
 21
253.719207
  0
LINE
  8
CutLine
  6
CONTINUOUS
 62
8
 10
593.142967
 20
253.719207
 11
532.683973
 21
199.147029
  0
LINE
  8
MountainLine
  6
CONTINUOUS
 62
5
 10
592.771830
 20
191.533106
 11
592.387130
 21
221.263677
  0
LINE
  8
CutLine
  6
CONTINUOUS
 62
8
 10
432.830505
 20
127.339087
 11
485.803630
 21
97.306518
  0
LINE
  8
ValleyLine
  6
CONTINUOUS
 62
1
 10
485.803630
 20
97.306518
 11
485.547243
 21
127.339087
  0
LINE
  8
MountainLine
  6
CONTINUOUS
 62
5
 10
485.547243
 20
127.339087
 11
432.830505
 21
127.339087
  0
LINE
  8
ValleyLine
  6
CONTINUOUS
 62
1
 10
460.371442
 20
151.648815
 11
432.830505
 21
127.339087
  0
LINE
  8
CutLine
  6
CONTINUOUS
 62
8
 10
485.547243
 20
127.339087
 11
460.371442
 21
151.648815
  0
LINE
  8
ValleyLine
  6
CONTINUOUS
 62
1
 10
510.273354
 20
99.629318
 11
485.547243
 21
127.339087
  0
LINE
  8
MountainLine
  6
CONTINUOUS
 62
5
 10
485.803630
 20
97.306518
 11
510.273354
 21
99.629318
  0
LINE
  8
ValleyLine
  6
CONTINUOUS
 62
1
 10
507.480321
 20
85.964815
 11
510.273354
 21
99.629318
  0
LINE
  8
CutLine
  6
CONTINUOUS
 62
8
 10
485.803630
 20
97.306518
 11
507.480321
 21
85.964815
  0
LINE
  8
ValleyLine
  6
CONTINUOUS
 62
1
 10
514.636451
 20
161.566773
 11
478.198757
 21
161.555802
  0
LINE
  8
ValleyLine
  6
CONTINUOUS
 62
1
 10
478.198757
 20
161.555802
 11
485.547243
 21
127.339087
  0
LINE
  8
MountainLine
  6
CONTINUOUS
 62
5
 10
510.273354
 20
99.629318
 11
514.636451
 21
161.566773
  0
LINE
  8
CutLine
  6
CONTINUOUS
 62
8
 10
501.906265
 20
189.616810
 11
478.198757
 21
161.555802
  0
LINE
  8
CutLine
  6
CONTINUOUS
 62
8
 10
514.636451
 20
161.566773
 11
501.906265
 21
189.616810
  0
LINE
  8
MountainLine
  6
CONTINUOUS
 62
5
 10
521.029075
 20
257.164844
 11
467.709165
 21
232.353837
  0
LINE
  8
ValleyLine
  6
CONTINUOUS
 62
1
 10
525.008331
 20
244.706440
 11
577.052530
 21
251.789519
  0
LINE
  8
MountainLine
  6
CONTINUOUS
 62
5
 10
577.052530
 20
251.789519
 11
521.029075
 21
257.164844
  0
LINE
  8
ValleyLine
  6
CONTINUOUS
 62
1
 10
467.709165
 20
232.353837
 11
455.764867
 21
178.952946
  0
LINE
  8
CutLine
  6
CONTINUOUS
 62
8
 10
455.764867
 20
178.952946
 11
472.482294
 21
170.167442
  0
LINE
  8
ValleyLine
  6
CONTINUOUS
 62
1
 10
472.482294
 20
170.167442
 11
525.008331
 21
244.706440
  0
LINE
  8
CutLine
  6
CONTINUOUS
 62
8
 10
466.286431
 20
326.537356
 11
465.945250
 21
299.376830
  0
LINE
  8
CutLine
  6
CONTINUOUS
 62
8
 10
577.052530
 20
251.789519
 11
579.519738
 21
320.221746
  0
LINE
  8
ValleyLine
  6
CONTINUOUS
 62
1
 10
465.945250
 20
299.376830
 11
466.750996
 21
282.436591
  0
LINE
  8
MountainLine
  6
CONTINUOUS
 62
5
 10
466.750996
 20
282.436591
 11
521.029075
 21
257.164844
  0
LINE
  8
CutLine
  6
CONTINUOUS
 62
8
 10
466.750996
 20
282.436591
 11
467.709165
 21
232.353837
  0
LINE
  8
MountainLine
  6
CONTINUOUS
 62
5
 10
579.519738
 20
320.221746
 11
589.886255
 21
583.686864
  0
LINE
  8
CutLine
  6
CONTINUOUS
 62
8
 10
431.971280
 20
527.287695
 11
466.286431
 21
326.537356
  0
LINE
  8
CutLine
  6
CONTINUOUS
 62
8
 10
589.886255
 20
583.686864
 11
453.864229
 21
573.797611
  0
LINE
  8
MountainLine
  6
CONTINUOUS
 62
5
 10
453.864229
 20
573.797611
 11
431.971280
 21
527.287695
  0
LINE
  8
MountainLine
  6
CONTINUOUS
 62
5
 10
439.541176
 20
220.739467
 11
392.032051
 21
185.984123
  0
LINE
  8
ValleyLine
  6
CONTINUOUS
 62
1
 10
392.032051
 20
185.984123
 11
455.764867
 21
178.952946
  0
LINE
  8
CutLine
  6
CONTINUOUS
 62
8
 10
467.709165
 20
232.353837
 11
439.541176
 21
220.739467
  0
LINE
  8
ValleyLine
  6
CONTINUOUS
 62
1
 10
392.032051
 20
185.984123
 11
382.160521
 21
161.717371
  0
LINE
  8
CutLine
  6
CONTINUOUS
 62
8
 10
382.160521
 20
161.717371
 11
443.590746
 21
164.515210
  0
LINE
  8
MountainLine
  6
CONTINUOUS
 62
5
 10
443.590746
 20
164.515210
 11
392.032051
 21
185.984123
  0
LINE
  8
ValleyLine
  6
CONTINUOUS
 62
1
 10
443.590746
 20
164.515210
 11
455.764867
 21
178.952946
  0
LINE
  8
ValleyLine
  6
CONTINUOUS
 62
1
 10
374.181309
 20
192.042490
 11
329.985102
 21
201.280943
  0
LINE
  8
CutLine
  6
CONTINUOUS
 62
8
 10
329.985102
 20
201.280943
 11
376.779681
 21
160.241693
  0
LINE
  8
ValleyLine
  6
CONTINUOUS
 62
1
 10
376.779681
 20
160.241693
 11
382.160521
 21
161.717371
  0
LINE
  8
CutLine
  6
CONTINUOUS
 62
8
 10
392.032051
 20
185.984123
 11
374.181309
 21
192.042490
  0
LINE
  8
ValleyLine
  6
CONTINUOUS
 62
1
 10
374.181309
 20
192.042490
 11
354.399568
 21
231.455819
  0
LINE
  8
CutLine
  6
CONTINUOUS
 62
8
 10
354.399568
 20
231.455819
 11
341.602778
 21
225.909483
  0
LINE
  8
MountainLine
  6
CONTINUOUS
 62
5
 10
341.602778
 20
225.909483
 11
329.985102
 21
201.280943
  0
LINE
  8
ValleyLine
  6
CONTINUOUS
 62
1
 10
318.116406
 20
279.331094
 11
318.116406
 21
237.990915
  0
LINE
  8
CutLine
  6
CONTINUOUS
 62
8
 10
318.116406
 20
237.990915
 11
335.354594
 21
275.477522
  0
LINE
  8
CutLine
  6
CONTINUOUS
 62
8
 10
335.354594
 20
275.477522
 11
318.116406
 21
279.331094
  0
LINE
  8
ValleyLine
  6
CONTINUOUS
 62
1
 10
412.096741
 20
103.459820
 11
385.567266
 21
37.528707
  0
LINE
  8
ValleyLine
  6
CONTINUOUS
 62
1
 10
385.567266
 20
37.528707
 11
420.463645
 21
70.171953
  0
LINE
  8
MountainLine
  6
CONTINUOUS
 62
5
 10
435.914562
 20
83.925911
 11
412.096741
 21
103.459820
  0
LINE
  8
CutLine
  6
CONTINUOUS
 62
8
 10
420.463645
 20
70.171953
 11
435.914562
 21
83.925911
  0
LINE
  8
ValleyLine
  6
CONTINUOUS
 62
1
 10
370.049582
 20
6.271203
 11
420.463645
 21
70.171953
  0
LINE
  8
ValleyLine
  6
CONTINUOUS
 62
1
 10
385.567266
 20
37.528707
 11
370.049582
 21
6.271203
  0
LINE
  8
CutLine
  6
CONTINUOUS
 62
8
 10
323.085570
 20
70.231953
 11
317.733419
 21
54.139241
  0
LINE
  8
ValleyLine
  6
CONTINUOUS
 62
1
 10
317.733419
 20
54.139241
 11
311.082313
 21
27.803460
  0
LINE
  8
CutLine
  6
CONTINUOUS
 62
8
 10
311.082313
 20
27.803460
 11
347.009039
 21
13.879846
  0
LINE
  8
MountainLine
  6
CONTINUOUS
 62
5
 10
347.009039
 20
13.879846
 11
391.264634
 21
135.926520
  0
LINE
  8
CutLine
  6
CONTINUOUS
 62
8
 10
391.264634
 20
135.926520
 11
333.904074
 21
119.141670
  0
LINE
  8
ValleyLine
  6
CONTINUOUS
 62
1
 10
333.904074
 20
119.141670
 11
323.085570
 21
70.231953
  0
LINE
  8
ValleyLine
  6
CONTINUOUS
 62
1
 10
442.747594
 20
157.458063
 11
391.264634
 21
135.926520
  0
LINE
  8
CutLine
  6
CONTINUOUS
 62
8
 10
412.096741
 20
103.459820
 11
442.747594
 21
157.458063
  0
LINE
  8
MountainLine
  6
CONTINUOUS
 62
5
 10
347.009039
 20
13.879846
 11
367.961960
 21
7.397606
  0
LINE
  8
CutLine
  6
CONTINUOUS
 62
8
 10
367.961960
 20
7.397606
 11
385.567266
 21
37.528707
  0
LINE
  8
MountainLine
  6
CONTINUOUS
 62
5
 10
317.896688
 20
435.096126
 11
306.299500
 21
360.333750
  0
LINE
  8
CutLine
  6
CONTINUOUS
 62
8
 10
306.299500
 20
360.333750
 11
316.228647
 21
345.724946
  0
LINE
  8
CutLine
  6
CONTINUOUS
 62
8
 10
316.228647
 20
345.724946
 11
392.896049
 21
373.056118
  0
LINE
  8
CutLine
  6
CONTINUOUS
 62
8
 10
306.299500
 20
509.858501
 11
317.896688
 21
435.096126
  0
LINE
  8
MountainLine
  6
CONTINUOUS
 62
5
 10
316.228647
 20
524.467306
 11
306.299500
 21
509.858501
  0
LINE
  8
CutLine
  6
CONTINUOUS
 62
8
 10
392.896049
 20
497.136134
 11
316.228647
 21
524.467306
  0
LINE
  8
CutLine
  6
CONTINUOUS
 62
8
 10
410.766452
 20
383.474895
 11
419.881745
 21
435.096126
  0
LINE
  8
ValleyLine
  6
CONTINUOUS
 62
1
 10
392.896049
 20
373.056118
 11
410.766452
 21
383.474895
  0
LINE
  8
ValleyLine
  6
CONTINUOUS
 62
1
 10
419.881745
 20
435.096126
 11
410.766452
 21
486.717356
  0
LINE
  8
ValleyLine
  6
CONTINUOUS
 62
1
 10
410.766452
 20
486.717356
 11
392.896049
 21
497.136134
  0
LINE
  8
MountainLine
  6
CONTINUOUS
 62
5
 10
375.494872
 20
348.990413
 11
326.646625
 21
336.918652
  0
LINE
  8
CutLine
  6
CONTINUOUS
 62
8
 10
326.646625
 20
336.918652
 11
349.412080
 21
264.768519
  0
LINE
  8
MountainLine
  6
CONTINUOUS
 62
5
 10
441.277260
 20
311.801503
 11
396.355870
 21
370.423965
  0
LINE
  8
CutLine
  6
CONTINUOUS
 62
8
 10
396.355870
 20
370.423965
 11
375.494872
 21
348.990413
  0
LINE
  8
MountainLine
  6
CONTINUOUS
 62
5
 10
433.026164
 20
236.686544
 11
462.609067
 21
241.094514
  0
LINE
  8
CutLine
  6
CONTINUOUS
 62
8
 10
462.609067
 20
241.094514
 11
441.277260
 21
311.801503
  0
LINE
  8
CutLine
  6
CONTINUOUS
 62
8
 10
394.689765
 20
204.095149
 11
433.026164
 21
236.686544
  0
LINE
  8
MountainLine
  6
CONTINUOUS
 62
5
 10
349.434746
 20
264.724274
 11
394.689765
 21
204.095149
  0
LINE
  8
ValleyLine
  6
CONTINUOUS
 62
1
 10
359.992829
 20
588.123973
 11
307.596013
 21
534.849612
  0
LINE
  8
MountainLine
  6
CONTINUOUS
 62
5
 10
307.596013
 20
534.849612
 11
336.414810
 21
527.533070
  0
LINE
  8
ValleyLine
  6
CONTINUOUS
 62
1
 10
336.414810
 20
527.533070
 11
359.992829
 21
588.123973
  0
LINE
  8
ValleyLine
  6
CONTINUOUS
 62
1
 10
359.992829
 20
588.123973
 11
308.129420
 21
595.741504
  0
LINE
  8
CutLine
  6
CONTINUOUS
 62
8
 10
308.129420
 20
595.741504
 11
307.596013
 21
534.849612
  0
LINE
  8
CutLine
  6
CONTINUOUS
 62
8
 10
336.414810
 20
527.533070
 11
364.166779
 21
510.687864
  0
LINE
  8
MountainLine
  6
CONTINUOUS
 62
5
 10
364.166779
 20
510.687864
 11
359.992829
 21
588.123973
  0
LINE
  8
MountainLine
  6
CONTINUOUS
 62
5
 10
364.166779
 20
510.687864
 11
389.947238
 21
530.418567
  0
LINE
  8
ValleyLine
  6
CONTINUOUS
 62
1
 10
389.947238
 20
530.418567
 11
359.992829
 21
588.123973
  0
LINE
  8
MountainLine
  6
CONTINUOUS
 62
5
 10
417.812594
 20
540.790489
 11
410.736923
 21
601.272239
  0
LINE
  8
CutLine
  6
CONTINUOUS
 62
8
 10
410.736923
 20
601.272239
 11
359.992829
 21
588.123973
  0
LINE
  8
ValleyLine
  6
CONTINUOUS
 62
1
 10
359.992829
 20
588.123973
 11
417.812594
 21
540.790489
  0
LINE
  8
CutLine
  6
CONTINUOUS
 62
8
 10
389.947238
 20
530.418567
 11
417.812594
 21
540.790489
  0
ENDSEC
  0
EOF
