  0
SECTION
  2
HEADER
  9
$ACADVER
  1
AC1009
  0
ENDSEC
  0
SECTION
  2
BLOCKS
  0
ENDSEC
  0
SECTION
  2
ENTITIES
  0
LINE
  8
CutLine
  6
CONTINUOUS
 62
8
 10
2079.877654
 20
230.593982
 11
2084.487300
 21
225.231971
  0
LINE
  8
CutLine
  6
CONTINUOUS
 62
8
 10
2084.487300
 20
225.231971
 11
2079.651906
 21
161.144910
  0
LINE
  8
CutLine
  6
CONTINUOUS
 62
8
 10
2079.651906
 20
161.144910
 11
2073.543326
 21
146.640447
  0
LINE
  8
CutLine
  6
CONTINUOUS
 62
8
 10
2073.543326
 20
146.640447
 11
2065.980574
 21
153.532166
  0
LINE
  8
CutLine
  6
CONTINUOUS
 62
8
 10
2065.980574
 20
153.532166
 11
2042.083261
 21
225.350005
  0
LINE
  8
CutLine
  6
CONTINUOUS
 62
8
 10
2042.083261
 20
225.350005
 11
2045.248864
 21
231.672896
  0
LINE
  8
CutLine
  6
CONTINUOUS
 62
8
 10
2088.618463
 20
544.975545
 11
2091.243156
 21
538.409650
  0
LINE
  8
CutLine
  6
CONTINUOUS
 62
8
 10
2091.243156
 20
538.409650
 11
2071.013515
 21
491.235641
  0
LINE
  8
CutLine
  6
CONTINUOUS
 62
8
 10
2071.013515
 20
491.235641
 11
2064.447620
 21
488.610948
  0
LINE
  8
CutLine
  6
CONTINUOUS
 62
8
 10
1993.824196
 20
489.137592
 11
1988.913610
 21
496.957597
  0
LINE
  8
CutLine
  6
CONTINUOUS
 62
8
 10
1988.913610
 20
496.957597
 11
1989.306781
 21
531.217863
  0
LINE
  8
CutLine
  6
CONTINUOUS
 62
8
 10
1989.306781
 20
531.217863
 11
1994.392033
 21
538.617851
  0
LINE
  8
CutLine
  6
CONTINUOUS
 62
8
 10
2023.380977
 20
301.428537
 11
2014.577609
 21
321.096088
  0
LINE
  8
CutLine
  6
CONTINUOUS
 62
8
 10
2014.577609
 20
321.096088
 11
2002.001589
 21
387.675522
  0
LINE
  8
CutLine
  6
CONTINUOUS
 62
8
 10
2002.001589
 20
387.675522
 11
2005.986683
 21
393.516671
  0
LINE
  8
CutLine
  6
CONTINUOUS
 62
8
 10
2058.032547
 20
429.173112
 11
2062.569975
 21
423.749852
  0
LINE
  8
CutLine
  6
CONTINUOUS
 62
8
 10
2062.569975
 20
423.749852
 11
2057.826435
 21
370.411418
  0
LINE
  8
CutLine
  6
CONTINUOUS
 62
8
 10
2057.826435
 20
370.411418
 11
2052.403175
 21
365.873990
  0
LINE
  8
CutLine
  6
CONTINUOUS
 62
8
 10
2042.096482
 20
198.548229
 11
2048.129651
 21
194.860293
  0
LINE
  8
CutLine
  6
CONTINUOUS
 62
8
 10
2048.129651
 20
194.860293
 11
2078.570582
 21
68.681183
  0
LINE
  8
CutLine
  6
CONTINUOUS
 62
8
 10
2078.570582
 20
68.681183
 11
2074.882647
 21
62.648014
  0
LINE
  8
CutLine
  6
CONTINUOUS
 62
8
 10
2042.155973
 20
12.211198
 11
2037.150570
 21
19.901609
  0
LINE
  8
CutLine
  6
CONTINUOUS
 62
8
 10
2037.150570
 20
19.901609
 11
2037.099995
 21
91.901475
  0
LINE
  8
CutLine
  6
CONTINUOUS
 62
8
 10
2037.099995
 20
91.901475
 11
2042.096482
 21
96.904986
  0
LINE
  8
CutLine
  6
CONTINUOUS
 62
8
 10
1864.800206
 20
285.050381
 11
1859.179030
 21
280.760580
  0
LINE
  8
CutLine
  6
CONTINUOUS
 62
8
 10
1859.179030
 20
280.760580
 11
1818.835190
 21
286.180108
  0
LINE
  8
CutLine
  6
CONTINUOUS
 62
8
 10
1818.835190
 20
286.180108
 11
1814.545390
 21
291.801283
  0
LINE
  8
CutLine
  6
CONTINUOUS
 62
8
 10
1986.997083
 20
423.338993
 11
1992.595065
 21
419.018970
  0
LINE
  8
CutLine
  6
CONTINUOUS
 62
8
 10
1992.595065
 20
419.018970
 11
2001.479708
 21
350.066958
  0
LINE
  8
CutLine
  6
CONTINUOUS
 62
8
 10
2001.479708
 20
350.066958
 11
1997.159686
 21
344.468975
  0
LINE
  8
CutLine
  6
CONTINUOUS
 62
8
 10
1952.108754
 20
580.361864
 11
1958.260503
 21
576.875320
  0
LINE
  8
CutLine
  6
CONTINUOUS
 62
8
 10
1958.260503
 20
576.875320
 11
1975.767876
 21
513.562684
  0
LINE
  8
CutLine
  6
CONTINUOUS
 62
8
 10
1975.767876
 20
513.562684
 11
1972.281333
 21
507.410935
  0
LINE
  8
CutLine
  6
CONTINUOUS
 62
8
 10
1814.545390
 20
410.020311
 11
1809.319164
 21
430.689662
  0
LINE
  8
CutLine
  6
CONTINUOUS
 62
8
 10
1809.319164
 20
430.689662
 11
1808.489391
 21
506.603132
  0
LINE
  8
CutLine
  6
CONTINUOUS
 62
8
 10
1808.489391
 20
506.603132
 11
1813.434443
 21
511.657482
  0
LINE
  8
CutLine
  6
CONTINUOUS
 62
8
 10
1812.568240
 20
596.346862
 11
1819.499910
 21
594.949742
  0
LINE
  8
CutLine
  6
CONTINUOUS
 62
8
 10
1819.499910
 20
594.949742
 11
1847.241346
 21
553.202427
  0
LINE
  8
CutLine
  6
CONTINUOUS
 62
8
 10
1847.241346
 20
553.202427
 11
1845.844225
 21
546.270756
  0
LINE
  8
CutLine
  6
CONTINUOUS
 62
8
 10
1860.147294
 20
273.815869
 11
1866.333364
 21
277.241147
  0
LINE
  8
CutLine
  6
CONTINUOUS
 62
8
 10
1866.333364
 20
277.241147
 11
1897.597838
 21
268.260647
  0
LINE
  8
CutLine
  6
CONTINUOUS
 62
8
 10
1897.597838
 20
268.260647
 11
1901.023117
 21
262.074577
  0
LINE
  8
CutLine
  6
CONTINUOUS
 62
8
 10
1846.708982
 20
139.791834
 11
1840.513688
 21
143.200400
  0
LINE
  8
CutLine
  6
CONTINUOUS
 62
8
 10
1840.513688
 20
143.200400
 11
1810.355992
 21
247.132452
  0
LINE
  8
CutLine
  6
CONTINUOUS
 62
8
 10
1810.355992
 20
247.132452
 11
1813.764559
 21
253.327747
  0
LINE
  8
CutLine
  6
CONTINUOUS
 62
8
 10
1901.023117
 20
262.074577
 11
1910.347991
 21
266.325936
  0
LINE
  8
CutLine
  6
CONTINUOUS
 62
8
 10
1910.347991
 20
266.325936
 11
1999.247669
 21
259.028359
  0
LINE
  8
CutLine
  6
CONTINUOUS
 62
8
 10
1999.247669
 20
259.028359
 11
2003.821844
 21
253.636058
  0
LINE
  8
CutLine
  6
CONTINUOUS
 62
8
 10
2016.040747
 20
175.058347
 11
2021.555570
 21
170.632657
  0
LINE
  8
CutLine
  6
CONTINUOUS
 62
8
 10
2021.555570
 20
170.632657
 11
2029.762196
 21
95.730765
  0
LINE
  8
CutLine
  6
CONTINUOUS
 62
8
 10
2029.762196
 20
95.730765
 11
2025.336506
 21
90.215942
  0
LINE
  8
CutLine
  6
CONTINUOUS
 62
8
 10
2026.292478
 20
14.533335
 11
2021.154316
 21
9.675426
  0
LINE
  8
CutLine
  6
CONTINUOUS
 62
8
 10
2021.154316
 20
9.675426
 11
1919.595148
 21
12.522769
  0
LINE
  8
CutLine
  6
CONTINUOUS
 62
8
 10
1919.595148
 20
12.522769
 11
1914.737238
 21
17.660931
  0
LINE
  8
ValleyLine
  6
CONTINUOUS
 62
1
 10
2073.543326
 20
146.640447
 11
2079.877654
 21
230.593982
  0
LINE
  8
MountainLine
  6
CONTINUOUS
 62
5
 10
2079.877654
 20
230.593982
 11
2045.248864
 21
231.672896
  0
LINE
  8
ValleyLine
  6
CONTINUOUS
 62
1
 10
2045.248864
 20
231.672896
 11
2073.543326
 21
146.640447
  0
LINE
  8
CutLine
  6
CONTINUOUS
 62
8
 10
2088.618463
 20
544.975545
 11
1995.399449
 21
589.123052
  0
LINE
  8
CutLine
  6
CONTINUOUS
 62
8
 10
1995.399449
 20
589.123052
 11
1994.392033
 21
538.617851
  0
LINE
  8
ValleyLine
  6
CONTINUOUS
 62
1
 10
1994.392033
 20
538.617851
 11
2088.618463
 21
544.975545
  0
LINE
  8
MountainLine
  6
CONTINUOUS
 62
5
 10
1993.824196
 20
489.137592
 11
2058.032547
 21
429.173112
  0
LINE
  8
CutLine
  6
CONTINUOUS
 62
8
 10
2058.032547
 20
429.173112
 11
2064.447620
 21
488.610948
  0
LINE
  8
ValleyLine
  6
CONTINUOUS
 62
1
 10
2064.447620
 20
488.610948
 11
2088.618463
 21
544.975545
  0
LINE
  8
MountainLine
  6
CONTINUOUS
 62
5
 10
1994.392033
 20
538.617851
 11
2064.447620
 21
488.610948
  0
LINE
  8
ValleyLine
  6
CONTINUOUS
 62
1
 10
1994.392033
 20
538.617851
 11
1993.824196
 21
489.137592
  0
LINE
  8
CutLine
  6
CONTINUOUS
 62
8
 10
1993.824196
 20
489.137592
 11
2005.986683
 21
393.516671
  0
LINE
  8
MountainLine
  6
CONTINUOUS
 62
5
 10
2023.380977
 20
301.428537
 11
2065.095027
 21
298.261920
  0
LINE
  8
MountainLine
  6
CONTINUOUS
 62
5
 10
2065.095027
 20
298.261920
 11
2005.986683
 21
393.516671
  0
LINE
  8
ValleyLine
  6
CONTINUOUS
 62
1
 10
2005.986683
 20
393.516671
 11
2023.380977
 21
301.428537
  0
LINE
  8
CutLine
  6
CONTINUOUS
 62
8
 10
2023.380977
 20
301.428537
 11
2045.248864
 21
231.672896
  0
LINE
  8
ValleyLine
  6
CONTINUOUS
 62
1
 10
2045.248864
 20
231.672896
 11
2065.095027
 21
298.261920
  0
LINE
  8
ValleyLine
  6
CONTINUOUS
 62
1
 10
2052.403175
 20
365.873990
 11
2058.032547
 21
429.173112
  0
LINE
  8
MountainLine
  6
CONTINUOUS
 62
5
 10
2005.986683
 20
393.516671
 11
2052.403175
 21
365.873990
  0
LINE
  8
CutLine
  6
CONTINUOUS
 62
8
 10
2065.095027
 20
298.261920
 11
2052.403175
 21
365.873990
  0
LINE
  8
CutLine
  6
CONTINUOUS
 62
8
 10
2079.877654
 20
230.593982
 11
2065.095027
 21
298.261920
  0
LINE
  8
MountainLine
  6
CONTINUOUS
 62
5
 10
2074.882647
 20
62.648014
 11
2042.096482
 21
198.548229
  0
LINE
  8
CutLine
  6
CONTINUOUS
 62
8
 10
2042.096482
 20
198.548229
 11
2042.096482
 21
96.904986
  0
LINE
  8
ValleyLine
  6
CONTINUOUS
 62
1
 10
2042.096482
 20
96.904986
 11
2042.155973
 21
12.211198
  0
LINE
  8
CutLine
  6
CONTINUOUS
 62
8
 10
2042.155973
 20
12.211198
 11
2074.882647
 21
62.648014
  0
LINE
  8
CutLine
  6
CONTINUOUS
 62
8
 10
1864.800206
 20
285.050381
 11
1900.784800
 21
307.717533
  0
LINE
  8
CutLine
  6
CONTINUOUS
 62
8
 10
1814.545390
 20
410.020311
 11
1814.545390
 21
291.801283
  0
LINE
  8
ValleyLine
  6
CONTINUOUS
 62
1
 10
1814.545390
 20
291.801283
 11
1864.800206
 21
285.050381
  0
LINE
  8
CutLine
  6
CONTINUOUS
 62
8
 10
1900.784800
 20
307.717533
 11
1997.159686
 21
344.468975
  0
LINE
  8
ValleyLine
  6
CONTINUOUS
 62
1
 10
1997.159686
 20
344.468975
 11
1986.997083
 21
423.338993
  0
LINE
  8
CutLine
  6
CONTINUOUS
 62
8
 10
1986.997083
 20
423.338993
 11
1972.281333
 21
507.410935
  0
LINE
  8
MountainLine
  6
CONTINUOUS
 62
5
 10
1845.844225
 20
546.270756
 11
1814.545390
 21
410.020311
  0
LINE
  8
ValleyLine
  6
CONTINUOUS
 62
1
 10
1972.281333
 20
507.410935
 11
1952.108754
 21
580.361864
  0
LINE
  8
CutLine
  6
CONTINUOUS
 62
8
 10
1952.108754
 20
580.361864
 11
1845.844225
 21
546.270756
  0
LINE
  8
ValleyLine
  6
CONTINUOUS
 62
1
 10
1813.434443
 20
511.657482
 11
1814.545390
 21
410.020311
  0
LINE
  8
CutLine
  6
CONTINUOUS
 62
8
 10
1812.568240
 20
596.346862
 11
1813.434443
 21
511.657482
  0
LINE
  8
MountainLine
  6
CONTINUOUS
 62
5
 10
1845.844225
 20
546.270756
 11
1812.568240
 21
596.346862
  0
LINE
  8
ValleyLine
  6
CONTINUOUS
 62
1
 10
1901.023117
 20
262.074577
 11
1860.147294
 21
273.815869
  0
LINE
  8
CutLine
  6
CONTINUOUS
 62
8
 10
1860.147294
 20
273.815869
 11
1813.764559
 21
253.327747
  0
LINE
  8
MountainLine
  6
CONTINUOUS
 62
5
 10
1813.764559
 20
253.327747
 11
1846.708982
 21
139.791834
  0
LINE
  8
CutLine
  6
CONTINUOUS
 62
8
 10
2016.040747
 20
175.058347
 11
2003.821844
 21
253.636058
  0
LINE
  8
MountainLine
  6
CONTINUOUS
 62
5
 10
2003.821844
 20
253.636058
 11
1901.023117
 21
262.074577
  0
LINE
  8
ValleyLine
  6
CONTINUOUS
 62
1
 10
2025.336506
 20
90.215942
 11
2016.040747
 21
175.058347
  0
LINE
  8
CutLine
  6
CONTINUOUS
 62
8
 10
1846.708982
 20
139.791834
 11
1914.737238
 21
17.660931
  0
LINE
  8
CutLine
  6
CONTINUOUS
 62
8
 10
2026.292478
 20
14.533335
 11
2025.336506
 21
90.215942
  0
LINE
  8
MountainLine
  6
CONTINUOUS
 62
5
 10
1914.737238
 20
17.660931
 11
2026.292478
 21
14.533335
  0
ENDSEC
  0
EOF
