  0
SECTION
  2
HEADER
  9
$ACADVER
  1
AC1009
  0
ENDSEC
  0
SECTION
  2
BLOCKS
  0
ENDSEC
  0
SECTION
  2
ENTITIES
  0
LINE
  8
CutLine
  6
CONTINUOUS
 62
8
 10
3176.606368
 20
321.132607
 11
3171.739328
 21
326.262121
  0
LINE
  8
CutLine
  6
CONTINUOUS
 62
8
 10
3171.739328
 20
326.262121
 11
3172.094454
 21
339.787398
  0
LINE
  8
CutLine
  6
CONTINUOUS
 62
8
 10
3172.094454
 20
339.787398
 11
3177.223968
 21
344.654438
  0
LINE
  8
CutLine
  6
CONTINUOUS
 62
8
 10
3243.942554
 20
378.813412
 11
3248.925105
 21
373.796023
  0
LINE
  8
CutLine
  6
CONTINUOUS
 62
8
 10
3248.925105
 20
373.796023
 11
3248.734810
 21
319.173120
  0
LINE
  8
CutLine
  6
CONTINUOUS
 62
8
 10
3248.734810
 20
319.173120
 11
3243.717421
 21
314.190569
  0
LINE
  8
CutLine
  6
CONTINUOUS
 62
8
 10
3176.732003
 20
366.471344
 11
3171.447563
 21
371.798312
  0
LINE
  8
CutLine
  6
CONTINUOUS
 62
8
 10
3171.447563
 20
371.798312
 11
3170.959735
 21
381.157648
  0
LINE
  8
CutLine
  6
CONTINUOUS
 62
8
 10
3170.959735
 20
381.157648
 11
3175.692700
 21
386.411127
  0
LINE
  8
CutLine
  6
CONTINUOUS
 62
8
 10
3173.920360
 20
404.450382
 11
3168.203168
 21
408.611357
  0
LINE
  8
CutLine
  6
CONTINUOUS
 62
8
 10
3168.203168
 20
408.611357
 11
3167.190223
 21
415.041083
  0
LINE
  8
CutLine
  6
CONTINUOUS
 62
8
 10
3167.190223
 20
415.041083
 11
3171.351199
 21
420.758275
  0
LINE
  8
CutLine
  6
CONTINUOUS
 62
8
 10
3236.511646
 20
422.833138
 11
3242.870794
 21
417.006799
  0
LINE
  8
CutLine
  6
CONTINUOUS
 62
8
 10
3242.870794
 20
417.006799
 11
3239.451083
 21
409.089062
  0
LINE
  8
CutLine
  6
CONTINUOUS
 62
8
 10
3168.293287
 20
435.674752
 11
3162.295790
 21
439.420420
  0
LINE
  8
CutLine
  6
CONTINUOUS
 62
8
 10
3162.295790
 20
439.420420
 11
3161.325737
 21
443.617621
  0
LINE
  8
CutLine
  6
CONTINUOUS
 62
8
 10
3161.325737
 20
443.617621
 11
3165.071405
 21
449.615118
  0
LINE
  8
CutLine
  6
CONTINUOUS
 62
8
 10
3226.347252
 20
472.538938
 11
3232.175549
 21
468.535070
  0
LINE
  8
CutLine
  6
CONTINUOUS
 62
8
 10
3232.175549
 20
468.535070
 11
3232.599687
 21
466.249315
  0
LINE
  8
CutLine
  6
CONTINUOUS
 62
8
 10
3232.599687
 20
466.249315
 11
3228.595820
 21
460.421018
  0
LINE
  8
CutLine
  6
CONTINUOUS
 62
8
 10
3230.841940
 20
449.550330
 11
3237.065891
 21
444.204655
  0
LINE
  8
CutLine
  6
CONTINUOUS
 62
8
 10
3237.065891
 20
444.204655
 11
3233.500933
 21
436.815143
  0
LINE
  8
CutLine
  6
CONTINUOUS
 62
8
 10
3170.460994
 20
270.376214
 11
3165.973691
 21
275.841020
  0
LINE
  8
CutLine
  6
CONTINUOUS
 62
8
 10
3165.973691
 20
275.841020
 11
3167.552848
 21
291.918673
  0
LINE
  8
CutLine
  6
CONTINUOUS
 62
8
 10
3167.552848
 20
291.918673
 11
3173.017654
 21
296.405976
  0
LINE
  8
CutLine
  6
CONTINUOUS
 62
8
 10
3167.528213
 20
213.900651
 11
3162.739491
 21
219.103355
  0
LINE
  8
CutLine
  6
CONTINUOUS
 62
8
 10
3162.739491
 20
219.103355
 11
3163.533906
 21
238.276479
  0
LINE
  8
CutLine
  6
CONTINUOUS
 62
8
 10
3163.533906
 20
238.276479
 11
3168.736610
 21
243.065202
  0
LINE
  8
CutLine
  6
CONTINUOUS
 62
8
 10
3169.252642
 20
147.387504
 11
3163.982283
 21
152.101665
  0
LINE
  8
CutLine
  6
CONTINUOUS
 62
8
 10
3163.982283
 20
152.101665
 11
3162.605815
 21
176.811108
  0
LINE
  8
CutLine
  6
CONTINUOUS
 62
8
 10
3162.605815
 20
176.811108
 11
3167.319976
 21
182.081468
  0
LINE
  8
CutLine
  6
CONTINUOUS
 62
8
 10
3034.066766
 20
335.134495
 11
3030.934404
 21
341.473919
  0
LINE
  8
CutLine
  6
CONTINUOUS
 62
8
 10
3030.934404
 20
341.473919
 11
3032.610636
 21
346.424530
  0
LINE
  8
CutLine
  6
CONTINUOUS
 62
8
 10
3032.610636
 20
346.424530
 11
3038.950061
 21
349.556892
  0
LINE
  8
CutLine
  6
CONTINUOUS
 62
8
 10
3049.114220
 20
375.947117
 11
3062.770653
 21
376.790433
  0
LINE
  8
CutLine
  6
CONTINUOUS
 62
8
 10
3062.770653
 20
376.790433
 11
3075.604150
 21
372.645202
  0
LINE
  8
CutLine
  6
CONTINUOUS
 62
8
 10
3075.604150
 20
372.645202
 11
3078.825284
 21
366.350419
  0
LINE
  8
CutLine
  6
CONTINUOUS
 62
8
 10
3043.973069
 20
362.954046
 11
3041.163441
 21
369.442959
  0
LINE
  8
CutLine
  6
CONTINUOUS
 62
8
 10
3041.163441
 20
369.442959
 11
3042.625307
 21
373.137489
  0
LINE
  8
CutLine
  6
CONTINUOUS
 62
8
 10
3042.625307
 20
373.137489
 11
3049.114220
 21
375.947117
  0
LINE
  8
CutLine
  6
CONTINUOUS
 62
8
 10
3025.994447
 20
301.476550
 11
3022.092301
 21
307.373435
  0
LINE
  8
CutLine
  6
CONTINUOUS
 62
8
 10
3022.092301
 20
307.373435
 11
3023.713248
 21
315.336236
  0
LINE
  8
CutLine
  6
CONTINUOUS
 62
8
 10
3023.713248
 20
315.336236
 11
3029.610133
 21
319.238383
  0
LINE
  8
CutLine
  6
CONTINUOUS
 62
8
 10
3021.523809
 20
259.933740
 11
3016.994322
 21
265.363634
  0
LINE
  8
CutLine
  6
CONTINUOUS
 62
8
 10
3016.994322
 20
265.363634
 11
3018.058826
 21
277.138064
  0
LINE
  8
CutLine
  6
CONTINUOUS
 62
8
 10
3018.058826
 20
277.138064
 11
3023.488720
 21
281.667551
  0
LINE
  8
CutLine
  6
CONTINUOUS
 62
8
 10
3027.698761
 20
25.530092
 11
3021.950928
 21
33.217330
  0
LINE
  8
CutLine
  6
CONTINUOUS
 62
8
 10
3021.950928
 20
33.217330
 11
3019.714516
 21
56.910306
  0
LINE
  8
CutLine
  6
CONTINUOUS
 62
8
 10
3019.714516
 20
56.910306
 11
3024.222521
 21
62.358047
  0
LINE
  8
CutLine
  6
CONTINUOUS
 62
8
 10
3021.890177
 20
97.027435
 11
3016.660361
 21
101.786535
  0
LINE
  8
CutLine
  6
CONTINUOUS
 62
8
 10
3016.660361
 20
101.786535
 11
3015.633264
 21
123.582212
  0
LINE
  8
CutLine
  6
CONTINUOUS
 62
8
 10
3015.633264
 20
123.582212
 11
3020.392364
 21
128.812028
  0
LINE
  8
CutLine
  6
CONTINUOUS
 62
8
 10
3019.044378
 20
211.485951
 11
3014.237936
 21
216.672290
  0
LINE
  8
CutLine
  6
CONTINUOUS
 62
8
 10
3014.237936
 20
216.672290
 11
3014.780485
 21
230.943480
  0
LINE
  8
CutLine
  6
CONTINUOUS
 62
8
 10
3014.780485
 20
230.943480
 11
3019.993576
 21
236.453613
  0
LINE
  8
CutLine
  6
CONTINUOUS
 62
8
 10
3019.003769
 20
157.968555
 11
3013.956002
 21
162.920328
  0
LINE
  8
CutLine
  6
CONTINUOUS
 62
8
 10
3013.956002
 20
162.920328
 11
3013.789306
 21
180.284923
  0
LINE
  8
CutLine
  6
CONTINUOUS
 62
8
 10
3013.789306
 20
180.284923
 11
3018.741079
 21
185.332690
  0
LINE
  8
CutLine
  6
CONTINUOUS
 62
8
 10
3025.790996
 20
471.219733
 11
3020.647773
 21
476.072285
  0
LINE
  8
CutLine
  6
CONTINUOUS
 62
8
 10
3020.647773
 20
476.072285
 11
3017.915486
 21
570.031856
  0
LINE
  8
CutLine
  6
CONTINUOUS
 62
8
 10
3017.915486
 20
570.031856
 11
3022.768037
 21
575.175079
  0
LINE
  8
CutLine
  6
CONTINUOUS
 62
8
 10
3168.225408
 20
554.811508
 11
3165.136051
 21
548.451015
  0
LINE
  8
CutLine
  6
CONTINUOUS
 62
8
 10
3165.136051
 20
548.451015
 11
3088.724377
 21
522.000551
  0
LINE
  8
CutLine
  6
CONTINUOUS
 62
8
 10
3088.724377
 20
522.000551
 11
3079.968742
 21
524.260812
  0
LINE
  8
CutLine
  6
CONTINUOUS
 62
8
 10
3078.459384
 20
567.287386
 11
3084.100078
 21
571.551490
  0
LINE
  8
CutLine
  6
CONTINUOUS
 62
8
 10
3084.100078
 20
571.551490
 11
3159.196623
 21
561.114407
  0
LINE
  8
CutLine
  6
CONTINUOUS
 62
8
 10
3159.196623
 20
561.114407
 11
3168.225408
 21
554.811508
  0
LINE
  8
CutLine
  6
CONTINUOUS
 62
8
 10
3079.968742
 20
524.260812
 11
3082.639994
 21
515.041505
  0
LINE
  8
CutLine
  6
CONTINUOUS
 62
8
 10
3082.639994
 20
515.041505
 11
3055.703994
 21
416.138854
  0
LINE
  8
CutLine
  6
CONTINUOUS
 62
8
 10
3055.703994
 20
416.138854
 11
3043.594427
 21
390.702892
  0
LINE
  8
CutLine
  6
CONTINUOUS
 62
8
 10
3292.284613
 20
348.079861
 11
3298.453661
 21
344.624019
  0
LINE
  8
CutLine
  6
CONTINUOUS
 62
8
 10
3298.453661
 20
344.624019
 11
3299.871770
 21
339.593386
  0
LINE
  8
CutLine
  6
CONTINUOUS
 62
8
 10
3299.871770
 20
339.593386
 11
3296.415928
 21
333.424338
  0
LINE
  8
CutLine
  6
CONTINUOUS
 62
8
 10
3283.498074
 20
374.960167
 11
3289.833092
 21
371.818901
  0
LINE
  8
CutLine
  6
CONTINUOUS
 62
8
 10
3289.833092
 20
371.818901
 11
3291.102045
 21
368.053750
  0
LINE
  8
CutLine
  6
CONTINUOUS
 62
8
 10
3291.102045
 20
368.053750
 11
3287.960779
 21
361.718732
  0
LINE
  8
CutLine
  6
CONTINUOUS
 62
8
 10
3300.044980
 20
317.319124
 11
3305.732292
 21
313.117400
  0
LINE
  8
CutLine
  6
CONTINUOUS
 62
8
 10
3305.732292
 20
313.117400
 11
3306.939498
 21
305.081460
  0
LINE
  8
CutLine
  6
CONTINUOUS
 62
8
 10
3306.939498
 20
305.081460
 11
3302.737774
 21
299.394148
  0
LINE
  8
CutLine
  6
CONTINUOUS
 62
8
 10
3304.216282
 20
279.482113
 11
3308.800000
 21
275.238017
  0
LINE
  8
CutLine
  6
CONTINUOUS
 62
8
 10
3308.800000
 20
261.720250
 11
3305.055209
 21
257.675793
  0
LINE
  8
CutLine
  6
CONTINUOUS
 62
8
 10
3292.147985
 20
60.503683
 11
3296.368387
 21
54.830217
  0
LINE
  8
CutLine
  6
CONTINUOUS
 62
8
 10
3296.368387
 20
54.830217
 11
3292.910343
 21
31.284505
  0
LINE
  8
CutLine
  6
CONTINUOUS
 62
8
 10
3292.910343
 20
31.284505
 11
3286.772861
 21
23.904632
  0
LINE
  8
CutLine
  6
CONTINUOUS
 62
8
 10
3194.301311
 20
10.805141
 11
3188.020822
 21
7.556225
  0
LINE
  8
CutLine
  6
CONTINUOUS
 62
8
 10
3188.020822
 20
7.556225
 11
3161.633192
 21
15.950875
  0
LINE
  8
CutLine
  6
CONTINUOUS
 62
8
 10
3161.633192
 20
15.950875
 11
3158.384276
 21
22.231364
  0
LINE
  8
CutLine
  6
CONTINUOUS
 62
8
 10
3299.407838
 20
126.670867
 11
3303.890262
 21
121.202057
  0
LINE
  8
CutLine
  6
CONTINUOUS
 62
8
 10
3303.890262
 20
121.202057
 11
3301.737982
 21
99.488601
  0
LINE
  8
CutLine
  6
CONTINUOUS
 62
8
 10
3301.737982
 20
99.488601
 11
3296.269173
 21
95.006177
  0
LINE
  8
CutLine
  6
CONTINUOUS
 62
8
 10
3305.369776
 20
234.147958
 11
3308.800000
 21
230.124648
  0
LINE
  8
CutLine
  6
CONTINUOUS
 62
8
 10
3308.800000
 20
212.835342
 11
3305.027198
 21
209.164608
  0
LINE
  8
CutLine
  6
CONTINUOUS
 62
8
 10
3303.978306
 20
183.030629
 11
3308.662555
 21
177.733667
  0
LINE
  8
CutLine
  6
CONTINUOUS
 62
8
 10
3308.662555
 20
177.733667
 11
3307.598556
 21
160.400898
  0
LINE
  8
CutLine
  6
CONTINUOUS
 62
8
 10
3307.598556
 20
160.400898
 11
3302.301594
 21
155.716648
  0
LINE
  8
CutLine
  6
CONTINUOUS
 62
8
 10
3264.673587
 20
407.231466
 11
3255.402986
 21
433.833830
  0
LINE
  8
CutLine
  6
CONTINUOUS
 62
8
 10
3255.402986
 20
433.833830
 11
3239.386152
 21
535.079786
  0
LINE
  8
CutLine
  6
CONTINUOUS
 62
8
 10
3239.386152
 20
535.079786
 11
3243.044489
 21
543.953780
  0
LINE
  8
CutLine
  6
CONTINUOUS
 62
8
 10
3249.225613
 20
586.560798
 11
3254.064659
 21
591.716730
  0
LINE
  8
CutLine
  6
CONTINUOUS
 62
8
 10
3254.064659
 20
591.716730
 11
3297.767354
 21
593.102305
  0
LINE
  8
CutLine
  6
CONTINUOUS
 62
8
 10
3297.767354
 20
593.102305
 11
3305.444514
 21
588.343194
  0
LINE
  8
CutLine
  6
CONTINUOUS
 62
8
 10
3243.044489
 20
543.953780
 11
3234.094931
 21
542.659431
  0
LINE
  8
CutLine
  6
CONTINUOUS
 62
8
 10
3234.094931
 20
542.659431
 11
3161.014214
 21
577.265496
  0
LINE
  8
CutLine
  6
CONTINUOUS
 62
8
 10
3161.014214
 20
577.265496
 11
3158.635130
 21
583.924321
  0
LINE
  8
CutLine
  6
CONTINUOUS
 62
8
 10
3150.527148
 20
311.095269
 11
3155.662590
 21
306.234483
  0
LINE
  8
CutLine
  6
CONTINUOUS
 62
8
 10
3155.662590
 20
306.234483
 11
3156.034198
 21
292.709650
  0
LINE
  8
CutLine
  6
CONTINUOUS
 62
8
 10
3156.034198
 20
292.709650
 11
3151.173412
 21
287.574208
  0
LINE
  8
CutLine
  6
CONTINUOUS
 62
8
 10
3156.307169
 20
387.206206
 11
3160.475109
 21
381.494089
  0
LINE
  8
CutLine
  6
CONTINUOUS
 62
8
 10
3160.475109
 20
381.494089
 11
3159.470000
 21
375.063134
  0
LINE
  8
CutLine
  6
CONTINUOUS
 62
8
 10
3159.470000
 20
375.063134
 11
3153.757883
 21
370.895194
  0
LINE
  8
CutLine
  6
CONTINUOUS
 62
8
 10
3096.781384
 20
415.925742
 11
3092.889356
 21
421.829309
  0
LINE
  8
CutLine
  6
CONTINUOUS
 62
8
 10
3092.889356
 20
421.829309
 11
3092.901918
 21
421.890486
  0
LINE
  8
CutLine
  6
CONTINUOUS
 62
8
 10
3092.901918
 20
421.890486
 11
3099.014256
 21
426.799159
  0
LINE
  8
CutLine
  6
CONTINUOUS
 62
8
 10
3091.144241
 20
389.201660
 11
3087.301553
 21
395.137462
  0
LINE
  8
CutLine
  6
CONTINUOUS
 62
8
 10
3087.301553
 20
395.137462
 11
3088.202111
 21
399.344636
  0
LINE
  8
CutLine
  6
CONTINUOUS
 62
8
 10
3088.202111
 20
399.344636
 11
3094.137913
 21
403.187324
  0
LINE
  8
CutLine
  6
CONTINUOUS
 62
8
 10
3162.551792
 20
416.070681
 11
3166.304765
 21
410.077753
  0
LINE
  8
CutLine
  6
CONTINUOUS
 62
8
 10
3166.304765
 20
410.077753
 11
3165.339829
 21
405.879372
  0
LINE
  8
CutLine
  6
CONTINUOUS
 62
8
 10
3165.339829
 20
405.879372
 11
3159.346900
 21
402.126399
  0
LINE
  8
CutLine
  6
CONTINUOUS
 62
8
 10
3101.248054
 20
438.919810
 11
3106.907775
 21
443.158626
  0
LINE
  8
CutLine
  6
CONTINUOUS
 62
8
 10
3106.907775
 20
443.158626
 11
3161.637974
 21
435.302274
  0
LINE
  8
CutLine
  6
CONTINUOUS
 62
8
 10
3161.637974
 20
435.302274
 11
3165.876790
 21
429.642554
  0
LINE
  8
CutLine
  6
CONTINUOUS
 62
8
 10
3152.007528
 20
352.853793
 11
3156.746892
 21
347.606086
  0
LINE
  8
CutLine
  6
CONTINUOUS
 62
8
 10
3156.746892
 20
347.606086
 11
3156.270470
 21
338.246162
  0
LINE
  8
CutLine
  6
CONTINUOUS
 62
8
 10
3156.270470
 20
338.246162
 11
3150.992526
 21
332.912758
  0
LINE
  8
CutLine
  6
CONTINUOUS
 62
8
 10
3083.766983
 20
345.172911
 11
3079.547927
 21
350.847377
  0
LINE
  8
CutLine
  6
CONTINUOUS
 62
8
 10
3079.547927
 20
350.847377
 11
3082.546252
 21
371.229260
  0
LINE
  8
CutLine
  6
CONTINUOUS
 62
8
 10
3082.546252
 20
371.229260
 11
3088.221556
 21
375.454012
  0
LINE
  8
CutLine
  6
CONTINUOUS
 62
8
 10
3154.792257
 20
262.851969
 11
3160.262527
 21
258.371328
  0
LINE
  8
CutLine
  6
CONTINUOUS
 62
8
 10
3160.262527
 20
258.371328
 11
3161.861276
 21
242.295612
  0
LINE
  8
CutLine
  6
CONTINUOUS
 62
8
 10
3161.861276
 20
242.295612
 11
3157.380636
 21
236.825341
  0
LINE
  8
CutLine
  6
CONTINUOUS
 62
8
 10
3159.138301
 20
209.516451
 11
3164.346838
 21
204.734072
  0
LINE
  8
CutLine
  6
CONTINUOUS
 62
8
 10
3164.346838
 20
204.734072
 11
3165.164617
 21
185.561931
  0
LINE
  8
CutLine
  6
CONTINUOUS
 62
8
 10
3165.164617
 20
185.561931
 11
3160.382238
 21
180.353394
  0
LINE
  8
CutLine
  6
CONTINUOUS
 62
8
 10
3160.629252
 20
148.534489
 11
3165.349832
 21
143.269878
  0
LINE
  8
CutLine
  6
CONTINUOUS
 62
8
 10
3165.349832
 20
143.269878
 11
3164.003477
 21
118.558776
  0
LINE
  8
CutLine
  6
CONTINUOUS
 62
8
 10
3164.003477
 20
118.558776
 11
3158.738867
 21
113.838196
  0
LINE
  8
CutLine
  6
CONTINUOUS
 62
8
 10
3096.154293
 20
202.554540
 11
3089.323784
 21
213.985063
  0
LINE
  8
CutLine
  6
CONTINUOUS
 62
8
 10
3089.323784
 20
213.985063
 11
3079.895301
 21
274.843847
  0
LINE
  8
CutLine
  6
CONTINUOUS
 62
8
 10
3079.895301
 20
274.843847
 11
3084.070869
 21
280.550390
  0
LINE
  8
ValleyLine
  6
CONTINUOUS
 62
1
 10
3243.942554
 20
378.813412
 11
3177.223968
 21
344.654438
  0
LINE
  8
ValleyLine
  6
CONTINUOUS
 62
1
 10
3177.223968
 20
344.654438
 11
3176.606368
 21
321.132607
  0
LINE
  8
ValleyLine
  6
CONTINUOUS
 62
1
 10
3176.606368
 20
321.132607
 11
3243.717421
 21
314.190569
  0
LINE
  8
MountainLine
  6
CONTINUOUS
 62
5
 10
3243.717421
 20
314.190569
 11
3243.942554
 21
378.813412
  0
LINE
  8
CutLine
  6
CONTINUOUS
 62
8
 10
3173.920360
 20
404.450382
 11
3175.692700
 21
386.411127
  0
LINE
  8
ValleyLine
  6
CONTINUOUS
 62
1
 10
3175.692700
 20
386.411127
 11
3239.451083
 21
409.089062
  0
LINE
  8
ValleyLine
  6
CONTINUOUS
 62
1
 10
3239.451083
 20
409.089062
 11
3173.920360
 21
404.450382
  0
LINE
  8
ValleyLine
  6
CONTINUOUS
 62
1
 10
3239.451083
 20
409.089062
 11
3176.732003
 21
366.471344
  0
LINE
  8
CutLine
  6
CONTINUOUS
 62
8
 10
3176.732003
 20
366.471344
 11
3177.223968
 21
344.654438
  0
LINE
  8
MountainLine
  6
CONTINUOUS
 62
5
 10
3177.223968
 20
344.654438
 11
3239.451083
 21
409.089062
  0
LINE
  8
ValleyLine
  6
CONTINUOUS
 62
1
 10
3175.692700
 20
386.411127
 11
3176.732003
 21
366.471344
  0
LINE
  8
CutLine
  6
CONTINUOUS
 62
8
 10
3243.942554
 20
378.813412
 11
3239.451083
 21
409.089062
  0
LINE
  8
ValleyLine
  6
CONTINUOUS
 62
1
 10
3171.351199
 20
420.758275
 11
3173.920360
 21
404.450382
  0
LINE
  8
MountainLine
  6
CONTINUOUS
 62
5
 10
3173.920360
 20
404.450382
 11
3236.511646
 21
422.833138
  0
LINE
  8
ValleyLine
  6
CONTINUOUS
 62
1
 10
3236.511646
 20
422.833138
 11
3171.351199
 21
420.758275
  0
LINE
  8
MountainLine
  6
CONTINUOUS
 62
5
 10
3239.451083
 20
409.089062
 11
3236.511646
 21
422.833138
  0
LINE
  8
CutLine
  6
CONTINUOUS
 62
8
 10
3226.347252
 20
472.538938
 11
3161.729870
 21
463.182929
  0
LINE
  8
CutLine
  6
CONTINUOUS
 62
8
 10
3161.729870
 20
463.182929
 11
3165.071405
 21
449.615118
  0
LINE
  8
ValleyLine
  6
CONTINUOUS
 62
1
 10
3165.071405
 20
449.615118
 11
3168.293287
 21
435.674752
  0
LINE
  8
MountainLine
  6
CONTINUOUS
 62
5
 10
3228.595820
 20
460.421018
 11
3226.347252
 21
472.538938
  0
LINE
  8
MountainLine
  6
CONTINUOUS
 62
5
 10
3233.500933
 20
436.815143
 11
3230.841940
 21
449.550330
  0
LINE
  8
ValleyLine
  6
CONTINUOUS
 62
1
 10
3168.293287
 20
435.674752
 11
3233.500933
 21
436.815143
  0
LINE
  8
MountainLine
  6
CONTINUOUS
 62
5
 10
3171.351199
 20
420.758275
 11
3233.500933
 21
436.815143
  0
LINE
  8
CutLine
  6
CONTINUOUS
 62
8
 10
3168.293287
 20
435.674752
 11
3171.351199
 21
420.758275
  0
LINE
  8
CutLine
  6
CONTINUOUS
 62
8
 10
3236.511646
 20
422.833138
 11
3233.500933
 21
436.815143
  0
LINE
  8
CutLine
  6
CONTINUOUS
 62
8
 10
3230.841940
 20
449.550330
 11
3228.595820
 21
460.421018
  0
LINE
  8
ValleyLine
  6
CONTINUOUS
 62
1
 10
3231.729055
 20
236.180051
 11
3170.460994
 21
270.376214
  0
LINE
  8
CutLine
  6
CONTINUOUS
 62
8
 10
3170.460994
 20
270.376214
 11
3168.736610
 21
243.065202
  0
LINE
  8
ValleyLine
  6
CONTINUOUS
 62
1
 10
3168.736610
 20
243.065202
 11
3231.729055
 21
236.180051
  0
LINE
  8
ValleyLine
  6
CONTINUOUS
 62
1
 10
3231.729055
 20
236.180051
 11
3173.017654
 21
296.405976
  0
LINE
  8
ValleyLine
  6
CONTINUOUS
 62
1
 10
3173.017654
 20
296.405976
 11
3170.460994
 21
270.376214
  0
LINE
  8
MountainLine
  6
CONTINUOUS
 62
5
 10
3231.729055
 20
236.180051
 11
3176.606368
 21
321.132607
  0
LINE
  8
CutLine
  6
CONTINUOUS
 62
8
 10
3176.606368
 20
321.132607
 11
3173.017654
 21
296.405976
  0
LINE
  8
ValleyLine
  6
CONTINUOUS
 62
1
 10
3168.736610
 20
243.065202
 11
3167.528213
 21
213.900651
  0
LINE
  8
ValleyLine
  6
CONTINUOUS
 62
1
 10
3167.528213
 20
213.900651
 11
3231.729055
 21
236.180051
  0
LINE
  8
ValleyLine
  6
CONTINUOUS
 62
1
 10
3167.319976
 20
182.081468
 11
3231.729055
 21
236.180051
  0
LINE
  8
CutLine
  6
CONTINUOUS
 62
8
 10
3167.528213
 20
213.900651
 11
3167.319976
 21
182.081468
  0
LINE
  8
ValleyLine
  6
CONTINUOUS
 62
1
 10
3231.729055
 20
236.180051
 11
3169.252642
 21
147.387504
  0
LINE
  8
CutLine
  6
CONTINUOUS
 62
8
 10
3169.252642
 20
147.387504
 11
3173.431135
 21
110.632604
  0
LINE
  8
CutLine
  6
CONTINUOUS
 62
8
 10
3173.431135
 20
110.632604
 11
3231.729055
 21
236.180051
  0
LINE
  8
ValleyLine
  6
CONTINUOUS
 62
1
 10
3167.319976
 20
182.081468
 11
3169.252642
 21
147.387504
  0
LINE
  8
CutLine
  6
CONTINUOUS
 62
8
 10
3231.729055
 20
236.180051
 11
3243.717421
 21
314.190569
  0
LINE
  8
ValleyLine
  6
CONTINUOUS
 62
1
 10
3038.950061
 20
349.556892
 11
3034.066766
 21
335.134495
  0
LINE
  8
ValleyLine
  6
CONTINUOUS
 62
1
 10
3034.066766
 20
335.134495
 11
3072.106280
 21
339.275415
  0
LINE
  8
CutLine
  6
CONTINUOUS
 62
8
 10
3043.973069
 20
362.954046
 11
3038.950061
 21
349.556892
  0
LINE
  8
CutLine
  6
CONTINUOUS
 62
8
 10
3072.106280
 20
339.275415
 11
3075.422190
 21
354.387709
  0
LINE
  8
CutLine
  6
CONTINUOUS
 62
8
 10
3075.422190
 20
354.387709
 11
3078.825284
 21
366.350419
  0
LINE
  8
ValleyLine
  6
CONTINUOUS
 62
1
 10
3078.825284
 20
366.350419
 11
3049.114220
 21
375.947117
  0
LINE
  8
ValleyLine
  6
CONTINUOUS
 62
1
 10
3049.114220
 20
375.947117
 11
3043.973069
 21
362.954046
  0
LINE
  8
ValleyLine
  6
CONTINUOUS
 62
1
 10
3023.488720
 20
281.667551
 11
3070.652716
 21
294.688425
  0
LINE
  8
CutLine
  6
CONTINUOUS
 62
8
 10
3070.652716
 20
294.688425
 11
3071.318017
 21
323.250784
  0
LINE
  8
MountainLine
  6
CONTINUOUS
 62
5
 10
3071.318017
 20
323.250784
 11
3023.488720
 21
281.667551
  0
LINE
  8
CutLine
  6
CONTINUOUS
 62
8
 10
3071.318017
 20
323.250784
 11
3072.106280
 21
339.275415
  0
LINE
  8
ValleyLine
  6
CONTINUOUS
 62
1
 10
3071.318017
 20
323.250784
 11
3029.610133
 21
319.238383
  0
LINE
  8
ValleyLine
  6
CONTINUOUS
 62
1
 10
3029.610133
 20
319.238383
 11
3025.994447
 21
301.476550
  0
LINE
  8
ValleyLine
  6
CONTINUOUS
 62
1
 10
3025.994447
 20
301.476550
 11
3071.318017
 21
323.250784
  0
LINE
  8
CutLine
  6
CONTINUOUS
 62
8
 10
3034.066766
 20
335.134495
 11
3029.610133
 21
319.238383
  0
LINE
  8
CutLine
  6
CONTINUOUS
 62
8
 10
3025.994447
 20
301.476550
 11
3023.488720
 21
281.667551
  0
LINE
  8
CutLine
  6
CONTINUOUS
 62
8
 10
3074.001108
 20
265.102763
 11
3070.652716
 21
294.688425
  0
LINE
  8
MountainLine
  6
CONTINUOUS
 62
5
 10
3070.652716
 20
294.688425
 11
3021.523809
 21
259.933740
  0
LINE
  8
ValleyLine
  6
CONTINUOUS
 62
1
 10
3021.523809
 20
259.933740
 11
3074.001108
 21
265.102763
  0
LINE
  8
ValleyLine
  6
CONTINUOUS
 62
1
 10
3023.488720
 20
281.667551
 11
3021.523809
 21
259.933740
  0
LINE
  8
CutLine
  6
CONTINUOUS
 62
8
 10
3021.890177
 20
97.027435
 11
3024.222521
 21
62.358047
  0
LINE
  8
ValleyLine
  6
CONTINUOUS
 62
1
 10
3024.222521
 20
62.358047
 11
3122.340837
 21
132.312796
  0
LINE
  8
ValleyLine
  6
CONTINUOUS
 62
1
 10
3122.340837
 20
132.312796
 11
3021.890177
 21
97.027435
  0
LINE
  8
ValleyLine
  6
CONTINUOUS
 62
1
 10
3024.222521
 20
62.358047
 11
3027.698761
 21
25.530092
  0
LINE
  8
MountainLine
  6
CONTINUOUS
 62
5
 10
3027.698761
 20
25.530092
 11
3122.340837
 21
132.312796
  0
LINE
  8
CutLine
  6
CONTINUOUS
 62
8
 10
3119.369631
 20
7.668523
 11
3155.829246
 21
17.223025
  0
LINE
  8
CutLine
  6
CONTINUOUS
 62
8
 10
3155.829246
 20
17.223025
 11
3149.068562
 21
47.438516
  0
LINE
  8
CutLine
  6
CONTINUOUS
 62
8
 10
3027.698761
 20
25.530092
 11
3119.369631
 21
7.668523
  0
LINE
  8
CutLine
  6
CONTINUOUS
 62
8
 10
3137.675157
 20
92.790178
 11
3133.188533
 21
106.798853
  0
LINE
  8
ValleyLine
  6
CONTINUOUS
 62
1
 10
3133.188533
 20
106.798853
 11
3027.698761
 21
25.530092
  0
LINE
  8
ValleyLine
  6
CONTINUOUS
 62
1
 10
3027.698761
 20
25.530092
 11
3137.675157
 21
92.790178
  0
LINE
  8
CutLine
  6
CONTINUOUS
 62
8
 10
3149.068562
 20
47.438516
 11
3142.903355
 21
73.350476
  0
LINE
  8
CutLine
  6
CONTINUOUS
 62
8
 10
3142.903355
 20
73.350476
 11
3137.675157
 21
92.790178
  0
LINE
  8
CutLine
  6
CONTINUOUS
 62
8
 10
3128.461606
 20
118.938698
 11
3122.340837
 21
132.312796
  0
LINE
  8
ValleyLine
  6
CONTINUOUS
 62
1
 10
3027.698761
 20
25.530092
 11
3128.461606
 21
118.938698
  0
LINE
  8
CutLine
  6
CONTINUOUS
 62
8
 10
3133.188533
 20
106.798853
 11
3128.461606
 21
118.938698
  0
LINE
  8
ValleyLine
  6
CONTINUOUS
 62
1
 10
3020.392364
 20
128.812028
 11
3021.890177
 21
97.027435
  0
LINE
  8
MountainLine
  6
CONTINUOUS
 62
5
 10
3021.890177
 20
97.027435
 11
3115.421569
 21
148.048658
  0
LINE
  8
ValleyLine
  6
CONTINUOUS
 62
1
 10
3115.421569
 20
148.048658
 11
3020.392364
 21
128.812028
  0
LINE
  8
CutLine
  6
CONTINUOUS
 62
8
 10
3122.340837
 20
132.312796
 11
3115.421569
 21
148.048658
  0
LINE
  8
ValleyLine
  6
CONTINUOUS
 62
1
 10
3019.993576
 20
236.453613
 11
3080.620450
 21
236.094784
  0
LINE
  8
CutLine
  6
CONTINUOUS
 62
8
 10
3080.620450
 20
236.094784
 11
3074.001108
 21
265.102763
  0
LINE
  8
MountainLine
  6
CONTINUOUS
 62
5
 10
3074.001108
 20
265.102763
 11
3019.993576
 21
236.453613
  0
LINE
  8
CutLine
  6
CONTINUOUS
 62
8
 10
3021.523809
 20
259.933740
 11
3019.993576
 21
236.453613
  0
LINE
  8
ValleyLine
  6
CONTINUOUS
 62
1
 10
3019.993576
 20
236.453613
 11
3019.044378
 21
211.485951
  0
LINE
  8
CutLine
  6
CONTINUOUS
 62
8
 10
3089.073115
 20
209.024467
 11
3080.620450
 21
236.094784
  0
LINE
  8
ValleyLine
  6
CONTINUOUS
 62
1
 10
3019.044378
 20
211.485951
 11
3089.073115
 21
209.024467
  0
LINE
  8
CutLine
  6
CONTINUOUS
 62
8
 10
3098.110220
 20
185.344010
 11
3089.073115
 21
209.024467
  0
LINE
  8
ValleyLine
  6
CONTINUOUS
 62
1
 10
3018.741079
 20
185.332690
 11
3098.110220
 21
185.344010
  0
LINE
  8
CutLine
  6
CONTINUOUS
 62
8
 10
3019.044378
 20
211.485951
 11
3018.741079
 21
185.332690
  0
LINE
  8
MountainLine
  6
CONTINUOUS
 62
5
 10
3020.392364
 20
128.812028
 11
3098.110220
 21
185.344010
  0
LINE
  8
ValleyLine
  6
CONTINUOUS
 62
1
 10
3098.110220
 20
185.344010
 11
3019.003769
 21
157.968555
  0
LINE
  8
CutLine
  6
CONTINUOUS
 62
8
 10
3019.003769
 20
157.968555
 11
3020.392364
 21
128.812028
  0
LINE
  8
ValleyLine
  6
CONTINUOUS
 62
1
 10
3018.741079
 20
185.332690
 11
3019.003769
 21
157.968555
  0
LINE
  8
ValleyLine
  6
CONTINUOUS
 62
1
 10
3107.417075
 20
165.576666
 11
3020.392364
 21
128.812028
  0
LINE
  8
CutLine
  6
CONTINUOUS
 62
8
 10
3115.421569
 20
148.048658
 11
3107.417075
 21
165.576666
  0
LINE
  8
CutLine
  6
CONTINUOUS
 62
8
 10
3107.417075
 20
165.576666
 11
3098.110220
 21
185.344010
  0
LINE
  8
ValleyLine
  6
CONTINUOUS
 62
1
 10
3022.768037
 20
575.175079
 11
3025.790996
 21
471.219733
  0
LINE
  8
ValleyLine
  6
CONTINUOUS
 62
1
 10
3025.790996
 20
471.219733
 11
3079.968742
 21
524.260812
  0
LINE
  8
ValleyLine
  6
CONTINUOUS
 62
1
 10
3079.968742
 20
524.260812
 11
3022.768037
 21
575.175079
  0
LINE
  8
MountainLine
  6
CONTINUOUS
 62
5
 10
3079.968742
 20
524.260812
 11
3168.225408
 21
554.811508
  0
LINE
  8
ValleyLine
  6
CONTINUOUS
 62
1
 10
3168.225408
 20
554.811508
 11
3078.459384
 21
567.287386
  0
LINE
  8
CutLine
  6
CONTINUOUS
 62
8
 10
3078.459384
 20
567.287386
 11
3022.768037
 21
575.175079
  0
LINE
  8
CutLine
  6
CONTINUOUS
 62
8
 10
3025.790996
 20
471.219733
 11
3043.594427
 21
390.702892
  0
LINE
  8
MountainLine
  6
CONTINUOUS
 62
5
 10
3043.594427
 20
390.702892
 11
3079.968742
 21
524.260812
  0
LINE
  8
ValleyLine
  6
CONTINUOUS
 62
1
 10
3296.415928
 20
333.424338
 11
3292.284613
 21
348.079861
  0
LINE
  8
ValleyLine
  6
CONTINUOUS
 62
1
 10
3258.641292
 20
339.525876
 11
3296.415928
 21
333.424338
  0
LINE
  8
CutLine
  6
CONTINUOUS
 62
8
 10
3256.110926
 20
354.789360
 11
3258.641292
 21
339.525876
  0
LINE
  8
CutLine
  6
CONTINUOUS
 62
8
 10
3292.284613
 20
348.079861
 11
3287.960779
 21
361.718732
  0
LINE
  8
CutLine
  6
CONTINUOUS
 62
8
 10
3283.498074
 20
374.960167
 11
3253.330699
 21
366.911976
  0
LINE
  8
CutLine
  6
CONTINUOUS
 62
8
 10
3253.330699
 20
366.911976
 11
3256.110926
 21
354.789360
  0
LINE
  8
ValleyLine
  6
CONTINUOUS
 62
1
 10
3287.960779
 20
361.718732
 11
3283.498074
 21
374.960167
  0
LINE
  8
ValleyLine
  6
CONTINUOUS
 62
1
 10
3257.788341
 20
294.923354
 11
3304.216282
 21
279.482113
  0
LINE
  8
MountainLine
  6
CONTINUOUS
 62
5
 10
3304.216282
 20
279.482113
 11
3258.600234
 21
323.481922
  0
LINE
  8
CutLine
  6
CONTINUOUS
 62
8
 10
3258.600234
 20
323.481922
 11
3257.788341
 21
294.923354
  0
LINE
  8
CutLine
  6
CONTINUOUS
 62
8
 10
3258.641292
 20
339.525876
 11
3258.600234
 21
323.481922
  0
LINE
  8
ValleyLine
  6
CONTINUOUS
 62
1
 10
3300.044980
 20
317.319124
 11
3258.600234
 21
323.481922
  0
LINE
  8
ValleyLine
  6
CONTINUOUS
 62
1
 10
3258.600234
 20
323.481922
 11
3302.737774
 21
299.394148
  0
LINE
  8
ValleyLine
  6
CONTINUOUS
 62
1
 10
3302.737774
 20
299.394148
 11
3300.044980
 21
317.319124
  0
LINE
  8
CutLine
  6
CONTINUOUS
 62
8
 10
3300.044980
 20
317.319124
 11
3296.415928
 21
333.424338
  0
LINE
  8
CutLine
  6
CONTINUOUS
 62
8
 10
3304.216282
 20
279.482113
 11
3302.737774
 21
299.394148
  0
LINE
  8
CutLine
  6
CONTINUOUS
 62
8
 10
3257.788341
 20
294.923354
 11
3252.915226
 21
265.550307
  0
LINE
  8
ValleyLine
  6
CONTINUOUS
 62
1
 10
3252.915226
 20
265.550307
 11
3305.055209
 21
257.675793
  0
LINE
  8
MountainLine
  6
CONTINUOUS
 62
5
 10
3305.055209
 20
257.675793
 11
3257.788341
 21
294.923354
  0
LINE
  8
ValleyLine
  6
CONTINUOUS
 62
1
 10
3305.055209
 20
257.675793
 11
3304.216282
 21
279.482113
  0
LINE
  8
ValleyLine
  6
CONTINUOUS
 62
1
 10
3197.776581
 20
135.436378
 11
3292.147985
 21
60.503683
  0
LINE
  8
CutLine
  6
CONTINUOUS
 62
8
 10
3292.147985
 20
60.503683
 11
3296.269173
 21
95.006177
  0
LINE
  8
ValleyLine
  6
CONTINUOUS
 62
1
 10
3296.269173
 20
95.006177
 11
3197.776581
 21
135.436378
  0
LINE
  8
MountainLine
  6
CONTINUOUS
 62
5
 10
3197.776581
 20
135.436378
 11
3286.772861
 21
23.904632
  0
LINE
  8
ValleyLine
  6
CONTINUOUS
 62
1
 10
3286.772861
 20
23.904632
 11
3292.147985
 21
60.503683
  0
LINE
  8
CutLine
  6
CONTINUOUS
 62
8
 10
3194.301311
 20
10.805141
 11
3286.772861
 21
23.904632
  0
LINE
  8
ValleyLine
  6
CONTINUOUS
 62
1
 10
3158.384276
 20
22.231364
 11
3194.301311
 21
10.805141
  0
LINE
  8
CutLine
  6
CONTINUOUS
 62
8
 10
3166.697675
 20
52.057027
 11
3158.384276
 21
22.231364
  0
LINE
  8
CutLine
  6
CONTINUOUS
 62
8
 10
3185.624642
 20
110.517225
 11
3180.419948
 21
96.759176
  0
LINE
  8
ValleyLine
  6
CONTINUOUS
 62
1
 10
3180.419948
 20
96.759176
 11
3286.772861
 21
23.904632
  0
LINE
  8
ValleyLine
  6
CONTINUOUS
 62
1
 10
3286.772861
 20
23.904632
 11
3185.624642
 21
110.517225
  0
LINE
  8
CutLine
  6
CONTINUOUS
 62
8
 10
3174.193956
 20
77.615689
 11
3166.697675
 21
52.057027
  0
LINE
  8
CutLine
  6
CONTINUOUS
 62
8
 10
3180.419948
 20
96.759176
 11
3174.193956
 21
77.615689
  0
LINE
  8
CutLine
  6
CONTINUOUS
 62
8
 10
3197.776581
 20
135.436378
 11
3190.972725
 21
122.396522
  0
LINE
  8
ValleyLine
  6
CONTINUOUS
 62
1
 10
3190.972725
 20
122.396522
 11
3286.772861
 21
23.904632
  0
LINE
  8
CutLine
  6
CONTINUOUS
 62
8
 10
3190.972725
 20
122.396522
 11
3185.624642
 21
110.517225
  0
LINE
  8
MountainLine
  6
CONTINUOUS
 62
5
 10
3205.499942
 20
150.793569
 11
3296.269173
 21
95.006177
  0
LINE
  8
ValleyLine
  6
CONTINUOUS
 62
1
 10
3296.269173
 20
95.006177
 11
3299.407838
 21
126.670867
  0
LINE
  8
ValleyLine
  6
CONTINUOUS
 62
1
 10
3299.407838
 20
126.670867
 11
3205.499942
 21
150.793569
  0
LINE
  8
CutLine
  6
CONTINUOUS
 62
8
 10
3205.499942
 20
150.793569
 11
3197.776581
 21
135.436378
  0
LINE
  8
ValleyLine
  6
CONTINUOUS
 62
1
 10
3244.805393
 20
236.923237
 11
3305.369776
 21
234.147958
  0
LINE
  8
MountainLine
  6
CONTINUOUS
 62
5
 10
3305.369776
 20
234.147958
 11
3252.915226
 21
265.550307
  0
LINE
  8
CutLine
  6
CONTINUOUS
 62
8
 10
3252.915226
 20
265.550307
 11
3244.805393
 21
236.923237
  0
LINE
  8
CutLine
  6
CONTINUOUS
 62
8
 10
3305.369776
 20
234.147958
 11
3305.055209
 21
257.675793
  0
LINE
  8
ValleyLine
  6
CONTINUOUS
 62
1
 10
3305.027198
 20
209.164608
 11
3305.369776
 21
234.147958
  0
LINE
  8
CutLine
  6
CONTINUOUS
 62
8
 10
3244.805393
 20
236.923237
 11
3234.964840
 21
210.325998
  0
LINE
  8
ValleyLine
  6
CONTINUOUS
 62
1
 10
3234.964840
 20
210.325998
 11
3305.027198
 21
209.164608
  0
LINE
  8
CutLine
  6
CONTINUOUS
 62
8
 10
3234.964840
 20
210.325998
 11
3224.715841
 21
187.144296
  0
LINE
  8
ValleyLine
  6
CONTINUOUS
 62
1
 10
3224.715841
 20
187.144296
 11
3303.978306
 21
183.030629
  0
LINE
  8
CutLine
  6
CONTINUOUS
 62
8
 10
3303.978306
 20
183.030629
 11
3305.027198
 21
209.164608
  0
LINE
  8
MountainLine
  6
CONTINUOUS
 62
5
 10
3224.715841
 20
187.144296
 11
3299.407838
 21
126.670867
  0
LINE
  8
CutLine
  6
CONTINUOUS
 62
8
 10
3299.407838
 20
126.670867
 11
3302.301594
 21
155.716648
  0
LINE
  8
ValleyLine
  6
CONTINUOUS
 62
1
 10
3302.301594
 20
155.716648
 11
3224.715841
 21
187.144296
  0
LINE
  8
ValleyLine
  6
CONTINUOUS
 62
1
 10
3302.301594
 20
155.716648
 11
3303.978306
 21
183.030629
  0
LINE
  8
CutLine
  6
CONTINUOUS
 62
8
 10
3214.399709
 20
167.884419
 11
3205.499942
 21
150.793569
  0
LINE
  8
ValleyLine
  6
CONTINUOUS
 62
1
 10
3299.407838
 20
126.670867
 11
3214.399709
 21
167.884419
  0
LINE
  8
CutLine
  6
CONTINUOUS
 62
8
 10
3224.715841
 20
187.144296
 11
3214.399709
 21
167.884419
  0
LINE
  8
CutLine
  6
CONTINUOUS
 62
8
 10
3264.673587
 20
407.231466
 11
3291.130526
 21
485.333670
  0
LINE
  8
ValleyLine
  6
CONTINUOUS
 62
1
 10
3291.130526
 20
485.333670
 11
3243.044489
 21
543.953780
  0
LINE
  8
MountainLine
  6
CONTINUOUS
 62
5
 10
3243.044489
 20
543.953780
 11
3264.673587
 21
407.231466
  0
LINE
  8
ValleyLine
  6
CONTINUOUS
 62
1
 10
3305.444514
 20
588.343194
 11
3249.225613
 21
586.560798
  0
LINE
  8
ValleyLine
  6
CONTINUOUS
 62
1
 10
3243.044489
 20
543.953780
 11
3305.444514
 21
588.343194
  0
LINE
  8
CutLine
  6
CONTINUOUS
 62
8
 10
3249.225613
 20
586.560798
 11
3158.635130
 21
583.924321
  0
LINE
  8
MountainLine
  6
CONTINUOUS
 62
5
 10
3158.635130
 20
583.924321
 11
3243.044489
 21
543.953780
  0
LINE
  8
CutLine
  6
CONTINUOUS
 62
8
 10
3291.130526
 20
485.333670
 11
3305.444514
 21
588.343194
  0
LINE
  8
ValleyLine
  6
CONTINUOUS
 62
1
 10
3150.527148
 20
311.095269
 11
3083.766983
 21
345.172911
  0
LINE
  8
ValleyLine
  6
CONTINUOUS
 62
1
 10
3151.173412
 20
287.574208
 11
3150.527148
 21
311.095269
  0
LINE
  8
CutLine
  6
CONTINUOUS
 62
8
 10
3083.766983
 20
345.172911
 11
3084.070869
 21
280.550390
  0
LINE
  8
ValleyLine
  6
CONTINUOUS
 62
1
 10
3084.070869
 20
280.550390
 11
3151.173412
 21
287.574208
  0
LINE
  8
MountainLine
  6
CONTINUOUS
 62
5
 10
3091.144241
 20
389.201660
 11
3153.757883
 21
370.895194
  0
LINE
  8
ValleyLine
  6
CONTINUOUS
 62
1
 10
3153.757883
 20
370.895194
 11
3156.307169
 21
387.206206
  0
LINE
  8
ValleyLine
  6
CONTINUOUS
 62
1
 10
3156.307169
 20
387.206206
 11
3091.144241
 21
389.201660
  0
LINE
  8
CutLine
  6
CONTINUOUS
 62
8
 10
3091.144241
 20
389.201660
 11
3088.221556
 21
375.454012
  0
LINE
  8
ValleyLine
  6
CONTINUOUS
 62
1
 10
3088.221556
 20
375.454012
 11
3153.757883
 21
370.895194
  0
LINE
  8
MountainLine
  6
CONTINUOUS
 62
5
 10
3099.014256
 20
426.799159
 11
3096.781384
 21
415.925742
  0
LINE
  8
MountainLine
  6
CONTINUOUS
 62
5
 10
3094.137913
 20
403.187324
 11
3156.307169
 21
387.206206
  0
LINE
  8
CutLine
  6
CONTINUOUS
 62
8
 10
3156.307169
 20
387.206206
 11
3159.346900
 21
402.126399
  0
LINE
  8
ValleyLine
  6
CONTINUOUS
 62
1
 10
3159.346900
 20
402.126399
 11
3094.137913
 21
403.187324
  0
LINE
  8
MountainLine
  6
CONTINUOUS
 62
5
 10
3094.137913
 20
403.187324
 11
3091.144241
 21
389.201660
  0
LINE
  8
CutLine
  6
CONTINUOUS
 62
8
 10
3096.781384
 20
415.925742
 11
3094.137913
 21
403.187324
  0
LINE
  8
CutLine
  6
CONTINUOUS
 62
8
 10
3101.248054
 20
438.919810
 11
3099.014256
 21
426.799159
  0
LINE
  8
ValleyLine
  6
CONTINUOUS
 62
1
 10
3159.346900
 20
402.126399
 11
3162.551792
 21
416.070681
  0
LINE
  8
ValleyLine
  6
CONTINUOUS
 62
1
 10
3165.876790
 20
429.642554
 11
3101.248054
 21
438.919810
  0
LINE
  8
CutLine
  6
CONTINUOUS
 62
8
 10
3162.551792
 20
416.070681
 11
3165.876790
 21
429.642554
  0
LINE
  8
ValleyLine
  6
CONTINUOUS
 62
1
 10
3150.992526
 20
332.912758
 11
3088.221556
 21
375.454012
  0
LINE
  8
MountainLine
  6
CONTINUOUS
 62
5
 10
3088.221556
 20
375.454012
 11
3150.527148
 21
311.095269
  0
LINE
  8
CutLine
  6
CONTINUOUS
 62
8
 10
3150.527148
 20
311.095269
 11
3150.992526
 21
332.912758
  0
LINE
  8
ValleyLine
  6
CONTINUOUS
 62
1
 10
3150.992526
 20
332.912758
 11
3152.007528
 21
352.853793
  0
LINE
  8
ValleyLine
  6
CONTINUOUS
 62
1
 10
3152.007528
 20
352.853793
 11
3088.221556
 21
375.454012
  0
LINE
  8
CutLine
  6
CONTINUOUS
 62
8
 10
3152.007528
 20
352.853793
 11
3153.757883
 21
370.895194
  0
LINE
  8
MountainLine
  6
CONTINUOUS
 62
5
 10
3088.221556
 20
375.454012
 11
3083.766983
 21
345.172911
  0
LINE
  8
ValleyLine
  6
CONTINUOUS
 62
1
 10
3157.380636
 20
236.825341
 11
3096.154293
 21
202.554540
  0
LINE
  8
ValleyLine
  6
CONTINUOUS
 62
1
 10
3096.154293
 20
202.554540
 11
3159.138301
 21
209.516451
  0
LINE
  8
CutLine
  6
CONTINUOUS
 62
8
 10
3159.138301
 20
209.516451
 11
3157.380636
 21
236.825341
  0
LINE
  8
ValleyLine
  6
CONTINUOUS
 62
1
 10
3154.792257
 20
262.851969
 11
3096.154293
 21
202.554540
  0
LINE
  8
ValleyLine
  6
CONTINUOUS
 62
1
 10
3157.380636
 20
236.825341
 11
3154.792257
 21
262.851969
  0
LINE
  8
CutLine
  6
CONTINUOUS
 62
8
 10
3154.792257
 20
262.851969
 11
3151.173412
 21
287.574208
  0
LINE
  8
MountainLine
  6
CONTINUOUS
 62
5
 10
3151.173412
 20
287.574208
 11
3096.154293
 21
202.554540
  0
LINE
  8
ValleyLine
  6
CONTINUOUS
 62
1
 10
3096.154293
 20
202.554540
 11
3160.382238
 21
180.353394
  0
LINE
  8
ValleyLine
  6
CONTINUOUS
 62
1
 10
3160.382238
 20
180.353394
 11
3159.138301
 21
209.516451
  0
LINE
  8
ValleyLine
  6
CONTINUOUS
 62
1
 10
3096.154293
 20
202.554540
 11
3160.629252
 21
148.534489
  0
LINE
  8
CutLine
  6
CONTINUOUS
 62
8
 10
3160.629252
 20
148.534489
 11
3160.382238
 21
180.353394
  0
LINE
  8
ValleyLine
  6
CONTINUOUS
 62
1
 10
3158.738867
 20
113.838196
 11
3096.154293
 21
202.554540
  0
LINE
  8
CutLine
  6
CONTINUOUS
 62
8
 10
3096.154293
 20
202.554540
 11
3154.605168
 21
77.078231
  0
LINE
  8
CutLine
  6
CONTINUOUS
 62
8
 10
3154.605168
 20
77.078231
 11
3158.738867
 21
113.838196
  0
LINE
  8
ValleyLine
  6
CONTINUOUS
 62
1
 10
3158.738867
 20
113.838196
 11
3160.629252
 21
148.534489
  0
LINE
  8
MountainLine
  6
CONTINUOUS
 62
5
 10
3084.070869
 20
280.550390
 11
3096.154293
 21
202.554540
  0
ENDSEC
  0
EOF
