  0
SECTION
  2
HEADER
  9
$ACADVER
  1
AC1009
  0
ENDSEC
  0
SECTION
  2
BLOCKS
  0
ENDSEC
  0
SECTION
  2
ENTITIES
  0
LINE
  8
CutLine
  6
CONTINUOUS
 62
8
 10
1477.376342
 20
431.727693
 11
1484.612994
 21
431.226393
  0
LINE
  8
CutLine
  6
CONTINUOUS
 62
8
 10
1484.612994
 20
431.226393
 11
1490.855898
 21
424.404987
  0
LINE
  8
CutLine
  6
CONTINUOUS
 62
8
 10
1490.855898
 20
424.404987
 11
1490.543090
 21
417.340841
  0
LINE
  8
CutLine
  6
CONTINUOUS
 62
8
 10
1373.123638
 20
466.785761
 11
1386.924398
 21
467.419985
  0
LINE
  8
CutLine
  6
CONTINUOUS
 62
8
 10
1386.924398
 20
467.419985
 11
1469.751188
 21
439.567018
  0
LINE
  8
CutLine
  6
CONTINUOUS
 62
8
 10
1469.751188
 20
439.567018
 11
1477.376342
 21
431.727693
  0
LINE
  8
CutLine
  6
CONTINUOUS
 62
8
 10
1394.435269
 20
112.598261
 11
1394.666060
 21
119.665562
  0
LINE
  8
CutLine
  6
CONTINUOUS
 62
8
 10
1394.666060
 20
119.665562
 11
1409.897945
 21
133.934077
  0
LINE
  8
CutLine
  6
CONTINUOUS
 62
8
 10
1409.897945
 20
133.934077
 11
1427.593911
 21
143.659721
  0
LINE
  8
CutLine
  6
CONTINUOUS
 62
8
 10
1377.247709
 20
81.127158
 11
1371.757652
 21
85.583533
  0
LINE
  8
CutLine
  6
CONTINUOUS
 62
8
 10
1371.757652
 20
85.583533
 11
1371.724074
 21
85.906634
  0
LINE
  8
CutLine
  6
CONTINUOUS
 62
8
 10
1371.724074
 20
85.906634
 11
1376.180448
 21
91.396691
  0
LINE
  8
CutLine
  6
CONTINUOUS
 62
8
 10
1376.180448
 20
91.396691
 11
1382.384575
 21
100.580330
  0
LINE
  8
CutLine
  6
CONTINUOUS
 62
8
 10
1382.384575
 20
100.580330
 11
1403.809928
 21
112.525748
  0
LINE
  8
CutLine
  6
CONTINUOUS
 62
8
 10
1448.678177
 20
192.296743
 11
1444.591997
 21
198.067630
  0
LINE
  8
CutLine
  6
CONTINUOUS
 62
8
 10
1444.591997
 20
198.067630
 11
1445.201900
 21
201.636113
  0
LINE
  8
CutLine
  6
CONTINUOUS
 62
8
 10
1445.201900
 20
201.636113
 11
1452.897968
 21
216.986347
  0
LINE
  8
CutLine
  6
CONTINUOUS
 62
8
 10
1452.897968
 20
216.986347
 11
1460.496743
 21
204.655231
  0
LINE
  8
CutLine
  6
CONTINUOUS
 62
8
 10
1460.496743
 20
204.655231
 11
1466.709216
 21
173.979055
  0
LINE
  8
CutLine
  6
CONTINUOUS
 62
8
 10
1466.709216
 20
173.979055
 11
1462.801142
 21
168.086097
  0
LINE
  8
CutLine
  6
CONTINUOUS
 62
8
 10
1453.919336
 20
138.189228
 11
1455.059074
 21
131.210618
  0
LINE
  8
CutLine
  6
CONTINUOUS
 62
8
 10
1455.059074
 20
131.210618
 11
1433.265061
 21
100.908297
  0
LINE
  8
CutLine
  6
CONTINUOUS
 62
8
 10
1433.265061
 20
100.908297
 11
1426.286451
 21
99.768559
  0
LINE
  8
CutLine
  6
CONTINUOUS
 62
8
 10
1427.593911
 20
143.659721
 11
1425.707152
 21
150.474421
  0
LINE
  8
CutLine
  6
CONTINUOUS
 62
8
 10
1425.707152
 20
150.474421
 11
1434.495089
 21
165.991624
  0
LINE
  8
CutLine
  6
CONTINUOUS
 62
8
 10
1434.495089
 20
165.991624
 11
1441.309789
 21
167.878383
  0
LINE
  8
CutLine
  6
CONTINUOUS
 62
8
 10
1205.683755
 20
255.696466
 11
1203.200000
 21
264.345854
  0
LINE
  8
CutLine
  6
CONTINUOUS
 62
8
 10
1203.200000
 20
268.378422
 11
1216.470790
 21
332.566143
  0
LINE
  8
CutLine
  6
CONTINUOUS
 62
8
 10
1216.470790
 20
332.566143
 11
1222.379574
 21
336.450250
  0
LINE
  8
CutLine
  6
CONTINUOUS
 62
8
 10
1243.862776
 20
194.231786
 11
1242.863835
 21
187.231635
  0
LINE
  8
CutLine
  6
CONTINUOUS
 62
8
 10
1242.863835
 20
187.231635
 11
1211.529769
 21
163.723679
  0
LINE
  8
CutLine
  6
CONTINUOUS
 62
8
 10
1211.529769
 20
163.723679
 11
1204.529618
 21
164.722620
  0
LINE
  8
CutLine
  6
CONTINUOUS
 62
8
 10
1366.479365
 20
227.438857
 11
1364.074202
 21
234.088307
  0
LINE
  8
CutLine
  6
CONTINUOUS
 62
8
 10
1364.074202
 20
234.088307
 11
1373.067120
 21
253.273481
  0
LINE
  8
CutLine
  6
CONTINUOUS
 62
8
 10
1373.067120
 20
253.273481
 11
1379.716571
 21
255.678644
  0
LINE
  8
CutLine
  6
CONTINUOUS
 62
8
 10
1373.718264
 20
183.712788
 11
1372.917709
 21
176.687184
  0
LINE
  8
CutLine
  6
CONTINUOUS
 62
8
 10
1372.917709
 20
176.687184
 11
1344.939987
 21
154.433262
  0
LINE
  8
CutLine
  6
CONTINUOUS
 62
8
 10
1344.939987
 20
154.433262
 11
1337.914383
 21
155.233816
  0
LINE
  8
CutLine
  6
CONTINUOUS
 62
8
 10
1398.203049
 20
243.737548
 11
1402.018639
 21
237.784291
  0
LINE
  8
CutLine
  6
CONTINUOUS
 62
8
 10
1402.018639
 20
237.784291
 11
1397.892018
 21
218.926203
  0
LINE
  8
CutLine
  6
CONTINUOUS
 62
8
 10
1397.892018
 20
218.926203
 11
1391.938761
 21
215.110613
  0
LINE
  8
CutLine
  6
CONTINUOUS
 62
8
 10
1370.360619
 20
304.686536
 11
1380.505661
 21
297.511165
  0
LINE
  8
CutLine
  6
CONTINUOUS
 62
8
 10
1380.505661
 20
297.511165
 11
1391.418247
 21
279.351054
  0
LINE
  8
CutLine
  6
CONTINUOUS
 62
8
 10
1391.418247
 20
279.351054
 11
1389.707848
 21
272.489965
  0
LINE
  8
CutLine
  6
CONTINUOUS
 62
8
 10
1299.498058
 20
137.101469
 11
1296.427480
 21
130.731890
  0
LINE
  8
CutLine
  6
CONTINUOUS
 62
8
 10
1296.427480
 20
130.731890
 11
1261.892575
 21
118.663161
  0
LINE
  8
CutLine
  6
CONTINUOUS
 62
8
 10
1261.892575
 20
118.663161
 11
1255.522995
 21
121.733739
  0
LINE
  8
CutLine
  6
CONTINUOUS
 62
8
 10
1278.223701
 20
196.543513
 11
1292.215573
 21
201.526102
  0
LINE
  8
CutLine
  6
CONTINUOUS
 62
8
 10
1292.215573
 20
201.526102
 11
1325.692255
 21
201.484436
  0
LINE
  8
CutLine
  6
CONTINUOUS
 62
8
 10
1325.692255
 20
201.484436
 11
1330.686028
 21
196.478217
  0
LINE
  8
CutLine
  6
CONTINUOUS
 62
8
 10
1406.693973
 20
182.920622
 11
1407.863942
 21
175.947016
  0
LINE
  8
CutLine
  6
CONTINUOUS
 62
8
 10
1407.863942
 20
175.947016
 11
1374.654584
 21
129.348150
  0
LINE
  8
CutLine
  6
CONTINUOUS
 62
8
 10
1374.654584
 20
129.348150
 11
1367.680978
 21
128.178181
  0
LINE
  8
CutLine
  6
CONTINUOUS
 62
8
 10
1224.220974
 20
95.951020
 11
1229.970069
 21
100.067804
  0
LINE
  8
CutLine
  6
CONTINUOUS
 62
8
 10
1229.970069
 20
100.067804
 11
1245.267973
 21
97.536763
  0
LINE
  8
CutLine
  6
CONTINUOUS
 62
8
 10
1245.267973
 20
97.536763
 11
1249.384756
 21
91.787668
  0
LINE
  8
CutLine
  6
CONTINUOUS
 62
8
 10
1274.770048
 20
68.898661
 11
1271.937880
 21
67.258928
  0
LINE
  8
CutLine
  6
CONTINUOUS
 62
8
 10
1338.740079
 20
93.148552
 11
1337.213957
 21
86.244137
  0
LINE
  8
CutLine
  6
CONTINUOUS
 62
8
 10
1337.213957
 20
86.244137
 11
1318.065838
 21
74.028522
  0
LINE
  8
CutLine
  6
CONTINUOUS
 62
8
 10
1318.065838
 20
74.028522
 11
1311.161423
 21
75.554644
  0
LINE
  8
CutLine
  6
CONTINUOUS
 62
8
 10
1236.924601
 20
48.188177
 11
1229.409624
 21
49.725970
  0
LINE
  8
CutLine
  6
CONTINUOUS
 62
8
 10
1229.409624
 20
49.725970
 11
1217.675677
 21
64.877611
  0
LINE
  8
CutLine
  6
CONTINUOUS
 62
8
 10
1217.675677
 20
64.877611
 11
1218.567374
 21
71.892230
  0
LINE
  8
CutLine
  6
CONTINUOUS
 62
8
 10
1274.466099
 20
66.807857
 11
1278.047047
 21
69.498024
  0
LINE
  8
CutLine
  6
CONTINUOUS
 62
8
 10
1283.744522
 20
70.540092
 11
1306.547099
 21
67.301097
  0
LINE
  8
CutLine
  6
CONTINUOUS
 62
8
 10
1306.547099
 20
67.301097
 11
1311.093490
 21
61.605114
  0
LINE
  8
CutLine
  6
CONTINUOUS
 62
8
 10
1294.427853
 20
16.764498
 11
1287.863370
 21
14.136274
  0
LINE
  8
CutLine
  6
CONTINUOUS
 62
8
 10
1287.863370
 20
14.136274
 11
1263.550041
 21
24.547087
  0
LINE
  8
CutLine
  6
CONTINUOUS
 62
8
 10
1263.550041
 20
24.547087
 11
1260.921817
 21
31.111570
  0
LINE
  8
CutLine
  6
CONTINUOUS
 62
8
 10
1382.166066
 20
9.580488
 11
1377.105382
 21
4.641918
  0
LINE
  8
CutLine
  6
CONTINUOUS
 62
8
 10
1377.105382
 20
4.641918
 11
1344.627267
 21
5.038549
  0
LINE
  8
CutLine
  6
CONTINUOUS
 62
8
 10
1344.627267
 20
5.038549
 11
1339.688696
 21
10.099233
  0
LINE
  8
CutLine
  6
CONTINUOUS
 62
8
 10
1490.505704
 20
9.104759
 11
1485.370152
 21
4.244090
  0
LINE
  8
CutLine
  6
CONTINUOUS
 62
8
 10
1485.370152
 20
4.244090
 11
1435.520817
 21
5.614884
  0
LINE
  8
CutLine
  6
CONTINUOUS
 62
8
 10
1435.520817
 20
5.614884
 11
1428.732983
 21
10.803431
  0
LINE
  8
CutLine
  6
CONTINUOUS
 62
8
 10
1343.556933
 20
65.636581
 11
1348.139284
 21
71.021938
  0
LINE
  8
CutLine
  6
CONTINUOUS
 62
8
 10
1348.139284
 20
71.021938
 11
1380.511997
 21
73.629907
  0
LINE
  8
CutLine
  6
CONTINUOUS
 62
8
 10
1380.511997
 20
73.629907
 11
1388.848624
 21
69.285312
  0
LINE
  8
CutLine
  6
CONTINUOUS
 62
8
 10
1437.116175
 20
366.140335
 11
1443.853658
 21
368.286570
  0
LINE
  8
CutLine
  6
CONTINUOUS
 62
8
 10
1443.853658
 20
368.286570
 11
1479.606094
 21
349.809138
  0
LINE
  8
CutLine
  6
CONTINUOUS
 62
8
 10
1479.606094
 20
349.809138
 11
1481.752329
 21
343.071655
  0
LINE
  8
CutLine
  6
CONTINUOUS
 62
8
 10
1481.752329
 20
343.071655
 11
1484.052300
 21
336.385092
  0
LINE
  8
CutLine
  6
CONTINUOUS
 62
8
 10
1484.052300
 20
336.385092
 11
1453.482788
 21
273.759251
  0
LINE
  8
CutLine
  6
CONTINUOUS
 62
8
 10
1453.482788
 20
273.759251
 11
1446.796225
 21
271.459280
  0
LINE
  8
CutLine
  6
CONTINUOUS
 62
8
 10
1437.799601
 20
276.525157
 11
1430.997952
 21
274.591878
  0
LINE
  8
CutLine
  6
CONTINUOUS
 62
8
 10
1430.997952
 20
274.591878
 11
1371.444818
 21
307.783522
  0
LINE
  8
CutLine
  6
CONTINUOUS
 62
8
 10
1371.444818
 20
307.783522
 11
1369.511538
 21
314.585171
  0
LINE
  8
CutLine
  6
CONTINUOUS
 62
8
 10
1350.770876
 20
373.471011
 11
1353.603620
 21
379.949867
  0
LINE
  8
CutLine
  6
CONTINUOUS
 62
8
 10
1353.603620
 20
379.949867
 11
1387.964090
 21
393.404280
  0
LINE
  8
CutLine
  6
CONTINUOUS
 62
8
 10
1387.964090
 20
393.404280
 11
1394.442945
 21
390.571537
  0
LINE
  8
CutLine
  6
CONTINUOUS
 62
8
 10
1260.112429
 20
581.500317
 11
1268.594462
 21
582.455965
  0
LINE
  8
CutLine
  6
CONTINUOUS
 62
8
 10
1268.594462
 20
582.455965
 11
1299.538597
 21
564.998834
  0
LINE
  8
CutLine
  6
CONTINUOUS
 62
8
 10
1299.538597
 20
564.998834
 11
1301.436639
 21
558.187268
  0
LINE
  8
CutLine
  6
CONTINUOUS
 62
8
 10
1266.137124
 20
457.614003
 11
1244.157108
 21
454.990477
  0
LINE
  8
CutLine
  6
CONTINUOUS
 62
8
 10
1244.157108
 20
454.990477
 11
1238.599757
 21
459.362645
  0
LINE
  8
CutLine
  6
CONTINUOUS
 62
8
 10
1238.599757
 20
459.362645
 11
1231.550337
 21
459.992401
  0
LINE
  8
CutLine
  6
CONTINUOUS
 62
8
 10
1231.550337
 20
459.992401
 11
1205.392109
 21
491.225121
  0
LINE
  8
CutLine
  6
CONTINUOUS
 62
8
 10
1205.392109
 20
491.225121
 11
1206.014901
 21
498.268709
  0
LINE
  8
CutLine
  6
CONTINUOUS
 62
8
 10
1433.648857
 20
537.581542
 11
1439.592877
 21
533.751578
  0
LINE
  8
CutLine
  6
CONTINUOUS
 62
8
 10
1439.592877
 20
533.751578
 11
1449.614336
 21
487.419071
  0
LINE
  8
CutLine
  6
CONTINUOUS
 62
8
 10
1449.614336
 20
487.419071
 11
1445.784372
 21
481.475051
  0
LINE
  8
CutLine
  6
CONTINUOUS
 62
8
 10
1445.784372
 20
481.475051
 11
1440.974059
 21
476.292302
  0
LINE
  8
CutLine
  6
CONTINUOUS
 62
8
 10
1440.974059
 20
476.292302
 11
1400.801011
 21
474.795078
  0
LINE
  8
CutLine
  6
CONTINUOUS
 62
8
 10
1400.801011
 20
474.795078
 11
1395.618262
 21
479.605392
  0
LINE
  8
CutLine
  6
CONTINUOUS
 62
8
 10
1321.350634
 20
601.252584
 11
1332.318209
 21
594.693728
  0
LINE
  8
CutLine
  6
CONTINUOUS
 62
8
 10
1332.318209
 20
594.693728
 11
1380.915455
 21
528.017347
  0
LINE
  8
CutLine
  6
CONTINUOUS
 62
8
 10
1380.915455
 20
528.017347
 11
1379.819845
 21
521.031673
  0
LINE
  8
CutLine
  6
CONTINUOUS
 62
8
 10
1345.388458
 20
478.062823
 11
1352.354220
 21
476.847031
  0
LINE
  8
CutLine
  6
CONTINUOUS
 62
8
 10
1352.354220
 20
476.847031
 11
1375.378516
 21
444.086081
  0
LINE
  8
CutLine
  6
CONTINUOUS
 62
8
 10
1375.378516
 20
444.086081
 11
1374.162724
 21
437.120319
  0
LINE
  8
CutLine
  6
CONTINUOUS
 62
8
 10
1276.387453
 20
280.623036
 11
1269.548441
 21
282.419676
  0
LINE
  8
CutLine
  6
CONTINUOUS
 62
8
 10
1269.548441
 20
282.419676
 11
1231.554105
 21
347.489428
  0
LINE
  8
CutLine
  6
CONTINUOUS
 62
8
 10
1231.554105
 20
347.489428
 11
1233.350745
 21
354.328440
  0
LINE
  8
CutLine
  6
CONTINUOUS
 62
8
 10
1353.927707
 20
401.503524
 11
1354.571202
 21
394.461798
  0
LINE
  8
CutLine
  6
CONTINUOUS
 62
8
 10
1354.571202
 20
394.461798
 11
1311.697940
 21
342.964683
  0
LINE
  8
CutLine
  6
CONTINUOUS
 62
8
 10
1311.697940
 20
342.964683
 11
1304.656213
 21
342.321189
  0
LINE
  8
CutLine
  6
CONTINUOUS
 62
8
 10
1304.656213
 20
342.321189
 11
1317.280072
 21
335.289588
  0
LINE
  8
CutLine
  6
CONTINUOUS
 62
8
 10
1317.280072
 20
335.289588
 11
1368.530475
 21
275.574549
  0
LINE
  8
CutLine
  6
CONTINUOUS
 62
8
 10
1368.530475
 20
275.574549
 11
1367.992645
 21
268.523964
  0
LINE
  8
CutLine
  6
CONTINUOUS
 62
8
 10
1388.588248
 20
562.243050
 11
1385.317893
 21
568.512402
  0
LINE
  8
CutLine
  6
CONTINUOUS
 62
8
 10
1385.317893
 20
568.512402
 11
1394.954830
 21
599.167167
  0
LINE
  8
CutLine
  6
CONTINUOUS
 62
8
 10
1394.954830
 20
599.167167
 11
1401.224183
 21
602.437522
  0
LINE
  8
CutLine
  6
CONTINUOUS
 62
8
 10
1444.855839
 20
576.519704
 11
1453.427717
 21
575.682835
  0
LINE
  8
CutLine
  6
CONTINUOUS
 62
8
 10
1453.427717
 20
575.682835
 11
1491.878824
 21
542.181370
  0
LINE
  8
CutLine
  6
CONTINUOUS
 62
8
 10
1491.878824
 20
542.181370
 11
1493.923159
 21
533.768604
  0
LINE
  8
CutLine
  6
CONTINUOUS
 62
8
 10
1503.965414
 20
151.078774
 11
1504.000000
 21
151.365318
  0
LINE
  8
ValleyLine
  6
CONTINUOUS
 62
1
 10
1477.376342
 20
431.727693
 11
1448.881449
 21
405.807994
  0
LINE
  8
CutLine
  6
CONTINUOUS
 62
8
 10
1448.881449
 20
405.807994
 11
1490.543090
 21
417.340841
  0
LINE
  8
MountainLine
  6
CONTINUOUS
 62
5
 10
1490.543090
 20
417.340841
 11
1477.376342
 21
431.727693
  0
LINE
  8
ValleyLine
  6
CONTINUOUS
 62
1
 10
1477.376342
 20
431.727693
 11
1373.123638
 21
466.785761
  0
LINE
  8
CutLine
  6
CONTINUOUS
 62
8
 10
1373.123638
 20
466.785761
 11
1448.881449
 21
405.807994
  0
LINE
  8
ValleyLine
  6
CONTINUOUS
 62
1
 10
1413.937116
 20
112.447414
 11
1427.593911
 21
143.659721
  0
LINE
  8
ValleyLine
  6
CONTINUOUS
 62
1
 10
1427.593911
 20
143.659721
 11
1394.435269
 21
112.598261
  0
LINE
  8
CutLine
  6
CONTINUOUS
 62
8
 10
1394.435269
 20
112.598261
 11
1413.937116
 21
112.447414
  0
LINE
  8
MountainLine
  6
CONTINUOUS
 62
5
 10
1376.180448
 20
91.396691
 11
1377.247709
 21
81.127158
  0
LINE
  8
MountainLine
  6
CONTINUOUS
 62
5
 10
1377.247709
 20
81.127158
 11
1413.937116
 21
112.447414
  0
LINE
  8
ValleyLine
  6
CONTINUOUS
 62
1
 10
1413.937116
 20
112.447414
 11
1376.180448
 21
91.396691
  0
LINE
  8
MountainLine
  6
CONTINUOUS
 62
5
 10
1462.801142
 20
168.086097
 11
1448.678177
 21
192.296743
  0
LINE
  8
CutLine
  6
CONTINUOUS
 62
8
 10
1448.678177
 20
192.296743
 11
1441.309789
 21
167.878383
  0
LINE
  8
MountainLine
  6
CONTINUOUS
 62
5
 10
1441.309789
 20
167.878383
 11
1462.801142
 21
168.086097
  0
LINE
  8
ValleyLine
  6
CONTINUOUS
 62
1
 10
1452.897968
 20
216.986347
 11
1448.678177
 21
192.296743
  0
LINE
  8
ValleyLine
  6
CONTINUOUS
 62
1
 10
1462.801142
 20
168.086097
 11
1452.897968
 21
216.986347
  0
LINE
  8
MountainLine
  6
CONTINUOUS
 62
5
 10
1426.286451
 20
99.768559
 11
1427.593911
 21
143.659721
  0
LINE
  8
MountainLine
  6
CONTINUOUS
 62
5
 10
1413.937116
 20
112.447414
 11
1426.286451
 21
99.768559
  0
LINE
  8
CutLine
  6
CONTINUOUS
 62
8
 10
1377.247709
 20
81.127158
 11
1426.286451
 21
99.768559
  0
LINE
  8
MountainLine
  6
CONTINUOUS
 62
5
 10
1453.919336
 20
138.189228
 11
1427.593911
 21
143.659721
  0
LINE
  8
ValleyLine
  6
CONTINUOUS
 62
1
 10
1426.286451
 20
99.768559
 11
1453.919336
 21
138.189228
  0
LINE
  8
CutLine
  6
CONTINUOUS
 62
8
 10
1453.919336
 20
138.189228
 11
1462.801142
 21
168.086097
  0
LINE
  8
ValleyLine
  6
CONTINUOUS
 62
1
 10
1441.309789
 20
167.878383
 11
1427.593911
 21
143.659721
  0
LINE
  8
CutLine
  6
CONTINUOUS
 62
8
 10
1243.862776
 20
194.231786
 11
1282.712196
 21
226.095131
  0
LINE
  8
CutLine
  6
CONTINUOUS
 62
8
 10
1282.712196
 20
226.095131
 11
1222.379574
 21
336.450250
  0
LINE
  8
MountainLine
  6
CONTINUOUS
 62
5
 10
1222.379574
 20
336.450250
 11
1205.683755
 21
255.696466
  0
LINE
  8
CutLine
  6
CONTINUOUS
 62
8
 10
1205.683755
 20
255.696466
 11
1204.529618
 21
164.722620
  0
LINE
  8
ValleyLine
  6
CONTINUOUS
 62
1
 10
1204.529618
 20
164.722620
 11
1243.862776
 21
194.231786
  0
LINE
  8
ValleyLine
  6
CONTINUOUS
 62
1
 10
1379.716571
 20
255.678644
 11
1366.479365
 21
227.438857
  0
LINE
  8
MountainLine
  6
CONTINUOUS
 62
5
 10
1330.686028
 20
196.478217
 11
1337.914383
 21
155.233816
  0
LINE
  8
ValleyLine
  6
CONTINUOUS
 62
1
 10
1337.914383
 20
155.233816
 11
1373.718264
 21
183.712788
  0
LINE
  8
CutLine
  6
CONTINUOUS
 62
8
 10
1366.479365
 20
227.438857
 11
1330.686028
 21
196.478217
  0
LINE
  8
ValleyLine
  6
CONTINUOUS
 62
1
 10
1391.938761
 20
215.110613
 11
1398.203049
 21
243.737548
  0
LINE
  8
CutLine
  6
CONTINUOUS
 62
8
 10
1373.718264
 20
183.712788
 11
1391.938761
 21
215.110613
  0
LINE
  8
ValleyLine
  6
CONTINUOUS
 62
1
 10
1389.707848
 20
272.489965
 11
1370.360619
 21
304.686536
  0
LINE
  8
CutLine
  6
CONTINUOUS
 62
8
 10
1370.360619
 20
304.686536
 11
1379.716571
 21
255.678644
  0
LINE
  8
CutLine
  6
CONTINUOUS
 62
8
 10
1398.203049
 20
243.737548
 11
1389.707848
 21
272.489965
  0
LINE
  8
CutLine
  6
CONTINUOUS
 62
8
 10
1299.498058
 20
137.101469
 11
1337.914383
 21
155.233816
  0
LINE
  8
ValleyLine
  6
CONTINUOUS
 62
1
 10
1337.914383
 20
155.233816
 11
1278.223701
 21
196.543513
  0
LINE
  8
CutLine
  6
CONTINUOUS
 62
8
 10
1278.223701
 20
196.543513
 11
1255.522995
 21
121.733739
  0
LINE
  8
ValleyLine
  6
CONTINUOUS
 62
1
 10
1255.522995
 20
121.733739
 11
1299.498058
 21
137.101469
  0
LINE
  8
ValleyLine
  6
CONTINUOUS
 62
1
 10
1330.686028
 20
196.478217
 11
1278.223701
 21
196.543513
  0
LINE
  8
ValleyLine
  6
CONTINUOUS
 62
1
 10
1367.680978
 20
128.178181
 11
1406.693973
 21
182.920622
  0
LINE
  8
CutLine
  6
CONTINUOUS
 62
8
 10
1406.693973
 20
182.920622
 11
1314.770152
 21
122.524383
  0
LINE
  8
MountainLine
  6
CONTINUOUS
 62
5
 10
1314.770152
 20
122.524383
 11
1367.680978
 21
128.178181
  0
LINE
  8
ValleyLine
  6
CONTINUOUS
 62
1
 10
1249.384756
 20
91.787668
 11
1224.220974
 21
95.951020
  0
LINE
  8
MountainLine
  6
CONTINUOUS
 62
5
 10
1242.157158
 20
72.572237
 11
1249.384756
 21
91.787668
  0
LINE
  8
CutLine
  6
CONTINUOUS
 62
8
 10
1224.220974
 20
95.951020
 11
1203.200000
 21
104.123715
  0
LINE
  8
ValleyLine
  6
CONTINUOUS
 62
1
 10
1203.200000
 20
103.200021
 11
1242.157158
 21
72.572237
  0
LINE
  8
ValleyLine
  6
CONTINUOUS
 62
1
 10
1274.770048
 20
68.898661
 11
1249.384756
 21
91.787668
  0
LINE
  8
ValleyLine
  6
CONTINUOUS
 62
1
 10
1242.157158
 20
72.572237
 11
1274.770048
 21
68.898661
  0
LINE
  8
CutLine
  6
CONTINUOUS
 62
8
 10
1314.770152
 20
122.524383
 11
1276.511425
 21
98.017658
  0
LINE
  8
ValleyLine
  6
CONTINUOUS
 62
1
 10
1276.511425
 20
98.017658
 11
1367.680978
 21
128.178181
  0
LINE
  8
MountainLine
  6
CONTINUOUS
 62
5
 10
1276.511425
 20
98.017658
 11
1311.161423
 21
75.554644
  0
LINE
  8
ValleyLine
  6
CONTINUOUS
 62
1
 10
1311.161423
 20
75.554644
 11
1338.740079
 21
93.148552
  0
LINE
  8
ValleyLine
  6
CONTINUOUS
 62
1
 10
1338.740079
 20
93.148552
 11
1276.511425
 21
98.017658
  0
LINE
  8
CutLine
  6
CONTINUOUS
 62
8
 10
1338.740079
 20
93.148552
 11
1367.680978
 21
128.178181
  0
LINE
  8
MountainLine
  6
CONTINUOUS
 62
5
 10
1276.511425
 20
98.017658
 11
1274.770048
 21
68.898661
  0
LINE
  8
CutLine
  6
CONTINUOUS
 62
8
 10
1274.770048
 20
68.898661
 11
1311.161423
 21
75.554644
  0
LINE
  8
CutLine
  6
CONTINUOUS
 62
8
 10
1276.511425
 20
98.017658
 11
1249.384756
 21
91.787668
  0
LINE
  8
ValleyLine
  6
CONTINUOUS
 62
1
 10
1242.157158
 20
72.572237
 11
1218.567374
 21
71.892230
  0
LINE
  8
ValleyLine
  6
CONTINUOUS
 62
1
 10
1218.567374
 20
71.892230
 11
1236.924601
 21
48.188177
  0
LINE
  8
ValleyLine
  6
CONTINUOUS
 62
1
 10
1236.924601
 20
48.188177
 11
1242.157158
 21
72.572237
  0
LINE
  8
CutLine
  6
CONTINUOUS
 62
8
 10
1274.466099
 20
66.807857
 11
1242.157158
 21
72.572237
  0
LINE
  8
ValleyLine
  6
CONTINUOUS
 62
1
 10
1236.924601
 20
48.188177
 11
1274.466099
 21
66.807857
  0
LINE
  8
ValleyLine
  6
CONTINUOUS
 62
1
 10
1274.466099
 20
66.807857
 11
1276.649301
 21
55.753738
  0
LINE
  8
ValleyLine
  6
CONTINUOUS
 62
1
 10
1276.649301
 20
55.753738
 11
1311.093490
 21
61.605114
  0
LINE
  8
ValleyLine
  6
CONTINUOUS
 62
1
 10
1311.093490
 20
61.605114
 11
1274.466099
 21
66.807857
  0
LINE
  8
ValleyLine
  6
CONTINUOUS
 62
1
 10
1294.427853
 20
16.764498
 11
1311.093490
 21
61.605114
  0
LINE
  8
CutLine
  6
CONTINUOUS
 62
8
 10
1236.924601
 20
48.188177
 11
1260.921817
 21
31.111570
  0
LINE
  8
ValleyLine
  6
CONTINUOUS
 62
1
 10
1260.921817
 20
31.111570
 11
1276.649301
 21
55.753738
  0
LINE
  8
ValleyLine
  6
CONTINUOUS
 62
1
 10
1260.921817
 20
31.111570
 11
1294.427853
 21
16.764498
  0
LINE
  8
CutLine
  6
CONTINUOUS
 62
8
 10
1343.556933
 20
65.636581
 11
1311.093490
 21
61.605114
  0
LINE
  8
ValleyLine
  6
CONTINUOUS
 62
1
 10
1339.688696
 20
10.099233
 11
1343.556933
 21
65.636581
  0
LINE
  8
CutLine
  6
CONTINUOUS
 62
8
 10
1294.427853
 20
16.764498
 11
1339.688696
 21
10.099233
  0
LINE
  8
MountainLine
  6
CONTINUOUS
 62
5
 10
1388.848624
 20
69.285312
 11
1339.688696
 21
10.099233
  0
LINE
  8
ValleyLine
  6
CONTINUOUS
 62
1
 10
1339.688696
 20
10.099233
 11
1382.166066
 21
9.580488
  0
LINE
  8
ValleyLine
  6
CONTINUOUS
 62
1
 10
1382.166066
 20
9.580488
 11
1388.848624
 21
69.285312
  0
LINE
  8
ValleyLine
  6
CONTINUOUS
 62
1
 10
1428.732983
 20
10.803431
 11
1388.848624
 21
69.285312
  0
LINE
  8
CutLine
  6
CONTINUOUS
 62
8
 10
1382.166066
 20
9.580488
 11
1428.732983
 21
10.803431
  0
LINE
  8
MountainLine
  6
CONTINUOUS
 62
5
 10
1428.732983
 20
10.803431
 11
1455.539415
 21
77.716621
  0
LINE
  8
CutLine
  6
CONTINUOUS
 62
8
 10
1455.539415
 20
77.716621
 11
1388.848624
 21
69.285312
  0
LINE
  8
ValleyLine
  6
CONTINUOUS
 62
1
 10
1428.732983
 20
10.803431
 11
1490.505704
 21
9.104759
  0
LINE
  8
CutLine
  6
CONTINUOUS
 62
8
 10
1490.505704
 20
9.104759
 11
1455.539415
 21
77.716621
  0
LINE
  8
ValleyLine
  6
CONTINUOUS
 62
1
 10
1388.848624
 20
69.285312
 11
1343.556933
 21
65.636581
  0
LINE
  8
CutLine
  6
CONTINUOUS
 62
8
 10
1203.200000
 20
100.674112
 11
1218.567374
 21
71.892230
  0
LINE
  8
ValleyLine
  6
CONTINUOUS
 62
1
 10
1481.752329
 20
343.071655
 11
1437.116175
 21
366.140335
  0
LINE
  8
MountainLine
  6
CONTINUOUS
 62
5
 10
1437.116175
 20
366.140335
 11
1437.799601
 21
276.525157
  0
LINE
  8
ValleyLine
  6
CONTINUOUS
 62
1
 10
1437.799601
 20
276.525157
 11
1481.752329
 21
343.071655
  0
LINE
  8
MountainLine
  6
CONTINUOUS
 62
5
 10
1446.796225
 20
271.459280
 11
1481.752329
 21
343.071655
  0
LINE
  8
CutLine
  6
CONTINUOUS
 62
8
 10
1437.799601
 20
276.525157
 11
1446.796225
 21
271.459280
  0
LINE
  8
ValleyLine
  6
CONTINUOUS
 62
1
 10
1437.116175
 20
366.140335
 11
1369.511538
 21
314.585171
  0
LINE
  8
MountainLine
  6
CONTINUOUS
 62
5
 10
1369.511538
 20
314.585171
 11
1437.799601
 21
276.525157
  0
LINE
  8
CutLine
  6
CONTINUOUS
 62
8
 10
1437.116175
 20
366.140335
 11
1394.442945
 21
390.571537
  0
LINE
  8
ValleyLine
  6
CONTINUOUS
 62
1
 10
1394.442945
 20
390.571537
 11
1369.511538
 21
314.585171
  0
LINE
  8
CutLine
  6
CONTINUOUS
 62
8
 10
1350.770876
 20
373.471011
 11
1369.511538
 21
314.585171
  0
LINE
  8
MountainLine
  6
CONTINUOUS
 62
5
 10
1394.442945
 20
390.571537
 11
1350.770876
 21
373.471011
  0
LINE
  8
ValleyLine
  6
CONTINUOUS
 62
1
 10
1278.292357
 20
464.100337
 11
1301.436639
 21
558.187268
  0
LINE
  8
ValleyLine
  6
CONTINUOUS
 62
1
 10
1301.436639
 20
558.187268
 11
1260.112429
 21
581.500317
  0
LINE
  8
ValleyLine
  6
CONTINUOUS
 62
1
 10
1260.112429
 20
581.500317
 11
1278.292357
 21
464.100337
  0
LINE
  8
MountainLine
  6
CONTINUOUS
 62
5
 10
1238.599757
 20
459.362645
 11
1278.292357
 21
464.100337
  0
LINE
  8
ValleyLine
  6
CONTINUOUS
 62
1
 10
1260.112429
 20
581.500317
 11
1238.599757
 21
459.362645
  0
LINE
  8
MountainLine
  6
CONTINUOUS
 62
5
 10
1278.292357
 20
464.100337
 11
1345.388458
 21
478.062823
  0
LINE
  8
ValleyLine
  6
CONTINUOUS
 62
1
 10
1345.388458
 20
478.062823
 11
1301.436639
 21
558.187268
  0
LINE
  8
CutLine
  6
CONTINUOUS
 62
8
 10
1260.112429
 20
581.500317
 11
1206.014901
 21
498.268709
  0
LINE
  8
MountainLine
  6
CONTINUOUS
 62
5
 10
1206.014901
 20
498.268709
 11
1238.599757
 21
459.362645
  0
LINE
  8
ValleyLine
  6
CONTINUOUS
 62
1
 10
1433.648857
 20
537.581542
 11
1388.588248
 21
562.243050
  0
LINE
  8
CutLine
  6
CONTINUOUS
 62
8
 10
1388.588248
 20
562.243050
 11
1379.819845
 21
521.031673
  0
LINE
  8
MountainLine
  6
CONTINUOUS
 62
5
 10
1379.819845
 20
521.031673
 11
1433.648857
 21
537.581542
  0
LINE
  8
ValleyLine
  6
CONTINUOUS
 62
1
 10
1345.388458
 20
478.062823
 11
1321.350634
 21
601.252584
  0
LINE
  8
CutLine
  6
CONTINUOUS
 62
8
 10
1321.350634
 20
601.252584
 11
1301.436639
 21
558.187268
  0
LINE
  8
ValleyLine
  6
CONTINUOUS
 62
1
 10
1445.784372
 20
481.475051
 11
1433.648857
 21
537.581542
  0
LINE
  8
ValleyLine
  6
CONTINUOUS
 62
1
 10
1379.819845
 20
521.031673
 11
1445.784372
 21
481.475051
  0
LINE
  8
ValleyLine
  6
CONTINUOUS
 62
1
 10
1395.618262
 20
479.605392
 11
1445.784372
 21
481.475051
  0
LINE
  8
MountainLine
  6
CONTINUOUS
 62
5
 10
1379.819845
 20
521.031673
 11
1345.388458
 21
478.062823
  0
LINE
  8
CutLine
  6
CONTINUOUS
 62
8
 10
1345.388458
 20
478.062823
 11
1395.618262
 21
479.605392
  0
LINE
  8
ValleyLine
  6
CONTINUOUS
 62
1
 10
1379.819845
 20
521.031673
 11
1321.350634
 21
601.252584
  0
LINE
  8
ValleyLine
  6
CONTINUOUS
 62
1
 10
1353.927707
 20
401.503524
 11
1374.162724
 21
437.120319
  0
LINE
  8
ValleyLine
  6
CONTINUOUS
 62
1
 10
1374.162724
 20
437.120319
 11
1345.388458
 21
478.062823
  0
LINE
  8
ValleyLine
  6
CONTINUOUS
 62
1
 10
1345.388458
 20
478.062823
 11
1353.927707
 21
401.503524
  0
LINE
  8
CutLine
  6
CONTINUOUS
 62
8
 10
1353.927707
 20
401.503524
 11
1400.403029
 21
395.200985
  0
LINE
  8
CutLine
  6
CONTINUOUS
 62
8
 10
1400.403029
 20
395.200985
 11
1374.162724
 21
437.120319
  0
LINE
  8
ValleyLine
  6
CONTINUOUS
 62
1
 10
1233.350745
 20
354.328440
 11
1353.927707
 21
401.503524
  0
LINE
  8
ValleyLine
  6
CONTINUOUS
 62
1
 10
1353.927707
 20
401.503524
 11
1278.292357
 21
464.100337
  0
LINE
  8
MountainLine
  6
CONTINUOUS
 62
5
 10
1276.387453
 20
280.623036
 11
1304.656213
 21
342.321189
  0
LINE
  8
ValleyLine
  6
CONTINUOUS
 62
1
 10
1233.350745
 20
354.328440
 11
1276.387453
 21
280.623036
  0
LINE
  8
MountainLine
  6
CONTINUOUS
 62
5
 10
1304.656213
 20
342.321189
 11
1353.927707
 21
401.503524
  0
LINE
  8
CutLine
  6
CONTINUOUS
 62
8
 10
1203.200000
 20
411.463391
 11
1233.350745
 21
354.328440
  0
LINE
  8
CutLine
  6
CONTINUOUS
 62
8
 10
1278.292357
 20
464.100337
 11
1203.200000
 21
424.029189
  0
LINE
  8
CutLine
  6
CONTINUOUS
 62
8
 10
1306.987961
 20
207.224350
 11
1367.992645
 21
268.523964
  0
LINE
  8
ValleyLine
  6
CONTINUOUS
 62
1
 10
1367.992645
 20
268.523964
 11
1276.387453
 21
280.623036
  0
LINE
  8
CutLine
  6
CONTINUOUS
 62
8
 10
1276.387453
 20
280.623036
 11
1306.987961
 21
207.224350
  0
LINE
  8
MountainLine
  6
CONTINUOUS
 62
5
 10
1367.992645
 20
268.523964
 11
1304.656213
 21
342.321189
  0
LINE
  8
ValleyLine
  6
CONTINUOUS
 62
1
 10
1388.588248
 20
562.243050
 11
1444.855839
 21
576.519704
  0
LINE
  8
CutLine
  6
CONTINUOUS
 62
8
 10
1444.855839
 20
576.519704
 11
1401.224183
 21
602.437522
  0
LINE
  8
ValleyLine
  6
CONTINUOUS
 62
1
 10
1401.224183
 20
602.437522
 11
1388.588248
 21
562.243050
  0
LINE
  8
MountainLine
  6
CONTINUOUS
 62
5
 10
1493.923159
 20
533.768604
 11
1444.855839
 21
576.519704
  0
LINE
  8
CutLine
  6
CONTINUOUS
 62
8
 10
1433.648857
 20
537.581542
 11
1493.923159
 21
533.768604
  0
LINE
  8
MountainLine
  6
CONTINUOUS
 62
5
 10
1504.000000
 20
151.105910
 11
1503.965414
 21
151.078774
  0
LINE
  8
CutLine
  6
CONTINUOUS
 62
8
 10
1503.965414
 20
151.078774
 11
1504.000000
 21
151.039658
  0
ENDSEC
  0
EOF
