  0
SECTION
  2
HEADER
  9
$ACADVER
  1
AC1009
  0
ENDSEC
  0
SECTION
  2
BLOCKS
  0
ENDSEC
  0
SECTION
  2
ENTITIES
  0
LINE
  8
CutLine
  6
CONTINUOUS
 62
8
 10
1203.200000
 20
264.345854
 11
1202.715267
 21
266.033880
  0
LINE
  8
CutLine
  6
CONTINUOUS
 62
8
 10
1202.715267
 20
266.033880
 11
1203.200000
 21
268.378422
  0
LINE
  8
CutLine
  6
CONTINUOUS
 62
8
 10
1123.040579
 20
431.083397
 11
1116.425228
 21
428.585974
  0
LINE
  8
CutLine
  6
CONTINUOUS
 62
8
 10
1116.425228
 20
428.585974
 11
1040.459553
 21
462.913741
  0
LINE
  8
CutLine
  6
CONTINUOUS
 62
8
 10
1040.459553
 20
462.913741
 11
1037.962129
 21
469.529092
  0
LINE
  8
CutLine
  6
CONTINUOUS
 62
8
 10
1073.632676
 20
594.707551
 11
1080.620225
 21
593.623965
  0
LINE
  8
CutLine
  6
CONTINUOUS
 62
8
 10
1080.620225
 20
593.623965
 11
1128.203405
 21
528.574387
  0
LINE
  8
CutLine
  6
CONTINUOUS
 62
8
 10
1128.203405
 20
528.574387
 11
1127.119819
 21
521.586838
  0
LINE
  8
CutLine
  6
CONTINUOUS
 62
8
 10
1028.426619
 20
555.067673
 11
1030.915016
 21
563.899680
  0
LINE
  8
CutLine
  6
CONTINUOUS
 62
8
 10
1030.915016
 20
563.899680
 11
1066.576776
 21
595.170442
  0
LINE
  8
CutLine
  6
CONTINUOUS
 62
8
 10
1066.576776
 20
595.170442
 11
1073.632676
 21
594.707551
  0
LINE
  8
CutLine
  6
CONTINUOUS
 62
8
 10
984.321390
 20
521.586838
 11
986.544488
 21
529.551864
  0
LINE
  8
CutLine
  6
CONTINUOUS
 62
8
 10
986.544488
 20
529.551864
 11
1021.420931
 21
556.027010
  0
LINE
  8
CutLine
  6
CONTINUOUS
 62
8
 10
1021.420931
 20
556.027010
 11
1028.426619
 21
555.067673
  0
LINE
  8
CutLine
  6
CONTINUOUS
 62
8
 10
1115.103767
 20
131.120535
 11
1114.997879
 21
124.050260
  0
LINE
  8
CutLine
  6
CONTINUOUS
 62
8
 10
1114.997879
 20
124.050260
 11
1068.533303
 21
78.956901
  0
LINE
  8
CutLine
  6
CONTINUOUS
 62
8
 10
1068.533303
 20
78.956901
 11
1061.463028
 21
79.062789
  0
LINE
  8
CutLine
  6
CONTINUOUS
 62
8
 10
976.384577
 20
40.617094
 11
971.164513
 21
45.386888
  0
LINE
  8
CutLine
  6
CONTINUOUS
 62
8
 10
971.164513
 20
45.386888
 11
967.631032
 21
123.781949
  0
LINE
  8
CutLine
  6
CONTINUOUS
 62
8
 10
967.631032
 20
123.781949
 11
972.305338
 21
131.120535
  0
LINE
  8
CutLine
  6
CONTINUOUS
 62
8
 10
1042.141697
 20
270.533824
 11
1038.622391
 21
276.666889
  0
LINE
  8
CutLine
  6
CONTINUOUS
 62
8
 10
1038.622391
 20
276.666889
 11
1047.979843
 21
311.223109
  0
LINE
  8
CutLine
  6
CONTINUOUS
 62
8
 10
1047.979843
 20
311.223109
 11
1060.994105
 21
340.154052
  0
LINE
  8
CutLine
  6
CONTINUOUS
 62
8
 10
1085.742291
 20
244.640821
 11
1078.930079
 21
242.745098
  0
LINE
  8
CutLine
  6
CONTINUOUS
 62
8
 10
1078.930079
 20
242.745098
 11
1075.183510
 21
244.860407
  0
LINE
  8
CutLine
  6
CONTINUOUS
 62
8
 10
1075.183510
 20
244.860407
 11
1073.287787
 21
251.672619
  0
LINE
  8
CutLine
  6
CONTINUOUS
 62
8
 10
1117.021055
 20
213.368589
 11
1109.981120
 21
214.031401
  0
LINE
  8
CutLine
  6
CONTINUOUS
 62
8
 10
1109.981120
 20
214.031401
 11
1096.839784
 21
229.904448
  0
LINE
  8
CutLine
  6
CONTINUOUS
 62
8
 10
1096.839784
 20
229.904448
 11
1097.502596
 21
236.944383
  0
LINE
  8
CutLine
  6
CONTINUOUS
 62
8
 10
1191.071018
 20
228.080576
 11
1196.178401
 21
219.020859
  0
LINE
  8
CutLine
  6
CONTINUOUS
 62
8
 10
1196.178401
 20
219.020859
 11
1196.602776
 21
183.100334
  0
LINE
  8
CutLine
  6
CONTINUOUS
 62
8
 10
1196.602776
 20
183.100334
 11
1191.662192
 21
178.041616
  0
LINE
  8
CutLine
  6
CONTINUOUS
 62
8
 10
1117.825958
 20
74.973474
 11
1114.280716
 21
81.598562
  0
LINE
  8
CutLine
  6
CONTINUOUS
 62
8
 10
1114.280716
 20
81.598562
 11
1130.301496
 21
148.010860
  0
LINE
  8
CutLine
  6
CONTINUOUS
 62
8
 10
1130.301496
 20
148.010860
 11
1136.334596
 21
151.698908
  0
LINE
  8
CutLine
  6
CONTINUOUS
 62
8
 10
1062.155416
 20
258.405044
 11
1055.216768
 21
257.043002
  0
LINE
  8
CutLine
  6
CONTINUOUS
 62
8
 10
1055.216768
 20
257.043002
 11
1054.303434
 21
257.656602
  0
LINE
  8
CutLine
  6
CONTINUOUS
 62
8
 10
1054.303434
 20
257.656602
 11
1052.941391
 21
264.595250
  0
LINE
  8
CutLine
  6
CONTINUOUS
 62
8
 10
1189.576584
 20
328.511031
 11
1194.567944
 21
320.830750
  0
LINE
  8
CutLine
  6
CONTINUOUS
 62
8
 10
1194.567944
 20
320.830750
 11
1194.525714
 21
283.304494
  0
LINE
  8
CutLine
  6
CONTINUOUS
 62
8
 10
1194.525714
 20
283.304494
 11
1189.520090
 21
278.310124
  0
LINE
  8
CutLine
  6
CONTINUOUS
 62
8
 10
1132.330257
 20
423.933295
 11
1128.263317
 21
429.717757
  0
LINE
  8
CutLine
  6
CONTINUOUS
 62
8
 10
1128.263317
 20
429.717757
 11
1141.322130
 21
504.620740
  0
LINE
  8
CutLine
  6
CONTINUOUS
 62
8
 10
1141.322130
 20
504.620740
 11
1147.106592
 21
508.687679
  0
LINE
  8
CutLine
  6
CONTINUOUS
 62
8
 10
1191.454972
 20
433.161105
 11
1196.296160
 21
428.007185
  0
LINE
  8
CutLine
  6
CONTINUOUS
 62
8
 10
1196.296160
 20
428.007185
 11
1194.941300
 21
384.704956
  0
LINE
  8
CutLine
  6
CONTINUOUS
 62
8
 10
1194.941300
 20
384.704956
 11
1189.730876
 21
378.057844
  0
LINE
  8
CutLine
  6
CONTINUOUS
 62
8
 10
1059.850027
 20
352.290241
 11
1057.919148
 21
345.487910
  0
LINE
  8
CutLine
  6
CONTINUOUS
 62
8
 10
1057.919148
 20
345.487910
 11
1055.888874
 21
344.355408
  0
LINE
  8
CutLine
  6
CONTINUOUS
 62
8
 10
1055.888874
 20
344.355408
 11
1049.086543
 21
346.286287
  0
LINE
  8
CutLine
  6
CONTINUOUS
 62
8
 10
985.318698
 20
294.671986
 11
988.633794
 21
288.426176
  0
LINE
  8
CutLine
  6
CONTINUOUS
 62
8
 10
988.633794
 20
288.426176
 11
972.625289
 21
236.201416
  0
LINE
  8
CutLine
  6
CONTINUOUS
 62
8
 10
972.625289
 20
236.201416
 11
966.379479
 21
232.886320
  0
LINE
  8
CutLine
  6
CONTINUOUS
 62
8
 10
1016.407251
 20
326.133318
 11
1015.003538
 21
319.202980
  0
LINE
  8
CutLine
  6
CONTINUOUS
 62
8
 10
1015.003538
 20
319.202980
 11
1011.624172
 21
316.961994
  0
LINE
  8
CutLine
  6
CONTINUOUS
 62
8
 10
1011.624172
 20
316.961994
 11
1004.693834
 21
318.365707
  0
LINE
  8
CutLine
  6
CONTINUOUS
 62
8
 10
1039.910225
 20
340.040320
 11
1038.260881
 21
333.164300
  0
LINE
  8
CutLine
  6
CONTINUOUS
 62
8
 10
1038.260881
 20
333.164300
 11
1035.694906
 21
331.591168
  0
LINE
  8
CutLine
  6
CONTINUOUS
 62
8
 10
1035.694906
 20
331.591168
 11
1028.818885
 21
333.240512
  0
LINE
  8
CutLine
  6
CONTINUOUS
 62
8
 10
911.180882
 20
308.934661
 11
906.306422
 21
314.057125
  0
LINE
  8
CutLine
  6
CONTINUOUS
 62
8
 10
906.306422
 20
314.057125
 11
907.304724
 21
354.298229
  0
LINE
  8
CutLine
  6
CONTINUOUS
 62
8
 10
907.304724
 20
354.298229
 11
912.427188
 21
359.172689
  0
LINE
  8
CutLine
  6
CONTINUOUS
 62
8
 10
911.523689
 20
209.442185
 11
906.460347
 21
214.378030
  0
LINE
  8
CutLine
  6
CONTINUOUS
 62
8
 10
906.460347
 20
214.378030
 11
905.957312
 21
253.829693
  0
LINE
  8
CutLine
  6
CONTINUOUS
 62
8
 10
905.957312
 20
253.829693
 11
910.893157
 21
258.893035
  0
LINE
  8
CutLine
  6
CONTINUOUS
 62
8
 10
985.353044
 20
156.274535
 11
976.080290
 21
156.790653
  0
LINE
  8
CutLine
  6
CONTINUOUS
 62
8
 10
976.080290
 20
156.790653
 11
912.659183
 21
202.462883
  0
LINE
  8
CutLine
  6
CONTINUOUS
 62
8
 10
912.659183
 20
202.462883
 11
911.523689
 21
209.442185
  0
LINE
  8
CutLine
  6
CONTINUOUS
 62
8
 10
968.732905
 20
505.139984
 11
975.784630
 21
504.617324
  0
LINE
  8
CutLine
  6
CONTINUOUS
 62
8
 10
975.784630
 20
504.617324
 11
1036.727449
 21
433.917396
  0
LINE
  8
CutLine
  6
CONTINUOUS
 62
8
 10
1036.727449
 20
433.917396
 11
1040.575785
 21
421.794867
  0
LINE
  8
CutLine
  6
CONTINUOUS
 62
8
 10
909.553319
 20
514.009090
 11
908.761487
 21
522.619478
  0
LINE
  8
CutLine
  6
CONTINUOUS
 62
8
 10
908.761487
 20
522.619478
 11
946.212997
 21
587.295532
  0
LINE
  8
CutLine
  6
CONTINUOUS
 62
8
 10
946.212997
 20
587.295532
 11
953.442887
 21
589.803206
  0
LINE
  8
MountainLine
  6
CONTINUOUS
 62
5
 10
1037.962129
 20
469.529092
 11
1123.040579
 21
431.083397
  0
LINE
  8
CutLine
  6
CONTINUOUS
 62
8
 10
1123.040579
 20
431.083397
 11
1127.119819
 21
521.586838
  0
LINE
  8
ValleyLine
  6
CONTINUOUS
 62
1
 10
1127.119819
 20
521.586838
 11
1037.962129
 21
469.529092
  0
LINE
  8
ValleyLine
  6
CONTINUOUS
 62
1
 10
1028.426619
 20
555.067673
 11
1127.119819
 21
521.586838
  0
LINE
  8
ValleyLine
  6
CONTINUOUS
 62
1
 10
1127.119819
 20
521.586838
 11
1073.632676
 21
594.707551
  0
LINE
  8
MountainLine
  6
CONTINUOUS
 62
5
 10
1073.632676
 20
594.707551
 11
1028.426619
 21
555.067673
  0
LINE
  8
ValleyLine
  6
CONTINUOUS
 62
1
 10
1127.119819
 20
521.586838
 11
984.321390
 21
521.586838
  0
LINE
  8
CutLine
  6
CONTINUOUS
 62
8
 10
984.321390
 20
521.586838
 11
1037.962129
 21
469.529092
  0
LINE
  8
MountainLine
  6
CONTINUOUS
 62
5
 10
1028.426619
 20
555.067673
 11
984.321390
 21
521.586838
  0
LINE
  8
ValleyLine
  6
CONTINUOUS
 62
1
 10
972.305338
 20
131.120535
 11
1070.998538
 21
164.601370
  0
LINE
  8
CutLine
  6
CONTINUOUS
 62
8
 10
1070.998538
 20
164.601370
 11
1025.792481
 21
204.241248
  0
LINE
  8
CutLine
  6
CONTINUOUS
 62
8
 10
1025.792481
 20
204.241248
 11
972.305338
 21
131.120535
  0
LINE
  8
ValleyLine
  6
CONTINUOUS
 62
1
 10
1115.103767
 20
131.120535
 11
972.305338
 21
131.120535
  0
LINE
  8
ValleyLine
  6
CONTINUOUS
 62
1
 10
972.305338
 20
131.120535
 11
1061.463028
 21
79.062789
  0
LINE
  8
MountainLine
  6
CONTINUOUS
 62
5
 10
1061.463028
 20
79.062789
 11
1115.103767
 21
131.120535
  0
LINE
  8
CutLine
  6
CONTINUOUS
 62
8
 10
1115.103767
 20
131.120535
 11
1070.998538
 21
164.601370
  0
LINE
  8
CutLine
  6
CONTINUOUS
 62
8
 10
976.384577
 20
40.617094
 11
1061.463028
 21
79.062789
  0
LINE
  8
ValleyLine
  6
CONTINUOUS
 62
1
 10
972.305338
 20
131.120535
 11
976.384577
 21
40.617094
  0
LINE
  8
CutLine
  6
CONTINUOUS
 62
8
 10
1042.141697
 20
270.533824
 11
1052.941391
 21
264.595250
  0
LINE
  8
MountainLine
  6
CONTINUOUS
 62
5
 10
1052.941391
 20
264.595250
 11
1060.994105
 21
340.154052
  0
LINE
  8
ValleyLine
  6
CONTINUOUS
 62
1
 10
1060.994105
 20
340.154052
 11
1042.141697
 21
270.533824
  0
LINE
  8
MountainLine
  6
CONTINUOUS
 62
5
 10
1073.287787
 20
251.672619
 11
1085.742291
 21
244.640821
  0
LINE
  8
MountainLine
  6
CONTINUOUS
 62
5
 10
1097.502596
 20
236.944383
 11
1117.021055
 21
213.368589
  0
LINE
  8
MountainLine
  6
CONTINUOUS
 62
5
 10
1191.071018
 20
228.080576
 11
1097.502596
 21
236.944383
  0
LINE
  8
ValleyLine
  6
CONTINUOUS
 62
1
 10
1191.662192
 20
178.041616
 11
1191.071018
 21
228.080576
  0
LINE
  8
MountainLine
  6
CONTINUOUS
 62
5
 10
1136.334596
 20
151.698908
 11
1117.825958
 21
74.973474
  0
LINE
  8
ValleyLine
  6
CONTINUOUS
 62
1
 10
1117.825958
 20
74.973474
 11
1191.662192
 21
178.041616
  0
LINE
  8
MountainLine
  6
CONTINUOUS
 62
5
 10
1191.662192
 20
178.041616
 11
1136.334596
 21
151.698908
  0
LINE
  8
CutLine
  6
CONTINUOUS
 62
8
 10
1117.021055
 20
213.368589
 11
1136.334596
 21
151.698908
  0
LINE
  8
CutLine
  6
CONTINUOUS
 62
8
 10
1085.742291
 20
244.640821
 11
1097.502596
 21
236.944383
  0
LINE
  8
CutLine
  6
CONTINUOUS
 62
8
 10
1062.155416
 20
258.405044
 11
1073.287787
 21
251.672619
  0
LINE
  8
ValleyLine
  6
CONTINUOUS
 62
1
 10
1191.071018
 20
228.080576
 11
1062.155416
 21
258.405044
  0
LINE
  8
ValleyLine
  6
CONTINUOUS
 62
1
 10
1189.520090
 20
278.310124
 11
1052.941391
 21
264.595250
  0
LINE
  8
MountainLine
  6
CONTINUOUS
 62
5
 10
1052.941391
 20
264.595250
 11
1062.155416
 21
258.405044
  0
LINE
  8
MountainLine
  6
CONTINUOUS
 62
5
 10
1062.155416
 20
258.405044
 11
1189.520090
 21
278.310124
  0
LINE
  8
CutLine
  6
CONTINUOUS
 62
8
 10
1191.071018
 20
228.080576
 11
1189.520090
 21
278.310124
  0
LINE
  8
CutLine
  6
CONTINUOUS
 62
8
 10
1191.331544
 20
128.587851
 11
1191.662192
 21
178.041616
  0
LINE
  8
CutLine
  6
CONTINUOUS
 62
8
 10
1117.825958
 20
74.973474
 11
1191.331544
 21
128.587851
  0
LINE
  8
MountainLine
  6
CONTINUOUS
 62
5
 10
1189.520090
 20
278.310124
 11
1060.994105
 21
340.154052
  0
LINE
  8
ValleyLine
  6
CONTINUOUS
 62
1
 10
1060.994105
 20
340.154052
 11
1189.730876
 21
378.057844
  0
LINE
  8
CutLine
  6
CONTINUOUS
 62
8
 10
1132.330257
 20
423.933295
 11
1060.994105
 21
340.154052
  0
LINE
  8
CutLine
  6
CONTINUOUS
 62
8
 10
1189.576584
 20
328.511031
 11
1189.730876
 21
378.057844
  0
LINE
  8
ValleyLine
  6
CONTINUOUS
 62
1
 10
1189.520090
 20
278.310124
 11
1189.576584
 21
328.511031
  0
LINE
  8
CutLine
  6
CONTINUOUS
 62
8
 10
1191.454972
 20
433.161105
 11
1147.106592
 21
508.687679
  0
LINE
  8
MountainLine
  6
CONTINUOUS
 62
5
 10
1147.106592
 20
508.687679
 11
1132.330257
 21
423.933295
  0
LINE
  8
ValleyLine
  6
CONTINUOUS
 62
1
 10
1189.730876
 20
378.057844
 11
1191.454972
 21
433.161105
  0
LINE
  8
CutLine
  6
CONTINUOUS
 62
8
 10
1203.200000
 20
104.123715
 11
1200.875679
 21
105.027383
  0
LINE
  8
ValleyLine
  6
CONTINUOUS
 62
1
 10
1200.875679
 20
105.027383
 11
1203.200000
 21
103.200021
  0
LINE
  8
CutLine
  6
CONTINUOUS
 62
8
 10
1200.875679
 20
105.027383
 11
1203.200000
 21
100.674112
  0
LINE
  8
CutLine
  6
CONTINUOUS
 62
8
 10
1198.025911
 20
421.268167
 11
1203.200000
 21
411.463391
  0
LINE
  8
CutLine
  6
CONTINUOUS
 62
8
 10
1203.200000
 20
424.029189
 11
1198.025911
 21
421.268167
  0
LINE
  8
MountainLine
  6
CONTINUOUS
 62
5
 10
1049.086543
 20
346.286287
 11
1059.850027
 21
352.290241
  0
LINE
  8
CutLine
  6
CONTINUOUS
 62
8
 10
1059.850027
 20
352.290241
 11
1040.575785
 21
421.794867
  0
LINE
  8
MountainLine
  6
CONTINUOUS
 62
5
 10
1040.575785
 20
421.794867
 11
1049.086543
 21
346.286287
  0
LINE
  8
CutLine
  6
CONTINUOUS
 62
8
 10
1016.407251
 20
326.133318
 11
1028.818885
 21
333.240512
  0
LINE
  8
CutLine
  6
CONTINUOUS
 62
8
 10
985.318698
 20
294.671986
 11
1004.693834
 21
318.365707
  0
LINE
  8
MountainLine
  6
CONTINUOUS
 62
5
 10
1004.693834
 20
318.365707
 11
911.180882
 21
308.934661
  0
LINE
  8
CutLine
  6
CONTINUOUS
 62
8
 10
911.180882
 20
308.934661
 11
910.893157
 21
258.893035
  0
LINE
  8
CutLine
  6
CONTINUOUS
 62
8
 10
985.353044
 20
156.274535
 11
966.379479
 21
232.886320
  0
LINE
  8
MountainLine
  6
CONTINUOUS
 62
5
 10
966.379479
 20
232.886320
 11
910.893157
 21
258.893035
  0
LINE
  8
ValleyLine
  6
CONTINUOUS
 62
1
 10
910.893157
 20
258.893035
 11
985.353044
 21
156.274535
  0
LINE
  8
MountainLine
  6
CONTINUOUS
 62
5
 10
966.379479
 20
232.886320
 11
985.318698
 21
294.671986
  0
LINE
  8
MountainLine
  6
CONTINUOUS
 62
5
 10
1004.693834
 20
318.365707
 11
1016.407251
 21
326.133318
  0
LINE
  8
ValleyLine
  6
CONTINUOUS
 62
1
 10
1039.910225
 20
340.040320
 11
911.180882
 21
308.934661
  0
LINE
  8
MountainLine
  6
CONTINUOUS
 62
5
 10
1028.818885
 20
333.240512
 11
1039.910225
 21
340.040320
  0
LINE
  8
CutLine
  6
CONTINUOUS
 62
8
 10
1039.910225
 20
340.040320
 11
1049.086543
 21
346.286287
  0
LINE
  8
ValleyLine
  6
CONTINUOUS
 62
1
 10
1049.086543
 20
346.286287
 11
912.427188
 21
359.172689
  0
LINE
  8
MountainLine
  6
CONTINUOUS
 62
5
 10
912.427188
 20
359.172689
 11
1039.910225
 21
340.040320
  0
LINE
  8
ValleyLine
  6
CONTINUOUS
 62
1
 10
912.427188
 20
359.172689
 11
911.180882
 21
308.934661
  0
LINE
  8
ValleyLine
  6
CONTINUOUS
 62
1
 10
910.893157
 20
258.893035
 11
911.523689
 21
209.442185
  0
LINE
  8
ValleyLine
  6
CONTINUOUS
 62
1
 10
911.523689
 20
209.442185
 11
985.353044
 21
156.274535
  0
LINE
  8
MountainLine
  6
CONTINUOUS
 62
5
 10
1040.575785
 20
421.794867
 11
912.427188
 21
359.172689
  0
LINE
  8
ValleyLine
  6
CONTINUOUS
 62
1
 10
911.611532
 20
458.917297
 11
1040.575785
 21
421.794867
  0
LINE
  8
MountainLine
  6
CONTINUOUS
 62
5
 10
1040.575785
 20
421.794867
 11
968.732905
 21
505.139984
  0
LINE
  8
CutLine
  6
CONTINUOUS
 62
8
 10
911.611532
 20
458.917297
 11
912.066275
 21
409.372330
  0
LINE
  8
CutLine
  6
CONTINUOUS
 62
8
 10
912.066275
 20
409.372330
 11
912.427188
 21
359.172689
  0
LINE
  8
CutLine
  6
CONTINUOUS
 62
8
 10
968.732905
 20
505.139984
 11
953.442887
 21
589.803206
  0
LINE
  8
ValleyLine
  6
CONTINUOUS
 62
1
 10
953.442887
 20
589.803206
 11
909.553319
 21
514.009090
  0
LINE
  8
CutLine
  6
CONTINUOUS
 62
8
 10
909.553319
 20
514.009090
 11
911.611532
 21
458.917297
  0
ENDSEC
  0
EOF
