  0
SECTION
  2
HEADER
  9
$ACADVER
  1
AC1009
  0
ENDSEC
  0
SECTION
  2
BLOCKS
  0
ENDSEC
  0
SECTION
  2
ENTITIES
  0
LINE
  8
CutLine
  6
CONTINUOUS
 62
8
 10
2164.307451
 20
256.881952
 11
2164.732648
 21
249.823679
  0
LINE
  8
CutLine
  6
CONTINUOUS
 62
8
 10
2164.732648
 20
249.823679
 11
2119.048798
 21
198.282933
  0
LINE
  8
CutLine
  6
CONTINUOUS
 62
8
 10
2119.048798
 20
198.282933
 11
2111.990525
 21
197.857736
  0
LINE
  8
CutLine
  6
CONTINUOUS
 62
8
 10
2111.990525
 20
197.857736
 11
2109.939124
 21
204.624696
  0
LINE
  8
CutLine
  6
CONTINUOUS
 62
8
 10
2109.939124
 20
204.624696
 11
2145.671325
 21
271.445928
  0
LINE
  8
CutLine
  6
CONTINUOUS
 62
8
 10
2145.671325
 20
271.445928
 11
2156.183103
 21
280.500351
  0
LINE
  8
CutLine
  6
CONTINUOUS
 62
8
 10
2211.496387
 20
392.282314
 11
2215.335353
 21
386.344104
  0
LINE
  8
CutLine
  6
CONTINUOUS
 62
8
 10
2215.335353
 20
386.344104
 11
2202.270268
 21
325.493808
  0
LINE
  8
CutLine
  6
CONTINUOUS
 62
8
 10
2202.270268
 20
325.493808
 11
2196.332058
 21
321.654842
  0
LINE
  8
CutLine
  6
CONTINUOUS
 62
8
 10
2190.935973
 20
370.408776
 11
2186.925101
 21
376.232255
  0
LINE
  8
CutLine
  6
CONTINUOUS
 62
8
 10
2186.925101
 20
376.232255
 11
2194.081909
 21
415.061730
  0
LINE
  8
CutLine
  6
CONTINUOUS
 62
8
 10
2194.081909
 20
415.061730
 11
2199.905388
 21
419.072602
  0
LINE
  8
CutLine
  6
CONTINUOUS
 62
8
 10
2271.008396
 20
394.602140
 11
2275.527176
 21
389.163333
  0
LINE
  8
CutLine
  6
CONTINUOUS
 62
8
 10
2275.527176
 20
389.163333
 11
2270.199538
 21
331.501551
  0
LINE
  8
CutLine
  6
CONTINUOUS
 62
8
 10
2270.199538
 20
331.501551
 11
2264.760730
 21
326.982771
  0
LINE
  8
CutLine
  6
CONTINUOUS
 62
8
 10
2282.856713
 20
515.646487
 11
2287.303870
 21
510.148961
  0
LINE
  8
CutLine
  6
CONTINUOUS
 62
8
 10
2287.303870
 20
510.148961
 11
2282.053424
 21
460.438794
  0
LINE
  8
CutLine
  6
CONTINUOUS
 62
8
 10
2282.053424
 20
460.438794
 11
2276.555898
 21
455.991636
  0
LINE
  8
CutLine
  6
CONTINUOUS
 62
8
 10
2210.359203
 20
468.494339
 11
2211.824550
 21
475.411907
  0
LINE
  8
CutLine
  6
CONTINUOUS
 62
8
 10
2211.824550
 20
475.411907
 11
2275.939145
 21
517.111834
  0
LINE
  8
CutLine
  6
CONTINUOUS
 62
8
 10
2275.939145
 20
517.111834
 11
2282.856713
 21
515.646487
  0
LINE
  8
CutLine
  6
CONTINUOUS
 62
8
 10
2121.967080
 20
403.671715
 11
2117.049497
 21
408.752796
  0
LINE
  8
CutLine
  6
CONTINUOUS
 62
8
 10
2117.049497
 20
408.752796
 11
2118.393643
 21
490.953875
  0
LINE
  8
CutLine
  6
CONTINUOUS
 62
8
 10
2118.393643
 20
490.953875
 11
2123.474724
 21
495.871458
  0
LINE
  8
CutLine
  6
CONTINUOUS
 62
8
 10
2221.316428
 20
522.034398
 11
2223.173495
 21
515.211547
  0
LINE
  8
CutLine
  6
CONTINUOUS
 62
8
 10
2223.173495
 20
515.211547
 11
2189.919298
 21
457.085041
  0
LINE
  8
CutLine
  6
CONTINUOUS
 62
8
 10
2189.919298
 20
457.085041
 11
2183.096446
 21
455.227974
  0
LINE
  8
CutLine
  6
CONTINUOUS
 62
8
 10
2133.589628
 20
577.423310
 11
2138.327417
 21
582.850652
  0
LINE
  8
CutLine
  6
CONTINUOUS
 62
8
 10
2138.327417
 20
582.850652
 11
2248.624392
 21
592.366853
  0
LINE
  8
CutLine
  6
CONTINUOUS
 62
8
 10
2248.624392
 20
592.366853
 11
2266.051723
 21
588.851873
  0
LINE
  8
CutLine
  6
CONTINUOUS
 62
8
 10
2154.274423
 20
380.990875
 11
2158.053820
 21
373.861391
  0
LINE
  8
CutLine
  6
CONTINUOUS
 62
8
 10
2158.053820
 20
373.861391
 11
2141.425874
 21
282.913848
  0
LINE
  8
CutLine
  6
CONTINUOUS
 62
8
 10
2141.425874
 20
282.913848
 11
2133.823528
 21
269.133482
  0
LINE
  8
CutLine
  6
CONTINUOUS
 62
8
 10
2356.389219
 20
231.728402
 11
2360.040596
 21
225.673036
  0
LINE
  8
CutLine
  6
CONTINUOUS
 62
8
 10
2360.040596
 20
225.673036
 11
2341.844954
 21
152.203300
  0
LINE
  8
CutLine
  6
CONTINUOUS
 62
8
 10
2341.844954
 20
152.203300
 11
2334.845547
 21
144.740103
  0
LINE
  8
CutLine
  6
CONTINUOUS
 62
8
 10
2378.072887
 20
591.985805
 11
2385.210900
 21
570.572598
  0
LINE
  8
CutLine
  6
CONTINUOUS
 62
8
 10
2385.210900
 20
570.572598
 11
2387.519816
 21
547.181862
  0
LINE
  8
CutLine
  6
CONTINUOUS
 62
8
 10
2387.519816
 20
547.181862
 11
2383.035166
 21
541.714879
  0
LINE
  8
CutLine
  6
CONTINUOUS
 62
8
 10
2288.600288
 20
540.668741
 11
2290.449904
 21
547.493616
  0
LINE
  8
CutLine
  6
CONTINUOUS
 62
8
 10
2290.449904
 20
547.493616
 11
2371.248012
 21
593.835421
  0
LINE
  8
CutLine
  6
CONTINUOUS
 62
8
 10
2371.248012
 20
593.835421
 11
2378.072887
 21
591.985805
  0
LINE
  8
CutLine
  6
CONTINUOUS
 62
8
 10
2328.167274
 20
427.619391
 11
2322.329024
 21
431.608732
  0
LINE
  8
CutLine
  6
CONTINUOUS
 62
8
 10
2322.329024
 20
431.608732
 11
2313.124601
 21
480.533446
  0
LINE
  8
CutLine
  6
CONTINUOUS
 62
8
 10
2313.124601
 20
480.533446
 11
2317.113942
 21
486.371696
  0
LINE
  8
CutLine
  6
CONTINUOUS
 62
8
 10
2387.478895
 20
492.431295
 11
2392.232874
 21
487.196824
  0
LINE
  8
CutLine
  6
CONTINUOUS
 62
8
 10
2392.232874
 20
487.196824
 11
2388.403270
 21
407.587040
  0
LINE
  8
CutLine
  6
CONTINUOUS
 62
8
 10
2388.403270
 20
407.587040
 11
2382.847376
 21
396.151308
  0
LINE
  8
CutLine
  6
CONTINUOUS
 62
8
 10
2331.385684
 20
296.557342
 11
2326.948856
 21
302.063208
  0
LINE
  8
CutLine
  6
CONTINUOUS
 62
8
 10
2326.948856
 20
302.063208
 11
2333.234054
 21
360.519275
  0
LINE
  8
CutLine
  6
CONTINUOUS
 62
8
 10
2333.234054
 20
360.519275
 11
2338.739920
 21
364.956102
  0
LINE
  8
CutLine
  6
CONTINUOUS
 62
8
 10
2243.710875
 20
66.648612
 11
2249.111370
 21
62.084113
  0
LINE
  8
CutLine
  6
CONTINUOUS
 62
8
 10
2249.111370
 20
62.084113
 11
2253.283581
 21
12.351736
  0
LINE
  8
CutLine
  6
CONTINUOUS
 62
8
 10
2253.283581
 20
12.351736
 11
2248.719081
 21
6.951241
  0
LINE
  8
CutLine
  6
CONTINUOUS
 62
8
 10
2248.719081
 20
6.951241
 11
2242.201049
 21
2.798585
  0
LINE
  8
CutLine
  6
CONTINUOUS
 62
8
 10
2242.201049
 20
2.798585
 11
2129.267142
 21
18.291384
  0
LINE
  8
CutLine
  6
CONTINUOUS
 62
8
 10
2129.267142
 20
18.291384
 11
2124.115380
 21
24.044957
  0
LINE
  8
CutLine
  6
CONTINUOUS
 62
8
 10
2143.223110
 20
96.282831
 11
2138.781616
 21
101.784934
  0
LINE
  8
CutLine
  6
CONTINUOUS
 62
8
 10
2138.781616
 20
101.784934
 11
2145.640093
 21
166.085650
  0
LINE
  8
CutLine
  6
CONTINUOUS
 62
8
 10
2145.640093
 20
166.085650
 11
2151.142196
 21
170.527143
  0
LINE
  8
CutLine
  6
CONTINUOUS
 62
8
 10
2243.314073
 20
169.218480
 11
2244.292017
 21
168.209462
  0
LINE
  8
CutLine
  6
CONTINUOUS
 62
8
 10
2246.196323
 20
123.541637
 11
2242.544360
 21
120.002145
  0
LINE
  8
CutLine
  6
CONTINUOUS
 62
8
 10
2248.116941
 20
261.481624
 11
2254.917287
 21
259.543765
  0
LINE
  8
CutLine
  6
CONTINUOUS
 62
8
 10
2254.917287
 20
259.543765
 11
2286.262240
 21
203.214843
  0
LINE
  8
CutLine
  6
CONTINUOUS
 62
8
 10
2286.262240
 20
203.214843
 11
2284.324381
 21
196.414497
  0
LINE
  8
CutLine
  6
CONTINUOUS
 62
8
 10
2316.240208
 20
136.474590
 11
2322.660251
 21
133.510969
  0
LINE
  8
CutLine
  6
CONTINUOUS
 62
8
 10
2322.660251
 20
133.510969
 11
2340.209327
 21
85.867874
  0
LINE
  8
CutLine
  6
CONTINUOUS
 62
8
 10
2340.209327
 20
85.867874
 11
2337.545467
 21
78.634025
  0
LINE
  8
CutLine
  6
CONTINUOUS
 62
8
 10
2249.244273
 20
66.712009
 11
2243.980224
 21
71.433216
  0
LINE
  8
CutLine
  6
CONTINUOUS
 62
8
 10
2243.980224
 20
71.433216
 11
2243.354693
 21
82.939501
  0
LINE
  8
CutLine
  6
CONTINUOUS
 62
8
 10
2242.634916
 20
115.860341
 11
2246.347329
 21
119.999605
  0
LINE
  8
CutLine
  6
CONTINUOUS
 62
8
 10
2164.307451
 20
256.881952
 11
2196.332058
 21
321.654842
  0
LINE
  8
ValleyLine
  6
CONTINUOUS
 62
1
 10
2111.990525
 20
197.857736
 11
2164.307451
 21
256.881952
  0
LINE
  8
ValleyLine
  6
CONTINUOUS
 62
1
 10
2156.183103
 20
280.500351
 11
2111.990525
 21
197.857736
  0
LINE
  8
ValleyLine
  6
CONTINUOUS
 62
1
 10
2196.332058
 20
321.654842
 11
2211.496387
 21
392.282314
  0
LINE
  8
MountainLine
  6
CONTINUOUS
 62
5
 10
2211.496387
 20
392.282314
 11
2190.935973
 21
370.408776
  0
LINE
  8
CutLine
  6
CONTINUOUS
 62
8
 10
2190.935973
 20
370.408776
 11
2156.183103
 21
280.500351
  0
LINE
  8
ValleyLine
  6
CONTINUOUS
 62
1
 10
2199.905388
 20
419.072602
 11
2190.935973
 21
370.408776
  0
LINE
  8
ValleyLine
  6
CONTINUOUS
 62
1
 10
2211.496387
 20
392.282314
 11
2199.905388
 21
419.072602
  0
LINE
  8
ValleyLine
  6
CONTINUOUS
 62
1
 10
2276.555898
 20
455.991636
 11
2210.359203
 21
468.494339
  0
LINE
  8
ValleyLine
  6
CONTINUOUS
 62
1
 10
2211.496387
 20
392.282314
 11
2276.555898
 21
455.991636
  0
LINE
  8
CutLine
  6
CONTINUOUS
 62
8
 10
2210.359203
 20
468.494339
 11
2199.905388
 21
419.072602
  0
LINE
  8
ValleyLine
  6
CONTINUOUS
 62
1
 10
2264.760730
 20
326.982771
 11
2271.008396
 21
394.602140
  0
LINE
  8
ValleyLine
  6
CONTINUOUS
 62
1
 10
2271.008396
 20
394.602140
 11
2211.496387
 21
392.282314
  0
LINE
  8
CutLine
  6
CONTINUOUS
 62
8
 10
2211.496387
 20
392.282314
 11
2264.760730
 21
326.982771
  0
LINE
  8
CutLine
  6
CONTINUOUS
 62
8
 10
2271.008396
 20
394.602140
 11
2276.555898
 21
455.991636
  0
LINE
  8
ValleyLine
  6
CONTINUOUS
 62
1
 10
2276.555898
 20
455.991636
 11
2282.856713
 21
515.646487
  0
LINE
  8
MountainLine
  6
CONTINUOUS
 62
5
 10
2282.856713
 20
515.646487
 11
2210.359203
 21
468.494339
  0
LINE
  8
ValleyLine
  6
CONTINUOUS
 62
1
 10
2123.474724
 20
495.871458
 11
2121.967080
 21
403.671715
  0
LINE
  8
ValleyLine
  6
CONTINUOUS
 62
1
 10
2121.967080
 20
403.671715
 11
2183.096446
 21
455.227974
  0
LINE
  8
ValleyLine
  6
CONTINUOUS
 62
1
 10
2183.096446
 20
455.227974
 11
2221.316428
 21
522.034398
  0
LINE
  8
ValleyLine
  6
CONTINUOUS
 62
1
 10
2221.316428
 20
522.034398
 11
2123.474724
 21
495.871458
  0
LINE
  8
CutLine
  6
CONTINUOUS
 62
8
 10
2154.274423
 20
380.990875
 11
2183.096446
 21
455.227974
  0
LINE
  8
ValleyLine
  6
CONTINUOUS
 62
1
 10
2121.967080
 20
403.671715
 11
2154.274423
 21
380.990875
  0
LINE
  8
CutLine
  6
CONTINUOUS
 62
8
 10
2221.316428
 20
522.034398
 11
2266.051723
 21
588.851873
  0
LINE
  8
ValleyLine
  6
CONTINUOUS
 62
1
 10
2266.051723
 20
588.851873
 11
2133.589628
 21
577.423310
  0
LINE
  8
MountainLine
  6
CONTINUOUS
 62
5
 10
2133.589628
 20
577.423310
 11
2221.316428
 21
522.034398
  0
LINE
  8
CutLine
  6
CONTINUOUS
 62
8
 10
2133.589628
 20
577.423310
 11
2123.474724
 21
495.871458
  0
LINE
  8
CutLine
  6
CONTINUOUS
 62
8
 10
2121.967080
 20
403.671715
 11
2133.823528
 21
269.133482
  0
LINE
  8
ValleyLine
  6
CONTINUOUS
 62
1
 10
2133.823528
 20
269.133482
 11
2154.274423
 21
380.990875
  0
LINE
  8
CutLine
  6
CONTINUOUS
 62
8
 10
2321.951481
 20
227.939038
 11
2334.845547
 21
144.740103
  0
LINE
  8
ValleyLine
  6
CONTINUOUS
 62
1
 10
2334.845547
 20
144.740103
 11
2356.389219
 21
231.728402
  0
LINE
  8
MountainLine
  6
CONTINUOUS
 62
5
 10
2356.389219
 20
231.728402
 11
2321.951481
 21
227.939038
  0
LINE
  8
ValleyLine
  6
CONTINUOUS
 62
1
 10
2383.035166
 20
541.714879
 11
2378.072887
 21
591.985805
  0
LINE
  8
MountainLine
  6
CONTINUOUS
 62
5
 10
2378.072887
 20
591.985805
 11
2288.600288
 21
540.668741
  0
LINE
  8
ValleyLine
  6
CONTINUOUS
 62
1
 10
2288.600288
 20
540.668741
 11
2383.035166
 21
541.714879
  0
LINE
  8
ValleyLine
  6
CONTINUOUS
 62
1
 10
2317.113942
 20
486.371696
 11
2328.167274
 21
427.619391
  0
LINE
  8
MountainLine
  6
CONTINUOUS
 62
5
 10
2328.167274
 20
427.619391
 11
2387.478895
 21
492.431295
  0
LINE
  8
MountainLine
  6
CONTINUOUS
 62
5
 10
2317.113942
 20
486.371696
 11
2383.035166
 21
541.714879
  0
LINE
  8
CutLine
  6
CONTINUOUS
 62
8
 10
2288.600288
 20
540.668741
 11
2317.113942
 21
486.371696
  0
LINE
  8
CutLine
  6
CONTINUOUS
 62
8
 10
2387.478895
 20
492.431295
 11
2383.035166
 21
541.714879
  0
LINE
  8
ValleyLine
  6
CONTINUOUS
 62
1
 10
2382.847376
 20
396.151308
 11
2387.478895
 21
492.431295
  0
LINE
  8
MountainLine
  6
CONTINUOUS
 62
5
 10
2331.385684
 20
296.557342
 11
2372.723285
 21
302.983242
  0
LINE
  8
CutLine
  6
CONTINUOUS
 62
8
 10
2372.723285
 20
302.983242
 11
2382.847376
 21
396.151308
  0
LINE
  8
MountainLine
  6
CONTINUOUS
 62
5
 10
2382.847376
 20
396.151308
 11
2331.385684
 21
296.557342
  0
LINE
  8
CutLine
  6
CONTINUOUS
 62
8
 10
2356.389219
 20
231.728402
 11
2372.723285
 21
302.983242
  0
LINE
  8
ValleyLine
  6
CONTINUOUS
 62
1
 10
2331.385684
 20
296.557342
 11
2356.389219
 21
231.728402
  0
LINE
  8
MountainLine
  6
CONTINUOUS
 62
5
 10
2338.739920
 20
364.956102
 11
2382.847376
 21
396.151308
  0
LINE
  8
CutLine
  6
CONTINUOUS
 62
8
 10
2328.167274
 20
427.619391
 11
2338.739920
 21
364.956102
  0
LINE
  8
ValleyLine
  6
CONTINUOUS
 62
1
 10
2338.739920
 20
364.956102
 11
2331.385684
 21
296.557342
  0
LINE
  8
CutLine
  6
CONTINUOUS
 62
8
 10
2331.385684
 20
296.557342
 11
2321.951481
 21
227.939038
  0
LINE
  8
ValleyLine
  6
CONTINUOUS
 62
1
 10
2248.719081
 20
6.951241
 11
2243.710875
 21
66.648612
  0
LINE
  8
ValleyLine
  6
CONTINUOUS
 62
1
 10
2124.115380
 20
24.044957
 11
2248.719081
 21
6.951241
  0
LINE
  8
CutLine
  6
CONTINUOUS
 62
8
 10
2243.710875
 20
66.648612
 11
2242.544360
 21
120.002145
  0
LINE
  8
ValleyLine
  6
CONTINUOUS
 62
1
 10
2151.142196
 20
170.527143
 11
2143.223110
 21
96.282831
  0
LINE
  8
ValleyLine
  6
CONTINUOUS
 62
1
 10
2245.949760
 20
218.481908
 11
2248.116941
 21
261.481624
  0
LINE
  8
CutLine
  6
CONTINUOUS
 62
8
 10
2248.116941
 20
261.481624
 11
2151.142196
 21
170.527143
  0
LINE
  8
ValleyLine
  6
CONTINUOUS
 62
1
 10
2243.782415
 20
169.197884
 11
2245.949760
 21
218.481908
  0
LINE
  8
ValleyLine
  6
CONTINUOUS
 62
1
 10
2151.142196
 20
170.527143
 11
2243.782415
 21
169.197884
  0
LINE
  8
ValleyLine
  6
CONTINUOUS
 62
1
 10
2242.544360
 20
120.002145
 11
2243.314073
 21
169.218480
  0
LINE
  8
CutLine
  6
CONTINUOUS
 62
8
 10
2143.223110
 20
96.282831
 11
2124.115380
 21
24.044957
  0
LINE
  8
ValleyLine
  6
CONTINUOUS
 62
1
 10
2243.782415
 20
169.197884
 11
2284.324381
 21
196.414497
  0
LINE
  8
ValleyLine
  6
CONTINUOUS
 62
1
 10
2284.324381
 20
196.414497
 11
2248.116941
 21
261.481624
  0
LINE
  8
CutLine
  6
CONTINUOUS
 62
8
 10
2249.244273
 20
66.712009
 11
2255.819772
 21
7.166890
  0
LINE
  8
CutLine
  6
CONTINUOUS
 62
8
 10
2255.819772
 20
7.166890
 11
2334.666897
 21
18.716454
  0
LINE
  8
CutLine
  6
CONTINUOUS
 62
8
 10
2244.250756
 20
169.177288
 11
2246.347329
 21
119.999605
  0
LINE
  8
CutLine
  6
CONTINUOUS
 62
8
 10
2316.240208
 20
136.474590
 11
2284.324381
 21
196.414497
  0
LINE
  8
CutLine
  6
CONTINUOUS
 62
8
 10
2334.666897
 20
18.716454
 11
2337.545467
 21
78.634025
  0
LINE
  8
ValleyLine
  6
CONTINUOUS
 62
1
 10
2337.545467
 20
78.634025
 11
2316.240208
 21
136.474590
  0
LINE
  8
MountainLine
  6
CONTINUOUS
 62
5
 10
2246.347329
 20
119.999605
 11
2337.545467
 21
78.634025
  0
LINE
  8
ValleyLine
  6
CONTINUOUS
 62
1
 10
2246.347329
 20
119.999605
 11
2249.244273
 21
66.712009
  0
ENDSEC
  0
EOF
