  0
SECTION
  2
HEADER
  9
$ACADVER
  1
AC1009
  0
ENDSEC
  0
SECTION
  2
BLOCKS
  0
ENDSEC
  0
SECTION
  2
ENTITIES
  0
LINE
  8
CutLine
  6
CONTINUOUS
 62
8
 10
1633.145648
 20
132.459930
 11
1626.194801
 21
133.758284
  0
LINE
  8
CutLine
  6
CONTINUOUS
 62
8
 10
1626.194801
 20
133.758284
 11
1593.850308
 21
180.961564
  0
LINE
  8
CutLine
  6
CONTINUOUS
 62
8
 10
1593.850308
 20
180.961564
 11
1595.148662
 21
187.912412
  0
LINE
  8
CutLine
  6
CONTINUOUS
 62
8
 10
1595.148662
 20
187.912412
 11
1609.162270
 21
184.387640
  0
LINE
  8
CutLine
  6
CONTINUOUS
 62
8
 10
1609.162270
 20
184.387640
 11
1684.637941
 21
132.781039
  0
LINE
  8
CutLine
  6
CONTINUOUS
 62
8
 10
1684.637941
 20
132.781039
 11
1685.943231
 21
125.831491
  0
LINE
  8
CutLine
  6
CONTINUOUS
 62
8
 10
1750.750767
 20
93.894383
 11
1754.972857
 21
99.566593
  0
LINE
  8
CutLine
  6
CONTINUOUS
 62
8
 10
1754.972857
 20
99.566593
 11
1770.314829
 21
101.815130
  0
LINE
  8
CutLine
  6
CONTINUOUS
 62
8
 10
1770.314829
 20
101.815130
 11
1775.987038
 21
97.593041
  0
LINE
  8
CutLine
  6
CONTINUOUS
 62
8
 10
1727.749202
 20
69.785661
 11
1724.947750
 21
71.477337
  0
LINE
  8
CutLine
  6
CONTINUOUS
 62
8
 10
1685.943231
 20
125.831491
 11
1693.089761
 21
127.075491
  0
LINE
  8
CutLine
  6
CONTINUOUS
 62
8
 10
1693.089761
 20
127.075491
 11
1716.830145
 21
111.243693
  0
LINE
  8
CutLine
  6
CONTINUOUS
 62
8
 10
1716.830145
 20
111.243693
 11
1723.743583
 21
100.623493
  0
LINE
  8
CutLine
  6
CONTINUOUS
 62
8
 10
1688.685288
 20
78.803196
 11
1681.753907
 21
77.404642
  0
LINE
  8
CutLine
  6
CONTINUOUS
 62
8
 10
1681.753907
 20
77.404642
 11
1662.834283
 21
89.971245
  0
LINE
  8
CutLine
  6
CONTINUOUS
 62
8
 10
1662.834283
 20
89.971245
 11
1661.435729
 21
96.902626
  0
LINE
  8
CutLine
  6
CONTINUOUS
 62
8
 10
1781.196065
 20
73.434096
 11
1781.958271
 21
66.404228
  0
LINE
  8
CutLine
  6
CONTINUOUS
 62
8
 10
1781.958271
 20
66.404228
 11
1769.946943
 21
51.471521
  0
LINE
  8
CutLine
  6
CONTINUOUS
 62
8
 10
1769.946943
 20
51.471521
 11
1762.404888
 21
50.072555
  0
LINE
  8
CutLine
  6
CONTINUOUS
 62
8
 10
1688.495999
 20
64.854785
 11
1693.146644
 21
70.465970
  0
LINE
  8
CutLine
  6
CONTINUOUS
 62
8
 10
1693.146644
 20
70.465970
 11
1716.005067
 21
73.283966
  0
LINE
  8
CutLine
  6
CONTINUOUS
 62
8
 10
1721.682358
 20
72.137022
 11
1725.213095
 21
69.381284
  0
LINE
  8
CutLine
  6
CONTINUOUS
 62
8
 10
1738.096883
 20
33.441328
 11
1735.348066
 21
26.926422
  0
LINE
  8
CutLine
  6
CONTINUOUS
 62
8
 10
1735.348066
 20
26.926422
 11
1710.846909
 21
16.965683
  0
LINE
  8
CutLine
  6
CONTINUOUS
 62
8
 10
1710.846909
 20
16.965683
 11
1704.332003
 21
19.714501
  0
LINE
  8
CutLine
  6
CONTINUOUS
 62
8
 10
1658.955956
 20
13.884917
 11
1653.924913
 21
8.916154
  0
LINE
  8
CutLine
  6
CONTINUOUS
 62
8
 10
1653.924913
 20
8.916154
 11
1621.445005
 21
9.118443
  0
LINE
  8
CutLine
  6
CONTINUOUS
 62
8
 10
1621.445005
 20
9.118443
 11
1616.476242
 21
14.149485
  0
LINE
  8
CutLine
  6
CONTINUOUS
 62
8
 10
1569.939792
 20
16.230851
 11
1563.057442
 21
11.168345
  0
LINE
  8
CutLine
  6
CONTINUOUS
 62
8
 10
1563.057442
 20
11.168345
 11
1513.191306
 21
10.716938
  0
LINE
  8
CutLine
  6
CONTINUOUS
 62
8
 10
1513.191306
 20
10.716938
 11
1508.146251
 21
15.671473
  0
LINE
  8
CutLine
  6
CONTINUOUS
 62
8
 10
1610.895696
 20
73.967377
 11
1619.311014
 21
78.157517
  0
LINE
  8
CutLine
  6
CONTINUOUS
 62
8
 10
1619.311014
 20
78.157517
 11
1651.630137
 21
74.953082
  0
LINE
  8
CutLine
  6
CONTINUOUS
 62
8
 10
1651.630137
 20
74.953082
 11
1656.112410
 21
69.484149
  0
LINE
  8
CutLine
  6
CONTINUOUS
 62
8
 10
1739.523523
 20
505.716495
 11
1744.739199
 21
510.491086
  0
LINE
  8
CutLine
  6
CONTINUOUS
 62
8
 10
1744.739199
 20
510.491086
 11
1780.233355
 21
508.923969
  0
LINE
  8
CutLine
  6
CONTINUOUS
 62
8
 10
1780.233355
 20
508.923969
 11
1786.924039
 21
503.623695
  0
LINE
  8
CutLine
  6
CONTINUOUS
 62
8
 10
1740.529890
 20
388.610701
 11
1733.500660
 21
387.842633
  0
LINE
  8
CutLine
  6
CONTINUOUS
 62
8
 10
1733.500660
 20
387.842633
 11
1716.240535
 21
401.702362
  0
LINE
  8
CutLine
  6
CONTINUOUS
 62
8
 10
1788.768826
 20
404.373306
 11
1785.569120
 21
398.067603
  0
LINE
  8
CutLine
  6
CONTINUOUS
 62
8
 10
1785.569120
 20
398.067603
 11
1746.844227
 21
385.413817
  0
LINE
  8
CutLine
  6
CONTINUOUS
 62
8
 10
1746.844227
 20
385.413817
 11
1740.529890
 21
388.610701
  0
LINE
  8
CutLine
  6
CONTINUOUS
 62
8
 10
1576.449995
 20
517.032706
 11
1576.346616
 21
524.103018
  0
LINE
  8
CutLine
  6
CONTINUOUS
 62
8
 10
1576.346616
 20
524.103018
 11
1609.372603
 21
558.109120
  0
LINE
  8
CutLine
  6
CONTINUOUS
 62
8
 10
1609.372603
 20
558.109120
 11
1616.442915
 21
558.212499
  0
LINE
  8
CutLine
  6
CONTINUOUS
 62
8
 10
1659.823881
 20
460.998982
 11
1652.889487
 21
459.615440
  0
LINE
  8
CutLine
  6
CONTINUOUS
 62
8
 10
1652.889487
 20
459.615440
 11
1619.406897
 21
481.959549
  0
LINE
  8
CutLine
  6
CONTINUOUS
 62
8
 10
1619.406897
 20
481.959549
 11
1618.023354
 21
488.893942
  0
LINE
  8
CutLine
  6
CONTINUOUS
 62
8
 10
1653.353927
 20
515.679712
 11
1656.121821
 21
522.186536
  0
LINE
  8
CutLine
  6
CONTINUOUS
 62
8
 10
1656.121821
 20
522.186536
 11
1732.644893
 21
553.035385
  0
LINE
  8
CutLine
  6
CONTINUOUS
 62
8
 10
1732.644893
 20
553.035385
 11
1745.421769
 21
552.795145
  0
LINE
  8
CutLine
  6
CONTINUOUS
 62
8
 10
1569.289274
 20
419.814370
 11
1571.591733
 21
426.500078
  0
LINE
  8
CutLine
  6
CONTINUOUS
 62
8
 10
1571.591733
 20
426.500078
 11
1605.185779
 21
442.882846
  0
LINE
  8
CutLine
  6
CONTINUOUS
 62
8
 10
1605.185779
 20
442.882846
 11
1613.740133
 21
441.491668
  0
LINE
  8
CutLine
  6
CONTINUOUS
 62
8
 10
1622.535939
 20
324.271090
 11
1616.902050
 21
328.544179
  0
LINE
  8
CutLine
  6
CONTINUOUS
 62
8
 10
1616.902050
 20
328.544179
 11
1607.783601
 21
394.928841
  0
LINE
  8
CutLine
  6
CONTINUOUS
 62
8
 10
1607.783601
 20
394.928841
 11
1612.056690
 21
400.562730
  0
LINE
  8
CutLine
  6
CONTINUOUS
 62
8
 10
1754.791315
 20
334.814437
 11
1752.987586
 21
327.977291
  0
LINE
  8
CutLine
  6
CONTINUOUS
 62
8
 10
1752.987586
 20
327.977291
 11
1696.226852
 21
294.913457
  0
LINE
  8
CutLine
  6
CONTINUOUS
 62
8
 10
1696.226852
 20
294.913457
 11
1689.389706
 21
296.717186
  0
LINE
  8
CutLine
  6
CONTINUOUS
 62
8
 10
1549.052053
 20
210.883652
 11
1543.011305
 21
214.860788
  0
LINE
  8
CutLine
  6
CONTINUOUS
 62
8
 10
1543.011305
 20
214.860788
 11
1525.981440
 21
289.191611
  0
LINE
  8
CutLine
  6
CONTINUOUS
 62
8
 10
1525.981440
 20
289.191611
 11
1529.738549
 21
295.181948
  0
LINE
  8
CutLine
  6
CONTINUOUS
 62
8
 10
1613.864021
 20
256.961487
 11
1612.686100
 21
249.989220
  0
LINE
  8
CutLine
  6
CONTINUOUS
 62
8
 10
1612.686100
 20
249.989220
 11
1556.024319
 21
209.705731
  0
LINE
  8
CutLine
  6
CONTINUOUS
 62
8
 10
1556.024319
 20
209.705731
 11
1549.052053
 21
210.883652
  0
LINE
  8
CutLine
  6
CONTINUOUS
 62
8
 10
1678.281003
 20
596.076843
 11
1681.869206
 21
589.983831
  0
LINE
  8
CutLine
  6
CONTINUOUS
 62
8
 10
1681.869206
 20
589.983831
 11
1673.820282
 21
558.874346
  0
LINE
  8
CutLine
  6
CONTINUOUS
 62
8
 10
1673.820282
 20
558.874346
 11
1667.727269
 21
555.286144
  0
LINE
  8
CutLine
  6
CONTINUOUS
 62
8
 10
1563.285610
 20
586.880093
 11
1569.472908
 21
592.935775
  0
LINE
  8
CutLine
  6
CONTINUOUS
 62
8
 10
1569.472908
 20
592.935775
 11
1619.828403
 21
601.007947
  0
LINE
  8
CutLine
  6
CONTINUOUS
 62
8
 10
1619.828403
 20
601.007947
 11
1627.544078
 21
597.180963
  0
LINE
  8
CutLine
  6
CONTINUOUS
 62
8
 10
1515.041987
 20
296.476090
 11
1512.935495
 21
303.226104
  0
LINE
  8
CutLine
  6
CONTINUOUS
 62
8
 10
1512.935495
 20
303.226104
 11
1553.178650
 21
379.981150
  0
LINE
  8
CutLine
  6
CONTINUOUS
 62
8
 10
1553.178650
 20
379.981150
 11
1560.200171
 21
382.605483
  0
LINE
  8
CutLine
  6
CONTINUOUS
 62
8
 10
1675.039594
 20
254.521720
 11
1674.278487
 21
261.551706
  0
LINE
  8
CutLine
  6
CONTINUOUS
 62
8
 10
1674.278487
 20
261.551706
 11
1677.848783
 21
265.988945
  0
LINE
  8
CutLine
  6
CONTINUOUS
 62
8
 10
1647.071155
 20
253.806533
 11
1640.000129
 21
253.830873
  0
LINE
  8
CutLine
  6
CONTINUOUS
 62
8
 10
1640.000129
 20
253.830873
 11
1639.771224
 21
254.061360
  0
LINE
  8
CutLine
  6
CONTINUOUS
 62
8
 10
1639.771224
 20
254.061360
 11
1639.795564
 21
261.132386
  0
LINE
  8
CutLine
  6
CONTINUOUS
 62
8
 10
1674.522809
 20
259.295018
 11
1658.108034
 21
252.797716
  0
LINE
  8
CutLine
  6
CONTINUOUS
 62
8
 10
1658.108034
 20
252.797716
 11
1647.071155
 21
253.806533
  0
LINE
  8
CutLine
  6
CONTINUOUS
 62
8
 10
1792.861518
 20
233.718982
 11
1776.105988
 21
237.475491
  0
LINE
  8
CutLine
  6
CONTINUOUS
 62
8
 10
1776.105988
 20
237.475491
 11
1772.957131
 21
239.261758
  0
LINE
  8
CutLine
  6
CONTINUOUS
 62
8
 10
1772.957131
 20
239.261758
 11
1771.075219
 21
246.077799
  0
LINE
  8
CutLine
  6
CONTINUOUS
 62
8
 10
1761.268793
 20
272.335132
 11
1768.304744
 21
271.631283
  0
LINE
  8
CutLine
  6
CONTINUOUS
 62
8
 10
1768.304744
 20
271.631283
 11
1788.123538
 21
247.406543
  0
LINE
  8
CutLine
  6
CONTINUOUS
 62
8
 10
1788.123538
 20
247.406543
 11
1792.861518
 21
233.718982
  0
LINE
  8
CutLine
  6
CONTINUOUS
 62
8
 10
1685.264827
 20
287.301952
 11
1690.563984
 21
291.983717
  0
LINE
  8
CutLine
  6
CONTINUOUS
 62
8
 10
1690.563984
 20
291.983717
 11
1727.818503
 21
289.679255
  0
LINE
  8
CutLine
  6
CONTINUOUS
 62
8
 10
1727.818503
 20
289.679255
 11
1732.500268
 21
284.380097
  0
LINE
  8
CutLine
  6
CONTINUOUS
 62
8
 10
1747.506195
 20
255.827186
 11
1741.732404
 21
251.745112
  0
LINE
  8
CutLine
  6
CONTINUOUS
 62
8
 10
1741.732404
 20
251.745112
 11
1724.156562
 21
254.761930
  0
LINE
  8
CutLine
  6
CONTINUOUS
 62
8
 10
1724.156562
 20
254.761930
 11
1720.074487
 21
260.535722
  0
LINE
  8
CutLine
  6
CONTINUOUS
 62
8
 10
1523.874157
 20
380.280846
 11
1518.200082
 21
384.500427
  0
LINE
  8
CutLine
  6
CONTINUOUS
 62
8
 10
1518.200082
 20
384.500427
 11
1508.318343
 21
451.717298
  0
LINE
  8
CutLine
  6
CONTINUOUS
 62
8
 10
1508.318343
 20
451.717298
 11
1511.880160
 21
461.865575
  0
LINE
  8
CutLine
  6
CONTINUOUS
 62
8
 10
1590.492730
 20
486.959069
 11
1592.085297
 21
480.069676
  0
LINE
  8
CutLine
  6
CONTINUOUS
 62
8
 10
1592.085297
 20
480.069676
 11
1530.763550
 21
381.873412
  0
LINE
  8
CutLine
  6
CONTINUOUS
 62
8
 10
1530.763550
 20
381.873412
 11
1523.874157
 21
380.280846
  0
LINE
  8
CutLine
  6
CONTINUOUS
 62
8
 10
1511.880160
 20
461.865575
 11
1507.569721
 21
477.215892
  0
LINE
  8
CutLine
  6
CONTINUOUS
 62
8
 10
1507.569721
 20
477.215892
 11
1510.772371
 21
547.984874
  0
LINE
  8
CutLine
  6
CONTINUOUS
 62
8
 10
1510.772371
 20
547.984874
 11
1515.993303
 21
552.753719
  0
LINE
  8
CutLine
  6
CONTINUOUS
 62
8
 10
1515.993303
 20
552.753719
 11
1523.039536
 21
553.345833
  0
LINE
  8
CutLine
  6
CONTINUOUS
 62
8
 10
1523.039536
 20
553.345833
 11
1552.960492
 21
528.063744
  0
LINE
  8
CutLine
  6
CONTINUOUS
 62
8
 10
1552.960492
 20
528.063744
 11
1553.552607
 21
521.017511
  0
LINE
  8
CutLine
  6
CONTINUOUS
 62
8
 10
1759.840026
 20
195.787862
 11
1753.304999
 21
193.087227
  0
LINE
  8
CutLine
  6
CONTINUOUS
 62
8
 10
1753.304999
 20
193.087227
 11
1733.736215
 21
201.211648
  0
LINE
  8
CutLine
  6
CONTINUOUS
 62
8
 10
1733.736215
 20
201.211648
 11
1731.035581
 21
207.746675
  0
LINE
  8
CutLine
  6
CONTINUOUS
 62
8
 10
1661.290121
 20
241.880190
 11
1665.944107
 21
247.203761
  0
LINE
  8
CutLine
  6
CONTINUOUS
 62
8
 10
1665.944107
 20
247.203761
 11
1701.612864
 21
249.597460
  0
LINE
  8
CutLine
  6
CONTINUOUS
 62
8
 10
1701.612864
 20
249.597460
 11
1706.936435
 21
244.943474
  0
LINE
  8
CutLine
  6
CONTINUOUS
 62
8
 10
1741.551388
 20
234.006611
 11
1748.521742
 21
235.195796
  0
LINE
  8
CutLine
  6
CONTINUOUS
 62
8
 10
1748.521742
 20
235.195796
 11
1764.273172
 21
224.035646
  0
LINE
  8
CutLine
  6
CONTINUOUS
 62
8
 10
1764.273172
 20
224.035646
 11
1765.462357
 21
217.065292
  0
LINE
  8
CutLine
  6
CONTINUOUS
 62
8
 10
1778.547958
 20
190.090545
 11
1784.433263
 21
186.170956
  0
LINE
  8
CutLine
  6
CONTINUOUS
 62
8
 10
1784.433263
 20
186.170956
 11
1788.597956
 21
165.397667
  0
LINE
  8
CutLine
  6
CONTINUOUS
 62
8
 10
1788.597956
 20
165.397667
 11
1785.931658
 21
153.261000
  0
LINE
  8
CutLine
  6
CONTINUOUS
 62
8
 10
1577.825605
 20
211.151205
 11
1580.465787
 21
217.710888
  0
LINE
  8
CutLine
  6
CONTINUOUS
 62
8
 10
1580.465787
 20
217.710888
 11
1614.121627
 21
232.049585
  0
LINE
  8
CutLine
  6
CONTINUOUS
 62
8
 10
1614.121627
 20
232.049585
 11
1620.681310
 21
229.409403
  0
LINE
  8
CutLine
  6
CONTINUOUS
 62
8
 10
1683.725631
 20
206.524884
 11
1683.406089
 21
199.461040
  0
LINE
  8
CutLine
  6
CONTINUOUS
 62
8
 10
1683.406089
 20
199.461040
 11
1658.688944
 21
176.883336
  0
LINE
  8
CutLine
  6
CONTINUOUS
 62
8
 10
1658.688944
 20
176.883336
 11
1644.990640
 21
171.142678
  0
LINE
  8
CutLine
  6
CONTINUOUS
 62
8
 10
1504.000000
 20
151.365318
 11
1504.812743
 21
158.098891
  0
LINE
  8
CutLine
  6
CONTINUOUS
 62
8
 10
1504.812743
 20
158.098891
 11
1559.639811
 21
201.116138
  0
LINE
  8
CutLine
  6
CONTINUOUS
 62
8
 10
1559.639811
 20
201.116138
 11
1566.659927
 21
200.268810
  0
LINE
  8
CutLine
  6
CONTINUOUS
 62
8
 10
1566.659927
 20
200.268810
 11
1573.697608
 21
199.582475
  0
LINE
  8
CutLine
  6
CONTINUOUS
 62
8
 10
1573.697608
 20
199.582475
 11
1599.258538
 21
168.497254
  0
LINE
  8
CutLine
  6
CONTINUOUS
 62
8
 10
1599.258538
 20
168.497254
 11
1598.572203
 21
161.459574
  0
LINE
  8
CutLine
  6
CONTINUOUS
 62
8
 10
1562.332707
 20
84.550401
 11
1555.276923
 21
85.015061
  0
LINE
  8
CutLine
  6
CONTINUOUS
 62
8
 10
1555.276923
 20
85.015061
 11
1510.339852
 21
136.288064
  0
LINE
  8
CutLine
  6
CONTINUOUS
 62
8
 10
1510.339852
 20
136.288064
 11
1510.804512
 21
143.343848
  0
LINE
  8
CutLine
  6
CONTINUOUS
 62
8
 10
1631.405292
 20
124.855250
 11
1635.533122
 21
119.114081
  0
LINE
  8
CutLine
  6
CONTINUOUS
 62
8
 10
1635.533122
 20
119.114081
 11
1629.579784
 21
82.696765
  0
LINE
  8
CutLine
  6
CONTINUOUS
 62
8
 10
1629.579784
 20
82.696765
 11
1623.838615
 21
78.568935
  0
LINE
  8
ValleyLine
  6
CONTINUOUS
 62
1
 10
1595.148662
 20
187.912412
 11
1633.145648
 21
132.459930
  0
LINE
  8
MountainLine
  6
CONTINUOUS
 62
5
 10
1633.145648
 20
132.459930
 11
1685.943231
 21
125.831491
  0
LINE
  8
ValleyLine
  6
CONTINUOUS
 62
1
 10
1685.943231
 20
125.831491
 11
1595.148662
 21
187.912412
  0
LINE
  8
ValleyLine
  6
CONTINUOUS
 62
1
 10
1775.987038
 20
97.593041
 11
1750.750767
 21
93.894383
  0
LINE
  8
MountainLine
  6
CONTINUOUS
 62
5
 10
1750.750767
 20
93.894383
 11
1757.622831
 21
74.548951
  0
LINE
  8
CutLine
  6
CONTINUOUS
 62
8
 10
1799.495720
 20
106.237405
 11
1775.987038
 21
97.593041
  0
LINE
  8
ValleyLine
  6
CONTINUOUS
 62
1
 10
1757.622831
 20
74.548951
 11
1799.495720
 21
106.237405
  0
LINE
  8
ValleyLine
  6
CONTINUOUS
 62
1
 10
1750.750767
 20
93.894383
 11
1724.947750
 21
71.477337
  0
LINE
  8
ValleyLine
  6
CONTINUOUS
 62
1
 10
1724.947750
 20
71.477337
 11
1757.622831
 21
74.548951
  0
LINE
  8
ValleyLine
  6
CONTINUOUS
 62
1
 10
1633.145648
 20
132.459930
 11
1723.743583
 21
100.623493
  0
LINE
  8
ValleyLine
  6
CONTINUOUS
 62
1
 10
1723.743583
 20
100.623493
 11
1685.943231
 21
125.831491
  0
LINE
  8
MountainLine
  6
CONTINUOUS
 62
5
 10
1688.685288
 20
78.803196
 11
1723.743583
 21
100.623493
  0
LINE
  8
ValleyLine
  6
CONTINUOUS
 62
1
 10
1723.743583
 20
100.623493
 11
1661.435729
 21
96.902626
  0
LINE
  8
ValleyLine
  6
CONTINUOUS
 62
1
 10
1661.435729
 20
96.902626
 11
1688.685288
 21
78.803196
  0
LINE
  8
CutLine
  6
CONTINUOUS
 62
8
 10
1633.145648
 20
132.459930
 11
1661.435729
 21
96.902626
  0
LINE
  8
MountainLine
  6
CONTINUOUS
 62
5
 10
1724.947750
 20
71.477337
 11
1723.743583
 21
100.623493
  0
LINE
  8
CutLine
  6
CONTINUOUS
 62
8
 10
1688.685288
 20
78.803196
 11
1724.947750
 21
71.477337
  0
LINE
  8
CutLine
  6
CONTINUOUS
 62
8
 10
1750.750767
 20
93.894383
 11
1723.743583
 21
100.623493
  0
LINE
  8
ValleyLine
  6
CONTINUOUS
 62
1
 10
1781.196065
 20
73.434096
 11
1757.622831
 21
74.548951
  0
LINE
  8
ValleyLine
  6
CONTINUOUS
 62
1
 10
1757.622831
 20
74.548951
 11
1762.404888
 21
50.072555
  0
LINE
  8
ValleyLine
  6
CONTINUOUS
 62
1
 10
1762.404888
 20
50.072555
 11
1781.196065
 21
73.434096
  0
LINE
  8
CutLine
  6
CONTINUOUS
 62
8
 10
1757.622831
 20
74.548951
 11
1725.213095
 21
69.381284
  0
LINE
  8
ValleyLine
  6
CONTINUOUS
 62
1
 10
1725.213095
 20
69.381284
 11
1762.404888
 21
50.072555
  0
LINE
  8
ValleyLine
  6
CONTINUOUS
 62
1
 10
1722.826441
 20
58.369299
 11
1725.213095
 21
69.381284
  0
LINE
  8
ValleyLine
  6
CONTINUOUS
 62
1
 10
1725.213095
 20
69.381284
 11
1688.495999
 21
64.854785
  0
LINE
  8
ValleyLine
  6
CONTINUOUS
 62
1
 10
1688.495999
 20
64.854785
 11
1722.826441
 21
58.369299
  0
LINE
  8
ValleyLine
  6
CONTINUOUS
 62
1
 10
1688.495999
 20
64.854785
 11
1704.332003
 21
19.714501
  0
LINE
  8
ValleyLine
  6
CONTINUOUS
 62
1
 10
1722.826441
 20
58.369299
 11
1738.096883
 21
33.441328
  0
LINE
  8
CutLine
  6
CONTINUOUS
 62
8
 10
1738.096883
 20
33.441328
 11
1762.404888
 21
50.072555
  0
LINE
  8
ValleyLine
  6
CONTINUOUS
 62
1
 10
1704.332003
 20
19.714501
 11
1738.096883
 21
33.441328
  0
LINE
  8
CutLine
  6
CONTINUOUS
 62
8
 10
1688.495999
 20
64.854785
 11
1656.112410
 21
69.484149
  0
LINE
  8
ValleyLine
  6
CONTINUOUS
 62
1
 10
1656.112410
 20
69.484149
 11
1658.955956
 21
13.884917
  0
LINE
  8
CutLine
  6
CONTINUOUS
 62
8
 10
1658.955956
 20
13.884917
 11
1704.332003
 21
19.714501
  0
LINE
  8
MountainLine
  6
CONTINUOUS
 62
5
 10
1658.955956
 20
13.884917
 11
1610.895696
 21
73.967377
  0
LINE
  8
ValleyLine
  6
CONTINUOUS
 62
1
 10
1610.895696
 20
73.967377
 11
1616.476242
 21
14.149485
  0
LINE
  8
ValleyLine
  6
CONTINUOUS
 62
1
 10
1616.476242
 20
14.149485
 11
1658.955956
 21
13.884917
  0
LINE
  8
ValleyLine
  6
CONTINUOUS
 62
1
 10
1610.895696
 20
73.967377
 11
1569.939792
 21
16.230851
  0
LINE
  8
CutLine
  6
CONTINUOUS
 62
8
 10
1569.939792
 20
16.230851
 11
1616.476242
 21
14.149485
  0
LINE
  8
CutLine
  6
CONTINUOUS
 62
8
 10
1610.895696
 20
73.967377
 11
1544.371705
 21
83.626941
  0
LINE
  8
MountainLine
  6
CONTINUOUS
 62
5
 10
1544.371705
 20
83.626941
 11
1569.939792
 21
16.230851
  0
LINE
  8
ValleyLine
  6
CONTINUOUS
 62
1
 10
1508.146251
 20
15.671473
 11
1569.939792
 21
16.230851
  0
LINE
  8
CutLine
  6
CONTINUOUS
 62
8
 10
1544.371705
 20
83.626941
 11
1508.146251
 21
15.671473
  0
LINE
  8
ValleyLine
  6
CONTINUOUS
 62
1
 10
1656.112410
 20
69.484149
 11
1610.895696
 21
73.967377
  0
LINE
  8
CutLine
  6
CONTINUOUS
 62
8
 10
1781.196065
 20
73.434096
 11
1799.495720
 21
106.237405
  0
LINE
  8
ValleyLine
  6
CONTINUOUS
 62
1
 10
1739.523523
 20
505.716495
 11
1709.360703
 21
413.639285
  0
LINE
  8
ValleyLine
  6
CONTINUOUS
 62
1
 10
1709.360703
 20
413.639285
 11
1786.924039
 21
503.623695
  0
LINE
  8
ValleyLine
  6
CONTINUOUS
 62
1
 10
1786.924039
 20
503.623695
 11
1739.523523
 21
505.716495
  0
LINE
  8
MountainLine
  6
CONTINUOUS
 62
5
 10
1709.360703
 20
413.639285
 11
1740.529890
 21
388.610701
  0
LINE
  8
ValleyLine
  6
CONTINUOUS
 62
1
 10
1740.529890
 20
388.610701
 11
1786.924039
 21
503.623695
  0
LINE
  8
MountainLine
  6
CONTINUOUS
 62
5
 10
1659.823881
 20
460.998982
 11
1709.360703
 21
413.639285
  0
LINE
  8
ValleyLine
  6
CONTINUOUS
 62
1
 10
1739.523523
 20
505.716495
 11
1659.823881
 21
460.998982
  0
LINE
  8
CutLine
  6
CONTINUOUS
 62
8
 10
1788.768826
 20
404.373306
 11
1786.924039
 21
503.623695
  0
LINE
  8
MountainLine
  6
CONTINUOUS
 62
5
 10
1740.529890
 20
388.610701
 11
1788.768826
 21
404.373306
  0
LINE
  8
ValleyLine
  6
CONTINUOUS
 62
1
 10
1745.421769
 20
552.795145
 11
1659.823881
 21
460.998982
  0
LINE
  8
CutLine
  6
CONTINUOUS
 62
8
 10
1739.523523
 20
505.716495
 11
1745.421769
 21
552.795145
  0
LINE
  8
ValleyLine
  6
CONTINUOUS
 62
1
 10
1616.442915
 20
558.212499
 11
1576.449995
 21
517.032706
  0
LINE
  8
ValleyLine
  6
CONTINUOUS
 62
1
 10
1576.449995
 20
517.032706
 11
1653.353927
 21
515.679712
  0
LINE
  8
MountainLine
  6
CONTINUOUS
 62
5
 10
1653.353927
 20
515.679712
 11
1616.442915
 21
558.212499
  0
LINE
  8
CutLine
  6
CONTINUOUS
 62
8
 10
1576.449995
 20
517.032706
 11
1618.023354
 21
488.893942
  0
LINE
  8
ValleyLine
  6
CONTINUOUS
 62
1
 10
1618.023354
 20
488.893942
 11
1659.823881
 21
460.998982
  0
LINE
  8
MountainLine
  6
CONTINUOUS
 62
5
 10
1659.823881
 20
460.998982
 11
1653.353927
 21
515.679712
  0
LINE
  8
ValleyLine
  6
CONTINUOUS
 62
1
 10
1745.421769
 20
552.795145
 11
1653.353927
 21
515.679712
  0
LINE
  8
ValleyLine
  6
CONTINUOUS
 62
1
 10
1667.727269
 20
555.286144
 11
1616.442915
 21
558.212499
  0
LINE
  8
CutLine
  6
CONTINUOUS
 62
8
 10
1653.353927
 20
515.679712
 11
1667.727269
 21
555.286144
  0
LINE
  8
ValleyLine
  6
CONTINUOUS
 62
1
 10
1613.740133
 20
441.491668
 11
1612.056690
 21
400.562730
  0
LINE
  8
ValleyLine
  6
CONTINUOUS
 62
1
 10
1612.056690
 20
400.562730
 11
1659.823881
 21
460.998982
  0
LINE
  8
CutLine
  6
CONTINUOUS
 62
8
 10
1659.823881
 20
460.998982
 11
1613.740133
 21
441.491668
  0
LINE
  8
CutLine
  6
CONTINUOUS
 62
8
 10
1569.289274
 20
419.814370
 11
1612.056690
 21
400.562730
  0
LINE
  8
ValleyLine
  6
CONTINUOUS
 62
1
 10
1613.740133
 20
441.491668
 11
1569.289274
 21
419.814370
  0
LINE
  8
ValleyLine
  6
CONTINUOUS
 62
1
 10
1612.056690
 20
400.562730
 11
1689.389706
 21
296.717186
  0
LINE
  8
ValleyLine
  6
CONTINUOUS
 62
1
 10
1709.360703
 20
413.639285
 11
1612.056690
 21
400.562730
  0
LINE
  8
MountainLine
  6
CONTINUOUS
 62
5
 10
1622.535939
 20
324.271090
 11
1613.864021
 21
256.961487
  0
LINE
  8
CutLine
  6
CONTINUOUS
 62
8
 10
1613.864021
 20
256.961487
 11
1689.389706
 21
296.717186
  0
LINE
  8
MountainLine
  6
CONTINUOUS
 62
5
 10
1612.056690
 20
400.562730
 11
1622.535939
 21
324.271090
  0
LINE
  8
ValleyLine
  6
CONTINUOUS
 62
1
 10
1689.389706
 20
296.717186
 11
1754.791315
 21
334.814437
  0
LINE
  8
CutLine
  6
CONTINUOUS
 62
8
 10
1754.791315
 20
334.814437
 11
1709.360703
 21
413.639285
  0
LINE
  8
MountainLine
  6
CONTINUOUS
 62
5
 10
1529.738549
 20
295.181948
 11
1549.052053
 21
210.883652
  0
LINE
  8
ValleyLine
  6
CONTINUOUS
 62
1
 10
1549.052053
 20
210.883652
 11
1613.864021
 21
256.961487
  0
LINE
  8
ValleyLine
  6
CONTINUOUS
 62
1
 10
1613.864021
 20
256.961487
 11
1529.738549
 21
295.181948
  0
LINE
  8
CutLine
  6
CONTINUOUS
 62
8
 10
1622.535939
 20
324.271090
 11
1529.738549
 21
295.181948
  0
LINE
  8
ValleyLine
  6
CONTINUOUS
 62
1
 10
1627.544078
 20
597.180963
 11
1667.727269
 21
555.286144
  0
LINE
  8
ValleyLine
  6
CONTINUOUS
 62
1
 10
1667.727269
 20
555.286144
 11
1678.281003
 21
596.076843
  0
LINE
  8
CutLine
  6
CONTINUOUS
 62
8
 10
1678.281003
 20
596.076843
 11
1627.544078
 21
597.180963
  0
LINE
  8
MountainLine
  6
CONTINUOUS
 62
5
 10
1627.544078
 20
597.180963
 11
1563.285610
 21
586.880093
  0
LINE
  8
CutLine
  6
CONTINUOUS
 62
8
 10
1563.285610
 20
586.880093
 11
1616.442915
 21
558.212499
  0
LINE
  8
ValleyLine
  6
CONTINUOUS
 62
1
 10
1560.200171
 20
382.605483
 11
1596.667365
 21
370.198488
  0
LINE
  8
CutLine
  6
CONTINUOUS
 62
8
 10
1596.667365
 20
370.198488
 11
1603.005009
 21
388.642431
  0
LINE
  8
CutLine
  6
CONTINUOUS
 62
8
 10
1603.005009
 20
388.642431
 11
1560.200171
 21
382.605483
  0
LINE
  8
MountainLine
  6
CONTINUOUS
 62
5
 10
1560.200171
 20
382.605483
 11
1515.041987
 21
296.476090
  0
LINE
  8
CutLine
  6
CONTINUOUS
 62
8
 10
1515.041987
 20
296.476090
 11
1596.667365
 21
370.198488
  0
LINE
  8
ValleyLine
  6
CONTINUOUS
 62
1
 10
1720.074487
 20
260.535722
 11
1687.265432
 21
269.716247
  0
LINE
  8
MountainLine
  6
CONTINUOUS
 62
5
 10
1687.265432
 20
269.716247
 11
1675.039594
 21
254.521720
  0
LINE
  8
CutLine
  6
CONTINUOUS
 62
8
 10
1675.039594
 20
254.521720
 11
1720.074487
 21
260.535722
  0
LINE
  8
MountainLine
  6
CONTINUOUS
 62
5
 10
1639.795564
 20
261.132386
 11
1647.071155
 21
253.806533
  0
LINE
  8
ValleyLine
  6
CONTINUOUS
 62
1
 10
1647.071155
 20
253.806533
 11
1687.265432
 21
269.716247
  0
LINE
  8
MountainLine
  6
CONTINUOUS
 62
5
 10
1687.265432
 20
269.716247
 11
1639.795564
 21
261.132386
  0
LINE
  8
CutLine
  6
CONTINUOUS
 62
8
 10
1747.506195
 20
255.827186
 11
1771.075219
 21
246.077799
  0
LINE
  8
MountainLine
  6
CONTINUOUS
 62
5
 10
1771.075219
 20
246.077799
 11
1761.268793
 21
272.335132
  0
LINE
  8
MountainLine
  6
CONTINUOUS
 62
5
 10
1761.268793
 20
272.335132
 11
1747.506195
 21
255.827186
  0
LINE
  8
ValleyLine
  6
CONTINUOUS
 62
1
 10
1771.075219
 20
246.077799
 11
1792.861518
 21
233.718982
  0
LINE
  8
ValleyLine
  6
CONTINUOUS
 62
1
 10
1792.861518
 20
233.718982
 11
1761.268793
 21
272.335132
  0
LINE
  8
MountainLine
  6
CONTINUOUS
 62
5
 10
1720.074487
 20
260.535722
 11
1685.264827
 21
287.301952
  0
LINE
  8
MountainLine
  6
CONTINUOUS
 62
5
 10
1685.264827
 20
287.301952
 11
1687.265432
 21
269.716247
  0
LINE
  8
CutLine
  6
CONTINUOUS
 62
8
 10
1685.264827
 20
287.301952
 11
1639.795564
 21
261.132386
  0
LINE
  8
MountainLine
  6
CONTINUOUS
 62
5
 10
1720.074487
 20
260.535722
 11
1732.500268
 21
284.380097
  0
LINE
  8
ValleyLine
  6
CONTINUOUS
 62
1
 10
1732.500268
 20
284.380097
 11
1685.264827
 21
287.301952
  0
LINE
  8
CutLine
  6
CONTINUOUS
 62
8
 10
1761.268793
 20
272.335132
 11
1732.500268
 21
284.380097
  0
LINE
  8
ValleyLine
  6
CONTINUOUS
 62
1
 10
1720.074487
 20
260.535722
 11
1747.506195
 21
255.827186
  0
LINE
  8
CutLine
  6
CONTINUOUS
 62
8
 10
1590.492730
 20
486.959069
 11
1553.552607
 21
521.017511
  0
LINE
  8
MountainLine
  6
CONTINUOUS
 62
5
 10
1511.880160
 20
461.865575
 11
1523.874157
 21
380.280846
  0
LINE
  8
ValleyLine
  6
CONTINUOUS
 62
1
 10
1523.874157
 20
380.280846
 11
1590.492730
 21
486.959069
  0
LINE
  8
ValleyLine
  6
CONTINUOUS
 62
1
 10
1515.993303
 20
552.753719
 11
1511.880160
 21
461.865575
  0
LINE
  8
ValleyLine
  6
CONTINUOUS
 62
1
 10
1553.552607
 20
521.017511
 11
1515.993303
 21
552.753719
  0
LINE
  8
ValleyLine
  6
CONTINUOUS
 62
1
 10
1731.035581
 20
207.746675
 11
1759.840026
 21
195.787862
  0
LINE
  8
MountainLine
  6
CONTINUOUS
 62
5
 10
1661.290121
 20
241.880190
 11
1683.725631
 21
206.524884
  0
LINE
  8
ValleyLine
  6
CONTINUOUS
 62
1
 10
1706.936435
 20
244.943474
 11
1661.290121
 21
241.880190
  0
LINE
  8
CutLine
  6
CONTINUOUS
 62
8
 10
1683.725631
 20
206.524884
 11
1731.035581
 21
207.746675
  0
LINE
  8
ValleyLine
  6
CONTINUOUS
 62
1
 10
1765.462357
 20
217.065292
 11
1741.551388
 21
234.006611
  0
LINE
  8
CutLine
  6
CONTINUOUS
 62
8
 10
1741.551388
 20
234.006611
 11
1706.936435
 21
244.943474
  0
LINE
  8
CutLine
  6
CONTINUOUS
 62
8
 10
1759.840026
 20
195.787862
 11
1785.931658
 21
153.261000
  0
LINE
  8
ValleyLine
  6
CONTINUOUS
 62
1
 10
1785.931658
 20
153.261000
 11
1778.547958
 21
190.090545
  0
LINE
  8
CutLine
  6
CONTINUOUS
 62
8
 10
1778.547958
 20
190.090545
 11
1765.462357
 21
217.065292
  0
LINE
  8
ValleyLine
  6
CONTINUOUS
 62
1
 10
1644.990640
 20
171.142678
 11
1661.290121
 21
241.880190
  0
LINE
  8
CutLine
  6
CONTINUOUS
 62
8
 10
1661.290121
 20
241.880190
 11
1620.681310
 21
229.409403
  0
LINE
  8
CutLine
  6
CONTINUOUS
 62
8
 10
1577.825605
 20
211.151205
 11
1644.990640
 21
171.142678
  0
LINE
  8
ValleyLine
  6
CONTINUOUS
 62
1
 10
1620.681310
 20
229.409403
 11
1577.825605
 21
211.151205
  0
LINE
  8
ValleyLine
  6
CONTINUOUS
 62
1
 10
1644.990640
 20
171.142678
 11
1683.725631
 21
206.524884
  0
LINE
  8
MountainLine
  6
CONTINUOUS
 62
5
 10
1566.659927
 20
200.268810
 11
1504.000000
 21
151.105910
  0
LINE
  8
CutLine
  6
CONTINUOUS
 62
8
 10
1504.000000
 20
151.039658
 11
1510.804512
 21
143.343848
  0
LINE
  8
ValleyLine
  6
CONTINUOUS
 62
1
 10
1510.804512
 20
143.343848
 11
1566.659927
 21
200.268810
  0
LINE
  8
ValleyLine
  6
CONTINUOUS
 62
1
 10
1598.572203
 20
161.459574
 11
1566.659927
 21
200.268810
  0
LINE
  8
MountainLine
  6
CONTINUOUS
 62
5
 10
1510.804512
 20
143.343848
 11
1598.572203
 21
161.459574
  0
LINE
  8
MountainLine
  6
CONTINUOUS
 62
5
 10
1510.804512
 20
143.343848
 11
1562.332707
 21
84.550401
  0
LINE
  8
ValleyLine
  6
CONTINUOUS
 62
1
 10
1562.332707
 20
84.550401
 11
1598.572203
 21
161.459574
  0
LINE
  8
ValleyLine
  6
CONTINUOUS
 62
1
 10
1562.332707
 20
84.550401
 11
1631.405292
 21
124.855250
  0
LINE
  8
CutLine
  6
CONTINUOUS
 62
8
 10
1631.405292
 20
124.855250
 11
1598.572203
 21
161.459574
  0
LINE
  8
CutLine
  6
CONTINUOUS
 62
8
 10
1562.332707
 20
84.550401
 11
1623.838615
 21
78.568935
  0
LINE
  8
MountainLine
  6
CONTINUOUS
 62
5
 10
1623.838615
 20
78.568935
 11
1631.405292
 21
124.855250
  0
ENDSEC
  0
EOF
