  0
SECTION
  2
HEADER
  9
$ACADVER
  1
AC1009
  0
ENDSEC
  0
SECTION
  2
BLOCKS
  0
ENDSEC
  0
SECTION
  2
ENTITIES
  0
LINE
  8
CutLine
  6
CONTINUOUS
 62
8
 10
1446.464664
 20
245.477592
 11
1453.536194
 21
242.170244
  0
LINE
  8
CutLine
  6
CONTINUOUS
 62
8
 10
1453.536194
 20
242.170244
 11
1493.184657
 21
157.558544
  0
LINE
  8
CutLine
  6
CONTINUOUS
 62
8
 10
1493.184657
 20
157.558544
 11
1491.344877
 21
149.701090
  0
LINE
  8
CutLine
  6
CONTINUOUS
 62
8
 10
1373.011190
 20
30.030542
 11
1369.019548
 21
35.867219
  0
LINE
  8
CutLine
  6
CONTINUOUS
 62
8
 10
1369.019548
 20
35.867219
 11
1375.875507
 21
72.388227
  0
LINE
  8
CutLine
  6
CONTINUOUS
 62
8
 10
1375.875507
 20
72.388227
 11
1381.712184
 21
76.379868
  0
LINE
  8
CutLine
  6
CONTINUOUS
 62
8
 10
1472.109645
 20
83.862663
 11
1474.131739
 21
71.553552
  0
LINE
  8
CutLine
  6
CONTINUOUS
 62
8
 10
1474.131739
 20
71.553552
 11
1463.633132
 21
30.369201
  0
LINE
  8
CutLine
  6
CONTINUOUS
 62
8
 10
1463.633132
 20
30.369201
 11
1457.552988
 21
26.759235
  0
LINE
  8
CutLine
  6
CONTINUOUS
 62
8
 10
1386.569457
 20
92.843434
 11
1381.457053
 21
81.434910
  0
LINE
  8
CutLine
  6
CONTINUOUS
 62
8
 10
1381.457053
 20
81.434910
 11
1374.849550
 21
78.916793
  0
LINE
  8
CutLine
  6
CONTINUOUS
 62
8
 10
1302.835668
 20
84.045928
 11
1299.468898
 21
90.264035
  0
LINE
  8
CutLine
  6
CONTINUOUS
 62
8
 10
1299.468898
 20
90.264035
 11
1314.288147
 21
140.079503
  0
LINE
  8
CutLine
  6
CONTINUOUS
 62
8
 10
1314.288147
 20
140.079503
 11
1320.506254
 21
143.446273
  0
LINE
  8
CutLine
  6
CONTINUOUS
 62
8
 10
1345.092417
 20
192.955492
 11
1344.352737
 21
199.987766
  0
LINE
  8
CutLine
  6
CONTINUOUS
 62
8
 10
1344.352737
 20
199.987766
 11
1370.002349
 21
231.667484
  0
LINE
  8
CutLine
  6
CONTINUOUS
 62
8
 10
1370.002349
 20
231.667484
 11
1377.034622
 21
232.407163
  0
LINE
  8
CutLine
  6
CONTINUOUS
 62
8
 10
1442.359034
 20
247.159783
 11
1444.814918
 21
241.809770
  0
LINE
  8
CutLine
  6
CONTINUOUS
 62
8
 10
1354.755789
 20
36.252896
 11
1351.139621
 21
30.176439
  0
LINE
  8
CutLine
  6
CONTINUOUS
 62
8
 10
1351.139621
 20
30.176439
 11
1295.334289
 21
16.011315
  0
LINE
  8
CutLine
  6
CONTINUOUS
 62
8
 10
1295.334289
 20
16.011315
 11
1287.349726
 21
19.143146
  0
LINE
  8
CutLine
  6
CONTINUOUS
 62
8
 10
1467.501899
 20
595.697353
 11
1473.149775
 21
591.442768
  0
LINE
  8
CutLine
  6
CONTINUOUS
 62
8
 10
1473.149775
 20
591.442768
 11
1481.087297
 21
535.028908
  0
LINE
  8
CutLine
  6
CONTINUOUS
 62
8
 10
1481.087297
 20
535.028908
 11
1476.832713
 21
529.381031
  0
LINE
  8
CutLine
  6
CONTINUOUS
 62
8
 10
1401.456296
 20
357.620279
 11
1394.385257
 21
357.640573
  0
LINE
  8
CutLine
  6
CONTINUOUS
 62
8
 10
1394.385257
 20
357.640573
 11
1375.574233
 21
376.559887
  0
LINE
  8
CutLine
  6
CONTINUOUS
 62
8
 10
1375.574233
 20
376.559887
 11
1375.594528
 21
383.630926
  0
LINE
  8
CutLine
  6
CONTINUOUS
 62
8
 10
1483.793627
 20
479.098981
 11
1488.763258
 21
474.068796
  0
LINE
  8
CutLine
  6
CONTINUOUS
 62
8
 10
1488.763258
 20
474.068796
 11
1488.489085
 21
428.791763
  0
LINE
  8
CutLine
  6
CONTINUOUS
 62
8
 10
1488.489085
 20
428.791763
 11
1483.458900
 21
423.822132
  0
LINE
  8
CutLine
  6
CONTINUOUS
 62
8
 10
1394.666958
 20
439.388797
 11
1391.068636
 21
445.475839
  0
LINE
  8
CutLine
  6
CONTINUOUS
 62
8
 10
1391.068636
 20
445.475839
 11
1405.650231
 21
502.223124
  0
LINE
  8
CutLine
  6
CONTINUOUS
 62
8
 10
1405.650231
 20
502.223124
 11
1411.737273
 21
505.821447
  0
LINE
  8
CutLine
  6
CONTINUOUS
 62
8
 10
1470.922719
 20
295.751007
 11
1464.073893
 21
293.992151
  0
LINE
  8
CutLine
  6
CONTINUOUS
 62
8
 10
1464.073893
 20
293.992151
 11
1417.694104
 21
321.417860
  0
LINE
  8
CutLine
  6
CONTINUOUS
 62
8
 10
1417.694104
 20
321.417860
 11
1415.935248
 21
328.266687
  0
LINE
  8
CutLine
  6
CONTINUOUS
 62
8
 10
1478.382003
 20
362.057451
 11
1482.791702
 21
356.529833
  0
LINE
  8
CutLine
  6
CONTINUOUS
 62
8
 10
1482.791702
 20
356.529833
 11
1476.450337
 21
300.160705
  0
LINE
  8
CutLine
  6
CONTINUOUS
 62
8
 10
1476.450337
 20
300.160705
 11
1470.922719
 21
295.751007
  0
LINE
  8
CutLine
  6
CONTINUOUS
 62
8
 10
1252.103632
 20
550.653938
 11
1258.036825
 21
554.500655
  0
LINE
  8
CutLine
  6
CONTINUOUS
 62
8
 10
1258.036825
 20
554.500655
 11
1309.688627
 21
543.481100
  0
LINE
  8
CutLine
  6
CONTINUOUS
 62
8
 10
1309.688627
 20
543.481100
 11
1313.535343
 21
537.547907
  0
LINE
  8
CutLine
  6
CONTINUOUS
 62
8
 10
1315.306885
 20
476.261506
 11
1306.013394
 21
478.918736
  0
LINE
  8
CutLine
  6
CONTINUOUS
 62
8
 10
1306.013394
 20
478.918736
 11
1277.591213
 21
509.511701
  0
LINE
  8
CutLine
  6
CONTINUOUS
 62
8
 10
1277.591213
 20
509.511701
 11
1277.851135
 21
516.577990
  0
LINE
  8
CutLine
  6
CONTINUOUS
 62
8
 10
1228.762949
 20
455.507187
 11
1224.369654
 21
449.966523
  0
LINE
  8
CutLine
  6
CONTINUOUS
 62
8
 10
1224.369654
 20
449.966523
 11
1223.117257
 21
449.821872
  0
LINE
  8
CutLine
  6
CONTINUOUS
 62
8
 10
1223.117257
 20
449.821872
 11
1217.576593
 21
454.215167
  0
LINE
  8
CutLine
  6
CONTINUOUS
 62
8
 10
1207.809979
 20
508.522344
 11
1212.280634
 21
514.000779
  0
LINE
  8
CutLine
  6
CONTINUOUS
 62
8
 10
1212.280634
 20
514.000779
 11
1218.589560
 21
514.639833
  0
LINE
  8
CutLine
  6
CONTINUOUS
 62
8
 10
1218.589560
 20
514.639833
 11
1224.067995
 21
510.169179
  0
LINE
  8
CutLine
  6
CONTINUOUS
 62
8
 10
1247.107381
 20
457.535980
 11
1243.389937
 21
452.092403
  0
LINE
  8
CutLine
  6
CONTINUOUS
 62
8
 10
1243.389937
 20
452.092403
 11
1238.568735
 21
456.587725
  0
LINE
  8
CutLine
  6
CONTINUOUS
 62
8
 10
1224.067995
 20
510.169179
 11
1231.461388
 21
512.091861
  0
LINE
  8
CutLine
  6
CONTINUOUS
 62
8
 10
1231.461388
 20
512.091861
 11
1260.088287
 21
497.940221
  0
LINE
  8
CutLine
  6
CONTINUOUS
 62
8
 10
1260.088287
 20
497.940221
 11
1262.354734
 21
491.242220
  0
LINE
  8
CutLine
  6
CONTINUOUS
 62
8
 10
1293.000997
 20
374.932278
 11
1289.017924
 21
374.606120
  0
LINE
  8
CutLine
  6
CONTINUOUS
 62
8
 10
1389.555151
 20
479.809089
 11
1393.044799
 21
472.848650
  0
LINE
  8
CutLine
  6
CONTINUOUS
 62
8
 10
1393.044799
 20
472.848650
 11
1373.570193
 21
390.631432
  0
LINE
  8
CutLine
  6
CONTINUOUS
 62
8
 10
1373.570193
 20
390.631432
 11
1367.552369
 21
386.918508
  0
LINE
  8
CutLine
  6
CONTINUOUS
 62
8
 10
1333.793075
 20
314.865002
 11
1333.464771
 21
307.801560
  0
LINE
  8
CutLine
  6
CONTINUOUS
 62
8
 10
1333.464771
 20
307.801560
 11
1301.704292
 21
278.862359
  0
LINE
  8
CutLine
  6
CONTINUOUS
 62
8
 10
1301.704292
 20
278.862359
 11
1291.390921
 21
276.229424
  0
LINE
  8
CutLine
  6
CONTINUOUS
 62
8
 10
1248.286226
 20
337.819382
 11
1250.021752
 21
345.659622
  0
LINE
  8
CutLine
  6
CONTINUOUS
 62
8
 10
1250.021752
 20
345.659622
 11
1283.621090
 21
372.874997
  0
LINE
  8
CutLine
  6
CONTINUOUS
 62
8
 10
1285.205866
 20
373.383340
 11
1291.390921
 21
372.734070
  0
LINE
  8
CutLine
  6
CONTINUOUS
 62
8
 10
1204.518903
 20
275.293916
 11
1203.290018
 21
282.257381
  0
LINE
  8
CutLine
  6
CONTINUOUS
 62
8
 10
1203.290018
 20
282.257381
 11
1241.322761
 21
336.590496
  0
LINE
  8
CutLine
  6
CONTINUOUS
 62
8
 10
1241.322761
 20
336.590496
 11
1248.286226
 21
337.819382
  0
LINE
  8
CutLine
  6
CONTINUOUS
 62
8
 10
1339.942909
 20
243.002814
 11
1341.432633
 21
236.090454
  0
LINE
  8
CutLine
  6
CONTINUOUS
 62
8
 10
1341.432633
 20
236.090454
 11
1302.781709
 21
176.202923
  0
LINE
  8
CutLine
  6
CONTINUOUS
 62
8
 10
1302.781709
 20
176.202923
 11
1294.064659
 21
171.916928
  0
LINE
  8
CutLine
  6
CONTINUOUS
 62
8
 10
1239.640166
 20
117.920653
 11
1234.170027
 21
122.401455
  0
LINE
  8
CutLine
  6
CONTINUOUS
 62
8
 10
1234.170027
 20
122.401455
 11
1229.145344
 21
172.940658
  0
LINE
  8
CutLine
  6
CONTINUOUS
 62
8
 10
1229.145344
 20
172.940658
 11
1233.626145
 21
178.410797
  0
LINE
  8
CutLine
  6
CONTINUOUS
 62
8
 10
1286.660895
 20
43.152641
 11
1280.058698
 21
40.125792
  0
LINE
  8
CutLine
  6
CONTINUOUS
 62
8
 10
1280.058698
 20
40.125792
 11
1211.189698
 21
63.672422
  0
LINE
  8
CutLine
  6
CONTINUOUS
 62
8
 10
1211.189698
 20
63.672422
 11
1208.076176
 21
70.021122
  0
LINE
  8
CutLine
  6
CONTINUOUS
 62
8
 10
1283.112568
 20
136.910693
 11
1286.408108
 21
130.654543
  0
LINE
  8
CutLine
  6
CONTINUOUS
 62
8
 10
1286.408108
 20
130.654543
 11
1279.678550
 21
108.943251
  0
LINE
  8
CutLine
  6
CONTINUOUS
 62
8
 10
1279.678550
 20
108.943251
 11
1273.422400
 21
105.647711
  0
LINE
  8
ValleyLine
  6
CONTINUOUS
 62
1
 10
1419.547382
 20
185.633370
 11
1397.128632
 21
128.633408
  0
LINE
  8
ValleyLine
  6
CONTINUOUS
 62
1
 10
1491.344877
 20
149.701090
 11
1446.464664
 21
245.477592
  0
LINE
  8
CutLine
  6
CONTINUOUS
 62
8
 10
1446.464664
 20
245.477592
 11
1419.547382
 21
185.633370
  0
LINE
  8
CutLine
  6
CONTINUOUS
 62
8
 10
1397.128632
 20
128.633408
 11
1381.712184
 21
76.379868
  0
LINE
  8
MountainLine
  6
CONTINUOUS
 62
5
 10
1381.712184
 20
76.379868
 11
1472.109645
 21
83.862663
  0
LINE
  8
CutLine
  6
CONTINUOUS
 62
8
 10
1472.109645
 20
83.862663
 11
1491.344877
 21
149.701090
  0
LINE
  8
CutLine
  6
CONTINUOUS
 62
8
 10
1373.011190
 20
30.030542
 11
1457.552988
 21
26.759235
  0
LINE
  8
ValleyLine
  6
CONTINUOUS
 62
1
 10
1457.552988
 20
26.759235
 11
1381.712184
 21
76.379868
  0
LINE
  8
ValleyLine
  6
CONTINUOUS
 62
1
 10
1381.712184
 20
76.379868
 11
1373.011190
 21
30.030542
  0
LINE
  8
ValleyLine
  6
CONTINUOUS
 62
1
 10
1457.552988
 20
26.759235
 11
1472.109645
 21
83.862663
  0
LINE
  8
CutLine
  6
CONTINUOUS
 62
8
 10
1354.755789
 20
36.252896
 11
1374.849550
 21
78.916793
  0
LINE
  8
ValleyLine
  6
CONTINUOUS
 62
1
 10
1374.849550
 20
78.916793
 11
1302.835668
 21
84.045928
  0
LINE
  8
MountainLine
  6
CONTINUOUS
 62
5
 10
1302.835668
 20
84.045928
 11
1354.755789
 21
36.252896
  0
LINE
  8
ValleyLine
  6
CONTINUOUS
 62
1
 10
1374.849550
 20
78.916793
 11
1397.128632
 21
128.633408
  0
LINE
  8
ValleyLine
  6
CONTINUOUS
 62
1
 10
1397.128632
 20
128.633408
 11
1320.506254
 21
143.446273
  0
LINE
  8
MountainLine
  6
CONTINUOUS
 62
5
 10
1320.506254
 20
143.446273
 11
1374.849550
 21
78.916793
  0
LINE
  8
ValleyLine
  6
CONTINUOUS
 62
1
 10
1320.506254
 20
143.446273
 11
1302.835668
 21
84.045928
  0
LINE
  8
ValleyLine
  6
CONTINUOUS
 62
1
 10
1419.547382
 20
185.633370
 11
1345.092417
 21
192.955492
  0
LINE
  8
MountainLine
  6
CONTINUOUS
 62
5
 10
1345.092417
 20
192.955492
 11
1397.128632
 21
128.633408
  0
LINE
  8
CutLine
  6
CONTINUOUS
 62
8
 10
1345.092417
 20
192.955492
 11
1320.506254
 21
143.446273
  0
LINE
  8
ValleyLine
  6
CONTINUOUS
 62
1
 10
1377.034622
 20
232.407163
 11
1345.092417
 21
192.955492
  0
LINE
  8
MountainLine
  6
CONTINUOUS
 62
5
 10
1419.547382
 20
185.633370
 11
1377.034622
 21
232.407163
  0
LINE
  8
CutLine
  6
CONTINUOUS
 62
8
 10
1442.359034
 20
247.159783
 11
1377.034622
 21
232.407163
  0
LINE
  8
ValleyLine
  6
CONTINUOUS
 62
1
 10
1419.547382
 20
185.633370
 11
1442.359034
 21
247.159783
  0
LINE
  8
CutLine
  6
CONTINUOUS
 62
8
 10
1302.835668
 20
84.045928
 11
1287.349726
 21
19.143146
  0
LINE
  8
ValleyLine
  6
CONTINUOUS
 62
1
 10
1287.349726
 20
19.143146
 11
1354.755789
 21
36.252896
  0
LINE
  8
ValleyLine
  6
CONTINUOUS
 62
1
 10
1411.737273
 20
505.821447
 11
1476.832713
 21
529.381031
  0
LINE
  8
ValleyLine
  6
CONTINUOUS
 62
1
 10
1476.832713
 20
529.381031
 11
1467.501899
 21
595.697353
  0
LINE
  8
CutLine
  6
CONTINUOUS
 62
8
 10
1467.501899
 20
595.697353
 11
1411.737273
 21
505.821447
  0
LINE
  8
CutLine
  6
CONTINUOUS
 62
8
 10
1394.666958
 20
439.388797
 11
1375.594528
 21
383.630926
  0
LINE
  8
MountainLine
  6
CONTINUOUS
 62
5
 10
1375.594528
 20
383.630926
 11
1401.456296
 21
357.620279
  0
LINE
  8
ValleyLine
  6
CONTINUOUS
 62
1
 10
1401.456296
 20
357.620279
 11
1394.666958
 21
439.388797
  0
LINE
  8
ValleyLine
  6
CONTINUOUS
 62
1
 10
1401.456296
 20
357.620279
 11
1483.458900
 21
423.822132
  0
LINE
  8
MountainLine
  6
CONTINUOUS
 62
5
 10
1483.458900
 20
423.822132
 11
1394.666958
 21
439.388797
  0
LINE
  8
ValleyLine
  6
CONTINUOUS
 62
1
 10
1483.458900
 20
423.822132
 11
1483.793627
 21
479.098981
  0
LINE
  8
ValleyLine
  6
CONTINUOUS
 62
1
 10
1483.793627
 20
479.098981
 11
1411.737273
 21
505.821447
  0
LINE
  8
ValleyLine
  6
CONTINUOUS
 62
1
 10
1411.737273
 20
505.821447
 11
1394.666958
 21
439.388797
  0
LINE
  8
CutLine
  6
CONTINUOUS
 62
8
 10
1483.793627
 20
479.098981
 11
1476.832713
 21
529.381031
  0
LINE
  8
CutLine
  6
CONTINUOUS
 62
8
 10
1401.456296
 20
357.620279
 11
1415.935248
 21
328.266687
  0
LINE
  8
ValleyLine
  6
CONTINUOUS
 62
1
 10
1415.935248
 20
328.266687
 11
1478.382003
 21
362.057451
  0
LINE
  8
MountainLine
  6
CONTINUOUS
 62
5
 10
1415.935248
 20
328.266687
 11
1470.922719
 21
295.751007
  0
LINE
  8
ValleyLine
  6
CONTINUOUS
 62
1
 10
1470.922719
 20
295.751007
 11
1478.382003
 21
362.057451
  0
LINE
  8
CutLine
  6
CONTINUOUS
 62
8
 10
1478.382003
 20
362.057451
 11
1483.458900
 21
423.822132
  0
LINE
  8
MountainLine
  6
CONTINUOUS
 62
5
 10
1277.851135
 20
516.577990
 11
1313.535343
 21
537.547907
  0
LINE
  8
ValleyLine
  6
CONTINUOUS
 62
1
 10
1313.535343
 20
537.547907
 11
1252.103632
 21
550.653938
  0
LINE
  8
CutLine
  6
CONTINUOUS
 62
8
 10
1252.103632
 20
550.653938
 11
1277.851135
 21
516.577990
  0
LINE
  8
ValleyLine
  6
CONTINUOUS
 62
1
 10
1315.306885
 20
476.261506
 11
1389.555151
 21
479.809089
  0
LINE
  8
CutLine
  6
CONTINUOUS
 62
8
 10
1389.555151
 20
479.809089
 11
1313.535343
 21
537.547907
  0
LINE
  8
MountainLine
  6
CONTINUOUS
 62
5
 10
1313.535343
 20
537.547907
 11
1315.306885
 21
476.261506
  0
LINE
  8
ValleyLine
  6
CONTINUOUS
 62
1
 10
1277.851135
 20
516.577990
 11
1315.306885
 21
476.261506
  0
LINE
  8
ValleyLine
  6
CONTINUOUS
 62
1
 10
1217.576593
 20
454.215167
 11
1228.762949
 21
455.507187
  0
LINE
  8
ValleyLine
  6
CONTINUOUS
 62
1
 10
1224.067995
 20
510.169179
 11
1207.809979
 21
508.522344
  0
LINE
  8
CutLine
  6
CONTINUOUS
 62
8
 10
1207.809979
 20
508.522344
 11
1217.576593
 21
454.215167
  0
LINE
  8
CutLine
  6
CONTINUOUS
 62
8
 10
1228.762949
 20
455.507187
 11
1238.568735
 21
456.587725
  0
LINE
  8
ValleyLine
  6
CONTINUOUS
 62
1
 10
1238.568735
 20
456.587725
 11
1247.107381
 21
457.535980
  0
LINE
  8
ValleyLine
  6
CONTINUOUS
 62
1
 10
1247.107381
 20
457.535980
 11
1224.067995
 21
510.169179
  0
LINE
  8
MountainLine
  6
CONTINUOUS
 62
5
 10
1247.107381
 20
457.535980
 11
1262.354734
 21
491.242220
  0
LINE
  8
ValleyLine
  6
CONTINUOUS
 62
1
 10
1262.354734
 20
491.242220
 11
1224.067995
 21
510.169179
  0
LINE
  8
ValleyLine
  6
CONTINUOUS
 62
1
 10
1247.107381
 20
457.535980
 11
1315.306885
 21
476.261506
  0
LINE
  8
CutLine
  6
CONTINUOUS
 62
8
 10
1315.306885
 20
476.261506
 11
1262.354734
 21
491.242220
  0
LINE
  8
ValleyLine
  6
CONTINUOUS
 62
1
 10
1289.017924
 20
374.606120
 11
1316.368228
 21
406.835140
  0
LINE
  8
ValleyLine
  6
CONTINUOUS
 62
1
 10
1316.368228
 20
406.835140
 11
1315.306885
 21
476.261506
  0
LINE
  8
MountainLine
  6
CONTINUOUS
 62
5
 10
1315.306885
 20
476.261506
 11
1289.017924
 21
374.606120
  0
LINE
  8
CutLine
  6
CONTINUOUS
 62
8
 10
1247.107381
 20
457.535980
 11
1236.197611
 21
357.663138
  0
LINE
  8
ValleyLine
  6
CONTINUOUS
 62
1
 10
1236.197611
 20
357.663138
 11
1315.306885
 21
476.261506
  0
LINE
  8
CutLine
  6
CONTINUOUS
 62
8
 10
1236.197611
 20
357.663138
 11
1289.017924
 21
374.606120
  0
LINE
  8
ValleyLine
  6
CONTINUOUS
 62
1
 10
1316.368228
 20
406.835140
 11
1389.555151
 21
479.809089
  0
LINE
  8
MountainLine
  6
CONTINUOUS
 62
5
 10
1316.368228
 20
406.835140
 11
1367.552369
 21
386.918508
  0
LINE
  8
ValleyLine
  6
CONTINUOUS
 62
1
 10
1367.552369
 20
386.918508
 11
1389.555151
 21
479.809089
  0
LINE
  8
ValleyLine
  6
CONTINUOUS
 62
1
 10
1291.390921
 20
372.734070
 11
1291.390921
 21
276.229424
  0
LINE
  8
MountainLine
  6
CONTINUOUS
 62
5
 10
1291.390921
 20
276.229424
 11
1333.793075
 21
314.865002
  0
LINE
  8
ValleyLine
  6
CONTINUOUS
 62
1
 10
1333.793075
 20
314.865002
 11
1367.552369
 21
386.918508
  0
LINE
  8
CutLine
  6
CONTINUOUS
 62
8
 10
1316.368228
 20
406.835140
 11
1291.390921
 21
372.734070
  0
LINE
  8
ValleyLine
  6
CONTINUOUS
 62
1
 10
1291.390921
 20
372.734070
 11
1248.286226
 21
337.819382
  0
LINE
  8
CutLine
  6
CONTINUOUS
 62
8
 10
1204.518903
 20
275.293916
 11
1291.390921
 21
276.229424
  0
LINE
  8
ValleyLine
  6
CONTINUOUS
 62
1
 10
1248.286226
 20
337.819382
 11
1204.518903
 21
275.293916
  0
LINE
  8
CutLine
  6
CONTINUOUS
 62
8
 10
1333.793075
 20
314.865002
 11
1392.815997
 21
329.408750
  0
LINE
  8
CutLine
  6
CONTINUOUS
 62
8
 10
1392.815997
 20
329.408750
 11
1367.552369
 21
386.918508
  0
LINE
  8
ValleyLine
  6
CONTINUOUS
 62
1
 10
1307.093533
 20
266.782618
 11
1339.942909
 21
243.002814
  0
LINE
  8
CutLine
  6
CONTINUOUS
 62
8
 10
1339.942909
 20
243.002814
 11
1341.890687
 21
312.519194
  0
LINE
  8
CutLine
  6
CONTINUOUS
 62
8
 10
1341.890687
 20
312.519194
 11
1307.093533
 21
266.782618
  0
LINE
  8
CutLine
  6
CONTINUOUS
 62
8
 10
1228.944241
 20
194.066943
 11
1233.626145
 21
178.410797
  0
LINE
  8
ValleyLine
  6
CONTINUOUS
 62
1
 10
1233.626145
 20
178.410797
 11
1294.064659
 21
171.916928
  0
LINE
  8
MountainLine
  6
CONTINUOUS
 62
5
 10
1339.942909
 20
243.002814
 11
1228.944241
 21
194.066943
  0
LINE
  8
ValleyLine
  6
CONTINUOUS
 62
1
 10
1294.064659
 20
171.916928
 11
1339.942909
 21
243.002814
  0
LINE
  8
CutLine
  6
CONTINUOUS
 62
8
 10
1307.093533
 20
266.782618
 11
1228.944241
 21
194.066943
  0
LINE
  8
ValleyLine
  6
CONTINUOUS
 62
1
 10
1283.112568
 20
136.910693
 11
1233.626145
 21
178.410797
  0
LINE
  8
MountainLine
  6
CONTINUOUS
 62
5
 10
1233.626145
 20
178.410797
 11
1239.640166
 21
117.920653
  0
LINE
  8
ValleyLine
  6
CONTINUOUS
 62
1
 10
1239.640166
 20
117.920653
 11
1283.112568
 21
136.910693
  0
LINE
  8
CutLine
  6
CONTINUOUS
 62
8
 10
1283.112568
 20
136.910693
 11
1294.064659
 21
171.916928
  0
LINE
  8
ValleyLine
  6
CONTINUOUS
 62
1
 10
1208.076176
 20
70.021122
 11
1286.660895
 21
43.152641
  0
LINE
  8
CutLine
  6
CONTINUOUS
 62
8
 10
1286.660895
 20
43.152641
 11
1273.422400
 21
105.647711
  0
LINE
  8
MountainLine
  6
CONTINUOUS
 62
5
 10
1273.422400
 20
105.647711
 11
1208.076176
 21
70.021122
  0
LINE
  8
CutLine
  6
CONTINUOUS
 62
8
 10
1239.640166
 20
117.920653
 11
1208.076176
 21
70.021122
  0
LINE
  8
MountainLine
  6
CONTINUOUS
 62
5
 10
1273.422400
 20
105.647711
 11
1283.112568
 21
136.910693
  0
ENDSEC
  0
EOF
