  0
SECTION
  2
HEADER
  9
$ACADVER
  1
AC1009
  0
ENDSEC
  0
SECTION
  2
BLOCKS
  0
ENDSEC
  0
SECTION
  2
ENTITIES
  0
LINE
  8
CutLine
  6
CONTINUOUS
 62
8
 10
759.378207
 20
362.025931
 11
760.899282
 21
368.931460
  0
LINE
  8
CutLine
  6
CONTINUOUS
 62
8
 10
760.899282
 20
368.931460
 11
802.076485
 21
395.242981
  0
LINE
  8
CutLine
  6
CONTINUOUS
 62
8
 10
802.076485
 20
395.242981
 11
810.270499
 21
394.545227
  0
LINE
  8
CutLine
  6
CONTINUOUS
 62
8
 10
866.048883
 20
333.419835
 11
859.187599
 21
330.766579
  0
LINE
  8
CutLine
  6
CONTINUOUS
 62
8
 10
859.187599
 20
330.766579
 11
815.182702
 21
348.257811
  0
LINE
  8
CutLine
  6
CONTINUOUS
 62
8
 10
815.182702
 20
348.257811
 11
812.383168
 21
354.751085
  0
LINE
  8
CutLine
  6
CONTINUOUS
 62
8
 10
836.160175
 20
420.640047
 11
831.689874
 21
425.271669
  0
LINE
  8
CutLine
  6
CONTINUOUS
 62
8
 10
831.689874
 20
425.271669
 11
837.145464
 21
428.688107
  0
LINE
  8
CutLine
  6
CONTINUOUS
 62
8
 10
881.924385
 20
402.408721
 11
884.058903
 21
395.667517
  0
LINE
  8
CutLine
  6
CONTINUOUS
 62
8
 10
884.058903
 20
395.667517
 11
875.985536
 21
380.112527
  0
LINE
  8
CutLine
  6
CONTINUOUS
 62
8
 10
875.985536
 20
380.112527
 11
869.244332
 21
377.978009
  0
LINE
  8
CutLine
  6
CONTINUOUS
 62
8
 10
894.822227
 20
504.393671
 11
898.993664
 21
498.684108
  0
LINE
  8
CutLine
  6
CONTINUOUS
 62
8
 10
898.993664
 20
498.684108
 11
893.551581
 21
463.723862
  0
LINE
  8
CutLine
  6
CONTINUOUS
 62
8
 10
893.551581
 20
463.723862
 11
887.842018
 21
459.552424
  0
LINE
  8
CutLine
  6
CONTINUOUS
 62
8
 10
850.325737
 20
455.193875
 11
840.968424
 21
475.575391
  0
LINE
  8
CutLine
  6
CONTINUOUS
 62
8
 10
840.968424
 20
475.575391
 11
841.400567
 21
497.998120
  0
LINE
  8
CutLine
  6
CONTINUOUS
 62
8
 10
864.094342
 20
547.150844
 11
871.072531
 21
546.008535
  0
LINE
  8
CutLine
  6
CONTINUOUS
 62
8
 10
871.072531
 20
546.008535
 11
895.964536
 21
511.371860
  0
LINE
  8
CutLine
  6
CONTINUOUS
 62
8
 10
895.964536
 20
511.371860
 11
894.822227
 21
504.393671
  0
LINE
  8
CutLine
  6
CONTINUOUS
 62
8
 10
798.551123
 20
491.962130
 11
793.871410
 21
486.661160
  0
LINE
  8
CutLine
  6
CONTINUOUS
 62
8
 10
793.871410
 20
486.661160
 11
752.243669
 21
484.070004
  0
LINE
  8
CutLine
  6
CONTINUOUS
 62
8
 10
752.243669
 20
484.070004
 11
744.016394
 21
488.567566
  0
LINE
  8
CutLine
  6
CONTINUOUS
 62
8
 10
744.016394
 20
488.567566
 11
739.016394
 21
493.567566
  0
LINE
  8
CutLine
  6
CONTINUOUS
 62
8
 10
739.016394
 20
493.567566
 11
739.016394
 21
592.991706
  0
LINE
  8
CutLine
  6
CONTINUOUS
 62
8
 10
739.016394
 20
592.991706
 11
744.016394
 21
600.166641
  0
LINE
  8
CutLine
  6
CONTINUOUS
 62
8
 10
744.016394
 20
600.166641
 11
751.085732
 21
600.323051
  0
LINE
  8
CutLine
  6
CONTINUOUS
 62
8
 10
751.085732
 20
600.323051
 11
811.320820
 21
542.695683
  0
LINE
  8
CutLine
  6
CONTINUOUS
 62
8
 10
811.320820
 20
542.695683
 11
811.477230
 21
535.626346
  0
LINE
  8
CutLine
  6
CONTINUOUS
 62
8
 10
622.450537
 20
123.187764
 11
617.374793
 21
128.110855
  0
LINE
  8
CutLine
  6
CONTINUOUS
 62
8
 10
617.374793
 20
128.110855
 11
617.150545
 21
142.799212
  0
LINE
  8
CutLine
  6
CONTINUOUS
 62
8
 10
617.150545
 20
142.799212
 11
622.073635
 21
147.874956
  0
LINE
  8
CutLine
  6
CONTINUOUS
 62
8
 10
738.434211
 20
313.238378
 11
745.699160
 21
317.091851
  0
LINE
  8
CutLine
  6
CONTINUOUS
 62
8
 10
745.699160
 20
317.091851
 11
793.894327
 21
309.024377
  0
LINE
  8
CutLine
  6
CONTINUOUS
 62
8
 10
793.894327
 20
309.024377
 11
798.000241
 21
303.267515
  0
LINE
  8
CutLine
  6
CONTINUOUS
 62
8
 10
677.813221
 20
353.335463
 11
692.316679
 21
347.528695
  0
LINE
  8
CutLine
  6
CONTINUOUS
 62
8
 10
692.316679
 20
347.528695
 11
700.327578
 21
334.116225
  0
LINE
  8
CutLine
  6
CONTINUOUS
 62
8
 10
690.672097
 20
274.882595
 11
683.633647
 21
274.204200
  0
LINE
  8
CutLine
  6
CONTINUOUS
 62
8
 10
683.633647
 20
274.204200
 11
670.109627
 21
285.350403
  0
LINE
  8
CutLine
  6
CONTINUOUS
 62
8
 10
670.109627
 20
285.350403
 11
669.431232
 21
292.388853
  0
LINE
  8
CutLine
  6
CONTINUOUS
 62
8
 10
700.327578
 20
334.116225
 11
706.685708
 21
333.111384
  0
LINE
  8
CutLine
  6
CONTINUOUS
 62
8
 10
706.685708
 20
333.111384
 11
704.388376
 21
327.098250
  0
LINE
  8
CutLine
  6
CONTINUOUS
 62
8
 10
669.247698
 20
396.213125
 11
678.433583
 21
375.753774
  0
LINE
  8
CutLine
  6
CONTINUOUS
 62
8
 10
678.433583
 20
375.753774
 11
677.813221
 21
353.335463
  0
LINE
  8
CutLine
  6
CONTINUOUS
 62
8
 10
629.104798
 20
432.538671
 11
623.375024
 21
436.682303
  0
LINE
  8
CutLine
  6
CONTINUOUS
 62
8
 10
623.375024
 20
436.682303
 11
616.499613
 21
479.480334
  0
LINE
  8
CutLine
  6
CONTINUOUS
 62
8
 10
616.499613
 20
479.480334
 11
620.643246
 21
485.210108
  0
LINE
  8
CutLine
  6
CONTINUOUS
 62
8
 10
620.643246
 20
485.210108
 11
627.727243
 21
486.376523
  0
LINE
  8
CutLine
  6
CONTINUOUS
 62
8
 10
627.727243
 20
486.376523
 11
680.775821
 21
449.518004
  0
LINE
  8
CutLine
  6
CONTINUOUS
 62
8
 10
680.775821
 20
449.518004
 11
682.028991
 21
442.558869
  0
LINE
  8
CutLine
  6
CONTINUOUS
 62
8
 10
762.536517
 20
425.705643
 11
756.730258
 21
418.343341
  0
LINE
  8
CutLine
  6
CONTINUOUS
 62
8
 10
756.730258
 20
418.343341
 11
717.417511
 21
404.411694
  0
LINE
  8
CutLine
  6
CONTINUOUS
 62
8
 10
717.417511
 20
404.411694
 11
711.034562
 21
407.454386
  0
LINE
  8
CutLine
  6
CONTINUOUS
 62
8
 10
802.930942
 20
589.573297
 11
809.046081
 21
593.123659
  0
LINE
  8
CutLine
  6
CONTINUOUS
 62
8
 10
809.046081
 20
593.123659
 11
823.244770
 21
589.355984
  0
LINE
  8
CutLine
  6
CONTINUOUS
 62
8
 10
823.244770
 20
589.355984
 11
826.795132
 21
583.240844
  0
LINE
  8
CutLine
  6
CONTINUOUS
 62
8
 10
886.379132
 20
285.646912
 11
891.442412
 21
280.711003
  0
LINE
  8
CutLine
  6
CONTINUOUS
 62
8
 10
891.442412
 20
280.711003
 11
892.017239
 21
235.584437
  0
LINE
  8
CutLine
  6
CONTINUOUS
 62
8
 10
892.017239
 20
235.584437
 11
887.081330
 21
230.521157
  0
LINE
  8
CutLine
  6
CONTINUOUS
 62
8
 10
887.081330
 20
230.521157
 11
891.819977
 21
225.272803
  0
LINE
  8
CutLine
  6
CONTINUOUS
 62
8
 10
891.819977
 20
225.272803
 11
889.804233
 21
185.777155
  0
LINE
  8
CutLine
  6
CONTINUOUS
 62
8
 10
889.804233
 20
185.777155
 11
884.555879
 21
181.038508
  0
LINE
  8
CutLine
  6
CONTINUOUS
 62
8
 10
827.544872
 20
174.333726
 11
824.223268
 21
181.297914
  0
LINE
  8
CutLine
  6
CONTINUOUS
 62
8
 10
824.223268
 20
181.297914
 11
835.179171
 21
222.491260
  0
LINE
  8
CutLine
  6
CONTINUOUS
 62
8
 10
835.179171
 20
222.491260
 11
841.296330
 21
226.038142
  0
LINE
  8
CutLine
  6
CONTINUOUS
 62
8
 10
781.423665
 20
91.052407
 11
790.174633
 21
91.161350
  0
LINE
  8
CutLine
  6
CONTINUOUS
 62
8
 10
790.174633
 20
91.161350
 11
836.414930
 21
59.819990
  0
LINE
  8
CutLine
  6
CONTINUOUS
 62
8
 10
836.414930
 20
59.819990
 11
837.748504
 21
52.875814
  0
LINE
  8
CutLine
  6
CONTINUOUS
 62
8
 10
883.268338
 20
65.521682
 11
885.392277
 21
58.777138
  0
LINE
  8
CutLine
  6
CONTINUOUS
 62
8
 10
885.392277
 20
58.777138
 11
865.363438
 21
20.335124
  0
LINE
  8
CutLine
  6
CONTINUOUS
 62
8
 10
865.363438
 20
20.335124
 11
858.618893
 21
18.211186
  0
LINE
  8
CutLine
  6
CONTINUOUS
 62
8
 10
805.273283
 20
18.563521
 11
798.701199
 21
15.954363
  0
LINE
  8
CutLine
  6
CONTINUOUS
 62
8
 10
798.701199
 20
15.954363
 11
761.818854
 21
31.873997
  0
LINE
  8
CutLine
  6
CONTINUOUS
 62
8
 10
761.818854
 20
31.873997
 11
756.930935
 21
39.429669
  0
LINE
  8
CutLine
  6
CONTINUOUS
 62
8
 10
830.363735
 20
120.517554
 11
825.609099
 21
115.283680
  0
LINE
  8
CutLine
  6
CONTINUOUS
 62
8
 10
825.609099
 20
115.283680
 11
801.126044
 21
114.109010
  0
LINE
  8
CutLine
  6
CONTINUOUS
 62
8
 10
801.126044
 20
114.109010
 11
795.892170
 21
118.863646
  0
LINE
  8
CutLine
  6
CONTINUOUS
 62
8
 10
795.892170
 20
118.863646
 11
793.302680
 21
125.443504
  0
LINE
  8
CutLine
  6
CONTINUOUS
 62
8
 10
793.302680
 20
125.443504
 11
807.260417
 21
157.516583
  0
LINE
  8
CutLine
  6
CONTINUOUS
 62
8
 10
807.260417
 20
157.516583
 11
813.840276
 21
160.106074
  0
LINE
  8
CutLine
  6
CONTINUOUS
 62
8
 10
737.520698
 20
80.797154
 11
741.953557
 21
75.288092
  0
LINE
  8
CutLine
  6
CONTINUOUS
 62
8
 10
741.953557
 20
75.288092
 11
739.073760
 21
48.684630
  0
LINE
  8
CutLine
  6
CONTINUOUS
 62
8
 10
739.073760
 20
48.684630
 11
733.564699
 21
44.251771
  0
LINE
  8
CutLine
  6
CONTINUOUS
 62
8
 10
673.678607
 20
18.777970
 11
672.797749
 21
26.916916
  0
LINE
  8
CutLine
  6
CONTINUOUS
 62
8
 10
672.797749
 20
26.916916
 11
687.583825
 21
51.076066
  0
LINE
  8
CutLine
  6
CONTINUOUS
 62
8
 10
687.583825
 20
51.076066
 11
694.458590
 21
52.730638
  0
LINE
  8
CutLine
  6
CONTINUOUS
 62
8
 10
701.504406
 20
78.765143
 11
708.543846
 21
78.097092
  0
LINE
  8
CutLine
  6
CONTINUOUS
 62
8
 10
708.543846
 20
78.097092
 11
713.837476
 21
71.693369
  0
LINE
  8
CutLine
  6
CONTINUOUS
 62
8
 10
713.837476
 20
71.693369
 11
713.169424
 21
64.653929
  0
LINE
  8
CutLine
  6
CONTINUOUS
 62
8
 10
617.262785
 20
20.100385
 11
612.262785
 21
26.133647
  0
LINE
  8
CutLine
  6
CONTINUOUS
 62
8
 10
612.262785
 20
26.133647
 11
612.262785
 21
106.080037
  0
LINE
  8
CutLine
  6
CONTINUOUS
 62
8
 10
612.262785
 20
106.080037
 11
617.262785
 21
111.080037
  0
LINE
  8
CutLine
  6
CONTINUOUS
 62
8
 10
669.845391
 20
50.783860
 11
672.746507
 21
44.335331
  0
LINE
  8
CutLine
  6
CONTINUOUS
 62
8
 10
672.746507
 20
44.335331
 11
664.112746
 21
21.579990
  0
LINE
  8
CutLine
  6
CONTINUOUS
 62
8
 10
664.112746
 20
21.579990
 11
657.138434
 21
17.293109
  0
LINE
  8
CutLine
  6
CONTINUOUS
 62
8
 10
670.376729
 20
123.904572
 11
673.401239
 21
130.296156
  0
LINE
  8
CutLine
  6
CONTINUOUS
 62
8
 10
673.401239
 20
130.296156
 11
689.851228
 21
136.178460
  0
LINE
  8
CutLine
  6
CONTINUOUS
 62
8
 10
710.084860
 20
339.511020
 11
705.084860
 21
344.511020
  0
LINE
  8
CutLine
  6
CONTINUOUS
 62
8
 10
705.084860
 20
344.511020
 11
705.084860
 21
364.112969
  0
LINE
  8
CutLine
  6
CONTINUOUS
 62
8
 10
705.084860
 20
364.112969
 11
710.084860
 21
369.112969
  0
LINE
  8
CutLine
  6
CONTINUOUS
 62
8
 10
710.084860
 20
369.112969
 11
711.490112
 21
376.042995
  0
LINE
  8
CutLine
  6
CONTINUOUS
 62
8
 10
711.490112
 20
376.042995
 11
721.684693
 21
382.800151
  0
LINE
  8
CutLine
  6
CONTINUOUS
 62
8
 10
721.684693
 20
382.800151
 11
728.614719
 21
381.394899
  0
LINE
  8
CutLine
  6
CONTINUOUS
 62
8
 10
828.405188
 20
232.399301
 11
830.529282
 21
225.654804
  0
LINE
  8
CutLine
  6
CONTINUOUS
 62
8
 10
830.529282
 20
225.654804
 11
808.557748
 21
183.481747
  0
LINE
  8
CutLine
  6
CONTINUOUS
 62
8
 10
808.557748
 20
183.481747
 11
801.722487
 21
181.183437
  0
LINE
  8
CutLine
  6
CONTINUOUS
 62
8
 10
740.858062
 20
167.331454
 11
739.074037
 21
174.173768
  0
LINE
  8
CutLine
  6
CONTINUOUS
 62
8
 10
739.074037
 20
174.173768
 11
759.078075
 21
208.288396
  0
LINE
  8
CutLine
  6
CONTINUOUS
 62
8
 10
759.078075
 20
208.288396
 11
765.920388
 21
210.072422
  0
LINE
  8
CutLine
  6
CONTINUOUS
 62
8
 10
796.779015
 20
255.757070
 11
797.167784
 21
264.395046
  0
LINE
  8
CutLine
  6
CONTINUOUS
 62
8
 10
797.167784
 20
264.395046
 11
825.975937
 21
301.394358
  0
LINE
  8
CutLine
  6
CONTINUOUS
 62
8
 10
825.975937
 20
301.394358
 11
832.992857
 21
302.267765
  0
LINE
  8
CutLine
  6
CONTINUOUS
 62
8
 10
801.722487
 20
181.183437
 11
804.887044
 21
174.860022
  0
LINE
  8
CutLine
  6
CONTINUOUS
 62
8
 10
804.887044
 20
174.860022
 11
791.422292
 21
134.417174
  0
LINE
  8
CutLine
  6
CONTINUOUS
 62
8
 10
791.422292
 20
134.417174
 11
784.822011
 21
130.421018
  0
LINE
  8
CutLine
  6
CONTINUOUS
 62
8
 10
664.006025
 20
468.064103
 11
657.315861
 21
470.353582
  0
LINE
  8
CutLine
  6
CONTINUOUS
 62
8
 10
657.315861
 20
470.353582
 11
641.922892
 21
501.763092
  0
LINE
  8
CutLine
  6
CONTINUOUS
 62
8
 10
641.922892
 20
501.763092
 11
644.212371
 21
508.453255
  0
LINE
  8
CutLine
  6
CONTINUOUS
 62
8
 10
678.723460
 20
508.358926
 11
683.382819
 21
503.040057
  0
LINE
  8
CutLine
  6
CONTINUOUS
 62
8
 10
683.382819
 20
503.040057
 11
680.855398
 21
464.800734
  0
LINE
  8
CutLine
  6
CONTINUOUS
 62
8
 10
680.855398
 20
464.800734
 11
675.532052
 21
460.073641
  0
LINE
  8
CutLine
  6
CONTINUOUS
 62
8
 10
672.965956
 20
600.812264
 11
680.008546
 21
601.446240
  0
LINE
  8
CutLine
  6
CONTINUOUS
 62
8
 10
680.008546
 20
601.446240
 11
713.418077
 21
573.555022
  0
LINE
  8
CutLine
  6
CONTINUOUS
 62
8
 10
713.418077
 20
573.555022
 11
714.052054
 21
566.512432
  0
LINE
  8
CutLine
  6
CONTINUOUS
 62
8
 10
615.746449
 20
527.965187
 11
611.128432
 21
534.721574
  0
LINE
  8
CutLine
  6
CONTINUOUS
 62
8
 10
611.128432
 20
534.721574
 11
614.390766
 21
591.192280
  0
LINE
  8
CutLine
  6
CONTINUOUS
 62
8
 10
614.390766
 20
591.192280
 11
619.670814
 21
595.895586
  0
LINE
  8
CutLine
  6
CONTINUOUS
 62
8
 10
733.545092
 20
222.802102
 11
739.054154
 21
218.369243
  0
LINE
  8
CutLine
  6
CONTINUOUS
 62
8
 10
739.054154
 20
218.369243
 11
741.933950
 21
191.765781
  0
LINE
  8
CutLine
  6
CONTINUOUS
 62
8
 10
741.933950
 20
191.765781
 11
737.501091
 21
186.256719
  0
LINE
  8
CutLine
  6
CONTINUOUS
 62
8
 10
694.438983
 20
214.323234
 11
687.564219
 21
215.977806
  0
LINE
  8
CutLine
  6
CONTINUOUS
 62
8
 10
687.564219
 20
215.977806
 11
672.778143
 21
240.136957
  0
LINE
  8
CutLine
  6
CONTINUOUS
 62
8
 10
672.778143
 20
240.136957
 11
673.659000
 21
248.275903
  0
LINE
  8
CutLine
  6
CONTINUOUS
 62
8
 10
713.149818
 20
202.399944
 11
713.817869
 21
195.360504
  0
LINE
  8
CutLine
  6
CONTINUOUS
 62
8
 10
713.817869
 20
195.360504
 11
708.524239
 21
188.956781
  0
LINE
  8
CutLine
  6
CONTINUOUS
 62
8
 10
708.524239
 20
188.956781
 11
701.484800
 21
188.288730
  0
LINE
  8
CutLine
  6
CONTINUOUS
 62
8
 10
617.243178
 20
155.973835
 11
612.243178
 21
160.973835
  0
LINE
  8
CutLine
  6
CONTINUOUS
 62
8
 10
612.243178
 20
160.973835
 11
612.243178
 21
240.920226
  0
LINE
  8
CutLine
  6
CONTINUOUS
 62
8
 10
612.243178
 20
240.920226
 11
617.243178
 21
246.953488
  0
LINE
  8
CutLine
  6
CONTINUOUS
 62
8
 10
657.118827
 20
249.760763
 11
664.093139
 21
245.473883
  0
LINE
  8
CutLine
  6
CONTINUOUS
 62
8
 10
664.093139
 20
245.473883
 11
672.726900
 21
222.718542
  0
LINE
  8
CutLine
  6
CONTINUOUS
 62
8
 10
672.726900
 20
222.718542
 11
669.825785
 21
216.270013
  0
LINE
  8
CutLine
  6
CONTINUOUS
 62
8
 10
682.426382
 20
133.523431
 11
673.381632
 21
136.757717
  0
LINE
  8
CutLine
  6
CONTINUOUS
 62
8
 10
673.381632
 20
136.757717
 11
670.357122
 21
143.149300
  0
LINE
  8
CutLine
  6
CONTINUOUS
 62
8
 10
823.326141
 20
440.364165
 11
816.396114
 21
438.958914
  0
LINE
  8
CutLine
  6
CONTINUOUS
 62
8
 10
816.396114
 20
438.958914
 11
806.201533
 21
445.716069
  0
LINE
  8
CutLine
  6
CONTINUOUS
 62
8
 10
806.201533
 20
445.716069
 11
804.796282
 21
452.646096
  0
LINE
  8
MountainLine
  6
CONTINUOUS
 62
5
 10
812.383168
 20
354.751085
 11
810.270499
 21
394.545227
  0
LINE
  8
MountainLine
  6
CONTINUOUS
 62
5
 10
810.270499
 20
394.545227
 11
759.378207
 21
362.025931
  0
LINE
  8
CutLine
  6
CONTINUOUS
 62
8
 10
759.378207
 20
362.025931
 11
812.383168
 21
354.751085
  0
LINE
  8
ValleyLine
  6
CONTINUOUS
 62
1
 10
812.383168
 20
354.751085
 11
866.048883
 21
333.419835
  0
LINE
  8
CutLine
  6
CONTINUOUS
 62
8
 10
866.048883
 20
333.419835
 11
869.244332
 21
377.978009
  0
LINE
  8
ValleyLine
  6
CONTINUOUS
 62
1
 10
869.244332
 20
377.978009
 11
812.383168
 21
354.751085
  0
LINE
  8
MountainLine
  6
CONTINUOUS
 62
5
 10
810.270499
 20
394.545227
 11
869.244332
 21
377.978009
  0
LINE
  8
MountainLine
  6
CONTINUOUS
 62
5
 10
869.244332
 20
377.978009
 11
836.160175
 21
420.640047
  0
LINE
  8
CutLine
  6
CONTINUOUS
 62
8
 10
836.160175
 20
420.640047
 11
810.270499
 21
394.545227
  0
LINE
  8
ValleyLine
  6
CONTINUOUS
 62
1
 10
881.924385
 20
402.408721
 11
837.145464
 21
428.688107
  0
LINE
  8
MountainLine
  6
CONTINUOUS
 62
5
 10
837.145464
 20
428.688107
 11
836.160175
 21
420.640047
  0
LINE
  8
MountainLine
  6
CONTINUOUS
 62
5
 10
836.160175
 20
420.640047
 11
881.924385
 21
402.408721
  0
LINE
  8
ValleyLine
  6
CONTINUOUS
 62
1
 10
869.244332
 20
377.978009
 11
881.924385
 21
402.408721
  0
LINE
  8
CutLine
  6
CONTINUOUS
 62
8
 10
881.924385
 20
402.408721
 11
887.842018
 21
459.552424
  0
LINE
  8
MountainLine
  6
CONTINUOUS
 62
5
 10
887.842018
 20
459.552424
 11
850.325737
 21
455.193875
  0
LINE
  8
ValleyLine
  6
CONTINUOUS
 62
1
 10
850.325737
 20
455.193875
 11
881.924385
 21
402.408721
  0
LINE
  8
CutLine
  6
CONTINUOUS
 62
8
 10
850.325737
 20
455.193875
 11
837.145464
 21
428.688107
  0
LINE
  8
ValleyLine
  6
CONTINUOUS
 62
1
 10
894.822227
 20
504.393671
 11
841.400567
 21
497.998120
  0
LINE
  8
MountainLine
  6
CONTINUOUS
 62
5
 10
841.400567
 20
497.998120
 11
887.842018
 21
459.552424
  0
LINE
  8
MountainLine
  6
CONTINUOUS
 62
5
 10
887.842018
 20
459.552424
 11
894.822227
 21
504.393671
  0
LINE
  8
ValleyLine
  6
CONTINUOUS
 62
1
 10
841.400567
 20
497.998120
 11
850.325737
 21
455.193875
  0
LINE
  8
MountainLine
  6
CONTINUOUS
 62
5
 10
894.822227
 20
504.393671
 11
864.094342
 21
547.150844
  0
LINE
  8
MountainLine
  6
CONTINUOUS
 62
5
 10
864.094342
 20
547.150844
 11
811.477230
 21
535.626346
  0
LINE
  8
ValleyLine
  6
CONTINUOUS
 62
1
 10
811.477230
 20
535.626346
 11
894.822227
 21
504.393671
  0
LINE
  8
ValleyLine
  6
CONTINUOUS
 62
1
 10
744.016394
 20
488.567566
 11
798.551123
 21
491.962130
  0
LINE
  8
ValleyLine
  6
CONTINUOUS
 62
1
 10
811.477230
 20
535.626346
 11
744.016394
 21
488.567566
  0
LINE
  8
CutLine
  6
CONTINUOUS
 62
8
 10
798.551123
 20
491.962130
 11
841.400567
 21
497.998120
  0
LINE
  8
MountainLine
  6
CONTINUOUS
 62
5
 10
744.016394
 20
600.166641
 11
744.016394
 21
488.567566
  0
LINE
  8
MountainLine
  6
CONTINUOUS
 62
5
 10
811.477230
 20
535.626346
 11
744.016394
 21
600.166641
  0
LINE
  8
CutLine
  6
CONTINUOUS
 62
8
 10
864.094342
 20
547.150844
 11
851.234966
 21
598.924531
  0
LINE
  8
CutLine
  6
CONTINUOUS
 62
8
 10
851.234966
 20
598.924531
 11
811.477230
 21
535.626346
  0
LINE
  8
CutLine
  6
CONTINUOUS
 62
8
 10
622.450537
 20
123.187764
 11
657.623922
 21
129.964944
  0
LINE
  8
CutLine
  6
CONTINUOUS
 62
8
 10
657.623922
 20
129.964944
 11
622.073635
 21
147.874956
  0
LINE
  8
ValleyLine
  6
CONTINUOUS
 62
1
 10
622.073635
 20
147.874956
 11
622.450537
 21
123.187764
  0
LINE
  8
MountainLine
  6
CONTINUOUS
 62
5
 10
738.434211
 20
313.238378
 11
752.087406
 21
275.800064
  0
LINE
  8
CutLine
  6
CONTINUOUS
 62
8
 10
752.087406
 20
275.800064
 11
798.000241
 21
303.267515
  0
LINE
  8
MountainLine
  6
CONTINUOUS
 62
5
 10
798.000241
 20
303.267515
 11
738.434211
 21
313.238378
  0
LINE
  8
ValleyLine
  6
CONTINUOUS
 62
1
 10
752.087406
 20
275.800064
 11
690.672097
 21
274.882595
  0
LINE
  8
CutLine
  6
CONTINUOUS
 62
8
 10
690.672097
 20
274.882595
 11
711.075921
 21
235.141863
  0
LINE
  8
CutLine
  6
CONTINUOUS
 62
8
 10
711.075921
 20
235.141863
 11
752.087406
 21
275.800064
  0
LINE
  8
CutLine
  6
CONTINUOUS
 62
8
 10
738.434211
 20
313.238378
 11
704.388376
 21
327.098250
  0
LINE
  8
MountainLine
  6
CONTINUOUS
 62
5
 10
704.388376
 20
327.098250
 11
690.672097
 21
274.882595
  0
LINE
  8
MountainLine
  6
CONTINUOUS
 62
5
 10
690.672097
 20
274.882595
 11
738.434211
 21
313.238378
  0
LINE
  8
CutLine
  6
CONTINUOUS
 62
8
 10
641.590275
 20
342.641239
 11
669.431232
 21
292.388853
  0
LINE
  8
ValleyLine
  6
CONTINUOUS
 62
1
 10
669.431232
 20
292.388853
 11
677.813221
 21
353.335463
  0
LINE
  8
MountainLine
  6
CONTINUOUS
 62
5
 10
677.813221
 20
353.335463
 11
641.590275
 21
342.641239
  0
LINE
  8
ValleyLine
  6
CONTINUOUS
 62
1
 10
669.431232
 20
292.388853
 11
700.327578
 21
334.116225
  0
LINE
  8
MountainLine
  6
CONTINUOUS
 62
5
 10
700.327578
 20
334.116225
 11
677.813221
 21
353.335463
  0
LINE
  8
ValleyLine
  6
CONTINUOUS
 62
1
 10
669.431232
 20
292.388853
 11
690.672097
 21
274.882595
  0
LINE
  8
MountainLine
  6
CONTINUOUS
 62
5
 10
704.388376
 20
327.098250
 11
669.431232
 21
292.388853
  0
LINE
  8
MountainLine
  6
CONTINUOUS
 62
5
 10
704.388376
 20
327.098250
 11
700.327578
 21
334.116225
  0
LINE
  8
ValleyLine
  6
CONTINUOUS
 62
1
 10
669.247698
 20
396.213125
 11
617.593557
 21
381.159004
  0
LINE
  8
CutLine
  6
CONTINUOUS
 62
8
 10
617.593557
 20
381.159004
 11
641.590275
 21
342.641239
  0
LINE
  8
MountainLine
  6
CONTINUOUS
 62
5
 10
641.590275
 20
342.641239
 11
669.247698
 21
396.213125
  0
LINE
  8
ValleyLine
  6
CONTINUOUS
 62
1
 10
677.813221
 20
353.335463
 11
669.247698
 21
396.213125
  0
LINE
  8
MountainLine
  6
CONTINUOUS
 62
5
 10
620.643246
 20
485.210108
 11
629.104798
 21
432.538671
  0
LINE
  8
MountainLine
  6
CONTINUOUS
 62
5
 10
629.104798
 20
432.538671
 11
682.028991
 21
442.558869
  0
LINE
  8
MountainLine
  6
CONTINUOUS
 62
5
 10
682.028991
 20
442.558869
 11
620.643246
 21
485.210108
  0
LINE
  8
CutLine
  6
CONTINUOUS
 62
8
 10
629.104798
 20
432.538671
 11
617.593557
 21
381.159004
  0
LINE
  8
ValleyLine
  6
CONTINUOUS
 62
1
 10
617.593557
 20
381.159004
 11
682.028991
 21
442.558869
  0
LINE
  8
ValleyLine
  6
CONTINUOUS
 62
1
 10
711.034562
 20
407.454386
 11
762.536517
 21
425.705643
  0
LINE
  8
ValleyLine
  6
CONTINUOUS
 62
1
 10
762.536517
 20
425.705643
 11
682.028991
 21
442.558869
  0
LINE
  8
CutLine
  6
CONTINUOUS
 62
8
 10
669.247698
 20
396.213125
 11
711.034562
 21
407.454386
  0
LINE
  8
CutLine
  6
CONTINUOUS
 62
8
 10
718.796609
 20
528.375862
 11
682.028991
 21
442.558869
  0
LINE
  8
CutLine
  6
CONTINUOUS
 62
8
 10
762.536517
 20
425.705643
 11
718.796609
 21
528.375862
  0
LINE
  8
CutLine
  6
CONTINUOUS
 62
8
 10
811.717712
 20
550.748252
 11
826.795132
 21
583.240844
  0
LINE
  8
ValleyLine
  6
CONTINUOUS
 62
1
 10
826.795132
 20
583.240844
 11
802.930942
 21
589.573297
  0
LINE
  8
CutLine
  6
CONTINUOUS
 62
8
 10
802.930942
 20
589.573297
 11
811.717712
 21
550.748252
  0
LINE
  8
ValleyLine
  6
CONTINUOUS
 62
1
 10
887.081330
 20
230.521157
 11
886.379132
 21
285.646912
  0
LINE
  8
MountainLine
  6
CONTINUOUS
 62
5
 10
847.121492
 20
283.493331
 11
887.081330
 21
230.521157
  0
LINE
  8
CutLine
  6
CONTINUOUS
 62
8
 10
886.379132
 20
285.646912
 11
881.655037
 21
344.403784
  0
LINE
  8
CutLine
  6
CONTINUOUS
 62
8
 10
881.655037
 20
344.403784
 11
847.121492
 21
283.493331
  0
LINE
  8
MountainLine
  6
CONTINUOUS
 62
5
 10
841.296330
 20
226.038142
 11
884.555879
 21
181.038508
  0
LINE
  8
ValleyLine
  6
CONTINUOUS
 62
1
 10
884.555879
 20
181.038508
 11
887.081330
 21
230.521157
  0
LINE
  8
CutLine
  6
CONTINUOUS
 62
8
 10
847.121492
 20
283.493331
 11
841.296330
 21
226.038142
  0
LINE
  8
CutLine
  6
CONTINUOUS
 62
8
 10
827.544872
 20
174.333726
 11
884.555879
 21
181.038508
  0
LINE
  8
ValleyLine
  6
CONTINUOUS
 62
1
 10
841.296330
 20
226.038142
 11
827.544872
 21
174.333726
  0
LINE
  8
CutLine
  6
CONTINUOUS
 62
8
 10
887.447077
 20
118.008985
 11
824.993409
 21
168.609273
  0
LINE
  8
MountainLine
  6
CONTINUOUS
 62
5
 10
824.993409
 20
168.609273
 11
830.363735
 21
120.517554
  0
LINE
  8
MountainLine
  6
CONTINUOUS
 62
5
 10
830.363735
 20
120.517554
 11
883.268338
 21
65.521682
  0
LINE
  8
CutLine
  6
CONTINUOUS
 62
8
 10
883.268338
 20
65.521682
 11
887.447077
 21
118.008985
  0
LINE
  8
MountainLine
  6
CONTINUOUS
 62
5
 10
837.748504
 20
52.875814
 11
781.423665
 21
91.052407
  0
LINE
  8
MountainLine
  6
CONTINUOUS
 62
5
 10
781.423665
 20
91.052407
 11
805.273283
 21
18.563521
  0
LINE
  8
ValleyLine
  6
CONTINUOUS
 62
1
 10
805.273283
 20
18.563521
 11
837.748504
 21
52.875814
  0
LINE
  8
ValleyLine
  6
CONTINUOUS
 62
1
 10
837.748504
 20
52.875814
 11
858.618893
 21
18.211186
  0
LINE
  8
MountainLine
  6
CONTINUOUS
 62
5
 10
858.618893
 20
18.211186
 11
883.268338
 21
65.521682
  0
LINE
  8
ValleyLine
  6
CONTINUOUS
 62
1
 10
883.268338
 20
65.521682
 11
837.748504
 21
52.875814
  0
LINE
  8
CutLine
  6
CONTINUOUS
 62
8
 10
805.273283
 20
18.563521
 11
858.618893
 21
18.211186
  0
LINE
  8
CutLine
  6
CONTINUOUS
 62
8
 10
830.363735
 20
120.517554
 11
837.748504
 21
52.875814
  0
LINE
  8
CutLine
  6
CONTINUOUS
 62
8
 10
781.423665
 20
91.052407
 11
741.434115
 21
118.301073
  0
LINE
  8
CutLine
  6
CONTINUOUS
 62
8
 10
741.434115
 20
118.301073
 11
756.930935
 21
39.429669
  0
LINE
  8
MountainLine
  6
CONTINUOUS
 62
5
 10
756.930935
 20
39.429669
 11
805.273283
 21
18.563521
  0
LINE
  8
MountainLine
  6
CONTINUOUS
 62
5
 10
795.892170
 20
118.863646
 11
830.363735
 21
120.517554
  0
LINE
  8
ValleyLine
  6
CONTINUOUS
 62
1
 10
830.363735
 20
120.517554
 11
813.840276
 21
160.106074
  0
LINE
  8
ValleyLine
  6
CONTINUOUS
 62
1
 10
813.840276
 20
160.106074
 11
795.892170
 21
118.863646
  0
LINE
  8
CutLine
  6
CONTINUOUS
 62
8
 10
824.993409
 20
168.609273
 11
813.840276
 21
160.106074
  0
LINE
  8
ValleyLine
  6
CONTINUOUS
 62
1
 10
670.376729
 20
123.904572
 11
685.863277
 21
87.925056
  0
LINE
  8
CutLine
  6
CONTINUOUS
 62
8
 10
685.863277
 20
87.925056
 11
687.415992
 21
96.901809
  0
LINE
  8
MountainLine
  6
CONTINUOUS
 62
5
 10
687.415992
 20
96.901809
 11
670.376729
 21
123.904572
  0
LINE
  8
MountainLine
  6
CONTINUOUS
 62
5
 10
692.866886
 20
103.358120
 11
670.376729
 21
123.904572
  0
LINE
  8
CutLine
  6
CONTINUOUS
 62
8
 10
687.415992
 20
96.901809
 11
692.866886
 21
103.358120
  0
LINE
  8
MountainLine
  6
CONTINUOUS
 62
5
 10
733.564699
 20
44.251771
 11
737.520698
 21
80.797154
  0
LINE
  8
CutLine
  6
CONTINUOUS
 62
8
 10
737.520698
 20
80.797154
 11
729.479154
 21
79.760028
  0
LINE
  8
CutLine
  6
CONTINUOUS
 62
8
 10
673.678607
 20
18.777970
 11
733.564699
 21
44.251771
  0
LINE
  8
MountainLine
  6
CONTINUOUS
 62
5
 10
694.458590
 20
52.730638
 11
673.678607
 21
18.777970
  0
LINE
  8
ValleyLine
  6
CONTINUOUS
 62
1
 10
713.169424
 20
64.653929
 11
701.504406
 21
78.765143
  0
LINE
  8
MountainLine
  6
CONTINUOUS
 62
5
 10
701.504406
 20
78.765143
 11
694.458590
 21
52.730638
  0
LINE
  8
CutLine
  6
CONTINUOUS
 62
8
 10
729.479154
 20
79.760028
 11
713.169424
 21
64.653929
  0
LINE
  8
CutLine
  6
CONTINUOUS
 62
8
 10
692.642503
 20
81.110641
 11
685.863277
 21
87.925056
  0
LINE
  8
MountainLine
  6
CONTINUOUS
 62
5
 10
685.863277
 20
87.925056
 11
694.458590
 21
52.730638
  0
LINE
  8
MountainLine
  6
CONTINUOUS
 62
5
 10
694.458590
 20
52.730638
 11
692.642503
 21
81.110641
  0
LINE
  8
ValleyLine
  6
CONTINUOUS
 62
1
 10
685.863277
 20
87.925056
 11
669.845391
 21
50.783860
  0
LINE
  8
CutLine
  6
CONTINUOUS
 62
8
 10
669.845391
 20
50.783860
 11
694.458590
 21
52.730638
  0
LINE
  8
CutLine
  6
CONTINUOUS
 62
8
 10
701.504406
 20
78.765143
 11
692.642503
 21
81.110641
  0
LINE
  8
CutLine
  6
CONTINUOUS
 62
8
 10
670.376729
 20
123.904572
 11
617.262785
 21
111.080037
  0
LINE
  8
MountainLine
  6
CONTINUOUS
 62
5
 10
617.262785
 20
111.080037
 11
685.863277
 21
87.925056
  0
LINE
  8
MountainLine
  6
CONTINUOUS
 62
5
 10
617.262785
 20
20.100385
 11
669.845391
 21
50.783860
  0
LINE
  8
ValleyLine
  6
CONTINUOUS
 62
1
 10
669.845391
 20
50.783860
 11
617.262785
 21
111.080037
  0
LINE
  8
MountainLine
  6
CONTINUOUS
 62
5
 10
617.262785
 20
111.080037
 11
617.262785
 21
20.100385
  0
LINE
  8
CutLine
  6
CONTINUOUS
 62
8
 10
617.262785
 20
20.100385
 11
657.138434
 21
17.293109
  0
LINE
  8
ValleyLine
  6
CONTINUOUS
 62
1
 10
657.138434
 20
17.293109
 11
669.845391
 21
50.783860
  0
LINE
  8
ValleyLine
  6
CONTINUOUS
 62
1
 10
711.122505
 20
138.474737
 11
670.376729
 21
123.904572
  0
LINE
  8
ValleyLine
  6
CONTINUOUS
 62
1
 10
692.866886
 20
103.358120
 11
711.122505
 21
138.474737
  0
LINE
  8
CutLine
  6
CONTINUOUS
 62
8
 10
717.266544
 20
101.807953
 11
723.562451
 21
101.913700
  0
LINE
  8
MountainLine
  6
CONTINUOUS
 62
5
 10
723.562451
 20
101.913700
 11
711.122505
 21
138.474737
  0
LINE
  8
MountainLine
  6
CONTINUOUS
 62
5
 10
711.122505
 20
138.474737
 11
717.266544
 21
101.807953
  0
LINE
  8
CutLine
  6
CONTINUOUS
 62
8
 10
701.724789
 20
102.863666
 11
710.015985
 21
102.008029
  0
LINE
  8
MountainLine
  6
CONTINUOUS
 62
5
 10
710.015985
 20
102.008029
 11
711.122505
 21
138.474737
  0
LINE
  8
MountainLine
  6
CONTINUOUS
 62
5
 10
711.122505
 20
138.474737
 11
701.724789
 21
102.863666
  0
LINE
  8
CutLine
  6
CONTINUOUS
 62
8
 10
710.015985
 20
102.008029
 11
717.266544
 21
101.807953
  0
LINE
  8
CutLine
  6
CONTINUOUS
 62
8
 10
723.562451
 20
101.913700
 11
728.578241
 21
101.559380
  0
LINE
  8
MountainLine
  6
CONTINUOUS
 62
5
 10
728.578241
 20
101.559380
 11
711.122505
 21
138.474737
  0
LINE
  8
CutLine
  6
CONTINUOUS
 62
8
 10
692.866886
 20
103.358120
 11
701.724789
 21
102.863666
  0
LINE
  8
CutLine
  6
CONTINUOUS
 62
8
 10
732.393021
 20
100.272286
 11
711.122505
 21
138.474737
  0
LINE
  8
CutLine
  6
CONTINUOUS
 62
8
 10
728.578241
 20
101.559380
 11
732.393021
 21
100.272286
  0
LINE
  8
MountainLine
  6
CONTINUOUS
 62
5
 10
710.084860
 20
369.112969
 11
710.084860
 21
339.511020
  0
LINE
  8
CutLine
  6
CONTINUOUS
 62
8
 10
710.084860
 20
339.511020
 11
711.022326
 21
343.541560
  0
LINE
  8
MountainLine
  6
CONTINUOUS
 62
5
 10
711.022326
 20
343.541560
 11
710.084860
 21
369.112969
  0
LINE
  8
CutLine
  6
CONTINUOUS
 62
8
 10
712.765794
 20
347.987615
 11
716.773646
 21
352.123827
  0
LINE
  8
ValleyLine
  6
CONTINUOUS
 62
1
 10
710.084860
 20
369.112969
 11
712.765794
 21
347.987615
  0
LINE
  8
CutLine
  6
CONTINUOUS
 62
8
 10
716.773646
 20
352.123827
 11
720.899178
 21
355.924919
  0
LINE
  8
MountainLine
  6
CONTINUOUS
 62
5
 10
720.899178
 20
355.924919
 11
710.084860
 21
369.112969
  0
LINE
  8
CutLine
  6
CONTINUOUS
 62
8
 10
711.022326
 20
343.541560
 11
712.765794
 21
347.987615
  0
LINE
  8
CutLine
  6
CONTINUOUS
 62
8
 10
720.899178
 20
355.924919
 11
724.974133
 21
359.692831
  0
LINE
  8
CutLine
  6
CONTINUOUS
 62
8
 10
729.961982
 20
363.494111
 11
737.863577
 21
365.594342
  0
LINE
  8
MountainLine
  6
CONTINUOUS
 62
5
 10
710.084860
 20
369.112969
 11
729.961982
 21
363.494111
  0
LINE
  8
CutLine
  6
CONTINUOUS
 62
8
 10
737.863577
 20
365.594342
 11
728.614719
 21
381.394899
  0
LINE
  8
MountainLine
  6
CONTINUOUS
 62
5
 10
728.614719
 20
381.394899
 11
710.084860
 21
369.112969
  0
LINE
  8
CutLine
  6
CONTINUOUS
 62
8
 10
724.974133
 20
359.692831
 11
729.961982
 21
363.494111
  0
LINE
  8
ValleyLine
  6
CONTINUOUS
 62
1
 10
801.722487
 20
181.183437
 11
828.405188
 21
232.399301
  0
LINE
  8
MountainLine
  6
CONTINUOUS
 62
5
 10
828.405188
 20
232.399301
 11
765.920388
 21
210.072422
  0
LINE
  8
ValleyLine
  6
CONTINUOUS
 62
1
 10
765.920388
 20
210.072422
 11
740.858062
 21
167.331454
  0
LINE
  8
MountainLine
  6
CONTINUOUS
 62
5
 10
740.858062
 20
167.331454
 11
801.722487
 21
181.183437
  0
LINE
  8
ValleyLine
  6
CONTINUOUS
 62
1
 10
832.992857
 20
302.267765
 11
796.779015
 21
255.757070
  0
LINE
  8
CutLine
  6
CONTINUOUS
 62
8
 10
828.405188
 20
232.399301
 11
832.992857
 21
302.267765
  0
LINE
  8
CutLine
  6
CONTINUOUS
 62
8
 10
796.779015
 20
255.757070
 11
765.920388
 21
210.072422
  0
LINE
  8
CutLine
  6
CONTINUOUS
 62
8
 10
740.858062
 20
167.331454
 11
784.822011
 21
130.421018
  0
LINE
  8
ValleyLine
  6
CONTINUOUS
 62
1
 10
784.822011
 20
130.421018
 11
801.722487
 21
181.183437
  0
LINE
  8
ValleyLine
  6
CONTINUOUS
 62
1
 10
644.212371
 20
508.453255
 11
664.006025
 21
468.064103
  0
LINE
  8
ValleyLine
  6
CONTINUOUS
 62
1
 10
664.006025
 20
468.064103
 11
678.723460
 21
508.358926
  0
LINE
  8
MountainLine
  6
CONTINUOUS
 62
5
 10
678.723460
 20
508.358926
 11
644.212371
 21
508.453255
  0
LINE
  8
CutLine
  6
CONTINUOUS
 62
8
 10
664.006025
 20
468.064103
 11
675.532052
 21
460.073641
  0
LINE
  8
MountainLine
  6
CONTINUOUS
 62
5
 10
675.532052
 20
460.073641
 11
678.723460
 21
508.358926
  0
LINE
  8
ValleyLine
  6
CONTINUOUS
 62
1
 10
714.052054
 20
566.512432
 11
672.965956
 21
600.812264
  0
LINE
  8
ValleyLine
  6
CONTINUOUS
 62
1
 10
672.965956
 20
600.812264
 11
678.723460
 21
508.358926
  0
LINE
  8
CutLine
  6
CONTINUOUS
 62
8
 10
678.723460
 20
508.358926
 11
714.052054
 21
566.512432
  0
LINE
  8
CutLine
  6
CONTINUOUS
 62
8
 10
672.965956
 20
600.812264
 11
619.670814
 21
595.895586
  0
LINE
  8
MountainLine
  6
CONTINUOUS
 62
5
 10
619.670814
 20
595.895586
 11
615.746449
 21
527.965187
  0
LINE
  8
ValleyLine
  6
CONTINUOUS
 62
1
 10
615.746449
 20
527.965187
 11
672.965956
 21
600.812264
  0
LINE
  8
ValleyLine
  6
CONTINUOUS
 62
1
 10
672.965956
 20
600.812264
 11
644.212371
 21
508.453255
  0
LINE
  8
CutLine
  6
CONTINUOUS
 62
8
 10
615.746449
 20
527.965187
 11
644.212371
 21
508.453255
  0
LINE
  8
CutLine
  6
CONTINUOUS
 62
8
 10
687.396385
 20
170.152064
 11
685.843670
 21
179.128817
  0
LINE
  8
ValleyLine
  6
CONTINUOUS
 62
1
 10
685.843670
 20
179.128817
 11
670.357122
 21
143.149300
  0
LINE
  8
MountainLine
  6
CONTINUOUS
 62
5
 10
670.357122
 20
143.149300
 11
687.396385
 21
170.152064
  0
LINE
  8
CutLine
  6
CONTINUOUS
 62
8
 10
692.847279
 20
163.695753
 11
687.396385
 21
170.152064
  0
LINE
  8
MountainLine
  6
CONTINUOUS
 62
5
 10
670.357122
 20
143.149300
 11
692.847279
 21
163.695753
  0
LINE
  8
MountainLine
  6
CONTINUOUS
 62
5
 10
737.501091
 20
186.256719
 11
733.545092
 21
222.802102
  0
LINE
  8
CutLine
  6
CONTINUOUS
 62
8
 10
729.459548
 20
187.293845
 11
737.501091
 21
186.256719
  0
LINE
  8
CutLine
  6
CONTINUOUS
 62
8
 10
733.545092
 20
222.802102
 11
673.659000
 21
248.275903
  0
LINE
  8
MountainLine
  6
CONTINUOUS
 62
5
 10
673.659000
 20
248.275903
 11
694.438983
 21
214.323234
  0
LINE
  8
MountainLine
  6
CONTINUOUS
 62
5
 10
694.438983
 20
214.323234
 11
701.484800
 21
188.288730
  0
LINE
  8
ValleyLine
  6
CONTINUOUS
 62
1
 10
701.484800
 20
188.288730
 11
713.149818
 21
202.399944
  0
LINE
  8
CutLine
  6
CONTINUOUS
 62
8
 10
713.149818
 20
202.399944
 11
729.459548
 21
187.293845
  0
LINE
  8
MountainLine
  6
CONTINUOUS
 62
5
 10
694.438983
 20
214.323234
 11
685.843670
 21
179.128817
  0
LINE
  8
CutLine
  6
CONTINUOUS
 62
8
 10
685.843670
 20
179.128817
 11
692.622896
 21
185.943232
  0
LINE
  8
MountainLine
  6
CONTINUOUS
 62
5
 10
692.622896
 20
185.943232
 11
694.438983
 21
214.323234
  0
LINE
  8
ValleyLine
  6
CONTINUOUS
 62
1
 10
669.825785
 20
216.270013
 11
685.843670
 21
179.128817
  0
LINE
  8
CutLine
  6
CONTINUOUS
 62
8
 10
694.438983
 20
214.323234
 11
669.825785
 21
216.270013
  0
LINE
  8
CutLine
  6
CONTINUOUS
 62
8
 10
692.622896
 20
185.943232
 11
701.484800
 21
188.288730
  0
LINE
  8
CutLine
  6
CONTINUOUS
 62
8
 10
617.243178
 20
155.973835
 11
670.357122
 21
143.149300
  0
LINE
  8
MountainLine
  6
CONTINUOUS
 62
5
 10
685.843670
 20
179.128817
 11
617.243178
 21
155.973835
  0
LINE
  8
MountainLine
  6
CONTINUOUS
 62
5
 10
669.825785
 20
216.270013
 11
617.243178
 21
246.953488
  0
LINE
  8
MountainLine
  6
CONTINUOUS
 62
5
 10
617.243178
 20
246.953488
 11
617.243178
 21
155.973835
  0
LINE
  8
ValleyLine
  6
CONTINUOUS
 62
1
 10
617.243178
 20
155.973835
 11
669.825785
 21
216.270013
  0
LINE
  8
ValleyLine
  6
CONTINUOUS
 62
1
 10
669.825785
 20
216.270013
 11
657.118827
 21
249.760763
  0
LINE
  8
CutLine
  6
CONTINUOUS
 62
8
 10
657.118827
 20
249.760763
 11
617.243178
 21
246.953488
  0
LINE
  8
CutLine
  6
CONTINUOUS
 62
8
 10
701.705183
 20
164.190207
 11
692.847279
 21
163.695753
  0
LINE
  8
ValleyLine
  6
CONTINUOUS
 62
1
 10
692.847279
 20
163.695753
 11
711.102899
 21
128.579136
  0
LINE
  8
MountainLine
  6
CONTINUOUS
 62
5
 10
711.102899
 20
128.579136
 11
701.705183
 21
164.190207
  0
LINE
  8
CutLine
  6
CONTINUOUS
 62
8
 10
728.558634
 20
165.494493
 11
723.542844
 21
165.140173
  0
LINE
  8
MountainLine
  6
CONTINUOUS
 62
5
 10
723.542844
 20
165.140173
 11
711.102899
 21
128.579136
  0
LINE
  8
MountainLine
  6
CONTINUOUS
 62
5
 10
711.102899
 20
128.579136
 11
728.558634
 21
165.494493
  0
LINE
  8
CutLine
  6
CONTINUOUS
 62
8
 10
717.246937
 20
165.245920
 11
709.996378
 21
165.045844
  0
LINE
  8
MountainLine
  6
CONTINUOUS
 62
5
 10
709.996378
 20
165.045844
 11
711.102899
 21
128.579136
  0
LINE
  8
MountainLine
  6
CONTINUOUS
 62
5
 10
711.102899
 20
128.579136
 11
717.246937
 21
165.245920
  0
LINE
  8
CutLine
  6
CONTINUOUS
 62
8
 10
709.996378
 20
165.045844
 11
701.705183
 21
164.190207
  0
LINE
  8
CutLine
  6
CONTINUOUS
 62
8
 10
723.542844
 20
165.140173
 11
717.246937
 21
165.245920
  0
LINE
  8
CutLine
  6
CONTINUOUS
 62
8
 10
732.373415
 20
166.781587
 11
728.558634
 21
165.494493
  0
LINE
  8
CutLine
  6
CONTINUOUS
 62
8
 10
711.102899
 20
128.579136
 11
732.373415
 21
166.781587
  0
LINE
  8
ValleyLine
  6
CONTINUOUS
 62
1
 10
670.357122
 20
143.149300
 11
711.102899
 21
128.579136
  0
LINE
  8
CutLine
  6
CONTINUOUS
 62
8
 10
805.733748
 20
478.217504
 11
804.796282
 21
482.248045
  0
LINE
  8
CutLine
  6
CONTINUOUS
 62
8
 10
804.796282
 20
482.248045
 11
804.796282
 21
452.646096
  0
LINE
  8
MountainLine
  6
CONTINUOUS
 62
5
 10
804.796282
 20
452.646096
 11
805.733748
 21
478.217504
  0
LINE
  8
CutLine
  6
CONTINUOUS
 62
8
 10
811.485068
 20
469.635238
 11
807.477215
 21
473.771450
  0
LINE
  8
ValleyLine
  6
CONTINUOUS
 62
1
 10
807.477215
 20
473.771450
 11
804.796282
 21
452.646096
  0
LINE
  8
MountainLine
  6
CONTINUOUS
 62
5
 10
804.796282
 20
452.646096
 11
815.610600
 21
465.834145
  0
LINE
  8
CutLine
  6
CONTINUOUS
 62
8
 10
815.610600
 20
465.834145
 11
811.485068
 21
469.635238
  0
LINE
  8
CutLine
  6
CONTINUOUS
 62
8
 10
807.477215
 20
473.771450
 11
805.733748
 21
478.217504
  0
LINE
  8
CutLine
  6
CONTINUOUS
 62
8
 10
819.685554
 20
462.066233
 11
815.610600
 21
465.834145
  0
LINE
  8
CutLine
  6
CONTINUOUS
 62
8
 10
832.574999
 20
456.164722
 11
824.673404
 21
458.264953
  0
LINE
  8
MountainLine
  6
CONTINUOUS
 62
5
 10
824.673404
 20
458.264953
 11
804.796282
 21
452.646096
  0
LINE
  8
CutLine
  6
CONTINUOUS
 62
8
 10
823.326141
 20
440.364165
 11
832.574999
 21
456.164722
  0
LINE
  8
MountainLine
  6
CONTINUOUS
 62
5
 10
804.796282
 20
452.646096
 11
823.326141
 21
440.364165
  0
LINE
  8
CutLine
  6
CONTINUOUS
 62
8
 10
824.673404
 20
458.264953
 11
819.685554
 21
462.066233
  0
ENDSEC
  0
EOF
