<?xml version="1.0" encoding="utf-8"?>
<!DOCTYPE svg PUBLIC "-//W3C//DTD SVG 1.1//EN" "http://www.w3.org/Graphics/SVG/1.1/DTD/svg11.dtd">
<!-- exported from Silhouette Studio® Business Edition V4.4.920ssbe -->
<svg version="1.1" xmlns="http://www.w3.org/2000/svg" xmlns:xlink="http://www.w3.org/1999/xlink" width="304.8mm" height="609.6mm" viewBox="0 0 304.8 609.6">
<defs>
<path id="path_87cd72a58c2a160bb5371082f87abbf8" d="M 171.0247 490.7219 L 193.2347 499.7343 M 197.2776 534.6176 L 154.0816 503.0735 L 154.0816 503.0735 L 194.4575 517.3948 M 245.0878 250.8919 L 239.2941 248.4161 L 239.2941 248.416 L 216.5994 243.9508 M 217.9346 257.3442 L 234.5043 262.32 M 216.2788 228.1084 L 244.8419 235.129 M 269.689 180.9244 L 249.1806 176.9225 L 249.1805 176.9225 L 250.6232 200.2917 L 250.6232 200.2918 L 223.5364 208.9509 M 249.1805 176.9225 L 233.3797 188.4201 M 239.5664 160.4251 L 251.138 171.0899 M 157.379 353.0935 L 161.6347 351.7113 L 161.6347 351.7113 L 162.9269 367.2335 L 162.9269 367.2335 L 148.3701 368.0388 M 146.2369 389.3654 L 173.2379 409.2889 L 173.2379 409.2889 L 185.9028 409.0802 M 136.6511 411.3903 L 165.1483 430.4443 L 165.1483 430.4442 L 187.6608 436.2001 M 94.5598 71.75116 L 82.27813 92.90497 M 48.24233 455.8813 L 46.32827 431.9892 M 104.0241 558.3446 L 141.3058 507.5486 L 141.3506 507.4758 L 118.5482 493.4336 L 118.5481 493.4336 L 109.5105 426.9062 L 109.5105 426.9062 L 97.53861 480.4954 L 97.53862 480.4954 L 55.07105 515.3048 L 55.07106 515.3048 L 118.5482 493.4336 M 64.71736 462.36 L 63.20472 419.5467 L 63.20472 419.5466 L 80.29439 470.2302 M 93.80196 384.2495 L 89.43449 385.2225 L 89.43449 385.2224 L 81.01334 387.5672 M 93.29175 369.5822 L 87.02406 370.2255 L 87.02406 370.2255 L 74.07897 376.9318 M 74.52467 328.7677 L 61.40078 359.6505 M 29.69305 345.1963 L 56.8041 314.662 L 56.80411 314.662 L 41.94958 345.5565 M 257.2149 269.6553 L 249.0498 266.5337 M 229.0414 303.9648 L 190.4172 324.6649 L 190.4172 324.6648 L 181.2072 343.2471 M 185.8332 304.4383 L 190.4172 324.6648 M 101.1208 370.104 L 109.34 383.335 L 109.3399 383.3349 L 126.5534 381.5982 M 130.2493 333.0222 L 105.3013 319.374 L 105.3013 319.374 L 93.19549 323.1012 M 107.2795 368.7741 L 130.4091 368.7025 M 104.3575 354.675 L 133.7343 353.2097 M 124.4865 310.9949 L 111.1584 296.7045 L 111.1583 296.7046 L 90.26318 296.7369 L 90.26318 296.7369 L 91.92415 271.1512 M 105.3013 319.374 L 111.1584 296.7046 M 110.3449 290.6063 L 123.7322 282.3346 L 123.7322 282.3347 L 99.00352 244.4101 M 203.5599 292.3287 L 204.4246 298.4198 L 204.4246 298.4199 L 188.3842 294.5938 L 188.3841 294.5938 L 155.0743 266.6942 L 155.0743 266.6943 L 124.1781 297.2452 M 187.5992 279.6973 L 155.0743 266.6943 M 181.3727 353.4154 L 197.8631 353.4669 L 197.8631 353.4669 L 195.5908 359.1841 M 197.463 436.9125 L 198.7269 485.8126 M 266.3575 488.0491 L 278.2119 530.5004 L 278.2118 530.5004 L 253.6387 530.4721 L 253.6387 530.4721 L 237.9623 503.4354 L 237.9623 503.4354 L 252.7656 483.5811 L 252.7656 483.5811 L 253.7487 472.2389 M 229.9901 354.1029 L 246.38 372.6692 L 246.38 372.6692 L 248.295 383.8918 M 265.1982 308.8552 L 267.8713 323.8117 L 267.8713 323.8116 L 243.3841 325.8658 M 163.9308 261.2962 L 190.7207 220.3677 L 190.7207 220.3677 L 195.0903 191.3839 M 125.4176 78.69446 L 120.8388 61.43497 L 120.8388 61.43506 L 126.0701 33.82001 M 230.2224 112.397 L 200.5699 93.75098 M 197.9825 58.81924 L 156.6215 40.40533 M 178.6764 167.2023 L 191.7818 179.3312 L 191.7818 179.3311 L 218.6314 187.6422 L 218.6314 187.6422 L 227.1213 157.5649 M 84.08347 43.15344 L 111.7389 52.86707 M 56.77671 76.32852 L 75.45982 92.11679" fill-rule="evenodd" fill="none" fill-opacity="1" stroke="#0000FF" stroke-opacity="1" stroke-width="1.146528" stroke-linecap="round" stroke-linejoin="round"/>
<path id="path_ccfdd6de11e68654d0dd71a8014072d9" d="M 59.45892 212.5295 L 33.69868 248.5829 L 33.69868 248.5829 L 47.79293 302.0351 L 47.79293 302.0351 L 36.6372 319.7435 L 36.6372 319.7436 L 33.69868 248.583 L 33.69867 248.583 L 71.48082 229.7081 L 71.48082 229.708 L 59.45892 212.5295 L 59.45892 212.5296 L 48.29631 195.266 L 48.29631 195.2658 L 33.69868 248.5829 L 33.69869 248.5829 L 59.11781 284.8775 M 87.12701 248.8347 L 71.30118 267.813 L 71.30117 267.813 L 33.69868 248.5829 L 33.69868 248.583 L 87.127 248.8347 L 87.12701 248.8347 Z M 201.8802 554.1508 L 197.2775 534.6176 M 171.0247 490.7219 L 154.0815 503.0735 L 154.0816 503.0735 L 149.3413 527.7354 M 194.4574 517.3948 L 193.2346 499.7342 M 217.9344 257.3442 L 239.294 248.416 L 239.2939 248.416 L 234.5042 262.3199 L 234.5042 262.32 L 220.4757 269.8605 L 220.4758 269.8605 L 217.9344 257.3442 L 217.9344 257.3442 Z M 239.5662 160.4251 L 272.9198 155.4893 L 272.9198 155.4893 L 251.1378 171.0898 L 251.1378 171.0898 L 269.6888 180.9244 L 269.6887 180.9244 L 250.623 200.2918 L 250.6231 200.2918 L 250.9639 220.4473 L 250.964 220.4472 L 244.8418 235.1289 L 244.8418 235.129 L 216.5993 243.9507 L 216.5993 243.9507 L 216.2787 228.1084 L 216.2787 228.1084 L 223.5363 208.9509 L 223.5363 208.9509 L 244.8418 235.129 M 261.8001 206.2513 L 257.4087 210.5399 L 257.4087 210.5399 L 250.6231 200.2917 L 250.6231 200.2917 L 233.3796 188.42 M 225.3277 282.751 L 230.7796 296.4342 L 230.7796 296.4342 L 232.7433 278.5487 M 161.6346 351.7113 L 153.811 337.3843 L 153.811 337.3843 L 157.379 353.0934 L 157.379 353.0934 L 162.9269 367.2335 M 145.5156 321.4176 L 147.6615 341.5024 L 147.6615 341.5025 L 157.3789 353.0935 M 176.3836 404.0182 L 179.8549 392.7204 M 174.669 377.6825 L 168.6514 364.6015 M 148.37 368.0387 L 147.3367 379.4459 M 146.5611 398.0559 L 173.2378 409.2889 L 173.2378 409.289 L 187.6608 436.2001 M 136.6511 411.3902 L 126.2795 417.9308 M 39.51285 98.9017 L 60.52915 145.6581 L 60.52915 145.6581 L 97.52582 143.5771 L 97.52582 143.5769 L 127.8588 134.7088 L 127.8588 134.7089 L 94.55981 71.75116 L 94.55983 71.7511 L 97.52582 143.577 L 97.52582 143.577 L 133.7191 205.6885 M 72.71581 212.4666 L 77.99294 214.4925 M 46.32835 431.9892 L 30.29575 450.7932 L 30.29575 450.7932 L 48.24242 455.8813 M 97.53866 480.4954 L 118.5482 493.4335 M 138.5151 437.6524 L 109.5105 426.9062 L 109.5105 426.9062 L 88.15071 422.4446 M 64.71744 462.3599 L 80.29443 470.2302 M 87.02411 370.2255 L 89.43453 385.2225 L 89.43452 385.2225 L 94.34765 400.5643 L 94.34765 400.5643 L 93.80201 384.2495 M 74.07903 376.9317 L 81.01337 387.5671 M 61.40084 359.6505 L 67.3904 367.6336 M 91.82424 355.2584 L 88.6456 339.6721 M 79.91313 331.7075 L 74.52473 328.7678 L 74.52472 328.7678 L 73.26499 298.2613 L 73.265 298.2614 L 85.53727 322.5096 M 57.26218 352.0018 L 74.52473 328.7677 M 257.2147 269.6555 L 249.6737 281.6463 L 249.6737 281.6463 L 263.5653 275.6623 M 204.7217 339.6816 L 216.7148 320.3277 M 208.5902 305.1685 L 185.8331 304.4383 L 185.8331 304.4383 L 157.3051 320.7181 L 157.3052 320.718 L 181.3727 353.4154 L 181.3726 353.4154 L 181.2072 343.2472 L 181.2072 343.2472 L 157.3051 320.7181 L 157.3052 320.718 L 155.0743 266.6942 M 114.467 405.1373 L 121.68 393.4036 L 121.68 393.4036 L 109.34 383.3349 L 109.34 383.3349 L 107.2795 368.7742 L 107.2795 368.7742 L 104.3575 354.675 L 104.3575 354.675 L 130.2493 333.0221 L 130.2493 333.0221 L 133.7343 353.2096 M 105.3013 319.3739 L 96.69209 328.1461 L 96.69208 328.1461 L 101.1367 339.0975 L 101.1367 339.0975 L 105.3013 319.374 L 105.3013 319.3739 L 124.4865 310.995 M 107.985 399.6026 L 106.5144 417.5353 M 104.3575 354.675 L 130.4092 368.7025 L 130.4092 368.7024 L 126.5534 381.5981 L 126.5534 381.5981 L 107.2795 368.7742 M 90.26321 296.7368 L 110.3449 290.6064 L 110.3449 290.6064 L 124.1781 297.2451 L 124.1781 297.2451 L 123.7322 282.3346 L 123.7322 282.3346 L 91.92418 271.1512 L 91.92418 271.1511 L 99.00354 244.4101 M 110.3449 290.6064 L 91.92416 271.1512 M 157.3051 320.7181 L 188.384 294.5938 L 188.384 294.5938 L 201.6228 286.837 M 185.8332 304.4383 L 188.3841 294.5938 L 188.384 294.5938 L 187.5992 279.6972 M 252.7654 483.5811 L 198.7269 485.8126 L 198.7269 485.8126 L 253.7486 472.2388 M 262.5976 436.041 L 228.3766 437.9622 L 228.3766 437.9623 L 197.463 436.9125 M 276.7809 545.6263 L 253.6385 530.4721 L 253.6386 530.4721 L 266.3574 488.0491 L 266.3574 488.0491 L 237.9622 503.4354 M 259.5571 367.0958 L 229.9901 354.1029 L 229.99 354.103 L 192.3413 374.9006 L 192.3413 374.9006 L 246.3799 372.6691 L 246.3799 372.6692 L 259.5571 367.0958 L 259.557 367.0958 L 243.384 325.8659 M 192.3413 374.9006 L 248.2949 383.8917 M 225.8352 420.1436 L 260.0982 419.2368 M 189.8515 196.8348 L 190.7206 220.3676 L 190.7206 220.3676 L 168.8654 224.8283 L 168.8654 224.8283 L 148.62 228.9587 L 148.6203 228.9606 L 132.3389 242.1119 M 117.3472 256.1792 L 142.4183 257.6403 M 77.71152 77.37347 L 56.77532 76.32727 L 56.77532 76.32736 L 69.90657 60.3743 L 69.90656 60.37424 L 84.08349 43.1535 L 84.0835 43.1535 L 126.0701 33.81995 L 126.0701 33.81995 L 142.7508 59.97662 L 142.7508 59.97662 L 200.5698 93.75098 L 200.5699 93.75104 L 203.3325 160.654 L 203.3325 160.654 L 218.6313 187.6422 L 218.6313 187.6422 L 195.0902 191.3839 M 191.7817 179.3311 L 203.3326 160.654 L 203.3325 160.654 L 230.2222 112.397 M 177.8215 160.6481 L 203.3325 160.6539 L 203.3325 160.654 L 227.1211 157.5648 M 200.5698 93.75095 L 134.2335 133.667 L 134.2335 133.667 L 130.8082 82.51917 M 156.6214 40.40521 L 142.7508 59.97662 L 142.7509 59.97662 L 125.4176 78.69449 M 120.8387 61.435 L 142.7508 59.97662 L 142.7508 59.97662 L 197.9824 58.81934 M 178.6763 167.2022 L 178.8813 172.8512 M 182.0888 202.7577 L 190.7206 220.3676 M 148.6196 228.957 L 157.5008 209.9709 M 104.4692 54.94269 L 84.0835 43.1535 L 84.0835 43.1535 L 95.60038 59.02734 M 111.7389 52.86694 L 126.0701 33.81995 M 18.07812 91.20956 L 37.52868 84.55212 M 35.37386 47.65472 L 28.52896 68.37384" fill-rule="evenodd" fill="none" fill-opacity="1" stroke="#FF0000" stroke-opacity="1" stroke-width="1.146528" stroke-linecap="round" stroke-linejoin="round"/>
<path id="path_2c9dfb92a1bd018891756391e8843a17" d="M 59.45983 212.5296 L 65.67638 213.6273 L 65.67638 213.6273 L 72.57949 223.4915 L 72.57948 223.4915 L 71.48163 229.7079 L 71.48164 229.7079 L 87.12769 248.8345 L 87.12769 248.8345 L 87.6972 255.1216 L 87.69722 255.1216 L 77.58899 267.2433 L 77.58899 267.2433 L 71.30199 267.813 L 71.302 267.813 L 59.11876 284.8773 L 59.11876 284.8773 L 47.79398 302.0349 L 47.79398 302.0349 L 49.19156 308.191 L 49.19156 308.191 L 42.79443 318.3457 L 42.79443 318.3457 L 36.63836 319.7432 L 36.63836 319.7432 L 31.79244 310.5811 L 31.79243 310.5811 L 29.42404 253.2269 L 29.42404 253.2269 L 33.69984 248.5827 L 33.69984 248.5828 L 37.30917 177.4532 L 37.30917 177.4531 L 48.29733 195.2658 L 48.29733 195.2658 L 54.4695 196.5905 L 54.4695 196.5906 L 60.78457 206.3573 L 60.78457 206.3573 L 59.45982 212.5295 L 59.45983 212.5296 Z" fill-rule="evenodd" fill="none" fill-opacity="1" stroke="#414141" stroke-opacity="1" stroke-width="1.146528" stroke-linecap="round" stroke-linejoin="round"/>
<path id="path_ac6117749afcf734c5ef3483db7f5c98" d="M 155.0592 496.8365 L 164.7881 489.744 L 164.7881 489.744 L 171.0247 490.7214 L 171.0247 490.7214 L 193.7806 481.0882 L 193.7806 481.0882 L 193.2345 499.7338 L 193.2345 499.7338 L 197.9959 503.8785 L 197.9959 503.8785 L 198.602 512.6331 L 198.602 512.6331 L 194.4572 517.3943 L 194.4572 517.3943 L 197.2773 534.6172 L 197.2773 534.6172 L 202.6459 537.9382 L 202.6459 537.9382 L 205.2009 548.7818 L 205.2009 548.7818 L 201.8799 554.1504 L 201.8799 554.1504 L 147.1713 549.4472 L 147.1713 549.4472 L 149.3415 527.7349 L 149.3416 527.735 L 145.8006 522.5089 L 145.8006 522.5089 L 148.8557 506.614 L 148.8557 506.614 L 154.0817 503.073 L 154.0817 503.0731 L 155.0592 496.8365 L 155.0592 496.8365 Z" fill-rule="evenodd" fill="none" fill-opacity="1" stroke="#414141" stroke-opacity="1" stroke-width="1.146528" stroke-linecap="round" stroke-linejoin="round"/>
<path id="path_f0f6221e2613dd16d1c59a4cf96eb385" d="M 233.379 188.4201 L 234.3619 182.1843 L 234.3619 182.1841 L 240.6296 177.6234 L 240.6296 177.6234 L 249.1796 176.9224 L 249.1796 176.9224 L 251.137 171.0898 L 251.137 171.0898 L 244.8295 171.3469 L 244.8295 171.347 L 239.8227 166.7326 L 239.8227 166.7325 L 239.5656 160.425 L 239.5656 160.4251 L 271.0497 127.8903 L 271.0497 127.8904 L 272.9187 155.4893 L 272.9187 155.4893 L 269.6877 180.9244 L 269.6877 180.9244 L 265.991 191.0426 L 265.991 191.0426 L 256.9349 200.242 L 256.9349 200.242 L 250.6223 200.2916 L 250.6221 200.2917 L 261.7991 206.2513 L 261.7992 206.2512 L 262.7222 211.5889 L 262.7223 211.5891 L 257.4078 210.5399 L 257.4078 210.5397 L 250.9632 220.4472 L 250.9632 220.4472 L 253.3652 226.2851 L 253.3652 226.2851 L 250.679 232.7269 L 250.6789 232.7269 L 244.841 235.1289 L 244.841 235.129 L 239.2933 248.416 L 239.2933 248.4159 L 243.9442 245.5492 L 243.9442 245.5492 L 245.087 250.8917 L 245.087 250.8918 L 234.5036 262.3199 L 234.5035 262.3199 L 232.7427 278.5487 L 232.7427 278.5487 L 236.6927 283.4729 L 236.6927 283.4729 L 236.4621 285.5728 L 236.4621 285.5728 L 230.7791 296.434 L 230.7791 296.4339 L 223.5236 290.2838 L 223.5236 290.2839 L 222.8326 288.5498 L 222.8326 288.5498 L 225.3272 282.7509 L 225.3272 282.7508 L 220.4753 269.8603 L 220.4753 269.8603 L 215.2126 266.3741 L 215.2126 266.3741 L 214.4476 262.6068 L 214.4477 262.6068 L 217.934 257.3441 L 217.934 257.3441 L 216.5988 243.9508 L 216.5988 243.9508 L 212.0457 239.5782 L 212.0457 239.5782 L 211.9058 232.6614 L 211.9057 232.6615 L 216.2782 228.1084 L 216.2782 228.1083 L 215.5231 217.5013 L 215.5231 217.5014 L 217.7802 211.5438 L 217.7802 211.5438 L 223.5357 208.9509 L 223.5358 208.9508 L 233.379 188.42 L 233.379 188.4201 Z" fill-rule="evenodd" fill="none" fill-opacity="1" stroke="#414141" stroke-opacity="1" stroke-width="1.146528" stroke-linecap="round" stroke-linejoin="round"/>
<path id="path_b9b43233d92cfca755996dac1214f3e7" d="M 165.1482 430.4439 L 126.2798 417.9305 L 126.2798 417.9305 L 127.6744 411.7738 L 127.6744 411.7738 L 130.4946 409.9952 L 130.4946 409.9952 L 136.6514 411.3899 L 136.6514 411.3899 L 146.5612 398.0555 L 146.5612 398.0555 L 146.2372 389.3651 L 146.2371 389.3651 L 147.3369 379.4456 L 147.3369 379.4456 L 143.294 374.5974 L 143.294 374.5975 L 143.5219 372.0813 L 143.5219 372.0813 L 148.3702 368.0385 L 148.3702 368.0384 L 148.9352 355.3548 L 148.9352 355.3548 L 157.3789 353.0931 L 157.3789 353.0931 L 151.0906 352.5403 L 151.0906 352.5403 L 148.4089 349.3416 L 148.4089 349.3416 L 147.6617 341.5022 L 147.6617 341.5022 L 142.7489 337.538 L 142.749 337.5379 L 142.2902 333.2434 L 142.2902 333.2434 L 145.5159 321.4173 L 145.5159 321.4173 L 153.8111 337.384 L 153.811 337.384 L 159.868 339.1623 L 159.868 339.1623 L 163.4131 345.6539 L 163.4131 345.6539 L 161.6347 351.711 L 161.6347 351.711 L 166.9229 361.4292 L 166.9229 361.4292 L 167.0049 362.4145 L 167.0049 362.4145 L 162.9269 367.2332 L 162.9269 367.2332 L 168.6514 364.6013 L 168.6514 364.6012 L 174.5721 366.791 L 174.5721 366.791 L 176.8587 371.7615 L 176.8587 371.7615 L 174.6689 377.6822 L 174.6689 377.6822 L 179.8547 392.7201 L 179.8547 392.7201 L 182.1789 400.3541 L 182.1789 400.3541 L 181.9614 401.062 L 181.9615 401.062 L 176.3836 404.0179 L 176.3836 404.0179 L 173.2377 409.2886 L 173.2377 409.2886 L 179.4966 404.7212 L 179.4966 404.7212 L 185.9026 409.08 L 185.9025 409.0799 L 187.6606 436.1997 L 187.6606 436.1997 L 182.2302 439.4187 L 182.2302 439.4187 L 168.3672 435.8743 L 168.3672 435.8743 L 165.1483 430.4439 L 165.1482 430.4439 Z" fill-rule="evenodd" fill="none" fill-opacity="1" stroke="#414141" stroke-opacity="1" stroke-width="1.146528" stroke-linecap="round" stroke-linejoin="round"/>
<path id="path_1245836489c4051d8e0bbf7ca71a1aa1" d="M 88.70192 148.5442 L 65.23747 149.8641 L 65.23747 149.864 L 60.53005 145.6581 L 60.53006 145.6581 L 54.62862 143.4167 L 54.62861 143.4167 L 37.27251 104.803 L 37.27251 104.8031 L 39.5139 98.90161 L 39.5139 98.90161 L 42.86855 94.35217 L 42.86855 94.35217 L 50.12797 105.5624 L 50.12798 105.5625 L 54.69086 111.2535 L 54.69086 111.2535 L 61.05519 113.8176 L 61.05519 113.8175 L 66.94776 113.3482 L 66.94778 113.3483 L 74.36571 110.978 L 74.36571 110.9781 L 80.38531 104.0206 L 80.3853 104.0204 L 82.27884 92.90491 L 82.27882 92.90491 L 80.65973 86.80341 L 80.65974 86.80341 L 87.76254 74.56961 L 87.76253 74.5694 L 94.56038 71.75104 L 94.56038 71.75104 L 101.5344 75.38943 L 101.5344 75.38959 L 122.3181 114.6852 L 122.3182 114.6851 L 127.8591 134.7086 L 127.8591 134.7088 L 133.7193 205.6884 L 133.7193 205.6884 L 111.9767 194.482 L 111.9767 194.4821 L 104.3935 186.1373 L 104.3935 186.1372 L 95.5741 183.5181 L 95.5741 183.5181 L 88.04755 185.5172 L 88.04757 185.517 L 82.83028 188.2958 L 82.83028 188.2959 L 78.84949 193.8845 L 78.8495 193.8845 L 78.07098 201.1372 L 78.07098 201.1372 L 77.9937 214.4924 L 77.9937 214.4925 L 73.75533 217.6466 L 73.75533 217.6467 L 72.71661 212.4666 L 72.71661 212.4666 L 65.2357 161.753 L 65.2357 161.753 L 97.52637 143.577" fill-rule="evenodd" fill="none" fill-opacity="1" stroke="#414141" stroke-opacity="1" stroke-width="1.146528" stroke-linecap="round" stroke-linejoin="round"/>
<path id="path_4121a0062a4be6f10b6106d277f28467" d="M 141.3061 507.5481 L 142.2635 513.7877 L 142.2636 513.7877 L 110.2644 557.3866 L 110.2644 557.3866 L 104.0247 558.3442 L 104.0247 558.3442 L 77.72246 536.3683 L 77.72246 536.3683 L 55.07219 515.3043 L 55.07219 515.3043 L 61.05109 504.6318 L 61.05109 504.6318 L 91.25734 479.8724 L 91.25734 479.8725 L 97.53931 480.4951 L 97.53931 480.4951 L 80.29524 470.2297 L 80.29526 470.2297 L 74.23669 472.1698 L 74.23669 472.1698 L 66.68948 468.3565 L 66.68948 468.3565 L 64.71838 462.3595 L 64.71838 462.3595 L 48.2435 455.8808 L 48.2435 455.8808 L 42.73143 458.9577 L 42.73143 458.9577 L 33.37395 456.3048 L 33.37395 456.3048 L 30.297 450.7928 L 30.297 450.7928 L 29.79634 444.5 L 29.79634 444.5 L 40.03661 432.4895 L 40.03661 432.4895 L 46.32946 431.9888 L 46.32946 431.9888 L 63.20574 419.5463 L 63.20574 419.5463 L 88.15146 422.4443 L 88.15143 422.4443 L 93.43359 418.9875 L 93.4336 418.9875 L 106.0543 421.6237 L 106.0543 421.6237 L 109.5111 426.9059 L 109.5111 426.9059 L 115.2476 424.2709 L 115.2476 424.2709 L 135.8806 431.9155 L 135.8806 431.9155 L 138.5154 437.6521 L 138.5155 437.6521 L 169.9776 451.2492 L 169.9776 451.2492 L 141.3957 507.4026" fill-rule="evenodd" fill="none" fill-opacity="1" stroke="#414141" stroke-opacity="1" stroke-width="1.146528" stroke-linecap="round" stroke-linejoin="round"/>
<path id="path_19c0d01cdea8128346a467669789f96b" d="M 29.32011 338.8943 L 50.47967 315.0628 L 50.47967 315.0627 L 56.80516 314.6617 L 56.80516 314.6618 L 73.26582 298.2612 L 73.26581 298.2612 L 79.26424 300.2281 L 79.26424 300.2281 L 87.50504 316.5108 L 87.50507 316.5109 L 85.53799 322.5094 L 85.53801 322.5092 L 74.52556 328.7675 L 74.52556 328.7675 L 79.3576 326.3188 L 79.3576 326.3188 L 79.91389 331.7072 L 79.91389 331.7073 L 88.64629 339.6719 L 88.64629 339.6718 L 93.91202 343.1536 L 93.91202 343.1536 L 95.30667 349.9923 L 95.30667 349.9924 L 91.82491 355.2581 L 91.82491 355.2581 L 93.29245 369.5818 L 93.29243 369.5818 L 90.61448 374.3439 L 90.61449 374.3439 L 87.02484 370.2252 L 87.02484 370.2252 L 93.80266 384.2491 L 93.80266 384.2491 L 98.41313 388.5612 L 98.41312 388.5612 L 98.66037 395.9535 L 98.66037 395.9534 L 94.3483 400.564 L 94.34831 400.5639 L 95.32133 418.5305 L 95.32132 418.5305 L 86.95929 400.1434 L 86.9593 400.1434 L 89.43523 385.2221 L 89.43523 385.2221 L 86.42198 390.6947 L 86.42198 390.6947 L 81.01416 387.5668 L 81.01416 387.5668 L 74.83701 386.2656 L 74.83701 386.2656 L 72.77863 383.1086 L 72.77863 383.1085 L 74.07988 376.9315 L 74.07988 376.9315 L 67.3913 367.6333 L 67.3913 367.6333 L 61.14185 366.7417 L 61.14186 366.7416 L 60.51009 365.8996 L 60.5101 365.8995 L 61.40179 359.6501 L 61.40179 359.6501 L 57.26317 352.0015 L 57.26317 352.0015 L 41.95078 345.5562 L 41.95077 345.5562 L 29.69438 345.1959 L 29.69438 345.1959 L 29.32011 338.8943 L 29.32011 338.8943 Z" fill-rule="evenodd" fill="none" fill-opacity="1" stroke="#414141" stroke-opacity="1" stroke-width="1.146528" stroke-linecap="round" stroke-linejoin="round"/>
<path id="path_3d7b6376cb564393be772f512f264530" d="M 249.0489 266.5337 L 254.7254 263.925 L 254.7254 263.925 L 257.2139 269.6552 L 257.2139 269.6552 L 263.5644 275.6621 L 263.5644 275.6623 L 257.3461 283.201 L 257.3461 283.201 L 255.5385 283.9797 L 255.5385 283.9798 L 249.6729 281.6462 L 249.6729 281.6462 L 249.0489 266.5338 L 249.0489 266.5337 Z" fill-rule="evenodd" fill="none" fill-opacity="1" stroke="#414141" stroke-opacity="1" stroke-width="1.146528" stroke-linecap="round" stroke-linejoin="round"/>
<path id="path_ea01293284e57131771445ece0e1a443" d="M 198.3847 300.3749 L 204.2715 300.5639 L 204.2715 300.5638 L 208.5899 305.1683 L 208.5899 305.1683 L 229.0407 303.9646 L 229.0408 303.9646 L 216.7144 320.3276 L 216.7143 320.3275 L 218.1575 326.473 L 218.1575 326.473 L 210.867 338.2383 L 210.867 338.2383 L 204.7214 339.6815 L 204.7214 339.6815 L 190.4169 324.6646 L 190.4169 324.6646 L 192.4341 330.6462 L 192.4341 330.6463 L 187.1888 341.2297 L 187.1888 341.2296 L 181.207 343.2468 L 181.207 343.2469 L 197.8627 353.4666 L 197.8627 353.4666 L 200.8748 357.9739 L 200.8748 357.9738 L 195.5904 359.1838 L 195.5904 359.1838 L 181.3725 353.4151 L 181.3725 353.4152 L 175.1315 352.4663 L 175.1315 352.4662 L 156.3563 326.9587 L 156.3564 326.9587 L 157.3053 320.7178 L 157.3052 320.7178 L 124.1785 297.245 L 124.1785 297.2449 L 115.546 297.9327" fill-rule="evenodd" fill="none" fill-opacity="1" stroke="#414141" stroke-opacity="1" stroke-width="1.146528" stroke-linecap="round" stroke-linejoin="round"/>
<path id="path_909133d0b9b80280837b04c23c0440eb" d="M 115.2657 297.8542 L 110.3454 290.6061 L 110.3454 290.6061 L 111.1588 296.7044 L 111.1589 296.7043 L 119.42 299.0173 L 119.42 299.0173 L 124.7068 304.6859 L 124.7068 304.6859 L 124.4869 310.9947 L 124.4869 310.9947 L 130.2496 333.0219 L 130.2496 333.0219 L 135.4077 336.6612 L 135.4077 336.6612 L 136.4915 342.9392 L 136.4915 342.9392 L 133.7346 353.2094 L 133.7346 353.2094 L 130.4095 368.7022 L 130.4095 368.7022 L 133.4075 374.2575 L 133.4075 374.2575 L 132.1092 378.5998 L 132.1092 378.5999 L 126.5538 381.5978 L 126.5537 381.5979 L 121.6805 393.4033 L 121.6805 393.4033 L 123.1456 399.5436 L 123.1456 399.5436 L 120.6079 403.6719 L 120.6079 403.6718 L 114.4675 405.1369 L 114.4675 405.137 L 106.5149 417.5349 L 106.5149 417.5349 L 102.9992 405.7917 L 102.9992 405.7917 L 103.1719 403.6862 L 103.1719 403.6862 L 107.9856 399.6022 L 107.9856 399.6022 L 109.3405 383.3346 L 109.3405 383.3346 L 101.4392 379.0745 L 101.4392 379.0745 L 101.1214 370.1036 L 101.1214 370.1036 L 107.28 368.7738 L 107.28 368.7738 L 102.0033 365.3088 L 102.0033 365.3088 L 100.893 359.9514 L 100.893 359.9514 L 104.3581 354.6747 L 104.3581 354.6747 L 101.1373 339.0972 L 101.1373 339.0972 L 95.3226 336.6398 L 95.32259 336.6398 L 94.2352 333.9604 L 94.2352 333.9604 L 96.69269 328.1459 L 96.6927 328.1458 L 93.19618 323.1008 L 93.19618 323.1008 L 96.14882 317.5214 L 96.14882 317.5214 L 99.7222 316.4211 L 99.72218 316.4211 L 105.3019 319.3737 L 105.3019 319.3737 L 90.26389 296.7367 L 90.26387 296.7366 L 86.09863 291.9931 L 86.09863 291.9931 L 86.95161 278.8539 L 86.95161 278.8539 L 91.9248 271.151 L 91.9248 271.151 L 88.75205 265.6937 L 88.75205 265.6937 L 92.9401 249.8738 L 92.94009 249.8738 L 99.0041 244.4099 L 99.0041 244.4099 L 105.1813 245.711 L 105.1813 245.7111 L 122.2904 271.9503 L 122.2904 271.9502 L 123.7325 282.3344 L 123.7325 282.3344 L 155.0743 266.694 L 155.0743 266.694 L 160.8762 264.2064 L 160.8763 264.2064 L 185.1112 273.8953 L 185.1112 273.8953 L 187.5989 279.6971 L 187.5989 279.6971 L 201.6225 286.8369 L 201.6225 286.8369 L 198.0596 293.1495" fill-rule="evenodd" fill="none" fill-opacity="1" stroke="#414141" stroke-opacity="1" stroke-width="1.146528" stroke-linecap="round" stroke-linejoin="round"/>
<path id="path_7f9731a472eec09d251e3cd4dfa915ad" d="M 188.3839 294.5938 L 203.5594 292.3286 L 203.5594 292.3286 L 208.4113 294.7467 L 208.4113 294.7467 L 204.4242 298.4198 L 204.4242 298.4198 L 185.8329 304.4381" fill-rule="evenodd" fill="none" fill-opacity="1" stroke="#414141" stroke-opacity="1" stroke-width="1.146528" stroke-linecap="round" stroke-linejoin="round"/>
<path id="path_bd2a1f1fc304b1c08fed58cf91ad64ec" d="M 281.3095 525.0002 L 278.2108 530.4999 L 278.2108 530.4999 L 276.78 545.6258 L 276.7799 545.6258 L 270.6002 546.9148 L 270.6002 546.9148 L 254.9268 536.6514 L 254.9268 536.6514 L 253.6379 530.4716 L 253.6379 530.4717 L 247.5372 528.849 L 247.5372 528.849 L 236.339 509.5356 L 236.339 509.5356 L 237.9616 503.435 L 237.9616 503.435 L 198.7266 485.8122 L 198.7266 485.8122 L 194.149 481.4653 L 194.149 481.4653 L 193.1157 441.4897 L 193.1157 441.4897 L 197.4627 436.9121 L 197.4627 436.9121 L 202.0754 432.6024 L 202.0754 432.6024 L 224.0663 433.3492 L 224.0663 433.3492 L 228.376 437.9619 L 228.376 437.9619 L 232.5826 433.2549 L 232.5827 433.2549 L 257.8898 431.8342 L 257.8898 431.8342 L 262.5967 436.0407 L 262.5967 436.0407 L 253.7479 472.2384 L 253.7478 472.2384 L 257.8095 477.071 L 257.8095 477.071 L 257.5973 479.5191 L 257.5973 479.5191 L 252.7647 483.5807 L 252.7648 483.5807 L 266.3565 488.0486 L 266.3564 488.0486 L 271.8564 491.1474 L 271.8564 491.1474 L 281.3095 525.0002 L 281.3095 525.0002 Z" fill-rule="evenodd" fill="none" fill-opacity="1" stroke="#414141" stroke-opacity="1" stroke-width="1.146528" stroke-linecap="round" stroke-linejoin="round"/>
<path id="path_0b9d2fda1bbbb92c02cca41a6ded9c4a" d="M 195.1131 423.7382 L 192.341 374.9004 L 192.341 374.9004 L 196.4632 367.5237 L 196.4632 367.5237 L 223.2579 352.7219 L 223.2578 352.7219 L 229.9895 354.1026 L 229.9895 354.1027 L 243.3833 325.8655 L 243.3833 325.8656 L 265.1972 308.8551 L 265.1973 308.855 L 270.3767 312.4639 L 270.3766 312.4639 L 271.4791 318.632 L 271.4791 318.632 L 267.8703 323.8115 L 267.8703 323.8115 L 259.5563 367.0955 L 259.5562 367.0955 L 257.184 372.9455 L 257.1841 372.9455 L 252.2292 375.0411 L 252.2292 375.0412 L 246.3792 372.6689 L 246.3792 372.6689 L 251.5301 376.3183 L 251.5301 376.3183 L 251.9435 378.7406 L 251.9435 378.7406 L 248.2941 383.8915 L 248.2942 383.8915 L 260.0974 419.2364 L 260.0974 419.2364 L 255.7531 423.8167 L 255.7531 423.8167 L 230.415 424.4873 L 230.415 424.4873 L 225.8347 420.1431 L 225.8348 420.1432 L 195.1131 423.7382 L 195.1131 423.7382 Z" fill-rule="evenodd" fill="none" fill-opacity="1" stroke="#414141" stroke-opacity="1" stroke-width="1.146528" stroke-linecap="round" stroke-linejoin="round"/>
<path id="path_ae4ce1f129956ae9d989d7138f60c446" d="M 134.6172 75.33005 L 131.7259 78.45227 L 131.7259 78.45227 L 125.4178 78.69455 L 125.4178 78.69461 L 120.5228 75.86789 L 120.5228 75.86777 L 120.8391 61.43506 L 120.8391 61.43509 L 111.7393 52.86707 L 111.7393 52.86694 L 104.4697 54.94263 L 104.4697 54.94269 L 95.60094 59.02744 L 95.60092 59.02747 L 88.47848 61.24316 L 88.47847 61.24307 L 82.7765 66.94638 L 82.7765 66.94629 L 77.71227 77.37366 L 77.71227 77.37366 L 75.4606 92.11682 L 75.4606 92.11694 L 69.17001 92.6452 L 69.17001 92.64508 L 59.24752 84.2598 L 59.24752 84.2598 L 56.77767 76.32861 L 56.77479 76.3262 L 37.52976 84.55222 L 37.52976 84.55234 L 34.75203 90.22098 L 34.75203 90.22098 L 23.74813 93.98724 L 23.74813 93.98724 L 18.07937 91.20944 L 18.07937 91.20944 L 28.53012 68.37387 L 28.53012 68.37393 L 25.69187 62.73538 L 25.69186 62.73529 L 29.73624 50.49286 L 29.73625 50.4931 L 35.37496 47.65485 L 35.37495 47.65479 L 84.08415 43.15344 L 84.08417 43.15344 L 91.83505 36.85767 L 91.83505 36.85785 L 120.7443 30.43134 L 120.7443 30.4314 L 126.0703 33.82013 L 126.0703 33.82019 L 156.6214 40.4057 L 156.6214 40.40558 L 162.5148 38.14307 L 162.5148 38.14313 L 194.4875 52.37744 L 194.4875 52.37744 L 197.9821 58.81931 L 197.9821 58.81943 L 200.5695 93.75107 L 200.5695 93.75107 L 214.4672 97.21732 L 214.4672 97.21732 L 228.8191 106.242 L 228.8191 106.242 L 230.2217 112.397 L 230.2217 112.397 L 227.1205 157.565 L 227.1205 157.5649 L 230.2039 163.0733 L 230.2039 163.0734 L 224.1393 184.559 L 224.1393 184.5589 L 218.6308 187.6421 L 218.6308 187.6421 L 190.7204 220.3676 L 190.7204 220.3676 L 192.0106 226.547 L 192.0106 226.547 L 170.1101 260.0058 L 170.1102 260.0059 L 163.9307 261.2961 L 163.9307 261.2961 L 142.4185 257.6401 L 142.4186 257.64 L 137.7026 261.8366 L 137.7026 261.8367 L 121.5441 260.8949 L 121.5441 260.895 L 117.3476 256.179 L 117.3476 256.179 L 132.3392 242.1117 L 132.3392 242.1117 L 133.0067 235.8344 L 133.0067 235.8343 L 140.7771 229.5579 L 140.7771 229.5579 L 148.6205 228.9604 L 148.6198 228.9568 L 143.4199 205.0552 L 143.4198 205.0553 L 157.5009 209.9707 L 157.5009 209.9707 L 169.0857 210.3796 L 169.0856 210.3797 L 176.7953 208.013 L 176.7953 208.0129 L 182.0886 202.7576 L 182.0886 202.7576 L 189.8513 196.8347 L 189.8513 196.8347 L 195.0899 191.3838 L 195.0899 191.3838 L 191.7813 179.3311 L 191.7814 179.3311 L 178.8811 172.8511 L 178.8811 172.8511 L 174.3178 170.1885 L 174.3178 170.1885 L 178.6761 167.2022 L 178.6761 167.2023 L 203.3321 160.6539" fill-rule="evenodd" fill="none" fill-opacity="1" stroke="#414141" stroke-opacity="1" stroke-width="1.146528" stroke-linecap="round" stroke-linejoin="round"/>
<path id="path_b8e06f8b9af6774ea97235b1d9280679" d="M 186.5394 165.1138 L 182.2841 165.1129 L 182.2841 165.1129 L 177.8214 160.648 L 177.8214 160.648 L 134.2337 133.6671 L 134.2337 133.6671 L 129.4817 129.5115 L 129.4817 129.5115 L 126.9488 91.68982 L 126.9488 91.68982 L 130.8085 82.51932 L 130.8085 82.51926 L 142.751 59.97668" fill-rule="evenodd" fill="none" fill-opacity="1" stroke="#414141" stroke-opacity="1" stroke-width="1.146528" stroke-linecap="round" stroke-linejoin="round"/>
</defs>
<g>
<use xlink:href="#path_87cd72a58c2a160bb5371082f87abbf8"/>
</g>
<g>
<use xlink:href="#path_ccfdd6de11e68654d0dd71a8014072d9"/>
</g>
<g>
<use xlink:href="#path_2c9dfb92a1bd018891756391e8843a17"/>
</g>
<g>
<use xlink:href="#path_ac6117749afcf734c5ef3483db7f5c98"/>
</g>
<g>
<use xlink:href="#path_f0f6221e2613dd16d1c59a4cf96eb385"/>
</g>
<g>
<use xlink:href="#path_b9b43233d92cfca755996dac1214f3e7"/>
</g>
<g>
<use xlink:href="#path_1245836489c4051d8e0bbf7ca71a1aa1"/>
</g>
<g>
<use xlink:href="#path_4121a0062a4be6f10b6106d277f28467"/>
</g>
<g>
<use xlink:href="#path_19c0d01cdea8128346a467669789f96b"/>
</g>
<g>
<use xlink:href="#path_3d7b6376cb564393be772f512f264530"/>
</g>
<g>
<use xlink:href="#path_ea01293284e57131771445ece0e1a443"/>
</g>
<g>
<use xlink:href="#path_909133d0b9b80280837b04c23c0440eb"/>
</g>
<g>
<use xlink:href="#path_7f9731a472eec09d251e3cd4dfa915ad"/>
</g>
<g>
<use xlink:href="#path_bd2a1f1fc304b1c08fed58cf91ad64ec"/>
</g>
<g>
<use xlink:href="#path_0b9d2fda1bbbb92c02cca41a6ded9c4a"/>
</g>
<g>
<use xlink:href="#path_ae4ce1f129956ae9d989d7138f60c446"/>
</g>
<g>
<use xlink:href="#path_b8e06f8b9af6774ea97235b1d9280679"/>
</g>
</svg>