  0
SECTION
  2
HEADER
  9
$ACADVER
  1
AC1009
  0
ENDSEC
  0
SECTION
  2
BLOCKS
  0
ENDSEC
  0
SECTION
  2
ENTITIES
  0
LINE
  8
CutLine
  6
CONTINUOUS
 62
8
 10
1437.802586
 20
398.757914
 11
1441.703175
 21
392.859999
  0
LINE
  8
CutLine
  6
CONTINUOUS
 62
8
 10
1441.703175
 20
392.859999
 11
1431.760699
 21
344.084079
  0
LINE
  8
CutLine
  6
CONTINUOUS
 62
8
 10
1431.760699
 20
344.084079
 11
1425.862784
 21
340.183489
  0
LINE
  8
CutLine
  6
CONTINUOUS
 62
8
 10
1404.740016
 20
359.234146
 11
1397.675762
 21
358.923796
  0
LINE
  8
CutLine
  6
CONTINUOUS
 62
8
 10
1397.675762
 20
358.923796
 11
1380.474079
 21
374.677660
  0
LINE
  8
CutLine
  6
CONTINUOUS
 62
8
 10
1380.474079
 20
374.677660
 11
1380.163729
 21
381.741914
  0
LINE
  8
CutLine
  6
CONTINUOUS
 62
8
 10
1475.568129
 20
363.522541
 11
1476.293427
 21
370.556313
  0
LINE
  8
CutLine
  6
CONTINUOUS
 62
8
 10
1476.293427
 20
370.556313
 11
1515.164895
 21
402.160569
  0
LINE
  8
CutLine
  6
CONTINUOUS
 62
8
 10
1515.164895
 20
402.160569
 11
1522.198666
 21
401.435270
  0
LINE
  8
CutLine
  6
CONTINUOUS
 62
8
 10
1498.931267
 20
456.846553
 11
1504.333045
 21
461.409534
  0
LINE
  8
CutLine
  6
CONTINUOUS
 62
8
 10
1504.333045
 20
461.409534
 11
1539.860732
 21
458.418945
  0
LINE
  8
CutLine
  6
CONTINUOUS
 62
8
 10
1539.860732
 20
458.418945
 11
1544.423714
 21
453.017168
  0
LINE
  8
CutLine
  6
CONTINUOUS
 62
8
 10
1546.735769
 20
324.514750
 11
1539.759136
 21
323.362971
  0
LINE
  8
CutLine
  6
CONTINUOUS
 62
8
 10
1539.759136
 20
323.362971
 11
1518.650671
 21
338.489387
  0
LINE
  8
CutLine
  6
CONTINUOUS
 62
8
 10
1518.650671
 20
338.489387
 11
1517.498892
 21
345.466020
  0
LINE
  8
CutLine
  6
CONTINUOUS
 62
8
 10
1668.293764
 20
446.975281
 11
1674.202218
 21
450.859888
  0
LINE
  8
CutLine
  6
CONTINUOUS
 62
8
 10
1674.202218
 20
450.859888
 11
1683.694181
 21
448.898267
  0
LINE
  8
CutLine
  6
CONTINUOUS
 62
8
 10
1683.694181
 20
448.898267
 11
1687.578788
 21
442.989813
  0
LINE
  8
CutLine
  6
CONTINUOUS
 62
8
 10
1705.846960
 20
389.811892
 11
1704.023894
 21
387.649920
  0
LINE
  8
CutLine
  6
CONTINUOUS
 62
8
 10
1643.005130
 20
379.449477
 11
1618.636868
 21
377.377085
  0
LINE
  8
CutLine
  6
CONTINUOUS
 62
8
 10
1618.636868
 20
377.377085
 11
1603.422829
 21
381.101261
  0
LINE
  8
CutLine
  6
CONTINUOUS
 62
8
 10
1580.083436
 20
457.721942
 11
1585.740993
 21
461.963645
  0
LINE
  8
CutLine
  6
CONTINUOUS
 62
8
 10
1585.740993
 20
461.963645
 11
1641.113709
 21
454.043899
  0
LINE
  8
CutLine
  6
CONTINUOUS
 62
8
 10
1641.113709
 20
454.043899
 11
1645.355413
 21
448.386342
  0
LINE
  8
CutLine
  6
CONTINUOUS
 62
8
 10
1635.937369
 20
284.866748
 11
1626.335243
 21
282.894187
  0
LINE
  8
CutLine
  6
CONTINUOUS
 62
8
 10
1626.335243
 20
282.894187
 11
1617.308666
 21
286.012777
  0
LINE
  8
CutLine
  6
CONTINUOUS
 62
8
 10
1617.308666
 20
286.012777
 11
1614.215517
 21
292.371427
  0
LINE
  8
CutLine
  6
CONTINUOUS
 62
8
 10
1700.104777
 20
270.022759
 11
1694.076468
 21
266.326884
  0
LINE
  8
CutLine
  6
CONTINUOUS
 62
8
 10
1694.076468
 20
266.326884
 11
1658.899740
 21
274.764345
  0
LINE
  8
CutLine
  6
CONTINUOUS
 62
8
 10
1658.899740
 20
274.764345
 11
1655.203865
 21
280.792654
  0
LINE
  8
CutLine
  6
CONTINUOUS
 62
8
 10
1550.397720
 20
308.950728
 11
1549.737661
 21
315.990921
  0
LINE
  8
CutLine
  6
CONTINUOUS
 62
8
 10
1549.737661
 20
315.990921
 11
1589.919723
 21
364.487093
  0
LINE
  8
CutLine
  6
CONTINUOUS
 62
8
 10
1589.919723
 20
364.487093
 11
1601.500383
 21
370.627092
  0
LINE
  8
CutLine
  6
CONTINUOUS
 62
8
 10
1951.136119
 20
452.847171
 11
1957.629502
 21
455.646454
  0
LINE
  8
CutLine
  6
CONTINUOUS
 62
8
 10
1957.629502
 20
455.646454
 11
2008.952277
 21
435.244189
  0
LINE
  8
CutLine
  6
CONTINUOUS
 62
8
 10
2008.952277
 20
435.244189
 11
2011.751561
 21
428.750807
  0
LINE
  8
CutLine
  6
CONTINUOUS
 62
8
 10
1960.718605
 20
228.226651
 11
1965.686751
 21
223.194999
  0
LINE
  8
CutLine
  6
CONTINUOUS
 62
8
 10
1965.686751
 20
223.194999
 11
1965.380177
 21
174.921620
  0
LINE
  8
CutLine
  6
CONTINUOUS
 62
8
 10
1965.380177
 20
174.921620
 11
1960.348525
 21
169.953474
  0
LINE
  8
CutLine
  6
CONTINUOUS
 62
8
 10
1895.125369
 20
170.851517
 11
1888.420508
 21
168.605445
  0
LINE
  8
CutLine
  6
CONTINUOUS
 62
8
 10
1888.420508
 20
168.605445
 11
1869.637405
 21
177.962001
  0
LINE
  8
CutLine
  6
CONTINUOUS
 62
8
 10
1869.637405
 20
177.962001
 11
1867.391333
 21
184.666862
  0
LINE
  8
CutLine
  6
CONTINUOUS
 62
8
 10
1799.104646
 20
442.487392
 11
1816.585680
 21
445.093032
  0
LINE
  8
CutLine
  6
CONTINUOUS
 62
8
 10
1816.585680
 20
445.093032
 11
1851.892445
 21
440.158963
  0
LINE
  8
CutLine
  6
CONTINUOUS
 62
8
 10
1851.892445
 20
440.158963
 11
1856.152307
 21
434.515066
  0
LINE
  8
CutLine
  6
CONTINUOUS
 62
8
 10
1814.169641
 20
223.837961
 11
1807.366884
 21
221.908584
  0
LINE
  8
CutLine
  6
CONTINUOUS
 62
8
 10
1807.366884
 20
221.908584
 11
1776.236946
 21
239.282117
  0
LINE
  8
CutLine
  6
CONTINUOUS
 62
8
 10
1776.236946
 20
239.282117
 11
1763.870778
 21
251.909618
  0
LINE
  8
CutLine
  6
CONTINUOUS
 62
8
 10
1705.217855
 20
387.810379
 11
1707.329890
 21
389.702174
  0
LINE
  8
CutLine
  6
CONTINUOUS
 62
8
 10
1790.855172
 20
383.522362
 11
1791.380806
 21
383.070785
  0
LINE
  8
CutLine
  6
CONTINUOUS
 62
8
 10
1692.575360
 20
323.023351
 11
1692.326321
 21
322.955665
  0
LINE
  8
CutLine
  6
CONTINUOUS
 62
8
 10
1604.752865
 20
368.919976
 11
1603.339900
 21
374.118782
  0
LINE
  8
CutLine
  6
CONTINUOUS
 62
8
 10
1489.221342
 20
406.240435
 11
1483.520566
 21
402.056997
  0
LINE
  8
CutLine
  6
CONTINUOUS
 62
8
 10
1483.520566
 20
402.056997
 11
1465.289467
 21
404.855676
  0
LINE
  8
CutLine
  6
CONTINUOUS
 62
8
 10
1465.289467
 20
404.855676
 11
1461.106029
 21
410.556452
  0
LINE
  8
CutLine
  6
CONTINUOUS
 62
8
 10
1764.681143
 20
160.549003
 11
1770.328277
 21
156.293434
  0
LINE
  8
CutLine
  6
CONTINUOUS
 62
8
 10
1770.328277
 20
156.293434
 11
1777.885235
 21
102.516331
  0
LINE
  8
CutLine
  6
CONTINUOUS
 62
8
 10
1777.885235
 20
102.516331
 11
1773.704204
 21
96.338761
  0
LINE
  8
CutLine
  6
CONTINUOUS
 62
8
 10
1737.313033
 20
9.714405
 11
1725.141859
 21
6.382138
  0
LINE
  8
CutLine
  6
CONTINUOUS
 62
8
 10
1725.141859
 20
6.382138
 11
1648.645727
 21
17.175127
  0
LINE
  8
CutLine
  6
CONTINUOUS
 62
8
 10
1648.645727
 20
17.175127
 11
1644.393304
 21
22.824632
  0
LINE
  8
CutLine
  6
CONTINUOUS
 62
8
 10
1773.704204
 20
96.338761
 11
1776.377378
 21
89.792454
  0
LINE
  8
CutLine
  6
CONTINUOUS
 62
8
 10
1776.377378
 20
89.792454
 11
1745.357387
 21
15.953479
  0
LINE
  8
CutLine
  6
CONTINUOUS
 62
8
 10
1745.357387
 20
15.953479
 11
1737.313033
 21
9.714405
  0
LINE
  8
CutLine
  6
CONTINUOUS
 62
8
 10
1644.393304
 20
22.824632
 11
1636.931075
 21
21.109547
  0
LINE
  8
CutLine
  6
CONTINUOUS
 62
8
 10
1636.931075
 20
21.109547
 11
1534.908129
 21
74.958254
  0
LINE
  8
CutLine
  6
CONTINUOUS
 62
8
 10
1534.908129
 20
74.958254
 11
1532.820168
 21
81.714023
  0
LINE
  8
CutLine
  6
CONTINUOUS
 62
8
 10
1658.678417
 20
226.661411
 11
1664.147160
 21
231.143915
  0
LINE
  8
CutLine
  6
CONTINUOUS
 62
8
 10
1664.147160
 20
231.143915
 11
1795.952736
 21
218.081056
  0
LINE
  8
CutLine
  6
CONTINUOUS
 62
8
 10
1795.952736
 20
218.081056
 11
1800.435241
 21
212.612313
  0
LINE
  8
CutLine
  6
CONTINUOUS
 62
8
 10
1582.063819
 20
172.175621
 11
1581.173993
 21
179.190477
  0
LINE
  8
CutLine
  6
CONTINUOUS
 62
8
 10
1581.173993
 20
179.190477
 11
1600.731074
 21
204.429945
  0
LINE
  8
CutLine
  6
CONTINUOUS
 62
8
 10
1600.731074
 20
204.429945
 11
1607.745931
 21
205.319771
  0
LINE
  8
CutLine
  6
CONTINUOUS
 62
8
 10
1500.962468
 20
308.868815
 11
1508.407862
 21
309.326519
  0
LINE
  8
CutLine
  6
CONTINUOUS
 62
8
 10
1508.407862
 20
309.326519
 11
1550.865432
 21
275.467412
  0
LINE
  8
CutLine
  6
CONTINUOUS
 62
8
 10
1550.865432
 20
275.467412
 11
1551.657108
 21
268.440802
  0
LINE
  8
CutLine
  6
CONTINUOUS
 62
8
 10
1371.896435
 20
234.925626
 11
1369.195209
 21
241.460408
  0
LINE
  8
CutLine
  6
CONTINUOUS
 62
8
 10
1369.195209
 20
241.460408
 11
1398.810883
 21
312.812064
  0
LINE
  8
CutLine
  6
CONTINUOUS
 62
8
 10
1398.810883
 20
312.812064
 11
1407.870546
 21
321.596367
  0
LINE
  8
CutLine
  6
CONTINUOUS
 62
8
 10
1551.657108
 20
268.440802
 11
1559.304013
 21
273.954247
  0
LINE
  8
CutLine
  6
CONTINUOUS
 62
8
 10
1559.304013
 20
273.954247
 11
1609.361996
 21
277.244710
  0
LINE
  8
CutLine
  6
CONTINUOUS
 62
8
 10
1609.361996
 20
277.244710
 11
1614.679186
 21
272.583434
  0
LINE
  8
CutLine
  6
CONTINUOUS
 62
8
 10
1468.463768
 20
111.181943
 11
1463.574405
 21
106.073702
  0
LINE
  8
CutLine
  6
CONTINUOUS
 62
8
 10
1463.574405
 20
106.073702
 11
1370.600384
 21
104.038207
  0
LINE
  8
CutLine
  6
CONTINUOUS
 62
8
 10
1370.600384
 20
104.038207
 11
1365.492142
 21
108.927570
  0
LINE
  8
CutLine
  6
CONTINUOUS
 62
8
 10
1554.306217
 20
143.558325
 11
1553.359127
 21
136.550970
  0
LINE
  8
CutLine
  6
CONTINUOUS
 62
8
 10
1553.359127
 20
136.550970
 11
1517.386715
 21
109.144610
  0
LINE
  8
CutLine
  6
CONTINUOUS
 62
8
 10
1517.386715
 20
109.144610
 11
1510.379361
 21
110.091700
  0
LINE
  8
CutLine
  6
CONTINUOUS
 62
8
 10
1404.740016
 20
359.234146
 11
1425.862784
 21
340.183489
  0
LINE
  8
ValleyLine
  6
CONTINUOUS
 62
1
 10
1425.862784
 20
340.183489
 11
1437.802586
 21
398.757914
  0
LINE
  8
ValleyLine
  6
CONTINUOUS
 62
1
 10
1380.163729
 20
381.741914
 11
1404.740016
 21
359.234146
  0
LINE
  8
CutLine
  6
CONTINUOUS
 62
8
 10
1437.802586
 20
398.757914
 11
1380.163729
 21
381.741914
  0
LINE
  8
MountainLine
  6
CONTINUOUS
 62
5
 10
1517.498892
 20
345.466020
 11
1522.198666
 21
401.435270
  0
LINE
  8
MountainLine
  6
CONTINUOUS
 62
5
 10
1522.198666
 20
401.435270
 11
1475.568129
 21
363.522541
  0
LINE
  8
CutLine
  6
CONTINUOUS
 62
8
 10
1475.568129
 20
363.522541
 11
1517.498892
 21
345.466020
  0
LINE
  8
MountainLine
  6
CONTINUOUS
 62
5
 10
1522.198666
 20
401.435270
 11
1544.423714
 21
453.017168
  0
LINE
  8
ValleyLine
  6
CONTINUOUS
 62
1
 10
1544.423714
 20
453.017168
 11
1498.931267
 21
456.846553
  0
LINE
  8
MountainLine
  6
CONTINUOUS
 62
5
 10
1498.931267
 20
456.846553
 11
1522.198666
 21
401.435270
  0
LINE
  8
MountainLine
  6
CONTINUOUS
 62
5
 10
1603.422829
 20
381.101261
 11
1544.423714
 21
453.017168
  0
LINE
  8
ValleyLine
  6
CONTINUOUS
 62
1
 10
1522.198666
 20
401.435270
 11
1603.422829
 21
381.101261
  0
LINE
  8
CutLine
  6
CONTINUOUS
 62
8
 10
1580.083436
 20
457.721942
 11
1544.423714
 21
453.017168
  0
LINE
  8
MountainLine
  6
CONTINUOUS
 62
5
 10
1603.422829
 20
381.101261
 11
1580.083436
 21
457.721942
  0
LINE
  8
MountainLine
  6
CONTINUOUS
 62
5
 10
1517.498892
 20
345.466020
 11
1603.422829
 21
381.101261
  0
LINE
  8
ValleyLine
  6
CONTINUOUS
 62
1
 10
1517.498892
 20
345.466020
 11
1546.735769
 21
324.514750
  0
LINE
  8
CutLine
  6
CONTINUOUS
 62
8
 10
1546.735769
 20
324.514750
 11
1603.422829
 21
381.101261
  0
LINE
  8
ValleyLine
  6
CONTINUOUS
 62
1
 10
1687.578788
 20
442.989813
 11
1668.293764
 21
446.975281
  0
LINE
  8
CutLine
  6
CONTINUOUS
 62
8
 10
1668.293764
 20
446.975281
 11
1645.355413
 21
448.386342
  0
LINE
  8
MountainLine
  6
CONTINUOUS
 62
5
 10
1603.422829
 20
381.101261
 11
1705.846960
 21
389.811892
  0
LINE
  8
MountainLine
  6
CONTINUOUS
 62
5
 10
1705.846960
 20
389.811892
 11
1687.578788
 21
442.989813
  0
LINE
  8
CutLine
  6
CONTINUOUS
 62
8
 10
1733.168219
 20
435.662714
 11
1687.578788
 21
442.989813
  0
LINE
  8
CutLine
  6
CONTINUOUS
 62
8
 10
1705.846960
 20
389.811892
 11
1791.654681
 21
383.463209
  0
LINE
  8
ValleyLine
  6
CONTINUOUS
 62
1
 10
1791.654681
 20
383.463209
 11
1733.168219
 21
435.662714
  0
LINE
  8
ValleyLine
  6
CONTINUOUS
 62
1
 10
1645.355413
 20
448.386342
 11
1580.083436
 21
457.721942
  0
LINE
  8
CutLine
  6
CONTINUOUS
 62
8
 10
1692.518878
 20
322.854599
 11
1601.500383
 21
370.627092
  0
LINE
  8
ValleyLine
  6
CONTINUOUS
 62
1
 10
1601.500383
 20
370.627092
 11
1614.215517
 21
292.371427
  0
LINE
  8
ValleyLine
  6
CONTINUOUS
 62
1
 10
1614.215517
 20
292.371427
 11
1635.937369
 21
284.866748
  0
LINE
  8
CutLine
  6
CONTINUOUS
 62
8
 10
1635.937369
 20
284.866748
 11
1655.203865
 21
280.792654
  0
LINE
  8
MountainLine
  6
CONTINUOUS
 62
5
 10
1655.203865
 20
280.792654
 11
1692.518878
 21
322.854599
  0
LINE
  8
ValleyLine
  6
CONTINUOUS
 62
1
 10
1700.104777
 20
270.022759
 11
1774.168427
 21
295.713817
  0
LINE
  8
MountainLine
  6
CONTINUOUS
 62
5
 10
1774.168427
 20
295.713817
 11
1692.575360
 21
323.023351
  0
LINE
  8
ValleyLine
  6
CONTINUOUS
 62
1
 10
1655.203865
 20
280.792654
 11
1700.104777
 21
270.022759
  0
LINE
  8
CutLine
  6
CONTINUOUS
 62
8
 10
1550.397720
 20
308.950728
 11
1614.215517
 21
292.371427
  0
LINE
  8
MountainLine
  6
CONTINUOUS
 62
5
 10
1601.500383
 20
370.627092
 11
1550.397720
 21
308.950728
  0
LINE
  8
CutLine
  6
CONTINUOUS
 62
8
 10
1956.900201
 20
327.046857
 11
1959.268492
 21
329.041696
  0
LINE
  8
CutLine
  6
CONTINUOUS
 62
8
 10
1959.268492
 20
329.041696
 11
1959.884380
 21
329.560472
  0
LINE
  8
CutLine
  6
CONTINUOUS
 62
8
 10
1959.884380
 20
329.560472
 11
1975.351765
 21
348.907248
  0
LINE
  8
CutLine
  6
CONTINUOUS
 62
8
 10
1975.351765
 20
348.907248
 11
1975.800831
 21
349.468955
  0
LINE
  8
CutLine
  6
CONTINUOUS
 62
8
 10
1975.800831
 20
349.468955
 11
1987.206082
 21
371.501486
  0
LINE
  8
CutLine
  6
CONTINUOUS
 62
8
 10
1987.206082
 20
371.501486
 11
1987.507340
 21
372.083461
  0
LINE
  8
CutLine
  6
CONTINUOUS
 62
8
 10
1987.507340
 20
372.083461
 11
1988.445782
 21
375.339752
  0
LINE
  8
CutLine
  6
CONTINUOUS
 62
8
 10
1988.445782
 20
375.339752
 11
2011.751561
 21
428.750807
  0
LINE
  8
ValleyLine
  6
CONTINUOUS
 62
1
 10
2011.751561
 20
428.750807
 11
1951.136119
 21
452.847171
  0
LINE
  8
ValleyLine
  6
CONTINUOUS
 62
1
 10
1920.227510
 20
450.679589
 11
1954.436704
 21
318.672578
  0
LINE
  8
CutLine
  6
CONTINUOUS
 62
8
 10
1954.436704
 20
318.672578
 11
1956.900201
 21
327.046857
  0
LINE
  8
CutLine
  6
CONTINUOUS
 62
8
 10
1951.136119
 20
452.847171
 11
1920.227510
 21
450.679589
  0
LINE
  8
MountainLine
  6
CONTINUOUS
 62
5
 10
1960.348525
 20
169.953474
 11
1960.718605
 21
228.226651
  0
LINE
  8
CutLine
  6
CONTINUOUS
 62
8
 10
1960.718605
 20
228.226651
 11
1959.217551
 21
231.264897
  0
LINE
  8
CutLine
  6
CONTINUOUS
 62
8
 10
1959.217551
 20
231.264897
 11
1959.047939
 21
231.897892
  0
LINE
  8
CutLine
  6
CONTINUOUS
 62
8
 10
1959.047939
 20
231.897892
 11
1952.626816
 21
255.862061
  0
LINE
  8
CutLine
  6
CONTINUOUS
 62
8
 10
1952.626816
 20
255.862061
 11
1952.544846
 21
256.576523
  0
LINE
  8
CutLine
  6
CONTINUOUS
 62
8
 10
1952.544846
 20
256.576523
 11
1949.721315
 21
281.184762
  0
LINE
  8
CutLine
  6
CONTINUOUS
 62
8
 10
1949.721315
 20
281.184762
 11
1949.475209
 21
281.951494
  0
LINE
  8
CutLine
  6
CONTINUOUS
 62
8
 10
1949.475209
 20
281.951494
 11
1948.528839
 21
284.899810
  0
LINE
  8
CutLine
  6
CONTINUOUS
 62
8
 10
1895.125369
 20
170.851517
 11
1960.348525
 21
169.953474
  0
LINE
  8
CutLine
  6
CONTINUOUS
 62
8
 10
1948.528839
 20
284.899810
 11
1949.452725
 21
293.579891
  0
LINE
  8
ValleyLine
  6
CONTINUOUS
 62
1
 10
1949.452725
 20
293.579891
 11
1867.391333
 21
184.666862
  0
LINE
  8
ValleyLine
  6
CONTINUOUS
 62
1
 10
1867.391333
 20
184.666862
 11
1895.125369
 21
170.851517
  0
LINE
  8
CutLine
  6
CONTINUOUS
 62
8
 10
1950.525868
 20
306.408049
 11
1954.436704
 21
318.672578
  0
LINE
  8
CutLine
  6
CONTINUOUS
 62
8
 10
1920.227510
 20
450.679589
 11
1856.152307
 21
434.515066
  0
LINE
  8
MountainLine
  6
CONTINUOUS
 62
5
 10
1856.152307
 20
434.515066
 11
1881.968371
 21
319.848972
  0
LINE
  8
ValleyLine
  6
CONTINUOUS
 62
1
 10
1856.152307
 20
434.515066
 11
1799.104646
 21
442.487392
  0
LINE
  8
CutLine
  6
CONTINUOUS
 62
8
 10
1799.104646
 20
442.487392
 11
1733.168219
 21
435.662714
  0
LINE
  8
MountainLine
  6
CONTINUOUS
 62
5
 10
1791.380806
 20
383.070785
 11
1881.968371
 21
319.848972
  0
LINE
  8
CutLine
  6
CONTINUOUS
 62
8
 10
1949.452725
 20
293.579891
 11
1950.525868
 21
306.408049
  0
LINE
  8
MountainLine
  6
CONTINUOUS
 62
5
 10
1881.968371
 20
319.848972
 11
1814.169641
 21
223.837961
  0
LINE
  8
CutLine
  6
CONTINUOUS
 62
8
 10
1814.169641
 20
223.837961
 11
1867.391333
 21
184.666862
  0
LINE
  8
CutLine
  6
CONTINUOUS
 62
8
 10
1700.104777
 20
270.022759
 11
1763.870778
 21
251.909618
  0
LINE
  8
ValleyLine
  6
CONTINUOUS
 62
1
 10
1763.870778
 20
251.909618
 11
1814.169641
 21
223.837961
  0
LINE
  8
MountainLine
  6
CONTINUOUS
 62
5
 10
1881.968371
 20
319.848972
 11
1774.168427
 21
295.713817
  0
LINE
  8
MountainLine
  6
CONTINUOUS
 62
5
 10
1791.380806
 20
383.070785
 11
1705.217855
 21
387.810379
  0
LINE
  8
CutLine
  6
CONTINUOUS
 62
8
 10
1705.217855
 20
387.810379
 11
1603.339900
 21
374.118782
  0
LINE
  8
ValleyLine
  6
CONTINUOUS
 62
1
 10
1603.339900
 20
374.118782
 11
1881.968371
 21
319.848972
  0
LINE
  8
MountainLine
  6
CONTINUOUS
 62
5
 10
1603.339900
 20
374.118782
 11
1692.575360
 21
323.023351
  0
LINE
  8
ValleyLine
  6
CONTINUOUS
 62
1
 10
1461.106029
 20
410.556452
 11
1489.221342
 21
406.240435
  0
LINE
  8
CutLine
  6
CONTINUOUS
 62
8
 10
1498.931267
 20
456.846553
 11
1461.106029
 21
410.556452
  0
LINE
  8
CutLine
  6
CONTINUOUS
 62
8
 10
1489.221342
 20
406.240435
 11
1522.198666
 21
401.435270
  0
LINE
  8
ValleyLine
  6
CONTINUOUS
 62
1
 10
1773.704204
 20
96.338761
 11
1764.681143
 21
160.549003
  0
LINE
  8
MountainLine
  6
CONTINUOUS
 62
5
 10
1764.681143
 20
160.549003
 11
1644.393304
 21
22.824632
  0
LINE
  8
MountainLine
  6
CONTINUOUS
 62
5
 10
1644.393304
 20
22.824632
 11
1773.704204
 21
96.338761
  0
LINE
  8
ValleyLine
  6
CONTINUOUS
 62
1
 10
1644.393304
 20
22.824632
 11
1737.313033
 21
9.714405
  0
LINE
  8
ValleyLine
  6
CONTINUOUS
 62
1
 10
1737.313033
 20
9.714405
 11
1773.704204
 21
96.338761
  0
LINE
  8
ValleyLine
  6
CONTINUOUS
 62
1
 10
1532.820168
 20
81.714023
 11
1644.393304
 21
22.824632
  0
LINE
  8
CutLine
  6
CONTINUOUS
 62
8
 10
1764.681143
 20
160.549003
 11
1800.435241
 21
212.612313
  0
LINE
  8
ValleyLine
  6
CONTINUOUS
 62
1
 10
1800.435241
 20
212.612313
 11
1658.678417
 21
226.661411
  0
LINE
  8
CutLine
  6
CONTINUOUS
 62
8
 10
1658.678417
 20
226.661411
 11
1607.745931
 21
205.319771
  0
LINE
  8
ValleyLine
  6
CONTINUOUS
 62
1
 10
1607.745931
 20
205.319771
 11
1582.063819
 21
172.175621
  0
LINE
  8
CutLine
  6
CONTINUOUS
 62
8
 10
1582.063819
 20
172.175621
 11
1532.820168
 21
81.714023
  0
LINE
  8
ValleyLine
  6
CONTINUOUS
 62
1
 10
1551.657108
 20
268.440802
 11
1500.962468
 21
308.868815
  0
LINE
  8
MountainLine
  6
CONTINUOUS
 62
5
 10
1500.962468
 20
308.868815
 11
1371.896435
 21
234.925626
  0
LINE
  8
MountainLine
  6
CONTINUOUS
 62
5
 10
1371.896435
 20
234.925626
 11
1551.657108
 21
268.440802
  0
LINE
  8
CutLine
  6
CONTINUOUS
 62
8
 10
1500.962468
 20
308.868815
 11
1407.870546
 21
321.596367
  0
LINE
  8
ValleyLine
  6
CONTINUOUS
 62
1
 10
1407.870546
 20
321.596367
 11
1371.896435
 21
234.925626
  0
LINE
  8
CutLine
  6
CONTINUOUS
 62
8
 10
1554.306217
 20
143.558325
 11
1614.679186
 21
272.583434
  0
LINE
  8
ValleyLine
  6
CONTINUOUS
 62
1
 10
1614.679186
 20
272.583434
 11
1551.657108
 21
268.440802
  0
LINE
  8
CutLine
  6
CONTINUOUS
 62
8
 10
1371.896435
 20
234.925626
 11
1365.492142
 21
108.927570
  0
LINE
  8
ValleyLine
  6
CONTINUOUS
 62
1
 10
1365.492142
 20
108.927570
 11
1468.463768
 21
111.181943
  0
LINE
  8
CutLine
  6
CONTINUOUS
 62
8
 10
1468.463768
 20
111.181943
 11
1510.379361
 21
110.091700
  0
LINE
  8
ValleyLine
  6
CONTINUOUS
 62
1
 10
1510.379361
 20
110.091700
 11
1554.306217
 21
143.558325
  0
ENDSEC
  0
EOF
