  0
SECTION
  2
HEADER
  9
$ACADVER
  1
AC1009
  0
ENDSEC
  0
SECTION
  2
BLOCKS
  0
ENDSEC
  0
SECTION
  2
ENTITIES
  0
LINE
  8
CutLine
  6
CONTINUOUS
 62
8
 10
2495.706906
 20
351.780506
 11
2502.502194
 21
349.824985
  0
LINE
  8
CutLine
  6
CONTINUOUS
 62
8
 10
2502.502194
 20
349.824985
 11
2515.774842
 21
325.826644
  0
LINE
  8
CutLine
  6
CONTINUOUS
 62
8
 10
2515.774842
 20
325.826644
 11
2513.819321
 21
319.031356
  0
LINE
  8
CutLine
  6
CONTINUOUS
 62
8
 10
2490.218276
 20
276.078803
 11
2483.238578
 21
274.945743
  0
LINE
  8
CutLine
  6
CONTINUOUS
 62
8
 10
2483.238578
 20
274.945743
 11
2448.067920
 21
300.292253
  0
LINE
  8
CutLine
  6
CONTINUOUS
 62
8
 10
2448.067920
 20
300.292253
 11
2446.934860
 21
307.271950
  0
LINE
  8
CutLine
  6
CONTINUOUS
 62
8
 10
2554.551895
 20
246.562543
 11
2552.208282
 21
239.891151
  0
LINE
  8
CutLine
  6
CONTINUOUS
 62
8
 10
2552.208282
 20
239.891151
 11
2504.499910
 21
216.988080
  0
LINE
  8
CutLine
  6
CONTINUOUS
 62
8
 10
2504.499910
 20
216.988080
 11
2497.828517
 21
219.331693
  0
LINE
  8
CutLine
  6
CONTINUOUS
 62
8
 10
2513.819321
 20
319.031356
 11
2520.220742
 21
316.027722
  0
LINE
  8
CutLine
  6
CONTINUOUS
 62
8
 10
2520.220742
 20
316.027722
 11
2527.674400
 21
295.396039
  0
LINE
  8
CutLine
  6
CONTINUOUS
 62
8
 10
2527.674400
 20
295.396039
 11
2524.670767
 21
288.994619
  0
LINE
  8
CutLine
  6
CONTINUOUS
 62
8
 10
2446.566450
 20
425.354358
 11
2456.145475
 21
421.619307
  0
LINE
  8
CutLine
  6
CONTINUOUS
 62
8
 10
2073.148988
 20
424.456649
 11
2078.088691
 21
429.516228
  0
LINE
  8
CutLine
  6
CONTINUOUS
 62
8
 10
2078.088691
 20
429.516228
 11
2271.736819
 21
431.837782
  0
LINE
  8
CutLine
  6
CONTINUOUS
 62
8
 10
2271.736819
 20
431.837782
 11
2276.796398
 21
426.898080
  0
LINE
  8
CutLine
  6
CONTINUOUS
 62
8
 10
2049.124313
 20
313.575146
 11
2044.006528
 21
318.454519
  0
LINE
  8
CutLine
  6
CONTINUOUS
 62
8
 10
2044.006528
 20
318.454519
 11
2041.491967
 21
423.896073
  0
LINE
  8
CutLine
  6
CONTINUOUS
 62
8
 10
2041.491967
 20
423.896073
 11
2046.371340
 21
429.013857
  0
LINE
  8
CutLine
  6
CONTINUOUS
 62
8
 10
2308.167614
 20
261.996169
 11
2302.287477
 21
258.068831
  0
LINE
  8
CutLine
  6
CONTINUOUS
 62
8
 10
2302.287477
 20
258.068831
 11
2053.051651
 21
307.695008
  0
LINE
  8
CutLine
  6
CONTINUOUS
 62
8
 10
2053.051651
 20
307.695008
 11
2049.124313
 21
313.575146
  0
LINE
  8
CutLine
  6
CONTINUOUS
 62
8
 10
2402.030232
 20
438.152447
 11
2407.899851
 21
442.095487
  0
LINE
  8
CutLine
  6
CONTINUOUS
 62
8
 10
2407.899851
 20
442.095487
 11
2451.021871
 21
433.629079
  0
LINE
  8
CutLine
  6
CONTINUOUS
 62
8
 10
2451.021871
 20
433.629079
 11
2454.964912
 21
427.759459
  0
LINE
  8
CutLine
  6
CONTINUOUS
 62
8
 10
2624.315324
 20
188.443801
 11
2625.621096
 21
181.494344
  0
LINE
  8
CutLine
  6
CONTINUOUS
 62
8
 10
2625.621096
 20
181.494344
 11
2610.143772
 21
158.855086
  0
LINE
  8
CutLine
  6
CONTINUOUS
 62
8
 10
2610.143772
 20
158.855086
 11
2603.194314
 21
157.549314
  0
LINE
  8
CutLine
  6
CONTINUOUS
 62
8
 10
2604.871421
 20
233.431197
 11
2601.129691
 21
239.431152
  0
LINE
  8
CutLine
  6
CONTINUOUS
 62
8
 10
2601.129691
 20
239.431152
 11
2611.800964
 21
285.465612
  0
LINE
  8
CutLine
  6
CONTINUOUS
 62
8
 10
2611.800964
 20
285.465612
 11
2617.800919
 21
289.207342
  0
LINE
  8
CutLine
  6
CONTINUOUS
 62
8
 10
2671.702543
 20
256.746970
 11
2671.305973
 21
248.595355
  0
LINE
  8
CutLine
  6
CONTINUOUS
 62
8
 10
2671.305973
 20
248.595355
 11
2645.001781
 21
217.869522
  0
LINE
  8
CutLine
  6
CONTINUOUS
 62
8
 10
2645.001781
 20
217.869522
 11
2637.951870
 21
217.322930
  0
LINE
  8
CutLine
  6
CONTINUOUS
 62
8
 10
2557.221117
 20
91.753949
 11
2547.332465
 21
88.939184
  0
LINE
  8
CutLine
  6
CONTINUOUS
 62
8
 10
2148.601515
 20
123.270181
 11
2144.234921
 21
128.831913
  0
LINE
  8
CutLine
  6
CONTINUOUS
 62
8
 10
2144.234921
 20
128.831913
 11
2156.840221
 21
233.547484
  0
LINE
  8
CutLine
  6
CONTINUOUS
 62
8
 10
2156.840221
 20
233.547484
 11
2162.401953
 21
237.914077
  0
LINE
  8
CutLine
  6
CONTINUOUS
 62
8
 10
2378.173863
 20
103.417470
 11
2372.665891
 21
98.983257
  0
LINE
  8
CutLine
  6
CONTINUOUS
 62
8
 10
2372.665891
 20
98.983257
 11
2180.123504
 21
119.777887
  0
LINE
  8
CutLine
  6
CONTINUOUS
 62
8
 10
2180.123504
 20
119.777887
 11
2175.689291
 21
125.285859
  0
LINE
  8
CutLine
  6
CONTINUOUS
 62
8
 10
2459.704502
 20
192.797661
 11
2466.034168
 21
189.645626
  0
LINE
  8
CutLine
  6
CONTINUOUS
 62
8
 10
2466.034168
 20
189.645626
 11
2481.373974
 21
143.873326
  0
LINE
  8
CutLine
  6
CONTINUOUS
 62
8
 10
2481.373974
 20
143.873326
 11
2478.221938
 21
137.543660
  0
LINE
  8
CutLine
  6
CONTINUOUS
 62
8
 10
2425.055679
 20
264.623456
 11
2426.197470
 21
269.756180
  0
LINE
  8
CutLine
  6
CONTINUOUS
 62
8
 10
2426.197470
 20
269.756180
 11
2428.295632
 21
264.934742
  0
LINE
  8
CutLine
  6
CONTINUOUS
 62
8
 10
2555.466591
 20
85.752546
 11
2550.987429
 21
80.281065
  0
LINE
  8
CutLine
  6
CONTINUOUS
 62
8
 10
2550.987429
 20
80.281065
 11
2507.259036
 21
75.920294
  0
LINE
  8
CutLine
  6
CONTINUOUS
 62
8
 10
2507.259036
 20
75.920294
 11
2501.787555
 21
80.399456
  0
LINE
  8
MountainLine
  6
CONTINUOUS
 62
5
 10
2513.819321
 20
319.031356
 11
2495.706906
 21
351.780506
  0
LINE
  8
ValleyLine
  6
CONTINUOUS
 62
1
 10
2495.706906
 20
351.780506
 11
2448.058825
 21
315.164355
  0
LINE
  8
CutLine
  6
CONTINUOUS
 62
8
 10
2448.058825
 20
315.164355
 11
2447.522936
 21
311.401300
  0
LINE
  8
CutLine
  6
CONTINUOUS
 62
8
 10
2447.522936
 20
311.401300
 11
2446.934860
 21
307.271950
  0
LINE
  8
MountainLine
  6
CONTINUOUS
 62
5
 10
2446.934860
 20
307.271950
 11
2490.218276
 21
276.078803
  0
LINE
  8
ValleyLine
  6
CONTINUOUS
 62
1
 10
2490.218276
 20
276.078803
 11
2513.819321
 21
319.031356
  0
LINE
  8
CutLine
  6
CONTINUOUS
 62
8
 10
2490.218276
 20
276.078803
 11
2497.828517
 21
219.331693
  0
LINE
  8
ValleyLine
  6
CONTINUOUS
 62
1
 10
2497.828517
 20
219.331693
 11
2554.551895
 21
246.562543
  0
LINE
  8
CutLine
  6
CONTINUOUS
 62
8
 10
2554.551895
 20
246.562543
 11
2524.670767
 21
288.994619
  0
LINE
  8
MountainLine
  6
CONTINUOUS
 62
5
 10
2524.670767
 20
288.994619
 11
2490.218276
 21
276.078803
  0
LINE
  8
MountainLine
  6
CONTINUOUS
 62
5
 10
2524.670767
 20
288.994619
 11
2513.819321
 21
319.031356
  0
LINE
  8
CutLine
  6
CONTINUOUS
 62
8
 10
2389.150851
 20
408.357157
 11
2397.639991
 21
330.337725
  0
LINE
  8
CutLine
  6
CONTINUOUS
 62
8
 10
2397.639991
 20
330.337725
 11
2407.424356
 21
329.801745
  0
LINE
  8
CutLine
  6
CONTINUOUS
 62
8
 10
2407.424356
 20
329.801745
 11
2411.145279
 21
329.597913
  0
LINE
  8
CutLine
  6
CONTINUOUS
 62
8
 10
2411.145279
 20
329.597913
 11
2433.565181
 21
322.172778
  0
LINE
  8
CutLine
  6
CONTINUOUS
 62
8
 10
2433.565181
 20
322.172778
 11
2437.971675
 21
320.713408
  0
LINE
  8
CutLine
  6
CONTINUOUS
 62
8
 10
2437.971675
 20
320.713408
 11
2440.447611
 21
319.677420
  0
LINE
  8
ValleyLine
  6
CONTINUOUS
 62
1
 10
2421.134802
 20
418.071394
 11
2389.150851
 21
408.357157
  0
LINE
  8
CutLine
  6
CONTINUOUS
 62
8
 10
2443.173157
 20
318.305139
 11
2448.058825
 21
315.164355
  0
LINE
  8
CutLine
  6
CONTINUOUS
 62
8
 10
2495.706906
 20
351.780506
 11
2456.145475
 21
421.619307
  0
LINE
  8
ValleyLine
  6
CONTINUOUS
 62
1
 10
2456.145475
 20
421.619307
 11
2443.173157
 21
318.305139
  0
LINE
  8
CutLine
  6
CONTINUOUS
 62
8
 10
2440.447611
 20
319.677420
 11
2443.173157
 21
318.305139
  0
LINE
  8
ValleyLine
  6
CONTINUOUS
 62
1
 10
2456.145475
 20
421.619307
 11
2421.134802
 21
418.071394
  0
LINE
  8
MountainLine
  6
CONTINUOUS
 62
5
 10
2308.167614
 20
261.996169
 11
2319.308008
 21
398.005207
  0
LINE
  8
MountainLine
  6
CONTINUOUS
 62
5
 10
2319.308008
 20
398.005207
 11
2276.796398
 21
426.898080
  0
LINE
  8
ValleyLine
  6
CONTINUOUS
 62
1
 10
2276.796398
 20
426.898080
 11
2073.148988
 21
424.456649
  0
LINE
  8
CutLine
  6
CONTINUOUS
 62
8
 10
2073.148988
 20
424.456649
 11
2046.371340
 21
429.013857
  0
LINE
  8
ValleyLine
  6
CONTINUOUS
 62
1
 10
2046.371340
 20
429.013857
 11
2049.124313
 21
313.575146
  0
LINE
  8
MountainLine
  6
CONTINUOUS
 62
5
 10
2049.124313
 20
313.575146
 11
2308.167614
 21
261.996169
  0
LINE
  8
CutLine
  6
CONTINUOUS
 62
8
 10
2402.030232
 20
438.152447
 11
2276.796398
 21
426.898080
  0
LINE
  8
MountainLine
  6
CONTINUOUS
 62
5
 10
2319.308008
 20
398.005207
 11
2402.030232
 21
438.152447
  0
LINE
  8
MountainLine
  6
CONTINUOUS
 62
5
 10
2389.150851
 20
408.357157
 11
2402.030232
 21
438.152447
  0
LINE
  8
CutLine
  6
CONTINUOUS
 62
8
 10
2308.167614
 20
261.996169
 11
2311.180193
 21
260.493786
  0
LINE
  8
CutLine
  6
CONTINUOUS
 62
8
 10
2311.180193
 20
260.493786
 11
2324.593509
 21
281.094088
  0
LINE
  8
CutLine
  6
CONTINUOUS
 62
8
 10
2324.593509
 20
281.094088
 11
2325.077233
 21
281.834355
  0
LINE
  8
CutLine
  6
CONTINUOUS
 62
8
 10
2325.077233
 20
281.834355
 11
2339.586587
 21
301.850436
  0
LINE
  8
CutLine
  6
CONTINUOUS
 62
8
 10
2339.586587
 20
301.850436
 11
2340.048543
 21
302.487718
  0
LINE
  8
CutLine
  6
CONTINUOUS
 62
8
 10
2340.048543
 20
302.487718
 11
2350.445085
 21
325.076476
  0
LINE
  8
CutLine
  6
CONTINUOUS
 62
8
 10
2350.445085
 20
325.076476
 11
2350.725599
 21
325.685959
  0
LINE
  8
CutLine
  6
CONTINUOUS
 62
8
 10
2350.725599
 20
325.685959
 11
2351.520332
 21
328.996041
  0
LINE
  8
CutLine
  6
CONTINUOUS
 62
8
 10
2351.520332
 20
328.996041
 11
2376.702870
 21
381.548300
  0
LINE
  8
CutLine
  6
CONTINUOUS
 62
8
 10
2376.702870
 20
381.548300
 11
2389.150851
 21
408.357157
  0
LINE
  8
CutLine
  6
CONTINUOUS
 62
8
 10
2421.134802
 20
418.071394
 11
2454.964912
 21
427.759459
  0
LINE
  8
ValleyLine
  6
CONTINUOUS
 62
1
 10
2454.964912
 20
427.759459
 11
2402.030232
 21
438.152447
  0
LINE
  8
CutLine
  6
CONTINUOUS
 62
8
 10
2559.034357
 20
202.293849
 11
2559.212872
 21
198.497022
  0
LINE
  8
ValleyLine
  6
CONTINUOUS
 62
1
 10
2559.212872
 20
198.497022
 11
2603.194314
 21
157.549314
  0
LINE
  8
MountainLine
  6
CONTINUOUS
 62
5
 10
2603.194314
 20
157.549314
 11
2624.315324
 21
188.443801
  0
LINE
  8
ValleyLine
  6
CONTINUOUS
 62
1
 10
2624.315324
 20
188.443801
 11
2604.871421
 21
233.431197
  0
LINE
  8
CutLine
  6
CONTINUOUS
 62
8
 10
2604.871421
 20
233.431197
 11
2558.838443
 21
206.460260
  0
LINE
  8
CutLine
  6
CONTINUOUS
 62
8
 10
2558.838443
 20
206.460260
 11
2559.034357
 21
202.293849
  0
LINE
  8
CutLine
  6
CONTINUOUS
 62
8
 10
2671.702543
 20
256.746970
 11
2617.800919
 21
289.207342
  0
LINE
  8
MountainLine
  6
CONTINUOUS
 62
5
 10
2617.800919
 20
289.207342
 11
2604.871421
 21
233.431197
  0
LINE
  8
MountainLine
  6
CONTINUOUS
 62
5
 10
2604.871421
 20
233.431197
 11
2637.951870
 21
217.322930
  0
LINE
  8
MountainLine
  6
CONTINUOUS
 62
5
 10
2637.951870
 20
217.322930
 11
2671.702543
 21
256.746970
  0
LINE
  8
CutLine
  6
CONTINUOUS
 62
8
 10
2624.315324
 20
188.443801
 11
2637.951870
 21
217.322930
  0
LINE
  8
CutLine
  6
CONTINUOUS
 62
8
 10
2551.209863
 20
194.722080
 11
2548.540200
 21
194.998536
  0
LINE
  8
CutLine
  6
CONTINUOUS
 62
8
 10
2548.540200
 20
194.998536
 11
2543.914230
 21
194.614674
  0
LINE
  8
CutLine
  6
CONTINUOUS
 62
8
 10
2543.914230
 20
194.614674
 11
2520.377655
 21
192.661645
  0
LINE
  8
CutLine
  6
CONTINUOUS
 62
8
 10
2520.377655
 20
192.661645
 11
2516.865691
 21
191.415480
  0
LINE
  8
CutLine
  6
CONTINUOUS
 62
8
 10
2516.865691
 20
191.415480
 11
2507.630798
 21
188.138620
  0
LINE
  8
CutLine
  6
CONTINUOUS
 62
8
 10
2507.630798
 20
188.138620
 11
2491.776323
 21
111.276842
  0
LINE
  8
ValleyLine
  6
CONTINUOUS
 62
1
 10
2491.776323
 20
111.276842
 11
2522.701260
 21
98.588745
  0
LINE
  8
ValleyLine
  6
CONTINUOUS
 62
1
 10
2522.701260
 20
98.588745
 11
2551.209863
 21
194.722080
  0
LINE
  8
ValleyLine
  6
CONTINUOUS
 62
1
 10
2554.052707
 20
195.831129
 11
2557.221117
 21
91.753949
  0
LINE
  8
CutLine
  6
CONTINUOUS
 62
8
 10
2557.221117
 20
91.753949
 11
2603.194314
 21
157.549314
  0
LINE
  8
CutLine
  6
CONTINUOUS
 62
8
 10
2559.212872
 20
198.497022
 11
2554.052707
 21
195.831129
  0
LINE
  8
CutLine
  6
CONTINUOUS
 62
8
 10
2554.052707
 20
195.831129
 11
2551.209863
 21
194.722080
  0
LINE
  8
ValleyLine
  6
CONTINUOUS
 62
1
 10
2522.701260
 20
98.588745
 11
2557.221117
 21
91.753949
  0
LINE
  8
ValleyLine
  6
CONTINUOUS
 62
1
 10
2162.401953
 20
237.914077
 11
2148.601515
 21
123.270181
  0
LINE
  8
CutLine
  6
CONTINUOUS
 62
8
 10
2148.601515
 20
123.270181
 11
2175.689291
 21
125.285859
  0
LINE
  8
ValleyLine
  6
CONTINUOUS
 62
1
 10
2175.689291
 20
125.285859
 11
2378.173863
 21
103.417470
  0
LINE
  8
MountainLine
  6
CONTINUOUS
 62
5
 10
2378.173863
 20
103.417470
 11
2423.221482
 21
128.171199
  0
LINE
  8
MountainLine
  6
CONTINUOUS
 62
5
 10
2423.221482
 20
128.171199
 11
2425.055679
 21
264.623456
  0
LINE
  8
CutLine
  6
CONTINUOUS
 62
8
 10
2425.055679
 20
264.623456
 11
2162.401953
 21
237.914077
  0
LINE
  8
CutLine
  6
CONTINUOUS
 62
8
 10
2378.173863
 20
103.417470
 11
2501.787555
 21
80.399456
  0
LINE
  8
MountainLine
  6
CONTINUOUS
 62
5
 10
2501.787555
 20
80.399456
 11
2423.221482
 21
128.171199
  0
LINE
  8
MountainLine
  6
CONTINUOUS
 62
5
 10
2501.787555
 20
80.399456
 11
2491.776323
 21
111.276842
  0
LINE
  8
CutLine
  6
CONTINUOUS
 62
8
 10
2491.776323
 20
111.276842
 11
2478.221938
 21
137.543660
  0
LINE
  8
MountainLine
  6
CONTINUOUS
 62
5
 10
2478.221938
 20
137.543660
 11
2459.704502
 21
192.797661
  0
LINE
  8
CutLine
  6
CONTINUOUS
 62
8
 10
2459.704502
 20
192.797661
 11
2457.294448
 21
195.201801
  0
LINE
  8
CutLine
  6
CONTINUOUS
 62
8
 10
2457.294448
 20
195.201801
 11
2456.920664
 21
195.758975
  0
LINE
  8
CutLine
  6
CONTINUOUS
 62
8
 10
2456.920664
 20
195.758975
 11
2443.067465
 21
216.409130
  0
LINE
  8
CutLine
  6
CONTINUOUS
 62
8
 10
2443.067465
 20
216.409130
 11
2442.764763
 21
217.135700
  0
LINE
  8
CutLine
  6
CONTINUOUS
 62
8
 10
2442.764763
 20
217.135700
 11
2433.257349
 21
239.956172
  0
LINE
  8
CutLine
  6
CONTINUOUS
 62
8
 10
2433.257349
 20
239.956172
 11
2433.083694
 21
240.823252
  0
LINE
  8
CutLine
  6
CONTINUOUS
 62
8
 10
2433.083694
 20
240.823252
 11
2428.295632
 21
264.934742
  0
LINE
  8
MountainLine
  6
CONTINUOUS
 62
5
 10
2428.295632
 20
264.934742
 11
2425.055679
 21
264.623456
  0
LINE
  8
ValleyLine
  6
CONTINUOUS
 62
1
 10
2501.787555
 20
80.399456
 11
2555.466591
 21
85.752546
  0
LINE
  8
CutLine
  6
CONTINUOUS
 62
8
 10
2555.466591
 20
85.752546
 11
2522.701260
 21
98.588745
  0
ENDSEC
  0
EOF
