  0
SECTION
  2
HEADER
  9
$ACADVER
  1
AC1009
  0
ENDSEC
  0
SECTION
  2
BLOCKS
  0
ENDSEC
  0
SECTION
  2
ENTITIES
  0
LINE
  8
CutLine
  6
CONTINUOUS
 62
8
 10
2636.933679
 20
188.927060
 11
2631.579775
 21
195.050758
  0
LINE
  8
CutLine
  6
CONTINUOUS
 62
8
 10
2631.579775
 20
195.050758
 11
2626.364583
 21
287.370041
  0
LINE
  8
CutLine
  6
CONTINUOUS
 62
8
 10
2626.364583
 20
287.370041
 11
2630.774816
 21
297.951208
  0
LINE
  8
CutLine
  6
CONTINUOUS
 62
8
 10
2630.774816
 20
297.951208
 11
2634.505953
 21
303.957756
  0
LINE
  8
CutLine
  6
CONTINUOUS
 62
8
 10
2634.505953
 20
303.957756
 11
2665.478469
 21
311.195122
  0
LINE
  8
CutLine
  6
CONTINUOUS
 62
8
 10
2665.478469
 20
311.195122
 11
2671.485016
 21
307.463985
  0
LINE
  8
CutLine
  6
CONTINUOUS
 62
8
 10
2670.356469
 20
261.443649
 11
2676.004769
 21
257.189627
  0
LINE
  8
CutLine
  6
CONTINUOUS
 62
8
 10
2676.004769
 20
257.189627
 11
2682.013507
 21
214.514870
  0
LINE
  8
CutLine
  6
CONTINUOUS
 62
8
 10
2682.013507
 20
214.514870
 11
2678.132048
 21
206.220577
  0
LINE
  8
CutLine
  6
CONTINUOUS
 62
8
 10
2325.954589
 20
110.280959
 11
2320.773650
 21
82.265926
  0
LINE
  8
CutLine
  6
CONTINUOUS
 62
8
 10
2320.773650
 20
82.265926
 11
2314.947766
 21
78.258549
  0
LINE
  8
CutLine
  6
CONTINUOUS
 62
8
 10
2212.967090
 20
240.149854
 11
2219.081869
 21
243.700836
  0
LINE
  8
CutLine
  6
CONTINUOUS
 62
8
 10
2219.081869
 20
243.700836
 11
2250.948532
 21
235.248358
  0
LINE
  8
CutLine
  6
CONTINUOUS
 62
8
 10
2250.948532
 20
235.248358
 11
2254.499514
 21
229.133579
  0
LINE
  8
CutLine
  6
CONTINUOUS
 62
8
 10
2112.293328
 20
21.472722
 11
2105.673884
 21
25.714267
  0
LINE
  8
CutLine
  6
CONTINUOUS
 62
8
 10
2105.673884
 20
25.714267
 11
2056.673392
 21
177.820355
  0
LINE
  8
CutLine
  6
CONTINUOUS
 62
8
 10
2056.673392
 20
177.820355
 11
2059.899394
 21
184.112645
  0
LINE
  8
CutLine
  6
CONTINUOUS
 62
8
 10
2314.947766
 20
78.258549
 11
2311.482296
 21
72.094904
  0
LINE
  8
CutLine
  6
CONTINUOUS
 62
8
 10
2311.482296
 20
72.094904
 11
2118.456973
 21
18.007252
  0
LINE
  8
CutLine
  6
CONTINUOUS
 62
8
 10
2118.456973
 20
18.007252
 11
2112.293328
 21
21.472722
  0
LINE
  8
CutLine
  6
CONTINUOUS
 62
8
 10
2046.600829
 20
285.222839
 11
2052.868091
 21
288.497198
  0
LINE
  8
CutLine
  6
CONTINUOUS
 62
8
 10
2052.868091
 20
288.497198
 11
2129.423123
 21
264.484323
  0
LINE
  8
CutLine
  6
CONTINUOUS
 62
8
 10
2129.423123
 20
264.484323
 11
2132.697483
 21
258.217061
  0
LINE
  8
CutLine
  6
CONTINUOUS
 62
8
 10
2409.968035
 20
121.758996
 11
2402.893577
 21
115.746026
  0
LINE
  8
CutLine
  6
CONTINUOUS
 62
8
 10
2402.893577
 20
115.746026
 11
2330.726838
 21
105.886503
  0
LINE
  8
CutLine
  6
CONTINUOUS
 62
8
 10
2330.726838
 20
105.886503
 11
2325.829819
 21
109.606283
  0
LINE
  8
CutLine
  6
CONTINUOUS
 62
8
 10
2384.542518
 20
194.333011
 11
2391.135159
 21
196.889783
  0
LINE
  8
CutLine
  6
CONTINUOUS
 62
8
 10
2391.135159
 20
196.889783
 11
2432.511583
 21
178.638359
  0
LINE
  8
CutLine
  6
CONTINUOUS
 62
8
 10
2432.511583
 20
178.638359
 11
2435.068355
 21
172.045718
  0
LINE
  8
CutLine
  6
CONTINUOUS
 62
8
 10
2584.127012
 20
127.696611
 11
2588.261208
 21
121.960024
  0
LINE
  8
CutLine
  6
CONTINUOUS
 62
8
 10
2588.261208
 20
121.960024
 11
2584.592573
 21
99.361092
  0
LINE
  8
CutLine
  6
CONTINUOUS
 62
8
 10
2584.592573
 20
99.361092
 11
2578.855987
 21
95.226895
  0
LINE
  8
CutLine
  6
CONTINUOUS
 62
8
 10
2535.577962
 20
95.488338
 11
2534.092823
 21
88.574991
  0
LINE
  8
CutLine
  6
CONTINUOUS
 62
8
 10
2534.092823
 20
88.574991
 11
2485.034975
 21
56.867343
  0
LINE
  8
CutLine
  6
CONTINUOUS
 62
8
 10
2485.034975
 20
56.867343
 11
2478.121629
 21
58.352482
  0
LINE
  8
CutLine
  6
CONTINUOUS
 62
8
 10
2476.237637
 20
179.995296
 11
2481.085273
 21
185.143152
  0
LINE
  8
CutLine
  6
CONTINUOUS
 62
8
 10
2481.085273
 20
185.143152
 11
2574.039654
 21
187.935094
  0
LINE
  8
CutLine
  6
CONTINUOUS
 62
8
 10
2574.039654
 20
187.935094
 11
2579.187510
 21
183.087458
  0
LINE
  8
CutLine
  6
CONTINUOUS
 62
8
 10
2432.008823
 20
61.150119
 11
2427.399459
 21
55.787865
  0
LINE
  8
CutLine
  6
CONTINUOUS
 62
8
 10
2427.399459
 20
55.787865
 11
2397.817188
 21
53.554305
  0
LINE
  8
CutLine
  6
CONTINUOUS
 62
8
 10
2397.817188
 20
53.554305
 11
2392.454934
 21
58.163669
  0
LINE
  8
CutLine
  6
CONTINUOUS
 62
8
 10
2318.343216
 20
240.977898
 11
2313.343216
 21
251.293480
  0
LINE
  8
CutLine
  6
CONTINUOUS
 62
8
 10
2313.343216
 20
251.293480
 11
2313.343216
 21
343.759952
  0
LINE
  8
CutLine
  6
CONTINUOUS
 62
8
 10
2313.343216
 20
343.759952
 11
2318.343216
 21
350.175867
  0
LINE
  8
CutLine
  6
CONTINUOUS
 62
8
 10
2355.802805
 20
279.659785
 11
2362.014566
 21
264.925484
  0
LINE
  8
CutLine
  6
CONTINUOUS
 62
8
 10
2362.014566
 20
264.925484
 11
2364.104469
 21
239.164284
  0
LINE
  8
CutLine
  6
CONTINUOUS
 62
8
 10
2364.104469
 20
239.164284
 11
2359.525143
 21
233.776355
  0
LINE
  8
CutLine
  6
CONTINUOUS
 62
8
 10
2318.343216
 20
350.175867
 11
2324.727453
 21
353.215854
  0
LINE
  8
CutLine
  6
CONTINUOUS
 62
8
 10
2324.727453
 20
353.215854
 11
2357.411388
 21
341.617739
  0
LINE
  8
CutLine
  6
CONTINUOUS
 62
8
 10
2357.411388
 20
341.617739
 11
2360.451375
 21
335.233503
  0
LINE
  8
CutLine
  6
CONTINUOUS
 62
8
 10
2509.604350
 20
448.264423
 11
2514.623370
 21
453.245330
  0
LINE
  8
CutLine
  6
CONTINUOUS
 62
8
 10
2514.623370
 20
453.245330
 11
2586.900630
 21
452.969858
  0
LINE
  8
CutLine
  6
CONTINUOUS
 62
8
 10
2586.900630
 20
452.969858
 11
2591.881537
 21
447.950838
  0
LINE
  8
CutLine
  6
CONTINUOUS
 62
8
 10
2558.900909
 20
212.608678
 11
2552.119245
 21
210.606420
  0
LINE
  8
CutLine
  6
CONTINUOUS
 62
8
 10
2552.119245
 20
210.606420
 11
2376.036666
 21
306.414431
  0
LINE
  8
CutLine
  6
CONTINUOUS
 62
8
 10
2376.036666
 20
306.414431
 11
2374.034408
 21
313.196094
  0
LINE
  8
CutLine
  6
CONTINUOUS
 62
8
 10
2591.881537
 20
447.950838
 11
2596.473809
 21
453.327736
  0
LINE
  8
CutLine
  6
CONTINUOUS
 62
8
 10
2596.473809
 20
453.327736
 11
2676.459188
 21
459.623004
  0
LINE
  8
CutLine
  6
CONTINUOUS
 62
8
 10
2676.459188
 20
459.623004
 11
2681.836086
 21
455.030732
  0
LINE
  8
CutLine
  6
CONTINUOUS
 62
8
 10
2670.862878
 20
398.039669
 11
2672.392926
 21
391.136123
  0
LINE
  8
CutLine
  6
CONTINUOUS
 62
8
 10
2672.392926
 20
391.136123
 11
2653.179189
 21
360.980561
  0
LINE
  8
CutLine
  6
CONTINUOUS
 62
8
 10
2653.179189
 20
360.980561
 11
2646.275643
 21
359.450513
  0
LINE
  8
CutLine
  6
CONTINUOUS
 62
8
 10
2332.132037
 20
441.869539
 11
2336.946286
 21
447.048633
  0
LINE
  8
CutLine
  6
CONTINUOUS
 62
8
 10
2336.946286
 20
447.048633
 11
2461.482270
 21
451.595284
  0
LINE
  8
CutLine
  6
CONTINUOUS
 62
8
 10
2461.482270
 20
451.595284
 11
2466.661363
 21
446.781035
  0
LINE
  8
CutLine
  6
CONTINUOUS
 62
8
 10
2375.597108
 20
349.778240
 11
2371.302481
 21
346.559312
  0
LINE
  8
CutLine
  6
CONTINUOUS
 62
8
 10
2162.673041
 20
379.355223
 11
2156.686984
 21
375.591300
  0
LINE
  8
CutLine
  6
CONTINUOUS
 62
8
 10
2156.686984
 20
375.591300
 11
2126.941428
 21
382.370658
  0
LINE
  8
CutLine
  6
CONTINUOUS
 62
8
 10
2126.941428
 20
382.370658
 11
2120.476281
 21
388.972356
  0
LINE
  8
CutLine
  6
CONTINUOUS
 62
8
 10
2122.750528
 20
421.788418
 11
2119.571277
 21
428.104458
  0
LINE
  8
CutLine
  6
CONTINUOUS
 62
8
 10
2119.571277
 20
428.104458
 11
2133.878381
 21
471.413100
  0
LINE
  8
CutLine
  6
CONTINUOUS
 62
8
 10
2133.878381
 20
471.413100
 11
2140.194422
 21
474.592350
  0
LINE
  8
CutLine
  6
CONTINUOUS
 62
8
 10
2255.679360
 20
322.298194
 11
2249.907444
 21
318.213468
  0
LINE
  8
CutLine
  6
CONTINUOUS
 62
8
 10
2249.907444
 20
318.213468
 11
2214.228772
 21
324.320687
  0
LINE
  8
CutLine
  6
CONTINUOUS
 62
8
 10
2214.228772
 20
324.320687
 11
2210.144045
 21
330.092603
  0
LINE
  8
CutLine
  6
CONTINUOUS
 62
8
 10
2239.725000
 20
448.098919
 11
2246.331448
 21
450.619800
  0
LINE
  8
CutLine
  6
CONTINUOUS
 62
8
 10
2246.331448
 20
450.619800
 11
2275.474799
 21
437.574677
  0
LINE
  8
CutLine
  6
CONTINUOUS
 62
8
 10
2275.474799
 20
437.574677
 11
2277.995680
 21
430.968229
  0
LINE
  8
CutLine
  6
CONTINUOUS
 62
8
 10
2290.963942
 20
376.281808
 11
2296.153158
 21
371.478473
  0
LINE
  8
CutLine
  6
CONTINUOUS
 62
8
 10
2296.153158
 20
371.478473
 11
2298.312653
 21
315.557479
  0
LINE
  8
CutLine
  6
CONTINUOUS
 62
8
 10
2298.312653
 20
315.557479
 11
2293.509318
 21
310.368263
  0
LINE
  8
MountainLine
  6
CONTINUOUS
 62
5
 10
2630.774816
 20
297.951208
 11
2636.933679
 21
188.927060
  0
LINE
  8
ValleyLine
  6
CONTINUOUS
 62
1
 10
2636.933679
 20
188.927060
 11
2670.356469
 21
261.443649
  0
LINE
  8
MountainLine
  6
CONTINUOUS
 62
5
 10
2670.356469
 20
261.443649
 11
2630.774816
 21
297.951208
  0
LINE
  8
CutLine
  6
CONTINUOUS
 62
8
 10
2670.356469
 20
261.443649
 11
2671.485016
 21
307.463985
  0
LINE
  8
ValleyLine
  6
CONTINUOUS
 62
1
 10
2671.485016
 20
307.463985
 11
2630.774816
 21
297.951208
  0
LINE
  8
CutLine
  6
CONTINUOUS
 62
8
 10
2636.933679
 20
188.927060
 11
2678.132048
 21
206.220577
  0
LINE
  8
MountainLine
  6
CONTINUOUS
 62
5
 10
2678.132048
 20
206.220577
 11
2670.356469
 21
261.443649
  0
LINE
  8
ValleyLine
  6
CONTINUOUS
 62
1
 10
2314.947766
 20
78.258549
 11
2328.553155
 21
151.827336
  0
LINE
  8
ValleyLine
  6
CONTINUOUS
 62
1
 10
2328.553155
 20
151.827336
 11
2254.499514
 21
229.133579
  0
LINE
  8
ValleyLine
  6
CONTINUOUS
 62
1
 10
2254.499514
 20
229.133579
 11
2212.967090
 21
240.149854
  0
LINE
  8
CutLine
  6
CONTINUOUS
 62
8
 10
2212.967090
 20
240.149854
 11
2132.697483
 21
258.217061
  0
LINE
  8
MountainLine
  6
CONTINUOUS
 62
5
 10
2132.697483
 20
258.217061
 11
2059.899394
 21
184.112645
  0
LINE
  8
ValleyLine
  6
CONTINUOUS
 62
1
 10
2059.899394
 20
184.112645
 11
2112.293328
 21
21.472722
  0
LINE
  8
ValleyLine
  6
CONTINUOUS
 62
1
 10
2112.293328
 20
21.472722
 11
2314.947766
 21
78.258549
  0
LINE
  8
ValleyLine
  6
CONTINUOUS
 62
1
 10
2132.697483
 20
258.217061
 11
2046.600829
 21
285.222839
  0
LINE
  8
CutLine
  6
CONTINUOUS
 62
8
 10
2046.600829
 20
285.222839
 11
2044.558864
 21
227.220918
  0
LINE
  8
CutLine
  6
CONTINUOUS
 62
8
 10
2044.558864
 20
227.220918
 11
2059.899394
 21
184.112645
  0
LINE
  8
MountainLine
  6
CONTINUOUS
 62
5
 10
2328.553155
 20
151.827336
 11
2384.542518
 21
194.333011
  0
LINE
  8
CutLine
  6
CONTINUOUS
 62
8
 10
2384.542518
 20
194.333011
 11
2254.499514
 21
229.133579
  0
LINE
  8
CutLine
  6
CONTINUOUS
 62
8
 10
2328.553155
 20
151.827336
 11
2325.096039
 21
110.163662
  0
LINE
  8
MountainLine
  6
CONTINUOUS
 62
5
 10
2325.096039
 20
110.163662
 11
2409.968035
 21
121.758996
  0
LINE
  8
ValleyLine
  6
CONTINUOUS
 62
1
 10
2409.968035
 20
121.758996
 11
2435.068355
 21
172.045718
  0
LINE
  8
ValleyLine
  6
CONTINUOUS
 62
1
 10
2435.068355
 20
172.045718
 11
2384.542518
 21
194.333011
  0
LINE
  8
MountainLine
  6
CONTINUOUS
 62
5
 10
2432.008823
 20
61.150119
 11
2435.068355
 21
172.045718
  0
LINE
  8
ValleyLine
  6
CONTINUOUS
 62
1
 10
2409.968035
 20
121.758996
 11
2432.008823
 21
61.150119
  0
LINE
  8
CutLine
  6
CONTINUOUS
 62
8
 10
2535.577962
 20
95.488338
 11
2578.855987
 21
95.226895
  0
LINE
  8
ValleyLine
  6
CONTINUOUS
 62
1
 10
2578.855987
 20
95.226895
 11
2584.127012
 21
127.696611
  0
LINE
  8
CutLine
  6
CONTINUOUS
 62
8
 10
2432.008823
 20
61.150119
 11
2478.121629
 21
58.352482
  0
LINE
  8
MountainLine
  6
CONTINUOUS
 62
5
 10
2478.121629
 20
58.352482
 11
2535.577962
 21
95.488338
  0
LINE
  8
CutLine
  6
CONTINUOUS
 62
8
 10
2584.127012
 20
127.696611
 11
2579.187510
 21
183.087458
  0
LINE
  8
ValleyLine
  6
CONTINUOUS
 62
1
 10
2579.187510
 20
183.087458
 11
2476.237637
 21
179.995296
  0
LINE
  8
CutLine
  6
CONTINUOUS
 62
8
 10
2476.237637
 20
179.995296
 11
2435.068355
 21
172.045718
  0
LINE
  8
ValleyLine
  6
CONTINUOUS
 62
1
 10
2392.454934
 20
58.163669
 11
2432.008823
 21
61.150119
  0
LINE
  8
CutLine
  6
CONTINUOUS
 62
8
 10
2409.968035
 20
121.758996
 11
2392.454934
 21
58.163669
  0
LINE
  8
MountainLine
  6
CONTINUOUS
 62
5
 10
2318.343216
 20
350.175867
 11
2318.343216
 21
240.977898
  0
LINE
  8
MountainLine
  6
CONTINUOUS
 62
5
 10
2318.343216
 20
240.977898
 11
2355.802805
 21
279.659785
  0
LINE
  8
ValleyLine
  6
CONTINUOUS
 62
1
 10
2355.802805
 20
279.659785
 11
2318.343216
 21
350.175867
  0
LINE
  8
CutLine
  6
CONTINUOUS
 62
8
 10
2318.343216
 20
240.977898
 11
2359.525143
 21
233.776355
  0
LINE
  8
MountainLine
  6
CONTINUOUS
 62
5
 10
2359.525143
 20
233.776355
 11
2355.802805
 21
279.659785
  0
LINE
  8
ValleyLine
  6
CONTINUOUS
 62
1
 10
2360.451375
 20
335.233503
 11
2318.343216
 21
350.175867
  0
LINE
  8
CutLine
  6
CONTINUOUS
 62
8
 10
2355.802805
 20
279.659785
 11
2360.451375
 21
335.233503
  0
LINE
  8
MountainLine
  6
CONTINUOUS
 62
5
 10
2646.275643
 20
359.450513
 11
2591.881537
 21
447.950838
  0
LINE
  8
ValleyLine
  6
CONTINUOUS
 62
1
 10
2591.881537
 20
447.950838
 11
2509.604350
 21
448.264423
  0
LINE
  8
CutLine
  6
CONTINUOUS
 62
8
 10
2509.604350
 20
448.264423
 11
2466.661363
 21
446.781035
  0
LINE
  8
ValleyLine
  6
CONTINUOUS
 62
1
 10
2466.661363
 20
446.781035
 11
2377.227464
 21
387.944187
  0
LINE
  8
CutLine
  6
CONTINUOUS
 62
8
 10
2377.227464
 20
387.944187
 11
2374.034408
 21
313.196094
  0
LINE
  8
ValleyLine
  6
CONTINUOUS
 62
1
 10
2374.034408
 20
313.196094
 11
2558.900909
 21
212.608678
  0
LINE
  8
CutLine
  6
CONTINUOUS
 62
8
 10
2558.900909
 20
212.608678
 11
2646.275643
 21
359.450513
  0
LINE
  8
CutLine
  6
CONTINUOUS
 62
8
 10
2670.862878
 20
398.039669
 11
2681.836086
 21
455.030732
  0
LINE
  8
ValleyLine
  6
CONTINUOUS
 62
1
 10
2681.836086
 20
455.030732
 11
2591.881537
 21
447.950838
  0
LINE
  8
ValleyLine
  6
CONTINUOUS
 62
1
 10
2646.275643
 20
359.450513
 11
2670.862878
 21
398.039669
  0
LINE
  8
ValleyLine
  6
CONTINUOUS
 62
1
 10
2466.661363
 20
446.781035
 11
2332.132037
 21
441.869539
  0
LINE
  8
MountainLine
  6
CONTINUOUS
 62
5
 10
2332.132037
 20
441.869539
 11
2377.227464
 21
387.944187
  0
LINE
  8
ValleyLine
  6
CONTINUOUS
 62
1
 10
2371.302481
 20
346.559312
 11
2377.227464
 21
387.944187
  0
LINE
  8
CutLine
  6
CONTINUOUS
 62
8
 10
2332.132037
 20
441.869539
 11
2277.995680
 21
430.968229
  0
LINE
  8
ValleyLine
  6
CONTINUOUS
 62
1
 10
2277.995680
 20
430.968229
 11
2290.963942
 21
376.281808
  0
LINE
  8
CutLine
  6
CONTINUOUS
 62
8
 10
2290.963942
 20
376.281808
 11
2371.302481
 21
346.559312
  0
LINE
  8
MountainLine
  6
CONTINUOUS
 62
5
 10
2277.995680
 20
430.968229
 11
2255.679360
 21
322.298194
  0
LINE
  8
ValleyLine
  6
CONTINUOUS
 62
1
 10
2255.679360
 20
322.298194
 11
2290.963942
 21
376.281808
  0
LINE
  8
CutLine
  6
CONTINUOUS
 62
8
 10
2122.750528
 20
421.788418
 11
2120.476281
 21
388.972356
  0
LINE
  8
MountainLine
  6
CONTINUOUS
 62
5
 10
2120.476281
 20
388.972356
 11
2162.673041
 21
379.355223
  0
LINE
  8
CutLine
  6
CONTINUOUS
 62
8
 10
2239.725000
 20
448.098919
 11
2140.194422
 21
474.592350
  0
LINE
  8
ValleyLine
  6
CONTINUOUS
 62
1
 10
2140.194422
 20
474.592350
 11
2122.750528
 21
421.788418
  0
LINE
  8
CutLine
  6
CONTINUOUS
 62
8
 10
2162.673041
 20
379.355223
 11
2210.144045
 21
330.092603
  0
LINE
  8
ValleyLine
  6
CONTINUOUS
 62
1
 10
2210.144045
 20
330.092603
 11
2255.679360
 21
322.298194
  0
LINE
  8
ValleyLine
  6
CONTINUOUS
 62
1
 10
2277.995680
 20
430.968229
 11
2239.725000
 21
448.098919
  0
LINE
  8
CutLine
  6
CONTINUOUS
 62
8
 10
2255.679360
 20
322.298194
 11
2293.509318
 21
310.368263
  0
LINE
  8
MountainLine
  6
CONTINUOUS
 62
5
 10
2293.509318
 20
310.368263
 11
2290.963942
 21
376.281808
  0
ENDSEC
  0
EOF
