  0
SECTION
  2
HEADER
  9
$ACADVER
  1
AC1009
  0
ENDSEC
  0
SECTION
  2
BLOCKS
  0
ENDSEC
  0
SECTION
  2
ENTITIES
  0
LINE
  8
CutLine
  6
CONTINUOUS
 62
8
 10
1369.388316
 20
149.476820
 11
1365.341692
 21
158.963947
  0
LINE
  8
CutLine
  6
CONTINUOUS
 62
8
 10
1365.341692
 20
158.963947
 11
1379.663120
 21
297.608719
  0
LINE
  8
CutLine
  6
CONTINUOUS
 62
8
 10
1379.663120
 20
297.608719
 11
1385.150402
 21
302.068510
  0
LINE
  8
CutLine
  6
CONTINUOUS
 62
8
 10
1656.548918
 20
158.948148
 11
1663.613211
 21
158.638680
  0
LINE
  8
CutLine
  6
CONTINUOUS
 62
8
 10
1663.613211
 20
158.638680
 11
1696.061940
 21
123.216718
  0
LINE
  8
CutLine
  6
CONTINUOUS
 62
8
 10
1696.061940
 20
123.216718
 11
1695.752472
 21
116.152426
  0
LINE
  8
CutLine
  6
CONTINUOUS
 62
8
 10
1572.869209
 20
100.512046
 11
1568.980496
 21
94.606293
  0
LINE
  8
CutLine
  6
CONTINUOUS
 62
8
 10
1568.980496
 20
94.606293
 11
1503.711530
 21
81.165024
  0
LINE
  8
CutLine
  6
CONTINUOUS
 62
8
 10
1503.711530
 20
81.165024
 11
1492.844320
 21
84.031992
  0
LINE
  8
CutLine
  6
CONTINUOUS
 62
8
 10
1495.824567
 20
122.627870
 11
1499.393389
 21
128.732255
  0
LINE
  8
CutLine
  6
CONTINUOUS
 62
8
 10
1499.393389
 20
128.732255
 11
1560.169934
 21
144.663148
  0
LINE
  8
CutLine
  6
CONTINUOUS
 62
8
 10
1560.169934
 20
144.663148
 11
1566.274319
 21
141.094327
  0
LINE
  8
CutLine
  6
CONTINUOUS
 62
8
 10
1369.256842
 20
126.071559
 11
1382.609109
 21
130.772873
  0
LINE
  8
CutLine
  6
CONTINUOUS
 62
8
 10
1382.609109
 20
130.772873
 11
1424.956752
 21
129.821567
  0
LINE
  8
CutLine
  6
CONTINUOUS
 62
8
 10
1424.956752
 20
129.821567
 11
1429.843198
 21
124.710536
  0
LINE
  8
CutLine
  6
CONTINUOUS
 62
8
 10
1424.395231
 20
108.395914
 11
1418.107562
 21
105.160915
  0
LINE
  8
CutLine
  6
CONTINUOUS
 62
8
 10
1418.107562
 20
105.160915
 11
1378.477037
 21
117.865223
  0
LINE
  8
CutLine
  6
CONTINUOUS
 62
8
 10
1378.477037
 20
117.865223
 11
1369.256842
 21
126.071559
  0
LINE
  8
CutLine
  6
CONTINUOUS
 62
8
 10
1814.509323
 20
262.264932
 11
1743.102062
 21
251.760246
  0
LINE
  8
CutLine
  6
CONTINUOUS
 62
8
 10
1743.102062
 20
251.760246
 11
1737.427587
 21
255.979291
  0
LINE
  8
CutLine
  6
CONTINUOUS
 62
8
 10
1726.532848
 20
288.607404
 11
1727.830390
 21
289.759834
  0
LINE
  8
CutLine
  6
CONTINUOUS
 62
8
 10
1917.166861
 20
310.207446
 11
1914.873944
 21
307.178013
  0
LINE
  8
CutLine
  6
CONTINUOUS
 62
8
 10
1904.157354
 20
400.987336
 11
1909.944807
 21
405.050019
  0
LINE
  8
CutLine
  6
CONTINUOUS
 62
8
 10
1909.944807
 20
405.050019
 11
1953.599540
 21
397.406022
  0
LINE
  8
CutLine
  6
CONTINUOUS
 62
8
 10
1953.599540
 20
397.406022
 11
1957.662222
 21
391.618569
  0
LINE
  8
CutLine
  6
CONTINUOUS
 62
8
 10
1742.931857
 20
291.928867
 11
1732.219267
 21
292.392839
  0
LINE
  8
CutLine
  6
CONTINUOUS
 62
8
 10
1732.219267
 20
292.392839
 11
1727.440302
 21
297.604508
  0
LINE
  8
CutLine
  6
CONTINUOUS
 62
8
 10
1802.118116
 20
330.752646
 11
1807.136647
 21
340.276904
  0
LINE
  8
CutLine
  6
CONTINUOUS
 62
8
 10
1807.136647
 20
340.276904
 11
1897.203793
 21
402.271076
  0
LINE
  8
CutLine
  6
CONTINUOUS
 62
8
 10
1897.203793
 20
402.271076
 11
1904.157354
 21
400.987336
  0
LINE
  8
CutLine
  6
CONTINUOUS
 62
8
 10
1982.772411
 20
347.692990
 11
1977.115756
 21
338.343715
  0
LINE
  8
CutLine
  6
CONTINUOUS
 62
8
 10
1977.115756
 20
338.343715
 11
1930.410915
 21
309.617188
  0
LINE
  8
CutLine
  6
CONTINUOUS
 62
8
 10
1917.813850
 20
307.639554
 11
1917.697048
 21
307.667392
  0
LINE
  8
CutLine
  6
CONTINUOUS
 62
8
 10
1737.427587
 20
255.979291
 11
1742.921035
 21
251.527097
  0
LINE
  8
CutLine
  6
CONTINUOUS
 62
8
 10
1742.921035
 20
251.527097
 11
1744.083495
 21
240.423747
  0
LINE
  8
CutLine
  6
CONTINUOUS
 62
8
 10
1744.083495
 20
240.423747
 11
1739.631302
 21
234.930299
  0
LINE
  8
CutLine
  6
CONTINUOUS
 62
8
 10
1672.050756
 20
222.215929
 11
1667.942798
 21
216.460524
  0
LINE
  8
CutLine
  6
CONTINUOUS
 62
8
 10
1667.942798
 20
216.460524
 11
1622.253902
 21
208.829247
  0
LINE
  8
CutLine
  6
CONTINUOUS
 62
8
 10
1622.253902
 20
208.829247
 11
1608.367817
 21
211.579162
  0
LINE
  8
CutLine
  6
CONTINUOUS
 62
8
 10
1654.526755
 20
277.525263
 11
1658.653312
 21
283.267347
  0
LINE
  8
CutLine
  6
CONTINUOUS
 62
8
 10
1658.653312
 20
283.267347
 11
1720.486162
 21
293.389568
  0
LINE
  8
CutLine
  6
CONTINUOUS
 62
8
 10
1720.486162
 20
293.389568
 11
1726.228246
 21
289.263011
  0
LINE
  8
CutLine
  6
CONTINUOUS
 62
8
 10
1660.932102
 20
251.462873
 11
1654.791706
 21
247.956373
  0
LINE
  8
CutLine
  6
CONTINUOUS
 62
8
 10
1654.791706
 20
247.956373
 11
1605.146783
 21
261.510941
  0
LINE
  8
CutLine
  6
CONTINUOUS
 62
8
 10
1605.146783
 20
261.510941
 11
1597.279295
 21
268.842018
  0
LINE
  8
CutLine
  6
CONTINUOUS
 62
8
 10
1945.245383
 20
227.789116
 11
1935.353778
 21
220.279326
  0
LINE
  8
CutLine
  6
CONTINUOUS
 62
8
 10
1935.353778
 20
220.279326
 11
1861.778739
 21
202.662435
  0
LINE
  8
CutLine
  6
CONTINUOUS
 62
8
 10
1861.778739
 20
202.662435
 11
1855.751892
 21
206.360692
  0
LINE
  8
CutLine
  6
CONTINUOUS
 62
8
 10
1773.853655
 20
191.176254
 11
1774.713617
 21
196.224959
  0
LINE
  8
CutLine
  6
CONTINUOUS
 62
8
 10
1990.348803
 20
319.026937
 11
1989.261228
 21
312.040008
  0
LINE
  8
CutLine
  6
CONTINUOUS
 62
8
 10
1989.261228
 20
312.040008
 11
1926.832474
 21
266.428624
  0
LINE
  8
CutLine
  6
CONTINUOUS
 62
8
 10
1926.832474
 20
266.428624
 11
1919.845545
 21
267.516199
  0
LINE
  8
CutLine
  6
CONTINUOUS
 62
8
 10
1791.252725
 20
172.537106
 11
1791.554981
 21
165.472502
  0
LINE
  8
CutLine
  6
CONTINUOUS
 62
8
 10
1791.554981
 20
165.472502
 11
1753.676202
 21
124.207600
  0
LINE
  8
CutLine
  6
CONTINUOUS
 62
8
 10
1753.676202
 20
124.207600
 11
1746.611597
 21
123.905344
  0
LINE
  8
CutLine
  6
CONTINUOUS
 62
8
 10
1729.321449
 20
138.777131
 11
1728.749444
 21
145.825025
  0
LINE
  8
CutLine
  6
CONTINUOUS
 62
8
 10
1728.749444
 20
145.825025
 11
1766.805761
 21
190.604249
  0
LINE
  8
CutLine
  6
CONTINUOUS
 62
8
 10
1766.805761
 20
190.604249
 11
1773.853655
 21
191.176254
  0
LINE
  8
CutLine
  6
CONTINUOUS
 62
8
 10
2018.142491
 20
42.885250
 11
2003.496789
 21
37.171975
  0
LINE
  8
CutLine
  6
CONTINUOUS
 62
8
 10
2003.496789
 20
37.171975
 11
1810.937927
 21
27.870616
  0
LINE
  8
CutLine
  6
CONTINUOUS
 62
8
 10
1810.937927
 20
27.870616
 11
1805.702512
 21
32.623554
  0
LINE
  8
CutLine
  6
CONTINUOUS
 62
8
 10
1599.435790
 20
25.424685
 11
1588.918749
 21
19.993454
  0
LINE
  8
CutLine
  6
CONTINUOUS
 62
8
 10
1588.918749
 20
19.993454
 11
1480.861980
 21
15.605141
  0
LINE
  8
CutLine
  6
CONTINUOUS
 62
8
 10
1480.861980
 20
15.605141
 11
1475.663210
 21
20.398134
  0
LINE
  8
CutLine
  6
CONTINUOUS
 62
8
 10
1475.663210
 20
20.398134
 11
1474.182496
 21
27.312430
  0
LINE
  8
CutLine
  6
CONTINUOUS
 62
8
 10
1474.182496
 20
27.312430
 11
1500.284262
 21
67.640252
  0
LINE
  8
CutLine
  6
CONTINUOUS
 62
8
 10
1500.284262
 20
67.640252
 11
1507.198558
 21
69.120965
  0
LINE
  8
CutLine
  6
CONTINUOUS
 62
8
 10
1507.198558
 20
69.120965
 11
1512.336901
 21
73.978684
  0
LINE
  8
CutLine
  6
CONTINUOUS
 62
8
 10
1512.336901
 20
73.978684
 11
1594.327759
 21
71.676913
  0
LINE
  8
CutLine
  6
CONTINUOUS
 62
8
 10
1594.327759
 20
71.676913
 11
1599.185478
 21
66.538570
  0
LINE
  8
CutLine
  6
CONTINUOUS
 62
8
 10
1795.955832
 20
84.510707
 11
1788.229801
 21
74.884472
  0
LINE
  8
CutLine
  6
CONTINUOUS
 62
8
 10
1788.229801
 20
74.884472
 11
1751.265959
 21
55.762434
  0
LINE
  8
CutLine
  6
CONTINUOUS
 62
8
 10
1751.265959
 20
55.762434
 11
1744.527628
 21
57.906004
  0
LINE
  8
CutLine
  6
CONTINUOUS
 62
8
 10
1671.725919
 20
60.053052
 11
1675.640325
 21
65.941806
  0
LINE
  8
CutLine
  6
CONTINUOUS
 62
8
 10
1675.640325
 20
65.941806
 11
1730.551972
 21
77.000964
  0
LINE
  8
CutLine
  6
CONTINUOUS
 62
8
 10
1730.551972
 20
77.000964
 11
1736.440726
 21
73.086558
  0
LINE
  8
CutLine
  6
CONTINUOUS
 62
8
 10
1648.649432
 20
432.436039
 11
1654.136399
 21
433.812816
  0
LINE
  8
CutLine
  6
CONTINUOUS
 62
8
 10
1654.136399
 20
433.812816
 11
1665.116193
 21
431.412842
  0
LINE
  8
CutLine
  6
CONTINUOUS
 62
8
 10
1579.591304
 20
371.254262
 11
1490.390547
 21
371.658679
  0
LINE
  8
CutLine
  6
CONTINUOUS
 62
8
 10
1490.390547
 20
371.658679
 11
1485.413267
 21
376.681297
  0
LINE
  8
CutLine
  6
CONTINUOUS
 62
8
 10
1580.836440
 20
441.210808
 11
1585.980567
 21
446.062402
  0
LINE
  8
CutLine
  6
CONTINUOUS
 62
8
 10
1585.980567
 20
446.062402
 11
1657.654072
 21
443.964818
  0
LINE
  8
CutLine
  6
CONTINUOUS
 62
8
 10
1657.654072
 20
443.964818
 11
1662.505665
 21
438.820691
  0
LINE
  8
CutLine
  6
CONTINUOUS
 62
8
 10
1363.884363
 20
401.554174
 11
1364.919509
 21
408.549063
  0
LINE
  8
CutLine
  6
CONTINUOUS
 62
8
 10
1364.919509
 20
408.549063
 11
1406.832799
 21
439.656327
  0
LINE
  8
CutLine
  6
CONTINUOUS
 62
8
 10
1406.832799
 20
439.656327
 11
1413.827688
 21
438.621181
  0
LINE
  8
CutLine
  6
CONTINUOUS
 62
8
 10
1407.227644
 20
388.457274
 11
1400.995125
 21
385.117257
  0
LINE
  8
CutLine
  6
CONTINUOUS
 62
8
 10
1400.995125
 20
385.117257
 11
1367.224379
 21
395.321655
  0
LINE
  8
CutLine
  6
CONTINUOUS
 62
8
 10
1367.224379
 20
395.321655
 11
1363.884363
 21
401.554174
  0
LINE
  8
CutLine
  6
CONTINUOUS
 62
8
 10
1484.768818
 20
379.194791
 11
1482.615166
 21
376.064821
  0
LINE
  8
CutLine
  6
CONTINUOUS
 62
8
 10
1804.763293
 20
410.808268
 11
1793.339848
 21
402.448227
  0
LINE
  8
CutLine
  6
CONTINUOUS
 62
8
 10
1793.339848
 20
402.448227
 11
1748.705724
 21
390.058449
  0
LINE
  8
CutLine
  6
CONTINUOUS
 62
8
 10
1748.705724
 20
390.058449
 11
1742.550537
 21
393.538919
  0
LINE
  8
CutLine
  6
CONTINUOUS
 62
8
 10
1665.116193
 20
431.412842
 11
1668.576730
 21
437.579258
  0
LINE
  8
CutLine
  6
CONTINUOUS
 62
8
 10
1668.576730
 20
437.579258
 11
1728.895260
 21
454.533186
  0
LINE
  8
CutLine
  6
CONTINUOUS
 62
8
 10
1728.895260
 20
454.533186
 11
1735.061676
 21
451.072649
  0
LINE
  8
CutLine
  6
CONTINUOUS
 62
8
 10
1790.616252
 20
467.393172
 11
1786.583486
 21
457.424277
  0
LINE
  8
CutLine
  6
CONTINUOUS
 62
8
 10
1786.583486
 20
457.424277
 11
1747.316154
 21
424.161364
  0
LINE
  8
CutLine
  6
CONTINUOUS
 62
8
 10
1747.316154
 20
424.161364
 11
1740.269193
 21
424.744747
  0
LINE
  8
CutLine
  6
CONTINUOUS
 62
8
 10
1552.112631
 20
250.336876
 11
1545.516998
 21
252.885919
  0
LINE
  8
CutLine
  6
CONTINUOUS
 62
8
 10
1545.516998
 20
252.885919
 11
1530.482757
 21
286.861015
  0
LINE
  8
CutLine
  6
CONTINUOUS
 62
8
 10
1530.482757
 20
286.861015
 11
1533.031800
 21
293.456648
  0
LINE
  8
CutLine
  6
CONTINUOUS
 62
8
 10
1683.244103
 20
348.168671
 11
1681.270181
 21
341.378705
  0
LINE
  8
CutLine
  6
CONTINUOUS
 62
8
 10
1681.270181
 20
341.378705
 11
1626.206864
 21
311.119609
  0
LINE
  8
CutLine
  6
CONTINUOUS
 62
8
 10
1626.206864
 20
311.119609
 11
1619.416898
 21
313.093531
  0
LINE
  8
CutLine
  6
CONTINUOUS
 62
8
 10
1451.144733
 20
263.148668
 11
1450.831270
 21
270.212785
  0
LINE
  8
CutLine
  6
CONTINUOUS
 62
8
 10
1450.831270
 20
270.212785
 11
1495.655132
 21
319.199385
  0
LINE
  8
CutLine
  6
CONTINUOUS
 62
8
 10
1495.655132
 20
319.199385
 11
1502.719248
 21
319.512848
  0
LINE
  8
CutLine
  6
CONTINUOUS
 62
8
 10
1675.892356
 20
376.493617
 11
1674.065305
 21
371.711010
  0
LINE
  8
CutLine
  6
CONTINUOUS
 62
8
 10
1808.504010
 20
366.588937
 11
1792.427888
 21
359.381574
  0
LINE
  8
CutLine
  6
CONTINUOUS
 62
8
 10
1792.427888
 20
359.381574
 11
1754.065141
 21
354.221553
  0
LINE
  8
CutLine
  6
CONTINUOUS
 62
8
 10
1754.065141
 20
354.221553
 11
1748.443238
 21
358.510400
  0
LINE
  8
CutLine
  6
CONTINUOUS
 62
8
 10
1677.320427
 20
372.968984
 11
1681.148563
 21
377.837692
  0
LINE
  8
CutLine
  6
CONTINUOUS
 62
8
 10
1685.741948
 20
379.012276
 11
1740.040987
 21
385.509124
  0
LINE
  8
CutLine
  6
CONTINUOUS
 62
8
 10
1740.040987
 20
385.509124
 11
1745.599587
 21
381.138544
  0
LINE
  8
MountainLine
  6
CONTINUOUS
 62
5
 10
1385.150402
 20
302.068510
 11
1369.388316
 21
149.476820
  0
LINE
  8
CutLine
  6
CONTINUOUS
 62
8
 10
1369.388316
 20
149.476820
 11
1559.853886
 21
180.764182
  0
LINE
  8
CutLine
  6
CONTINUOUS
 62
8
 10
1559.853886
 20
180.764182
 11
1385.150402
 21
302.068510
  0
LINE
  8
CutLine
  6
CONTINUOUS
 62
8
 10
1572.869209
 20
100.512046
 11
1695.752472
 21
116.152426
  0
LINE
  8
MountainLine
  6
CONTINUOUS
 62
5
 10
1695.752472
 20
116.152426
 11
1656.548918
 21
158.948148
  0
LINE
  8
CutLine
  6
CONTINUOUS
 62
8
 10
1656.548918
 20
158.948148
 11
1566.274319
 21
141.094327
  0
LINE
  8
MountainLine
  6
CONTINUOUS
 62
5
 10
1566.274319
 20
141.094327
 11
1572.869209
 21
100.512046
  0
LINE
  8
MountainLine
  6
CONTINUOUS
 62
5
 10
1495.824567
 20
122.627870
 11
1492.844320
 21
84.031992
  0
LINE
  8
ValleyLine
  6
CONTINUOUS
 62
1
 10
1492.844320
 20
84.031992
 11
1572.869209
 21
100.512046
  0
LINE
  8
ValleyLine
  6
CONTINUOUS
 62
1
 10
1566.274319
 20
141.094327
 11
1495.824567
 21
122.627870
  0
LINE
  8
ValleyLine
  6
CONTINUOUS
 62
1
 10
1429.843198
 20
124.710536
 11
1369.256842
 21
126.071559
  0
LINE
  8
ValleyLine
  6
CONTINUOUS
 62
1
 10
1369.256842
 20
126.071559
 11
1424.395231
 21
108.395914
  0
LINE
  8
CutLine
  6
CONTINUOUS
 62
8
 10
1424.395231
 20
108.395914
 11
1492.844320
 21
84.031992
  0
LINE
  8
CutLine
  6
CONTINUOUS
 62
8
 10
1495.824567
 20
122.627870
 11
1429.843198
 21
124.710536
  0
LINE
  8
ValleyLine
  6
CONTINUOUS
 62
1
 10
1737.427587
 20
255.979291
 11
1821.059542
 21
268.282345
  0
LINE
  8
ValleyLine
  6
CONTINUOUS
 62
1
 10
1821.059542
 20
268.282345
 11
1769.703258
 21
295.774061
  0
LINE
  8
CutLine
  6
CONTINUOUS
 62
8
 10
1769.703258
 20
295.774061
 11
1727.830390
 21
289.759834
  0
LINE
  8
MountainLine
  6
CONTINUOUS
 62
5
 10
1727.830390
 20
289.759834
 11
1728.868657
 21
283.579957
  0
LINE
  8
ValleyLine
  6
CONTINUOUS
 62
1
 10
1726.228246
 20
289.263011
 11
1660.932102
 21
251.462873
  0
LINE
  8
ValleyLine
  6
CONTINUOUS
 62
1
 10
1660.932102
 20
251.462873
 11
1737.427587
 21
255.979291
  0
LINE
  8
CutLine
  6
CONTINUOUS
 62
8
 10
1728.868657
 20
283.579957
 11
1726.228246
 21
289.263011
  0
LINE
  8
ValleyLine
  6
CONTINUOUS
 62
1
 10
1909.119771
 20
348.759961
 11
1769.703258
 21
295.774061
  0
LINE
  8
ValleyLine
  6
CONTINUOUS
 62
1
 10
1821.059542
 20
268.282345
 11
1914.873944
 21
307.178013
  0
LINE
  8
ValleyLine
  6
CONTINUOUS
 62
1
 10
1914.873944
 20
307.178013
 11
1909.119771
 21
348.759961
  0
LINE
  8
ValleyLine
  6
CONTINUOUS
 62
1
 10
1904.157354
 20
400.987336
 11
1909.119771
 21
348.759961
  0
LINE
  8
ValleyLine
  6
CONTINUOUS
 62
1
 10
1909.119771
 20
348.759961
 11
1957.662222
 21
391.618569
  0
LINE
  8
MountainLine
  6
CONTINUOUS
 62
5
 10
1957.662222
 20
391.618569
 11
1904.157354
 21
400.987336
  0
LINE
  8
MountainLine
  6
CONTINUOUS
 62
5
 10
1909.119771
 20
348.759961
 11
1802.118116
 21
330.752646
  0
LINE
  8
CutLine
  6
CONTINUOUS
 62
8
 10
1802.118116
 20
330.752646
 11
1727.440302
 21
297.604508
  0
LINE
  8
ValleyLine
  6
CONTINUOUS
 62
1
 10
1727.440302
 20
297.604508
 11
1769.703258
 21
295.774061
  0
LINE
  8
ValleyLine
  6
CONTINUOUS
 62
1
 10
1904.157354
 20
400.987336
 11
1802.118116
 21
330.752646
  0
LINE
  8
CutLine
  6
CONTINUOUS
 62
8
 10
1982.772411
 20
347.692990
 11
2017.924647
 21
376.232246
  0
LINE
  8
CutLine
  6
CONTINUOUS
 62
8
 10
2017.924647
 20
376.232246
 11
1957.662222
 21
391.618569
  0
LINE
  8
CutLine
  6
CONTINUOUS
 62
8
 10
1909.119771
 20
348.759961
 11
1917.697048
 21
307.667392
  0
LINE
  8
ValleyLine
  6
CONTINUOUS
 62
1
 10
1917.697048
 20
307.667392
 11
1982.772411
 21
347.692990
  0
LINE
  8
CutLine
  6
CONTINUOUS
 62
8
 10
1672.050756
 20
222.215929
 11
1739.631302
 21
234.930299
  0
LINE
  8
ValleyLine
  6
CONTINUOUS
 62
1
 10
1739.631302
 20
234.930299
 11
1737.427587
 21
255.979291
  0
LINE
  8
ValleyLine
  6
CONTINUOUS
 62
1
 10
1660.932102
 20
251.462873
 11
1672.050756
 21
222.215929
  0
LINE
  8
CutLine
  6
CONTINUOUS
 62
8
 10
1660.932102
 20
251.462873
 11
1608.367817
 21
211.579162
  0
LINE
  8
ValleyLine
  6
CONTINUOUS
 62
1
 10
1608.367817
 20
211.579162
 11
1672.050756
 21
222.215929
  0
LINE
  8
ValleyLine
  6
CONTINUOUS
 62
1
 10
1726.228246
 20
289.263011
 11
1654.526755
 21
277.525263
  0
LINE
  8
CutLine
  6
CONTINUOUS
 62
8
 10
1654.526755
 20
277.525263
 11
1597.279295
 21
268.842018
  0
LINE
  8
ValleyLine
  6
CONTINUOUS
 62
1
 10
1597.279295
 20
268.842018
 11
1660.932102
 21
251.462873
  0
LINE
  8
ValleyLine
  6
CONTINUOUS
 62
1
 10
1855.751892
 20
206.360692
 11
1945.245383
 21
227.789116
  0
LINE
  8
CutLine
  6
CONTINUOUS
 62
8
 10
1945.245383
 20
227.789116
 11
1919.845545
 21
267.516199
  0
LINE
  8
ValleyLine
  6
CONTINUOUS
 62
1
 10
1919.845545
 20
267.516199
 11
1833.842165
 21
233.703007
  0
LINE
  8
ValleyLine
  6
CONTINUOUS
 62
1
 10
1833.842165
 20
233.703007
 11
1855.751892
 21
206.360692
  0
LINE
  8
CutLine
  6
CONTINUOUS
 62
8
 10
1791.252725
 20
172.537106
 11
1855.751892
 21
206.360692
  0
LINE
  8
ValleyLine
  6
CONTINUOUS
 62
1
 10
1833.842165
 20
233.703007
 11
1773.853655
 21
191.176254
  0
LINE
  8
MountainLine
  6
CONTINUOUS
 62
5
 10
1773.853655
 20
191.176254
 11
1791.252725
 21
172.537106
  0
LINE
  8
ValleyLine
  6
CONTINUOUS
 62
1
 10
1919.845545
 20
267.516199
 11
1990.348803
 21
319.026937
  0
LINE
  8
CutLine
  6
CONTINUOUS
 62
8
 10
1990.348803
 20
319.026937
 11
1914.873944
 21
307.178013
  0
LINE
  8
ValleyLine
  6
CONTINUOUS
 62
1
 10
1821.059542
 20
268.282345
 11
1833.842165
 21
233.703007
  0
LINE
  8
CutLine
  6
CONTINUOUS
 62
8
 10
1758.808176
 20
211.094615
 11
1771.734064
 21
194.336398
  0
LINE
  8
CutLine
  6
CONTINUOUS
 62
8
 10
1771.734064
 20
194.336398
 11
1833.842165
 21
233.703007
  0
LINE
  8
CutLine
  6
CONTINUOUS
 62
8
 10
1821.059542
 20
268.282345
 11
1758.808176
 21
211.094615
  0
LINE
  8
CutLine
  6
CONTINUOUS
 62
8
 10
1729.321449
 20
138.777131
 11
1706.695730
 21
78.306193
  0
LINE
  8
CutLine
  6
CONTINUOUS
 62
8
 10
1706.695730
 20
78.306193
 11
1746.611597
 21
123.905344
  0
LINE
  8
ValleyLine
  6
CONTINUOUS
 62
1
 10
1746.611597
 20
123.905344
 11
1791.252725
 21
172.537106
  0
LINE
  8
ValleyLine
  6
CONTINUOUS
 62
1
 10
1773.853655
 20
191.176254
 11
1729.321449
 21
138.777131
  0
LINE
  8
CutLine
  6
CONTINUOUS
 62
8
 10
1873.217185
 20
170.371281
 11
1805.702512
 21
32.623554
  0
LINE
  8
ValleyLine
  6
CONTINUOUS
 62
1
 10
1805.702512
 20
32.623554
 11
2018.142491
 21
42.885250
  0
LINE
  8
CutLine
  6
CONTINUOUS
 62
8
 10
2018.142491
 20
42.885250
 11
1873.217185
 21
170.371281
  0
LINE
  8
ValleyLine
  6
CONTINUOUS
 62
1
 10
1475.663210
 20
20.398134
 11
1599.435790
 21
25.424685
  0
LINE
  8
MountainLine
  6
CONTINUOUS
 62
5
 10
1507.198558
 20
69.120965
 11
1475.663210
 21
20.398134
  0
LINE
  8
MountainLine
  6
CONTINUOUS
 62
5
 10
1599.435790
 20
25.424685
 11
1599.185478
 21
66.538570
  0
LINE
  8
ValleyLine
  6
CONTINUOUS
 62
1
 10
1599.185478
 20
66.538570
 11
1507.198558
 21
69.120965
  0
LINE
  8
CutLine
  6
CONTINUOUS
 62
8
 10
1671.725919
 20
60.053052
 11
1599.185478
 21
66.538570
  0
LINE
  8
CutLine
  6
CONTINUOUS
 62
8
 10
1599.435790
 20
25.424685
 11
1681.087306
 21
22.491260
  0
LINE
  8
MountainLine
  6
CONTINUOUS
 62
5
 10
1681.087306
 20
22.491260
 11
1671.725919
 21
60.053052
  0
LINE
  8
CutLine
  6
CONTINUOUS
 62
8
 10
1795.955832
 20
84.510707
 11
1736.440726
 21
73.086558
  0
LINE
  8
ValleyLine
  6
CONTINUOUS
 62
1
 10
1744.527628
 20
57.906004
 11
1795.955832
 21
84.510707
  0
LINE
  8
CutLine
  6
CONTINUOUS
 62
8
 10
1681.087306
 20
22.491260
 11
1744.527628
 21
57.906004
  0
LINE
  8
ValleyLine
  6
CONTINUOUS
 62
1
 10
1736.440726
 20
73.086558
 11
1671.725919
 21
60.053052
  0
LINE
  8
ValleyLine
  6
CONTINUOUS
 62
1
 10
1665.116193
 20
431.412842
 11
1624.085540
 21
421.117530
  0
LINE
  8
ValleyLine
  6
CONTINUOUS
 62
1
 10
1624.085540
 20
421.117530
 11
1586.970162
 21
376.220859
  0
LINE
  8
ValleyLine
  6
CONTINUOUS
 62
1
 10
1586.970162
 20
376.220859
 11
1669.030185
 21
396.514247
  0
LINE
  8
ValleyLine
  6
CONTINUOUS
 62
1
 10
1669.030185
 20
396.514247
 11
1740.269193
 21
424.744747
  0
LINE
  8
ValleyLine
  6
CONTINUOUS
 62
1
 10
1740.269193
 20
424.744747
 11
1665.116193
 21
431.412842
  0
LINE
  8
CutLine
  6
CONTINUOUS
 62
8
 10
1474.987479
 20
417.344201
 11
1485.413267
 21
376.681297
  0
LINE
  8
ValleyLine
  6
CONTINUOUS
 62
1
 10
1485.413267
 20
376.681297
 11
1586.970162
 21
376.220859
  0
LINE
  8
ValleyLine
  6
CONTINUOUS
 62
1
 10
1624.085540
 20
421.117530
 11
1474.987479
 21
417.344201
  0
LINE
  8
ValleyLine
  6
CONTINUOUS
 62
1
 10
1474.987479
 20
417.344201
 11
1459.796471
 21
467.559315
  0
LINE
  8
CutLine
  6
CONTINUOUS
 62
8
 10
1459.796471
 20
467.559315
 11
1413.827688
 21
438.621181
  0
LINE
  8
ValleyLine
  6
CONTINUOUS
 62
1
 10
1413.827688
 20
438.621181
 11
1474.987479
 21
417.344201
  0
LINE
  8
CutLine
  6
CONTINUOUS
 62
8
 10
1624.085540
 20
421.117530
 11
1662.505665
 21
438.820691
  0
LINE
  8
ValleyLine
  6
CONTINUOUS
 62
1
 10
1662.505665
 20
438.820691
 11
1580.836440
 21
441.210808
  0
LINE
  8
MountainLine
  6
CONTINUOUS
 62
5
 10
1580.836440
 20
441.210808
 11
1474.987479
 21
417.344201
  0
LINE
  8
CutLine
  6
CONTINUOUS
 62
8
 10
1580.836440
 20
441.210808
 11
1459.796471
 21
467.559315
  0
LINE
  8
MountainLine
  6
CONTINUOUS
 62
5
 10
1413.827688
 20
438.621181
 11
1363.884363
 21
401.554174
  0
LINE
  8
ValleyLine
  6
CONTINUOUS
 62
1
 10
1363.884363
 20
401.554174
 11
1407.227644
 21
388.457274
  0
LINE
  8
CutLine
  6
CONTINUOUS
 62
8
 10
1407.227644
 20
388.457274
 11
1482.615166
 21
376.064821
  0
LINE
  8
ValleyLine
  6
CONTINUOUS
 62
1
 10
1482.615166
 20
376.064821
 11
1474.987479
 21
417.344201
  0
LINE
  8
ValleyLine
  6
CONTINUOUS
 62
1
 10
1669.030185
 20
396.514247
 11
1675.892356
 21
376.493617
  0
LINE
  8
CutLine
  6
CONTINUOUS
 62
8
 10
1675.892356
 20
376.493617
 11
1742.550537
 21
393.538919
  0
LINE
  8
ValleyLine
  6
CONTINUOUS
 62
1
 10
1742.550537
 20
393.538919
 11
1740.269193
 21
424.744747
  0
LINE
  8
CutLine
  6
CONTINUOUS
 62
8
 10
1804.763293
 20
410.808268
 11
1740.269193
 21
424.744747
  0
LINE
  8
ValleyLine
  6
CONTINUOUS
 62
1
 10
1742.550537
 20
393.538919
 11
1804.763293
 21
410.808268
  0
LINE
  8
ValleyLine
  6
CONTINUOUS
 62
1
 10
1735.061676
 20
451.072649
 11
1665.116193
 21
431.412842
  0
LINE
  8
CutLine
  6
CONTINUOUS
 62
8
 10
1790.616252
 20
467.393172
 11
1735.061676
 21
451.072649
  0
LINE
  8
ValleyLine
  6
CONTINUOUS
 62
1
 10
1740.269193
 20
424.744747
 11
1790.616252
 21
467.393172
  0
LINE
  8
ValleyLine
  6
CONTINUOUS
 62
1
 10
1533.031800
 20
293.456648
 11
1552.112631
 21
250.336876
  0
LINE
  8
CutLine
  6
CONTINUOUS
 62
8
 10
1552.112631
 20
250.336876
 11
1619.416898
 21
313.093531
  0
LINE
  8
ValleyLine
  6
CONTINUOUS
 62
1
 10
1619.416898
 20
313.093531
 11
1608.730919
 21
346.461901
  0
LINE
  8
ValleyLine
  6
CONTINUOUS
 62
1
 10
1608.730919
 20
346.461901
 11
1533.031800
 21
293.456648
  0
LINE
  8
ValleyLine
  6
CONTINUOUS
 62
1
 10
1619.416898
 20
313.093531
 11
1683.244103
 21
348.168671
  0
LINE
  8
MountainLine
  6
CONTINUOUS
 62
5
 10
1683.244103
 20
348.168671
 11
1677.320427
 21
372.968984
  0
LINE
  8
CutLine
  6
CONTINUOUS
 62
8
 10
1677.320427
 20
372.968984
 11
1608.730919
 21
346.461901
  0
LINE
  8
CutLine
  6
CONTINUOUS
 62
8
 10
1451.144733
 20
263.148668
 11
1533.031800
 21
293.456648
  0
LINE
  8
ValleyLine
  6
CONTINUOUS
 62
1
 10
1502.719248
 20
319.512848
 11
1451.144733
 21
263.148668
  0
LINE
  8
ValleyLine
  6
CONTINUOUS
 62
1
 10
1608.730919
 20
346.461901
 11
1586.970162
 21
376.220859
  0
LINE
  8
CutLine
  6
CONTINUOUS
 62
8
 10
1586.970162
 20
376.220859
 11
1502.719248
 21
319.512848
  0
LINE
  8
ValleyLine
  6
CONTINUOUS
 62
1
 10
1608.730919
 20
346.461901
 11
1675.892356
 21
376.493617
  0
LINE
  8
ValleyLine
  6
CONTINUOUS
 62
1
 10
1748.443238
 20
358.510400
 11
1808.504010
 21
366.588937
  0
LINE
  8
CutLine
  6
CONTINUOUS
 62
8
 10
1808.504010
 20
366.588937
 11
1745.599587
 21
381.138544
  0
LINE
  8
CutLine
  6
CONTINUOUS
 62
8
 10
1683.244103
 20
348.168671
 11
1748.443238
 21
358.510400
  0
LINE
  8
ValleyLine
  6
CONTINUOUS
 62
1
 10
1745.599587
 20
381.138544
 11
1677.320427
 21
372.968984
  0
ENDSEC
  0
EOF
