  0
SECTION
  2
HEADER
  9
$ACADVER
  1
AC1009
  0
ENDSEC
  0
SECTION
  2
BLOCKS
  0
ENDSEC
  0
SECTION
  2
ENTITIES
  0
LINE
  8
CutLine
  6
CONTINUOUS
 62
8
 10
398.298729
 20
374.881718
 11
404.205443
 21
370.994467
  0
LINE
  8
CutLine
  6
CONTINUOUS
 62
8
 10
404.205443
 20
370.994467
 11
427.272134
 21
259.125975
  0
LINE
  8
CutLine
  6
CONTINUOUS
 62
8
 10
427.272134
 20
259.125975
 11
423.384883
 21
253.219260
  0
LINE
  8
CutLine
  6
CONTINUOUS
 62
8
 10
250.735998
 20
282.446964
 11
251.549683
 21
289.471060
  0
LINE
  8
CutLine
  6
CONTINUOUS
 62
8
 10
251.549683
 20
289.471060
 11
346.683853
 21
364.852392
  0
LINE
  8
CutLine
  6
CONTINUOUS
 62
8
 10
346.683853
 20
364.852392
 11
356.247371
 21
366.050866
  0
LINE
  8
CutLine
  6
CONTINUOUS
 62
8
 10
657.880990
 20
95.741276
 11
651.270961
 21
91.092937
  0
LINE
  8
CutLine
  6
CONTINUOUS
 62
8
 10
651.270961
 20
91.092937
 11
579.958187
 21
94.966367
  0
LINE
  8
CutLine
  6
CONTINUOUS
 62
8
 10
579.958187
 20
94.966367
 11
575.236727
 21
100.230189
  0
LINE
  8
CutLine
  6
CONTINUOUS
 62
8
 10
537.135734
 20
201.920562
 11
544.192054
 21
202.377010
  0
LINE
  8
CutLine
  6
CONTINUOUS
 62
8
 10
544.192054
 20
202.377010
 11
559.465980
 21
188.959058
  0
LINE
  8
CutLine
  6
CONTINUOUS
 62
8
 10
559.465980
 20
188.959058
 11
559.922428
 21
181.902738
  0
LINE
  8
CutLine
  6
CONTINUOUS
 62
8
 10
532.766700
 20
97.101064
 11
508.574673
 21
92.345037
  0
LINE
  8
CutLine
  6
CONTINUOUS
 62
8
 10
508.574673
 20
92.345037
 11
236.930444
 21
95.087388
  0
LINE
  8
CutLine
  6
CONTINUOUS
 62
8
 10
236.930444
 20
95.087388
 11
228.113582
 21
100.176652
  0
LINE
  8
CutLine
  6
CONTINUOUS
 62
8
 10
312.858608
 20
146.690811
 11
309.445896
 21
147.615812
  0
LINE
  8
CutLine
  6
CONTINUOUS
 62
8
 10
336.529563
 20
206.529696
 11
337.659782
 21
213.509854
  0
LINE
  8
CutLine
  6
CONTINUOUS
 62
8
 10
337.659782
 20
213.509854
 11
380.772992
 21
244.607010
  0
LINE
  8
CutLine
  6
CONTINUOUS
 62
8
 10
380.772992
 20
244.607010
 11
387.753150
 21
243.476791
  0
LINE
  8
CutLine
  6
CONTINUOUS
 62
8
 10
476.242780
 20
266.024039
 11
479.526993
 21
272.286142
  0
LINE
  8
CutLine
  6
CONTINUOUS
 62
8
 10
479.526993
 20
272.286142
 11
544.299749
 21
292.491433
  0
LINE
  8
CutLine
  6
CONTINUOUS
 62
8
 10
544.299749
 20
292.491433
 11
550.561852
 21
289.207219
  0
LINE
  8
CutLine
  6
CONTINUOUS
 62
8
 10
534.541432
 20
241.587052
 11
537.215562
 21
235.041135
  0
LINE
  8
CutLine
  6
CONTINUOUS
 62
8
 10
537.215562
 20
235.041135
 11
531.584164
 21
221.630852
  0
LINE
  8
CutLine
  6
CONTINUOUS
 62
8
 10
531.584164
 20
221.630852
 11
525.038247
 21
218.956722
  0
LINE
  8
CutLine
  6
CONTINUOUS
 62
8
 10
594.200426
 20
197.301719
 11
601.092714
 21
195.721730
  0
LINE
  8
CutLine
  6
CONTINUOUS
 62
8
 10
601.092714
 20
195.721730
 11
658.225879
 21
104.603355
  0
LINE
  8
CutLine
  6
CONTINUOUS
 62
8
 10
658.225879
 20
104.603355
 11
657.880990
 21
95.741276
  0
LINE
  8
CutLine
  6
CONTINUOUS
 62
8
 10
463.541909
 20
335.232630
 11
461.143626
 21
336.799529
  0
LINE
  8
CutLine
  6
CONTINUOUS
 62
8
 10
461.143626
 20
336.799529
 11
456.511427
 21
331.456990
  0
LINE
  8
CutLine
  6
CONTINUOUS
 62
8
 10
456.511427
 20
331.456990
 11
425.706825
 21
329.263272
  0
LINE
  8
CutLine
  6
CONTINUOUS
 62
8
 10
425.706825
 20
329.263272
 11
420.364285
 21
333.895471
  0
LINE
  8
CutLine
  6
CONTINUOUS
 62
8
 10
540.763929
 20
395.846173
 11
539.979794
 21
402.873629
  0
LINE
  8
CutLine
  6
CONTINUOUS
 62
8
 10
539.979794
 20
402.873629
 11
576.307289
 21
448.326294
  0
LINE
  8
CutLine
  6
CONTINUOUS
 62
8
 10
576.307289
 20
448.326294
 11
583.839667
 21
449.742185
  0
LINE
  8
CutLine
  6
CONTINUOUS
 62
8
 10
585.916230
 20
373.137912
 11
583.186134
 21
366.615139
  0
LINE
  8
CutLine
  6
CONTINUOUS
 62
8
 10
583.186134
 20
366.615139
 11
571.438904
 21
361.800045
  0
LINE
  8
CutLine
  6
CONTINUOUS
 62
8
 10
606.254036
 20
408.107481
 11
609.739766
 21
400.073641
  0
LINE
  8
CutLine
  6
CONTINUOUS
 62
8
 10
609.739766
 20
400.073641
 11
608.975528
 21
396.270039
  0
LINE
  8
CutLine
  6
CONTINUOUS
 62
8
 10
608.975528
 20
396.270039
 11
603.088559
 21
392.352949
  0
LINE
  8
CutLine
  6
CONTINUOUS
 62
8
 10
464.804899
 20
367.586406
 11
465.589579
 21
374.613801
  0
LINE
  8
CutLine
  6
CONTINUOUS
 62
8
 10
465.589579
 20
374.613801
 11
493.739743
 21
397.108907
  0
LINE
  8
CutLine
  6
CONTINUOUS
 62
8
 10
493.739743
 20
397.108907
 11
500.767138
 21
396.324227
  0
LINE
  8
CutLine
  6
CONTINUOUS
 62
8
 10
668.408609
 20
348.322952
 11
673.177178
 21
345.683027
  0
LINE
  8
CutLine
  6
CONTINUOUS
 62
8
 10
558.773231
 20
196.720667
 11
555.422934
 21
202.947666
  0
LINE
  8
CutLine
  6
CONTINUOUS
 62
8
 10
555.422934
 20
202.947666
 11
572.492455
 21
259.776576
  0
LINE
  8
CutLine
  6
CONTINUOUS
 62
8
 10
572.492455
 20
259.776576
 11
578.719454
 21
263.126873
  0
LINE
  8
CutLine
  6
CONTINUOUS
 62
8
 10
629.674430
 20
292.131088
 11
632.688025
 21
278.567793
  0
LINE
  8
CutLine
  6
CONTINUOUS
 62
8
 10
632.688025
 20
278.567793
 11
629.406084
 21
256.777116
  0
LINE
  8
CutLine
  6
CONTINUOUS
 62
8
 10
629.406084
 20
256.777116
 11
623.717185
 21
252.577541
  0
LINE
  8
CutLine
  6
CONTINUOUS
 62
8
 10
587.609447
 20
303.737538
 11
584.748796
 21
310.204120
  0
LINE
  8
CutLine
  6
CONTINUOUS
 62
8
 10
584.748796
 20
310.204120
 11
597.067087
 21
342.067061
  0
LINE
  8
CutLine
  6
CONTINUOUS
 62
8
 10
629.434819
 20
369.134214
 11
636.068513
 21
371.582501
  0
LINE
  8
CutLine
  6
CONTINUOUS
 62
8
 10
636.068513
 20
371.582501
 11
666.345283
 21
357.629529
  0
LINE
  8
CutLine
  6
CONTINUOUS
 62
8
 10
666.345283
 20
357.629529
 11
672.378783
 21
349.343599
  0
LINE
  8
CutLine
  6
CONTINUOUS
 62
8
 10
587.977932
 20
365.910830
 11
592.733115
 21
371.144207
  0
LINE
  8
CutLine
  6
CONTINUOUS
 62
8
 10
592.733115
 20
371.144207
 11
608.257240
 21
371.887411
  0
LINE
  8
CutLine
  6
CONTINUOUS
 62
8
 10
608.257240
 20
371.887411
 11
613.490617
 21
367.132228
  0
LINE
  8
CutLine
  6
CONTINUOUS
 62
8
 10
467.955171
 20
269.059278
 11
462.304318
 21
275.589139
  0
LINE
  8
CutLine
  6
CONTINUOUS
 62
8
 10
462.304318
 20
275.589139
 11
457.143910
 21
329.263632
  0
LINE
  8
CutLine
  6
CONTINUOUS
 62
8
 10
457.143910
 20
329.263632
 11
461.642453
 21
334.719190
  0
LINE
  8
CutLine
  6
CONTINUOUS
 62
8
 10
565.045945
 20
322.629746
 11
562.916577
 21
315.886914
  0
LINE
  8
CutLine
  6
CONTINUOUS
 62
8
 10
562.916577
 20
315.886914
 11
534.904976
 21
301.321136
  0
LINE
  8
CutLine
  6
CONTINUOUS
 62
8
 10
534.904976
 20
301.321136
 11
528.162144
 21
303.450504
  0
LINE
  8
CutLine
  6
CONTINUOUS
 62
8
 10
175.830573
 20
100.299000
 11
168.861280
 21
101.494386
  0
LINE
  8
CutLine
  6
CONTINUOUS
 62
8
 10
168.861280
 20
101.494386
 11
143.271947
 21
137.679360
  0
LINE
  8
CutLine
  6
CONTINUOUS
 62
8
 10
143.271947
 20
137.679360
 11
144.467333
 21
144.648654
  0
LINE
  8
CutLine
  6
CONTINUOUS
 62
8
 10
342.440201
 20
238.528560
 11
341.653265
 21
231.501417
  0
LINE
  8
CutLine
  6
CONTINUOUS
 62
8
 10
341.653265
 20
231.501417
 11
215.947470
 21
131.114647
  0
LINE
  8
CutLine
  6
CONTINUOUS
 62
8
 10
215.947470
 20
131.114647
 11
208.920328
 21
131.901583
  0
LINE
  8
CutLine
  6
CONTINUOUS
 62
8
 10
97.785226
 20
185.747069
 11
97.429650
 21
192.809191
  0
LINE
  8
CutLine
  6
CONTINUOUS
 62
8
 10
97.429650
 20
192.809191
 11
124.418634
 21
222.660051
  0
LINE
  8
CutLine
  6
CONTINUOUS
 62
8
 10
124.418634
 20
222.660051
 11
131.480756
 21
223.015628
  0
LINE
  8
CutLine
  6
CONTINUOUS
 62
8
 10
264.266233
 20
402.117897
 11
263.297379
 21
395.113518
  0
LINE
  8
CutLine
  6
CONTINUOUS
 62
8
 10
263.297379
 20
395.113518
 11
148.958339
 21
308.561921
  0
LINE
  8
CutLine
  6
CONTINUOUS
 62
8
 10
148.958339
 20
308.561921
 11
141.953960
 21
309.530775
  0
LINE
  8
CutLine
  6
CONTINUOUS
 62
8
 10
147.295643
 20
241.786129
 11
140.226981
 21
241.601710
  0
LINE
  8
CutLine
  6
CONTINUOUS
 62
8
 10
140.226981
 20
241.601710
 11
132.325115
 21
249.101746
  0
LINE
  8
CutLine
  6
CONTINUOUS
 62
8
 10
132.325115
 20
249.101746
 11
132.140696
 21
256.170409
  0
LINE
  8
CutLine
  6
CONTINUOUS
 62
8
 10
110.949923
 20
277.885123
 11
102.864988
 21
278.559568
  0
LINE
  8
CutLine
  6
CONTINUOUS
 62
8
 10
102.864988
 20
278.559568
 11
16.501206
 21
358.574022
  0
LINE
  8
CutLine
  6
CONTINUOUS
 62
8
 10
16.501206
 20
358.574022
 11
15.242580
 21
366.556216
  0
LINE
  8
ValleyLine
  6
CONTINUOUS
 62
1
 10
423.384883
 20
253.219260
 11
398.298729
 21
374.881718
  0
LINE
  8
CutLine
  6
CONTINUOUS
 62
8
 10
398.298729
 20
374.881718
 11
356.247371
 21
366.050866
  0
LINE
  8
ValleyLine
  6
CONTINUOUS
 62
1
 10
356.247371
 20
366.050866
 11
250.735998
 21
282.446964
  0
LINE
  8
CutLine
  6
CONTINUOUS
 62
8
 10
250.735998
 20
282.446964
 11
387.753150
 21
243.476791
  0
LINE
  8
ValleyLine
  6
CONTINUOUS
 62
1
 10
387.753150
 20
243.476791
 11
423.384883
 21
253.219260
  0
LINE
  8
CutLine
  6
CONTINUOUS
 62
8
 10
537.135734
 20
201.920562
 11
525.038247
 21
218.956722
  0
LINE
  8
MountainLine
  6
CONTINUOUS
 62
5
 10
525.038247
 20
218.956722
 11
351.896861
 21
165.829162
  0
LINE
  8
CutLine
  6
CONTINUOUS
 62
8
 10
351.896861
 20
165.829162
 11
310.419861
 21
145.495224
  0
LINE
  8
ValleyLine
  6
CONTINUOUS
 62
1
 10
310.419861
 20
145.495224
 11
532.766700
 21
97.101064
  0
LINE
  8
ValleyLine
  6
CONTINUOUS
 62
1
 10
575.236727
 20
100.230189
 11
657.880990
 21
95.741276
  0
LINE
  8
ValleyLine
  6
CONTINUOUS
 62
1
 10
657.880990
 20
95.741276
 11
559.922428
 21
181.902738
  0
LINE
  8
MountainLine
  6
CONTINUOUS
 62
5
 10
559.922428
 20
181.902738
 11
575.236727
 21
100.230189
  0
LINE
  8
ValleyLine
  6
CONTINUOUS
 62
1
 10
559.922428
 20
181.902738
 11
537.135734
 21
201.920562
  0
LINE
  8
CutLine
  6
CONTINUOUS
 62
8
 10
532.766700
 20
97.101064
 11
575.236727
 21
100.230189
  0
LINE
  8
CutLine
  6
CONTINUOUS
 62
8
 10
310.419861
 20
145.495224
 11
228.113582
 21
100.176652
  0
LINE
  8
ValleyLine
  6
CONTINUOUS
 62
1
 10
228.113582
 20
100.176652
 11
532.766700
 21
97.101064
  0
LINE
  8
MountainLine
  6
CONTINUOUS
 62
5
 10
336.529563
 20
206.529696
 11
351.896861
 21
165.829162
  0
LINE
  8
MountainLine
  6
CONTINUOUS
 62
5
 10
525.038247
 20
218.956722
 11
336.529563
 21
206.529696
  0
LINE
  8
CutLine
  6
CONTINUOUS
 62
8
 10
336.529563
 20
206.529696
 11
309.445896
 21
147.615812
  0
LINE
  8
MountainLine
  6
CONTINUOUS
 62
5
 10
309.445896
 20
147.615812
 11
351.896861
 21
165.829162
  0
LINE
  8
MountainLine
  6
CONTINUOUS
 62
5
 10
525.038247
 20
218.956722
 11
387.753150
 21
243.476791
  0
LINE
  8
ValleyLine
  6
CONTINUOUS
 62
1
 10
387.753150
 20
243.476791
 11
336.529563
 21
206.529696
  0
LINE
  8
CutLine
  6
CONTINUOUS
 62
8
 10
534.541432
 20
241.587052
 11
550.561852
 21
289.207219
  0
LINE
  8
ValleyLine
  6
CONTINUOUS
 62
1
 10
550.561852
 20
289.207219
 11
476.242780
 21
266.024039
  0
LINE
  8
CutLine
  6
CONTINUOUS
 62
8
 10
476.242780
 20
266.024039
 11
423.384883
 21
253.219260
  0
LINE
  8
ValleyLine
  6
CONTINUOUS
 62
1
 10
525.038247
 20
218.956722
 11
534.541432
 21
241.587052
  0
LINE
  8
ValleyLine
  6
CONTINUOUS
 62
1
 10
657.880990
 20
95.741276
 11
594.200426
 21
197.301719
  0
LINE
  8
CutLine
  6
CONTINUOUS
 62
8
 10
594.200426
 20
197.301719
 11
559.922428
 21
181.902738
  0
LINE
  8
ValleyLine
  6
CONTINUOUS
 62
1
 10
540.763929
 20
395.846173
 11
464.804899
 21
367.586406
  0
LINE
  8
ValleyLine
  6
CONTINUOUS
 62
1
 10
464.804899
 20
367.586406
 11
497.674701
 21
344.459033
  0
LINE
  8
ValleyLine
  6
CONTINUOUS
 62
1
 10
497.674701
 20
344.459033
 11
537.946366
 21
353.475453
  0
LINE
  8
MountainLine
  6
CONTINUOUS
 62
5
 10
537.946366
 20
353.475453
 11
540.763929
 21
395.846173
  0
LINE
  8
MountainLine
  6
CONTINUOUS
 62
5
 10
464.804899
 20
367.586406
 11
461.143626
 21
336.799529
  0
LINE
  8
ValleyLine
  6
CONTINUOUS
 62
1
 10
461.143626
 20
336.799529
 11
497.674701
 21
344.459033
  0
LINE
  8
ValleyLine
  6
CONTINUOUS
 62
1
 10
420.364285
 20
333.895471
 11
461.143626
 21
336.799529
  0
LINE
  8
CutLine
  6
CONTINUOUS
 62
8
 10
464.804899
 20
367.586406
 11
420.364285
 21
333.895471
  0
LINE
  8
ValleyLine
  6
CONTINUOUS
 62
1
 10
583.839667
 20
449.742185
 11
540.763929
 21
395.846173
  0
LINE
  8
MountainLine
  6
CONTINUOUS
 62
5
 10
540.763929
 20
395.846173
 11
582.950578
 21
393.187938
  0
LINE
  8
ValleyLine
  6
CONTINUOUS
 62
1
 10
582.950578
 20
393.187938
 11
583.839667
 21
449.742185
  0
LINE
  8
ValleyLine
  6
CONTINUOUS
 62
1
 10
585.916230
 20
373.137912
 11
582.950578
 21
393.187938
  0
LINE
  8
ValleyLine
  6
CONTINUOUS
 62
1
 10
537.946366
 20
353.475453
 11
585.916230
 21
373.137912
  0
LINE
  8
ValleyLine
  6
CONTINUOUS
 62
1
 10
582.950578
 20
393.187938
 11
606.254036
 21
408.107481
  0
LINE
  8
CutLine
  6
CONTINUOUS
 62
8
 10
606.254036
 20
408.107481
 11
583.839667
 21
449.742185
  0
LINE
  8
MountainLine
  6
CONTINUOUS
 62
5
 10
582.950578
 20
393.187938
 11
603.088559
 21
392.352949
  0
LINE
  8
ValleyLine
  6
CONTINUOUS
 62
1
 10
603.088559
 20
392.352949
 11
606.254036
 21
408.107481
  0
LINE
  8
CutLine
  6
CONTINUOUS
 62
8
 10
585.916230
 20
373.137912
 11
603.088559
 21
392.352949
  0
LINE
  8
CutLine
  6
CONTINUOUS
 62
8
 10
540.763929
 20
395.846173
 11
500.767138
 21
396.324227
  0
LINE
  8
MountainLine
  6
CONTINUOUS
 62
5
 10
500.767138
 20
396.324227
 11
464.804899
 21
367.586406
  0
LINE
  8
MountainLine
  6
CONTINUOUS
 62
5
 10
629.674430
 20
292.131088
 11
623.180526
 21
336.695778
  0
LINE
  8
ValleyLine
  6
CONTINUOUS
 62
1
 10
623.180526
 20
336.695778
 11
587.609447
 21
303.737538
  0
LINE
  8
MountainLine
  6
CONTINUOUS
 62
5
 10
587.609447
 20
303.737538
 11
629.674430
 21
292.131088
  0
LINE
  8
CutLine
  6
CONTINUOUS
 62
8
 10
629.674430
 20
292.131088
 11
673.177178
 21
345.683027
  0
LINE
  8
ValleyLine
  6
CONTINUOUS
 62
1
 10
673.177178
 20
345.683027
 11
623.180526
 21
336.695778
  0
LINE
  8
ValleyLine
  6
CONTINUOUS
 62
1
 10
578.719454
 20
263.126873
 11
558.773231
 21
196.720667
  0
LINE
  8
CutLine
  6
CONTINUOUS
 62
8
 10
558.773231
 20
196.720667
 11
623.717185
 21
252.577541
  0
LINE
  8
ValleyLine
  6
CONTINUOUS
 62
1
 10
623.717185
 20
252.577541
 11
629.674430
 21
292.131088
  0
LINE
  8
CutLine
  6
CONTINUOUS
 62
8
 10
587.609447
 20
303.737538
 11
578.719454
 21
263.126873
  0
LINE
  8
ValleyLine
  6
CONTINUOUS
 62
1
 10
623.180526
 20
336.695778
 11
604.071479
 21
346.318832
  0
LINE
  8
ValleyLine
  6
CONTINUOUS
 62
1
 10
604.071479
 20
346.318832
 11
587.609447
 21
303.737538
  0
LINE
  8
ValleyLine
  6
CONTINUOUS
 62
1
 10
604.071479
 20
346.318832
 11
629.434819
 21
369.134214
  0
LINE
  8
CutLine
  6
CONTINUOUS
 62
8
 10
629.434819
 20
369.134214
 11
613.490617
 21
367.132228
  0
LINE
  8
ValleyLine
  6
CONTINUOUS
 62
1
 10
613.490617
 20
367.132228
 11
604.071479
 21
346.318832
  0
LINE
  8
CutLine
  6
CONTINUOUS
 62
8
 10
623.180526
 20
336.695778
 11
672.378783
 21
349.343599
  0
LINE
  8
ValleyLine
  6
CONTINUOUS
 62
1
 10
672.378783
 20
349.343599
 11
629.434819
 21
369.134214
  0
LINE
  8
ValleyLine
  6
CONTINUOUS
 62
1
 10
613.490617
 20
367.132228
 11
587.977932
 21
365.910830
  0
LINE
  8
ValleyLine
  6
CONTINUOUS
 62
1
 10
587.977932
 20
365.910830
 11
604.071479
 21
346.318832
  0
LINE
  8
MountainLine
  6
CONTINUOUS
 62
5
 10
461.642453
 20
334.719190
 11
467.955171
 21
269.059278
  0
LINE
  8
CutLine
  6
CONTINUOUS
 62
8
 10
467.955171
 20
269.059278
 11
528.162144
 21
303.450504
  0
LINE
  8
ValleyLine
  6
CONTINUOUS
 62
1
 10
528.162144
 20
303.450504
 11
565.045945
 21
322.629746
  0
LINE
  8
ValleyLine
  6
CONTINUOUS
 62
1
 10
565.045945
 20
322.629746
 11
537.946366
 21
353.475453
  0
LINE
  8
CutLine
  6
CONTINUOUS
 62
8
 10
497.674701
 20
344.459033
 11
461.642453
 21
334.719190
  0
LINE
  8
CutLine
  6
CONTINUOUS
 62
8
 10
565.045945
 20
322.629746
 11
604.071479
 21
346.318832
  0
LINE
  8
CutLine
  6
CONTINUOUS
 62
8
 10
587.977932
 20
365.910830
 11
537.946366
 21
353.475453
  0
LINE
  8
MountainLine
  6
CONTINUOUS
 62
5
 10
144.467333
 20
144.648654
 11
175.830573
 21
100.299000
  0
LINE
  8
CutLine
  6
CONTINUOUS
 62
8
 10
175.830573
 20
100.299000
 11
208.920328
 21
131.901583
  0
LINE
  8
ValleyLine
  6
CONTINUOUS
 62
1
 10
208.920328
 20
131.901583
 11
342.440201
 21
238.528560
  0
LINE
  8
MountainLine
  6
CONTINUOUS
 62
5
 10
342.440201
 20
238.528560
 11
147.295643
 21
241.786129
  0
LINE
  8
CutLine
  6
CONTINUOUS
 62
8
 10
147.295643
 20
241.786129
 11
131.480756
 21
223.015628
  0
LINE
  8
ValleyLine
  6
CONTINUOUS
 62
1
 10
131.480756
 20
223.015628
 11
97.785226
 21
185.747069
  0
LINE
  8
CutLine
  6
CONTINUOUS
 62
8
 10
97.785226
 20
185.747069
 11
144.467333
 21
144.648654
  0
LINE
  8
MountainLine
  6
CONTINUOUS
 62
5
 10
141.953960
 20
309.530775
 11
264.266233
 21
402.117897
  0
LINE
  8
CutLine
  6
CONTINUOUS
 62
8
 10
264.266233
 20
402.117897
 11
15.242580
 21
366.556216
  0
LINE
  8
ValleyLine
  6
CONTINUOUS
 62
1
 10
15.242580
 20
366.556216
 11
122.764184
 21
313.557703
  0
LINE
  8
ValleyLine
  6
CONTINUOUS
 62
1
 10
122.764184
 20
313.557703
 11
141.953960
 21
309.530775
  0
LINE
  8
CutLine
  6
CONTINUOUS
 62
8
 10
342.440201
 20
238.528560
 11
141.953960
 21
309.530775
  0
LINE
  8
MountainLine
  6
CONTINUOUS
 62
5
 10
141.953960
 20
309.530775
 11
147.295643
 21
241.786129
  0
LINE
  8
MountainLine
  6
CONTINUOUS
 62
5
 10
122.764184
 20
313.557703
 11
110.949923
 21
277.885123
  0
LINE
  8
CutLine
  6
CONTINUOUS
 62
8
 10
110.949923
 20
277.885123
 11
132.140696
 21
256.170409
  0
LINE
  8
ValleyLine
  6
CONTINUOUS
 62
1
 10
132.140696
 20
256.170409
 11
147.295643
 21
241.786129
  0
LINE
  8
ValleyLine
  6
CONTINUOUS
 62
1
 10
15.242580
 20
366.556216
 11
110.949923
 21
277.885123
  0
ENDSEC
  0
EOF
