  0
SECTION
  2
HEADER
  9
$ACADVER
  1
AC1009
  0
ENDSEC
  0
SECTION
  2
BLOCKS
  0
ENDSEC
  0
SECTION
  2
ENTITIES
  0
LINE
  8
CutLine
  6
CONTINUOUS
 62
8
 10
322.934896
 20
450.380659
 11
328.370019
 21
454.903869
  0
LINE
  8
CutLine
  6
CONTINUOUS
 62
8
 10
328.370019
 20
454.903869
 11
382.080863
 21
449.985410
  0
LINE
  8
CutLine
  6
CONTINUOUS
 62
8
 10
382.080863
 20
449.985410
 11
386.604073
 21
444.550286
  0
LINE
  8
CutLine
  6
CONTINUOUS
 62
8
 10
507.373553
 20
405.736930
 11
501.930145
 21
401.223692
  0
LINE
  8
CutLine
  6
CONTINUOUS
 62
8
 10
501.930145
 20
401.223692
 11
386.237630
 21
412.031914
  0
LINE
  8
CutLine
  6
CONTINUOUS
 62
8
 10
386.237630
 20
412.031914
 11
381.724392
 21
417.475321
  0
LINE
  8
CutLine
  6
CONTINUOUS
 62
8
 10
565.226602
 20
164.768253
 11
558.156119
 21
164.677321
  0
LINE
  8
CutLine
  6
CONTINUOUS
 62
8
 10
558.156119
 20
164.677321
 11
539.091056
 21
183.258226
  0
LINE
  8
CutLine
  6
CONTINUOUS
 62
8
 10
539.091056
 20
183.258226
 11
539.000123
 21
190.328709
  0
LINE
  8
CutLine
  6
CONTINUOUS
 62
8
 10
609.625065
 20
195.675469
 11
608.378114
 21
188.715216
  0
LINE
  8
CutLine
  6
CONTINUOUS
 62
8
 10
608.378114
 20
188.715216
 11
572.186855
 21
163.521302
  0
LINE
  8
CutLine
  6
CONTINUOUS
 62
8
 10
572.186855
 20
163.521302
 11
565.226602
 21
164.768253
  0
LINE
  8
CutLine
  6
CONTINUOUS
 62
8
 10
651.797818
 20
240.638465
 11
651.400891
 21
233.578546
  0
LINE
  8
CutLine
  6
CONTINUOUS
 62
8
 10
651.400891
 20
233.578546
 11
648.479692
 21
230.968337
  0
LINE
  8
CutLine
  6
CONTINUOUS
 62
8
 10
648.479692
 20
230.968337
 11
641.419773
 21
231.365264
  0
LINE
  8
CutLine
  6
CONTINUOUS
 62
8
 10
592.861285
 20
210.748525
 11
595.059030
 21
217.469381
  0
LINE
  8
CutLine
  6
CONTINUOUS
 62
8
 10
595.059030
 20
217.469381
 11
645.076962
 21
242.836210
  0
LINE
  8
CutLine
  6
CONTINUOUS
 62
8
 10
645.076962
 20
242.836210
 11
651.797818
 21
240.638465
  0
LINE
  8
CutLine
  6
CONTINUOUS
 62
8
 10
641.419773
 20
231.365264
 11
647.737152
 21
228.188674
  0
LINE
  8
CutLine
  6
CONTINUOUS
 62
8
 10
647.737152
 20
228.188674
 11
655.515648
 21
204.675859
  0
LINE
  8
CutLine
  6
CONTINUOUS
 62
8
 10
655.515648
 20
204.675859
 11
652.339058
 21
198.358480
  0
LINE
  8
CutLine
  6
CONTINUOUS
 62
8
 10
529.743470
 20
245.396655
 11
524.666182
 21
240.475157
  0
LINE
  8
CutLine
  6
CONTINUOUS
 62
8
 10
524.666182
 20
240.475157
 11
442.876818
 21
241.749509
  0
LINE
  8
CutLine
  6
CONTINUOUS
 62
8
 10
442.876818
 20
241.749509
 11
437.955320
 21
246.826797
  0
LINE
  8
CutLine
  6
CONTINUOUS
 62
8
 10
454.960735
 20
283.540053
 11
462.290388
 21
288.263564
  0
LINE
  8
CutLine
  6
CONTINUOUS
 62
8
 10
462.290388
 20
288.263564
 11
516.395658
 21
286.195653
  0
LINE
  8
CutLine
  6
CONTINUOUS
 62
8
 10
516.395658
 20
286.195653
 11
521.201049
 21
281.008340
  0
LINE
  8
CutLine
  6
CONTINUOUS
 62
8
 10
300.290256
 20
286.548137
 11
305.380474
 21
291.456261
  0
LINE
  8
CutLine
  6
CONTINUOUS
 62
8
 10
305.380474
 20
291.456261
 11
361.307414
 21
290.437695
  0
LINE
  8
CutLine
  6
CONTINUOUS
 62
8
 10
361.307414
 20
290.437695
 11
366.215538
 21
285.347477
  0
LINE
  8
CutLine
  6
CONTINUOUS
 62
8
 10
389.116785
 20
283.426025
 11
393.901520
 21
288.632397
  0
LINE
  8
CutLine
  6
CONTINUOUS
 62
8
 10
393.901520
 20
288.632397
 11
403.585440
 21
289.041070
  0
LINE
  8
CutLine
  6
CONTINUOUS
 62
8
 10
403.585440
 20
289.041070
 11
408.791812
 21
284.256335
  0
LINE
  8
CutLine
  6
CONTINUOUS
 62
8
 10
437.955320
 20
246.826797
 11
432.861683
 21
241.922221
  0
LINE
  8
CutLine
  6
CONTINUOUS
 62
8
 10
432.861683
 20
241.922221
 11
323.220136
 21
243.995479
  0
LINE
  8
CutLine
  6
CONTINUOUS
 62
8
 10
323.220136
 20
243.995479
 11
318.315560
 21
249.089116
  0
LINE
  8
CutLine
  6
CONTINUOUS
 62
8
 10
227.722999
 20
323.904283
 11
234.476032
 21
326.001079
  0
LINE
  8
CutLine
  6
CONTINUOUS
 62
8
 10
234.476032
 20
326.001079
 11
266.028621
 21
309.400047
  0
LINE
  8
CutLine
  6
CONTINUOUS
 62
8
 10
266.028621
 20
309.400047
 11
268.125418
 21
302.647015
  0
LINE
  8
CutLine
  6
CONTINUOUS
 62
8
 10
254.405780
 20
247.273271
 11
247.781774
 21
249.747648
  0
LINE
  8
CutLine
  6
CONTINUOUS
 62
8
 10
247.781774
 20
249.747648
 11
228.636308
 21
291.725578
  0
LINE
  8
CutLine
  6
CONTINUOUS
 62
8
 10
228.636308
 20
291.725578
 11
231.110685
 21
298.349584
  0
LINE
  8
CutLine
  6
CONTINUOUS
 62
8
 10
56.634145
 20
462.931528
 11
61.920278
 21
467.627994
  0
LINE
  8
CutLine
  6
CONTINUOUS
 62
8
 10
61.920278
 20
467.627994
 11
105.422848
 21
465.058316
  0
LINE
  8
CutLine
  6
CONTINUOUS
 62
8
 10
105.422848
 20
465.058316
 11
110.119314
 21
459.772182
  0
LINE
  8
CutLine
  6
CONTINUOUS
 62
8
 10
79.214935
 20
430.960990
 11
72.246345
 21
432.160472
  0
LINE
  8
CutLine
  6
CONTINUOUS
 62
8
 10
72.246345
 20
432.160472
 11
55.434663
 21
455.962938
  0
LINE
  8
CutLine
  6
CONTINUOUS
 62
8
 10
55.434663
 20
455.962938
 11
56.634145
 21
462.931528
  0
LINE
  8
CutLine
  6
CONTINUOUS
 62
8
 10
149.557922
 20
408.728218
 11
144.502386
 21
403.784378
  0
LINE
  8
CutLine
  6
CONTINUOUS
 62
8
 10
144.502386
 20
403.784378
 11
126.423858
 21
403.986319
  0
LINE
  8
CutLine
  6
CONTINUOUS
 62
8
 10
126.423858
 20
403.986319
 11
121.480017
 21
409.041855
  0
LINE
  8
CutLine
  6
CONTINUOUS
 62
8
 10
149.307409
 20
435.905373
 11
154.396552
 21
426.257611
  0
LINE
  8
CutLine
  6
CONTINUOUS
 62
8
 10
154.396552
 20
426.257611
 11
154.511622
 21
413.774093
  0
LINE
  8
CutLine
  6
CONTINUOUS
 62
8
 10
154.511622
 20
413.774093
 11
149.557922
 21
408.728218
  0
LINE
  8
CutLine
  6
CONTINUOUS
 62
8
 10
74.420594
 20
410.462287
 11
68.353060
 21
410.222247
  0
LINE
  8
CutLine
  6
CONTINUOUS
 62
8
 10
68.353060
 20
410.222247
 11
70.288919
 21
415.977682
  0
LINE
  8
CutLine
  6
CONTINUOUS
 62
8
 10
87.952652
 20
391.344992
 11
80.982831
 21
392.537300
  0
LINE
  8
CutLine
  6
CONTINUOUS
 62
8
 10
80.982831
 20
392.537300
 11
73.228285
 21
403.492467
  0
LINE
  8
CutLine
  6
CONTINUOUS
 62
8
 10
73.228285
 20
403.492467
 11
74.420594
 21
410.462287
  0
LINE
  8
CutLine
  6
CONTINUOUS
 62
8
 10
556.141575
 20
328.119859
 11
562.891839
 21
330.225550
  0
LINE
  8
CutLine
  6
CONTINUOUS
 62
8
 10
562.891839
 20
330.225550
 11
575.865637
 21
323.421342
  0
LINE
  8
CutLine
  6
CONTINUOUS
 62
8
 10
575.865637
 20
323.421342
 11
577.971328
 21
316.671078
  0
LINE
  8
CutLine
  6
CONTINUOUS
 62
8
 10
577.971328
 20
316.671078
 11
585.042305
 21
316.635138
  0
LINE
  8
CutLine
  6
CONTINUOUS
 62
8
 10
585.042305
 20
316.635138
 11
604.382623
 21
297.097213
  0
LINE
  8
CutLine
  6
CONTINUOUS
 62
8
 10
604.382623
 20
297.097213
 11
604.346683
 21
290.026237
  0
LINE
  8
CutLine
  6
CONTINUOUS
 62
8
 10
538.676983
 20
301.403734
 11
533.372966
 21
296.727475
  0
LINE
  8
CutLine
  6
CONTINUOUS
 62
8
 10
533.372966
 20
296.727475
 11
532.370614
 21
296.790522
  0
LINE
  8
CutLine
  6
CONTINUOUS
 62
8
 10
532.370614
 20
296.790522
 11
527.694355
 21
302.094540
  0
LINE
  8
CutLine
  6
CONTINUOUS
 62
8
 10
303.739052
 20
344.457926
 11
308.941378
 21
349.247059
  0
LINE
  8
CutLine
  6
CONTINUOUS
 62
8
 10
308.941378
 20
349.247059
 11
400.179924
 21
345.473925
  0
LINE
  8
CutLine
  6
CONTINUOUS
 62
8
 10
400.179924
 20
345.473925
 11
404.969058
 21
340.271599
  0
LINE
  8
CutLine
  6
CONTINUOUS
 62
8
 10
402.457271
 20
317.624331
 11
396.874901
 21
313.284153
  0
LINE
  8
CutLine
  6
CONTINUOUS
 62
8
 10
396.874901
 20
313.284153
 11
310.287272
 21
324.123955
  0
LINE
  8
CutLine
  6
CONTINUOUS
 62
8
 10
310.287272
 20
324.123955
 11
305.947094
 21
329.706325
  0
LINE
  8
CutLine
  6
CONTINUOUS
 62
8
 10
527.495242
 20
339.211818
 11
527.982402
 21
346.266085
  0
LINE
  8
CutLine
  6
CONTINUOUS
 62
8
 10
527.982402
 20
346.266085
 11
531.060611
 21
348.946602
  0
LINE
  8
CutLine
  6
CONTINUOUS
 62
8
 10
531.060611
 20
348.946602
 11
538.114877
 21
348.459442
  0
LINE
  8
CutLine
  6
CONTINUOUS
 62
8
 10
604.346683
 20
290.026237
 11
610.336267
 21
286.267929
  0
LINE
  8
CutLine
  6
CONTINUOUS
 62
8
 10
610.336267
 20
286.267929
 11
612.261921
 21
277.855225
  0
LINE
  8
CutLine
  6
CONTINUOUS
 62
8
 10
612.261921
 20
277.855225
 11
608.503613
 21
271.865641
  0
LINE
  8
CutLine
  6
CONTINUOUS
 62
8
 10
361.685394
 20
117.766175
 11
367.940985
 21
114.469574
  0
LINE
  8
CutLine
  6
CONTINUOUS
 62
8
 10
367.940985
 20
114.469574
 11
391.229934
 21
39.288338
  0
LINE
  8
CutLine
  6
CONTINUOUS
 62
8
 10
391.229934
 20
39.288338
 11
388.169705
 21
32.269692
  0
LINE
  8
CutLine
  6
CONTINUOUS
 62
8
 10
305.146987
 20
57.954314
 11
298.366569
 21
55.947839
  0
LINE
  8
CutLine
  6
CONTINUOUS
 62
8
 10
298.366569
 20
55.947839
 11
230.791015
 21
92.661827
  0
LINE
  8
CutLine
  6
CONTINUOUS
 62
8
 10
230.791015
 20
92.661827
 11
228.784541
 21
99.442245
  0
LINE
  8
CutLine
  6
CONTINUOUS
 62
8
 10
282.318574
 20
131.882450
 11
283.646483
 21
138.827711
  0
LINE
  8
CutLine
  6
CONTINUOUS
 62
8
 10
283.646483
 20
138.827711
 11
310.411899
 21
157.001005
  0
LINE
  8
CutLine
  6
CONTINUOUS
 62
8
 10
310.411899
 20
157.001005
 11
317.357160
 21
155.673095
  0
LINE
  8
CutLine
  6
CONTINUOUS
 62
8
 10
230.842822
 20
230.104706
 11
236.076723
 21
234.859313
  0
LINE
  8
CutLine
  6
CONTINUOUS
 62
8
 10
236.076723
 20
234.859313
 11
256.902130
 21
233.860017
  0
LINE
  8
CutLine
  6
CONTINUOUS
 62
8
 10
256.902130
 20
233.860017
 11
261.656737
 21
228.626117
  0
LINE
  8
CutLine
  6
CONTINUOUS
 62
8
 10
247.814026
 20
193.783811
 11
248.313185
 21
186.730384
  0
LINE
  8
CutLine
  6
CONTINUOUS
 62
8
 10
248.313185
 20
186.730384
 11
216.133043
 21
149.648706
  0
LINE
  8
CutLine
  6
CONTINUOUS
 62
8
 10
216.133043
 20
149.648706
 11
209.079615
 21
149.149547
  0
LINE
  8
CutLine
  6
CONTINUOUS
 62
8
 10
116.737648
 20
172.683236
 11
116.742189
 21
179.754302
  0
LINE
  8
CutLine
  6
CONTINUOUS
 62
8
 10
116.742189
 20
179.754302
 11
131.494384
 21
194.487561
  0
LINE
  8
CutLine
  6
CONTINUOUS
 62
8
 10
131.494384
 20
194.487561
 11
138.565450
 21
194.483020
  0
LINE
  8
CutLine
  6
CONTINUOUS
 62
8
 10
101.109066
 20
233.629292
 11
107.539503
 21
230.688293
  0
LINE
  8
CutLine
  6
CONTINUOUS
 62
8
 10
107.539503
 20
230.688293
 11
118.759534
 21
200.555135
  0
LINE
  8
CutLine
  6
CONTINUOUS
 62
8
 10
118.759534
 20
200.555135
 11
115.818536
 21
194.124698
  0
LINE
  8
CutLine
  6
CONTINUOUS
 62
8
 10
69.263288
 20
157.721662
 11
62.416134
 21
159.487021
  0
LINE
  8
CutLine
  6
CONTINUOUS
 62
8
 10
62.416134
 20
159.487021
 11
58.030404
 21
166.919860
  0
LINE
  8
CutLine
  6
CONTINUOUS
 62
8
 10
58.030404
 20
166.919860
 11
59.795763
 21
173.767013
  0
LINE
  8
CutLine
  6
CONTINUOUS
 62
8
 10
8.998118
 20
167.021174
 11
5.460579
 21
174.245384
  0
LINE
  8
CutLine
  6
CONTINUOUS
 62
8
 10
5.460579
 20
174.245384
 11
15.044742
 21
218.045792
  0
LINE
  8
CutLine
  6
CONTINUOUS
 62
8
 10
15.044742
 20
218.045792
 11
20.997961
 21
221.861442
  0
LINE
  8
CutLine
  6
CONTINUOUS
 62
8
 10
26.800344
 20
246.978197
 11
23.666472
 21
253.316876
  0
LINE
  8
CutLine
  6
CONTINUOUS
 62
8
 10
23.666472
 20
253.316876
 11
39.619661
 21
300.470232
  0
LINE
  8
CutLine
  6
CONTINUOUS
 62
8
 10
39.619661
 20
300.470232
 11
45.958340
 21
303.604104
  0
LINE
  8
CutLine
  6
CONTINUOUS
 62
8
 10
190.784751
 20
275.217628
 11
191.417869
 21
268.174961
  0
LINE
  8
CutLine
  6
CONTINUOUS
 62
8
 10
191.417869
 20
268.174961
 11
159.948271
 21
230.488401
  0
LINE
  8
CutLine
  6
CONTINUOUS
 62
8
 10
159.948271
 20
230.488401
 11
152.905604
 21
229.855283
  0
LINE
  8
CutLine
  6
CONTINUOUS
 62
8
 10
183.728370
 20
335.852776
 11
189.606384
 21
331.922262
  0
LINE
  8
CutLine
  6
CONTINUOUS
 62
8
 10
189.606384
 20
331.922262
 11
191.366492
 21
323.057525
  0
LINE
  8
CutLine
  6
CONTINUOUS
 62
8
 10
191.366492
 20
323.057525
 11
187.435977
 21
317.179510
  0
LINE
  8
CutLine
  6
CONTINUOUS
 62
8
 10
113.996751
 20
246.075107
 11
107.135798
 21
244.364167
  0
LINE
  8
CutLine
  6
CONTINUOUS
 62
8
 10
107.135798
 20
244.364167
 11
89.178930
 21
255.152693
  0
LINE
  8
CutLine
  6
CONTINUOUS
 62
8
 10
103.205155
 20
320.818175
 11
107.153919
 21
326.683946
  0
LINE
  8
CutLine
  6
CONTINUOUS
 62
8
 10
107.153919
 20
326.683946
 11
122.639552
 21
329.708651
  0
LINE
  8
CutLine
  6
CONTINUOUS
 62
8
 10
122.639552
 20
329.708651
 11
128.505323
 21
325.759888
  0
LINE
  8
CutLine
  6
CONTINUOUS
 62
8
 10
617.984724
 20
60.520012
 11
618.001582
 21
53.448964
  0
LINE
  8
CutLine
  6
CONTINUOUS
 62
8
 10
618.001582
 20
53.448964
 11
597.445062
 21
32.794194
  0
LINE
  8
CutLine
  6
CONTINUOUS
 62
8
 10
597.445062
 20
32.794194
 11
590.374014
 21
32.777337
  0
LINE
  8
CutLine
  6
CONTINUOUS
 62
8
 10
538.432459
 20
62.780837
 11
532.145022
 21
66.016288
  0
LINE
  8
CutLine
  6
CONTINUOUS
 62
8
 10
532.145022
 20
66.016288
 11
528.424862
 21
77.624038
  0
LINE
  8
CutLine
  6
CONTINUOUS
 62
8
 10
528.424862
 20
77.624038
 11
531.660314
 21
83.911474
  0
LINE
  8
CutLine
  6
CONTINUOUS
 62
8
 10
532.311897
 20
116.788773
 11
539.314985
 21
117.766918
  0
LINE
  8
CutLine
  6
CONTINUOUS
 62
8
 10
539.314985
 20
117.766918
 11
567.630215
 21
96.392067
  0
LINE
  8
CutLine
  6
CONTINUOUS
 62
8
 10
567.630215
 20
96.392067
 11
568.608360
 21
89.388980
  0
LINE
  8
CutLine
  6
CONTINUOUS
 62
8
 10
514.687026
 20
111.261425
 11
509.945136
 21
115.054453
  0
LINE
  8
CutLine
  6
CONTINUOUS
 62
8
 10
509.945136
 20
115.054453
 11
515.177850
 21
118.135246
  0
LINE
  8
CutLine
  6
CONTINUOUS
 62
8
 10
532.010734
 20
106.098023
 11
525.790862
 21
102.734516
  0
LINE
  8
CutLine
  6
CONTINUOUS
 62
8
 10
525.790862
 20
102.734516
 11
518.050534
 21
105.041552
  0
LINE
  8
CutLine
  6
CONTINUOUS
 62
8
 10
518.050534
 20
105.041552
 11
514.687026
 21
111.261425
  0
LINE
  8
CutLine
  6
CONTINUOUS
 62
8
 10
537.050522
 20
40.916663
 11
536.378161
 21
40.584468
  0
LINE
  8
CutLine
  6
CONTINUOUS
 62
8
 10
536.378161
 20
40.584468
 11
529.680661
 21
42.852397
  0
LINE
  8
CutLine
  6
CONTINUOUS
 62
8
 10
551.289533
 20
34.877505
 11
545.639180
 21
30.626209
  0
LINE
  8
CutLine
  6
CONTINUOUS
 62
8
 10
545.639180
 20
30.626209
 11
538.271795
 21
31.667186
  0
LINE
  8
CutLine
  6
CONTINUOUS
 62
8
 10
538.271795
 20
31.667186
 11
534.020499
 21
37.317539
  0
LINE
  8
CutLine
  6
CONTINUOUS
 62
8
 10
612.145237
 20
76.246598
 11
617.780978
 21
80.517246
  0
LINE
  8
CutLine
  6
CONTINUOUS
 62
8
 10
617.780978
 20
80.517246
 11
624.900572
 21
79.536171
  0
LINE
  8
CutLine
  6
CONTINUOUS
 62
8
 10
624.900572
 20
79.536171
 11
629.171219
 21
73.900431
  0
LINE
  8
CutLine
  6
CONTINUOUS
 62
8
 10
216.080582
 20
109.912145
 11
219.868144
 21
103.941017
  0
LINE
  8
CutLine
  6
CONTINUOUS
 62
8
 10
219.868144
 20
103.941017
 11
214.018331
 21
77.797324
  0
LINE
  8
CutLine
  6
CONTINUOUS
 62
8
 10
214.018331
 20
77.797324
 11
208.047203
 21
74.009763
  0
LINE
  8
CutLine
  6
CONTINUOUS
 62
8
 10
191.981704
 20
117.885962
 11
198.632456
 21
120.287523
  0
LINE
  8
CutLine
  6
CONTINUOUS
 62
8
 10
198.632456
 20
120.287523
 11
205.290434
 21
117.162243
  0
LINE
  8
CutLine
  6
CONTINUOUS
 62
8
 10
205.290434
 20
117.162243
 11
207.691995
 21
110.511491
  0
LINE
  8
CutLine
  6
CONTINUOUS
 62
8
 10
198.459122
 20
49.050250
 11
195.599428
 21
51.333304
  0
LINE
  8
CutLine
  6
CONTINUOUS
 62
8
 10
183.840993
 20
83.878057
 11
183.973301
 21
84.195903
  0
LINE
  8
CutLine
  6
CONTINUOUS
 62
8
 10
128.342751
 20
149.118598
 11
140.310318
 21
149.119193
  0
LINE
  8
CutLine
  6
CONTINUOUS
 62
8
 10
140.310318
 20
149.119193
 11
174.997766
 21
133.170134
  0
LINE
  8
CutLine
  6
CONTINUOUS
 62
8
 10
174.997766
 20
133.170134
 11
177.451821
 21
126.538573
  0
LINE
  8
CutLine
  6
CONTINUOUS
 62
8
 10
196.729389
 20
48.205821
 11
189.677714
 21
47.682488
  0
LINE
  8
CutLine
  6
CONTINUOUS
 62
8
 10
189.677714
 20
47.682488
 11
170.028714
 21
64.616519
  0
LINE
  8
CutLine
  6
CONTINUOUS
 62
8
 10
165.029046
 20
75.399547
 11
164.977810
 21
75.570176
  0
LINE
  8
CutLine
  6
CONTINUOUS
 62
8
 10
33.684363
 20
115.684585
 11
37.855923
 21
120.712506
  0
LINE
  8
CutLine
  6
CONTINUOUS
 62
8
 10
37.855923
 20
120.712506
 11
42.094147
 21
115.740649
  0
LINE
  8
CutLine
  6
CONTINUOUS
 62
8
 10
58.201235
 20
122.202673
 11
60.377190
 21
128.930617
  0
LINE
  8
CutLine
  6
CONTINUOUS
 62
8
 10
60.377190
 20
128.930617
 11
66.530760
 21
132.076540
  0
LINE
  8
CutLine
  6
CONTINUOUS
 62
8
 10
66.530760
 20
132.076540
 11
73.258703
 21
129.900585
  0
LINE
  8
CutLine
  6
CONTINUOUS
 62
8
 10
47.459435
 20
53.849931
 11
41.182447
 21
57.105607
  0
LINE
  8
CutLine
  6
CONTINUOUS
 62
8
 10
41.182447
 20
57.105607
 11
36.125444
 21
73.061163
  0
LINE
  8
CutLine
  6
CONTINUOUS
 62
8
 10
36.125444
 20
73.061163
 11
39.381119
 21
79.338151
  0
LINE
  8
CutLine
  6
CONTINUOUS
 62
8
 10
48.972841
 20
52.972417
 11
48.144725
 21
55.265745
  0
LINE
  8
CutLine
  6
CONTINUOUS
 62
8
 10
63.876594
 20
87.767912
 11
64.200657
 21
87.895177
  0
LINE
  8
CutLine
  6
CONTINUOUS
 62
8
 10
144.706737
 20
44.748080
 11
140.156648
 21
39.335438
  0
LINE
  8
CutLine
  6
CONTINUOUS
 62
8
 10
140.156648
 20
39.335438
 11
128.012761
 21
38.284046
  0
LINE
  8
CutLine
  6
CONTINUOUS
 62
8
 10
128.012761
 20
38.284046
 11
122.600119
 21
42.834135
  0
LINE
  8
CutLine
  6
CONTINUOUS
 62
8
 10
124.044651
 20
109.265616
 11
125.514138
 21
110.586168
  0
LINE
  8
CutLine
  6
CONTINUOUS
 62
8
 10
123.721288
 20
149.267719
 11
127.879377
 21
142.806339
  0
LINE
  8
CutLine
  6
CONTINUOUS
 62
8
 10
125.635271
 20
112.236282
 11
124.059941
 21
110.633091
  0
LINE
  8
CutLine
  6
CONTINUOUS
 62
8
 10
62.402037
 20
41.420431
 11
62.325289
 21
51.734149
  0
LINE
  8
CutLine
  6
CONTINUOUS
 62
8
 10
62.325289
 20
51.734149
 11
72.798628
 21
70.966316
  0
LINE
  8
CutLine
  6
CONTINUOUS
 62
8
 10
82.382889
 20
78.204617
 11
82.443480
 21
78.222483
  0
LINE
  8
CutLine
  6
CONTINUOUS
 62
8
 10
100.662873
 20
46.169249
 11
99.065560
 21
39.280955
  0
LINE
  8
CutLine
  6
CONTINUOUS
 62
8
 10
99.065560
 20
39.280955
 11
92.211884
 21
35.007523
  0
LINE
  8
CutLine
  6
CONTINUOUS
 62
8
 10
92.211884
 20
35.007523
 11
85.323590
 21
36.604836
  0
LINE
  8
CutLine
  6
CONTINUOUS
 62
8
 10
339.662699
 20
361.613218
 11
336.161533
 21
367.756656
  0
LINE
  8
CutLine
  6
CONTINUOUS
 62
8
 10
336.161533
 20
367.756656
 11
344.306418
 21
397.486455
  0
LINE
  8
CutLine
  6
CONTINUOUS
 62
8
 10
344.306418
 20
397.486455
 11
350.449856
 21
400.987622
  0
LINE
  8
CutLine
  6
CONTINUOUS
 62
8
 10
436.896528
 20
359.210829
 11
431.774554
 21
354.335853
  0
LINE
  8
CutLine
  6
CONTINUOUS
 62
8
 10
431.774554
 20
354.335853
 11
344.537675
 21
356.491244
  0
LINE
  8
CutLine
  6
CONTINUOUS
 62
8
 10
344.537675
 20
356.491244
 11
339.662699
 21
361.613218
  0
LINE
  8
CutLine
  6
CONTINUOUS
 62
8
 10
573.409174
 20
353.056394
 11
566.999206
 21
350.071044
  0
LINE
  8
CutLine
  6
CONTINUOUS
 62
8
 10
566.999206
 20
350.071044
 11
566.055604
 21
350.414989
  0
LINE
  8
CutLine
  6
CONTINUOUS
 62
8
 10
566.055604
 20
350.414989
 11
563.070253
 21
356.824957
  0
LINE
  8
CutLine
  6
CONTINUOUS
 62
8
 10
625.170640
 20
382.949813
 11
631.446747
 21
379.692439
  0
LINE
  8
CutLine
  6
CONTINUOUS
 62
8
 10
631.446747
 20
379.692439
 11
634.175012
 21
371.076286
  0
LINE
  8
CutLine
  6
CONTINUOUS
 62
8
 10
634.175012
 20
371.076286
 11
630.917639
 21
364.800179
  0
LINE
  8
CutLine
  6
CONTINUOUS
 62
8
 10
441.955362
 20
393.649206
 11
447.331664
 21
398.242177
  0
LINE
  8
CutLine
  6
CONTINUOUS
 62
8
 10
447.331664
 20
398.242177
 11
551.838808
 21
390.030574
  0
LINE
  8
CutLine
  6
CONTINUOUS
 62
8
 10
551.838808
 20
390.030574
 11
561.248819
 21
384.275775
  0
LINE
  8
CutLine
  6
CONTINUOUS
 62
8
 10
23.641449
 20
378.615394
 11
28.639513
 21
383.617329
  0
LINE
  8
CutLine
  6
CONTINUOUS
 62
8
 10
28.639513
 20
383.617329
 11
82.784282
 21
383.638294
  0
LINE
  8
CutLine
  6
CONTINUOUS
 62
8
 10
82.784282
 20
383.638294
 11
89.930121
 21
378.641061
  0
LINE
  8
CutLine
  6
CONTINUOUS
 62
8
 10
105.535423
 20
341.311155
 11
100.425495
 21
336.423555
  0
LINE
  8
CutLine
  6
CONTINUOUS
 62
8
 10
100.425495
 20
336.423555
 11
18.646423
 21
338.242187
  0
LINE
  8
CutLine
  6
CONTINUOUS
 62
8
 10
18.646423
 20
338.242187
 11
13.758823
 21
343.352116
  0
LINE
  8
CutLine
  6
CONTINUOUS
 62
8
 10
155.722690
 20
376.037862
 11
160.488051
 21
381.261974
  0
LINE
  8
CutLine
  6
CONTINUOUS
 62
8
 10
160.488051
 20
381.261974
 11
173.456095
 21
381.857512
  0
LINE
  8
CutLine
  6
CONTINUOUS
 62
8
 10
173.456095
 20
381.857512
 11
178.680207
 21
377.092152
  0
LINE
  8
CutLine
  6
CONTINUOUS
 62
8
 10
89.930121
 20
378.641061
 11
95.040375
 21
383.528321
  0
LINE
  8
CutLine
  6
CONTINUOUS
 62
8
 10
95.040375
 20
383.528321
 11
131.205859
 21
382.721653
  0
LINE
  8
CutLine
  6
CONTINUOUS
 62
8
 10
131.205859
 20
382.721653
 11
136.093119
 21
377.611400
  0
LINE
  8
CutLine
  6
CONTINUOUS
 62
8
 10
288.970627
 20
334.818159
 11
283.650731
 21
330.159972
  0
LINE
  8
CutLine
  6
CONTINUOUS
 62
8
 10
283.650731
 20
330.159972
 11
229.833370
 21
333.728940
  0
LINE
  8
CutLine
  6
CONTINUOUS
 62
8
 10
229.833370
 20
333.728940
 11
225.175183
 21
339.048836
  0
LINE
  8
CutLine
  6
CONTINUOUS
 62
8
 10
244.603751
 20
375.799626
 11
247.089117
 21
382.419517
  0
LINE
  8
CutLine
  6
CONTINUOUS
 62
8
 10
247.089117
 20
382.419517
 11
270.734328
 21
393.156359
  0
LINE
  8
CutLine
  6
CONTINUOUS
 62
8
 10
270.734328
 20
393.156359
 11
277.354219
 21
390.670993
  0
LINE
  8
CutLine
  6
CONTINUOUS
 62
8
 10
318.531393
 20
410.385639
 11
322.615645
 21
404.613388
  0
LINE
  8
CutLine
  6
CONTINUOUS
 62
8
 10
322.615645
 20
404.613388
 11
320.000208
 21
389.341420
  0
LINE
  8
CutLine
  6
CONTINUOUS
 62
8
 10
320.000208
 20
389.341420
 11
314.180025
 21
384.977281
  0
LINE
  8
CutLine
  6
CONTINUOUS
 62
8
 10
210.323481
 20
455.361562
 11
215.085537
 21
460.588685
  0
LINE
  8
CutLine
  6
CONTINUOUS
 62
8
 10
215.085537
 20
460.588685
 11
258.616783
 21
462.615372
  0
LINE
  8
CutLine
  6
CONTINUOUS
 62
8
 10
258.616783
 20
462.615372
 11
263.843907
 21
457.853315
  0
LINE
  8
CutLine
  6
CONTINUOUS
 62
8
 10
198.460720
 20
404.520292
 11
193.486637
 21
399.494509
  0
LINE
  8
CutLine
  6
CONTINUOUS
 62
8
 10
193.486637
 20
399.494509
 11
175.407222
 21
399.401039
  0
LINE
  8
CutLine
  6
CONTINUOUS
 62
8
 10
175.407222
 20
399.401039
 11
170.381439
 21
404.375122
  0
LINE
  8
CutLine
  6
CONTINUOUS
 62
8
 10
171.105566
 20
431.543783
 11
168.101820
 21
437.945151
  0
LINE
  8
CutLine
  6
CONTINUOUS
 62
8
 10
168.101820
 20
437.945151
 11
173.079267
 21
451.723456
  0
LINE
  8
CutLine
  6
CONTINUOUS
 62
8
 10
173.079267
 20
451.723456
 11
179.480635
 21
454.727202
  0
LINE
  8
CutLine
  6
CONTINUOUS
 62
8
 10
245.852323
 20
405.401157
 11
246.880055
 21
398.405175
  0
LINE
  8
CutLine
  6
CONTINUOUS
 62
8
 10
246.880055
 20
398.405175
 11
238.869500
 21
387.635789
  0
LINE
  8
CutLine
  6
CONTINUOUS
 62
8
 10
238.869500
 20
387.635789
 11
231.873518
 21
386.608058
  0
LINE
  8
CutLine
  6
CONTINUOUS
 62
8
 10
240.865970
 20
426.167012
 11
245.561152
 21
420.879737
  0
LINE
  8
CutLine
  6
CONTINUOUS
 62
8
 10
245.561152
 20
420.879737
 11
245.120601
 21
413.452227
  0
LINE
  8
CutLine
  6
CONTINUOUS
 62
8
 10
251.171939
 20
176.530045
 11
251.130284
 21
183.600990
  0
LINE
  8
CutLine
  6
CONTINUOUS
 62
8
 10
251.130284
 20
183.600990
 11
270.454802
 21
203.154542
  0
LINE
  8
CutLine
  6
CONTINUOUS
 62
8
 10
270.454802
 20
203.154542
 11
277.525747
 21
203.196198
  0
LINE
  8
CutLine
  6
CONTINUOUS
 62
8
 10
328.112402
 20
225.520965
 11
333.070859
 21
230.562167
  0
LINE
  8
CutLine
  6
CONTINUOUS
 62
8
 10
333.070859
 20
230.562167
 11
445.597773
 21
231.493302
  0
LINE
  8
CutLine
  6
CONTINUOUS
 62
8
 10
445.597773
 20
231.493302
 11
450.638975
 21
226.534845
  0
LINE
  8
CutLine
  6
CONTINUOUS
 62
8
 10
453.142277
 20
203.886638
 11
448.793495
 21
198.310968
  0
LINE
  8
CutLine
  6
CONTINUOUS
 62
8
 10
448.793495
 20
198.310968
 11
333.475055
 21
184.054982
  0
LINE
  8
CutLine
  6
CONTINUOUS
 62
8
 10
333.475055
 20
184.054982
 11
327.899385
 21
188.403764
  0
LINE
  8
CutLine
  6
CONTINUOUS
 62
8
 10
551.870542
 20
230.683249
 11
556.073162
 21
224.996600
  0
LINE
  8
CutLine
  6
CONTINUOUS
 62
8
 10
556.073162
 20
224.996600
 11
555.343623
 21
220.135097
  0
LINE
  8
CutLine
  6
CONTINUOUS
 62
8
 10
555.343623
 20
220.135097
 11
549.656973
 21
215.932477
  0
LINE
  8
CutLine
  6
CONTINUOUS
 62
8
 10
299.461915
 20
214.439738
 11
299.039058
 21
221.498151
  0
LINE
  8
CutLine
  6
CONTINUOUS
 62
8
 10
299.039058
 20
221.498151
 11
310.437819
 21
234.349709
  0
LINE
  8
CutLine
  6
CONTINUOUS
 62
8
 10
310.437819
 20
234.349709
 11
317.496232
 21
234.772567
  0
LINE
  8
CutLine
  6
CONTINUOUS
 62
8
 10
429.563784
 20
28.960660
 11
423.197757
 21
33.215079
  0
LINE
  8
CutLine
  6
CONTINUOUS
 62
8
 10
423.197757
 20
33.215079
 11
402.196554
 21
109.067191
  0
LINE
  8
CutLine
  6
CONTINUOUS
 62
8
 10
402.196554
 20
109.067191
 11
405.681109
 21
115.220066
  0
LINE
  8
CutLine
  6
CONTINUOUS
 62
8
 10
527.430443
 20
171.571667
 11
529.403521
 21
164.781456
  0
LINE
  8
CutLine
  6
CONTINUOUS
 62
8
 10
529.403521
 20
164.781456
 11
492.357386
 21
97.387419
  0
LINE
  8
CutLine
  6
CONTINUOUS
 62
8
 10
492.357386
 20
97.387419
 11
485.567175
 21
95.414341
  0
LINE
  8
CutLine
  6
CONTINUOUS
 62
8
 10
393.848156
 20
130.131403
 11
392.621231
 21
137.095214
  0
LINE
  8
CutLine
  6
CONTINUOUS
 62
8
 10
392.621231
 20
137.095214
 11
415.553530
 21
169.836389
  0
LINE
  8
CutLine
  6
CONTINUOUS
 62
8
 10
415.553530
 20
169.836389
 11
422.517341
 21
171.063313
  0
LINE
  8
CutLine
  6
CONTINUOUS
 62
8
 10
464.855112
 20
169.963091
 11
466.416499
 21
177.816506
  0
LINE
  8
CutLine
  6
CONTINUOUS
 62
8
 10
466.416499
 20
177.816506
 11
496.251226
 21
202.952063
  0
LINE
  8
CutLine
  6
CONTINUOUS
 62
8
 10
496.251226
 20
202.952063
 11
503.296598
 21
202.349785
  0
LINE
  8
CutLine
  6
CONTINUOUS
 62
8
 10
503.296598
 20
202.349785
 11
510.316464
 21
201.500391
  0
LINE
  8
CutLine
  6
CONTINUOUS
 62
8
 10
510.316464
 20
201.500391
 11
528.279837
 21
178.591534
  0
LINE
  8
CutLine
  6
CONTINUOUS
 62
8
 10
528.279837
 20
178.591534
 11
527.430443
 21
171.571667
  0
LINE
  8
CutLine
  6
CONTINUOUS
 62
8
 10
597.949693
 20
437.584852
 11
506.197498
 21
440.525010
  0
LINE
  8
CutLine
  6
CONTINUOUS
 62
8
 10
507.373553
 20
405.736930
 11
604.266174
 21
397.251138
  0
LINE
  8
CutLine
  6
CONTINUOUS
 62
8
 10
604.266174
 20
397.251138
 11
597.949693
 21
437.584852
  0
LINE
  8
ValleyLine
  6
CONTINUOUS
 62
1
 10
386.604073
 20
444.550286
 11
322.934896
 21
450.380659
  0
LINE
  8
CutLine
  6
CONTINUOUS
 62
8
 10
322.934896
 20
450.380659
 11
315.197005
 21
432.986342
  0
LINE
  8
CutLine
  6
CONTINUOUS
 62
8
 10
315.197005
 20
432.986342
 11
371.030189
 21
414.881217
  0
LINE
  8
CutLine
  6
CONTINUOUS
 62
8
 10
371.030189
 20
414.881217
 11
381.724392
 21
417.475321
  0
LINE
  8
MountainLine
  6
CONTINUOUS
 62
5
 10
381.724392
 20
417.475321
 11
507.373553
 21
405.736930
  0
LINE
  8
CutLine
  6
CONTINUOUS
 62
8
 10
506.197498
 20
440.525010
 11
386.604073
 21
444.550286
  0
LINE
  8
MountainLine
  6
CONTINUOUS
 62
5
 10
609.625065
 20
195.675469
 11
592.861285
 21
210.748525
  0
LINE
  8
CutLine
  6
CONTINUOUS
 62
8
 10
592.861285
 20
210.748525
 11
539.000123
 21
190.328709
  0
LINE
  8
MountainLine
  6
CONTINUOUS
 62
5
 10
539.000123
 20
190.328709
 11
565.226602
 21
164.768253
  0
LINE
  8
ValleyLine
  6
CONTINUOUS
 62
1
 10
565.226602
 20
164.768253
 11
609.625065
 21
195.675469
  0
LINE
  8
MountainLine
  6
CONTINUOUS
 62
5
 10
609.625065
 20
195.675469
 11
641.419773
 21
231.365264
  0
LINE
  8
MountainLine
  6
CONTINUOUS
 62
5
 10
641.419773
 20
231.365264
 11
651.797818
 21
240.638465
  0
LINE
  8
ValleyLine
  6
CONTINUOUS
 62
1
 10
651.797818
 20
240.638465
 11
592.861285
 21
210.748525
  0
LINE
  8
ValleyLine
  6
CONTINUOUS
 62
1
 10
652.339058
 20
198.358480
 11
641.419773
 21
231.365264
  0
LINE
  8
CutLine
  6
CONTINUOUS
 62
8
 10
609.625065
 20
195.675469
 11
652.339058
 21
198.358480
  0
LINE
  8
ValleyLine
  6
CONTINUOUS
 62
1
 10
437.955320
 20
246.826797
 11
529.743470
 21
245.396655
  0
LINE
  8
CutLine
  6
CONTINUOUS
 62
8
 10
529.743470
 20
245.396655
 11
521.201049
 21
281.008340
  0
LINE
  8
ValleyLine
  6
CONTINUOUS
 62
1
 10
521.201049
 20
281.008340
 11
454.960735
 21
283.540053
  0
LINE
  8
CutLine
  6
CONTINUOUS
 62
8
 10
389.116785
 20
283.426025
 11
366.215538
 21
285.347477
  0
LINE
  8
ValleyLine
  6
CONTINUOUS
 62
1
 10
366.215538
 20
285.347477
 11
300.290256
 21
286.548137
  0
LINE
  8
CutLine
  6
CONTINUOUS
 62
8
 10
454.960735
 20
283.540053
 11
408.791812
 21
284.256335
  0
LINE
  8
ValleyLine
  6
CONTINUOUS
 62
1
 10
408.791812
 20
284.256335
 11
389.116785
 21
283.426025
  0
LINE
  8
ValleyLine
  6
CONTINUOUS
 62
1
 10
318.315560
 20
249.089116
 11
437.955320
 21
246.826797
  0
LINE
  8
CutLine
  6
CONTINUOUS
 62
8
 10
254.405780
 20
247.273271
 11
318.315560
 21
249.089116
  0
LINE
  8
CutLine
  6
CONTINUOUS
 62
8
 10
300.290256
 20
286.548137
 11
268.125418
 21
302.647015
  0
LINE
  8
MountainLine
  6
CONTINUOUS
 62
5
 10
268.125418
 20
302.647015
 11
254.405780
 21
247.273271
  0
LINE
  8
ValleyLine
  6
CONTINUOUS
 62
1
 10
268.125418
 20
302.647015
 11
227.722999
 21
323.904283
  0
LINE
  8
CutLine
  6
CONTINUOUS
 62
8
 10
227.722999
 20
323.904283
 11
231.110685
 21
298.349584
  0
LINE
  8
ValleyLine
  6
CONTINUOUS
 62
1
 10
231.110685
 20
298.349584
 11
254.405780
 21
247.273271
  0
LINE
  8
ValleyLine
  6
CONTINUOUS
 62
1
 10
110.119314
 20
459.772182
 11
56.634145
 21
462.931528
  0
LINE
  8
MountainLine
  6
CONTINUOUS
 62
5
 10
56.634145
 20
462.931528
 11
79.214935
 21
430.960990
  0
LINE
  8
ValleyLine
  6
CONTINUOUS
 62
1
 10
79.214935
 20
430.960990
 11
110.119314
 21
459.772182
  0
LINE
  8
ValleyLine
  6
CONTINUOUS
 62
1
 10
79.214935
 20
430.960990
 11
121.480017
 21
409.041855
  0
LINE
  8
ValleyLine
  6
CONTINUOUS
 62
1
 10
121.480017
 20
409.041855
 11
149.557922
 21
408.728218
  0
LINE
  8
ValleyLine
  6
CONTINUOUS
 62
1
 10
149.557922
 20
408.728218
 11
149.307409
 21
435.905373
  0
LINE
  8
CutLine
  6
CONTINUOUS
 62
8
 10
149.307409
 20
435.905373
 11
140.961342
 21
459.099248
  0
LINE
  8
CutLine
  6
CONTINUOUS
 62
8
 10
140.961342
 20
459.099248
 11
110.119314
 21
459.772182
  0
LINE
  8
CutLine
  6
CONTINUOUS
 62
8
 10
79.214935
 20
430.960990
 11
70.288919
 21
415.977682
  0
LINE
  8
MountainLine
  6
CONTINUOUS
 62
5
 10
70.288919
 20
415.977682
 11
74.420594
 21
410.462287
  0
LINE
  8
MountainLine
  6
CONTINUOUS
 62
5
 10
74.420594
 20
410.462287
 11
87.952652
 21
391.344992
  0
LINE
  8
CutLine
  6
CONTINUOUS
 62
8
 10
87.952652
 20
391.344992
 11
121.480017
 21
409.041855
  0
LINE
  8
ValleyLine
  6
CONTINUOUS
 62
1
 10
577.971328
 20
316.671078
 11
556.141575
 21
328.119859
  0
LINE
  8
ValleyLine
  6
CONTINUOUS
 62
1
 10
556.141575
 20
328.119859
 11
538.676983
 21
301.403734
  0
LINE
  8
CutLine
  6
CONTINUOUS
 62
8
 10
538.676983
 20
301.403734
 11
576.593485
 21
288.212310
  0
LINE
  8
MountainLine
  6
CONTINUOUS
 62
5
 10
576.593485
 20
288.212310
 11
604.346683
 21
290.026237
  0
LINE
  8
ValleyLine
  6
CONTINUOUS
 62
1
 10
604.346683
 20
290.026237
 11
577.971328
 21
316.671078
  0
LINE
  8
MountainLine
  6
CONTINUOUS
 62
5
 10
527.694355
 20
302.094540
 11
538.676983
 21
301.403734
  0
LINE
  8
ValleyLine
  6
CONTINUOUS
 62
1
 10
556.141575
 20
328.119859
 11
527.495242
 21
339.211818
  0
LINE
  8
ValleyLine
  6
CONTINUOUS
 62
1
 10
527.495242
 20
339.211818
 11
527.694355
 21
302.094540
  0
LINE
  8
CutLine
  6
CONTINUOUS
 62
8
 10
402.457271
 20
317.624331
 11
527.694355
 21
302.094540
  0
LINE
  8
CutLine
  6
CONTINUOUS
 62
8
 10
527.495242
 20
339.211818
 11
404.969058
 21
340.271599
  0
LINE
  8
ValleyLine
  6
CONTINUOUS
 62
1
 10
404.969058
 20
340.271599
 11
303.739052
 21
344.457926
  0
LINE
  8
CutLine
  6
CONTINUOUS
 62
8
 10
303.739052
 20
344.457926
 11
305.947094
 21
329.706325
  0
LINE
  8
MountainLine
  6
CONTINUOUS
 62
5
 10
305.947094
 20
329.706325
 11
402.457271
 21
317.624331
  0
LINE
  8
CutLine
  6
CONTINUOUS
 62
8
 10
556.141575
 20
328.119859
 11
538.114877
 21
348.459442
  0
LINE
  8
ValleyLine
  6
CONTINUOUS
 62
1
 10
538.114877
 20
348.459442
 11
527.495242
 21
339.211818
  0
LINE
  8
CutLine
  6
CONTINUOUS
 62
8
 10
576.593485
 20
288.212310
 11
608.503613
 21
271.865641
  0
LINE
  8
ValleyLine
  6
CONTINUOUS
 62
1
 10
608.503613
 20
271.865641
 11
604.346683
 21
290.026237
  0
LINE
  8
MountainLine
  6
CONTINUOUS
 62
5
 10
388.169705
 20
32.269692
 11
361.685394
 21
117.766175
  0
LINE
  8
ValleyLine
  6
CONTINUOUS
 62
1
 10
361.685394
 20
117.766175
 11
305.146987
 21
57.954314
  0
LINE
  8
CutLine
  6
CONTINUOUS
 62
8
 10
305.146987
 20
57.954314
 11
388.169705
 21
32.269692
  0
LINE
  8
ValleyLine
  6
CONTINUOUS
 62
1
 10
305.146987
 20
57.954314
 11
282.318574
 21
131.882450
  0
LINE
  8
MountainLine
  6
CONTINUOUS
 62
5
 10
282.318574
 20
131.882450
 11
228.784541
 21
99.442245
  0
LINE
  8
ValleyLine
  6
CONTINUOUS
 62
1
 10
228.784541
 20
99.442245
 11
305.146987
 21
57.954314
  0
LINE
  8
ValleyLine
  6
CONTINUOUS
 62
1
 10
317.357160
 20
155.673095
 11
305.146987
 21
57.954314
  0
LINE
  8
CutLine
  6
CONTINUOUS
 62
8
 10
361.685394
 20
117.766175
 11
363.591449
 21
136.706442
  0
LINE
  8
CutLine
  6
CONTINUOUS
 62
8
 10
363.591449
 20
136.706442
 11
317.357160
 21
155.673095
  0
LINE
  8
MountainLine
  6
CONTINUOUS
 62
5
 10
317.357160
 20
155.673095
 11
282.318574
 21
131.882450
  0
LINE
  8
CutLine
  6
CONTINUOUS
 62
8
 10
282.318574
 20
131.882450
 11
232.474492
 21
138.379621
  0
LINE
  8
CutLine
  6
CONTINUOUS
 62
8
 10
232.474492
 20
138.379621
 11
228.784541
 21
99.442245
  0
LINE
  8
CutLine
  6
CONTINUOUS
 62
8
 10
247.814026
 20
193.783811
 11
261.656737
 21
228.626117
  0
LINE
  8
ValleyLine
  6
CONTINUOUS
 62
1
 10
261.656737
 20
228.626117
 11
230.842822
 21
230.104706
  0
LINE
  8
CutLine
  6
CONTINUOUS
 62
8
 10
230.842822
 20
230.104706
 11
177.283067
 21
231.518015
  0
LINE
  8
ValleyLine
  6
CONTINUOUS
 62
1
 10
177.283067
 20
231.518015
 11
209.079615
 21
149.149547
  0
LINE
  8
ValleyLine
  6
CONTINUOUS
 62
1
 10
209.079615
 20
149.149547
 11
247.814026
 21
193.783811
  0
LINE
  8
CutLine
  6
CONTINUOUS
 62
8
 10
177.283067
 20
231.518015
 11
138.565450
 21
194.483020
  0
LINE
  8
ValleyLine
  6
CONTINUOUS
 62
1
 10
138.565450
 20
194.483020
 11
116.737648
 21
172.683236
  0
LINE
  8
CutLine
  6
CONTINUOUS
 62
8
 10
116.737648
 20
172.683236
 11
150.401256
 21
156.179650
  0
LINE
  8
CutLine
  6
CONTINUOUS
 62
8
 10
150.401256
 20
156.179650
 11
209.079615
 21
149.149547
  0
LINE
  8
ValleyLine
  6
CONTINUOUS
 62
1
 10
115.818536
 20
194.124698
 11
101.109066
 21
233.629292
  0
LINE
  8
ValleyLine
  6
CONTINUOUS
 62
1
 10
101.109066
 20
233.629292
 11
51.967551
 21
182.328477
  0
LINE
  8
CutLine
  6
CONTINUOUS
 62
8
 10
51.967551
 20
182.328477
 11
59.795763
 21
173.767013
  0
LINE
  8
ValleyLine
  6
CONTINUOUS
 62
1
 10
59.795763
 20
173.767013
 11
69.263288
 21
157.721662
  0
LINE
  8
CutLine
  6
CONTINUOUS
 62
8
 10
69.263288
 20
157.721662
 11
115.818536
 21
194.124698
  0
LINE
  8
CutLine
  6
CONTINUOUS
 62
8
 10
101.109066
 20
233.629292
 11
84.331486
 21
263.898065
  0
LINE
  8
ValleyLine
  6
CONTINUOUS
 62
1
 10
84.331486
 20
263.898065
 11
20.997961
 21
221.861442
  0
LINE
  8
ValleyLine
  6
CONTINUOUS
 62
1
 10
20.997961
 20
221.861442
 11
8.998118
 21
167.021174
  0
LINE
  8
CutLine
  6
CONTINUOUS
 62
8
 10
8.998118
 20
167.021174
 11
27.531527
 21
162.668021
  0
LINE
  8
CutLine
  6
CONTINUOUS
 62
8
 10
27.531527
 20
162.668021
 11
51.967551
 21
182.328477
  0
LINE
  8
ValleyLine
  6
CONTINUOUS
 62
1
 10
26.800344
 20
246.978197
 11
84.331486
 21
263.898065
  0
LINE
  8
ValleyLine
  6
CONTINUOUS
 62
1
 10
84.331486
 20
263.898065
 11
45.958340
 21
303.604104
  0
LINE
  8
ValleyLine
  6
CONTINUOUS
 62
1
 10
45.958340
 20
303.604104
 11
26.800344
 21
246.978197
  0
LINE
  8
CutLine
  6
CONTINUOUS
 62
8
 10
26.800344
 20
246.978197
 11
20.997961
 21
221.861442
  0
LINE
  8
CutLine
  6
CONTINUOUS
 62
8
 10
190.784751
 20
275.217628
 11
177.161613
 21
287.925791
  0
LINE
  8
CutLine
  6
CONTINUOUS
 62
8
 10
177.161613
 20
287.925791
 11
166.950271
 21
293.431066
  0
LINE
  8
ValleyLine
  6
CONTINUOUS
 62
1
 10
166.950271
 20
293.431066
 11
113.996751
 21
246.075107
  0
LINE
  8
CutLine
  6
CONTINUOUS
 62
8
 10
113.996751
 20
246.075107
 11
152.905604
 21
229.855283
  0
LINE
  8
ValleyLine
  6
CONTINUOUS
 62
1
 10
152.905604
 20
229.855283
 11
190.784751
 21
275.217628
  0
LINE
  8
ValleyLine
  6
CONTINUOUS
 62
1
 10
187.435977
 20
317.179510
 11
183.728370
 21
335.852776
  0
LINE
  8
CutLine
  6
CONTINUOUS
 62
8
 10
183.728370
 20
335.852776
 11
128.505323
 21
325.759888
  0
LINE
  8
ValleyLine
  6
CONTINUOUS
 62
1
 10
128.505323
 20
325.759888
 11
84.331486
 21
263.898065
  0
LINE
  8
ValleyLine
  6
CONTINUOUS
 62
1
 10
84.331486
 20
263.898065
 11
113.996751
 21
246.075107
  0
LINE
  8
CutLine
  6
CONTINUOUS
 62
8
 10
166.950271
 20
293.431066
 11
187.435977
 21
317.179510
  0
LINE
  8
ValleyLine
  6
CONTINUOUS
 62
1
 10
84.331486
 20
263.898065
 11
103.205155
 21
320.818175
  0
LINE
  8
CutLine
  6
CONTINUOUS
 62
8
 10
103.205155
 20
320.818175
 11
45.958340
 21
303.604104
  0
LINE
  8
ValleyLine
  6
CONTINUOUS
 62
1
 10
128.505323
 20
325.759888
 11
103.205155
 21
320.818175
  0
LINE
  8
MountainLine
  6
CONTINUOUS
 62
5
 10
590.374014
 20
32.777337
 11
617.984724
 21
60.520012
  0
LINE
  8
ValleyLine
  6
CONTINUOUS
 62
1
 10
617.984724
 20
60.520012
 11
612.145237
 21
76.246598
  0
LINE
  8
CutLine
  6
CONTINUOUS
 62
8
 10
612.145237
 20
76.246598
 11
568.608360
 21
89.388980
  0
LINE
  8
ValleyLine
  6
CONTINUOUS
 62
1
 10
568.608360
 20
89.388980
 11
590.374014
 21
32.777337
  0
LINE
  8
ValleyLine
  6
CONTINUOUS
 62
1
 10
568.608360
 20
89.388980
 11
545.089428
 21
50.465443
  0
LINE
  8
ValleyLine
  6
CONTINUOUS
 62
1
 10
545.089428
 20
50.465443
 11
551.289533
 21
34.877505
  0
LINE
  8
CutLine
  6
CONTINUOUS
 62
8
 10
551.289533
 20
34.877505
 11
590.374014
 21
32.777337
  0
LINE
  8
CutLine
  6
CONTINUOUS
 62
8
 10
532.010734
 20
106.098023
 11
531.660314
 21
83.911474
  0
LINE
  8
ValleyLine
  6
CONTINUOUS
 62
1
 10
568.608360
 20
89.388980
 11
532.010734
 21
106.098023
  0
LINE
  8
MountainLine
  6
CONTINUOUS
 62
5
 10
531.660314
 20
83.911474
 11
538.432459
 21
62.780837
  0
LINE
  8
ValleyLine
  6
CONTINUOUS
 62
1
 10
538.432459
 20
62.780837
 11
568.608360
 21
89.388980
  0
LINE
  8
ValleyLine
  6
CONTINUOUS
 62
1
 10
568.608360
 20
89.388980
 11
532.311897
 21
116.788773
  0
LINE
  8
CutLine
  6
CONTINUOUS
 62
8
 10
532.311897
 20
116.788773
 11
515.177850
 21
118.135246
  0
LINE
  8
MountainLine
  6
CONTINUOUS
 62
5
 10
515.177850
 20
118.135246
 11
514.687026
 21
111.261425
  0
LINE
  8
MountainLine
  6
CONTINUOUS
 62
5
 10
514.687026
 20
111.261425
 11
532.010734
 21
106.098023
  0
LINE
  8
CutLine
  6
CONTINUOUS
 62
8
 10
526.672290
 20
49.052398
 11
529.680661
 21
42.852397
  0
LINE
  8
ValleyLine
  6
CONTINUOUS
 62
1
 10
529.680661
 20
42.852397
 11
545.089428
 21
50.465443
  0
LINE
  8
CutLine
  6
CONTINUOUS
 62
8
 10
538.432459
 20
62.780837
 11
526.672290
 21
49.052398
  0
LINE
  8
MountainLine
  6
CONTINUOUS
 62
5
 10
534.020499
 20
37.317539
 11
551.289533
 21
34.877505
  0
LINE
  8
CutLine
  6
CONTINUOUS
 62
8
 10
545.089428
 20
50.465443
 11
534.020499
 21
37.317539
  0
LINE
  8
CutLine
  6
CONTINUOUS
 62
8
 10
617.984724
 20
60.520012
 11
629.171219
 21
73.900431
  0
LINE
  8
ValleyLine
  6
CONTINUOUS
 62
1
 10
629.171219
 20
73.900431
 11
612.145237
 21
76.246598
  0
LINE
  8
MountainLine
  6
CONTINUOUS
 62
5
 10
207.691995
 20
110.511491
 11
208.047203
 21
74.009763
  0
LINE
  8
MountainLine
  6
CONTINUOUS
 62
5
 10
208.047203
 20
74.009763
 11
216.080582
 21
109.912145
  0
LINE
  8
CutLine
  6
CONTINUOUS
 62
8
 10
216.080582
 20
109.912145
 11
207.691995
 21
110.511491
  0
LINE
  8
ValleyLine
  6
CONTINUOUS
 62
1
 10
168.562445
 20
102.213084
 11
183.783563
 21
84.037011
  0
LINE
  8
CutLine
  6
CONTINUOUS
 62
8
 10
191.981704
 20
117.885962
 11
177.451821
 21
126.538573
  0
LINE
  8
ValleyLine
  6
CONTINUOUS
 62
1
 10
177.451821
 20
126.538573
 11
168.562445
 21
102.213084
  0
LINE
  8
ValleyLine
  6
CONTINUOUS
 62
1
 10
207.691995
 20
110.511491
 11
191.981704
 21
117.885962
  0
LINE
  8
ValleyLine
  6
CONTINUOUS
 62
1
 10
183.973301
 20
84.195903
 11
198.459122
 21
49.050250
  0
LINE
  8
CutLine
  6
CONTINUOUS
 62
8
 10
198.459122
 20
49.050250
 11
208.047203
 21
74.009763
  0
LINE
  8
ValleyLine
  6
CONTINUOUS
 62
1
 10
177.451821
 20
126.538573
 11
128.342751
 21
149.118598
  0
LINE
  8
ValleyLine
  6
CONTINUOUS
 62
1
 10
128.342751
 20
149.118598
 11
168.562445
 21
102.213084
  0
LINE
  8
ValleyLine
  6
CONTINUOUS
 62
1
 10
128.342751
 20
149.118598
 11
153.572482
 21
101.791574
  0
LINE
  8
ValleyLine
  6
CONTINUOUS
 62
1
 10
153.572482
 20
101.791574
 11
168.562445
 21
102.213084
  0
LINE
  8
ValleyLine
  6
CONTINUOUS
 62
1
 10
153.572482
 20
101.791574
 11
164.977810
 21
75.570176
  0
LINE
  8
ValleyLine
  6
CONTINUOUS
 62
1
 10
164.977810
 20
75.570176
 11
196.729389
 21
48.205821
  0
LINE
  8
CutLine
  6
CONTINUOUS
 62
8
 10
196.729389
 20
48.205821
 11
183.783563
 21
84.037011
  0
LINE
  8
MountainLine
  6
CONTINUOUS
 62
5
 10
39.381119
 20
79.338151
 11
42.094147
 21
115.740649
  0
LINE
  8
ValleyLine
  6
CONTINUOUS
 62
1
 10
42.094147
 20
115.740649
 11
33.684363
 21
115.684585
  0
LINE
  8
CutLine
  6
CONTINUOUS
 62
8
 10
33.684363
 20
115.684585
 11
39.381119
 21
79.338151
  0
LINE
  8
ValleyLine
  6
CONTINUOUS
 62
1
 10
64.200657
 20
87.895177
 11
80.561394
 21
105.052625
  0
LINE
  8
ValleyLine
  6
CONTINUOUS
 62
1
 10
80.561394
 20
105.052625
 11
73.258703
 21
129.900585
  0
LINE
  8
ValleyLine
  6
CONTINUOUS
 62
1
 10
73.258703
 20
129.900585
 11
58.201235
 21
122.202673
  0
LINE
  8
CutLine
  6
CONTINUOUS
 62
8
 10
58.201235
 20
122.202673
 11
42.094147
 21
115.740649
  0
LINE
  8
MountainLine
  6
CONTINUOUS
 62
5
 10
39.381119
 20
79.338151
 11
47.459435
 21
53.849931
  0
LINE
  8
CutLine
  6
CONTINUOUS
 62
8
 10
47.459435
 20
53.849931
 11
64.021078
 21
88.066417
  0
LINE
  8
ValleyLine
  6
CONTINUOUS
 62
1
 10
80.561394
 20
105.052625
 11
123.721288
 21
149.267719
  0
LINE
  8
CutLine
  6
CONTINUOUS
 62
8
 10
123.721288
 20
149.267719
 11
73.258703
 21
129.900585
  0
LINE
  8
ValleyLine
  6
CONTINUOUS
 62
1
 10
95.493001
 20
103.665632
 11
123.721288
 21
149.267719
  0
LINE
  8
ValleyLine
  6
CONTINUOUS
 62
1
 10
80.561394
 20
105.052625
 11
95.493001
 21
103.665632
  0
LINE
  8
ValleyLine
  6
CONTINUOUS
 62
1
 10
64.200657
 20
87.895177
 11
48.972841
 21
52.972417
  0
LINE
  8
CutLine
  6
CONTINUOUS
 62
8
 10
48.972841
 20
52.972417
 11
82.421502
 21
78.233779
  0
LINE
  8
ValleyLine
  6
CONTINUOUS
 62
1
 10
82.421502
 20
78.233779
 11
95.493001
 21
103.665632
  0
LINE
  8
MountainLine
  6
CONTINUOUS
 62
5
 10
122.600119
 20
42.834135
 11
144.706737
 21
44.748080
  0
LINE
  8
ValleyLine
  6
CONTINUOUS
 62
1
 10
144.706737
 20
44.748080
 11
123.673960
 21
76.113840
  0
LINE
  8
MountainLine
  6
CONTINUOUS
 62
5
 10
123.673960
 20
76.113840
 11
122.600119
 21
42.834135
  0
LINE
  8
CutLine
  6
CONTINUOUS
 62
8
 10
100.662873
 20
46.169249
 11
122.600119
 21
42.834135
  0
LINE
  8
ValleyLine
  6
CONTINUOUS
 62
1
 10
123.673960
 20
76.113840
 11
100.662873
 21
46.169249
  0
LINE
  8
ValleyLine
  6
CONTINUOUS
 62
1
 10
144.706737
 20
44.748080
 11
164.977810
 21
75.570176
  0
LINE
  8
MountainLine
  6
CONTINUOUS
 62
5
 10
153.572482
 20
101.791574
 11
123.673960
 21
76.113840
  0
LINE
  8
ValleyLine
  6
CONTINUOUS
 62
1
 10
125.514138
 20
110.586168
 11
123.673960
 21
76.113840
  0
LINE
  8
CutLine
  6
CONTINUOUS
 62
8
 10
128.342751
 20
149.118598
 11
125.514138
 21
110.586168
  0
LINE
  8
CutLine
  6
CONTINUOUS
 62
8
 10
159.397521
 20
34.214683
 11
182.581842
 21
37.542574
  0
LINE
  8
CutLine
  6
CONTINUOUS
 62
8
 10
182.581842
 20
37.542574
 11
164.954611
 21
75.560085
  0
LINE
  8
CutLine
  6
CONTINUOUS
 62
8
 10
144.706737
 20
44.748080
 11
159.397521
 21
34.214683
  0
LINE
  8
MountainLine
  6
CONTINUOUS
 62
5
 10
123.673960
 20
76.113840
 11
95.493001
 21
103.665632
  0
LINE
  8
ValleyLine
  6
CONTINUOUS
 62
1
 10
82.421502
 20
78.233779
 11
100.662873
 21
46.169249
  0
LINE
  8
CutLine
  6
CONTINUOUS
 62
8
 10
123.673960
 20
76.113840
 11
124.059941
 21
110.633091
  0
LINE
  8
ValleyLine
  6
CONTINUOUS
 62
1
 10
124.059941
 20
110.633091
 11
123.721288
 21
149.267719
  0
LINE
  8
CutLine
  6
CONTINUOUS
 62
8
 10
62.402037
 20
41.420431
 11
85.323590
 21
36.604836
  0
LINE
  8
ValleyLine
  6
CONTINUOUS
 62
1
 10
82.443480
 20
78.222483
 11
62.402037
 21
41.420431
  0
LINE
  8
MountainLine
  6
CONTINUOUS
 62
5
 10
85.323590
 20
36.604836
 11
100.662873
 21
46.169249
  0
LINE
  8
ValleyLine
  6
CONTINUOUS
 62
1
 10
350.449856
 20
400.987622
 11
339.662699
 21
361.613218
  0
LINE
  8
MountainLine
  6
CONTINUOUS
 62
5
 10
339.662699
 20
361.613218
 11
436.896528
 21
359.210829
  0
LINE
  8
CutLine
  6
CONTINUOUS
 62
8
 10
441.955362
 20
393.649206
 11
350.449856
 21
400.987622
  0
LINE
  8
CutLine
  6
CONTINUOUS
 62
8
 10
625.170640
 20
382.949813
 11
561.248819
 21
384.275775
  0
LINE
  8
MountainLine
  6
CONTINUOUS
 62
5
 10
563.070253
 20
356.824957
 11
573.409174
 21
353.056394
  0
LINE
  8
CutLine
  6
CONTINUOUS
 62
8
 10
573.409174
 20
353.056394
 11
630.917639
 21
364.800179
  0
LINE
  8
ValleyLine
  6
CONTINUOUS
 62
1
 10
630.917639
 20
364.800179
 11
625.170640
 21
382.949813
  0
LINE
  8
ValleyLine
  6
CONTINUOUS
 62
1
 10
561.248819
 20
384.275775
 11
441.955362
 21
393.649206
  0
LINE
  8
CutLine
  6
CONTINUOUS
 62
8
 10
436.896528
 20
359.210829
 11
563.070253
 21
356.824957
  0
LINE
  8
ValleyLine
  6
CONTINUOUS
 62
1
 10
89.930121
 20
378.641061
 11
23.641449
 21
378.615394
  0
LINE
  8
CutLine
  6
CONTINUOUS
 62
8
 10
23.641449
 20
378.615394
 11
13.758823
 21
343.352116
  0
LINE
  8
ValleyLine
  6
CONTINUOUS
 62
1
 10
13.758823
 20
343.352116
 11
105.535423
 21
341.311155
  0
LINE
  8
CutLine
  6
CONTINUOUS
 62
8
 10
244.603751
 20
375.799626
 11
178.680207
 21
377.092152
  0
LINE
  8
ValleyLine
  6
CONTINUOUS
 62
1
 10
178.680207
 20
377.092152
 11
155.722690
 21
376.037862
  0
LINE
  8
CutLine
  6
CONTINUOUS
 62
8
 10
155.722690
 20
376.037862
 11
136.093119
 21
377.611400
  0
LINE
  8
ValleyLine
  6
CONTINUOUS
 62
1
 10
136.093119
 20
377.611400
 11
89.930121
 21
378.641061
  0
LINE
  8
CutLine
  6
CONTINUOUS
 62
8
 10
105.535423
 20
341.311155
 11
225.175183
 21
339.048836
  0
LINE
  8
ValleyLine
  6
CONTINUOUS
 62
1
 10
225.175183
 20
339.048836
 11
288.970627
 21
334.818159
  0
LINE
  8
MountainLine
  6
CONTINUOUS
 62
5
 10
288.970627
 20
334.818159
 11
277.354219
 21
390.670993
  0
LINE
  8
ValleyLine
  6
CONTINUOUS
 62
1
 10
277.354219
 20
390.670993
 11
244.603751
 21
375.799626
  0
LINE
  8
ValleyLine
  6
CONTINUOUS
 62
1
 10
314.180025
 20
384.977281
 11
318.531393
 21
410.385639
  0
LINE
  8
CutLine
  6
CONTINUOUS
 62
8
 10
318.531393
 20
410.385639
 11
277.354219
 21
390.670993
  0
LINE
  8
CutLine
  6
CONTINUOUS
 62
8
 10
288.970627
 20
334.818159
 11
314.180025
 21
384.977281
  0
LINE
  8
ValleyLine
  6
CONTINUOUS
 62
1
 10
263.843907
 20
457.853315
 11
210.323481
 21
455.361562
  0
LINE
  8
CutLine
  6
CONTINUOUS
 62
8
 10
240.865970
 20
426.167012
 11
263.843907
 21
457.853315
  0
LINE
  8
CutLine
  6
CONTINUOUS
 62
8
 10
171.105566
 20
431.543783
 11
170.381439
 21
404.375122
  0
LINE
  8
ValleyLine
  6
CONTINUOUS
 62
1
 10
170.381439
 20
404.375122
 11
198.460720
 21
404.520292
  0
LINE
  8
ValleyLine
  6
CONTINUOUS
 62
1
 10
198.460720
 20
404.520292
 11
240.865970
 21
426.167012
  0
LINE
  8
CutLine
  6
CONTINUOUS
 62
8
 10
210.323481
 20
455.361562
 11
179.480635
 21
454.727202
  0
LINE
  8
ValleyLine
  6
CONTINUOUS
 62
1
 10
179.480635
 20
454.727202
 11
171.105566
 21
431.543783
  0
LINE
  8
MountainLine
  6
CONTINUOUS
 62
5
 10
231.873518
 20
386.608058
 11
245.852323
 21
405.401157
  0
LINE
  8
CutLine
  6
CONTINUOUS
 62
8
 10
245.852323
 20
405.401157
 11
239.833326
 21
408.757045
  0
LINE
  8
MountainLine
  6
CONTINUOUS
 62
5
 10
239.833326
 20
408.757045
 11
240.865970
 21
426.167012
  0
LINE
  8
CutLine
  6
CONTINUOUS
 62
8
 10
198.460720
 20
404.520292
 11
231.873518
 21
386.608058
  0
LINE
  8
CutLine
  6
CONTINUOUS
 62
8
 10
278.926594
 20
174.738552
 11
316.916498
 21
187.717072
  0
LINE
  8
ValleyLine
  6
CONTINUOUS
 62
1
 10
316.916498
 20
187.717072
 11
299.461915
 21
214.439738
  0
LINE
  8
CutLine
  6
CONTINUOUS
 62
8
 10
299.461915
 20
214.439738
 11
277.525747
 21
203.196198
  0
LINE
  8
ValleyLine
  6
CONTINUOUS
 62
1
 10
277.525747
 20
203.196198
 11
251.171939
 21
176.530045
  0
LINE
  8
MountainLine
  6
CONTINUOUS
 62
5
 10
251.171939
 20
176.530045
 11
278.926594
 21
174.738552
  0
LINE
  8
CutLine
  6
CONTINUOUS
 62
8
 10
316.916498
 20
187.717072
 11
327.899385
 21
188.403764
  0
LINE
  8
ValleyLine
  6
CONTINUOUS
 62
1
 10
327.899385
 20
188.403764
 11
328.112402
 21
225.520965
  0
LINE
  8
ValleyLine
  6
CONTINUOUS
 62
1
 10
328.112402
 20
225.520965
 11
299.461915
 21
214.439738
  0
LINE
  8
ValleyLine
  6
CONTINUOUS
 62
1
 10
450.638975
 20
226.534845
 11
328.112402
 21
225.520965
  0
LINE
  8
MountainLine
  6
CONTINUOUS
 62
5
 10
327.899385
 20
188.403764
 11
453.142277
 21
203.886638
  0
LINE
  8
CutLine
  6
CONTINUOUS
 62
8
 10
453.142277
 20
203.886638
 11
549.656973
 21
215.932477
  0
LINE
  8
MountainLine
  6
CONTINUOUS
 62
5
 10
549.656973
 20
215.932477
 11
551.870542
 21
230.683249
  0
LINE
  8
CutLine
  6
CONTINUOUS
 62
8
 10
551.870542
 20
230.683249
 11
450.638975
 21
226.534845
  0
LINE
  8
ValleyLine
  6
CONTINUOUS
 62
1
 10
317.496232
 20
234.772567
 11
299.461915
 21
214.439738
  0
LINE
  8
CutLine
  6
CONTINUOUS
 62
8
 10
328.112402
 20
225.520965
 11
317.496232
 21
234.772567
  0
LINE
  8
CutLine
  6
CONTINUOUS
 62
8
 10
247.029691
 20
158.366094
 11
278.926594
 21
174.738552
  0
LINE
  8
CutLine
  6
CONTINUOUS
 62
8
 10
251.171939
 20
176.530045
 11
247.029691
 21
158.366094
  0
LINE
  8
MountainLine
  6
CONTINUOUS
 62
5
 10
405.681109
 20
115.220066
 11
429.563784
 21
28.960660
  0
LINE
  8
CutLine
  6
CONTINUOUS
 62
8
 10
429.563784
 20
28.960660
 11
485.567175
 21
95.414341
  0
LINE
  8
ValleyLine
  6
CONTINUOUS
 62
1
 10
485.567175
 20
95.414341
 11
405.681109
 21
115.220066
  0
LINE
  8
ValleyLine
  6
CONTINUOUS
 62
1
 10
464.855112
 20
169.963091
 11
485.567175
 21
95.414341
  0
LINE
  8
ValleyLine
  6
CONTINUOUS
 62
1
 10
485.567175
 20
95.414341
 11
527.430443
 21
171.571667
  0
LINE
  8
MountainLine
  6
CONTINUOUS
 62
5
 10
527.430443
 20
171.571667
 11
464.855112
 21
169.963091
  0
LINE
  8
MountainLine
  6
CONTINUOUS
 62
5
 10
422.517341
 20
171.063313
 11
393.848156
 21
130.131403
  0
LINE
  8
CutLine
  6
CONTINUOUS
 62
8
 10
393.848156
 20
130.131403
 11
405.681109
 21
115.220066
  0
LINE
  8
ValleyLine
  6
CONTINUOUS
 62
1
 10
485.567175
 20
95.414341
 11
422.517341
 21
171.063313
  0
LINE
  8
CutLine
  6
CONTINUOUS
 62
8
 10
464.855112
 20
169.963091
 11
422.517341
 21
171.063313
  0
LINE
  8
ValleyLine
  6
CONTINUOUS
 62
1
 10
503.296598
 20
202.349785
 11
464.855112
 21
169.963091
  0
LINE
  8
MountainLine
  6
CONTINUOUS
 62
5
 10
527.430443
 20
171.571667
 11
503.296598
 21
202.349785
  0
ENDSEC
  0
EOF
