  0
SECTION
  2
HEADER
  9
$ACADVER
  1
AC1009
  0
ENDSEC
  0
SECTION
  2
BLOCKS
  0
ENDSEC
  0
SECTION
  2
ENTITIES
  0
LINE
  8
CutLine
  6
CONTINUOUS
 62
8
 10
1299.935419
 20
258.646322
 11
1306.555025
 21
261.132446
  0
LINE
  8
CutLine
  6
CONTINUOUS
 62
8
 10
1306.555025
 20
261.132446
 11
1343.198990
 21
244.498175
  0
LINE
  8
CutLine
  6
CONTINUOUS
 62
8
 10
1343.198990
 20
244.498175
 11
1345.685114
 21
237.878569
  0
LINE
  8
CutLine
  6
CONTINUOUS
 62
8
 10
1312.806212
 20
127.492420
 11
1306.513995
 21
124.266276
  0
LINE
  8
CutLine
  6
CONTINUOUS
 62
8
 10
1306.513995
 20
124.266276
 11
1272.479690
 21
135.229472
  0
LINE
  8
CutLine
  6
CONTINUOUS
 62
8
 10
1272.479690
 20
135.229472
 11
1269.253546
 21
141.521689
  0
LINE
  8
CutLine
  6
CONTINUOUS
 62
8
 10
1345.685114
 20
237.878569
 11
1349.893659
 21
232.196303
  0
LINE
  8
CutLine
  6
CONTINUOUS
 62
8
 10
1349.893659
 20
232.196303
 11
1342.201474
 21
180.570572
  0
LINE
  8
CutLine
  6
CONTINUOUS
 62
8
 10
1342.201474
 20
180.570572
 11
1336.519208
 21
176.362027
  0
LINE
  8
CutLine
  6
CONTINUOUS
 62
8
 10
1102.380023
 20
363.247163
 11
1109.590817
 21
370.621796
  0
LINE
  8
CutLine
  6
CONTINUOUS
 62
8
 10
1109.590817
 20
370.621796
 11
1334.938039
 21
437.997669
  0
LINE
  8
CutLine
  6
CONTINUOUS
 62
8
 10
1334.938039
 20
437.997669
 11
1343.388342
 21
435.305499
  0
LINE
  8
CutLine
  6
CONTINUOUS
 62
8
 10
1102.606074
 20
179.277336
 11
1102.682107
 21
186.461419
  0
LINE
  8
CutLine
  6
CONTINUOUS
 62
8
 10
1102.682107
 20
186.461419
 11
1245.161856
 21
330.396559
  0
LINE
  8
CutLine
  6
CONTINUOUS
 62
8
 10
1245.161856
 20
330.396559
 11
1252.232833
 21
330.432490
  0
LINE
  8
CutLine
  6
CONTINUOUS
 62
8
 10
1287.120259
 20
285.333782
 11
1289.034354
 21
278.526709
  0
LINE
  8
CutLine
  6
CONTINUOUS
 62
8
 10
1289.034354
 20
278.526709
 11
1283.703702
 21
269.025437
  0
LINE
  8
CutLine
  6
CONTINUOUS
 62
8
 10
1283.703702
 20
269.025437
 11
1276.896629
 21
267.111342
  0
LINE
  8
CutLine
  6
CONTINUOUS
 62
8
 10
1267.969265
 20
342.129854
 11
1275.038134
 21
341.953524
  0
LINE
  8
CutLine
  6
CONTINUOUS
 62
8
 10
1275.038134
 20
341.953524
 11
1294.046413
 21
321.972679
  0
LINE
  8
CutLine
  6
CONTINUOUS
 62
8
 10
1294.046413
 20
321.972679
 11
1293.870083
 21
314.903810
  0
LINE
  8
CutLine
  6
CONTINUOUS
 62
8
 10
1170.992726
 20
278.556770
 11
1167.230015
 21
272.569951
  0
LINE
  8
CutLine
  6
CONTINUOUS
 62
8
 10
1167.230015
 20
272.569951
 11
1038.096215
 21
243.111339
  0
LINE
  8
CutLine
  6
CONTINUOUS
 62
8
 10
1038.096215
 20
243.111339
 11
1032.109395
 21
246.874050
  0
LINE
  8
CutLine
  6
CONTINUOUS
 62
8
 10
1028.515367
 20
378.652451
 11
1034.632039
 21
382.200172
  0
LINE
  8
CutLine
  6
CONTINUOUS
 62
8
 10
1034.632039
 20
382.200172
 11
1066.494189
 21
373.730700
  0
LINE
  8
CutLine
  6
CONTINUOUS
 62
8
 10
1066.494189
 20
373.730700
 11
1070.041910
 21
367.614028
  0
LINE
  8
CutLine
  6
CONTINUOUS
 62
8
 10
997.041649
 20
258.483928
 11
993.471632
 21
264.587614
  0
LINE
  8
CutLine
  6
CONTINUOUS
 62
8
 10
993.471632
 20
264.587614
 11
1022.411681
 21
375.082434
  0
LINE
  8
CutLine
  6
CONTINUOUS
 62
8
 10
1022.411681
 20
375.082434
 11
1028.515367
 21
378.652451
  0
LINE
  8
CutLine
  6
CONTINUOUS
 62
8
 10
859.351777
 20
186.119160
 11
859.809005
 21
193.175429
  0
LINE
  8
CutLine
  6
CONTINUOUS
 62
8
 10
859.809005
 20
193.175429
 11
875.084415
 21
206.591692
  0
LINE
  8
CutLine
  6
CONTINUOUS
 62
8
 10
875.084415
 20
206.591692
 11
882.140684
 21
206.134464
  0
LINE
  8
CutLine
  6
CONTINUOUS
 62
8
 10
886.498123
 20
101.314483
 11
881.143732
 21
96.695988
  0
LINE
  8
CutLine
  6
CONTINUOUS
 62
8
 10
881.143732
 20
96.695988
 11
848.646938
 21
99.093914
  0
LINE
  8
CutLine
  6
CONTINUOUS
 62
8
 10
848.646938
 20
99.093914
 11
844.028443
 21
104.448305
  0
LINE
  8
CutLine
  6
CONTINUOUS
 62
8
 10
1109.089532
 20
148.570982
 11
1117.196156
 21
149.777241
  0
LINE
  8
CutLine
  6
CONTINUOUS
 62
8
 10
1117.196156
 20
149.777241
 11
1189.229430
 21
109.633678
  0
LINE
  8
CutLine
  6
CONTINUOUS
 62
8
 10
1189.229430
 20
109.633678
 11
1191.162986
 21
102.832108
  0
LINE
  8
CutLine
  6
CONTINUOUS
 62
8
 10
1110.105822
 20
150.759999
 11
1106.580242
 21
149.816650
  0
LINE
  8
CutLine
  6
CONTINUOUS
 62
8
 10
869.452530
 20
293.132409
 11
875.527062
 21
296.751810
  0
LINE
  8
CutLine
  6
CONTINUOUS
 62
8
 10
875.527062
 20
296.751810
 11
941.301404
 21
280.093493
  0
LINE
  8
CutLine
  6
CONTINUOUS
 62
8
 10
941.301404
 20
280.093493
 11
944.920805
 21
274.018961
  0
LINE
  8
CutLine
  6
CONTINUOUS
 62
8
 10
894.745617
 20
222.798664
 11
888.208394
 21
225.493978
  0
LINE
  8
CutLine
  6
CONTINUOUS
 62
8
 10
888.208394
 20
225.493978
 11
882.620450
 21
238.922426
  0
LINE
  8
CutLine
  6
CONTINUOUS
 62
8
 10
882.620450
 20
238.922426
 11
885.315763
 21
245.459649
  0
LINE
  8
CutLine
  6
CONTINUOUS
 62
8
 10
903.427930
 20
427.361606
 11
901.549051
 21
420.544729
  0
LINE
  8
CutLine
  6
CONTINUOUS
 62
8
 10
901.549051
 20
420.544729
 11
874.694283
 21
405.294898
  0
LINE
  8
CutLine
  6
CONTINUOUS
 62
8
 10
874.694283
 20
405.294898
 11
867.877406
 21
407.173777
  0
LINE
  8
CutLine
  6
CONTINUOUS
 62
8
 10
847.764278
 20
430.768242
 11
855.825693
 21
435.284235
  0
LINE
  8
CutLine
  6
CONTINUOUS
 62
8
 10
855.825693
 20
435.284235
 11
898.742697
 21
432.657699
  0
LINE
  8
CutLine
  6
CONTINUOUS
 62
8
 10
898.742697
 20
432.657699
 11
903.427930
 21
427.361606
  0
LINE
  8
CutLine
  6
CONTINUOUS
 62
8
 10
707.574110
 20
386.085665
 11
702.128287
 21
390.595987
  0
LINE
  8
CutLine
  6
CONTINUOUS
 62
8
 10
702.128287
 20
390.595987
 11
698.746879
 21
426.582883
  0
LINE
  8
CutLine
  6
CONTINUOUS
 62
8
 10
698.746879
 20
426.582883
 11
703.150611
 21
433.163103
  0
LINE
  8
CutLine
  6
CONTINUOUS
 62
8
 10
743.885713
 20
368.254104
 11
737.790004
 21
364.670484
  0
LINE
  8
CutLine
  6
CONTINUOUS
 62
8
 10
737.790004
 20
364.670484
 11
722.525446
 21
368.632115
  0
LINE
  8
CutLine
  6
CONTINUOUS
 62
8
 10
722.525446
 20
368.632115
 11
718.941827
 21
374.727825
  0
LINE
  8
CutLine
  6
CONTINUOUS
 62
8
 10
768.878391
 20
412.183154
 11
770.185332
 21
419.132392
  0
LINE
  8
CutLine
  6
CONTINUOUS
 62
8
 10
770.185332
 20
419.132392
 11
794.953580
 21
436.059081
  0
LINE
  8
CutLine
  6
CONTINUOUS
 62
8
 10
794.953580
 20
436.059081
 11
801.902818
 21
434.752139
  0
LINE
  8
CutLine
  6
CONTINUOUS
 62
8
 10
752.113596
 20
276.682519
 11
745.847684
 21
273.405578
  0
LINE
  8
CutLine
  6
CONTINUOUS
 62
8
 10
745.847684
 20
273.405578
 11
690.944540
 21
290.602101
  0
LINE
  8
CutLine
  6
CONTINUOUS
 62
8
 10
690.944540
 20
290.602101
 11
686.272753
 21
297.304901
  0
LINE
  8
CutLine
  6
CONTINUOUS
 62
8
 10
863.911786
 20
236.293245
 11
858.326207
 21
231.957198
  0
LINE
  8
CutLine
  6
CONTINUOUS
 62
8
 10
858.326207
 20
231.957198
 11
783.258764
 21
241.411204
  0
LINE
  8
CutLine
  6
CONTINUOUS
 62
8
 10
783.258764
 20
241.411204
 11
778.922716
 21
246.996782
  0
LINE
  8
CutLine
  6
CONTINUOUS
 62
8
 10
780.773444
 20
309.588227
 11
787.843701
 21
309.695317
  0
LINE
  8
CutLine
  6
CONTINUOUS
 62
8
 10
787.843701
 20
309.695317
 11
810.504255
 21
287.710984
  0
LINE
  8
CutLine
  6
CONTINUOUS
 62
8
 10
810.504255
 20
287.710984
 11
810.611346
 21
280.640727
  0
LINE
  8
CutLine
  6
CONTINUOUS
 62
8
 10
709.790012
 20
341.011774
 11
712.049683
 21
347.712064
  0
LINE
  8
CutLine
  6
CONTINUOUS
 62
8
 10
712.049683
 20
347.712064
 11
717.487839
 21
350.407251
  0
LINE
  8
CutLine
  6
CONTINUOUS
 62
8
 10
717.487839
 20
350.407251
 11
724.188129
 21
348.147580
  0
LINE
  8
CutLine
  6
CONTINUOUS
 62
8
 10
689.843869
 20
298.845052
 11
684.916896
 21
300.797589
  0
LINE
  8
CutLine
  6
CONTINUOUS
 62
8
 10
899.664179
 20
346.967442
 11
892.204962
 21
341.438983
  0
LINE
  8
CutLine
  6
CONTINUOUS
 62
8
 10
892.204962
 20
341.438983
 11
835.826117
 21
337.535226
  0
LINE
  8
CutLine
  6
CONTINUOUS
 62
8
 10
835.826117
 20
337.535226
 11
830.492680
 21
342.177902
  0
LINE
  8
CutLine
  6
CONTINUOUS
 62
8
 10
866.050777
 20
406.442353
 11
868.615409
 21
405.165795
  0
LINE
  8
CutLine
  6
CONTINUOUS
 62
8
 10
789.151646
 20
337.798737
 11
779.126654
 21
332.398910
  0
LINE
  8
CutLine
  6
CONTINUOUS
 62
8
 10
779.126654
 20
332.398910
 11
750.218274
 21
331.257196
  0
LINE
  8
CutLine
  6
CONTINUOUS
 62
8
 10
746.132356
 20
361.218151
 11
749.169622
 21
367.603683
  0
LINE
  8
CutLine
  6
CONTINUOUS
 62
8
 10
749.169622
 20
367.603683
 11
760.286020
 21
371.553747
  0
LINE
  8
ValleyLine
  6
CONTINUOUS
 62
1
 10
1345.685114
 20
237.878569
 11
1299.935419
 21
258.646322
  0
LINE
  8
CutLine
  6
CONTINUOUS
 62
8
 10
1299.935419
 20
258.646322
 11
1276.896629
 21
267.111342
  0
LINE
  8
MountainLine
  6
CONTINUOUS
 62
5
 10
1276.896629
 20
267.111342
 11
1102.606074
 21
179.277336
  0
LINE
  8
CutLine
  6
CONTINUOUS
 62
8
 10
1102.606074
 20
179.277336
 11
1269.253546
 21
141.521689
  0
LINE
  8
ValleyLine
  6
CONTINUOUS
 62
1
 10
1269.253546
 20
141.521689
 11
1312.806212
 21
127.492420
  0
LINE
  8
CutLine
  6
CONTINUOUS
 62
8
 10
1312.806212
 20
127.492420
 11
1336.519208
 21
176.362027
  0
LINE
  8
MountainLine
  6
CONTINUOUS
 62
5
 10
1336.519208
 20
176.362027
 11
1345.685114
 21
237.878569
  0
LINE
  8
ValleyLine
  6
CONTINUOUS
 62
1
 10
1252.232833
 20
330.432490
 11
1267.969265
 21
342.129854
  0
LINE
  8
CutLine
  6
CONTINUOUS
 62
8
 10
1267.969265
 20
342.129854
 11
1343.388342
 21
435.305499
  0
LINE
  8
ValleyLine
  6
CONTINUOUS
 62
1
 10
1343.388342
 20
435.305499
 11
1102.380023
 21
363.247163
  0
LINE
  8
CutLine
  6
CONTINUOUS
 62
8
 10
1102.380023
 20
363.247163
 11
1252.232833
 21
330.432490
  0
LINE
  8
MountainLine
  6
CONTINUOUS
 62
5
 10
1276.896629
 20
267.111342
 11
1252.232833
 21
330.432490
  0
LINE
  8
ValleyLine
  6
CONTINUOUS
 62
1
 10
1252.232833
 20
330.432490
 11
1102.606074
 21
179.277336
  0
LINE
  8
ValleyLine
  6
CONTINUOUS
 62
1
 10
1276.896629
 20
267.111342
 11
1287.120259
 21
285.333782
  0
LINE
  8
CutLine
  6
CONTINUOUS
 62
8
 10
1287.120259
 20
285.333782
 11
1293.870083
 21
314.903810
  0
LINE
  8
MountainLine
  6
CONTINUOUS
 62
5
 10
1293.870083
 20
314.903810
 11
1267.969265
 21
342.129854
  0
LINE
  8
ValleyLine
  6
CONTINUOUS
 62
1
 10
1032.109395
 20
246.874050
 11
1170.992726
 21
278.556770
  0
LINE
  8
CutLine
  6
CONTINUOUS
 62
8
 10
1170.992726
 20
278.556770
 11
1070.041910
 21
367.614028
  0
LINE
  8
ValleyLine
  6
CONTINUOUS
 62
1
 10
1070.041910
 20
367.614028
 11
1028.515367
 21
378.652451
  0
LINE
  8
ValleyLine
  6
CONTINUOUS
 62
1
 10
1028.515367
 20
378.652451
 11
997.041649
 21
258.483928
  0
LINE
  8
ValleyLine
  6
CONTINUOUS
 62
1
 10
997.041649
 20
258.483928
 11
1032.109395
 21
246.874050
  0
LINE
  8
ValleyLine
  6
CONTINUOUS
 62
1
 10
886.498123
 20
101.314483
 11
1109.089532
 21
148.570982
  0
LINE
  8
CutLine
  6
CONTINUOUS
 62
8
 10
1109.089532
 20
148.570982
 11
1067.714059
 21
169.110718
  0
LINE
  8
MountainLine
  6
CONTINUOUS
 62
5
 10
1067.714059
 20
169.110718
 11
894.745617
 21
222.798664
  0
LINE
  8
CutLine
  6
CONTINUOUS
 62
8
 10
894.745617
 20
222.798664
 11
882.140684
 21
206.134464
  0
LINE
  8
CutLine
  6
CONTINUOUS
 62
8
 10
761.383683
 20
99.968535
 11
844.028443
 21
104.448305
  0
LINE
  8
MountainLine
  6
CONTINUOUS
 62
5
 10
844.028443
 20
104.448305
 11
859.351777
 21
186.119160
  0
LINE
  8
CutLine
  6
CONTINUOUS
 62
8
 10
859.351777
 20
186.119160
 11
761.383683
 21
99.968535
  0
LINE
  8
ValleyLine
  6
CONTINUOUS
 62
1
 10
882.140684
 20
206.134464
 11
859.351777
 21
186.119160
  0
LINE
  8
ValleyLine
  6
CONTINUOUS
 62
1
 10
844.028443
 20
104.448305
 11
886.498123
 21
101.314483
  0
LINE
  8
ValleyLine
  6
CONTINUOUS
 62
1
 10
1191.162986
 20
102.832108
 11
1109.089532
 21
148.570982
  0
LINE
  8
CutLine
  6
CONTINUOUS
 62
8
 10
886.498123
 20
101.314483
 11
1191.162986
 21
102.832108
  0
LINE
  8
MountainLine
  6
CONTINUOUS
 62
5
 10
1067.714059
 20
169.110718
 11
1083.213072
 21
209.761276
  0
LINE
  8
MountainLine
  6
CONTINUOUS
 62
5
 10
1083.213072
 20
209.761276
 11
894.745617
 21
222.798664
  0
LINE
  8
CutLine
  6
CONTINUOUS
 62
8
 10
1110.105822
 20
150.759999
 11
1083.213072
 21
209.761276
  0
LINE
  8
MountainLine
  6
CONTINUOUS
 62
5
 10
1067.714059
 20
169.110718
 11
1110.105822
 21
150.759999
  0
LINE
  8
MountainLine
  6
CONTINUOUS
 62
5
 10
1032.109395
 20
246.874050
 11
894.745617
 21
222.798664
  0
LINE
  8
CutLine
  6
CONTINUOUS
 62
8
 10
1083.213072
 20
209.761276
 11
1032.109395
 21
246.874050
  0
LINE
  8
CutLine
  6
CONTINUOUS
 62
8
 10
997.041649
 20
258.483928
 11
944.920805
 21
274.018961
  0
LINE
  8
ValleyLine
  6
CONTINUOUS
 62
1
 10
944.920805
 20
274.018961
 11
869.452530
 21
293.132409
  0
LINE
  8
CutLine
  6
CONTINUOUS
 62
8
 10
869.452530
 20
293.132409
 11
885.315763
 21
245.459649
  0
LINE
  8
ValleyLine
  6
CONTINUOUS
 62
1
 10
885.315763
 20
245.459649
 11
894.745617
 21
222.798664
  0
LINE
  8
MountainLine
  6
CONTINUOUS
 62
5
 10
768.878391
 20
412.183154
 11
794.710475
 21
378.479743
  0
LINE
  8
ValleyLine
  6
CONTINUOUS
 62
1
 10
794.710475
 20
378.479743
 11
833.226676
 21
393.298823
  0
LINE
  8
ValleyLine
  6
CONTINUOUS
 62
1
 10
833.226676
 20
393.298823
 11
847.764278
 21
430.768242
  0
LINE
  8
ValleyLine
  6
CONTINUOUS
 62
1
 10
847.764278
 20
430.768242
 11
768.878391
 21
412.183154
  0
LINE
  8
CutLine
  6
CONTINUOUS
 62
8
 10
833.226676
 20
393.298823
 11
867.877406
 21
407.173777
  0
LINE
  8
MountainLine
  6
CONTINUOUS
 62
5
 10
867.877406
 20
407.173777
 11
847.764278
 21
430.768242
  0
LINE
  8
ValleyLine
  6
CONTINUOUS
 62
1
 10
867.877406
 20
407.173777
 11
903.427930
 21
427.361606
  0
LINE
  8
MountainLine
  6
CONTINUOUS
 62
5
 10
903.427930
 20
427.361606
 11
847.764278
 21
430.768242
  0
LINE
  8
CutLine
  6
CONTINUOUS
 62
8
 10
768.878391
 20
412.183154
 11
703.150611
 21
433.163103
  0
LINE
  8
ValleyLine
  6
CONTINUOUS
 62
1
 10
703.150611
 20
433.163103
 11
735.239862
 21
386.585713
  0
LINE
  8
MountainLine
  6
CONTINUOUS
 62
5
 10
735.239862
 20
386.585713
 11
768.878391
 21
412.183154
  0
LINE
  8
ValleyLine
  6
CONTINUOUS
 62
1
 10
735.239862
 20
386.585713
 11
743.885713
 21
368.254104
  0
LINE
  8
CutLine
  6
CONTINUOUS
 62
8
 10
743.885713
 20
368.254104
 11
794.710475
 21
378.479743
  0
LINE
  8
ValleyLine
  6
CONTINUOUS
 62
1
 10
707.574110
 20
386.085665
 11
735.239862
 21
386.585713
  0
LINE
  8
ValleyLine
  6
CONTINUOUS
 62
1
 10
703.150611
 20
433.163103
 11
707.574110
 21
386.085665
  0
LINE
  8
CutLine
  6
CONTINUOUS
 62
8
 10
707.574110
 20
386.085665
 11
718.941827
 21
374.727825
  0
LINE
  8
MountainLine
  6
CONTINUOUS
 62
5
 10
718.941827
 20
374.727825
 11
735.239862
 21
386.585713
  0
LINE
  8
ValleyLine
  6
CONTINUOUS
 62
1
 10
718.941827
 20
374.727825
 11
743.885713
 21
368.254104
  0
LINE
  8
CutLine
  6
CONTINUOUS
 62
8
 10
847.764278
 20
430.768242
 11
801.902818
 21
434.752139
  0
LINE
  8
ValleyLine
  6
CONTINUOUS
 62
1
 10
801.902818
 20
434.752139
 11
768.878391
 21
412.183154
  0
LINE
  8
MountainLine
  6
CONTINUOUS
 62
5
 10
732.917609
 20
317.421891
 11
752.113596
 21
276.682519
  0
LINE
  8
MountainLine
  6
CONTINUOUS
 62
5
 10
752.113596
 20
276.682519
 11
780.773444
 21
309.588227
  0
LINE
  8
ValleyLine
  6
CONTINUOUS
 62
1
 10
780.773444
 20
309.588227
 11
732.917609
 21
317.421891
  0
LINE
  8
ValleyLine
  6
CONTINUOUS
 62
1
 10
686.272753
 20
297.304901
 11
752.113596
 21
276.682519
  0
LINE
  8
CutLine
  6
CONTINUOUS
 62
8
 10
732.917609
 20
317.421891
 11
686.272753
 21
297.304901
  0
LINE
  8
CutLine
  6
CONTINUOUS
 62
8
 10
863.911786
 20
236.293245
 11
810.611346
 21
280.640727
  0
LINE
  8
MountainLine
  6
CONTINUOUS
 62
5
 10
778.922716
 20
246.996782
 11
863.911786
 21
236.293245
  0
LINE
  8
CutLine
  6
CONTINUOUS
 62
8
 10
752.113596
 20
276.682519
 11
778.922716
 21
246.996782
  0
LINE
  8
ValleyLine
  6
CONTINUOUS
 62
1
 10
810.611346
 20
280.640727
 11
780.773444
 21
309.588227
  0
LINE
  8
ValleyLine
  6
CONTINUOUS
 62
1
 10
743.534552
 20
335.997126
 11
732.917609
 21
317.421891
  0
LINE
  8
CutLine
  6
CONTINUOUS
 62
8
 10
780.773444
 20
309.588227
 11
743.534552
 21
335.997126
  0
LINE
  8
ValleyLine
  6
CONTINUOUS
 62
1
 10
709.790012
 20
341.011774
 11
743.534552
 21
335.997126
  0
LINE
  8
ValleyLine
  6
CONTINUOUS
 62
1
 10
743.534552
 20
335.997126
 11
724.188129
 21
348.147580
  0
LINE
  8
ValleyLine
  6
CONTINUOUS
 62
1
 10
724.188129
 20
348.147580
 11
709.790012
 21
341.011774
  0
LINE
  8
CutLine
  6
CONTINUOUS
 62
8
 10
709.790012
 20
341.011774
 11
684.916896
 21
300.797589
  0
LINE
  8
ValleyLine
  6
CONTINUOUS
 62
1
 10
684.916896
 20
300.797589
 11
732.917609
 21
317.421891
  0
LINE
  8
CutLine
  6
CONTINUOUS
 62
8
 10
746.132356
 20
361.218151
 11
724.188129
 21
348.147580
  0
LINE
  8
ValleyLine
  6
CONTINUOUS
 62
1
 10
743.534552
 20
335.997126
 11
746.132356
 21
361.218151
  0
LINE
  8
ValleyLine
  6
CONTINUOUS
 62
1
 10
794.710475
 20
378.479743
 11
789.151646
 21
337.798737
  0
LINE
  8
CutLine
  6
CONTINUOUS
 62
8
 10
789.151646
 20
337.798737
 11
830.492680
 21
342.177902
  0
LINE
  8
ValleyLine
  6
CONTINUOUS
 62
1
 10
830.492680
 20
342.177902
 11
899.664179
 21
346.967442
  0
LINE
  8
CutLine
  6
CONTINUOUS
 62
8
 10
899.664179
 20
346.967442
 11
868.615409
 21
405.165795
  0
LINE
  8
ValleyLine
  6
CONTINUOUS
 62
1
 10
868.615409
 20
405.165795
 11
833.226676
 21
393.298823
  0
LINE
  8
ValleyLine
  6
CONTINUOUS
 62
1
 10
743.534552
 20
335.997126
 11
789.151646
 21
337.798737
  0
LINE
  8
ValleyLine
  6
CONTINUOUS
 62
1
 10
794.710475
 20
378.479743
 11
746.132356
 21
361.218151
  0
ENDSEC
  0
EOF
