  0
SECTION
  2
HEADER
  9
$ACADVER
  1
AC1009
  0
ENDSEC
  0
SECTION
  2
BLOCKS
  0
ENDSEC
  0
SECTION
  2
ENTITIES
  0
LINE
  8
CutLine
  6
CONTINUOUS
 62
8
 10
1330.719265
 20
253.894801
 11
1336.011972
 21
253.257826
  0
LINE
  8
CutLine
  6
CONTINUOUS
 62
8
 10
1325.589891
 20
446.903068
 11
1332.453529
 21
448.603206
  0
LINE
  8
CutLine
  6
CONTINUOUS
 62
8
 10
1332.453529
 20
448.603206
 11
1335.949034
 21
446.495603
  0
LINE
  8
CutLine
  6
CONTINUOUS
 62
8
 10
1335.949034
 20
446.495603
 11
1337.649172
 21
439.631965
  0
LINE
  8
CutLine
  6
CONTINUOUS
 62
8
 10
1097.633529
 20
268.626961
 11
1101.964684
 21
274.216335
  0
LINE
  8
CutLine
  6
CONTINUOUS
 62
8
 10
1101.964684
 20
274.216335
 11
1164.738616
 21
282.177945
  0
LINE
  8
CutLine
  6
CONTINUOUS
 62
8
 10
1164.738616
 20
282.177945
 11
1200.992405
 21
281.735954
  0
LINE
  8
CutLine
  6
CONTINUOUS
 62
8
 10
1101.500279
 20
235.586160
 11
1095.680034
 21
242.303447
  0
LINE
  8
CutLine
  6
CONTINUOUS
 62
8
 10
1095.680034
 20
242.303447
 11
1093.248603
 21
263.079672
  0
LINE
  8
CutLine
  6
CONTINUOUS
 62
8
 10
1093.248603
 20
263.079672
 11
1097.633529
 21
268.626961
  0
LINE
  8
CutLine
  6
CONTINUOUS
 62
8
 10
1324.646434
 20
218.016836
 11
1319.229063
 21
213.472379
  0
LINE
  8
CutLine
  6
CONTINUOUS
 62
8
 10
1319.229063
 20
213.472379
 11
1207.127846
 21
223.295347
  0
LINE
  8
CutLine
  6
CONTINUOUS
 62
8
 10
1207.127846
 20
223.295347
 11
1202.583389
 21
228.712718
  0
LINE
  8
CutLine
  6
CONTINUOUS
 62
8
 10
1192.859480
 20
373.281146
 11
1192.005800
 21
380.300493
  0
LINE
  8
CutLine
  6
CONTINUOUS
 62
8
 10
1192.005800
 20
380.300493
 11
1194.395420
 21
383.351831
  0
LINE
  8
CutLine
  6
CONTINUOUS
 62
8
 10
1194.395420
 20
383.351831
 11
1201.414767
 21
384.205511
  0
LINE
  8
CutLine
  6
CONTINUOUS
 62
8
 10
1334.058396
 20
413.650750
 11
1333.431197
 21
408.356877
  0
LINE
  8
CutLine
  6
CONTINUOUS
 62
8
 10
1102.306478
 20
431.173944
 11
1106.999515
 21
436.463121
  0
LINE
  8
CutLine
  6
CONTINUOUS
 62
8
 10
1106.999515
 20
436.463121
 11
1198.153640
 21
441.906867
  0
LINE
  8
CutLine
  6
CONTINUOUS
 62
8
 10
1198.153640
 20
441.906867
 11
1203.442817
 21
437.213829
  0
LINE
  8
CutLine
  6
CONTINUOUS
 62
8
 10
1098.167474
 20
398.166142
 11
1093.828427
 21
403.749392
  0
LINE
  8
CutLine
  6
CONTINUOUS
 62
8
 10
1093.828427
 20
403.749392
 11
1096.431054
 21
424.504866
  0
LINE
  8
CutLine
  6
CONTINUOUS
 62
8
 10
1096.431054
 20
424.504866
 11
1102.306478
 21
431.173944
  0
LINE
  8
CutLine
  6
CONTINUOUS
 62
8
 10
1178.293580
 20
333.065149
 11
1171.346245
 21
334.382167
  0
LINE
  8
CutLine
  6
CONTINUOUS
 62
8
 10
1171.346245
 20
334.382167
 11
1157.545655
 21
354.639105
  0
LINE
  8
CutLine
  6
CONTINUOUS
 62
8
 10
1157.545655
 20
354.639105
 11
1158.862673
 21
361.586440
  0
LINE
  8
CutLine
  6
CONTINUOUS
 62
8
 10
1309.667763
 20
378.817709
 11
1310.039033
 21
371.551949
  0
LINE
  8
CutLine
  6
CONTINUOUS
 62
8
 10
1310.039033
 20
371.551949
 11
1299.356166
 21
359.038888
  0
LINE
  8
CutLine
  6
CONTINUOUS
 62
8
 10
1299.356166
 20
359.038888
 11
1292.307006
 21
358.482699
  0
LINE
  8
CutLine
  6
CONTINUOUS
 62
8
 10
1333.431197
 20
408.356877
 11
1334.192941
 21
401.326959
  0
LINE
  8
CutLine
  6
CONTINUOUS
 62
8
 10
1334.192941
 20
401.326959
 11
1316.697681
 21
379.579453
  0
LINE
  8
CutLine
  6
CONTINUOUS
 62
8
 10
1316.697681
 20
379.579453
 11
1309.667763
 21
378.817709
  0
LINE
  8
CutLine
  6
CONTINUOUS
 62
8
 10
1192.527468
 20
292.730477
 11
1186.147609
 21
289.681314
  0
LINE
  8
CutLine
  6
CONTINUOUS
 62
8
 10
1186.147609
 20
289.681314
 11
1161.677375
 21
298.325150
  0
LINE
  8
CutLine
  6
CONTINUOUS
 62
8
 10
1161.677375
 20
298.325150
 11
1158.628212
 21
304.705010
  0
LINE
  8
CutLine
  6
CONTINUOUS
 62
8
 10
1266.059278
 20
332.703384
 11
1273.130344
 21
332.708757
  0
LINE
  8
CutLine
  6
CONTINUOUS
 62
8
 10
1273.130344
 20
332.708757
 11
1280.505665
 21
325.344635
  0
LINE
  8
CutLine
  6
CONTINUOUS
 62
8
 10
1280.505665
 20
325.344635
 11
1292.093612
 21
306.708583
  0
LINE
  8
CutLine
  6
CONTINUOUS
 62
8
 10
1309.286139
 20
286.231143
 11
1316.309539
 21
285.411470
  0
LINE
  8
CutLine
  6
CONTINUOUS
 62
8
 10
1316.309539
 20
285.411470
 11
1333.624919
 21
263.520474
  0
LINE
  8
CutLine
  6
CONTINUOUS
 62
8
 10
1333.624919
 20
263.520474
 11
1332.805247
 21
256.497075
  0
LINE
  8
CutLine
  6
CONTINUOUS
 62
8
 10
1047.362653
 20
344.385456
 11
1047.472273
 21
351.455674
  0
LINE
  8
CutLine
  6
CONTINUOUS
 62
8
 10
1047.472273
 20
351.455674
 11
1062.252470
 21
365.784548
  0
LINE
  8
CutLine
  6
CONTINUOUS
 62
8
 10
1062.252470
 20
365.784548
 11
1069.322688
 21
365.674927
  0
LINE
  8
CutLine
  6
CONTINUOUS
 62
8
 10
1065.983079
 20
396.077752
 11
1072.180620
 21
399.482232
  0
LINE
  8
CutLine
  6
CONTINUOUS
 62
8
 10
1072.180620
 20
399.482232
 11
1126.166150
 21
383.778783
  0
LINE
  8
CutLine
  6
CONTINUOUS
 62
8
 10
1126.166150
 20
383.778783
 11
1131.318748
 21
377.072746
  0
LINE
  8
CutLine
  6
CONTINUOUS
 62
8
 10
1133.325802
 20
342.619939
 11
1133.578285
 21
335.553380
  0
LINE
  8
CutLine
  6
CONTINUOUS
 62
8
 10
1133.578285
 20
335.553380
 11
1116.876154
 21
317.613519
  0
LINE
  8
CutLine
  6
CONTINUOUS
 62
8
 10
1116.876154
 20
317.613519
 11
1109.809595
 21
317.361036
  0
LINE
  8
CutLine
  6
CONTINUOUS
 62
8
 10
794.994085
 20
343.687195
 11
799.395889
 21
338.153289
  0
LINE
  8
CutLine
  6
CONTINUOUS
 62
8
 10
799.395889
 20
338.153289
 11
795.849938
 21
307.032837
  0
LINE
  8
CutLine
  6
CONTINUOUS
 62
8
 10
795.849938
 20
307.032837
 11
790.316031
 21
302.631033
  0
LINE
  8
CutLine
  6
CONTINUOUS
 62
8
 10
769.397331
 20
266.995369
 11
762.349200
 21
266.426283
  0
LINE
  8
CutLine
  6
CONTINUOUS
 62
8
 10
762.349200
 20
266.426283
 11
731.511672
 21
292.656035
  0
LINE
  8
CutLine
  6
CONTINUOUS
 62
8
 10
731.511672
 20
292.656035
 11
730.740766
 21
299.875830
  0
LINE
  8
CutLine
  6
CONTINUOUS
 62
8
 10
730.740766
 20
299.875830
 11
727.732670
 21
306.275154
  0
LINE
  8
CutLine
  6
CONTINUOUS
 62
8
 10
727.732670
 20
306.275154
 11
738.884368
 21
337.210462
  0
LINE
  8
CutLine
  6
CONTINUOUS
 62
8
 10
738.884368
 20
337.210462
 11
745.283693
 21
340.218558
  0
LINE
  8
CutLine
  6
CONTINUOUS
 62
8
 10
902.057290
 20
132.131116
 11
899.868094
 21
125.407469
  0
LINE
  8
CutLine
  6
CONTINUOUS
 62
8
 10
899.868094
 20
125.407469
 11
870.938968
 21
110.689642
  0
LINE
  8
CutLine
  6
CONTINUOUS
 62
8
 10
870.938968
 20
110.689642
 11
864.215322
 21
112.878838
  0
LINE
  8
CutLine
  6
CONTINUOUS
 62
8
 10
857.998275
 20
140.701491
 11
864.262152
 21
143.982321
  0
LINE
  8
CutLine
  6
CONTINUOUS
 62
8
 10
864.262152
 20
143.982321
 11
876.170783
 21
140.260466
  0
LINE
  8
CutLine
  6
CONTINUOUS
 62
8
 10
876.170783
 20
140.260466
 11
879.451612
 21
133.996588
  0
LINE
  8
CutLine
  6
CONTINUOUS
 62
8
 10
703.765756
 20
134.902284
 11
704.917721
 21
141.878886
  0
LINE
  8
CutLine
  6
CONTINUOUS
 62
8
 10
704.917721
 20
141.878886
 11
715.607288
 21
149.538643
  0
LINE
  8
CutLine
  6
CONTINUOUS
 62
8
 10
813.842302
 20
164.523533
 11
815.445032
 21
163.394909
  0
LINE
  8
CutLine
  6
CONTINUOUS
 62
8
 10
779.295971
 20
212.152114
 11
786.169193
 21
209.814100
  0
LINE
  8
CutLine
  6
CONTINUOUS
 62
8
 10
786.169193
 20
209.814100
 11
797.099422
 21
188.982582
  0
LINE
  8
CutLine
  6
CONTINUOUS
 62
8
 10
797.099422
 20
188.982582
 11
794.994996
 21
182.231923
  0
LINE
  8
CutLine
  6
CONTINUOUS
 62
8
 10
761.417037
 20
205.616787
 11
764.396562
 21
212.029465
  0
LINE
  8
CutLine
  6
CONTINUOUS
 62
8
 10
764.396562
 20
212.029465
 11
772.883294
 21
215.131639
  0
LINE
  8
CutLine
  6
CONTINUOUS
 62
8
 10
772.883294
 20
215.131639
 11
779.295971
 21
212.152114
  0
LINE
  8
CutLine
  6
CONTINUOUS
 62
8
 10
706.762891
 20
79.176116
 11
701.501579
 21
83.900372
  0
LINE
  8
CutLine
  6
CONTINUOUS
 62
8
 10
701.501579
 20
83.900372
 11
699.041500
 21
129.640971
  0
LINE
  8
CutLine
  6
CONTINUOUS
 62
8
 10
699.041500
 20
129.640971
 11
703.765756
 21
134.902284
  0
LINE
  8
CutLine
  6
CONTINUOUS
 62
8
 10
753.347276
 20
19.332385
 11
751.283739
 21
23.158893
  0
LINE
  8
CutLine
  6
CONTINUOUS
 62
8
 10
815.998698
 20
46.660333
 11
819.627364
 21
40.591331
  0
LINE
  8
CutLine
  6
CONTINUOUS
 62
8
 10
819.627364
 20
40.591331
 11
812.104950
 21
10.697964
  0
LINE
  8
CutLine
  6
CONTINUOUS
 62
8
 10
812.104950
 20
10.697964
 11
806.035948
 21
7.069298
  0
LINE
  8
CutLine
  6
CONTINUOUS
 62
8
 10
749.963205
 20
20.746590
 11
746.587751
 21
14.492058
  0
LINE
  8
CutLine
  6
CONTINUOUS
 62
8
 10
746.587751
 20
14.492058
 11
715.260816
 21
4.952726
  0
LINE
  8
CutLine
  6
CONTINUOUS
 62
8
 10
715.260816
 20
4.952726
 11
709.021148
 21
8.279367
  0
LINE
  8
CutLine
  6
CONTINUOUS
 62
8
 10
747.048942
 20
69.879168
 11
748.920507
 21
69.794359
  0
LINE
  8
CutLine
  6
CONTINUOUS
 62
8
 10
748.920507
 20
69.794359
 11
753.689040
 21
64.573142
  0
LINE
  8
CutLine
  6
CONTINUOUS
 62
8
 10
775.889628
 20
68.085303
 11
782.154097
 21
69.944614
  0
LINE
  8
CutLine
  6
CONTINUOUS
 62
8
 10
782.154097
 20
69.944614
 11
782.915172
 21
63.454516
  0
LINE
  8
CutLine
  6
CONTINUOUS
 62
8
 10
782.057235
 20
71.825083
 11
788.238722
 21
75.258627
  0
LINE
  8
CutLine
  6
CONTINUOUS
 62
8
 10
788.238722
 20
75.258627
 11
815.514957
 21
67.463169
  0
LINE
  8
CutLine
  6
CONTINUOUS
 62
8
 10
815.514957
 20
67.463169
 11
818.948500
 21
61.281682
  0
LINE
  8
CutLine
  6
CONTINUOUS
 62
8
 10
818.948500
 20
61.281682
 11
822.860942
 21
55.391623
  0
LINE
  8
CutLine
  6
CONTINUOUS
 62
8
 10
822.860942
 20
55.391623
 11
821.888757
 21
50.572775
  0
LINE
  8
CutLine
  6
CONTINUOUS
 62
8
 10
821.888757
 20
50.572775
 11
815.998698
 21
46.660333
  0
LINE
  8
CutLine
  6
CONTINUOUS
 62
8
 10
1197.817591
 20
191.090452
 11
1200.586733
 21
184.584158
  0
LINE
  8
CutLine
  6
CONTINUOUS
 62
8
 10
1200.586733
 20
184.584158
 11
1173.575430
 21
117.543368
  0
LINE
  8
CutLine
  6
CONTINUOUS
 62
8
 10
1173.575430
 20
117.543368
 11
1167.069137
 21
114.774226
  0
LINE
  8
CutLine
  6
CONTINUOUS
 62
8
 10
1064.453297
 20
189.025098
 11
1061.533576
 21
195.465224
  0
LINE
  8
CutLine
  6
CONTINUOUS
 62
8
 10
1061.533576
 20
195.465224
 11
1077.159514
 21
237.010554
  0
LINE
  8
CutLine
  6
CONTINUOUS
 62
8
 10
1077.159514
 20
237.010554
 11
1083.599640
 21
239.930275
  0
LINE
  8
CutLine
  6
CONTINUOUS
 62
8
 10
1043.520248
 20
70.897735
 11
1037.941469
 21
75.242529
  0
LINE
  8
CutLine
  6
CONTINUOUS
 62
8
 10
1037.941469
 20
75.242529
 11
1033.588122
 21
110.251690
  0
LINE
  8
CutLine
  6
CONTINUOUS
 62
8
 10
1033.588122
 20
110.251690
 11
1037.932916
 21
115.830468
  0
LINE
  8
CutLine
  6
CONTINUOUS
 62
8
 10
1137.845959
 20
29.404725
 11
1136.469848
 21
22.468853
  0
LINE
  8
CutLine
  6
CONTINUOUS
 62
8
 10
1136.469848
 20
22.468853
 11
1105.588448
 21
1.812748
  0
LINE
  8
CutLine
  6
CONTINUOUS
 62
8
 10
1105.588448
 20
1.812748
 11
1098.652576
 21
3.188860
  0
LINE
  8
CutLine
  6
CONTINUOUS
 62
8
 10
936.692879
 20
448.736870
 11
942.540582
 21
452.712339
  0
LINE
  8
CutLine
  6
CONTINUOUS
 62
8
 10
942.540582
 20
452.712339
 11
1035.061975
 21
435.078352
  0
LINE
  8
CutLine
  6
CONTINUOUS
 62
8
 10
1035.061975
 20
435.078352
 11
1039.037444
 21
429.230648
  0
LINE
  8
CutLine
  6
CONTINUOUS
 62
8
 10
887.014199
 20
414.504618
 11
887.821656
 21
421.529432
  0
LINE
  8
CutLine
  6
CONTINUOUS
 62
8
 10
887.821656
 20
421.529432
 11
902.833915
 21
433.446355
  0
LINE
  8
CutLine
  6
CONTINUOUS
 62
8
 10
902.833915
 20
433.446355
 11
913.478436
 21
435.512268
  0
LINE
  8
CutLine
  6
CONTINUOUS
 62
8
 10
1030.153578
 20
418.571774
 11
1027.465981
 21
412.031375
  0
LINE
  8
CutLine
  6
CONTINUOUS
 62
8
 10
1027.465981
 20
412.031375
 11
1003.517450
 21
402.032568
  0
LINE
  8
CutLine
  6
CONTINUOUS
 62
8
 10
1003.517450
 20
402.032568
 11
996.977051
 21
404.720166
  0
LINE
  8
CutLine
  6
CONTINUOUS
 62
8
 10
950.789068
 20
291.269400
 11
944.195216
 21
288.273476
  0
LINE
  8
CutLine
  6
CONTINUOUS
 62
8
 10
944.195216
 20
288.273476
 11
928.636700
 21
293.698922
  0
LINE
  8
CutLine
  6
CONTINUOUS
 62
8
 10
928.636700
 20
293.698922
 11
925.561850
 21
300.066441
  0
LINE
  8
CutLine
  6
CONTINUOUS
 62
8
 10
1037.576332
 20
338.275414
 11
1045.691817
 21
337.709082
  0
LINE
  8
CutLine
  6
CONTINUOUS
 62
8
 10
1045.691817
 20
337.709082
 11
1047.521172
 21
336.066800
  0
LINE
  8
CutLine
  6
CONTINUOUS
 62
8
 10
1047.521172
 20
336.066800
 11
1047.901650
 21
329.005976
  0
LINE
  8
CutLine
  6
CONTINUOUS
 62
8
 10
895.802366
 20
316.068013
 11
889.761559
 21
319.743424
  0
LINE
  8
CutLine
  6
CONTINUOUS
 62
8
 10
889.761559
 20
319.743424
 11
880.306264
 21
358.582480
  0
LINE
  8
CutLine
  6
CONTINUOUS
 62
8
 10
880.306264
 20
358.582480
 11
883.981675
 21
364.623287
  0
LINE
  8
CutLine
  6
CONTINUOUS
 62
8
 10
938.750031
 20
369.512865
 11
945.207568
 21
372.393875
  0
LINE
  8
CutLine
  6
CONTINUOUS
 62
8
 10
945.207568
 20
372.393875
 11
994.771537
 21
353.411602
  0
LINE
  8
CutLine
  6
CONTINUOUS
 62
8
 10
994.771537
 20
353.411602
 11
1002.292923
 21
345.176869
  0
LINE
  8
CutLine
  6
CONTINUOUS
 62
8
 10
691.199066
 20
419.168146
 11
689.252534
 21
425.966014
  0
LINE
  8
CutLine
  6
CONTINUOUS
 62
8
 10
689.252534
 20
425.966014
 11
704.447798
 21
453.355067
  0
LINE
  8
CutLine
  6
CONTINUOUS
 62
8
 10
704.447798
 20
453.355067
 11
711.245666
 21
455.301600
  0
LINE
  8
CutLine
  6
CONTINUOUS
 62
8
 10
738.086350
 20
382.311858
 11
733.264138
 21
376.883599
  0
LINE
  8
CutLine
  6
CONTINUOUS
 62
8
 10
733.264138
 20
376.883599
 11
692.925835
 21
373.452221
  0
LINE
  8
CutLine
  6
CONTINUOUS
 62
8
 10
692.925835
 20
373.452221
 11
687.520033
 21
378.010434
  0
LINE
  8
CutLine
  6
CONTINUOUS
 62
8
 10
749.689454
 20
423.596243
 11
753.150106
 21
417.429892
  0
LINE
  8
CutLine
  6
CONTINUOUS
 62
8
 10
753.150106
 20
417.429892
 11
744.252701
 21
385.772510
  0
LINE
  8
CutLine
  6
CONTINUOUS
 62
8
 10
744.252701
 20
385.772510
 11
738.086350
 21
382.311858
  0
LINE
  8
CutLine
  6
CONTINUOUS
 62
8
 10
851.706562
 20
236.702830
 11
857.737586
 21
240.490112
  0
LINE
  8
CutLine
  6
CONTINUOUS
 62
8
 10
857.737586
 20
240.490112
 11
870.051534
 21
237.767466
  0
LINE
  8
CutLine
  6
CONTINUOUS
 62
8
 10
870.051534
 20
237.767466
 11
873.854181
 21
231.805933
  0
LINE
  8
CutLine
  6
CONTINUOUS
 62
8
 10
851.811561
 20
325.883104
 11
858.848039
 21
325.184545
  0
LINE
  8
CutLine
  6
CONTINUOUS
 62
8
 10
858.848039
 20
325.184545
 11
875.720795
 21
304.592391
  0
LINE
  8
CutLine
  6
CONTINUOUS
 62
8
 10
875.720795
 20
304.592391
 11
875.022235
 21
297.555914
  0
LINE
  8
CutLine
  6
CONTINUOUS
 62
8
 10
791.989096
 20
217.829117
 11
790.377390
 21
224.714057
  0
LINE
  8
CutLine
  6
CONTINUOUS
 62
8
 10
790.377390
 20
224.714057
 11
819.951119
 21
272.365543
  0
LINE
  8
CutLine
  6
CONTINUOUS
 62
8
 10
819.951119
 20
272.365543
 11
826.836059
 21
273.977248
  0
LINE
  8
CutLine
  6
CONTINUOUS
 62
8
 10
802.120320
 20
227.371358
 11
801.908722
 21
220.303457
  0
LINE
  8
CutLine
  6
CONTINUOUS
 62
8
 10
801.908722
 20
220.303457
 11
799.056997
 21
217.617519
  0
LINE
  8
CutLine
  6
CONTINUOUS
 62
8
 10
799.056997
 20
217.617519
 11
791.989096
 21
217.829117
  0
LINE
  8
CutLine
  6
CONTINUOUS
 62
8
 10
834.065951
 20
213.654388
 11
827.498826
 21
211.032770
  0
LINE
  8
CutLine
  6
CONTINUOUS
 62
8
 10
827.498826
 20
211.032770
 11
804.741937
 21
220.804234
  0
LINE
  8
CutLine
  6
CONTINUOUS
 62
8
 10
804.741937
 20
220.804234
 11
802.120320
 21
227.371358
  0
LINE
  8
CutLine
  6
CONTINUOUS
 62
8
 10
857.460646
 20
252.054469
 11
851.466341
 21
248.303696
  0
LINE
  8
CutLine
  6
CONTINUOUS
 62
8
 10
851.466341
 20
248.303696
 11
844.162610
 21
249.985175
  0
LINE
  8
CutLine
  6
CONTINUOUS
 62
8
 10
844.162610
 20
249.985175
 11
840.411837
 21
255.979481
  0
LINE
  8
CutLine
  6
CONTINUOUS
 62
8
 10
896.330767
 20
231.873063
 11
889.854167
 21
232.741547
  0
LINE
  8
CutLine
  6
CONTINUOUS
 62
8
 10
889.854167
 20
232.741547
 11
891.816999
 21
238.974355
  0
LINE
  8
CutLine
  6
CONTINUOUS
 62
8
 10
1034.993825
 20
198.286000
 11
1042.871892
 21
188.007616
  0
LINE
  8
CutLine
  6
CONTINUOUS
 62
8
 10
1042.871892
 20
188.007616
 11
1041.945147
 21
180.997542
  0
LINE
  8
CutLine
  6
CONTINUOUS
 62
8
 10
943.685410
 20
240.987779
 11
945.131566
 21
241.456949
  0
LINE
  8
CutLine
  6
CONTINUOUS
 62
8
 10
1080.210834
 20
317.560037
 11
1083.904722
 21
311.530510
  0
LINE
  8
CutLine
  6
CONTINUOUS
 62
8
 10
1083.904722
 20
311.530510
 11
1056.773773
 21
198.582634
  0
LINE
  8
CutLine
  6
CONTINUOUS
 62
8
 10
1056.773773
 20
198.582634
 11
1050.744246
 21
194.888747
  0
LINE
  8
CutLine
  6
CONTINUOUS
 62
8
 10
992.356820
 20
276.772889
 11
999.360129
 21
277.749446
  0
LINE
  8
CutLine
  6
CONTINUOUS
 62
8
 10
999.360129
 20
277.749446
 11
1006.570683
 21
272.303712
  0
LINE
  8
CutLine
  6
CONTINUOUS
 62
8
 10
1006.570683
 20
272.303712
 11
1007.547239
 21
265.300403
  0
LINE
  8
CutLine
  6
CONTINUOUS
 62
8
 10
944.162665
 20
241.951135
 11
946.716987
 21
248.544726
  0
LINE
  8
CutLine
  6
CONTINUOUS
 62
8
 10
946.716987
 20
248.544726
 11
959.412993
 21
254.150658
  0
LINE
  8
CutLine
  6
CONTINUOUS
 62
8
 10
959.412993
 20
254.150658
 11
968.603183
 21
252.742867
  0
LINE
  8
CutLine
  6
CONTINUOUS
 62
8
 10
978.878888
 20
126.668026
 11
964.660220
 21
135.858335
  0
LINE
  8
CutLine
  6
CONTINUOUS
 62
8
 10
964.660220
 20
135.858335
 11
959.212371
 21
145.333098
  0
LINE
  8
CutLine
  6
CONTINUOUS
 62
8
 10
999.879679
 20
164.136605
 11
1000.622790
 21
165.052739
  0
LINE
  8
CutLine
  6
CONTINUOUS
 62
8
 10
1040.437227
 20
180.415690
 11
1042.153686
 21
179.619494
  0
LINE
  8
CutLine
  6
CONTINUOUS
 62
8
 10
1022.137024
 20
127.736183
 11
1027.466457
 21
123.088912
  0
LINE
  8
CutLine
  6
CONTINUOUS
 62
8
 10
1027.466457
 20
123.088912
 11
1029.028252
 21
100.247470
  0
LINE
  8
CutLine
  6
CONTINUOUS
 62
8
 10
1029.028252
 20
100.247470
 11
1024.380981
 21
94.918036
  0
LINE
  8
CutLine
  6
CONTINUOUS
 62
8
 10
998.173565
 20
60.973908
 11
991.213020
 21
59.728593
  0
LINE
  8
CutLine
  6
CONTINUOUS
 62
8
 10
991.213020
 20
59.728593
 11
964.341167
 21
78.444341
  0
LINE
  8
CutLine
  6
CONTINUOUS
 62
8
 10
964.341167
 20
78.444341
 11
963.053980
 21
85.434049
  0
LINE
  8
CutLine
  6
CONTINUOUS
 62
8
 10
959.782841
 20
102.620302
 11
953.182296
 21
105.156599
  0
LINE
  8
CutLine
  6
CONTINUOUS
 62
8
 10
953.182296
 20
105.156599
 11
942.305536
 21
129.608663
  0
LINE
  8
CutLine
  6
CONTINUOUS
 62
8
 10
942.305536
 20
129.608663
 11
944.841833
 21
136.209208
  0
LINE
  8
CutLine
  6
CONTINUOUS
 62
8
 10
952.951410
 20
138.453584
 11
959.672965
 21
140.649191
  0
LINE
  8
CutLine
  6
CONTINUOUS
 62
8
 10
959.672965
 20
140.649191
 11
962.825603
 21
139.049054
  0
LINE
  8
CutLine
  6
CONTINUOUS
 62
8
 10
972.087055
 20
131.057962
 11
972.994235
 21
128.280751
  0
LINE
  8
CutLine
  6
CONTINUOUS
 62
8
 10
1159.601105
 20
38.596035
 11
1156.599381
 21
44.998351
  0
LINE
  8
CutLine
  6
CONTINUOUS
 62
8
 10
1156.599381
 20
44.998351
 11
1171.693504
 21
86.739839
  0
LINE
  8
CutLine
  6
CONTINUOUS
 62
8
 10
1171.693504
 20
86.739839
 11
1178.095819
 21
89.741564
  0
LINE
  8
CutLine
  6
CONTINUOUS
 62
8
 10
1239.709059
 20
192.680219
 11
1248.315548
 21
199.413348
  0
LINE
  8
CutLine
  6
CONTINUOUS
 62
8
 10
1248.315548
 20
199.413348
 11
1319.627553
 21
213.025753
  0
LINE
  8
CutLine
  6
CONTINUOUS
 62
8
 10
1319.627553
 20
213.025753
 11
1325.476375
 21
209.051928
  0
LINE
  8
CutLine
  6
CONTINUOUS
 62
8
 10
807.343003
 20
417.968211
 11
802.425553
 21
423.049420
  0
LINE
  8
CutLine
  6
CONTINUOUS
 62
8
 10
802.425553
 20
423.049420
 11
802.902287
 21
452.157344
  0
LINE
  8
CutLine
  6
CONTINUOUS
 62
8
 10
802.902287
 20
452.157344
 11
807.983496
 21
457.074794
  0
LINE
  8
MountainLine
  6
CONTINUOUS
 62
5
 10
1320.353531
 20
240.963489
 11
1324.646434
 21
218.016836
  0
LINE
  8
CutLine
  6
CONTINUOUS
 62
8
 10
1324.646434
 20
218.016836
 11
1336.765249
 21
225.188276
  0
LINE
  8
CutLine
  6
CONTINUOUS
 62
8
 10
1336.765249
 20
225.188276
 11
1336.011972
 21
253.257826
  0
LINE
  8
MountainLine
  6
CONTINUOUS
 62
5
 10
1336.011972
 20
253.257826
 11
1320.353531
 21
240.963489
  0
LINE
  8
ValleyLine
  6
CONTINUOUS
 62
1
 10
1337.649172
 20
439.631965
 11
1325.589891
 21
446.903068
  0
LINE
  8
MountainLine
  6
CONTINUOUS
 62
5
 10
1325.589891
 20
446.903068
 11
1321.107962
 21
423.992585
  0
LINE
  8
CutLine
  6
CONTINUOUS
 62
8
 10
1321.107962
 20
423.992585
 11
1336.664517
 21
411.569579
  0
LINE
  8
CutLine
  6
CONTINUOUS
 62
8
 10
1336.664517
 20
411.569579
 11
1337.649172
 21
439.631965
  0
LINE
  8
ValleyLine
  6
CONTINUOUS
 62
1
 10
1332.805247
 20
256.497075
 11
1192.527468
 21
292.730477
  0
LINE
  8
CutLine
  6
CONTINUOUS
 62
8
 10
1192.527468
 20
292.730477
 11
1200.992405
 21
281.735954
  0
LINE
  8
MountainLine
  6
CONTINUOUS
 62
5
 10
1200.992405
 20
281.735954
 11
1320.353531
 21
240.963489
  0
LINE
  8
CutLine
  6
CONTINUOUS
 62
8
 10
1320.353531
 20
240.963489
 11
1332.805247
 21
256.497075
  0
LINE
  8
MountainLine
  6
CONTINUOUS
 62
5
 10
1200.992405
 20
281.735954
 11
1097.633529
 21
268.626961
  0
LINE
  8
ValleyLine
  6
CONTINUOUS
 62
1
 10
1097.633529
 20
268.626961
 11
1101.500279
 21
235.586160
  0
LINE
  8
CutLine
  6
CONTINUOUS
 62
8
 10
1101.500279
 20
235.586160
 11
1202.583389
 21
228.712718
  0
LINE
  8
ValleyLine
  6
CONTINUOUS
 62
1
 10
1202.583389
 20
228.712718
 11
1324.646434
 21
218.016836
  0
LINE
  8
MountainLine
  6
CONTINUOUS
 62
5
 10
1201.414767
 20
384.205511
 11
1192.859480
 21
373.281146
  0
LINE
  8
ValleyLine
  6
CONTINUOUS
 62
1
 10
1192.859480
 20
373.281146
 11
1333.431197
 21
408.356877
  0
LINE
  8
MountainLine
  6
CONTINUOUS
 62
5
 10
1333.431197
 20
408.356877
 11
1321.107962
 21
423.992585
  0
LINE
  8
MountainLine
  6
CONTINUOUS
 62
5
 10
1321.107962
 20
423.992585
 11
1201.414767
 21
384.205511
  0
LINE
  8
ValleyLine
  6
CONTINUOUS
 62
1
 10
1203.442817
 20
437.213829
 11
1102.306478
 21
431.173944
  0
LINE
  8
ValleyLine
  6
CONTINUOUS
 62
1
 10
1102.306478
 20
431.173944
 11
1098.167474
 21
398.166142
  0
LINE
  8
CutLine
  6
CONTINUOUS
 62
8
 10
1098.167474
 20
398.166142
 11
1201.414767
 21
384.205511
  0
LINE
  8
CutLine
  6
CONTINUOUS
 62
8
 10
1325.589891
 20
446.903068
 11
1203.442817
 21
437.213829
  0
LINE
  8
MountainLine
  6
CONTINUOUS
 62
5
 10
1158.862673
 20
361.586440
 11
1178.293580
 21
333.065149
  0
LINE
  8
ValleyLine
  6
CONTINUOUS
 62
1
 10
1178.293580
 20
333.065149
 11
1266.059278
 21
332.703384
  0
LINE
  8
CutLine
  6
CONTINUOUS
 62
8
 10
1266.059278
 20
332.703384
 11
1292.307006
 21
358.482699
  0
LINE
  8
MountainLine
  6
CONTINUOUS
 62
5
 10
1292.307006
 20
358.482699
 11
1192.859480
 21
373.281146
  0
LINE
  8
CutLine
  6
CONTINUOUS
 62
8
 10
1192.859480
 20
373.281146
 11
1158.862673
 21
361.586440
  0
LINE
  8
MountainLine
  6
CONTINUOUS
 62
5
 10
1292.307006
 20
358.482699
 11
1309.667763
 21
378.817709
  0
LINE
  8
MountainLine
  6
CONTINUOUS
 62
5
 10
1309.667763
 20
378.817709
 11
1333.431197
 21
408.356877
  0
LINE
  8
CutLine
  6
CONTINUOUS
 62
8
 10
1178.293580
 20
333.065149
 11
1158.628212
 21
304.705010
  0
LINE
  8
ValleyLine
  6
CONTINUOUS
 62
1
 10
1158.628212
 20
304.705010
 11
1192.527468
 21
292.730477
  0
LINE
  8
MountainLine
  6
CONTINUOUS
 62
5
 10
1192.527468
 20
292.730477
 11
1292.093612
 21
306.708583
  0
LINE
  8
MountainLine
  6
CONTINUOUS
 62
5
 10
1292.093612
 20
306.708583
 11
1266.059278
 21
332.703384
  0
LINE
  8
MountainLine
  6
CONTINUOUS
 62
5
 10
1332.805247
 20
256.497075
 11
1309.286139
 21
286.231143
  0
LINE
  8
CutLine
  6
CONTINUOUS
 62
8
 10
1309.286139
 20
286.231143
 11
1292.093612
 21
306.708583
  0
LINE
  8
ValleyLine
  6
CONTINUOUS
 62
1
 10
1069.322688
 20
365.674927
 11
1047.362653
 21
344.385456
  0
LINE
  8
CutLine
  6
CONTINUOUS
 62
8
 10
1047.362653
 20
344.385456
 11
1109.809595
 21
317.361036
  0
LINE
  8
ValleyLine
  6
CONTINUOUS
 62
1
 10
1109.809595
 20
317.361036
 11
1069.322688
 21
365.674927
  0
LINE
  8
CutLine
  6
CONTINUOUS
 62
8
 10
1065.983079
 20
396.077752
 11
1069.322688
 21
365.674927
  0
LINE
  8
ValleyLine
  6
CONTINUOUS
 62
1
 10
1069.322688
 20
365.674927
 11
1131.318748
 21
377.072746
  0
LINE
  8
MountainLine
  6
CONTINUOUS
 62
5
 10
1131.318748
 20
377.072746
 11
1065.983079
 21
396.077752
  0
LINE
  8
ValleyLine
  6
CONTINUOUS
 62
1
 10
1069.322688
 20
365.674927
 11
1133.325802
 21
342.619939
  0
LINE
  8
CutLine
  6
CONTINUOUS
 62
8
 10
1133.325802
 20
342.619939
 11
1131.318748
 21
377.072746
  0
LINE
  8
MountainLine
  6
CONTINUOUS
 62
5
 10
1109.809595
 20
317.361036
 11
1133.325802
 21
342.619939
  0
LINE
  8
ValleyLine
  6
CONTINUOUS
 62
1
 10
745.283693
 20
340.218558
 11
790.316031
 21
302.631033
  0
LINE
  8
ValleyLine
  6
CONTINUOUS
 62
1
 10
790.316031
 20
302.631033
 11
794.994085
 21
343.687195
  0
LINE
  8
CutLine
  6
CONTINUOUS
 62
8
 10
794.994085
 20
343.687195
 11
750.615248
 21
374.573370
  0
LINE
  8
CutLine
  6
CONTINUOUS
 62
8
 10
750.615248
 20
374.573370
 11
745.283693
 21
340.218558
  0
LINE
  8
ValleyLine
  6
CONTINUOUS
 62
1
 10
790.316031
 20
302.631033
 11
730.740766
 21
299.875830
  0
LINE
  8
MountainLine
  6
CONTINUOUS
 62
5
 10
730.740766
 20
299.875830
 11
769.397331
 21
266.995369
  0
LINE
  8
CutLine
  6
CONTINUOUS
 62
8
 10
769.397331
 20
266.995369
 11
790.316031
 21
302.631033
  0
LINE
  8
MountainLine
  6
CONTINUOUS
 62
5
 10
745.283693
 20
340.218558
 11
730.740766
 21
299.875830
  0
LINE
  8
CutLine
  6
CONTINUOUS
 62
8
 10
902.057290
 20
132.131116
 11
879.451612
 21
133.996588
  0
LINE
  8
MountainLine
  6
CONTINUOUS
 62
5
 10
879.451612
 20
133.996588
 11
864.215322
 21
112.878838
  0
LINE
  8
MountainLine
  6
CONTINUOUS
 62
5
 10
864.215322
 20
112.878838
 11
902.057290
 21
132.131116
  0
LINE
  8
ValleyLine
  6
CONTINUOUS
 62
1
 10
879.451612
 20
133.996588
 11
857.998275
 21
140.701491
  0
LINE
  8
CutLine
  6
CONTINUOUS
 62
8
 10
857.998275
 20
140.701491
 11
845.770873
 21
177.069326
  0
LINE
  8
MountainLine
  6
CONTINUOUS
 62
5
 10
845.770873
 20
177.069326
 11
819.021250
 21
133.411075
  0
LINE
  8
CutLine
  6
CONTINUOUS
 62
8
 10
819.021250
 20
133.411075
 11
845.161158
 21
119.878910
  0
LINE
  8
CutLine
  6
CONTINUOUS
 62
8
 10
845.161158
 20
119.878910
 11
864.215322
 21
112.878838
  0
LINE
  8
CutLine
  6
CONTINUOUS
 62
8
 10
845.770873
 20
177.069326
 11
815.445032
 21
163.394909
  0
LINE
  8
MountainLine
  6
CONTINUOUS
 62
5
 10
815.445032
 20
163.394909
 11
819.021250
 21
133.411075
  0
LINE
  8
ValleyLine
  6
CONTINUOUS
 62
1
 10
723.289602
 20
148.892366
 11
703.765756
 21
134.902284
  0
LINE
  8
MountainLine
  6
CONTINUOUS
 62
5
 10
703.765756
 20
134.902284
 11
739.165073
 21
107.086991
  0
LINE
  8
ValleyLine
  6
CONTINUOUS
 62
1
 10
739.165073
 20
107.086991
 11
723.289602
 21
148.892366
  0
LINE
  8
MountainLine
  6
CONTINUOUS
 62
5
 10
747.664468
 20
105.431294
 11
769.495981
 21
100.649308
  0
LINE
  8
CutLine
  6
CONTINUOUS
 62
8
 10
769.495981
 20
100.649308
 11
773.879795
 21
112.276127
  0
LINE
  8
MountainLine
  6
CONTINUOUS
 62
5
 10
773.879795
 20
112.276127
 11
753.297325
 21
127.148596
  0
LINE
  8
MountainLine
  6
CONTINUOUS
 62
5
 10
753.297325
 20
127.148596
 11
723.289602
 21
148.892366
  0
LINE
  8
MountainLine
  6
CONTINUOUS
 62
5
 10
739.165073
 20
107.086991
 11
747.664468
 21
105.431294
  0
LINE
  8
ValleyLine
  6
CONTINUOUS
 62
1
 10
815.445032
 20
163.394909
 11
769.951103
 21
156.590704
  0
LINE
  8
ValleyLine
  6
CONTINUOUS
 62
1
 10
769.951103
 20
156.590704
 11
723.289602
 21
148.892366
  0
LINE
  8
CutLine
  6
CONTINUOUS
 62
8
 10
773.879795
 20
112.276127
 11
819.021250
 21
133.411075
  0
LINE
  8
MountainLine
  6
CONTINUOUS
 62
5
 10
761.417037
 20
205.616787
 11
699.539759
 21
150.890329
  0
LINE
  8
CutLine
  6
CONTINUOUS
 62
8
 10
699.539759
 20
150.890329
 11
723.289602
 21
148.892366
  0
LINE
  8
ValleyLine
  6
CONTINUOUS
 62
1
 10
723.289602
 20
148.892366
 11
761.417037
 21
205.616787
  0
LINE
  8
CutLine
  6
CONTINUOUS
 62
8
 10
761.417037
 20
205.616787
 11
707.183526
 21
276.819270
  0
LINE
  8
CutLine
  6
CONTINUOUS
 62
8
 10
707.183526
 20
276.819270
 11
699.539759
 21
150.890329
  0
LINE
  8
MountainLine
  6
CONTINUOUS
 62
5
 10
794.994996
 20
182.231923
 11
779.295971
 21
212.152114
  0
LINE
  8
MountainLine
  6
CONTINUOUS
 62
5
 10
779.295971
 20
212.152114
 11
761.417037
 21
205.616787
  0
LINE
  8
ValleyLine
  6
CONTINUOUS
 62
1
 10
761.417037
 20
205.616787
 11
794.994996
 21
182.231923
  0
LINE
  8
CutLine
  6
CONTINUOUS
 62
8
 10
815.217640
 20
164.772110
 11
794.994996
 21
182.231923
  0
LINE
  8
CutLine
  6
CONTINUOUS
 62
8
 10
769.951103
 20
156.590704
 11
815.217640
 21
164.772110
  0
LINE
  8
MountainLine
  6
CONTINUOUS
 62
5
 10
739.140726
 20
106.962009
 11
706.762891
 21
79.176116
  0
LINE
  8
ValleyLine
  6
CONTINUOUS
 62
1
 10
706.762891
 20
79.176116
 11
731.029773
 21
65.599944
  0
LINE
  8
ValleyLine
  6
CONTINUOUS
 62
1
 10
731.029773
 20
65.599944
 11
739.140726
 21
106.962009
  0
LINE
  8
CutLine
  6
CONTINUOUS
 62
8
 10
731.029773
 20
65.599944
 11
772.049232
 21
76.557534
  0
LINE
  8
CutLine
  6
CONTINUOUS
 62
8
 10
772.049232
 20
76.557534
 11
769.495981
 21
100.649308
  0
LINE
  8
ValleyLine
  6
CONTINUOUS
 62
1
 10
703.765756
 20
134.902284
 11
706.762891
 21
79.176116
  0
LINE
  8
MountainLine
  6
CONTINUOUS
 62
5
 10
782.915172
 20
63.454516
 11
758.363812
 21
36.092516
  0
LINE
  8
MountainLine
  6
CONTINUOUS
 62
5
 10
758.363812
 20
36.092516
 11
753.347276
 21
19.332385
  0
LINE
  8
CutLine
  6
CONTINUOUS
 62
8
 10
753.347276
 20
19.332385
 11
806.035948
 21
7.069298
  0
LINE
  8
MountainLine
  6
CONTINUOUS
 62
5
 10
806.035948
 20
7.069298
 11
815.998698
 21
46.660333
  0
LINE
  8
MountainLine
  6
CONTINUOUS
 62
5
 10
815.998698
 20
46.660333
 11
782.915172
 21
63.454516
  0
LINE
  8
ValleyLine
  6
CONTINUOUS
 62
1
 10
758.363812
 20
36.092516
 11
731.029773
 21
65.599944
  0
LINE
  8
CutLine
  6
CONTINUOUS
 62
8
 10
706.762891
 20
79.176116
 11
694.529735
 21
48.640628
  0
LINE
  8
CutLine
  6
CONTINUOUS
 62
8
 10
694.529735
 20
48.640628
 11
709.021148
 21
8.279367
  0
LINE
  8
ValleyLine
  6
CONTINUOUS
 62
1
 10
709.021148
 20
8.279367
 11
749.963205
 21
20.746590
  0
LINE
  8
CutLine
  6
CONTINUOUS
 62
8
 10
749.963205
 20
20.746590
 11
758.363812
 21
36.092516
  0
LINE
  8
ValleyLine
  6
CONTINUOUS
 62
1
 10
753.689040
 20
64.573142
 11
731.029773
 21
65.599944
  0
LINE
  8
MountainLine
  6
CONTINUOUS
 62
5
 10
758.363812
 20
36.092516
 11
753.689040
 21
64.573142
  0
LINE
  8
MountainLine
  6
CONTINUOUS
 62
5
 10
782.915172
 20
63.454516
 11
775.889628
 21
68.085303
  0
LINE
  8
CutLine
  6
CONTINUOUS
 62
8
 10
775.889628
 20
68.085303
 11
753.689040
 21
64.573142
  0
LINE
  8
ValleyLine
  6
CONTINUOUS
 62
1
 10
818.948500
 20
61.281682
 11
782.057235
 21
71.825083
  0
LINE
  8
CutLine
  6
CONTINUOUS
 62
8
 10
782.057235
 20
71.825083
 11
782.915172
 21
63.454516
  0
LINE
  8
MountainLine
  6
CONTINUOUS
 62
5
 10
815.998698
 20
46.660333
 11
818.948500
 21
61.281682
  0
LINE
  8
MountainLine
  6
CONTINUOUS
 62
5
 10
1064.453297
 20
189.025098
 11
1167.069137
 21
114.774226
  0
LINE
  8
ValleyLine
  6
CONTINUOUS
 62
1
 10
1167.069137
 20
114.774226
 11
1197.817591
 21
191.090452
  0
LINE
  8
CutLine
  6
CONTINUOUS
 62
8
 10
1197.817591
 20
191.090452
 11
1083.599640
 21
239.930275
  0
LINE
  8
ValleyLine
  6
CONTINUOUS
 62
1
 10
1083.599640
 20
239.930275
 11
1064.453297
 21
189.025098
  0
LINE
  8
CutLine
  6
CONTINUOUS
 62
8
 10
1064.453297
 20
189.025098
 11
1037.932916
 21
115.830468
  0
LINE
  8
ValleyLine
  6
CONTINUOUS
 62
1
 10
1037.932916
 20
115.830468
 11
1043.520248
 21
70.897735
  0
LINE
  8
CutLine
  6
CONTINUOUS
 62
8
 10
1043.520248
 20
70.897735
 11
1098.652576
 21
3.188860
  0
LINE
  8
ValleyLine
  6
CONTINUOUS
 62
1
 10
1098.652576
 20
3.188860
 11
1137.845959
 21
29.404725
  0
LINE
  8
CutLine
  6
CONTINUOUS
 62
8
 10
1137.845959
 20
29.404725
 11
1167.069137
 21
114.774226
  0
LINE
  8
MountainLine
  6
CONTINUOUS
 62
5
 10
1039.037444
 20
429.230648
 11
936.692879
 21
448.736870
  0
LINE
  8
CutLine
  6
CONTINUOUS
 62
8
 10
936.692879
 20
448.736870
 11
913.478436
 21
435.512268
  0
LINE
  8
ValleyLine
  6
CONTINUOUS
 62
1
 10
913.478436
 20
435.512268
 11
1039.037444
 21
429.230648
  0
LINE
  8
MountainLine
  6
CONTINUOUS
 62
5
 10
913.478436
 20
435.512268
 11
887.014199
 21
414.504618
  0
LINE
  8
MountainLine
  6
CONTINUOUS
 62
5
 10
887.014199
 20
414.504618
 11
996.977051
 21
404.720166
  0
LINE
  8
ValleyLine
  6
CONTINUOUS
 62
1
 10
996.977051
 20
404.720166
 11
1030.153578
 21
418.571774
  0
LINE
  8
CutLine
  6
CONTINUOUS
 62
8
 10
1030.153578
 20
418.571774
 11
1039.037444
 21
429.230648
  0
LINE
  8
CutLine
  6
CONTINUOUS
 62
8
 10
938.750031
 20
369.512865
 11
996.977051
 21
404.720166
  0
LINE
  8
CutLine
  6
CONTINUOUS
 62
8
 10
887.014199
 20
414.504618
 11
883.981675
 21
364.623287
  0
LINE
  8
ValleyLine
  6
CONTINUOUS
 62
1
 10
883.981675
 20
364.623287
 11
938.750031
 21
369.512865
  0
LINE
  8
CutLine
  6
CONTINUOUS
 62
8
 10
950.789068
 20
291.269400
 11
1047.901650
 21
329.005976
  0
LINE
  8
ValleyLine
  6
CONTINUOUS
 62
1
 10
1047.901650
 20
329.005976
 11
925.561850
 21
300.066441
  0
LINE
  8
MountainLine
  6
CONTINUOUS
 62
5
 10
925.561850
 20
300.066441
 11
950.789068
 21
291.269400
  0
LINE
  8
MountainLine
  6
CONTINUOUS
 62
5
 10
1047.901650
 20
329.005976
 11
1037.576332
 21
338.275414
  0
LINE
  8
CutLine
  6
CONTINUOUS
 62
8
 10
1037.576332
 20
338.275414
 11
1002.292923
 21
345.176869
  0
LINE
  8
CutLine
  6
CONTINUOUS
 62
8
 10
895.802366
 20
316.068013
 11
925.561850
 21
300.066441
  0
LINE
  8
MountainLine
  6
CONTINUOUS
 62
5
 10
883.981675
 20
364.623287
 11
895.802366
 21
316.068013
  0
LINE
  8
MountainLine
  6
CONTINUOUS
 62
5
 10
1002.292923
 20
345.176869
 11
938.750031
 21
369.512865
  0
LINE
  8
CutLine
  6
CONTINUOUS
 62
8
 10
749.689454
 20
423.596243
 11
765.310619
 21
454.655184
  0
LINE
  8
CutLine
  6
CONTINUOUS
 62
8
 10
765.310619
 20
454.655184
 11
711.245666
 21
455.301600
  0
LINE
  8
ValleyLine
  6
CONTINUOUS
 62
1
 10
711.245666
 20
455.301600
 11
691.199066
 21
419.168146
  0
LINE
  8
ValleyLine
  6
CONTINUOUS
 62
1
 10
691.199066
 20
419.168146
 11
749.689454
 21
423.596243
  0
LINE
  8
ValleyLine
  6
CONTINUOUS
 62
1
 10
738.086350
 20
382.311858
 11
691.199066
 21
419.168146
  0
LINE
  8
CutLine
  6
CONTINUOUS
 62
8
 10
691.199066
 20
419.168146
 11
687.520033
 21
378.010434
  0
LINE
  8
MountainLine
  6
CONTINUOUS
 62
5
 10
687.520033
 20
378.010434
 11
738.086350
 21
382.311858
  0
LINE
  8
MountainLine
  6
CONTINUOUS
 62
5
 10
738.086350
 20
382.311858
 11
749.689454
 21
423.596243
  0
LINE
  8
ValleyLine
  6
CONTINUOUS
 62
1
 10
873.854181
 20
231.805933
 11
851.706562
 21
236.702830
  0
LINE
  8
CutLine
  6
CONTINUOUS
 62
8
 10
851.706562
 20
236.702830
 11
882.170785
 21
207.129263
  0
LINE
  8
MountainLine
  6
CONTINUOUS
 62
5
 10
882.170785
 20
207.129263
 11
873.854181
 21
231.805933
  0
LINE
  8
MountainLine
  6
CONTINUOUS
 62
5
 10
931.412857
 20
213.397852
 11
918.751288
 21
263.009039
  0
LINE
  8
ValleyLine
  6
CONTINUOUS
 62
1
 10
918.751288
 20
263.009039
 11
896.330767
 21
231.873063
  0
LINE
  8
CutLine
  6
CONTINUOUS
 62
8
 10
896.330767
 20
231.873063
 11
873.854181
 21
231.805933
  0
LINE
  8
CutLine
  6
CONTINUOUS
 62
8
 10
882.170785
 20
207.129263
 11
902.442389
 21
208.189566
  0
LINE
  8
CutLine
  6
CONTINUOUS
 62
8
 10
902.442389
 20
208.189566
 11
931.412857
 21
213.397852
  0
LINE
  8
CutLine
  6
CONTINUOUS
 62
8
 10
943.685410
 20
240.987779
 11
918.751288
 21
263.009039
  0
LINE
  8
MountainLine
  6
CONTINUOUS
 62
5
 10
931.412857
 20
213.397852
 11
943.685410
 21
240.987779
  0
LINE
  8
MountainLine
  6
CONTINUOUS
 62
5
 10
826.836059
 20
273.977248
 11
840.411837
 21
255.979481
  0
LINE
  8
CutLine
  6
CONTINUOUS
 62
8
 10
851.811561
 20
325.883104
 11
826.836059
 21
273.977248
  0
LINE
  8
ValleyLine
  6
CONTINUOUS
 62
1
 10
840.411837
 20
255.979481
 11
875.022235
 21
297.555914
  0
LINE
  8
MountainLine
  6
CONTINUOUS
 62
5
 10
875.022235
 20
297.555914
 11
851.811561
 21
325.883104
  0
LINE
  8
MountainLine
  6
CONTINUOUS
 62
5
 10
802.120320
 20
227.371358
 11
840.411837
 21
255.979481
  0
LINE
  8
ValleyLine
  6
CONTINUOUS
 62
1
 10
826.836059
 20
273.977248
 11
791.989096
 21
217.829117
  0
LINE
  8
MountainLine
  6
CONTINUOUS
 62
5
 10
791.989096
 20
217.829117
 11
802.120320
 21
227.371358
  0
LINE
  8
ValleyLine
  6
CONTINUOUS
 62
1
 10
802.120320
 20
227.371358
 11
834.065951
 21
213.654388
  0
LINE
  8
CutLine
  6
CONTINUOUS
 62
8
 10
834.065951
 20
213.654388
 11
840.411837
 21
255.979481
  0
LINE
  8
MountainLine
  6
CONTINUOUS
 62
5
 10
840.411837
 20
255.979481
 11
857.460646
 21
252.054469
  0
LINE
  8
CutLine
  6
CONTINUOUS
 62
8
 10
857.460646
 20
252.054469
 11
891.816999
 21
238.974355
  0
LINE
  8
MountainLine
  6
CONTINUOUS
 62
5
 10
891.816999
 20
238.974355
 11
907.375495
 21
272.656657
  0
LINE
  8
CutLine
  6
CONTINUOUS
 62
8
 10
907.375495
 20
272.656657
 11
875.022235
 21
297.555914
  0
LINE
  8
CutLine
  6
CONTINUOUS
 62
8
 10
918.751288
 20
263.009039
 11
907.375495
 21
272.656657
  0
LINE
  8
MountainLine
  6
CONTINUOUS
 62
5
 10
891.816999
 20
238.974355
 11
896.330767
 21
231.873063
  0
LINE
  8
ValleyLine
  6
CONTINUOUS
 62
1
 10
1041.945147
 20
180.997542
 11
1027.446300
 21
199.913947
  0
LINE
  8
ValleyLine
  6
CONTINUOUS
 62
1
 10
1027.446300
 20
199.913947
 11
999.943406
 21
164.790590
  0
LINE
  8
CutLine
  6
CONTINUOUS
 62
8
 10
999.943406
 20
164.790590
 11
1041.945147
 21
180.997542
  0
LINE
  8
MountainLine
  6
CONTINUOUS
 62
5
 10
1027.446300
 20
199.913947
 11
992.355154
 21
188.003178
  0
LINE
  8
MountainLine
  6
CONTINUOUS
 62
5
 10
992.355154
 20
188.003178
 11
968.298309
 21
179.873198
  0
LINE
  8
CutLine
  6
CONTINUOUS
 62
8
 10
968.298309
 20
179.873198
 11
969.054732
 21
167.470411
  0
LINE
  8
MountainLine
  6
CONTINUOUS
 62
5
 10
969.054732
 20
167.470411
 11
991.298477
 21
165.302890
  0
LINE
  8
MountainLine
  6
CONTINUOUS
 62
5
 10
991.298477
 20
165.302890
 11
999.911543
 21
164.463597
  0
LINE
  8
ValleyLine
  6
CONTINUOUS
 62
1
 10
1027.446300
 20
199.913947
 11
985.140242
 21
221.050585
  0
LINE
  8
ValleyLine
  6
CONTINUOUS
 62
1
 10
985.140242
 20
221.050585
 11
943.685410
 21
240.987779
  0
LINE
  8
CutLine
  6
CONTINUOUS
 62
8
 10
931.412857
 20
213.397852
 11
968.298309
 21
179.873198
  0
LINE
  8
MountainLine
  6
CONTINUOUS
 62
5
 10
1050.744246
 20
194.888747
 11
1007.547239
 21
265.300403
  0
LINE
  8
ValleyLine
  6
CONTINUOUS
 62
1
 10
1007.547239
 20
265.300403
 11
1027.446300
 21
199.913947
  0
LINE
  8
CutLine
  6
CONTINUOUS
 62
8
 10
1027.446300
 20
199.913947
 11
1050.744246
 21
194.888747
  0
LINE
  8
ValleyLine
  6
CONTINUOUS
 62
1
 10
1050.744246
 20
194.888747
 11
1080.210834
 21
317.560037
  0
LINE
  8
CutLine
  6
CONTINUOUS
 62
8
 10
1080.210834
 20
317.560037
 11
1007.547239
 21
265.300403
  0
LINE
  8
CutLine
  6
CONTINUOUS
 62
8
 10
992.356820
 20
276.772889
 11
968.603183
 21
252.742867
  0
LINE
  8
ValleyLine
  6
CONTINUOUS
 62
1
 10
968.603183
 20
252.742867
 11
1007.547239
 21
265.300403
  0
LINE
  8
MountainLine
  6
CONTINUOUS
 62
5
 10
1007.547239
 20
265.300403
 11
992.356820
 21
276.772889
  0
LINE
  8
MountainLine
  6
CONTINUOUS
 62
5
 10
968.603183
 20
252.742867
 11
944.162665
 21
241.951135
  0
LINE
  8
CutLine
  6
CONTINUOUS
 62
8
 10
944.162665
 20
241.951135
 11
985.140242
 21
221.050585
  0
LINE
  8
MountainLine
  6
CONTINUOUS
 62
5
 10
1022.137024
 20
127.736183
 11
999.879679
 21
164.136605
  0
LINE
  8
ValleyLine
  6
CONTINUOUS
 62
1
 10
999.879679
 20
164.136605
 11
994.870113
 21
122.285533
  0
LINE
  8
ValleyLine
  6
CONTINUOUS
 62
1
 10
994.870113
 20
122.285533
 11
1022.137024
 21
127.736183
  0
LINE
  8
CutLine
  6
CONTINUOUS
 62
8
 10
969.054732
 20
167.470411
 11
959.212371
 21
145.333098
  0
LINE
  8
MountainLine
  6
CONTINUOUS
 62
5
 10
959.212371
 20
145.333098
 11
994.870113
 21
122.285533
  0
LINE
  8
MountainLine
  6
CONTINUOUS
 62
5
 10
1042.153686
 20
179.619494
 11
999.879679
 21
164.136605
  0
LINE
  8
CutLine
  6
CONTINUOUS
 62
8
 10
1022.137024
 20
127.736183
 11
1042.153686
 21
179.619494
  0
LINE
  8
ValleyLine
  6
CONTINUOUS
 62
1
 10
994.870113
 20
122.285533
 11
959.782841
 21
102.620302
  0
LINE
  8
ValleyLine
  6
CONTINUOUS
 62
1
 10
1024.380981
 20
94.918036
 11
1022.137024
 21
127.736183
  0
LINE
  8
CutLine
  6
CONTINUOUS
 62
8
 10
998.173565
 20
60.973908
 11
1024.380981
 21
94.918036
  0
LINE
  8
CutLine
  6
CONTINUOUS
 62
8
 10
959.782841
 20
102.620302
 11
963.053980
 21
85.434049
  0
LINE
  8
ValleyLine
  6
CONTINUOUS
 62
1
 10
963.053980
 20
85.434049
 11
998.173565
 21
60.973908
  0
LINE
  8
CutLine
  6
CONTINUOUS
 62
8
 10
994.870113
 20
122.285533
 11
972.994235
 21
128.280751
  0
LINE
  8
MountainLine
  6
CONTINUOUS
 62
5
 10
972.994235
 20
128.280751
 11
959.782841
 21
102.620302
  0
LINE
  8
MountainLine
  6
CONTINUOUS
 62
5
 10
944.841833
 20
136.209208
 11
959.782841
 21
102.620302
  0
LINE
  8
ValleyLine
  6
CONTINUOUS
 62
1
 10
972.994235
 20
128.280751
 11
952.951410
 21
138.453584
  0
LINE
  8
CutLine
  6
CONTINUOUS
 62
8
 10
952.951410
 20
138.453584
 11
944.841833
 21
136.209208
  0
LINE
  8
CutLine
  6
CONTINUOUS
 62
8
 10
1278.176796
 20
1.570713
 11
1304.348905
 21
79.574908
  0
LINE
  8
ValleyLine
  6
CONTINUOUS
 62
1
 10
1178.095819
 20
89.741564
 11
1159.601105
 21
38.596035
  0
LINE
  8
CutLine
  6
CONTINUOUS
 62
8
 10
1159.601105
 20
38.596035
 11
1278.176796
 21
1.570713
  0
LINE
  8
CutLine
  6
CONTINUOUS
 62
8
 10
1337.559721
 20
163.473582
 11
1325.476375
 21
209.051928
  0
LINE
  8
ValleyLine
  6
CONTINUOUS
 62
1
 10
1325.476375
 20
209.051928
 11
1239.709059
 21
192.680219
  0
LINE
  8
CutLine
  6
CONTINUOUS
 62
8
 10
1239.709059
 20
192.680219
 11
1206.041222
 21
162.404064
  0
LINE
  8
CutLine
  6
CONTINUOUS
 62
8
 10
1206.041222
 20
162.404064
 11
1178.095819
 21
89.741564
  0
LINE
  8
CutLine
  6
CONTINUOUS
 62
8
 10
1304.348905
 20
79.574908
 11
1337.559721
 21
163.473582
  0
LINE
  8
CutLine
  6
CONTINUOUS
 62
8
 10
783.757144
 20
386.768175
 11
877.329419
 21
393.852195
  0
LINE
  8
ValleyLine
  6
CONTINUOUS
 62
1
 10
877.329419
 20
393.852195
 11
807.343003
 21
417.968211
  0
LINE
  8
CutLine
  6
CONTINUOUS
 62
8
 10
807.343003
 20
417.968211
 11
783.757144
 21
386.768175
  0
LINE
  8
CutLine
  6
CONTINUOUS
 62
8
 10
877.329419
 20
393.852195
 11
807.983496
 21
457.074794
  0
LINE
  8
MountainLine
  6
CONTINUOUS
 62
5
 10
807.983496
 20
457.074794
 11
807.343003
 21
417.968211
  0
ENDSEC
  0
EOF
