  0
SECTION
  2
HEADER
  9
$ACADVER
  1
AC1009
  0
ENDSEC
  0
SECTION
  2
BLOCKS
  0
ENDSEC
  0
SECTION
  2
ENTITIES
  0
LINE
  8
CutLine
  6
CONTINUOUS
 62
8
 10
1485.102840
 20
194.811656
 11
1478.847050
 21
191.515432
  0
LINE
  8
CutLine
  6
CONTINUOUS
 62
8
 10
1478.847050
 20
191.515432
 11
1404.990074
 21
214.399052
  0
LINE
  8
CutLine
  6
CONTINUOUS
 62
8
 10
1404.990074
 20
214.399052
 11
1401.693851
 21
220.654843
  0
LINE
  8
CutLine
  6
CONTINUOUS
 62
8
 10
1386.094747
 20
341.204489
 11
1380.835887
 21
345.931474
  0
LINE
  8
CutLine
  6
CONTINUOUS
 62
8
 10
1380.835887
 20
345.931474
 11
1376.124337
 21
434.389820
  0
LINE
  8
CutLine
  6
CONTINUOUS
 62
8
 10
1376.124337
 20
434.389820
 11
1380.442097
 21
447.331795
  0
LINE
  8
CutLine
  6
CONTINUOUS
 62
8
 10
1416.031267
 20
352.866235
 11
1422.391585
 21
349.776518
  0
LINE
  8
CutLine
  6
CONTINUOUS
 62
8
 10
1422.391585
 20
349.776518
 11
1429.759348
 21
328.488198
  0
LINE
  8
CutLine
  6
CONTINUOUS
 62
8
 10
1530.176653
 20
293.231571
 11
1527.256182
 21
286.791784
  0
LINE
  8
CutLine
  6
CONTINUOUS
 62
8
 10
1527.256182
 20
286.791784
 11
1467.482078
 21
264.317624
  0
LINE
  8
CutLine
  6
CONTINUOUS
 62
8
 10
1467.482078
 20
264.317624
 11
1461.042292
 21
267.238095
  0
LINE
  8
CutLine
  6
CONTINUOUS
 62
8
 10
1429.620539
 20
355.187665
 11
1424.225334
 21
359.758416
  0
LINE
  8
CutLine
  6
CONTINUOUS
 62
8
 10
1424.225334
 20
359.758416
 11
1417.614857
 21
439.665517
  0
LINE
  8
CutLine
  6
CONTINUOUS
 62
8
 10
1417.614857
 20
439.665517
 11
1421.297910
 21
455.791168
  0
LINE
  8
CutLine
  6
CONTINUOUS
 62
8
 10
1599.574062
 20
454.821695
 11
1602.348835
 21
448.317801
  0
LINE
  8
CutLine
  6
CONTINUOUS
 62
8
 10
1602.348835
 20
448.317801
 11
1586.182242
 21
408.092660
  0
LINE
  8
CutLine
  6
CONTINUOUS
 62
8
 10
1586.182242
 20
408.092660
 11
1579.678349
 21
405.317887
  0
LINE
  8
CutLine
  6
CONTINUOUS
 62
8
 10
1527.522132
 20
459.163446
 11
1532.813826
 21
463.853645
  0
LINE
  8
CutLine
  6
CONTINUOUS
 62
8
 10
1532.813826
 20
463.853645
 11
1594.883863
 21
460.113390
  0
LINE
  8
CutLine
  6
CONTINUOUS
 62
8
 10
1594.883863
 20
460.113390
 11
1599.574062
 21
454.821695
  0
LINE
  8
CutLine
  6
CONTINUOUS
 62
8
 10
1529.647617
 20
365.501342
 11
1523.064181
 21
362.920961
  0
LINE
  8
CutLine
  6
CONTINUOUS
 62
8
 10
1523.064181
 20
362.920961
 11
1483.656565
 21
380.135492
  0
LINE
  8
CutLine
  6
CONTINUOUS
 62
8
 10
1738.039148
 20
115.912388
 11
1743.144677
 21
120.804583
  0
LINE
  8
CutLine
  6
CONTINUOUS
 62
8
 10
1743.144677
 20
120.804583
 11
1769.173009
 21
120.249184
  0
LINE
  8
CutLine
  6
CONTINUOUS
 62
8
 10
1804.606327
 20
65.040629
 11
1797.647870
 21
63.783693
  0
LINE
  8
CutLine
  6
CONTINUOUS
 62
8
 10
1797.647870
 20
63.783693
 11
1779.625926
 21
76.291007
  0
LINE
  8
CutLine
  6
CONTINUOUS
 62
8
 10
1779.625926
 20
76.291007
 11
1778.368990
 21
83.249464
  0
LINE
  8
CutLine
  6
CONTINUOUS
 62
8
 10
1984.020673
 20
76.098645
 11
1991.089797
 21
76.264431
  0
LINE
  8
CutLine
  6
CONTINUOUS
 62
8
 10
1991.089797
 20
76.264431
 11
2015.208539
 21
53.251035
  0
LINE
  8
CutLine
  6
CONTINUOUS
 62
8
 10
2015.208539
 20
53.251035
 11
2016.837065
 21
44.786207
  0
LINE
  8
CutLine
  6
CONTINUOUS
 62
8
 10
1950.725161
 20
39.819278
 11
1945.818476
 21
34.727674
  0
LINE
  8
CutLine
  6
CONTINUOUS
 62
8
 10
1945.818476
 20
34.727674
 11
1887.177909
 21
33.643111
  0
LINE
  8
CutLine
  6
CONTINUOUS
 62
8
 10
1887.177909
 20
33.643111
 11
1882.086304
 21
38.549796
  0
LINE
  8
CutLine
  6
CONTINUOUS
 62
8
 10
1903.281199
 20
113.774469
 11
1923.150014
 21
110.363492
  0
LINE
  8
CutLine
  6
CONTINUOUS
 62
8
 10
1923.150014
 20
110.363492
 11
1927.231925
 21
104.589585
  0
LINE
  8
CutLine
  6
CONTINUOUS
 62
8
 10
1811.325542
 20
272.465401
 11
1815.629007
 21
279.643195
  0
LINE
  8
CutLine
  6
CONTINUOUS
 62
8
 10
1815.629007
 20
279.643195
 11
1879.025151
 21
305.732082
  0
LINE
  8
CutLine
  6
CONTINUOUS
 62
8
 10
1879.025151
 20
305.732082
 11
1885.551725
 21
303.011084
  0
LINE
  8
CutLine
  6
CONTINUOUS
 62
8
 10
1848.329872
 20
231.978763
 11
1841.265933
 21
232.296204
  0
LINE
  8
CutLine
  6
CONTINUOUS
 62
8
 10
1841.265933
 20
232.296204
 11
1811.008101
 21
265.401462
  0
LINE
  8
CutLine
  6
CONTINUOUS
 62
8
 10
1811.008101
 20
265.401462
 11
1811.325542
 21
272.465401
  0
LINE
  8
CutLine
  6
CONTINUOUS
 62
8
 10
1975.766868
 20
212.641240
 11
1982.833595
 21
212.888966
  0
LINE
  8
CutLine
  6
CONTINUOUS
 62
8
 10
1982.833595
 20
212.888966
 11
2024.012667
 21
174.499204
  0
LINE
  8
CutLine
  6
CONTINUOUS
 62
8
 10
2024.012667
 20
174.499204
 11
2024.260393
 21
167.432477
  0
LINE
  8
CutLine
  6
CONTINUOUS
 62
8
 10
1885.551725
 20
303.011084
 11
1892.593411
 21
302.367149
  0
LINE
  8
CutLine
  6
CONTINUOUS
 62
8
 10
1892.593411
 20
302.367149
 11
1924.259110
 21
264.327134
  0
LINE
  8
CutLine
  6
CONTINUOUS
 62
8
 10
1924.259110
 20
264.327134
 11
1923.615175
 21
257.285447
  0
LINE
  8
CutLine
  6
CONTINUOUS
 62
8
 10
1933.414786
 20
173.772025
 11
1907.766753
 21
190.710648
  0
LINE
  8
CutLine
  6
CONTINUOUS
 62
8
 10
1907.766753
 20
190.710648
 11
1906.349972
 21
197.638326
  0
LINE
  8
CutLine
  6
CONTINUOUS
 62
8
 10
1985.211196
 20
144.355549
 11
1982.477214
 21
137.834404
  0
LINE
  8
CutLine
  6
CONTINUOUS
 62
8
 10
1982.477214
 20
137.834404
 11
1932.929891
 21
117.559828
  0
LINE
  8
CutLine
  6
CONTINUOUS
 62
8
 10
1932.929891
 20
117.559828
 11
1926.408745
 21
120.293811
  0
LINE
  8
CutLine
  6
CONTINUOUS
 62
8
 10
1832.148241
 20
170.762096
 11
1837.152668
 21
175.757665
  0
LINE
  8
CutLine
  6
CONTINUOUS
 62
8
 10
1837.152668
 20
175.757665
 11
1894.573692
 21
175.706799
  0
LINE
  8
CutLine
  6
CONTINUOUS
 62
8
 10
1894.573692
 20
175.706799
 11
1899.569261
 21
170.702372
  0
LINE
  8
CutLine
  6
CONTINUOUS
 62
8
 10
1357.378069
 20
122.172294
 11
1363.386731
 21
125.900027
  0
LINE
  8
CutLine
  6
CONTINUOUS
 62
8
 10
1363.386731
 20
125.900027
 11
1427.956942
 21
110.773273
  0
LINE
  8
CutLine
  6
CONTINUOUS
 62
8
 10
1427.956942
 20
110.773273
 11
1431.684675
 21
104.764612
  0
LINE
  8
CutLine
  6
CONTINUOUS
 62
8
 10
1618.320942
 20
40.747000
 11
1605.820728
 21
35.280520
  0
LINE
  8
CutLine
  6
CONTINUOUS
 62
8
 10
1605.820728
 20
35.280520
 11
1517.297710
 21
32.001326
  0
LINE
  8
CutLine
  6
CONTINUOUS
 62
8
 10
1517.297710
 20
32.001326
 11
1512.116047
 21
36.812809
  0
LINE
  8
CutLine
  6
CONTINUOUS
 62
8
 10
1495.504805
 20
79.151958
 11
1517.381232
 21
73.733833
  0
LINE
  8
CutLine
  6
CONTINUOUS
 62
8
 10
1517.381232
 20
73.733833
 11
1521.032564
 21
67.678441
  0
LINE
  8
CutLine
  6
CONTINUOUS
 62
8
 10
1442.604957
 20
17.356709
 11
1435.965447
 21
14.924240
  0
LINE
  8
CutLine
  6
CONTINUOUS
 62
8
 10
1435.965447
 20
14.924240
 11
1393.095690
 21
34.804669
  0
LINE
  8
CutLine
  6
CONTINUOUS
 62
8
 10
1393.095690
 20
34.804669
 11
1390.663221
 21
41.444179
  0
LINE
  8
CutLine
  6
CONTINUOUS
 62
8
 10
1431.684675
 20
104.764612
 11
1428.193426
 21
110.913691
  0
LINE
  8
CutLine
  6
CONTINUOUS
 62
8
 10
1428.193426
 20
110.913691
 11
1445.166188
 21
172.476316
  0
LINE
  8
CutLine
  6
CONTINUOUS
 62
8
 10
1445.166188
 20
172.476316
 11
1451.315267
 21
175.967565
  0
LINE
  8
CutLine
  6
CONTINUOUS
 62
8
 10
1623.060740
 20
82.246190
 11
1607.334545
 21
77.118976
  0
LINE
  8
CutLine
  6
CONTINUOUS
 62
8
 10
1607.334545
 20
77.118976
 11
1527.157094
 21
76.471232
  0
LINE
  8
CutLine
  6
CONTINUOUS
 62
8
 10
1527.157094
 20
76.471232
 11
1522.116864
 21
81.430675
  0
LINE
  8
CutLine
  6
CONTINUOUS
 62
8
 10
1605.962353
 20
259.703147
 11
1611.656770
 21
255.511057
  0
LINE
  8
CutLine
  6
CONTINUOUS
 62
8
 10
1611.656770
 20
255.511057
 11
1620.998634
 21
194.034163
  0
LINE
  8
CutLine
  6
CONTINUOUS
 62
8
 10
1620.998634
 20
194.034163
 11
1616.806544
 21
188.339746
  0
LINE
  8
CutLine
  6
CONTINUOUS
 62
8
 10
1542.072404
 20
137.502617
 11
1521.362357
 21
175.190735
  0
LINE
  8
CutLine
  6
CONTINUOUS
 62
8
 10
1521.362357
 20
175.190735
 11
1523.336391
 21
181.980668
  0
LINE
  8
CutLine
  6
CONTINUOUS
 62
8
 10
1558.989642
 20
357.242340
 11
1559.010128
 21
364.313378
  0
LINE
  8
CutLine
  6
CONTINUOUS
 62
8
 10
1559.010128
 20
364.313378
 11
1588.721923
 21
393.853514
  0
LINE
  8
CutLine
  6
CONTINUOUS
 62
8
 10
1588.721923
 20
393.853514
 11
1595.792962
 21
393.833029
  0
LINE
  8
CutLine
  6
CONTINUOUS
 62
8
 10
1763.649892
 20
454.118151
 11
1768.570769
 21
459.196041
  0
LINE
  8
CutLine
  6
CONTINUOUS
 62
8
 10
1768.570769
 20
459.196041
 11
1823.490205
 21
460.058458
  0
LINE
  8
CutLine
  6
CONTINUOUS
 62
8
 10
1823.490205
 20
460.058458
 11
1829.939941
 21
455.159123
  0
LINE
  8
CutLine
  6
CONTINUOUS
 62
8
 10
1800.094250
 20
421.003316
 11
1798.484265
 21
414.117973
  0
LINE
  8
CutLine
  6
CONTINUOUS
 62
8
 10
1798.484265
 20
414.117973
 11
1753.004532
 21
385.876347
  0
LINE
  8
CutLine
  6
CONTINUOUS
 62
8
 10
1753.004532
 20
385.876347
 11
1746.119189
 21
387.486332
  0
LINE
  8
CutLine
  6
CONTINUOUS
 62
8
 10
1635.685676
 20
448.611890
 11
1640.638885
 21
453.658247
  0
LINE
  8
CutLine
  6
CONTINUOUS
 62
8
 10
1640.638885
 20
453.658247
 11
1690.131780
 21
454.119280
  0
LINE
  8
CutLine
  6
CONTINUOUS
 62
8
 10
1690.131780
 20
454.119280
 11
1695.178137
 21
449.166070
  0
LINE
  8
CutLine
  6
CONTINUOUS
 62
8
 10
1724.744734
 20
186.095818
 11
1718.528319
 21
182.725923
  0
LINE
  8
CutLine
  6
CONTINUOUS
 62
8
 10
1718.528319
 20
182.725923
 11
1652.809985
 21
202.240060
  0
LINE
  8
CutLine
  6
CONTINUOUS
 62
8
 10
1652.809985
 20
202.240060
 11
1647.799657
 21
208.943578
  0
LINE
  8
CutLine
  6
CONTINUOUS
 62
8
 10
1680.499931
 20
252.979705
 11
1681.551172
 21
259.972193
  0
LINE
  8
CutLine
  6
CONTINUOUS
 62
8
 10
1681.551172
 20
259.972193
 11
1727.739111
 21
294.087452
  0
LINE
  8
CutLine
  6
CONTINUOUS
 62
8
 10
1727.739111
 20
294.087452
 11
1734.731599
 21
293.036211
  0
LINE
  8
CutLine
  6
CONTINUOUS
 62
8
 10
1805.313426
 20
285.162293
 11
1805.485595
 21
278.093322
  0
LINE
  8
CutLine
  6
CONTINUOUS
 62
8
 10
1805.485595
 20
278.093322
 11
1765.035441
 21
235.623598
  0
LINE
  8
CutLine
  6
CONTINUOUS
 62
8
 10
1765.035441
 20
235.623598
 11
1757.966470
 21
235.451429
  0
LINE
  8
CutLine
  6
CONTINUOUS
 62
8
 10
1807.772419
 20
354.054123
 11
1814.406505
 21
356.501348
  0
LINE
  8
CutLine
  6
CONTINUOUS
 62
8
 10
1814.406505
 20
356.501348
 11
1846.516565
 21
341.697280
  0
LINE
  8
CutLine
  6
CONTINUOUS
 62
8
 10
1846.516565
 20
341.697280
 11
1848.963790
 21
335.063194
  0
LINE
  8
CutLine
  6
CONTINUOUS
 62
8
 10
1658.183592
 20
312.235983
 11
1652.950399
 21
307.480598
  0
LINE
  8
CutLine
  6
CONTINUOUS
 62
8
 10
1652.950399
 20
307.480598
 11
1608.151936
 21
309.623549
  0
LINE
  8
CutLine
  6
CONTINUOUS
 62
8
 10
1608.151936
 20
309.623549
 11
1603.396551
 21
314.856742
  0
LINE
  8
CutLine
  6
CONTINUOUS
 62
8
 10
1761.040650
 20
314.548444
 11
1730.306016
 21
314.200902
  0
LINE
  8
CutLine
  6
CONTINUOUS
 62
8
 10
1730.306016
 20
314.200902
 11
1725.249800
 21
319.144047
  0
LINE
  8
CutLine
  6
CONTINUOUS
 62
8
 10
1723.094059
 20
381.241795
 11
1742.765269
 21
377.804287
  0
LINE
  8
CutLine
  6
CONTINUOUS
 62
8
 10
1742.765269
 20
377.804287
 11
1746.829934
 21
372.018226
  0
LINE
  8
CutLine
  6
CONTINUOUS
 62
8
 10
1560.820962
 20
347.983978
 11
1565.720417
 21
354.510956
  0
LINE
  8
CutLine
  6
CONTINUOUS
 62
8
 10
1565.720417
 20
354.510956
 11
1589.430247
 21
361.008339
  0
LINE
  8
MountainLine
  6
CONTINUOUS
 62
5
 10
1401.693851
 20
220.654843
 11
1485.102840
 21
194.811656
  0
LINE
  8
CutLine
  6
CONTINUOUS
 62
8
 10
1485.102840
 20
194.811656
 11
1461.042292
 21
267.238095
  0
LINE
  8
ValleyLine
  6
CONTINUOUS
 62
1
 10
1461.042292
 20
267.238095
 11
1429.840040
 21
312.967341
  0
LINE
  8
ValleyLine
  6
CONTINUOUS
 62
1
 10
1429.840040
 20
312.967341
 11
1401.693851
 21
220.654843
  0
LINE
  8
CutLine
  6
CONTINUOUS
 62
8
 10
1416.031267
 20
352.866235
 11
1380.442097
 21
447.331795
  0
LINE
  8
ValleyLine
  6
CONTINUOUS
 62
1
 10
1380.442097
 20
447.331795
 11
1386.094747
 21
341.204489
  0
LINE
  8
MountainLine
  6
CONTINUOUS
 62
5
 10
1386.094747
 20
341.204489
 11
1416.031267
 21
352.866235
  0
LINE
  8
CutLine
  6
CONTINUOUS
 62
8
 10
1373.024444
 20
270.215062
 11
1401.693851
 21
220.654843
  0
LINE
  8
ValleyLine
  6
CONTINUOUS
 62
1
 10
1429.840040
 20
312.967341
 11
1416.031267
 21
352.866235
  0
LINE
  8
CutLine
  6
CONTINUOUS
 62
8
 10
1386.094747
 20
341.204489
 11
1373.024444
 21
270.215062
  0
LINE
  8
CutLine
  6
CONTINUOUS
 62
8
 10
1530.176653
 20
293.231571
 11
1529.564699
 21
308.462450
  0
LINE
  8
CutLine
  6
CONTINUOUS
 62
8
 10
1529.564699
 20
308.462450
 11
1529.257217
 21
316.115064
  0
LINE
  8
CutLine
  6
CONTINUOUS
 62
8
 10
1529.257217
 20
316.115064
 11
1524.924892
 21
335.884196
  0
LINE
  8
CutLine
  6
CONTINUOUS
 62
8
 10
1524.924892
 20
335.884196
 11
1523.148788
 21
343.988850
  0
LINE
  8
CutLine
  6
CONTINUOUS
 62
8
 10
1523.148788
 20
343.988850
 11
1520.465896
 21
350.383663
  0
LINE
  8
CutLine
  6
CONTINUOUS
 62
8
 10
1520.465896
 20
350.383663
 11
1468.966981
 21
392.008623
  0
LINE
  8
ValleyLine
  6
CONTINUOUS
 62
1
 10
1468.966981
 20
392.008623
 11
1461.042292
 21
267.238095
  0
LINE
  8
MountainLine
  6
CONTINUOUS
 62
5
 10
1461.042292
 20
267.238095
 11
1530.176653
 21
293.231571
  0
LINE
  8
ValleyLine
  6
CONTINUOUS
 62
1
 10
1421.297910
 20
455.791168
 11
1429.620539
 21
355.187665
  0
LINE
  8
ValleyLine
  6
CONTINUOUS
 62
1
 10
1468.966981
 20
392.008623
 11
1421.297910
 21
455.791168
  0
LINE
  8
CutLine
  6
CONTINUOUS
 62
8
 10
1429.620539
 20
355.187665
 11
1429.840040
 21
312.967341
  0
LINE
  8
CutLine
  6
CONTINUOUS
 62
8
 10
1574.265752
 20
403.763235
 11
1576.187855
 21
404.315313
  0
LINE
  8
CutLine
  6
CONTINUOUS
 62
8
 10
1576.187855
 20
404.315313
 11
1579.678349
 21
405.317887
  0
LINE
  8
MountainLine
  6
CONTINUOUS
 62
5
 10
1579.678349
 20
405.317887
 11
1599.574062
 21
454.821695
  0
LINE
  8
ValleyLine
  6
CONTINUOUS
 62
1
 10
1599.574062
 20
454.821695
 11
1527.522132
 21
459.163446
  0
LINE
  8
MountainLine
  6
CONTINUOUS
 62
5
 10
1527.522132
 20
459.163446
 11
1574.265752
 21
403.763235
  0
LINE
  8
CutLine
  6
CONTINUOUS
 62
8
 10
1570.482698
 20
402.432629
 11
1574.265752
 21
403.763235
  0
LINE
  8
CutLine
  6
CONTINUOUS
 62
8
 10
1527.522132
 20
459.163446
 11
1421.297910
 21
455.791168
  0
LINE
  8
ValleyLine
  6
CONTINUOUS
 62
1
 10
1421.297910
 20
455.791168
 11
1570.482698
 21
402.432629
  0
LINE
  8
CutLine
  6
CONTINUOUS
 62
8
 10
1529.647617
 20
365.501342
 11
1568.776733
 21
399.283198
  0
LINE
  8
MountainLine
  6
CONTINUOUS
 62
5
 10
1568.776733
 20
399.283198
 11
1468.966981
 21
392.008623
  0
LINE
  8
ValleyLine
  6
CONTINUOUS
 62
1
 10
1468.966981
 20
392.008623
 11
1529.647617
 21
365.501342
  0
LINE
  8
CutLine
  6
CONTINUOUS
 62
8
 10
1568.776733
 20
399.283198
 11
1570.482698
 21
402.432629
  0
LINE
  8
CutLine
  6
CONTINUOUS
 62
8
 10
1738.039148
 20
115.912388
 11
1778.368990
 21
83.249464
  0
LINE
  8
ValleyLine
  6
CONTINUOUS
 62
1
 10
1778.368990
 20
83.249464
 11
1803.448304
 21
114.516671
  0
LINE
  8
ValleyLine
  6
CONTINUOUS
 62
1
 10
1803.448304
 20
114.516671
 11
1738.039148
 21
115.912388
  0
LINE
  8
ValleyLine
  6
CONTINUOUS
 62
1
 10
1804.606327
 20
65.040629
 11
1892.096062
 21
110.621530
  0
LINE
  8
ValleyLine
  6
CONTINUOUS
 62
1
 10
1892.096062
 20
110.621530
 11
1803.448304
 21
114.516671
  0
LINE
  8
MountainLine
  6
CONTINUOUS
 62
5
 10
1778.368990
 20
83.249464
 11
1804.606327
 21
65.040629
  0
LINE
  8
CutLine
  6
CONTINUOUS
 62
8
 10
1950.725161
 20
39.819278
 11
2016.837065
 21
44.786207
  0
LINE
  8
ValleyLine
  6
CONTINUOUS
 62
1
 10
2016.837065
 20
44.786207
 11
1984.020673
 21
76.098645
  0
LINE
  8
MountainLine
  6
CONTINUOUS
 62
5
 10
1927.231925
 20
104.589585
 11
1882.086304
 21
38.549796
  0
LINE
  8
ValleyLine
  6
CONTINUOUS
 62
1
 10
1882.086304
 20
38.549796
 11
1950.725161
 21
39.819278
  0
LINE
  8
CutLine
  6
CONTINUOUS
 62
8
 10
1984.020673
 20
76.098645
 11
1927.231925
 21
104.589585
  0
LINE
  8
ValleyLine
  6
CONTINUOUS
 62
1
 10
1927.231925
 20
104.589585
 11
1892.096062
 21
110.621530
  0
LINE
  8
CutLine
  6
CONTINUOUS
 62
8
 10
1804.606327
 20
65.040629
 11
1822.910157
 21
32.398077
  0
LINE
  8
CutLine
  6
CONTINUOUS
 62
8
 10
1822.910157
 20
32.398077
 11
1882.086304
 21
38.549796
  0
LINE
  8
ValleyLine
  6
CONTINUOUS
 62
1
 10
1885.551725
 20
303.011084
 11
1811.325542
 21
272.465401
  0
LINE
  8
ValleyLine
  6
CONTINUOUS
 62
1
 10
1811.325542
 20
272.465401
 11
1848.329872
 21
231.978763
  0
LINE
  8
ValleyLine
  6
CONTINUOUS
 62
1
 10
2024.260393
 20
167.432477
 11
1975.766868
 21
212.641240
  0
LINE
  8
ValleyLine
  6
CONTINUOUS
 62
1
 10
1941.392187
 20
174.495543
 11
2024.260393
 21
167.432477
  0
LINE
  8
ValleyLine
  6
CONTINUOUS
 62
1
 10
1923.615175
 20
257.285447
 11
1885.551725
 21
303.011084
  0
LINE
  8
CutLine
  6
CONTINUOUS
 62
8
 10
1848.329872
 20
231.978763
 11
1906.349972
 21
197.638326
  0
LINE
  8
MountainLine
  6
CONTINUOUS
 62
5
 10
1906.349972
 20
197.638326
 11
1923.615175
 21
257.285447
  0
LINE
  8
CutLine
  6
CONTINUOUS
 62
8
 10
1975.766868
 20
212.641240
 11
1923.615175
 21
257.285447
  0
LINE
  8
ValleyLine
  6
CONTINUOUS
 62
1
 10
1906.349972
 20
197.638326
 11
1941.392187
 21
174.495543
  0
LINE
  8
ValleyLine
  6
CONTINUOUS
 62
1
 10
1926.408745
 20
120.293811
 11
1985.211196
 21
144.355549
  0
LINE
  8
ValleyLine
  6
CONTINUOUS
 62
1
 10
1985.211196
 20
144.355549
 11
1941.392187
 21
174.495543
  0
LINE
  8
ValleyLine
  6
CONTINUOUS
 62
1
 10
1941.392187
 20
174.495543
 11
1926.408745
 21
120.293811
  0
LINE
  8
CutLine
  6
CONTINUOUS
 62
8
 10
1985.211196
 20
144.355549
 11
2024.260393
 21
167.432477
  0
LINE
  8
CutLine
  6
CONTINUOUS
 62
8
 10
1832.148241
 20
170.762096
 11
1777.910812
 21
162.589608
  0
LINE
  8
MountainLine
  6
CONTINUOUS
 62
5
 10
1777.910812
 20
162.589608
 11
1803.448304
 21
114.516671
  0
LINE
  8
ValleyLine
  6
CONTINUOUS
 62
1
 10
1803.448304
 20
114.516671
 11
1832.148241
 21
170.762096
  0
LINE
  8
ValleyLine
  6
CONTINUOUS
 62
1
 10
1899.569261
 20
170.702372
 11
1832.148241
 21
170.762096
  0
LINE
  8
CutLine
  6
CONTINUOUS
 62
8
 10
1941.392187
 20
174.495543
 11
1899.569261
 21
170.702372
  0
LINE
  8
CutLine
  6
CONTINUOUS
 62
8
 10
1892.096062
 20
110.621530
 11
1926.408745
 21
120.293811
  0
LINE
  8
CutLine
  6
CONTINUOUS
 62
8
 10
1777.910812
 20
162.589608
 11
1738.920528
 21
125.308885
  0
LINE
  8
CutLine
  6
CONTINUOUS
 62
8
 10
1738.920528
 20
125.308885
 11
1803.448304
 21
114.516671
  0
LINE
  8
ValleyLine
  6
CONTINUOUS
 62
1
 10
1431.684675
 20
104.764612
 11
1357.378069
 21
122.172294
  0
LINE
  8
CutLine
  6
CONTINUOUS
 62
8
 10
1357.378069
 20
122.172294
 11
1390.663221
 21
41.444179
  0
LINE
  8
ValleyLine
  6
CONTINUOUS
 62
1
 10
1390.663221
 20
41.444179
 11
1480.049906
 21
77.828597
  0
LINE
  8
ValleyLine
  6
CONTINUOUS
 62
1
 10
1480.049906
 20
77.828597
 11
1431.684675
 21
104.764612
  0
LINE
  8
CutLine
  6
CONTINUOUS
 62
8
 10
1618.320942
 20
40.747000
 11
1521.032564
 21
67.678441
  0
LINE
  8
MountainLine
  6
CONTINUOUS
 62
5
 10
1521.032564
 20
67.678441
 11
1512.116047
 21
36.812809
  0
LINE
  8
ValleyLine
  6
CONTINUOUS
 62
1
 10
1512.116047
 20
36.812809
 11
1618.320942
 21
40.747000
  0
LINE
  8
ValleyLine
  6
CONTINUOUS
 62
1
 10
1521.032564
 20
67.678441
 11
1480.049906
 21
77.828597
  0
LINE
  8
MountainLine
  6
CONTINUOUS
 62
5
 10
1390.663221
 20
41.444179
 11
1442.604957
 21
17.356709
  0
LINE
  8
CutLine
  6
CONTINUOUS
 62
8
 10
1442.604957
 20
17.356709
 11
1512.116047
 21
36.812809
  0
LINE
  8
CutLine
  6
CONTINUOUS
 62
8
 10
1555.226136
 20
123.947749
 11
1509.111629
 21
171.468562
  0
LINE
  8
CutLine
  6
CONTINUOUS
 62
8
 10
1509.111629
 20
171.468562
 11
1502.255993
 21
170.423671
  0
LINE
  8
CutLine
  6
CONTINUOUS
 62
8
 10
1502.255993
 20
170.423671
 11
1493.962804
 21
170.674644
  0
LINE
  8
CutLine
  6
CONTINUOUS
 62
8
 10
1493.962804
 20
170.674644
 11
1473.733794
 21
171.286831
  0
LINE
  8
CutLine
  6
CONTINUOUS
 62
8
 10
1473.733794
 20
171.286831
 11
1466.236672
 21
172.852145
  0
LINE
  8
CutLine
  6
CONTINUOUS
 62
8
 10
1466.236672
 20
172.852145
 11
1451.315267
 21
175.967565
  0
LINE
  8
MountainLine
  6
CONTINUOUS
 62
5
 10
1451.315267
 20
175.967565
 11
1431.684675
 21
104.764612
  0
LINE
  8
ValleyLine
  6
CONTINUOUS
 62
1
 10
1431.684675
 20
104.764612
 11
1555.226136
 21
123.947749
  0
LINE
  8
ValleyLine
  6
CONTINUOUS
 62
1
 10
1522.116864
 20
81.430675
 11
1623.060740
 21
82.246190
  0
LINE
  8
ValleyLine
  6
CONTINUOUS
 62
1
 10
1623.060740
 20
82.246190
 11
1555.226136
 21
123.947749
  0
LINE
  8
CutLine
  6
CONTINUOUS
 62
8
 10
1480.049906
 20
77.828597
 11
1522.116864
 21
81.430675
  0
LINE
  8
CutLine
  6
CONTINUOUS
 62
8
 10
1605.962353
 20
259.703147
 11
1558.462097
 21
235.409276
  0
LINE
  8
CutLine
  6
CONTINUOUS
 62
8
 10
1558.462097
 20
235.409276
 11
1557.779515
 21
231.842375
  0
LINE
  8
CutLine
  6
CONTINUOUS
 62
8
 10
1557.779515
 20
231.842375
 11
1557.403631
 21
229.878200
  0
LINE
  8
MountainLine
  6
CONTINUOUS
 62
5
 10
1557.403631
 20
229.878200
 11
1616.806544
 21
188.339746
  0
LINE
  8
ValleyLine
  6
CONTINUOUS
 62
1
 10
1616.806544
 20
188.339746
 11
1605.962353
 21
259.703147
  0
LINE
  8
ValleyLine
  6
CONTINUOUS
 62
1
 10
1556.420827
 20
225.990256
 11
1623.060740
 21
82.246190
  0
LINE
  8
CutLine
  6
CONTINUOUS
 62
8
 10
1623.060740
 20
82.246190
 11
1616.806544
 21
188.339746
  0
LINE
  8
CutLine
  6
CONTINUOUS
 62
8
 10
1557.403631
 20
229.878200
 11
1556.420827
 21
225.990256
  0
LINE
  8
CutLine
  6
CONTINUOUS
 62
8
 10
1553.438697
 20
224.006287
 11
1523.336391
 21
181.980668
  0
LINE
  8
ValleyLine
  6
CONTINUOUS
 62
1
 10
1523.336391
 20
181.980668
 11
1555.226136
 21
123.947749
  0
LINE
  8
MountainLine
  6
CONTINUOUS
 62
5
 10
1555.226136
 20
123.947749
 11
1553.438697
 21
224.006287
  0
LINE
  8
CutLine
  6
CONTINUOUS
 62
8
 10
1556.420827
 20
225.990256
 11
1553.438697
 21
224.006287
  0
LINE
  8
MountainLine
  6
CONTINUOUS
 62
5
 10
1595.792962
 20
393.833029
 11
1558.989642
 21
357.242340
  0
LINE
  8
CutLine
  6
CONTINUOUS
 62
8
 10
1558.989642
 20
357.242340
 11
1623.918681
 21
365.275120
  0
LINE
  8
ValleyLine
  6
CONTINUOUS
 62
1
 10
1623.918681
 20
365.275120
 11
1595.792962
 21
393.833029
  0
LINE
  8
CutLine
  6
CONTINUOUS
 62
8
 10
1620.044921
 20
414.612872
 11
1595.792962
 21
393.833029
  0
LINE
  8
ValleyLine
  6
CONTINUOUS
 62
1
 10
1623.918681
 20
365.275120
 11
1711.712225
 21
378.154982
  0
LINE
  8
ValleyLine
  6
CONTINUOUS
 62
1
 10
1711.712225
 20
378.154982
 11
1620.044921
 21
414.612872
  0
LINE
  8
CutLine
  6
CONTINUOUS
 62
8
 10
1800.094250
 20
421.003316
 11
1829.939941
 21
455.159123
  0
LINE
  8
ValleyLine
  6
CONTINUOUS
 62
1
 10
1829.939941
 20
455.159123
 11
1763.649892
 21
454.118151
  0
LINE
  8
CutLine
  6
CONTINUOUS
 62
8
 10
1763.649892
 20
454.118151
 11
1695.178137
 21
449.166070
  0
LINE
  8
ValleyLine
  6
CONTINUOUS
 62
1
 10
1746.119189
 20
387.486332
 11
1800.094250
 21
421.003316
  0
LINE
  8
CutLine
  6
CONTINUOUS
 62
8
 10
1635.685676
 20
448.611890
 11
1620.044921
 21
414.612872
  0
LINE
  8
CutLine
  6
CONTINUOUS
 62
8
 10
1711.712225
 20
378.154982
 11
1746.119189
 21
387.486332
  0
LINE
  8
ValleyLine
  6
CONTINUOUS
 62
1
 10
1695.178137
 20
449.166070
 11
1635.685676
 21
448.611890
  0
LINE
  8
ValleyLine
  6
CONTINUOUS
 62
1
 10
1647.799657
 20
208.943578
 11
1724.744734
 21
186.095818
  0
LINE
  8
CutLine
  6
CONTINUOUS
 62
8
 10
1680.499931
 20
252.979705
 11
1647.799657
 21
208.943578
  0
LINE
  8
CutLine
  6
CONTINUOUS
 62
8
 10
1805.313426
 20
285.162293
 11
1848.963790
 21
335.063194
  0
LINE
  8
ValleyLine
  6
CONTINUOUS
 62
1
 10
1848.963790
 20
335.063194
 11
1767.241701
 21
319.618884
  0
LINE
  8
MountainLine
  6
CONTINUOUS
 62
5
 10
1757.966470
 20
235.451429
 11
1734.731599
 21
293.036211
  0
LINE
  8
ValleyLine
  6
CONTINUOUS
 62
1
 10
1734.731599
 20
293.036211
 11
1680.499931
 21
252.979705
  0
LINE
  8
CutLine
  6
CONTINUOUS
 62
8
 10
1724.744734
 20
186.095818
 11
1757.966470
 21
235.451429
  0
LINE
  8
CutLine
  6
CONTINUOUS
 62
8
 10
1767.241701
 20
319.618884
 11
1734.731599
 21
293.036211
  0
LINE
  8
ValleyLine
  6
CONTINUOUS
 62
1
 10
1757.966470
 20
235.451429
 11
1805.313426
 21
285.162293
  0
LINE
  8
CutLine
  6
CONTINUOUS
 62
8
 10
1807.772419
 20
354.054123
 11
1746.829934
 21
372.018226
  0
LINE
  8
ValleyLine
  6
CONTINUOUS
 62
1
 10
1746.829934
 20
372.018226
 11
1767.241701
 21
319.618884
  0
LINE
  8
ValleyLine
  6
CONTINUOUS
 62
1
 10
1767.241701
 20
319.618884
 11
1807.772419
 21
354.054123
  0
LINE
  8
ValleyLine
  6
CONTINUOUS
 62
1
 10
1848.963790
 20
335.063194
 11
1807.772419
 21
354.054123
  0
LINE
  8
ValleyLine
  6
CONTINUOUS
 62
1
 10
1603.396551
 20
314.856742
 11
1658.183592
 21
312.235983
  0
LINE
  8
ValleyLine
  6
CONTINUOUS
 62
1
 10
1658.183592
 20
312.235983
 11
1623.918681
 21
365.275120
  0
LINE
  8
MountainLine
  6
CONTINUOUS
 62
5
 10
1623.918681
 20
365.275120
 11
1603.396551
 21
314.856742
  0
LINE
  8
CutLine
  6
CONTINUOUS
 62
8
 10
1658.183592
 20
312.235983
 11
1725.249800
 21
319.144047
  0
LINE
  8
ValleyLine
  6
CONTINUOUS
 62
1
 10
1725.249800
 20
319.144047
 11
1767.241701
 21
319.618884
  0
LINE
  8
ValleyLine
  6
CONTINUOUS
 62
1
 10
1746.829934
 20
372.018226
 11
1711.712225
 21
378.154982
  0
LINE
  8
ValleyLine
  6
CONTINUOUS
 62
1
 10
1623.918681
 20
365.275120
 11
1560.820962
 21
347.983978
  0
LINE
  8
CutLine
  6
CONTINUOUS
 62
8
 10
1560.820962
 20
347.983978
 11
1603.396551
 21
314.856742
  0
ENDSEC
  0
EOF
