  0
SECTION
  2
HEADER
  9
$ACADVER
  1
AC1009
  0
ENDSEC
  0
SECTION
  2
BLOCKS
  0
ENDSEC
  0
SECTION
  2
ENTITIES
  0
LINE
  8
CutLine
  6
CONTINUOUS
 62
8
 10
2665.508230
 20
103.712616
 11
2670.093960
 21
96.011529
  0
LINE
  8
CutLine
  6
CONTINUOUS
 62
8
 10
2670.093960
 20
96.011529
 11
2668.407482
 21
65.217656
  0
LINE
  8
CutLine
  6
CONTINUOUS
 62
8
 10
2668.407482
 20
65.217656
 11
2663.141540
 21
60.498561
  0
LINE
  8
CutLine
  6
CONTINUOUS
 62
8
 10
2240.034878
 20
141.543932
 11
2244.863746
 21
209.448800
  0
LINE
  8
CutLine
  6
CONTINUOUS
 62
8
 10
2244.863746
 20
209.448800
 11
2250.205817
 21
214.081540
  0
LINE
  8
CutLine
  6
CONTINUOUS
 62
8
 10
2206.639304
 20
24.757115
 11
2201.446684
 21
19.957458
  0
LINE
  8
CutLine
  6
CONTINUOUS
 62
8
 10
2201.446684
 20
19.957458
 11
2173.472028
 21
21.057609
  0
LINE
  8
CutLine
  6
CONTINUOUS
 62
8
 10
2173.472028
 20
21.057609
 11
2168.672371
 21
26.250228
  0
LINE
  8
CutLine
  6
CONTINUOUS
 62
8
 10
2042.109025
 20
174.861322
 11
2046.003893
 21
180.763017
  0
LINE
  8
CutLine
  6
CONTINUOUS
 62
8
 10
2046.003893
 20
180.763017
 11
2225.142932
 21
217.459657
  0
LINE
  8
CutLine
  6
CONTINUOUS
 62
8
 10
2225.142932
 20
217.459657
 11
2231.200540
 21
213.596728
  0
LINE
  8
CutLine
  6
CONTINUOUS
 62
8
 10
2168.672371
 20
26.250228
 11
2161.623892
 21
26.814972
  0
LINE
  8
CutLine
  6
CONTINUOUS
 62
8
 10
2161.623892
 20
26.814972
 11
2041.544281
 21
167.812843
  0
LINE
  8
CutLine
  6
CONTINUOUS
 62
8
 10
2041.544281
 20
167.812843
 11
2042.109025
 21
174.861322
  0
LINE
  8
CutLine
  6
CONTINUOUS
 62
8
 10
2614.572352
 20
75.212114
 11
2619.454278
 21
70.096765
  0
LINE
  8
CutLine
  6
CONTINUOUS
 62
8
 10
2619.454278
 20
70.096765
 11
2618.425608
 21
26.039956
  0
LINE
  8
CutLine
  6
CONTINUOUS
 62
8
 10
2618.425608
 20
26.039956
 11
2613.310258
 21
21.158030
  0
LINE
  8
CutLine
  6
CONTINUOUS
 62
8
 10
2552.605104
 20
180.522595
 11
2559.518397
 21
179.037210
  0
LINE
  8
CutLine
  6
CONTINUOUS
 62
8
 10
2559.518397
 20
179.037210
 11
2579.166117
 21
148.636011
  0
LINE
  8
CutLine
  6
CONTINUOUS
 62
8
 10
2579.166117
 20
148.636011
 11
2577.680732
 21
141.722717
  0
LINE
  8
CutLine
  6
CONTINUOUS
 62
8
 10
2484.942764
 20
143.562544
 11
2486.346498
 21
150.831397
  0
LINE
  8
CutLine
  6
CONTINUOUS
 62
8
 10
2486.346498
 20
150.831397
 11
2513.825043
 21
171.228002
  0
LINE
  8
CutLine
  6
CONTINUOUS
 62
8
 10
2513.825043
 20
171.228002
 11
2520.819994
 21
170.193272
  0
LINE
  8
CutLine
  6
CONTINUOUS
 62
8
 10
2580.625102
 20
51.944838
 11
2574.372791
 21
48.642021
  0
LINE
  8
CutLine
  6
CONTINUOUS
 62
8
 10
2574.372791
 20
48.642021
 11
2521.600448
 21
64.931881
  0
LINE
  8
CutLine
  6
CONTINUOUS
 62
8
 10
2521.600448
 20
64.931881
 11
2518.297630
 21
71.184192
  0
LINE
  8
CutLine
  6
CONTINUOUS
 62
8
 10
2577.680732
 20
141.722717
 11
2582.409456
 21
146.980013
  0
LINE
  8
CutLine
  6
CONTINUOUS
 62
8
 10
2582.409456
 20
146.980013
 11
2610.548278
 21
148.469433
  0
LINE
  8
CutLine
  6
CONTINUOUS
 62
8
 10
2610.548278
 20
148.469433
 11
2615.805575
 21
143.740709
  0
LINE
  8
CutLine
  6
CONTINUOUS
 62
8
 10
2048.346297
 20
306.540179
 11
2044.683753
 21
312.588797
  0
LINE
  8
CutLine
  6
CONTINUOUS
 62
8
 10
2044.683753
 20
312.588797
 11
2058.621467
 21
369.314342
  0
LINE
  8
CutLine
  6
CONTINUOUS
 62
8
 10
2058.621467
 20
369.314342
 11
2064.670085
 21
372.976885
  0
LINE
  8
CutLine
  6
CONTINUOUS
 62
8
 10
2201.408692
 20
465.413379
 11
2208.437061
 21
464.637472
  0
LINE
  8
CutLine
  6
CONTINUOUS
 62
8
 10
2208.437061
 20
464.637472
 11
2248.963181
 21
414.053073
  0
LINE
  8
CutLine
  6
CONTINUOUS
 62
8
 10
2248.963181
 20
414.053073
 11
2248.187274
 21
407.024704
  0
LINE
  8
CutLine
  6
CONTINUOUS
 62
8
 10
2455.123606
 20
445.375790
 11
2460.771372
 21
441.121059
  0
LINE
  8
CutLine
  6
CONTINUOUS
 62
8
 10
2460.771372
 20
441.121059
 11
2470.254646
 21
373.708474
  0
LINE
  8
CutLine
  6
CONTINUOUS
 62
8
 10
2474.117278
 20
446.197998
 11
2479.895143
 21
450.468023
  0
LINE
  8
CutLine
  6
CONTINUOUS
 62
8
 10
2479.895143
 20
450.468023
 11
2661.132271
 21
426.166953
  0
LINE
  8
CutLine
  6
CONTINUOUS
 62
8
 10
2661.132271
 20
426.166953
 11
2665.423447
 21
420.546828
  0
LINE
  8
CutLine
  6
CONTINUOUS
 62
8
 10
2106.198344
 20
227.844381
 11
2100.753619
 21
232.356029
  0
LINE
  8
CutLine
  6
CONTINUOUS
 62
8
 10
2100.753619
 20
232.356029
 11
2096.641657
 21
276.232587
  0
LINE
  8
CutLine
  6
CONTINUOUS
 62
8
 10
2096.641657
 20
276.232587
 11
2101.153305
 21
281.677312
  0
LINE
  8
CutLine
  6
CONTINUOUS
 62
8
 10
2136.646864
 20
260.844905
 11
2136.909400
 21
253.778712
  0
LINE
  8
CutLine
  6
CONTINUOUS
 62
8
 10
2136.909400
 20
253.778712
 11
2122.632253
 21
238.399728
  0
LINE
  8
CutLine
  6
CONTINUOUS
 62
8
 10
2122.632253
 20
238.399728
 11
2115.566060
 21
238.137192
  0
LINE
  8
CutLine
  6
CONTINUOUS
 62
8
 10
2095.123247
 20
349.951227
 11
2092.424815
 21
356.487164
  0
LINE
  8
CutLine
  6
CONTINUOUS
 62
8
 10
2092.424815
 20
356.487164
 11
2103.238218
 21
382.507963
  0
LINE
  8
CutLine
  6
CONTINUOUS
 62
8
 10
2103.238218
 20
382.507963
 11
2109.774155
 21
385.206395
  0
LINE
  8
CutLine
  6
CONTINUOUS
 62
8
 10
2155.596187
 20
391.085091
 11
2154.562595
 21
398.080209
  0
LINE
  8
CutLine
  6
CONTINUOUS
 62
8
 10
2154.562595
 20
398.080209
 11
2172.248341
 21
421.898562
  0
LINE
  8
CutLine
  6
CONTINUOUS
 62
8
 10
2172.248341
 20
421.898562
 11
2179.243460
 21
422.932155
  0
LINE
  8
CutLine
  6
CONTINUOUS
 62
8
 10
2665.508230
 20
103.712616
 11
2644.571187
 21
168.842811
  0
LINE
  8
CutLine
  6
CONTINUOUS
 62
8
 10
2644.571187
 20
168.842811
 11
2615.805575
 21
143.740709
  0
LINE
  8
ValleyLine
  6
CONTINUOUS
 62
1
 10
2615.805575
 20
143.740709
 11
2663.141540
 21
60.498561
  0
LINE
  8
MountainLine
  6
CONTINUOUS
 62
5
 10
2663.141540
 20
60.498561
 11
2665.508230
 21
103.712616
  0
LINE
  8
ValleyLine
  6
CONTINUOUS
 62
1
 10
2615.805575
 20
143.740709
 11
2614.572352
 21
75.212114
  0
LINE
  8
CutLine
  6
CONTINUOUS
 62
8
 10
2614.572352
 20
75.212114
 11
2663.141540
 21
60.498561
  0
LINE
  8
ValleyLine
  6
CONTINUOUS
 62
1
 10
2484.942764
 20
143.562544
 11
2459.288166
 21
190.039436
  0
LINE
  8
ValleyLine
  6
CONTINUOUS
 62
1
 10
2459.288166
 20
190.039436
 11
2386.964667
 21
83.139155
  0
LINE
  8
CutLine
  6
CONTINUOUS
 62
8
 10
2386.964667
 20
83.139155
 11
2392.337911
 21
82.872465
  0
LINE
  8
CutLine
  6
CONTINUOUS
 62
8
 10
2392.337911
 20
82.872465
 11
2401.180771
 21
82.433571
  0
LINE
  8
CutLine
  6
CONTINUOUS
 62
8
 10
2401.180771
 20
82.433571
 11
2405.880590
 21
81.420727
  0
LINE
  8
CutLine
  6
CONTINUOUS
 62
8
 10
2405.880590
 20
81.420727
 11
2431.064381
 21
75.993527
  0
LINE
  8
CutLine
  6
CONTINUOUS
 62
8
 10
2431.064381
 20
75.993527
 11
2434.044250
 21
74.329933
  0
LINE
  8
CutLine
  6
CONTINUOUS
 62
8
 10
2434.044250
 20
74.329933
 11
2454.687012
 21
62.805552
  0
LINE
  8
CutLine
  6
CONTINUOUS
 62
8
 10
2454.687012
 20
62.805552
 11
2456.391286
 21
60.586613
  0
LINE
  8
CutLine
  6
CONTINUOUS
 62
8
 10
2456.391286
 20
60.586613
 11
2465.493163
 21
48.736113
  0
LINE
  8
CutLine
  6
CONTINUOUS
 62
8
 10
2465.493163
 20
48.736113
 11
2518.297630
 21
71.184192
  0
LINE
  8
MountainLine
  6
CONTINUOUS
 62
5
 10
2518.297630
 20
71.184192
 11
2484.942764
 21
143.562544
  0
LINE
  8
CutLine
  6
CONTINUOUS
 62
8
 10
2484.942764
 20
143.562544
 11
2502.084627
 21
251.406658
  0
LINE
  8
CutLine
  6
CONTINUOUS
 62
8
 10
2502.084627
 20
251.406658
 11
2459.288166
 21
190.039436
  0
LINE
  8
CutLine
  6
CONTINUOUS
 62
8
 10
2295.324427
 20
76.970651
 11
2311.393021
 21
73.091240
  0
LINE
  8
CutLine
  6
CONTINUOUS
 62
8
 10
2311.393021
 20
73.091240
 11
2319.735827
 21
72.640543
  0
LINE
  8
CutLine
  6
CONTINUOUS
 62
8
 10
2319.735827
 20
72.640543
 11
2344.530350
 21
71.301079
  0
LINE
  8
CutLine
  6
CONTINUOUS
 62
8
 10
2344.530350
 20
71.301079
 11
2350.727347
 21
72.402123
  0
LINE
  8
CutLine
  6
CONTINUOUS
 62
8
 10
2350.727347
 20
72.402123
 11
2373.596220
 21
76.465317
  0
LINE
  8
CutLine
  6
CONTINUOUS
 62
8
 10
2373.596220
 20
76.465317
 11
2378.047577
 21
78.687538
  0
LINE
  8
CutLine
  6
CONTINUOUS
 62
8
 10
2378.047577
 20
78.687538
 11
2386.964667
 21
83.139155
  0
LINE
  8
CutLine
  6
CONTINUOUS
 62
8
 10
2459.288166
 20
190.039436
 11
2250.205817
 21
214.081540
  0
LINE
  8
ValleyLine
  6
CONTINUOUS
 62
1
 10
2250.205817
 20
214.081540
 11
2243.207445
 21
115.668503
  0
LINE
  8
ValleyLine
  6
CONTINUOUS
 62
1
 10
2243.207445
 20
115.668503
 11
2295.324427
 21
76.970651
  0
LINE
  8
ValleyLine
  6
CONTINUOUS
 62
1
 10
2168.672371
 20
26.250228
 11
2206.639304
 21
24.757115
  0
LINE
  8
CutLine
  6
CONTINUOUS
 62
8
 10
2206.639304
 20
24.757115
 11
2210.943793
 21
29.311573
  0
LINE
  8
CutLine
  6
CONTINUOUS
 62
8
 10
2210.943793
 20
29.311573
 11
2218.798826
 21
35.079281
  0
LINE
  8
CutLine
  6
CONTINUOUS
 62
8
 10
2218.798826
 20
35.079281
 11
2233.276446
 21
45.709761
  0
LINE
  8
CutLine
  6
CONTINUOUS
 62
8
 10
2233.276446
 20
45.709761
 11
2241.463436
 21
49.686445
  0
LINE
  8
CutLine
  6
CONTINUOUS
 62
8
 10
2241.463436
 20
49.686445
 11
2258.060220
 21
57.748047
  0
LINE
  8
CutLine
  6
CONTINUOUS
 62
8
 10
2258.060220
 20
57.748047
 11
2265.808672
 21
61.112518
  0
LINE
  8
CutLine
  6
CONTINUOUS
 62
8
 10
2265.808672
 20
61.112518
 11
2283.060240
 21
68.603362
  0
LINE
  8
CutLine
  6
CONTINUOUS
 62
8
 10
2283.060240
 20
68.603362
 11
2289.521783
 21
73.011766
  0
LINE
  8
CutLine
  6
CONTINUOUS
 62
8
 10
2289.521783
 20
73.011766
 11
2295.324427
 21
76.970651
  0
LINE
  8
ValleyLine
  6
CONTINUOUS
 62
1
 10
2243.207445
 20
115.668503
 11
2168.672371
 21
26.250228
  0
LINE
  8
ValleyLine
  6
CONTINUOUS
 62
1
 10
2231.200540
 20
213.596728
 11
2042.109025
 21
174.861322
  0
LINE
  8
ValleyLine
  6
CONTINUOUS
 62
1
 10
2042.109025
 20
174.861322
 11
2168.672371
 21
26.250228
  0
LINE
  8
CutLine
  6
CONTINUOUS
 62
8
 10
2243.207445
 20
115.668503
 11
2231.200540
 21
213.596728
  0
LINE
  8
ValleyLine
  6
CONTINUOUS
 62
1
 10
2613.310258
 20
21.158030
 11
2614.572352
 21
75.212114
  0
LINE
  8
CutLine
  6
CONTINUOUS
 62
8
 10
2603.244622
 20
30.769431
 11
2613.310258
 21
21.158030
  0
LINE
  8
ValleyLine
  6
CONTINUOUS
 62
1
 10
2614.572352
 20
75.212114
 11
2580.625102
 21
51.944838
  0
LINE
  8
CutLine
  6
CONTINUOUS
 62
8
 10
2580.625102
 20
51.944838
 11
2603.244622
 21
30.769431
  0
LINE
  8
ValleyLine
  6
CONTINUOUS
 62
1
 10
2577.680732
 20
141.722717
 11
2552.605104
 21
180.522595
  0
LINE
  8
ValleyLine
  6
CONTINUOUS
 62
1
 10
2520.819994
 20
170.193272
 11
2484.942764
 21
143.562544
  0
LINE
  8
ValleyLine
  6
CONTINUOUS
 62
1
 10
2518.297630
 20
71.184192
 11
2580.625102
 21
51.944838
  0
LINE
  8
ValleyLine
  6
CONTINUOUS
 62
1
 10
2615.805575
 20
143.740709
 11
2577.680732
 21
141.722717
  0
LINE
  8
CutLine
  6
CONTINUOUS
 62
8
 10
2552.605104
 20
180.522595
 11
2526.788459
 21
210.637872
  0
LINE
  8
CutLine
  6
CONTINUOUS
 62
8
 10
2526.788459
 20
210.637872
 11
2520.819994
 21
170.193272
  0
LINE
  8
CutLine
  6
CONTINUOUS
 62
8
 10
2095.123247
 20
349.951227
 11
2064.670085
 21
372.976885
  0
LINE
  8
MountainLine
  6
CONTINUOUS
 62
5
 10
2064.670085
 20
372.976885
 11
2048.346297
 21
306.540179
  0
LINE
  8
CutLine
  6
CONTINUOUS
 62
8
 10
2048.346297
 20
306.540179
 11
2053.733964
 21
263.598022
  0
LINE
  8
ValleyLine
  6
CONTINUOUS
 62
1
 10
2053.733964
 20
263.598022
 11
2095.123247
 21
349.951227
  0
LINE
  8
ValleyLine
  6
CONTINUOUS
 62
1
 10
2101.153305
 20
281.677312
 11
2095.123247
 21
349.951227
  0
LINE
  8
CutLine
  6
CONTINUOUS
 62
8
 10
2053.733964
 20
263.598022
 11
2101.153305
 21
281.677312
  0
LINE
  8
CutLine
  6
CONTINUOUS
 62
8
 10
2259.966993
 20
278.172616
 11
2262.695465
 21
277.553194
  0
LINE
  8
CutLine
  6
CONTINUOUS
 62
8
 10
2262.695465
 20
277.553194
 11
2285.933024
 21
281.906446
  0
LINE
  8
CutLine
  6
CONTINUOUS
 62
8
 10
2285.933024
 20
281.906446
 11
2289.287464
 21
282.534853
  0
LINE
  8
CutLine
  6
CONTINUOUS
 62
8
 10
2289.287464
 20
282.534853
 11
2312.113845
 21
294.477807
  0
LINE
  8
CutLine
  6
CONTINUOUS
 62
8
 10
2312.113845
 20
294.477807
 11
2316.373733
 21
296.706598
  0
LINE
  8
CutLine
  6
CONTINUOUS
 62
8
 10
2316.373733
 20
296.706598
 11
2323.409759
 21
302.080901
  0
LINE
  8
CutLine
  6
CONTINUOUS
 62
8
 10
2323.409759
 20
302.080901
 11
2327.685107
 21
305.346521
  0
LINE
  8
ValleyLine
  6
CONTINUOUS
 62
1
 10
2327.685107
 20
305.346521
 11
2248.187274
 21
407.024704
  0
LINE
  8
ValleyLine
  6
CONTINUOUS
 62
1
 10
2248.187274
 20
407.024704
 11
2225.676829
 21
358.946230
  0
LINE
  8
MountainLine
  6
CONTINUOUS
 62
5
 10
2225.676829
 20
358.946230
 11
2197.470643
 21
284.410439
  0
LINE
  8
CutLine
  6
CONTINUOUS
 62
8
 10
2197.470643
 20
284.410439
 11
2251.717041
 21
265.714012
  0
LINE
  8
CutLine
  6
CONTINUOUS
 62
8
 10
2251.717041
 20
265.714012
 11
2259.966993
 21
278.172616
  0
LINE
  8
CutLine
  6
CONTINUOUS
 62
8
 10
2201.408692
 20
465.413379
 11
2225.676829
 21
358.946230
  0
LINE
  8
ValleyLine
  6
CONTINUOUS
 62
1
 10
2248.187274
 20
407.024704
 11
2201.408692
 21
465.413379
  0
LINE
  8
CutLine
  6
CONTINUOUS
 62
8
 10
2455.123606
 20
445.375790
 11
2248.187274
 21
407.024704
  0
LINE
  8
CutLine
  6
CONTINUOUS
 62
8
 10
2327.685107
 20
305.346521
 11
2336.875096
 21
309.203398
  0
LINE
  8
CutLine
  6
CONTINUOUS
 62
8
 10
2336.875096
 20
309.203398
 11
2341.462682
 21
311.128729
  0
LINE
  8
CutLine
  6
CONTINUOUS
 62
8
 10
2341.462682
 20
311.128729
 11
2364.548880
 21
313.682618
  0
LINE
  8
CutLine
  6
CONTINUOUS
 62
8
 10
2364.548880
 20
313.682618
 11
2370.804768
 21
314.374670
  0
LINE
  8
CutLine
  6
CONTINUOUS
 62
8
 10
2370.804768
 20
314.374670
 11
2395.457977
 21
311.411253
  0
LINE
  8
CutLine
  6
CONTINUOUS
 62
8
 10
2395.457977
 20
311.411253
 11
2403.753234
 21
310.414132
  0
LINE
  8
CutLine
  6
CONTINUOUS
 62
8
 10
2403.753234
 20
310.414132
 11
2419.532671
 21
305.488800
  0
LINE
  8
ValleyLine
  6
CONTINUOUS
 62
1
 10
2419.532671
 20
305.488800
 11
2468.867507
 21
347.676209
  0
LINE
  8
ValleyLine
  6
CONTINUOUS
 62
1
 10
2468.867507
 20
347.676209
 11
2455.123606
 21
445.375790
  0
LINE
  8
CutLine
  6
CONTINUOUS
 62
8
 10
2419.532671
 20
305.488800
 11
2424.537247
 21
300.559533
  0
LINE
  8
CutLine
  6
CONTINUOUS
 62
8
 10
2424.537247
 20
300.559533
 11
2430.110106
 21
295.070562
  0
LINE
  8
CutLine
  6
CONTINUOUS
 62
8
 10
2430.110106
 20
295.070562
 11
2445.751337
 21
284.626366
  0
LINE
  8
CutLine
  6
CONTINUOUS
 62
8
 10
2445.751337
 20
284.626366
 11
2452.776516
 21
279.935413
  0
LINE
  8
CutLine
  6
CONTINUOUS
 62
8
 10
2452.776516
 20
279.935413
 11
2469.738488
 21
272.673585
  0
LINE
  8
CutLine
  6
CONTINUOUS
 62
8
 10
2469.738488
 20
272.673585
 11
2478.105617
 21
269.091410
  0
LINE
  8
CutLine
  6
CONTINUOUS
 62
8
 10
2478.105617
 20
269.091410
 11
2495.620899
 21
265.113536
  0
LINE
  8
CutLine
  6
CONTINUOUS
 62
8
 10
2495.620899
 20
265.113536
 11
2505.124053
 21
262.955281
  0
LINE
  8
CutLine
  6
CONTINUOUS
 62
8
 10
2505.124053
 20
262.955281
 11
2511.384957
 21
262.685461
  0
LINE
  8
ValleyLine
  6
CONTINUOUS
 62
1
 10
2511.384957
 20
262.685461
 11
2549.370454
 21
263.590653
  0
LINE
  8
ValleyLine
  6
CONTINUOUS
 62
1
 10
2549.370454
 20
263.590653
 11
2468.867507
 21
347.676209
  0
LINE
  8
CutLine
  6
CONTINUOUS
 62
8
 10
2549.370454
 20
263.590653
 11
2665.423447
 21
420.546828
  0
LINE
  8
ValleyLine
  6
CONTINUOUS
 62
1
 10
2665.423447
 20
420.546828
 11
2474.117278
 21
446.197998
  0
LINE
  8
CutLine
  6
CONTINUOUS
 62
8
 10
2474.117278
 20
446.197998
 11
2468.867507
 21
347.676209
  0
LINE
  8
ValleyLine
  6
CONTINUOUS
 62
1
 10
2101.153305
 20
281.677312
 11
2106.198344
 21
227.844381
  0
LINE
  8
CutLine
  6
CONTINUOUS
 62
8
 10
2106.198344
 20
227.844381
 11
2115.566060
 21
238.137192
  0
LINE
  8
ValleyLine
  6
CONTINUOUS
 62
1
 10
2115.566060
 20
238.137192
 11
2136.646864
 21
260.844905
  0
LINE
  8
ValleyLine
  6
CONTINUOUS
 62
1
 10
2136.646864
 20
260.844905
 11
2101.153305
 21
281.677312
  0
LINE
  8
CutLine
  6
CONTINUOUS
 62
8
 10
2136.646864
 20
260.844905
 11
2197.470643
 21
284.410439
  0
LINE
  8
CutLine
  6
CONTINUOUS
 62
8
 10
2225.676829
 20
358.946230
 11
2188.025866
 21
383.004000
  0
LINE
  8
CutLine
  6
CONTINUOUS
 62
8
 10
2155.596187
 20
391.085091
 11
2109.774155
 21
385.206395
  0
LINE
  8
ValleyLine
  6
CONTINUOUS
 62
1
 10
2109.774155
 20
385.206395
 11
2095.123247
 21
349.951227
  0
LINE
  8
ValleyLine
  6
CONTINUOUS
 62
1
 10
2179.243460
 20
422.932155
 11
2155.596187
 21
391.085091
  0
LINE
  8
CutLine
  6
CONTINUOUS
 62
8
 10
2188.025866
 20
383.004000
 11
2179.243460
 21
422.932155
  0
LINE
  8
CutLine
  6
CONTINUOUS
 62
8
 10
2511.384957
 20
262.685461
 11
2517.841354
 21
254.538211
  0
LINE
  8
CutLine
  6
CONTINUOUS
 62
8
 10
2517.841354
 20
254.538211
 11
2523.643650
 21
247.266812
  0
LINE
  8
CutLine
  6
CONTINUOUS
 62
8
 10
2523.643650
 20
247.266812
 11
2527.751176
 21
238.920070
  0
LINE
  8
CutLine
  6
CONTINUOUS
 62
8
 10
2527.751176
 20
238.920070
 11
2532.372539
 21
229.608478
  0
LINE
  8
CutLine
  6
CONTINUOUS
 62
8
 10
2532.372539
 20
229.608478
 11
2549.370454
 21
263.590653
  0
ENDSEC
  0
EOF
