  0
SECTION
  2
HEADER
  9
$ACADVER
  1
AC1009
  0
ENDSEC
  0
SECTION
  2
BLOCKS
  0
ENDSEC
  0
SECTION
  2
ENTITIES
  0
LINE
  8
CutLine
  6
CONTINUOUS
 62
8
 10
201.817300
 20
391.582170
 11
200.105903
 21
398.443010
  0
LINE
  8
CutLine
  6
CONTINUOUS
 62
8
 10
200.105903
 20
398.443010
 11
212.542632
 21
419.146329
  0
LINE
  8
CutLine
  6
CONTINUOUS
 62
8
 10
212.542632
 20
419.146329
 11
219.491876
 21
421.004892
  0
LINE
  8
CutLine
  6
CONTINUOUS
 62
8
 10
52.840831
 20
310.284876
 11
50.859700
 21
312.730068
  0
LINE
  8
CutLine
  6
CONTINUOUS
 62
8
 10
231.498286
 20
315.793501
 11
230.388323
 21
308.810093
  0
LINE
  8
CutLine
  6
CONTINUOUS
 62
8
 10
230.388323
 20
308.810093
 11
224.185833
 21
304.308881
  0
LINE
  8
CutLine
  6
CONTINUOUS
 62
8
 10
224.185833
 20
304.308881
 11
217.202426
 21
305.418844
  0
LINE
  8
CutLine
  6
CONTINUOUS
 62
8
 10
138.975095
 20
416.643050
 11
152.388647
 21
416.676773
  0
LINE
  8
CutLine
  6
CONTINUOUS
 62
8
 10
152.388647
 20
416.676773
 11
199.025092
 21
398.078598
  0
LINE
  8
CutLine
  6
CONTINUOUS
 62
8
 10
199.025092
 20
398.078598
 11
201.817300
 21
391.582170
  0
LINE
  8
CutLine
  6
CONTINUOUS
 62
8
 10
142.118152
 20
314.706437
 11
138.121557
 21
308.873150
  0
LINE
  8
CutLine
  6
CONTINUOUS
 62
8
 10
138.121557
 20
308.873150
 11
73.581987
 21
296.814076
  0
LINE
  8
CutLine
  6
CONTINUOUS
 62
8
 10
73.581987
 20
296.814076
 11
67.748701
 21
300.810671
  0
LINE
  8
CutLine
  6
CONTINUOUS
 62
8
 10
50.490806
 20
310.612360
 11
55.923615
 21
306.086370
  0
LINE
  8
CutLine
  6
CONTINUOUS
 62
8
 10
55.923615
 20
306.086370
 11
58.233012
 21
280.724246
  0
LINE
  8
CutLine
  6
CONTINUOUS
 62
8
 10
58.233012
 20
280.724246
 11
54.239607
 21
269.442506
  0
LINE
  8
CutLine
  6
CONTINUOUS
 62
8
 10
42.965478
 20
246.993978
 11
36.970580
 21
250.743803
  0
LINE
  8
CutLine
  6
CONTINUOUS
 62
8
 10
36.970580
 20
250.743803
 11
24.842998
 21
303.383491
  0
LINE
  8
CutLine
  6
CONTINUOUS
 62
8
 10
24.842998
 20
303.383491
 11
28.592824
 21
309.378389
  0
LINE
  8
CutLine
  6
CONTINUOUS
 62
8
 10
27.493555
 20
439.196492
 11
34.494045
 21
440.193058
  0
LINE
  8
CutLine
  6
CONTINUOUS
 62
8
 10
34.494045
 20
440.193058
 11
57.345971
 21
423.036592
  0
LINE
  8
CutLine
  6
CONTINUOUS
 62
8
 10
57.345971
 20
423.036592
 11
58.342537
 21
416.036103
  0
LINE
  8
CutLine
  6
CONTINUOUS
 62
8
 10
245.252420
 20
253.230890
 11
238.416012
 21
255.037415
  0
LINE
  8
CutLine
  6
CONTINUOUS
 62
8
 10
238.416012
 20
255.037415
 11
230.810549
 21
268.106010
  0
LINE
  8
CutLine
  6
CONTINUOUS
 62
8
 10
230.810549
 20
268.106010
 11
232.617073
 21
274.942417
  0
LINE
  8
CutLine
  6
CONTINUOUS
 62
8
 10
233.823074
 20
316.265002
 11
230.096445
 21
324.155128
  0
LINE
  8
CutLine
  6
CONTINUOUS
 62
8
 10
248.855789
 20
446.021365
 11
254.114458
 21
441.294166
  0
LINE
  8
CutLine
  6
CONTINUOUS
 62
8
 10
254.114458
 20
441.294166
 11
260.482682
 21
321.640755
  0
LINE
  8
CutLine
  6
CONTINUOUS
 62
8
 10
260.482682
 20
321.640755
 11
255.755484
 21
316.382087
  0
LINE
  8
CutLine
  6
CONTINUOUS
 62
8
 10
580.664904
 20
249.668783
 11
575.798272
 21
244.538881
  0
LINE
  8
CutLine
  6
CONTINUOUS
 62
8
 10
575.798272
 20
244.538881
 11
562.389753
 21
244.185752
  0
LINE
  8
CutLine
  6
CONTINUOUS
 62
8
 10
562.389753
 20
244.185752
 11
557.259851
 21
249.052384
  0
LINE
  8
CutLine
  6
CONTINUOUS
 62
8
 10
491.932926
 20
341.482692
 11
498.909032
 21
348.838698
  0
LINE
  8
CutLine
  6
CONTINUOUS
 62
8
 10
498.909032
 20
348.838698
 11
528.903698
 21
357.990275
  0
LINE
  8
CutLine
  6
CONTINUOUS
 62
8
 10
528.903698
 20
357.990275
 11
535.145185
 21
354.667048
  0
LINE
  8
CutLine
  6
CONTINUOUS
 62
8
 10
574.783504
 20
320.588296
 11
579.506201
 21
315.325585
  0
LINE
  8
CutLine
  6
CONTINUOUS
 62
8
 10
579.506201
 20
315.325585
 11
577.963087
 21
286.791856
  0
LINE
  8
CutLine
  6
CONTINUOUS
 62
8
 10
577.963087
 20
286.791856
 11
572.700375
 21
282.069159
  0
LINE
  8
CutLine
  6
CONTINUOUS
 62
8
 10
527.988308
 20
277.762469
 11
521.803478
 21
282.149302
  0
LINE
  8
CutLine
  6
CONTINUOUS
 62
8
 10
521.803478
 20
282.149302
 11
515.677554
 21
307.866949
  0
LINE
  8
CutLine
  6
CONTINUOUS
 62
8
 10
515.677554
 20
307.866949
 11
519.382890
 21
313.889448
  0
LINE
  8
CutLine
  6
CONTINUOUS
 62
8
 10
558.712275
 20
252.862308
 11
551.865324
 21
252.175911
  0
LINE
  8
CutLine
  6
CONTINUOUS
 62
8
 10
383.934017
 20
392.112406
 11
390.556620
 21
394.590536
  0
LINE
  8
CutLine
  6
CONTINUOUS
 62
8
 10
390.556620
 20
394.590536
 11
442.684617
 21
370.851458
  0
LINE
  8
CutLine
  6
CONTINUOUS
 62
8
 10
442.684617
 20
370.851458
 11
445.162748
 21
364.228855
  0
LINE
  8
CutLine
  6
CONTINUOUS
 62
8
 10
379.646064
 20
266.372816
 11
373.891939
 21
262.263065
  0
LINE
  8
CutLine
  6
CONTINUOUS
 62
8
 10
373.891939
 20
262.263065
 11
349.235298
 21
266.373493
  0
LINE
  8
CutLine
  6
CONTINUOUS
 62
8
 10
349.235298
 20
266.373493
 11
345.125547
 21
272.127618
  0
LINE
  8
CutLine
  6
CONTINUOUS
 62
8
 10
349.170906
 20
406.773825
 11
344.679762
 21
412.235475
  0
LINE
  8
CutLine
  6
CONTINUOUS
 62
8
 10
344.679762
 20
412.235475
 11
345.981518
 21
425.585326
  0
LINE
  8
CutLine
  6
CONTINUOUS
 62
8
 10
345.981518
 20
425.585326
 11
351.443168
 21
430.076470
  0
LINE
  8
CutLine
  6
CONTINUOUS
 62
8
 10
344.721276
 20
295.537296
 11
338.469032
 21
292.234352
  0
LINE
  8
CutLine
  6
CONTINUOUS
 62
8
 10
338.469032
 20
292.234352
 11
323.763504
 21
296.773353
  0
LINE
  8
CutLine
  6
CONTINUOUS
 62
8
 10
323.763504
 20
296.773353
 11
320.460560
 21
303.025597
  0
LINE
  8
CutLine
  6
CONTINUOUS
 62
8
 10
368.879382
 20
350.278195
 11
361.824546
 21
350.757043
  0
LINE
  8
CutLine
  6
CONTINUOUS
 62
8
 10
361.824546
 20
350.757043
 11
323.910729
 21
394.192445
  0
LINE
  8
CutLine
  6
CONTINUOUS
 62
8
 10
323.910729
 20
394.192445
 11
324.389576
 21
401.247280
  0
LINE
  8
CutLine
  6
CONTINUOUS
 62
8
 10
414.409334
 20
288.191150
 11
406.345082
 21
292.037587
  0
LINE
  8
CutLine
  6
CONTINUOUS
 62
8
 10
406.345082
 20
292.037587
 11
400.471552
 21
302.020636
  0
LINE
  8
CutLine
  6
CONTINUOUS
 62
8
 10
469.207629
 20
285.960286
 11
462.177665
 21
277.326741
  0
LINE
  8
CutLine
  6
CONTINUOUS
 62
8
 10
462.177665
 20
277.326741
 11
431.203452
 21
263.432242
  0
LINE
  8
CutLine
  6
CONTINUOUS
 62
8
 10
431.203452
 20
263.432242
 11
424.594983
 21
265.947820
  0
LINE
  8
CutLine
  6
CONTINUOUS
 62
8
 10
403.803091
 20
284.218234
 11
412.084143
 21
280.279524
  0
LINE
  8
CutLine
  6
CONTINUOUS
 62
8
 10
412.084143
 20
280.279524
 11
418.301774
 21
270.141526
  0
LINE
  8
CutLine
  6
CONTINUOUS
 62
8
 10
418.301774
 20
270.141526
 11
416.653560
 21
263.265234
  0
LINE
  8
CutLine
  6
CONTINUOUS
 62
8
 10
386.312980
 20
433.056406
 11
391.293747
 21
438.075565
  0
LINE
  8
CutLine
  6
CONTINUOUS
 62
8
 10
391.293747
 20
438.075565
 11
418.431288
 21
438.179753
  0
LINE
  8
CutLine
  6
CONTINUOUS
 62
8
 10
418.431288
 20
438.179753
 11
423.450448
 21
433.198986
  0
LINE
  8
CutLine
  6
CONTINUOUS
 62
8
 10
431.829293
 20
422.049338
 11
428.937133
 21
415.596788
  0
LINE
  8
CutLine
  6
CONTINUOUS
 62
8
 10
428.937133
 20
415.596788
 11
415.420449
 21
410.446852
  0
LINE
  8
CutLine
  6
CONTINUOUS
 62
8
 10
415.420449
 20
410.446852
 11
408.967898
 21
413.339012
  0
LINE
  8
CutLine
  6
CONTINUOUS
 62
8
 10
505.483304
 20
293.617194
 11
500.606441
 21
298.737370
  0
LINE
  8
CutLine
  6
CONTINUOUS
 62
8
 10
500.606441
 20
298.737370
 11
500.958383
 21
313.197616
  0
LINE
  8
CutLine
  6
CONTINUOUS
 62
8
 10
500.958383
 20
313.197616
 11
506.078560
 21
318.074479
  0
LINE
  8
CutLine
  6
CONTINUOUS
 62
8
 10
547.863930
 20
202.489595
 11
553.046909
 21
207.299661
  0
LINE
  8
CutLine
  6
CONTINUOUS
 62
8
 10
553.046909
 20
207.299661
 11
637.505878
 21
204.147878
  0
LINE
  8
CutLine
  6
CONTINUOUS
 62
8
 10
637.505878
 20
204.147878
 11
646.022581
 21
198.826577
  0
LINE
  8
CutLine
  6
CONTINUOUS
 62
8
 10
553.952987
 20
150.441418
 11
550.591431
 21
144.220490
  0
LINE
  8
CutLine
  6
CONTINUOUS
 62
8
 10
550.591431
 20
144.220490
 11
546.610201
 21
143.032508
  0
LINE
  8
CutLine
  6
CONTINUOUS
 62
8
 10
546.610201
 20
143.032508
 11
540.389274
 21
146.394064
  0
LINE
  8
CutLine
  6
CONTINUOUS
 62
8
 10
565.649201
 20
92.749980
 11
560.647996
 21
87.751185
  0
LINE
  8
CutLine
  6
CONTINUOUS
 62
8
 10
560.647996
 20
87.751185
 11
519.878871
 21
87.761011
  0
LINE
  8
CutLine
  6
CONTINUOUS
 62
8
 10
519.878871
 20
87.761011
 11
514.880077
 21
92.762216
  0
LINE
  8
CutLine
  6
CONTINUOUS
 62
8
 10
662.996100
 20
138.094857
 11
663.667460
 21
132.318391
  0
LINE
  8
CutLine
  6
CONTINUOUS
 62
8
 10
663.667460
 20
132.318391
 11
658.273948
 21
134.492858
  0
LINE
  8
CutLine
  6
CONTINUOUS
 62
8
 10
471.542737
 20
416.943609
 11
476.296076
 21
422.178660
  0
LINE
  8
CutLine
  6
CONTINUOUS
 62
8
 10
476.296076
 20
422.178660
 11
498.718441
 21
423.260026
  0
LINE
  8
CutLine
  6
CONTINUOUS
 62
8
 10
498.718441
 20
423.260026
 11
505.826165
 21
418.597000
  0
LINE
  8
CutLine
  6
CONTINUOUS
 62
8
 10
482.983809
 20
394.277360
 11
476.267151
 21
396.487902
  0
LINE
  8
CutLine
  6
CONTINUOUS
 62
8
 10
476.267151
 20
396.487902
 11
469.332194
 21
410.226950
  0
LINE
  8
CutLine
  6
CONTINUOUS
 62
8
 10
469.332194
 20
410.226950
 11
471.542737
 21
416.943609
  0
LINE
  8
CutLine
  6
CONTINUOUS
 62
8
 10
580.334663
 20
453.369258
 11
587.318517
 21
452.262109
  0
LINE
  8
CutLine
  6
CONTINUOUS
 62
8
 10
587.318517
 20
452.262109
 11
605.747691
 21
426.888957
  0
LINE
  8
CutLine
  6
CONTINUOUS
 62
8
 10
605.747691
 20
426.888957
 11
606.884926
 21
416.815051
  0
LINE
  8
CutLine
  6
CONTINUOUS
 62
8
 10
581.493058
 20
406.651565
 11
575.106611
 21
403.616222
  0
LINE
  8
CutLine
  6
CONTINUOUS
 62
8
 10
575.106611
 20
403.616222
 11
571.387802
 21
404.938913
  0
LINE
  8
CutLine
  6
CONTINUOUS
 62
8
 10
571.387802
 20
404.938913
 11
568.352459
 21
411.325360
  0
LINE
  8
CutLine
  6
CONTINUOUS
 62
8
 10
591.578602
 20
358.807351
 11
585.654790
 21
362.668498
  0
LINE
  8
CutLine
  6
CONTINUOUS
 62
8
 10
585.654790
 20
362.668498
 11
577.631912
 21
400.727753
  0
LINE
  8
CutLine
  6
CONTINUOUS
 62
8
 10
577.631912
 20
400.727753
 11
581.493058
 21
406.651565
  0
LINE
  8
CutLine
  6
CONTINUOUS
 62
8
 10
505.087611
 20
382.056520
 11
503.331685
 21
383.977714
  0
LINE
  8
CutLine
  6
CONTINUOUS
 62
8
 10
539.608419
 20
387.809578
 11
535.498378
 21
382.055661
  0
LINE
  8
CutLine
  6
CONTINUOUS
 62
8
 10
535.498378
 20
382.055661
 11
510.841528
 21
377.946479
  0
LINE
  8
CutLine
  6
CONTINUOUS
 62
8
 10
510.841528
 20
377.946479
 11
505.087611
 21
382.056520
  0
LINE
  8
CutLine
  6
CONTINUOUS
 62
8
 10
666.988561
 20
340.132790
 11
664.281297
 21
333.600507
  0
LINE
  8
CutLine
  6
CONTINUOUS
 62
8
 10
664.281297
 20
333.600507
 11
645.416765
 21
325.790907
  0
LINE
  8
CutLine
  6
CONTINUOUS
 62
8
 10
645.416765
 20
325.790907
 11
636.662795
 21
327.578431
  0
LINE
  8
CutLine
  6
CONTINUOUS
 62
8
 10
147.035717
 20
110.384299
 11
139.698670
 21
110.858839
  0
LINE
  8
CutLine
  6
CONTINUOUS
 62
8
 10
139.698670
 20
110.858839
 11
134.285726
 21
116.572528
  0
LINE
  8
CutLine
  6
CONTINUOUS
 62
8
 10
134.285726
 20
116.572528
 11
134.476782
 21
123.641014
  0
LINE
  8
CutLine
  6
CONTINUOUS
 62
8
 10
116.069666
 20
111.914551
 11
111.435308
 21
106.573884
  0
LINE
  8
CutLine
  6
CONTINUOUS
 62
8
 10
111.435308
 20
106.573884
 11
62.264644
 21
103.092220
  0
LINE
  8
CutLine
  6
CONTINUOUS
 62
8
 10
62.264644
 20
103.092220
 11
56.923977
 21
107.726578
  0
LINE
  8
CutLine
  6
CONTINUOUS
 62
8
 10
89.256078
 20
134.213483
 11
82.244726
 21
135.130516
  0
LINE
  8
CutLine
  6
CONTINUOUS
 62
8
 10
82.244726
 20
135.130516
 11
64.127668
 21
158.699846
  0
LINE
  8
CutLine
  6
CONTINUOUS
 62
8
 10
64.127668
 20
158.699846
 11
63.784152
 21
167.351104
  0
LINE
  8
CutLine
  6
CONTINUOUS
 62
8
 10
71.432089
 20
179.261790
 11
74.041652
 21
187.270051
  0
LINE
  8
CutLine
  6
CONTINUOUS
 62
8
 10
74.041652
 20
187.270051
 11
150.334718
 21
241.761906
  0
LINE
  8
CutLine
  6
CONTINUOUS
 62
8
 10
150.334718
 20
241.761906
 11
157.309544
 21
240.599236
  0
LINE
  8
CutLine
  6
CONTINUOUS
 62
8
 10
162.600103
 20
181.115050
 11
166.532335
 21
175.238184
  0
LINE
  8
CutLine
  6
CONTINUOUS
 62
8
 10
166.532335
 20
175.238184
 11
161.432463
 21
149.513474
  0
LINE
  8
CutLine
  6
CONTINUOUS
 62
8
 10
161.432463
 20
149.513474
 11
155.042731
 21
142.994247
  0
LINE
  8
CutLine
  6
CONTINUOUS
 62
8
 10
466.064024
 20
180.759037
 11
472.904462
 21
178.967836
  0
LINE
  8
CutLine
  6
CONTINUOUS
 62
8
 10
472.904462
 20
178.967836
 11
478.708300
 21
169.046216
  0
LINE
  8
CutLine
  6
CONTINUOUS
 62
8
 10
478.708300
 20
169.046216
 11
476.917100
 21
162.205777
  0
LINE
  8
CutLine
  6
CONTINUOUS
 62
8
 10
410.516143
 20
209.407766
 11
405.431284
 21
214.321441
  0
LINE
  8
CutLine
  6
CONTINUOUS
 62
8
 10
405.431284
 20
214.321441
 11
404.886983
 21
246.112965
  0
LINE
  8
CutLine
  6
CONTINUOUS
 62
8
 10
404.886983
 20
246.112965
 11
409.800658
 21
251.197825
  0
LINE
  8
CutLine
  6
CONTINUOUS
 62
8
 10
444.866184
 20
203.384013
 11
450.801303
 21
196.903952
  0
LINE
  8
CutLine
  6
CONTINUOUS
 62
8
 10
450.801303
 20
196.903952
 11
452.105025
 21
187.393993
  0
LINE
  8
CutLine
  6
CONTINUOUS
 62
8
 10
452.105025
 20
187.393993
 11
447.830457
 21
181.761226
  0
LINE
  8
CutLine
  6
CONTINUOUS
 62
8
 10
364.632392
 20
193.860232
 11
361.311584
 21
200.103007
  0
LINE
  8
CutLine
  6
CONTINUOUS
 62
8
 10
361.311584
 20
200.103007
 11
362.525572
 21
204.076383
  0
LINE
  8
CutLine
  6
CONTINUOUS
 62
8
 10
362.525572
 20
204.076383
 11
368.768347
 21
207.397190
  0
LINE
  8
CutLine
  6
CONTINUOUS
 62
8
 10
446.374997
 20
153.558611
 11
445.536702
 21
144.468712
  0
LINE
  8
CutLine
  6
CONTINUOUS
 62
8
 10
445.536702
 20
144.468712
 11
435.149371
 21
131.401132
  0
LINE
  8
CutLine
  6
CONTINUOUS
 62
8
 10
483.059495
 20
83.162992
 11
479.559644
 21
77.833228
  0
LINE
  8
CutLine
  6
CONTINUOUS
 62
8
 10
459.427565
 20
74.528112
 11
455.101613
 21
77.368798
  0
LINE
  8
CutLine
  6
CONTINUOUS
 62
8
 10
434.408253
 20
79.342810
 11
432.392828
 21
77.022019
  0
LINE
  8
CutLine
  6
CONTINUOUS
 62
8
 10
175.864850
 20
78.388591
 11
173.709564
 21
75.756154
  0
LINE
  8
CutLine
  6
CONTINUOUS
 62
8
 10
158.824383
 20
73.343322
 11
155.180021
 21
76.327113
  0
LINE
  8
CutLine
  6
CONTINUOUS
 62
8
 10
154.316219
 20
97.704440
 11
153.730965
 21
104.751247
  0
LINE
  8
CutLine
  6
CONTINUOUS
 62
8
 10
153.730965
 20
104.751247
 11
160.506894
 21
112.754631
  0
LINE
  8
CutLine
  6
CONTINUOUS
 62
8
 10
288.535210
 20
289.192593
 11
295.454748
 21
290.648612
  0
LINE
  8
CutLine
  6
CONTINUOUS
 62
8
 10
295.454748
 20
290.648612
 11
301.283624
 21
286.846335
  0
LINE
  8
CutLine
  6
CONTINUOUS
 62
8
 10
301.283624
 20
286.846335
 11
302.739642
 21
279.926797
  0
LINE
  8
CutLine
  6
CONTINUOUS
 62
8
 10
266.248346
 20
170.396367
 11
259.365655
 21
168.775081
  0
LINE
  8
CutLine
  6
CONTINUOUS
 62
8
 10
259.365655
 20
168.775081
 11
209.640611
 21
199.539936
  0
LINE
  8
CutLine
  6
CONTINUOUS
 62
8
 10
209.640611
 20
199.539936
 11
208.019325
 21
206.422627
  0
LINE
  8
CutLine
  6
CONTINUOUS
 62
8
 10
343.738021
 20
249.982898
 11
345.797149
 21
243.218285
  0
LINE
  8
CutLine
  6
CONTINUOUS
 62
8
 10
345.797149
 20
243.218285
 11
323.575322
 21
201.547835
  0
LINE
  8
CutLine
  6
CONTINUOUS
 62
8
 10
323.575322
 20
201.547835
 11
315.837426
 21
197.663605
  0
LINE
  8
CutLine
  6
CONTINUOUS
 62
8
 10
316.972628
 20
183.554505
 11
324.951577
 21
179.710813
  0
LINE
  8
CutLine
  6
CONTINUOUS
 62
8
 10
324.951577
 20
179.710813
 11
371.431911
 21
98.901827
  0
LINE
  8
CutLine
  6
CONTINUOUS
 62
8
 10
371.431911
 20
98.901827
 11
369.590698
 21
92.074680
  0
LINE
  8
CutLine
  6
CONTINUOUS
 62
8
 10
454.957059
 20
144.035917
 11
456.914181
 21
136.208247
  0
LINE
  8
CutLine
  6
CONTINUOUS
 62
8
 10
456.914181
 20
136.208247
 11
448.529673
 21
117.600030
  0
LINE
  8
CutLine
  6
CONTINUOUS
 62
8
 10
448.529673
 20
117.600030
 11
441.917031
 21
115.095439
  0
LINE
  8
CutLine
  6
CONTINUOUS
 62
8
 10
187.895342
 20
122.233335
 11
194.858574
 21
123.463535
  0
LINE
  8
CutLine
  6
CONTINUOUS
 62
8
 10
194.858574
 20
123.463535
 11
235.595496
 21
94.959469
  0
LINE
  8
CutLine
  6
CONTINUOUS
 62
8
 10
235.595496
 20
94.959469
 11
236.825696
 21
87.996236
  0
LINE
  8
CutLine
  6
CONTINUOUS
 62
8
 10
369.451843
 20
91.594267
 11
373.407334
 21
88.692651
  0
LINE
  8
CutLine
  6
CONTINUOUS
 62
8
 10
357.374017
 20
25.028563
 11
352.236225
 21
20.170262
  0
LINE
  8
CutLine
  6
CONTINUOUS
 62
8
 10
352.236225
 20
20.170262
 11
310.244583
 21
21.344347
  0
LINE
  8
CutLine
  6
CONTINUOUS
 62
8
 10
310.244583
 20
21.344347
 11
305.386282
 21
26.482139
  0
LINE
  8
CutLine
  6
CONTINUOUS
 62
8
 10
242.380811
 20
85.895330
 11
247.810846
 21
90.424648
  0
LINE
  8
CutLine
  6
CONTINUOUS
 62
8
 10
247.810846
 20
90.424648
 11
300.654214
 21
85.645529
  0
LINE
  8
CutLine
  6
CONTINUOUS
 62
8
 10
300.654214
 20
85.645529
 11
305.183531
 21
80.215494
  0
LINE
  8
CutLine
  6
CONTINUOUS
 62
8
 10
305.386282
 20
26.482139
 11
300.566891
 21
21.307831
  0
LINE
  8
CutLine
  6
CONTINUOUS
 62
8
 10
300.566891
 20
21.307831
 11
258.585305
 21
19.816892
  0
LINE
  8
CutLine
  6
CONTINUOUS
 62
8
 10
258.585305
 20
19.816892
 11
253.410996
 21
24.636283
  0
LINE
  8
CutLine
  6
CONTINUOUS
 62
8
 10
455.875032
 20
98.749586
 11
459.620106
 21
104.747454
  0
LINE
  8
CutLine
  6
CONTINUOUS
 62
8
 10
459.620106
 20
104.747454
 11
467.668836
 21
106.608507
  0
LINE
  8
CutLine
  6
CONTINUOUS
 62
8
 10
467.668836
 20
106.608507
 11
473.666704
 21
102.863433
  0
LINE
  8
CutLine
  6
CONTINUOUS
 62
8
 10
127.197893
 20
82.003061
 11
124.808308
 21
88.658125
  0
LINE
  8
CutLine
  6
CONTINUOUS
 62
8
 10
124.808308
 20
88.658125
 11
129.852249
 21
99.353449
  0
LINE
  8
CutLine
  6
CONTINUOUS
 62
8
 10
129.852249
 20
99.353449
 11
136.507314
 21
101.743034
  0
LINE
  8
CutLine
  6
CONTINUOUS
 62
8
 10
64.357855
 20
51.721403
 11
67.371682
 21
58.118031
  0
LINE
  8
CutLine
  6
CONTINUOUS
 62
8
 10
67.371682
 20
58.118031
 11
73.920784
 21
60.472254
  0
LINE
  8
CutLine
  6
CONTINUOUS
 62
8
 10
73.920784
 20
60.472254
 11
80.317411
 21
57.458428
  0
LINE
  8
CutLine
  6
CONTINUOUS
 62
8
 10
39.590669
 20
40.568060
 11
42.096653
 21
47.180174
  0
LINE
  8
CutLine
  6
CONTINUOUS
 62
8
 10
42.096653
 20
47.180174
 11
57.745742
 21
54.227387
  0
LINE
  8
CutLine
  6
CONTINUOUS
 62
8
 10
57.745742
 20
54.227387
 11
64.357855
 21
51.721403
  0
LINE
  8
CutLine
  6
CONTINUOUS
 62
8
 10
50.940608
 20
3.747202
 11
44.689607
 21
7.052498
  0
LINE
  8
CutLine
  6
CONTINUOUS
 62
8
 10
44.689607
 20
7.052498
 11
36.285373
 21
34.317059
  0
LINE
  8
CutLine
  6
CONTINUOUS
 62
8
 10
36.285373
 20
34.317059
 11
39.590669
 21
40.568060
  0
LINE
  8
CutLine
  6
CONTINUOUS
 62
8
 10
174.133602
 20
44.703695
 11
170.966341
 21
38.381634
  0
LINE
  8
CutLine
  6
CONTINUOUS
 62
8
 10
170.966341
 20
38.381634
 11
57.262669
 21
0.579941
  0
LINE
  8
CutLine
  6
CONTINUOUS
 62
8
 10
57.262669
 20
0.579941
 11
50.940608
 21
3.747202
  0
LINE
  8
CutLine
  6
CONTINUOUS
 62
8
 10
127.065166
 20
77.261244
 11
132.746466
 21
80.877578
  0
LINE
  8
CutLine
  6
CONTINUOUS
 62
8
 10
152.247927
 20
76.921865
 11
155.261018
 21
72.765714
  0
LINE
  8
CutLine
  6
CONTINUOUS
 62
8
 10
175.780490
 20
76.091844
 11
177.969881
 21
78.249290
  0
LINE
  8
CutLine
  6
CONTINUOUS
 62
8
 10
224.349330
 20
59.227411
 11
220.935386
 21
53.035078
  0
LINE
  8
CutLine
  6
CONTINUOUS
 62
8
 10
220.935386
 20
53.035078
 11
180.325935
 21
41.289751
  0
LINE
  8
CutLine
  6
CONTINUOUS
 62
8
 10
180.325935
 20
41.289751
 11
174.133602
 21
44.703695
  0
LINE
  8
CutLine
  6
CONTINUOUS
 62
8
 10
570.840272
 20
42.105049
 11
574.172412
 21
35.868316
  0
LINE
  8
CutLine
  6
CONTINUOUS
 62
8
 10
574.172412
 20
35.868316
 11
565.885474
 21
8.567875
  0
LINE
  8
CutLine
  6
CONTINUOUS
 62
8
 10
565.885474
 20
8.567875
 11
559.648740
 21
5.235735
  0
LINE
  8
CutLine
  6
CONTINUOUS
 62
8
 10
546.019048
 20
53.137610
 11
552.618875
 21
55.675775
  0
LINE
  8
CutLine
  6
CONTINUOUS
 62
8
 10
552.618875
 20
55.675775
 11
568.302108
 21
48.704876
  0
LINE
  8
CutLine
  6
CONTINUOUS
 62
8
 10
568.302108
 20
48.704876
 11
570.840272
 21
42.105049
  0
LINE
  8
CutLine
  6
CONTINUOUS
 62
8
 10
483.210493
 20
78.432594
 11
489.752423
 21
81.116464
  0
LINE
  8
CutLine
  6
CONTINUOUS
 62
8
 10
489.752423
 20
81.116464
 11
527.365200
 21
65.387492
  0
LINE
  8
CutLine
  6
CONTINUOUS
 62
8
 10
527.365200
 20
65.387492
 11
530.049070
 21
58.845562
  0
LINE
  8
CutLine
  6
CONTINUOUS
 62
8
 10
436.281892
 20
45.665535
 11
430.104047
 21
42.225443
  0
LINE
  8
CutLine
  6
CONTINUOUS
 62
8
 10
430.104047
 20
42.225443
 11
389.445304
 21
53.798983
  0
LINE
  8
CutLine
  6
CONTINUOUS
 62
8
 10
389.445304
 20
53.798983
 11
386.005212
 21
59.976828
  0
LINE
  8
CutLine
  6
CONTINUOUS
 62
8
 10
434.502322
 20
77.046440
 11
437.282113
 21
79.068663
  0
LINE
  8
CutLine
  6
CONTINUOUS
 62
8
 10
452.246490
 20
77.641159
 11
455.035672
 21
73.807088
  0
LINE
  8
ValleyLine
  6
CONTINUOUS
 62
1
 10
225.728201
 20
350.210592
 11
219.491876
 21
421.004892
  0
LINE
  8
MountainLine
  6
CONTINUOUS
 62
5
 10
219.491876
 20
421.004892
 11
201.817300
 21
391.582170
  0
LINE
  8
ValleyLine
  6
CONTINUOUS
 62
1
 10
201.817300
 20
391.582170
 11
231.498286
 21
315.793501
  0
LINE
  8
CutLine
  6
CONTINUOUS
 62
8
 10
231.498286
 20
315.793501
 11
225.728201
 21
350.210592
  0
LINE
  8
CutLine
  6
CONTINUOUS
 62
8
 10
77.796223
 20
387.758173
 11
58.342537
 21
416.036103
  0
LINE
  8
ValleyLine
  6
CONTINUOUS
 62
1
 10
58.342537
 20
416.036103
 11
56.479577
 21
344.992074
  0
LINE
  8
ValleyLine
  6
CONTINUOUS
 62
1
 10
56.479577
 20
344.992074
 11
52.840831
 21
310.284876
  0
LINE
  8
ValleyLine
  6
CONTINUOUS
 62
1
 10
52.840831
 20
310.284876
 11
77.796223
 21
387.758173
  0
LINE
  8
MountainLine
  6
CONTINUOUS
 62
5
 10
217.202426
 20
305.418844
 11
231.498286
 21
315.793501
  0
LINE
  8
CutLine
  6
CONTINUOUS
 62
8
 10
142.118152
 20
314.706437
 11
217.202426
 21
305.418844
  0
LINE
  8
MountainLine
  6
CONTINUOUS
 62
5
 10
201.817300
 20
391.582170
 11
138.975095
 21
416.643050
  0
LINE
  8
CutLine
  6
CONTINUOUS
 62
8
 10
52.840831
 20
310.284876
 11
67.748701
 21
300.810671
  0
LINE
  8
MountainLine
  6
CONTINUOUS
 62
5
 10
67.748701
 20
300.810671
 11
142.118152
 21
314.706437
  0
LINE
  8
CutLine
  6
CONTINUOUS
 62
8
 10
138.975095
 20
416.643050
 11
77.796223
 21
387.758173
  0
LINE
  8
ValleyLine
  6
CONTINUOUS
 62
1
 10
28.592824
 20
309.378389
 11
54.239607
 21
269.442506
  0
LINE
  8
ValleyLine
  6
CONTINUOUS
 62
1
 10
54.239607
 20
269.442506
 11
50.490806
 21
310.612360
  0
LINE
  8
MountainLine
  6
CONTINUOUS
 62
5
 10
50.490806
 20
310.612360
 11
28.592824
 21
309.378389
  0
LINE
  8
MountainLine
  6
CONTINUOUS
 62
5
 10
28.592824
 20
309.378389
 11
42.965478
 21
246.993978
  0
LINE
  8
CutLine
  6
CONTINUOUS
 62
8
 10
42.965478
 20
246.993978
 11
54.239607
 21
269.442506
  0
LINE
  8
MountainLine
  6
CONTINUOUS
 62
5
 10
58.342537
 20
416.036103
 11
27.493555
 21
439.196492
  0
LINE
  8
CutLine
  6
CONTINUOUS
 62
8
 10
27.493555
 20
439.196492
 11
28.592824
 21
309.378389
  0
LINE
  8
CutLine
  6
CONTINUOUS
 62
8
 10
50.490806
 20
310.612360
 11
56.479577
 21
344.992074
  0
LINE
  8
ValleyLine
  6
CONTINUOUS
 62
1
 10
232.617073
 20
274.942417
 11
255.755484
 21
316.382087
  0
LINE
  8
MountainLine
  6
CONTINUOUS
 62
5
 10
255.755484
 20
316.382087
 11
233.823074
 21
316.265002
  0
LINE
  8
CutLine
  6
CONTINUOUS
 62
8
 10
233.823074
 20
316.265002
 11
232.617073
 21
274.942417
  0
LINE
  8
ValleyLine
  6
CONTINUOUS
 62
1
 10
232.617073
 20
274.942417
 11
245.252420
 21
253.230890
  0
LINE
  8
CutLine
  6
CONTINUOUS
 62
8
 10
245.252420
 20
253.230890
 11
255.755484
 21
316.382087
  0
LINE
  8
ValleyLine
  6
CONTINUOUS
 62
1
 10
225.728201
 20
350.210592
 11
233.823074
 21
316.265002
  0
LINE
  8
MountainLine
  6
CONTINUOUS
 62
5
 10
255.755484
 20
316.382087
 11
248.855789
 21
446.021365
  0
LINE
  8
CutLine
  6
CONTINUOUS
 62
8
 10
248.855789
 20
446.021365
 11
219.491876
 21
421.004892
  0
LINE
  8
MountainLine
  6
CONTINUOUS
 62
5
 10
580.664904
 20
249.668783
 11
572.700375
 21
282.069159
  0
LINE
  8
ValleyLine
  6
CONTINUOUS
 62
1
 10
572.700375
 20
282.069159
 11
564.201267
 21
267.260744
  0
LINE
  8
CutLine
  6
CONTINUOUS
 62
8
 10
564.201267
 20
267.260744
 11
557.259851
 21
249.052384
  0
LINE
  8
ValleyLine
  6
CONTINUOUS
 62
1
 10
557.259851
 20
249.052384
 11
580.664904
 21
249.668783
  0
LINE
  8
CutLine
  6
CONTINUOUS
 62
8
 10
580.664904
 20
249.668783
 11
601.758357
 21
263.801130
  0
LINE
  8
CutLine
  6
CONTINUOUS
 62
8
 10
601.758357
 20
263.801130
 11
572.700375
 21
282.069159
  0
LINE
  8
ValleyLine
  6
CONTINUOUS
 62
1
 10
519.382890
 20
313.889448
 11
535.145185
 21
354.667048
  0
LINE
  8
ValleyLine
  6
CONTINUOUS
 62
1
 10
535.145185
 20
354.667048
 11
491.932926
 21
341.482692
  0
LINE
  8
MountainLine
  6
CONTINUOUS
 62
5
 10
491.932926
 20
341.482692
 11
506.078560
 21
318.074479
  0
LINE
  8
ValleyLine
  6
CONTINUOUS
 62
1
 10
506.078560
 20
318.074479
 11
519.382890
 21
313.889448
  0
LINE
  8
ValleyLine
  6
CONTINUOUS
 62
1
 10
491.932926
 20
341.482692
 11
469.207629
 21
285.960286
  0
LINE
  8
CutLine
  6
CONTINUOUS
 62
8
 10
469.207629
 20
285.960286
 11
506.078560
 21
318.074479
  0
LINE
  8
ValleyLine
  6
CONTINUOUS
 62
1
 10
519.382890
 20
313.889448
 11
574.783504
 21
320.588296
  0
LINE
  8
CutLine
  6
CONTINUOUS
 62
8
 10
574.783504
 20
320.588296
 11
535.145185
 21
354.667048
  0
LINE
  8
MountainLine
  6
CONTINUOUS
 62
5
 10
572.700375
 20
282.069159
 11
574.783504
 21
320.588296
  0
LINE
  8
ValleyLine
  6
CONTINUOUS
 62
1
 10
519.382890
 20
313.889448
 11
527.988308
 21
277.762469
  0
LINE
  8
CutLine
  6
CONTINUOUS
 62
8
 10
527.988308
 20
277.762469
 11
551.865324
 21
252.175911
  0
LINE
  8
ValleyLine
  6
CONTINUOUS
 62
1
 10
551.865324
 20
252.175911
 11
564.201267
 21
267.260744
  0
LINE
  8
ValleyLine
  6
CONTINUOUS
 62
1
 10
397.765653
 20
316.479874
 11
469.207629
 21
285.960286
  0
LINE
  8
ValleyLine
  6
CONTINUOUS
 62
1
 10
469.207629
 20
285.960286
 11
445.162748
 21
364.228855
  0
LINE
  8
MountainLine
  6
CONTINUOUS
 62
5
 10
445.162748
 20
364.228855
 11
397.765653
 21
316.479874
  0
LINE
  8
ValleyLine
  6
CONTINUOUS
 62
1
 10
368.879382
 20
350.278195
 11
344.721276
 21
295.537296
  0
LINE
  8
MountainLine
  6
CONTINUOUS
 62
5
 10
344.721276
 20
295.537296
 11
403.803091
 21
284.218234
  0
LINE
  8
CutLine
  6
CONTINUOUS
 62
8
 10
403.803091
 20
284.218234
 11
397.765653
 21
316.479874
  0
LINE
  8
MountainLine
  6
CONTINUOUS
 62
5
 10
445.162748
 20
364.228855
 11
368.879382
 21
350.278195
  0
LINE
  8
CutLine
  6
CONTINUOUS
 62
8
 10
383.934017
 20
392.112406
 11
408.967898
 21
413.339012
  0
LINE
  8
MountainLine
  6
CONTINUOUS
 62
5
 10
408.967898
 20
413.339012
 11
349.170906
 21
406.773825
  0
LINE
  8
ValleyLine
  6
CONTINUOUS
 62
1
 10
349.170906
 20
406.773825
 11
368.879382
 21
350.278195
  0
LINE
  8
MountainLine
  6
CONTINUOUS
 62
5
 10
445.162748
 20
364.228855
 11
383.934017
 21
392.112406
  0
LINE
  8
CutLine
  6
CONTINUOUS
 62
8
 10
344.721276
 20
295.537296
 11
345.125547
 21
272.127618
  0
LINE
  8
ValleyLine
  6
CONTINUOUS
 62
1
 10
345.125547
 20
272.127618
 11
379.646064
 21
266.372816
  0
LINE
  8
ValleyLine
  6
CONTINUOUS
 62
1
 10
379.646064
 20
266.372816
 11
403.803091
 21
284.218234
  0
LINE
  8
ValleyLine
  6
CONTINUOUS
 62
1
 10
408.967898
 20
413.339012
 11
386.312980
 21
433.056406
  0
LINE
  8
CutLine
  6
CONTINUOUS
 62
8
 10
386.312980
 20
433.056406
 11
351.443168
 21
430.076470
  0
LINE
  8
ValleyLine
  6
CONTINUOUS
 62
1
 10
351.443168
 20
430.076470
 11
349.170906
 21
406.773825
  0
LINE
  8
CutLine
  6
CONTINUOUS
 62
8
 10
368.879382
 20
350.278195
 11
320.460560
 21
303.025597
  0
LINE
  8
ValleyLine
  6
CONTINUOUS
 62
1
 10
320.460560
 20
303.025597
 11
344.721276
 21
295.537296
  0
LINE
  8
CutLine
  6
CONTINUOUS
 62
8
 10
349.170906
 20
406.773825
 11
324.389576
 21
401.247280
  0
LINE
  8
MountainLine
  6
CONTINUOUS
 62
5
 10
324.389576
 20
401.247280
 11
368.879382
 21
350.278195
  0
LINE
  8
CutLine
  6
CONTINUOUS
 62
8
 10
491.932926
 20
341.482692
 11
445.162748
 21
364.228855
  0
LINE
  8
MountainLine
  6
CONTINUOUS
 62
5
 10
397.765653
 20
316.479874
 11
414.409334
 21
288.191150
  0
LINE
  8
CutLine
  6
CONTINUOUS
 62
8
 10
414.409334
 20
288.191150
 11
424.594983
 21
265.947820
  0
LINE
  8
ValleyLine
  6
CONTINUOUS
 62
1
 10
424.594983
 20
265.947820
 11
469.207629
 21
285.960286
  0
LINE
  8
CutLine
  6
CONTINUOUS
 62
8
 10
379.646064
 20
266.372816
 11
416.653560
 21
263.265234
  0
LINE
  8
MountainLine
  6
CONTINUOUS
 62
5
 10
416.653560
 20
263.265234
 11
403.803091
 21
284.218234
  0
LINE
  8
ValleyLine
  6
CONTINUOUS
 62
1
 10
423.450448
 20
433.198986
 11
386.312980
 21
433.056406
  0
LINE
  8
MountainLine
  6
CONTINUOUS
 62
5
 10
408.967898
 20
413.339012
 11
423.450448
 21
433.198986
  0
LINE
  8
CutLine
  6
CONTINUOUS
 62
8
 10
431.829293
 20
422.049338
 11
423.450448
 21
433.198986
  0
LINE
  8
MountainLine
  6
CONTINUOUS
 62
5
 10
408.967898
 20
413.339012
 11
431.829293
 21
422.049338
  0
LINE
  8
MountainLine
  6
CONTINUOUS
 62
5
 10
506.078560
 20
318.074479
 11
505.483304
 21
293.617194
  0
LINE
  8
CutLine
  6
CONTINUOUS
 62
8
 10
505.483304
 20
293.617194
 11
519.382890
 21
313.889448
  0
LINE
  8
MountainLine
  6
CONTINUOUS
 62
5
 10
553.952987
 20
150.441418
 11
646.022581
 21
198.826577
  0
LINE
  8
MountainLine
  6
CONTINUOUS
 62
5
 10
646.022581
 20
198.826577
 11
547.863930
 21
202.489595
  0
LINE
  8
ValleyLine
  6
CONTINUOUS
 62
1
 10
547.863930
 20
202.489595
 11
553.952987
 21
150.441418
  0
LINE
  8
MountainLine
  6
CONTINUOUS
 62
5
 10
540.389274
 20
146.394064
 11
553.952987
 21
150.441418
  0
LINE
  8
ValleyLine
  6
CONTINUOUS
 62
1
 10
547.863930
 20
202.489595
 11
540.389274
 21
146.394064
  0
LINE
  8
CutLine
  6
CONTINUOUS
 62
8
 10
547.863930
 20
202.489595
 11
479.499805
 21
206.344029
  0
LINE
  8
CutLine
  6
CONTINUOUS
 62
8
 10
479.499805
 20
206.344029
 11
497.925647
 21
92.352085
  0
LINE
  8
CutLine
  6
CONTINUOUS
 62
8
 10
497.925647
 20
92.352085
 11
514.880077
 21
92.762216
  0
LINE
  8
ValleyLine
  6
CONTINUOUS
 62
1
 10
514.880077
 20
92.762216
 11
565.649201
 21
92.749980
  0
LINE
  8
CutLine
  6
CONTINUOUS
 62
8
 10
565.649201
 20
92.749980
 11
540.389274
 21
146.394064
  0
LINE
  8
ValleyLine
  6
CONTINUOUS
 62
1
 10
658.273948
 20
134.492858
 11
662.996100
 21
138.094857
  0
LINE
  8
CutLine
  6
CONTINUOUS
 62
8
 10
662.996100
 20
138.094857
 11
646.022581
 21
198.826577
  0
LINE
  8
CutLine
  6
CONTINUOUS
 62
8
 10
553.952987
 20
150.441418
 11
658.273948
 21
134.492858
  0
LINE
  8
CutLine
  6
CONTINUOUS
 62
8
 10
482.983809
 20
394.277360
 11
503.072971
 21
382.252300
  0
LINE
  8
CutLine
  6
CONTINUOUS
 62
8
 10
503.072971
 20
382.252300
 11
505.962546
 21
401.523471
  0
LINE
  8
ValleyLine
  6
CONTINUOUS
 62
1
 10
505.962546
 20
401.523471
 11
505.826165
 21
418.597000
  0
LINE
  8
MountainLine
  6
CONTINUOUS
 62
5
 10
505.826165
 20
418.597000
 11
482.983809
 21
394.277360
  0
LINE
  8
MountainLine
  6
CONTINUOUS
 62
5
 10
505.826165
 20
418.597000
 11
471.542737
 21
416.943609
  0
LINE
  8
ValleyLine
  6
CONTINUOUS
 62
1
 10
471.542737
 20
416.943609
 11
482.983809
 21
394.277360
  0
LINE
  8
ValleyLine
  6
CONTINUOUS
 62
1
 10
606.884926
 20
416.815051
 11
580.334663
 21
453.369258
  0
LINE
  8
ValleyLine
  6
CONTINUOUS
 62
1
 10
580.334663
 20
453.369258
 11
568.352459
 21
411.325360
  0
LINE
  8
ValleyLine
  6
CONTINUOUS
 62
1
 10
568.352459
 20
411.325360
 11
581.493058
 21
406.651565
  0
LINE
  8
MountainLine
  6
CONTINUOUS
 62
5
 10
581.493058
 20
406.651565
 11
606.884926
 21
416.815051
  0
LINE
  8
ValleyLine
  6
CONTINUOUS
 62
1
 10
591.578602
 20
358.807351
 11
606.884926
 21
416.815051
  0
LINE
  8
ValleyLine
  6
CONTINUOUS
 62
1
 10
581.493058
 20
406.651565
 11
591.578602
 21
358.807351
  0
LINE
  8
CutLine
  6
CONTINUOUS
 62
8
 10
580.334663
 20
453.369258
 11
528.166607
 21
450.044861
  0
LINE
  8
ValleyLine
  6
CONTINUOUS
 62
1
 10
528.166607
 20
450.044861
 11
568.352459
 21
411.325360
  0
LINE
  8
ValleyLine
  6
CONTINUOUS
 62
1
 10
505.962546
 20
401.523471
 11
505.087611
 21
382.056520
  0
LINE
  8
ValleyLine
  6
CONTINUOUS
 62
1
 10
505.087611
 20
382.056520
 11
539.608419
 21
387.809578
  0
LINE
  8
CutLine
  6
CONTINUOUS
 62
8
 10
539.608419
 20
387.809578
 11
568.352459
 21
411.325360
  0
LINE
  8
CutLine
  6
CONTINUOUS
 62
8
 10
528.166607
 20
450.044861
 11
505.826165
 21
418.597000
  0
LINE
  8
ValleyLine
  6
CONTINUOUS
 62
1
 10
591.578602
 20
358.807351
 11
666.988561
 21
340.132790
  0
LINE
  8
CutLine
  6
CONTINUOUS
 62
8
 10
666.988561
 20
340.132790
 11
657.919109
 21
406.797584
  0
LINE
  8
ValleyLine
  6
CONTINUOUS
 62
1
 10
657.919109
 20
406.797584
 11
591.578602
 21
358.807351
  0
LINE
  8
CutLine
  6
CONTINUOUS
 62
8
 10
657.919109
 20
406.797584
 11
606.884926
 21
416.815051
  0
LINE
  8
CutLine
  6
CONTINUOUS
 62
8
 10
591.578602
 20
358.807351
 11
615.133520
 21
315.959332
  0
LINE
  8
CutLine
  6
CONTINUOUS
 62
8
 10
615.133520
 20
315.959332
 11
636.662795
 21
327.578431
  0
LINE
  8
MountainLine
  6
CONTINUOUS
 62
5
 10
636.662795
 20
327.578431
 11
666.988561
 21
340.132790
  0
LINE
  8
MountainLine
  6
CONTINUOUS
 62
5
 10
134.476782
 20
123.641014
 11
147.035717
 21
110.384299
  0
LINE
  8
ValleyLine
  6
CONTINUOUS
 62
1
 10
147.035717
 20
110.384299
 11
155.042731
 21
142.994247
  0
LINE
  8
MountainLine
  6
CONTINUOUS
 62
5
 10
155.042731
 20
142.994247
 11
134.476782
 21
123.641014
  0
LINE
  8
CutLine
  6
CONTINUOUS
 62
8
 10
147.035717
 20
110.384299
 11
168.204991
 21
114.109156
  0
LINE
  8
ValleyLine
  6
CONTINUOUS
 62
1
 10
168.204991
 20
114.109156
 11
155.042731
 21
142.994247
  0
LINE
  8
ValleyLine
  6
CONTINUOUS
 62
1
 10
155.042731
 20
142.994247
 11
89.256078
 21
134.213483
  0
LINE
  8
ValleyLine
  6
CONTINUOUS
 62
1
 10
89.256078
 20
134.213483
 11
134.476782
 21
123.641014
  0
LINE
  8
CutLine
  6
CONTINUOUS
 62
8
 10
116.069666
 20
111.914551
 11
134.476782
 21
123.641014
  0
LINE
  8
CutLine
  6
CONTINUOUS
 62
8
 10
89.256078
 20
134.213483
 11
56.923977
 21
107.726578
  0
LINE
  8
MountainLine
  6
CONTINUOUS
 62
5
 10
56.923977
 20
107.726578
 11
116.069666
 21
111.914551
  0
LINE
  8
MountainLine
  6
CONTINUOUS
 62
5
 10
89.256078
 20
134.213483
 11
162.600103
 21
181.115050
  0
LINE
  8
ValleyLine
  6
CONTINUOUS
 62
1
 10
162.600103
 20
181.115050
 11
71.432089
 21
179.261790
  0
LINE
  8
CutLine
  6
CONTINUOUS
 62
8
 10
71.432089
 20
179.261790
 11
63.784152
 21
167.351104
  0
LINE
  8
ValleyLine
  6
CONTINUOUS
 62
1
 10
63.784152
 20
167.351104
 11
89.256078
 21
134.213483
  0
LINE
  8
CutLine
  6
CONTINUOUS
 62
8
 10
162.600103
 20
181.115050
 11
157.309544
 21
240.599236
  0
LINE
  8
MountainLine
  6
CONTINUOUS
 62
5
 10
157.309544
 20
240.599236
 11
71.432089
 21
179.261790
  0
LINE
  8
ValleyLine
  6
CONTINUOUS
 62
1
 10
155.042731
 20
142.994247
 11
162.600103
 21
181.115050
  0
LINE
  8
CutLine
  6
CONTINUOUS
 62
8
 10
466.064024
 20
180.759037
 11
447.830457
 21
181.761226
  0
LINE
  8
MountainLine
  6
CONTINUOUS
 62
5
 10
447.830457
 20
181.761226
 11
446.374997
 21
153.558611
  0
LINE
  8
ValleyLine
  6
CONTINUOUS
 62
1
 10
446.374997
 20
153.558611
 11
466.064024
 21
180.759037
  0
LINE
  8
ValleyLine
  6
CONTINUOUS
 62
1
 10
476.917100
 20
162.205777
 11
466.064024
 21
180.759037
  0
LINE
  8
CutLine
  6
CONTINUOUS
 62
8
 10
446.374997
 20
153.558611
 11
476.917100
 21
162.205777
  0
LINE
  8
ValleyLine
  6
CONTINUOUS
 62
1
 10
410.516143
 20
209.407766
 11
446.374997
 21
153.558611
  0
LINE
  8
ValleyLine
  6
CONTINUOUS
 62
1
 10
447.830457
 20
181.761226
 11
410.516143
 21
209.407766
  0
LINE
  8
CutLine
  6
CONTINUOUS
 62
8
 10
444.866184
 20
203.384013
 11
409.800658
 21
251.197825
  0
LINE
  8
ValleyLine
  6
CONTINUOUS
 62
1
 10
409.800658
 20
251.197825
 11
410.516143
 21
209.407766
  0
LINE
  8
MountainLine
  6
CONTINUOUS
 62
5
 10
447.830457
 20
181.761226
 11
444.866184
 21
203.384013
  0
LINE
  8
CutLine
  6
CONTINUOUS
 62
8
 10
410.516143
 20
209.407766
 11
368.768347
 21
207.397190
  0
LINE
  8
MountainLine
  6
CONTINUOUS
 62
5
 10
368.768347
 20
207.397190
 11
364.632392
 21
193.860232
  0
LINE
  8
ValleyLine
  6
CONTINUOUS
 62
1
 10
364.632392
 20
193.860232
 11
422.192510
 21
123.136303
  0
LINE
  8
MountainLine
  6
CONTINUOUS
 62
5
 10
422.192510
 20
123.136303
 11
410.516143
 21
209.407766
  0
LINE
  8
ValleyLine
  6
CONTINUOUS
 62
1
 10
373.407334
 20
88.692651
 11
422.192510
 21
123.136303
  0
LINE
  8
CutLine
  6
CONTINUOUS
 62
8
 10
364.632392
 20
193.860232
 11
373.407334
 21
88.692651
  0
LINE
  8
ValleyLine
  6
CONTINUOUS
 62
1
 10
422.192510
 20
123.136303
 11
446.374997
 21
153.558611
  0
LINE
  8
ValleyLine
  6
CONTINUOUS
 62
1
 10
455.875032
 20
98.749586
 11
434.408253
 21
79.342810
  0
LINE
  8
CutLine
  6
CONTINUOUS
 62
8
 10
434.408253
 20
79.342810
 11
455.101613
 21
77.368798
  0
LINE
  8
MountainLine
  6
CONTINUOUS
 62
5
 10
455.101613
 20
77.368798
 11
483.059495
 21
83.162992
  0
LINE
  8
ValleyLine
  6
CONTINUOUS
 62
1
 10
483.059495
 20
83.162992
 11
455.875032
 21
98.749586
  0
LINE
  8
CutLine
  6
CONTINUOUS
 62
8
 10
455.875032
 20
98.749586
 11
441.917031
 21
115.095439
  0
LINE
  8
ValleyLine
  6
CONTINUOUS
 62
1
 10
441.917031
 20
115.095439
 11
395.366005
 21
76.593359
  0
LINE
  8
MountainLine
  6
CONTINUOUS
 62
5
 10
395.366005
 20
76.593359
 11
434.408253
 21
79.342810
  0
LINE
  8
MountainLine
  6
CONTINUOUS
 62
5
 10
155.180021
 20
76.327113
 11
175.864850
 21
78.388591
  0
LINE
  8
ValleyLine
  6
CONTINUOUS
 62
1
 10
175.864850
 20
78.388591
 11
154.316219
 21
97.704440
  0
LINE
  8
ValleyLine
  6
CONTINUOUS
 62
1
 10
154.316219
 20
97.704440
 11
127.197893
 21
82.003061
  0
LINE
  8
CutLine
  6
CONTINUOUS
 62
8
 10
127.197893
 20
82.003061
 11
155.180021
 21
76.327113
  0
LINE
  8
ValleyLine
  6
CONTINUOUS
 62
1
 10
168.204991
 20
114.109156
 11
154.316219
 21
97.704440
  0
LINE
  8
CutLine
  6
CONTINUOUS
 62
8
 10
175.864850
 20
78.388591
 11
214.918373
 21
75.804220
  0
LINE
  8
ValleyLine
  6
CONTINUOUS
 62
1
 10
214.918373
 20
75.804220
 11
168.204991
 21
114.109156
  0
LINE
  8
MountainLine
  6
CONTINUOUS
 62
5
 10
305.183531
 20
80.215494
 11
316.972628
 21
183.554505
  0
LINE
  8
ValleyLine
  6
CONTINUOUS
 62
1
 10
316.972628
 20
183.554505
 11
266.248346
 21
170.396367
  0
LINE
  8
CutLine
  6
CONTINUOUS
 62
8
 10
266.248346
 20
170.396367
 11
305.183531
 21
80.215494
  0
LINE
  8
CutLine
  6
CONTINUOUS
 62
8
 10
316.972628
 20
183.554505
 11
315.837426
 21
197.663605
  0
LINE
  8
ValleyLine
  6
CONTINUOUS
 62
1
 10
315.837426
 20
197.663605
 11
266.248346
 21
170.396367
  0
LINE
  8
CutLine
  6
CONTINUOUS
 62
8
 10
343.738021
 20
249.982898
 11
302.739642
 21
279.926797
  0
LINE
  8
ValleyLine
  6
CONTINUOUS
 62
1
 10
302.739642
 20
279.926797
 11
288.535210
 21
289.192593
  0
LINE
  8
CutLine
  6
CONTINUOUS
 62
8
 10
288.535210
 20
289.192593
 11
208.019325
 21
206.422627
  0
LINE
  8
MountainLine
  6
CONTINUOUS
 62
5
 10
208.019325
 20
206.422627
 11
266.248346
 21
170.396367
  0
LINE
  8
MountainLine
  6
CONTINUOUS
 62
5
 10
315.837426
 20
197.663605
 11
343.738021
 21
249.982898
  0
LINE
  8
ValleyLine
  6
CONTINUOUS
 62
1
 10
305.183531
 20
80.215494
 11
367.941601
 21
86.369105
  0
LINE
  8
CutLine
  6
CONTINUOUS
 62
8
 10
367.941601
 20
86.369105
 11
369.590698
 21
92.074680
  0
LINE
  8
MountainLine
  6
CONTINUOUS
 62
5
 10
369.590698
 20
92.074680
 11
316.972628
 21
183.554505
  0
LINE
  8
ValleyLine
  6
CONTINUOUS
 62
1
 10
422.192510
 20
123.136303
 11
441.917031
 21
115.095439
  0
LINE
  8
ValleyLine
  6
CONTINUOUS
 62
1
 10
441.917031
 20
115.095439
 11
454.957059
 21
144.035917
  0
LINE
  8
CutLine
  6
CONTINUOUS
 62
8
 10
454.957059
 20
144.035917
 11
422.192510
 21
123.136303
  0
LINE
  8
ValleyLine
  6
CONTINUOUS
 62
1
 10
168.204991
 20
114.109156
 11
187.895342
 21
122.233335
  0
LINE
  8
CutLine
  6
CONTINUOUS
 62
8
 10
187.895342
 20
122.233335
 11
155.042731
 21
142.994247
  0
LINE
  8
ValleyLine
  6
CONTINUOUS
 62
1
 10
236.825696
 20
87.996236
 11
214.918373
 21
75.804220
  0
LINE
  8
ValleyLine
  6
CONTINUOUS
 62
1
 10
214.918373
 20
75.804220
 11
224.349330
 21
59.227411
  0
LINE
  8
CutLine
  6
CONTINUOUS
 62
8
 10
224.349330
 20
59.227411
 11
253.410996
 21
24.636283
  0
LINE
  8
ValleyLine
  6
CONTINUOUS
 62
1
 10
253.410996
 20
24.636283
 11
242.380811
 21
85.895330
  0
LINE
  8
CutLine
  6
CONTINUOUS
 62
8
 10
242.380811
 20
85.895330
 11
236.825696
 21
87.996236
  0
LINE
  8
ValleyLine
  6
CONTINUOUS
 62
1
 10
236.825696
 20
87.996236
 11
187.895342
 21
122.233335
  0
LINE
  8
ValleyLine
  6
CONTINUOUS
 62
1
 10
386.005212
 20
59.976828
 11
395.366005
 21
76.593359
  0
LINE
  8
ValleyLine
  6
CONTINUOUS
 62
1
 10
395.366005
 20
76.593359
 11
373.407334
 21
88.692651
  0
LINE
  8
ValleyLine
  6
CONTINUOUS
 62
1
 10
373.407334
 20
88.692651
 11
367.941601
 21
86.369105
  0
LINE
  8
ValleyLine
  6
CONTINUOUS
 62
1
 10
367.941601
 20
86.369105
 11
357.374017
 21
25.028563
  0
LINE
  8
CutLine
  6
CONTINUOUS
 62
8
 10
357.374017
 20
25.028563
 11
386.005212
 21
59.976828
  0
LINE
  8
MountainLine
  6
CONTINUOUS
 62
5
 10
305.183531
 20
80.215494
 11
305.386282
 21
26.482139
  0
LINE
  8
ValleyLine
  6
CONTINUOUS
 62
1
 10
305.386282
 20
26.482139
 11
357.374017
 21
25.028563
  0
LINE
  8
ValleyLine
  6
CONTINUOUS
 62
1
 10
305.183531
 20
80.215494
 11
242.380811
 21
85.895330
  0
LINE
  8
ValleyLine
  6
CONTINUOUS
 62
1
 10
253.410996
 20
24.636283
 11
305.386282
 21
26.482139
  0
LINE
  8
MountainLine
  6
CONTINUOUS
 62
5
 10
473.666704
 20
102.863433
 11
455.875032
 21
98.749586
  0
LINE
  8
CutLine
  6
CONTINUOUS
 62
8
 10
483.059495
 20
83.162992
 11
473.666704
 21
102.863433
  0
LINE
  8
CutLine
  6
CONTINUOUS
 62
8
 10
154.316219
 20
97.704440
 11
136.507314
 21
101.743034
  0
LINE
  8
MountainLine
  6
CONTINUOUS
 62
5
 10
136.507314
 20
101.743034
 11
127.197893
 21
82.003061
  0
LINE
  8
ValleyLine
  6
CONTINUOUS
 62
1
 10
80.317411
 20
57.458428
 11
64.357855
 21
51.721403
  0
LINE
  8
ValleyLine
  6
CONTINUOUS
 62
1
 10
64.357855
 20
51.721403
 11
39.590669
 21
40.568060
  0
LINE
  8
MountainLine
  6
CONTINUOUS
 62
5
 10
39.590669
 20
40.568060
 11
50.940608
 21
3.747202
  0
LINE
  8
MountainLine
  6
CONTINUOUS
 62
5
 10
50.940608
 20
3.747202
 11
174.133602
 21
44.703695
  0
LINE
  8
ValleyLine
  6
CONTINUOUS
 62
1
 10
174.133602
 20
44.703695
 11
155.261018
 21
72.765714
  0
LINE
  8
MountainLine
  6
CONTINUOUS
 62
5
 10
155.261018
 20
72.765714
 11
127.065166
 21
77.261244
  0
LINE
  8
CutLine
  6
CONTINUOUS
 62
8
 10
127.065166
 20
77.261244
 11
80.317411
 21
57.458428
  0
LINE
  8
MountainLine
  6
CONTINUOUS
 62
5
 10
214.918373
 20
75.804220
 11
175.780490
 21
76.091844
  0
LINE
  8
CutLine
  6
CONTINUOUS
 62
8
 10
175.780490
 20
76.091844
 11
155.261018
 21
72.765714
  0
LINE
  8
MountainLine
  6
CONTINUOUS
 62
5
 10
174.133602
 20
44.703695
 11
224.349330
 21
59.227411
  0
LINE
  8
ValleyLine
  6
CONTINUOUS
 62
1
 10
455.035672
 20
73.807088
 11
436.281892
 21
45.665535
  0
LINE
  8
CutLine
  6
CONTINUOUS
 62
8
 10
436.281892
 20
45.665535
 11
559.648740
 21
5.235735
  0
LINE
  8
MountainLine
  6
CONTINUOUS
 62
5
 10
559.648740
 20
5.235735
 11
570.840272
 21
42.105049
  0
LINE
  8
ValleyLine
  6
CONTINUOUS
 62
1
 10
570.840272
 20
42.105049
 11
546.019048
 21
53.137610
  0
LINE
  8
CutLine
  6
CONTINUOUS
 62
8
 10
546.019048
 20
53.137610
 11
530.049070
 21
58.845562
  0
LINE
  8
ValleyLine
  6
CONTINUOUS
 62
1
 10
530.049070
 20
58.845562
 11
483.210493
 21
78.432594
  0
LINE
  8
CutLine
  6
CONTINUOUS
 62
8
 10
483.210493
 20
78.432594
 11
455.035672
 21
73.807088
  0
LINE
  8
CutLine
  6
CONTINUOUS
 62
8
 10
434.502322
 20
77.046440
 11
395.366005
 21
76.593359
  0
LINE
  8
MountainLine
  6
CONTINUOUS
 62
5
 10
386.005212
 20
59.976828
 11
436.281892
 21
45.665535
  0
LINE
  8
MountainLine
  6
CONTINUOUS
 62
5
 10
455.035672
 20
73.807088
 11
434.502322
 21
77.046440
  0
ENDSEC
  0
EOF
