  0
SECTION
  2
HEADER
  9
$ACADVER
  1
AC1009
  0
ENDSEC
  0
SECTION
  2
BLOCKS
  0
ENDSEC
  0
SECTION
  2
ENTITIES
  0
LINE
  8
CutLine
  6
CONTINUOUS
 62
8
 10
833.500263
 20
322.719261
 11
833.454055
 21
315.648345
  0
LINE
  8
CutLine
  6
CONTINUOUS
 62
8
 10
833.454055
 20
315.648345
 11
788.993018
 21
271.764641
  0
LINE
  8
CutLine
  6
CONTINUOUS
 62
8
 10
788.993018
 20
271.764641
 11
781.922102
 21
271.810849
  0
LINE
  8
CutLine
  6
CONTINUOUS
 62
8
 10
834.418018
 20
404.311431
 11
840.572895
 21
400.830412
  0
LINE
  8
CutLine
  6
CONTINUOUS
 62
8
 10
840.572895
 20
400.830412
 11
850.855096
 21
363.776023
  0
LINE
  8
CutLine
  6
CONTINUOUS
 62
8
 10
850.855096
 20
363.776023
 11
847.374077
 21
357.621146
  0
LINE
  8
CutLine
  6
CONTINUOUS
 62
8
 10
1292.367133
 20
102.382396
 11
1295.518629
 21
96.052461
  0
LINE
  8
CutLine
  6
CONTINUOUS
 62
8
 10
1295.518629
 20
96.052461
 11
1282.703872
 21
57.825441
  0
LINE
  8
CutLine
  6
CONTINUOUS
 62
8
 10
1282.703872
 20
57.825441
 11
1276.373937
 21
54.673945
  0
LINE
  8
CutLine
  6
CONTINUOUS
 62
8
 10
1219.230367
 20
121.840808
 11
1225.347831
 21
125.387164
  0
LINE
  8
CutLine
  6
CONTINUOUS
 62
8
 10
1225.347831
 20
125.387164
 11
1288.820778
 21
108.499859
  0
LINE
  8
CutLine
  6
CONTINUOUS
 62
8
 10
1288.820778
 20
108.499859
 11
1292.367133
 21
102.382396
  0
LINE
  8
CutLine
  6
CONTINUOUS
 62
8
 10
1283.285974
 20
25.574080
 11
1278.745366
 21
20.153483
  0
LINE
  8
CutLine
  6
CONTINUOUS
 62
8
 10
1278.745366
 20
20.153483
 11
1215.138334
 21
14.534339
  0
LINE
  8
CutLine
  6
CONTINUOUS
 62
8
 10
1215.138334
 20
14.534339
 11
1209.717737
 21
19.074948
  0
LINE
  8
CutLine
  6
CONTINUOUS
 62
8
 10
1138.592500
 20
38.967784
 11
1136.051416
 21
45.566488
  0
LINE
  8
CutLine
  6
CONTINUOUS
 62
8
 10
1136.051416
 20
45.566488
 11
1144.129938
 21
63.763351
  0
LINE
  8
CutLine
  6
CONTINUOUS
 62
8
 10
1144.129938
 20
63.763351
 11
1150.728642
 21
66.304434
  0
LINE
  8
CutLine
  6
CONTINUOUS
 62
8
 10
788.649667
 20
120.529635
 11
723.543521
 21
116.097633
  0
LINE
  8
CutLine
  6
CONTINUOUS
 62
8
 10
723.543521
 20
116.097633
 11
718.215484
 21
120.746507
  0
LINE
  8
CutLine
  6
CONTINUOUS
 62
8
 10
819.372212
 20
153.250502
 11
826.037908
 21
150.890736
  0
LINE
  8
CutLine
  6
CONTINUOUS
 62
8
 10
826.037908
 20
150.890736
 11
837.904311
 21
126.018117
  0
LINE
  8
CutLine
  6
CONTINUOUS
 62
8
 10
837.904311
 20
126.018117
 11
835.544546
 21
119.352421
  0
LINE
  8
CutLine
  6
CONTINUOUS
 62
8
 10
764.429501
 20
200.508007
 11
771.480661
 21
201.038237
  0
LINE
  8
CutLine
  6
CONTINUOUS
 62
8
 10
771.480661
 20
201.038237
 11
818.841982
 21
160.301662
  0
LINE
  8
CutLine
  6
CONTINUOUS
 62
8
 10
818.841982
 20
160.301662
 11
819.372212
 21
153.250502
  0
LINE
  8
CutLine
  6
CONTINUOUS
 62
8
 10
693.819250
 20
15.103784
 11
692.729880
 21
22.090434
  0
LINE
  8
CutLine
  6
CONTINUOUS
 62
8
 10
692.729880
 20
22.090434
 11
723.938908
 21
64.829595
  0
LINE
  8
CutLine
  6
CONTINUOUS
 62
8
 10
723.938908
 20
64.829595
 11
730.925558
 21
65.918966
  0
LINE
  8
CutLine
  6
CONTINUOUS
 62
8
 10
819.046315
 20
26.433218
 11
813.420893
 21
20.903859
  0
LINE
  8
CutLine
  6
CONTINUOUS
 62
8
 10
813.420893
 20
20.903859
 11
707.411071
 21
11.313031
  0
LINE
  8
CutLine
  6
CONTINUOUS
 62
8
 10
707.411071
 20
11.313031
 11
693.819250
 21
15.103784
  0
LINE
  8
CutLine
  6
CONTINUOUS
 62
8
 10
886.739747
 20
101.132015
 11
898.587563
 21
101.878939
  0
LINE
  8
CutLine
  6
CONTINUOUS
 62
8
 10
898.587563
 20
101.878939
 11
945.479209
 21
83.594823
  0
LINE
  8
CutLine
  6
CONTINUOUS
 62
8
 10
945.479209
 20
83.594823
 11
948.321190
 21
77.120015
  0
LINE
  8
CutLine
  6
CONTINUOUS
 62
8
 10
959.364153
 20
64.314247
 11
966.335331
 21
67.895685
  0
LINE
  8
CutLine
  6
CONTINUOUS
 62
8
 10
966.335331
 20
67.895685
 11
1009.345277
 21
58.400861
  0
LINE
  8
CutLine
  6
CONTINUOUS
 62
8
 10
1009.345277
 20
58.400861
 11
1021.877646
 21
50.513843
  0
LINE
  8
CutLine
  6
CONTINUOUS
 62
8
 10
1180.897128
 20
390.116355
 11
1175.897128
 21
395.116355
  0
LINE
  8
CutLine
  6
CONTINUOUS
 62
8
 10
1175.897128
 20
395.116355
 11
1175.897128
 21
421.853959
  0
LINE
  8
CutLine
  6
CONTINUOUS
 62
8
 10
1175.897128
 20
421.853959
 11
1180.897128
 21
431.456535
  0
LINE
  8
CutLine
  6
CONTINUOUS
 62
8
 10
1180.897128
 20
431.456535
 11
1187.528803
 21
429.002785
  0
LINE
  8
CutLine
  6
CONTINUOUS
 62
8
 10
1187.528803
 20
429.002785
 11
1199.309225
 21
403.384776
  0
LINE
  8
CutLine
  6
CONTINUOUS
 62
8
 10
1199.309225
 20
403.384776
 11
1198.135315
 21
393.969927
  0
LINE
  8
CutLine
  6
CONTINUOUS
 62
8
 10
1221.312804
 20
422.799860
 11
1222.486713
 21
413.385012
  0
LINE
  8
CutLine
  6
CONTINUOUS
 62
8
 10
1222.486713
 20
413.385012
 11
1210.706291
 21
387.767003
  0
LINE
  8
CutLine
  6
CONTINUOUS
 62
8
 10
1210.706291
 20
387.767003
 11
1204.074616
 21
385.313253
  0
LINE
  8
CutLine
  6
CONTINUOUS
 62
8
 10
1204.074616
 20
426.653432
 11
1210.044996
 21
430.442174
  0
LINE
  8
CutLine
  6
CONTINUOUS
 62
8
 10
1210.044996
 20
430.442174
 11
1217.524062
 21
428.770240
  0
LINE
  8
CutLine
  6
CONTINUOUS
 62
8
 10
1217.524062
 20
428.770240
 11
1221.312804
 21
422.799860
  0
LINE
  8
CutLine
  6
CONTINUOUS
 62
8
 10
1040.224777
 20
251.674472
 11
1085.630231
 21
226.869676
  0
LINE
  8
CutLine
  6
CONTINUOUS
 62
8
 10
1085.630231
 20
226.869676
 11
1087.621053
 21
220.084646
  0
LINE
  8
CutLine
  6
CONTINUOUS
 62
8
 10
979.552649
 20
116.612824
 11
975.396537
 21
130.097413
  0
LINE
  8
CutLine
  6
CONTINUOUS
 62
8
 10
975.396537
 20
130.097413
 11
982.123480
 21
236.327421
  0
LINE
  8
CutLine
  6
CONTINUOUS
 62
8
 10
982.123480
 20
236.327421
 11
987.499038
 21
242.099990
  0
LINE
  8
CutLine
  6
CONTINUOUS
 62
8
 10
1087.621053
 20
220.084646
 11
1088.014672
 21
213.024543
  0
LINE
  8
CutLine
  6
CONTINUOUS
 62
8
 10
1088.014672
 20
213.024543
 11
1036.468855
 21
155.391726
  0
LINE
  8
CutLine
  6
CONTINUOUS
 62
8
 10
1036.468855
 20
155.391726
 11
1029.408751
 21
154.998106
  0
LINE
  8
CutLine
  6
CONTINUOUS
 62
8
 10
1059.337041
 20
310.143361
 11
1065.876375
 21
307.453172
  0
LINE
  8
CutLine
  6
CONTINUOUS
 62
8
 10
1065.876375
 20
307.453172
 11
1082.803159
 21
266.865928
  0
LINE
  8
CutLine
  6
CONTINUOUS
 62
8
 10
1082.803159
 20
266.865928
 11
1080.112969
 21
260.326594
  0
LINE
  8
CutLine
  6
CONTINUOUS
 62
8
 10
1021.608872
 20
383.381932
 11
1028.664179
 21
382.910076
  0
LINE
  8
CutLine
  6
CONTINUOUS
 62
8
 10
1028.664179
 20
382.910076
 11
1033.213083
 21
377.709105
  0
LINE
  8
CutLine
  6
CONTINUOUS
 62
8
 10
1033.213083
 20
377.709105
 11
1032.741228
 21
370.653798
  0
LINE
  8
CutLine
  6
CONTINUOUS
 62
8
 10
1107.197166
 20
306.385344
 11
1102.628581
 21
311.782383
  0
LINE
  8
CutLine
  6
CONTINUOUS
 62
8
 10
1102.628581
 20
311.782383
 11
1107.275977
 21
367.686823
  0
LINE
  8
CutLine
  6
CONTINUOUS
 62
8
 10
1107.275977
 20
367.686823
 11
1112.673015
 21
372.255409
  0
LINE
  8
CutLine
  6
CONTINUOUS
 62
8
 10
1316.099784
 20
307.710042
 11
1321.743427
 21
303.449843
  0
LINE
  8
CutLine
  6
CONTINUOUS
 62
8
 10
1321.743427
 20
303.449843
 11
1327.827185
 21
259.897250
  0
LINE
  8
CutLine
  6
CONTINUOUS
 62
8
 10
1327.827185
 20
259.897250
 11
1323.566987
 21
254.253607
  0
LINE
  8
CutLine
  6
CONTINUOUS
 62
8
 10
1138.491661
 20
361.336416
 11
1144.237133
 21
365.458254
  0
LINE
  8
CutLine
  6
CONTINUOUS
 62
8
 10
1144.237133
 20
365.458254
 11
1207.244598
 21
355.090582
  0
LINE
  8
CutLine
  6
CONTINUOUS
 62
8
 10
1207.244598
 20
355.090582
 11
1211.366436
 21
349.345110
  0
LINE
  8
CutLine
  6
CONTINUOUS
 62
8
 10
1121.413433
 20
221.234876
 11
1114.499203
 21
222.715899
  0
LINE
  8
CutLine
  6
CONTINUOUS
 62
8
 10
1114.499203
 20
222.715899
 11
1099.526219
 21
245.851768
  0
LINE
  8
CutLine
  6
CONTINUOUS
 62
8
 10
1099.526219
 20
245.851768
 11
1101.007242
 21
252.765998
  0
LINE
  8
CutLine
  6
CONTINUOUS
 62
8
 10
1098.565035
 20
381.577405
 11
1092.721369
 21
386.800008
  0
LINE
  8
CutLine
  6
CONTINUOUS
 62
8
 10
1092.721369
 20
386.800008
 11
1090.622041
 21
400.728010
  0
LINE
  8
CutLine
  6
CONTINUOUS
 62
8
 10
1090.622041
 20
400.728010
 11
1094.820976
 21
406.417381
  0
LINE
  8
CutLine
  6
CONTINUOUS
 62
8
 10
1150.632837
 20
457.557722
 11
1153.724662
 21
451.198428
  0
LINE
  8
CutLine
  6
CONTINUOUS
 62
8
 10
1153.724662
 20
451.198428
 11
1141.571571
 21
416.045755
  0
LINE
  8
CutLine
  6
CONTINUOUS
 62
8
 10
1141.571571
 20
416.045755
 11
1134.441379
 21
410.724118
  0
LINE
  8
CutLine
  6
CONTINUOUS
 62
8
 10
1073.363447
 20
441.659051
 11
1076.387412
 21
448.050893
  0
LINE
  8
CutLine
  6
CONTINUOUS
 62
8
 10
1076.387412
 20
448.050893
 11
1114.349850
 21
461.629421
  0
LINE
  8
CutLine
  6
CONTINUOUS
 62
8
 10
1114.349850
 20
461.629421
 11
1120.741691
 21
458.605456
  0
LINE
  8
CutLine
  6
CONTINUOUS
 62
8
 10
1323.743040
 20
383.009048
 11
1320.944024
 21
375.060315
  0
LINE
  8
CutLine
  6
CONTINUOUS
 62
8
 10
1320.944024
 20
375.060315
 11
1316.704790
 21
372.178456
  0
LINE
  8
CutLine
  6
CONTINUOUS
 62
8
 10
1316.704790
 20
372.178456
 11
1309.758782
 21
373.502457
  0
LINE
  8
CutLine
  6
CONTINUOUS
 62
8
 10
1284.085857
 20
362.245114
 11
1279.440802
 21
367.576480
  0
LINE
  8
CutLine
  6
CONTINUOUS
 62
8
 10
1279.440802
 20
367.576480
 11
1282.009173
 21
404.911129
  0
LINE
  8
CutLine
  6
CONTINUOUS
 62
8
 10
1282.009173
 20
404.911129
 11
1287.486765
 21
411.681778
  0
LINE
  8
CutLine
  6
CONTINUOUS
 62
8
 10
1270.681245
 20
458.298560
 11
1275.434641
 21
463.533560
  0
LINE
  8
CutLine
  6
CONTINUOUS
 62
8
 10
1275.434641
 20
463.533560
 11
1295.321042
 21
464.492410
  0
LINE
  8
CutLine
  6
CONTINUOUS
 62
8
 10
1295.321042
 20
464.492410
 11
1300.556042
 21
459.739014
  0
LINE
  8
CutLine
  6
CONTINUOUS
 62
8
 10
833.500263
 20
322.719261
 11
847.374077
 21
357.621146
  0
LINE
  8
ValleyLine
  6
CONTINUOUS
 62
1
 10
847.374077
 20
357.621146
 11
806.728460
 21
348.264121
  0
LINE
  8
CutLine
  6
CONTINUOUS
 62
8
 10
806.728460
 20
348.264121
 11
730.410055
 21
348.264121
  0
LINE
  8
CutLine
  6
CONTINUOUS
 62
8
 10
730.410055
 20
348.264121
 11
736.305685
 21
274.640332
  0
LINE
  8
CutLine
  6
CONTINUOUS
 62
8
 10
736.305685
 20
274.640332
 11
741.732778
 21
275.524534
  0
LINE
  8
CutLine
  6
CONTINUOUS
 62
8
 10
741.732778
 20
275.524534
 11
748.191762
 21
275.350821
  0
LINE
  8
CutLine
  6
CONTINUOUS
 62
8
 10
748.191762
 20
275.350821
 11
768.246307
 21
274.811440
  0
LINE
  8
CutLine
  6
CONTINUOUS
 62
8
 10
768.246307
 20
274.811440
 11
774.134066
 21
273.519611
  0
LINE
  8
CutLine
  6
CONTINUOUS
 62
8
 10
774.134066
 20
273.519611
 11
781.922102
 21
271.810849
  0
LINE
  8
MountainLine
  6
CONTINUOUS
 62
5
 10
781.922102
 20
271.810849
 11
833.500263
 21
322.719261
  0
LINE
  8
CutLine
  6
CONTINUOUS
 62
8
 10
834.418018
 20
404.311431
 11
806.728460
 21
348.264121
  0
LINE
  8
MountainLine
  6
CONTINUOUS
 62
5
 10
847.374077
 20
357.621146
 11
834.418018
 21
404.311431
  0
LINE
  8
MountainLine
  6
CONTINUOUS
 62
5
 10
1276.373937
 20
54.673945
 11
1292.367133
 21
102.382396
  0
LINE
  8
MountainLine
  6
CONTINUOUS
 62
5
 10
1292.367133
 20
102.382396
 11
1219.230367
 21
121.840808
  0
LINE
  8
MountainLine
  6
CONTINUOUS
 62
5
 10
1209.717737
 20
19.074948
 11
1283.285974
 21
25.574080
  0
LINE
  8
CutLine
  6
CONTINUOUS
 62
8
 10
1283.285974
 20
25.574080
 11
1276.373937
 21
54.673945
  0
LINE
  8
CutLine
  6
CONTINUOUS
 62
8
 10
1219.230367
 20
121.840808
 11
1143.764521
 21
116.137953
  0
LINE
  8
CutLine
  6
CONTINUOUS
 62
8
 10
1143.764521
 20
116.137953
 11
1150.728642
 21
66.304434
  0
LINE
  8
MountainLine
  6
CONTINUOUS
 62
5
 10
1150.728642
 20
66.304434
 11
1138.592500
 21
38.967784
  0
LINE
  8
CutLine
  6
CONTINUOUS
 62
8
 10
1138.592500
 20
38.967784
 11
1209.717737
 21
19.074948
  0
LINE
  8
CutLine
  6
CONTINUOUS
 62
8
 10
764.429501
 20
200.508007
 11
756.458854
 21
200.713284
  0
LINE
  8
CutLine
  6
CONTINUOUS
 62
8
 10
756.458854
 20
200.713284
 11
750.433038
 21
200.868448
  0
LINE
  8
CutLine
  6
CONTINUOUS
 62
8
 10
750.433038
 20
200.868448
 11
730.644720
 21
197.567210
  0
LINE
  8
CutLine
  6
CONTINUOUS
 62
8
 10
730.644720
 20
197.567210
 11
724.271481
 21
196.503975
  0
LINE
  8
CutLine
  6
CONTINUOUS
 62
8
 10
724.271481
 20
196.503975
 11
719.112797
 21
194.600521
  0
LINE
  8
CutLine
  6
CONTINUOUS
 62
8
 10
719.112797
 20
194.600521
 11
718.215484
 21
120.746507
  0
LINE
  8
ValleyLine
  6
CONTINUOUS
 62
1
 10
718.215484
 20
120.746507
 11
794.357672
 21
125.929771
  0
LINE
  8
ValleyLine
  6
CONTINUOUS
 62
1
 10
794.357672
 20
125.929771
 11
835.544546
 21
119.352421
  0
LINE
  8
MountainLine
  6
CONTINUOUS
 62
5
 10
835.544546
 20
119.352421
 11
819.372212
 21
153.250502
  0
LINE
  8
MountainLine
  6
CONTINUOUS
 62
5
 10
819.372212
 20
153.250502
 11
764.429501
 21
200.508007
  0
LINE
  8
MountainLine
  6
CONTINUOUS
 62
5
 10
819.046315
 20
26.433218
 11
825.786634
 21
71.890591
  0
LINE
  8
ValleyLine
  6
CONTINUOUS
 62
1
 10
825.786634
 20
71.890591
 11
794.357672
 21
125.929771
  0
LINE
  8
CutLine
  6
CONTINUOUS
 62
8
 10
794.357672
 20
125.929771
 11
730.925558
 21
65.918966
  0
LINE
  8
ValleyLine
  6
CONTINUOUS
 62
1
 10
730.925558
 20
65.918966
 11
693.819250
 21
15.103784
  0
LINE
  8
ValleyLine
  6
CONTINUOUS
 62
1
 10
693.819250
 20
15.103784
 11
819.046315
 21
26.433218
  0
LINE
  8
CutLine
  6
CONTINUOUS
 62
8
 10
959.364153
 20
64.314247
 11
948.321190
 21
77.120015
  0
LINE
  8
ValleyLine
  6
CONTINUOUS
 62
1
 10
948.321190
 20
77.120015
 11
886.739747
 21
101.132015
  0
LINE
  8
CutLine
  6
CONTINUOUS
 62
8
 10
886.739747
 20
101.132015
 11
835.725039
 21
119.314596
  0
LINE
  8
MountainLine
  6
CONTINUOUS
 62
5
 10
835.725039
 20
119.314596
 11
825.786634
 21
71.890591
  0
LINE
  8
CutLine
  6
CONTINUOUS
 62
8
 10
1022.195197
 20
11.984687
 11
1021.877646
 21
50.513843
  0
LINE
  8
MountainLine
  6
CONTINUOUS
 62
5
 10
1021.877646
 20
50.513843
 11
959.364153
 21
64.314247
  0
LINE
  8
CutLine
  6
CONTINUOUS
 62
8
 10
819.046315
 20
26.433218
 11
1022.195197
 21
11.984687
  0
LINE
  8
ValleyLine
  6
CONTINUOUS
 62
1
 10
1180.897128
 20
431.456535
 11
1180.897128
 21
390.116355
  0
LINE
  8
CutLine
  6
CONTINUOUS
 62
8
 10
1180.897128
 20
390.116355
 11
1198.135315
 21
393.969927
  0
LINE
  8
MountainLine
  6
CONTINUOUS
 62
5
 10
1198.135315
 20
393.969927
 11
1180.897128
 21
431.456535
  0
LINE
  8
CutLine
  6
CONTINUOUS
 62
8
 10
1204.074616
 20
426.653432
 11
1204.074616
 21
385.313253
  0
LINE
  8
MountainLine
  6
CONTINUOUS
 62
5
 10
1204.074616
 20
385.313253
 11
1221.312804
 21
422.799860
  0
LINE
  8
MountainLine
  6
CONTINUOUS
 62
5
 10
1221.312804
 20
422.799860
 11
1204.074616
 21
426.653432
  0
LINE
  8
ValleyLine
  6
CONTINUOUS
 62
1
 10
1087.621053
 20
220.084646
 11
1032.759609
 21
250.055207
  0
LINE
  8
MountainLine
  6
CONTINUOUS
 62
5
 10
1032.759609
 20
250.055207
 11
987.499038
 21
242.099990
  0
LINE
  8
ValleyLine
  6
CONTINUOUS
 62
1
 10
987.499038
 20
242.099990
 11
979.552649
 21
116.612824
  0
LINE
  8
CutLine
  6
CONTINUOUS
 62
8
 10
979.552649
 20
116.612824
 11
1029.408751
 21
154.998106
  0
LINE
  8
MountainLine
  6
CONTINUOUS
 62
5
 10
1029.408751
 20
154.998106
 11
1087.621053
 21
220.084646
  0
LINE
  8
CutLine
  6
CONTINUOUS
 62
8
 10
1032.759609
 20
250.055207
 11
1080.112969
 21
260.326594
  0
LINE
  8
ValleyLine
  6
CONTINUOUS
 62
1
 10
1080.112969
 20
260.326594
 11
1059.337041
 21
310.143361
  0
LINE
  8
CutLine
  6
CONTINUOUS
 62
8
 10
1059.337041
 20
310.143361
 11
1032.741228
 21
370.653798
  0
LINE
  8
MountainLine
  6
CONTINUOUS
 62
5
 10
1032.741228
 20
370.653798
 11
1021.608872
 21
383.381932
  0
LINE
  8
CutLine
  6
CONTINUOUS
 62
8
 10
1021.608872
 20
383.381932
 11
1006.128351
 21
445.500701
  0
LINE
  8
CutLine
  6
CONTINUOUS
 62
8
 10
1006.128351
 20
445.500701
 11
967.604478
 21
444.788013
  0
LINE
  8
CutLine
  6
CONTINUOUS
 62
8
 10
967.604478
 20
444.788013
 11
987.499038
 21
242.099990
  0
LINE
  8
CutLine
  6
CONTINUOUS
 62
8
 10
1132.060942
 20
149.550822
 11
1144.085901
 21
149.958878
  0
LINE
  8
CutLine
  6
CONTINUOUS
 62
8
 10
1144.085901
 20
149.958878
 11
1149.574896
 21
151.244851
  0
LINE
  8
CutLine
  6
CONTINUOUS
 62
8
 10
1149.574896
 20
151.244851
 11
1169.033318
 21
155.803623
  0
LINE
  8
CutLine
  6
CONTINUOUS
 62
8
 10
1169.033318
 20
155.803623
 11
1174.015404
 21
158.066975
  0
LINE
  8
CutLine
  6
CONTINUOUS
 62
8
 10
1174.015404
 20
158.066975
 11
1192.306260
 21
166.376497
  0
LINE
  8
CutLine
  6
CONTINUOUS
 62
8
 10
1192.306260
 20
166.376497
 11
1196.634653
 21
169.498009
  0
LINE
  8
CutLine
  6
CONTINUOUS
 62
8
 10
1196.634653
 20
169.498009
 11
1212.660306
 21
181.317064
  0
LINE
  8
MountainLine
  6
CONTINUOUS
 62
5
 10
1212.660306
 20
181.317064
 11
1212.356361
 21
221.234876
  0
LINE
  8
ValleyLine
  6
CONTINUOUS
 62
1
 10
1212.356361
 20
221.234876
 11
1121.413433
 21
221.234876
  0
LINE
  8
CutLine
  6
CONTINUOUS
 62
8
 10
1121.413433
 20
221.234876
 11
1132.060942
 21
149.550822
  0
LINE
  8
MountainLine
  6
CONTINUOUS
 62
5
 10
1138.491661
 20
361.336416
 11
1112.673015
 21
372.255409
  0
LINE
  8
ValleyLine
  6
CONTINUOUS
 62
1
 10
1112.673015
 20
372.255409
 11
1107.197166
 21
306.385344
  0
LINE
  8
ValleyLine
  6
CONTINUOUS
 62
1
 10
1107.197166
 20
306.385344
 11
1138.491661
 21
361.336416
  0
LINE
  8
MountainLine
  6
CONTINUOUS
 62
5
 10
1309.758782
 20
373.502457
 11
1284.085857
 21
362.245114
  0
LINE
  8
ValleyLine
  6
CONTINUOUS
 62
1
 10
1284.085857
 20
362.245114
 11
1316.099784
 21
307.710042
  0
LINE
  8
CutLine
  6
CONTINUOUS
 62
8
 10
1316.099784
 20
307.710042
 11
1309.758782
 21
373.502457
  0
LINE
  8
CutLine
  6
CONTINUOUS
 62
8
 10
1303.288430
 20
222.640249
 11
1323.566987
 21
254.253607
  0
LINE
  8
ValleyLine
  6
CONTINUOUS
 62
1
 10
1323.566987
 20
254.253607
 11
1316.099784
 21
307.710042
  0
LINE
  8
CutLine
  6
CONTINUOUS
 62
8
 10
1284.085857
 20
362.245114
 11
1211.366436
 21
349.345110
  0
LINE
  8
MountainLine
  6
CONTINUOUS
 62
5
 10
1211.366436
 20
349.345110
 11
1212.356361
 21
221.234876
  0
LINE
  8
ValleyLine
  6
CONTINUOUS
 62
1
 10
1212.356361
 20
221.234876
 11
1303.288430
 21
222.640249
  0
LINE
  8
MountainLine
  6
CONTINUOUS
 62
5
 10
1211.366436
 20
349.345110
 11
1138.491661
 21
361.336416
  0
LINE
  8
CutLine
  6
CONTINUOUS
 62
8
 10
1107.197166
 20
306.385344
 11
1101.007242
 21
252.765998
  0
LINE
  8
MountainLine
  6
CONTINUOUS
 62
5
 10
1101.007242
 20
252.765998
 11
1121.413433
 21
221.234876
  0
LINE
  8
CutLine
  6
CONTINUOUS
 62
8
 10
1073.363447
 20
441.659051
 11
1094.820976
 21
406.417381
  0
LINE
  8
ValleyLine
  6
CONTINUOUS
 62
1
 10
1094.820976
 20
406.417381
 11
1134.441379
 21
410.724118
  0
LINE
  8
ValleyLine
  6
CONTINUOUS
 62
1
 10
1134.441379
 20
410.724118
 11
1073.363447
 21
441.659051
  0
LINE
  8
ValleyLine
  6
CONTINUOUS
 62
1
 10
1112.673015
 20
372.255409
 11
1134.441379
 21
410.724118
  0
LINE
  8
ValleyLine
  6
CONTINUOUS
 62
1
 10
1134.441379
 20
410.724118
 11
1098.565035
 21
381.577405
  0
LINE
  8
CutLine
  6
CONTINUOUS
 62
8
 10
1098.565035
 20
381.577405
 11
1112.673015
 21
372.255409
  0
LINE
  8
ValleyLine
  6
CONTINUOUS
 62
1
 10
1094.820976
 20
406.417381
 11
1098.565035
 21
381.577405
  0
LINE
  8
CutLine
  6
CONTINUOUS
 62
8
 10
1138.491661
 20
361.336416
 11
1134.441379
 21
410.724118
  0
LINE
  8
CutLine
  6
CONTINUOUS
 62
8
 10
1150.632837
 20
457.557722
 11
1120.741691
 21
458.605456
  0
LINE
  8
ValleyLine
  6
CONTINUOUS
 62
1
 10
1120.741691
 20
458.605456
 11
1134.441379
 21
410.724118
  0
LINE
  8
ValleyLine
  6
CONTINUOUS
 62
1
 10
1134.441379
 20
410.724118
 11
1150.632837
 21
457.557722
  0
LINE
  8
MountainLine
  6
CONTINUOUS
 62
5
 10
1120.741691
 20
458.605456
 11
1073.363447
 21
441.659051
  0
LINE
  8
CutLine
  6
CONTINUOUS
 62
8
 10
1327.160343
 20
407.896081
 11
1348.152894
 21
443.416690
  0
LINE
  8
ValleyLine
  6
CONTINUOUS
 62
1
 10
1348.152894
 20
443.416690
 11
1287.486765
 21
411.681778
  0
LINE
  8
ValleyLine
  6
CONTINUOUS
 62
1
 10
1287.486765
 20
411.681778
 11
1327.160343
 21
407.896081
  0
LINE
  8
ValleyLine
  6
CONTINUOUS
 62
1
 10
1287.486765
 20
411.681778
 11
1309.758782
 21
373.502457
  0
LINE
  8
MountainLine
  6
CONTINUOUS
 62
5
 10
1309.758782
 20
373.502457
 11
1323.743040
 21
383.009048
  0
LINE
  8
ValleyLine
  6
CONTINUOUS
 62
1
 10
1323.743040
 20
383.009048
 11
1287.486765
 21
411.681778
  0
LINE
  8
CutLine
  6
CONTINUOUS
 62
8
 10
1323.743040
 20
383.009048
 11
1327.160343
 21
407.896081
  0
LINE
  8
ValleyLine
  6
CONTINUOUS
 62
1
 10
1287.486765
 20
411.681778
 11
1284.085857
 21
362.245114
  0
LINE
  8
MountainLine
  6
CONTINUOUS
 62
5
 10
1300.556042
 20
459.739014
 11
1270.681245
 21
458.298560
  0
LINE
  8
CutLine
  6
CONTINUOUS
 62
8
 10
1270.681245
 20
458.298560
 11
1287.486765
 21
411.681778
  0
LINE
  8
ValleyLine
  6
CONTINUOUS
 62
1
 10
1287.486765
 20
411.681778
 11
1300.556042
 21
459.739014
  0
LINE
  8
CutLine
  6
CONTINUOUS
 62
8
 10
1348.152894
 20
443.416690
 11
1300.556042
 21
459.739014
  0
LINE
  8
CutLine
  6
CONTINUOUS
 62
8
 10
1212.660306
 20
181.317064
 11
1232.404076
 21
179.176371
  0
LINE
  8
CutLine
  6
CONTINUOUS
 62
8
 10
1232.404076
 20
179.176371
 11
1237.709259
 21
178.598571
  0
LINE
  8
CutLine
  6
CONTINUOUS
 62
8
 10
1237.709259
 20
178.598571
 11
1256.860572
 21
172.529734
  0
LINE
  8
CutLine
  6
CONTINUOUS
 62
8
 10
1256.860572
 20
172.529734
 11
1262.077027
 21
170.876692
  0
LINE
  8
CutLine
  6
CONTINUOUS
 62
8
 10
1262.077027
 20
170.876692
 11
1279.588442
 21
161.245342
  0
LINE
  8
CutLine
  6
CONTINUOUS
 62
8
 10
1279.588442
 20
161.245342
 11
1284.528207
 21
158.528448
  0
LINE
  8
CutLine
  6
CONTINUOUS
 62
8
 10
1284.528207
 20
158.528448
 11
1293.749952
 21
150.800214
  0
LINE
  8
CutLine
  6
CONTINUOUS
 62
8
 10
1293.749952
 20
150.800214
 11
1303.288430
 21
222.640249
  0
ENDSEC
  0
EOF
