<?xml version="1.0" encoding="utf-8"?>
<!DOCTYPE svg PUBLIC "-//W3C//DTD SVG 1.1//EN" "http://www.w3.org/Graphics/SVG/1.1/DTD/svg11.dtd">
<!-- exported from Silhouette Studio® Business Edition V4.4.920ssbe -->
<svg version="1.1" xmlns="http://www.w3.org/2000/svg" xmlns:xlink="http://www.w3.org/1999/xlink" width="304.8mm" height="609.6mm" viewBox="0 0 304.8 609.6">
<defs>
<path id="path_b1be1f1d754204362c208520ed483f5f" d="M 101.2144 274.7414 L 111.7665 247.6217 M 111.4507 174.6724 L 34.01111 195.333 M 207.476 243.5809 L 184.6271 153.0659 L 184.6271 153.0659 L 186.5181 98.58673 L 186.5183 98.58679 L 218.1362 117.4146 M 231.783 140.0199 L 245.1654 170.0659 M 137.7166 232.2294 L 183.3258 214.7859 M 204.8593 331.0332 L 282.0905 332.3127 M 208.1253 541.2983 L 217.9576 485.359 L 217.9576 485.359 L 277.1221 514.9962 L 277.1222 514.9963 L 247.5958 473.4101 L 247.5958 473.4101 L 251.0706 419.4754 M 197.5684 427.1129 L 208.3815 457.8795 M 254.7471 405.4194 L 154.6067 365.3666 M 34.93048 478.9899 L 112.6265 500.605 M 129.4733 540.145 L 182.7883 507.0687 M 119.0427 499.5344 L 177.2657 452.2465 M 107.8804 452.4001 L 164.0541 404.9084 M 142.7404 365.1265 L 97.81091 398.882" fill-rule="evenodd" fill="none" fill-opacity="1" stroke="#0000FF" stroke-opacity="1" stroke-width="1.058333" stroke-linecap="round" stroke-linejoin="round"/>
<path id="path_1c6dde7f43eebc5130f5e4ece1f42581" d="M 34.84039 41.86511 L 31.70911 101.3248 L 31.70911 101.3248 L 91.18884 117.1531 L 91.18884 117.153 L 111.4504 174.6722 L 111.4505 174.6723 L 111.7664 247.6216 L 111.7664 247.6216 L 34.01099 195.3328 L 34.01099 195.3329 L 29.43579 146.3991 L 29.43573 146.3991 L 91.18884 117.1531 M 101.2142 274.7412 L 43.28851 249.6459 L 43.28851 249.6459 L 55.02783 307.7972 M 218.1359 117.4143 L 241.2033 87.25089 M 204.859 331.0331 L 205.3566 245.233 L 205.3566 245.233 L 183.3254 214.7857 L 183.3258 214.7857 L 118.6331 149.529 L 118.6331 149.529 L 184.6273 153.0658 L 184.627 153.0658 L 245.165 170.0658 L 245.1652 170.0658 L 252.7518 170.9529 M 186.518 98.58661 L 118.633 149.529 M 261.4641 171.9641 L 271.403 173.1705 L 271.4033 173.1705 L 280.3665 124.9376 L 280.3663 124.9375 L 265.9203 123.3896 L 265.9202 123.3896 L 245.165 170.0659 M 231.7831 140.0198 L 184.6273 153.0658 L 184.6272 153.0658 L 183.3257 214.7858 M 184.627 153.0658 L 254.3499 258.9168 L 254.3499 258.9168 L 207.4761 243.5808 M 114.9585 283.2297 L 137.7164 232.2293 L 137.7164 232.2293 L 167.3596 296.4645 M 282.0901 332.3127 L 243.4999 276.497 M 254.7469 405.4193 L 183.0604 343.2219 L 183.0604 343.2219 L 154.6066 365.3665 L 154.6066 365.3665 L 197.5682 427.1128 L 197.5682 427.1128 L 251.0703 419.4753 L 251.0707 419.4753 L 208.3814 457.8793 L 208.3813 457.8794 L 247.5956 473.4099 M 183.0602 343.2219 L 150.728 303.6575 M 107.8801 452.4 L 177.2656 452.2463 L 177.2656 452.2463 L 182.788 507.0686 L 182.7881 507.0686 L 119.0426 499.5342 L 119.0425 499.5343 L 107.88 452.4 L 107.8801 452.4 L 97.81079 398.8819 L 97.81079 398.8819 L 88.15332 341.3453 M 84.28729 342.1295 L 29.11554 418.2842 M 112.4927 542.5334 L 112.6262 500.6049 L 112.6262 500.6049 L 38.11639 531.2867 L 38.11652 531.2867 L 34.9303 478.9897 M 142.7401 365.1264 L 164.0538 404.9083 L 164.0538 404.9083 L 97.81067 398.8819 M 129.4732 540.1448 L 185.4847 566.3317" fill-rule="evenodd" fill="none" fill-opacity="1" stroke="#FF0000" stroke-opacity="1" stroke-width="1.058333" stroke-linecap="round" stroke-linejoin="round"/>
<path id="path_d598f89dd7a9aabdf10483bfd3153deb" d="M 28.77075 72.59164 L 30.16736 46.07062 L 30.16742 46.0708 L 34.84052 41.86517 L 34.84052 41.86517 L 91.18896 117.1534 L 91.18896 117.1533 L 96.85883 119.8692 L 96.85889 119.8693 L 102.484 135.8379" fill-rule="evenodd" fill="none" fill-opacity="1" stroke="#414141" stroke-opacity="1" stroke-width="1.058333" stroke-linecap="round" stroke-linejoin="round"/>
<path id="path_1ad95ec8c397a39c2a45cc17071f62c4" d="M 103.347 138.2879 L 114.1666 169.0026 L 114.1666 169.0025 L 111.4509 174.6725 L 111.4509 174.6725 L 132.6593 222.5818 L 111.7665 247.6217 L 111.7665 247.6217 L 114.2972 253.3766 L 114.2974 253.3766 L 106.9692 272.2104 L 106.9692 272.2105 L 101.2145 274.7415 L 101.2145 274.7415 L 55.02802 307.7974 L 55.02795 307.7974 L 49.79065 304.3195 L 45.42657 282.7015" fill-rule="evenodd" fill="none" fill-opacity="1" stroke="#414141" stroke-opacity="1" stroke-width="1.058333" stroke-linecap="round" stroke-linejoin="round"/>
<path id="path_cc37658a68d42c1d3248316c4408d0a0" d="M 44.83746 279.7831 L 39.81073 254.8832 L 43.28864 249.6461 L 43.28864 249.6461 L 34.01111 195.333 L 34.01105 195.333 L 29.17102 191.3206 L 29.17108 191.3206 L 25.42365 151.2393 L 25.42358 151.2393 L 29.43591 146.3992 L 29.43579 146.3993 L 31.70911 101.325 L 31.70935 101.325 L 27.50372 96.65182 L 27.50366 96.65176 L 28.62946 75.27417" fill-rule="evenodd" fill="none" fill-opacity="1" stroke="#414141" stroke-opacity="1" stroke-width="1.058333" stroke-linecap="round" stroke-linejoin="round"/>
<path id="path_2075431c141718b2564660d513320c8e" d="M 204.4152 239.9315 L 205.3566 245.2332 L 205.3565 245.2332 L 243.5 276.4973 L 243.5001 276.4973 L 249.6847 277.6257 L 283.2186 326.1282 L 283.2188 326.1281 L 282.0905 332.3127 L 282.0905 332.3129 L 277.572 336.6841 L 277.5719 336.684 L 241.7961 336.0912" fill-rule="evenodd" fill="none" fill-opacity="1" stroke="#414141" stroke-opacity="1" stroke-width="1.058333" stroke-linecap="round" stroke-linejoin="round"/>
<path id="path_4425068b72a3d86ae79c6b969314cf65" d="M 238.8395 336.0423 L 210.0649 335.5656 L 204.8593 331.0333 L 167.3596 296.4647 L 167.3596 296.4647 L 114.9586 283.2299 L 114.9587 283.2299 L 112.9917 276.7289 L 112.9917 276.729 L 120.2068 260.5598" fill-rule="evenodd" fill="none" fill-opacity="1" stroke="#414141" stroke-opacity="1" stroke-width="1.058333" stroke-linecap="round" stroke-linejoin="round"/>
<path id="path_b4cd0309684eee3b2d43a4c8653335fb" d="M 121.4381 257.8005 L 131.6788 234.8507 L 137.7166 232.2295 L 137.7166 232.2294 L 118.6332 149.5292 L 121.709 141.6629 L 121.709 141.6631 L 146.7263 122.8895" fill-rule="evenodd" fill="none" fill-opacity="1" stroke="#414141" stroke-opacity="1" stroke-width="1.058333" stroke-linecap="round" stroke-linejoin="round"/>
<path id="path_6f425d5356ad8b2772fb43c100fdac6e" d="M 149.1374 121.0802 L 180.2941 97.69949 L 180.2944 97.69928 L 186.5183 98.58673 L 241.2035 87.25113 L 241.2034 87.25119 L 241.5226 94.15192 L 241.5223 94.15192 L 234.2251 103.694" fill-rule="evenodd" fill="none" fill-opacity="1" stroke="#414141" stroke-opacity="1" stroke-width="1.058333" stroke-linecap="round" stroke-linejoin="round"/>
<path id="path_f258baad5fb42099302aa0d1f2a17e0f" d="M 232.3968 106.0847 L 232.3499 106.1461" fill-rule="evenodd" fill="none" fill-opacity="1" stroke="#414141" stroke-opacity="1" stroke-width="1.058333" stroke-linecap="round" stroke-linejoin="round"/>
<path id="path_4ad92081ac3b1495fec04d4cb9be14c7" d="M 231.9344 106.6894 L 224.3678 116.5838 L 224.3679 116.5838 L 218.1362 117.4145 L 218.1359 117.4147 L 184.6271 153.066" fill-rule="evenodd" fill="none" fill-opacity="1" stroke="#414141" stroke-opacity="1" stroke-width="1.058333" stroke-linecap="round" stroke-linejoin="round"/>
<path id="path_0bfa814c0f2f2bb8731936f032c1389a" d="M 190.486 146.8327 L 226.3132 136.9208 L 231.783 140.02 L 231.7827 140.02 L 265.9202 123.3898 L 265.9205 123.3897 L 270.8142 119.4433 L 270.8141 119.4434 L 276.42 120.0441 L 276.4202 120.0439 L 280.3666 124.9378 L 280.3666 124.9378 L 283.925 130.1206 L 283.925 130.1205 L 277.0648 167.0375 L 277.0646 167.0375 L 271.4033 173.1707 L 271.4032 173.1707 L 266.4545 177.0481 L 266.4547 177.0481 L 265.342 176.913 L 265.3419 176.913 L 261.4644 171.9644 L 261.4644 171.9643 L 252.7521 170.9531 L 252.7521 170.9531 L 248.4424 174.925 L 248.4424 174.9248 L 245.1654 170.0659 L 245.1653 170.066 L 254.3501 258.9169 L 254.3501 258.9169 L 248.7428 261.7597 L 248.7429 261.7597 L 210.3192 249.1884 L 210.3189 249.1884 L 207.4761 243.5809 L 207.476 243.5811 L 183.3256 214.7859" fill-rule="evenodd" fill="none" fill-opacity="1" stroke="#414141" stroke-opacity="1" stroke-width="1.058333" stroke-linecap="round" stroke-linejoin="round"/>
<path id="path_49d76082ed2c4b57b9a4714256ece78e" d="M 172.4241 323.1813 L 183.6897 336.9669 L 183.6898 336.9669 L 183.0606 343.2221 L 207.4188 358.4704 L 207.4186 358.4704 L 254.3026 399.1484 L 254.3025 399.1484 L 254.7469 405.4194 L 254.7472 405.4194 L 251.0708 419.4755 L 251.0706 419.4755 L 255.2211 424.1976 L 252.3176 469.2597 L 252.3179 469.2596 L 247.5958 473.4101 L 247.5956 473.4102 L 253.7941 474.4613 L 253.7938 474.4613 L 267.5815 493.8804" fill-rule="evenodd" fill="none" fill-opacity="1" stroke="#414141" stroke-opacity="1" stroke-width="1.058333" stroke-linecap="round" stroke-linejoin="round"/>
<path id="path_2101090f00a0e5d7e19b536e4e5b6abf" d="M 269.3412 496.3588 L 278.1731 508.798 L 278.1733 508.798 L 277.1221 514.9963 L 277.1223 514.9963 L 208.1255 541.2985 L 208.1253 541.2983 L 204.5165 536.1505 L 204.5167 536.1505 L 212.8098 488.9679 L 217.9577 485.3591 L 217.9576 485.3591 L 208.3813 457.8796 L 208.3814 457.8796 L 202.4363 454.371 L 202.4362 454.371 L 194.8481 432.7809 L 194.8484 432.7809 L 197.5684 427.113 L 197.5683 427.113 L 189.6902 423.574 L 189.6904 423.574 L 186.2452 418.6223" fill-rule="evenodd" fill="none" fill-opacity="1" stroke="#414141" stroke-opacity="1" stroke-width="1.058333" stroke-linecap="round" stroke-linejoin="round"/>
<path id="path_031f41a6dcbd3cfaab23afd559986bee" d="M 184.6282 416.2985 L 153.4966 371.5547 L 153.4966 371.5547 L 154.6066 365.3666 L 154.6066 365.3667 L 150.728 303.6577 L 150.7281 303.6577 L 156.9835 304.287 L 170.6068 320.9576" fill-rule="evenodd" fill="none" fill-opacity="1" stroke="#414141" stroke-opacity="1" stroke-width="1.058333" stroke-linecap="round" stroke-linejoin="round"/>
<path id="path_3b0da0811f7865cc3af9205755ee5626" d="M 107.8802 452.4002 L 112.6263 500.6051 L 117.0577 505.0647 L 116.9525 538.1022 L 112.4928 542.5336 L 38.11664 531.2869 L 33.40912 527.12 L 33.40894 527.12 L 31.11108 489.4022 L 31.11108 489.4022 L 34.93048 478.99 L 29.11572 418.2843 L 29.11566 418.2843 L 28.8197 411.1155 L 28.81976 411.1155 L 52.83051 377.9731" fill-rule="evenodd" fill="none" fill-opacity="1" stroke="#414141" stroke-opacity="1" stroke-width="1.058333" stroke-linecap="round" stroke-linejoin="round"/>
<path id="path_5d1898f6284aab73af346c67924b5627" d="M 54.60663 375.5213 L 77.56 343.8382 L 84.28748 342.1296 L 84.28723 342.1296 L 97.81073 398.882" fill-rule="evenodd" fill="none" fill-opacity="1" stroke="#414141" stroke-opacity="1" stroke-width="1.058333" stroke-linecap="round" stroke-linejoin="round"/>
<path id="path_970a5dbf53dfaea187ad75152e9e2203" d="M 85.11633 345.608 L 88.15338 341.3455 L 142.7402 365.1266 L 142.7403 365.1266 L 148.7583 366.9456 L 148.7581 366.9456 L 158.3818 384.9083" fill-rule="evenodd" fill="none" fill-opacity="1" stroke="#414141" stroke-opacity="1" stroke-width="1.058333" stroke-linecap="round" stroke-linejoin="round"/>
<path id="path_a9a7637440f88daa73eb7210c5ef509d" d="M 159.7155 387.3976 L 165.873 398.8906 L 165.8732 398.8906 L 164.0541 404.9085 L 164.0539 404.9085 L 177.2657 452.2465 L 182.1343 456.224 L 184.0801 475.5408" fill-rule="evenodd" fill="none" fill-opacity="1" stroke="#414141" stroke-opacity="1" stroke-width="1.058333" stroke-linecap="round" stroke-linejoin="round"/>
<path id="path_86c0e046eb3f1615c150dcb41c275afa" d="M 184.3597 478.317 L 186.7656 502.2001 L 186.7657 502.2002 L 182.7882 507.0688 L 185.4848 566.3318 L 185.4847 566.3318 L 177.9893 567.7349 L 177.9894 567.7349 L 131.6176 546.0549 L 129.4733 540.145 L 129.473 540.145 L 119.0427 499.5345 L 113.6925 496.2331 L 113.6924 496.2331 L 111.1309 485.4171" fill-rule="evenodd" fill="none" fill-opacity="1" stroke="#414141" stroke-opacity="1" stroke-width="1.058333" stroke-linecap="round" stroke-linejoin="round"/>
<path id="path_a2bd4d1a454d44a03f30d6e28b36db76" d="M 81.71747 18.15625 L 81.71747 12.09566 L 82.51949 12.09566 L 82.51945 17.44105 L 85.50429 17.44105 L 85.50429 18.15625 L 81.71747 18.15625 Z" fill-rule="evenodd" fill="#0000FF" fill-opacity="1" stroke="#404040" stroke-opacity="1" stroke-width="0.1" stroke-linecap="round" stroke-linejoin="round"/>
<path id="path_6c9c6e4bfaeb5bc1d5e377ecb7e929e1" d="M 86.0872 15.96104 C 86.0872 15.148 86.3132 14.5458 86.7652 14.15444 C 87.14278 13.82923 87.60304 13.66661 88.14598 13.66661 C 88.74956 13.66661 89.2429 13.86436 89.62599 14.25986 C 90.00908 14.65535 90.20062 15.20174 90.20062 15.89903 C 90.20062 16.46402 90.11588 16.90844 89.94638 17.23228 C 89.77689 17.55612 89.53021 17.80761 89.20638 17.98675 C 88.88254 18.16589 88.52908 18.25547 88.14598 18.25547 C 87.53139 18.25547 87.03461 18.05841 86.65564 17.66429 C 86.27669 17.27017 86.0872 16.70243 86.0872 15.96104 Z M 86.85202 15.96104 C 86.85202 16.52328 86.97466 16.94427 87.21996 17.22401 C 87.46524 17.50375 87.77391 17.64362 88.14598 17.64362 C 88.5153 17.64362 88.8226 17.50306 89.06789 17.22194 C 89.31317 16.94082 89.43582 16.51226 89.43582 15.93624 C 89.43582 15.39329 89.31248 14.98195 89.06583 14.70221 C 88.81915 14.42247 88.51254 14.2826 88.14598 14.2826 C 87.77391 14.2826 87.46524 14.42178 87.21996 14.70014 C 86.97466 14.97851 86.85202 15.39881 86.85202 15.96104 Z" fill-rule="evenodd" fill="#0000FF" fill-opacity="1" stroke="#404040" stroke-opacity="1" stroke-width="0.1" stroke-linecap="round" stroke-linejoin="round"/>
<path id="path_5609d4045af6f92b9909ee759a8a2f03" d="M 91.88319 18.15625 L 90.53963 13.76583 L 91.30855 13.76583 L 92.00722 16.30004 L 92.26767 17.24261 C 92.27869 17.19576 92.35449 16.89397 92.49504 16.33725 L 93.19371 13.76583 L 93.95851 13.76583 L 94.61583 16.31244 L 94.83495 17.15166 L 95.0871 16.30417 L 95.83951 13.76583 L 96.56299 13.76583 L 95.19048 18.15625 L 94.41737 18.15625 L 93.71873 15.52696 L 93.54924 14.77869 L 92.66042 18.15625 L 91.88319 18.15625 Z" fill-rule="evenodd" fill="#0000FF" fill-opacity="1" stroke="#404040" stroke-opacity="1" stroke-width="0.1" stroke-linecap="round" stroke-linejoin="round"/>
<path id="path_3224531e1ea1fa5077a2bd6243afc070" d="M 100.1927 16.74239 L 100.9617 16.83747 C 100.8404 17.28671 100.6158 17.63535 100.2878 17.8834 C 99.95984 18.13144 99.54091 18.25547 99.03104 18.25547 C 98.38889 18.25547 97.8797 18.05772 97.50349 17.66223 C 97.12729 17.26673 96.93919 16.71207 96.93919 15.99825 C 96.93919 15.25962 97.12935 14.68636 97.50967 14.27846 C 97.89001 13.87056 98.38335 13.66661 98.98969 13.66661 C 99.57672 13.66661 100.0563 13.86643 100.4284 14.26606 C 100.8004 14.66569 100.9865 15.22793 100.9865 15.95277 C 100.9865 15.99687 100.9851 16.06301 100.9823 16.15121 L 97.70813 16.15121 C 97.73569 16.63352 97.87212 17.00283 98.1174 17.25915 C 98.3627 17.51546 98.66862 17.64362 99.03517 17.64362 C 99.30803 17.64362 99.54091 17.57196 99.73384 17.42865 C 99.92676 17.28533 100.0797 17.05658 100.1927 16.74239 Z M 97.74945 15.53936 L 100.201 15.53936 C 100.1679 15.17005 100.0742 14.89307 99.91988 14.70841 C 99.68285 14.42178 99.37555 14.27846 98.99797 14.27846 C 98.65622 14.27846 98.3689 14.39284 98.13602 14.6216 C 97.90312 14.85035 97.77426 15.15627 97.74945 15.53936 Z" fill-rule="evenodd" fill="#0000FF" fill-opacity="1" stroke="#404040" stroke-opacity="1" stroke-width="0.1" stroke-linecap="round" stroke-linejoin="round"/>
<path id="path_e8dad9d8059aa225e575b07d141b9b00" d="M 101.8877 18.15625 L 101.8877 13.76583 L 102.5574 13.76583 L 102.5574 14.43142 C 102.7283 14.11999 102.8861 13.91466 103.0308 13.81544 C 103.1754 13.71622 103.3346 13.66661 103.5082 13.66661 C 103.759 13.66661 104.014 13.74654 104.273 13.90639 L 104.0167 14.59679 C 103.8348 14.4893 103.6529 14.43556 103.471 14.43556 C 103.3084 14.43556 103.1623 14.48448 103.0328 14.58232 C 102.9033 14.68016 102.811 14.8159 102.7558 14.98953 C 102.6732 15.25411 102.6318 15.5435 102.6318 15.85769 L 102.6318 18.15625 L 101.8877 18.15625 Z" fill-rule="evenodd" fill="#0000FF" fill-opacity="1" stroke="#404040" stroke-opacity="1" stroke-width="0.1" stroke-linecap="round" stroke-linejoin="round"/>
<path id="path_f156e2dab2a6afc842c5c981fee34fc2" d="M 81.65131 22.4185 L 81.65131 21.55448 L 82.39546 21.55448 L 82.39546 22.4185 L 81.65131 22.4185 Z M 80.70872 29.31832 L 80.8493 28.6858 C 80.99814 28.72438 81.11526 28.74368 81.2007 28.74368 C 81.35228 28.74368 81.46529 28.69338 81.5397 28.59278 C 81.61411 28.49219 81.65131 28.24069 81.65131 27.83831 L 81.65131 23.22466 L 82.39546 23.22466 L 82.39546 27.85484 C 82.39546 28.39503 82.32516 28.77124 82.1846 28.98345 C 82.00546 29.25906 81.70781 29.39686 81.29164 29.39686 C 81.09044 29.39686 80.89615 29.37069 80.70872 29.31832 Z" fill-rule="evenodd" fill="#0000FF" fill-opacity="1" stroke="#404040" stroke-opacity="1" stroke-width="0.1" stroke-linecap="round" stroke-linejoin="round"/>
<path id="path_eff787d5d9c9168ddfb384a2fbe1b006" d="M 86.40138 27.0735 C 86.12578 27.30777 85.86053 27.47313 85.60559 27.56959 C 85.35066 27.66605 85.07712 27.71429 84.78497 27.71429 C 84.30266 27.71429 83.93198 27.59647 83.67291 27.36082 C 83.41383 27.12518 83.28429 26.82408 83.28429 26.45752 C 83.28429 26.24255 83.33321 26.04618 83.43105 25.86841 C 83.52888 25.69065 83.65706 25.54802 83.81554 25.44053 C 83.974 25.33305 84.15247 25.25174 84.35089 25.19662 C 84.49696 25.15804 84.71744 25.12083 85.01233 25.085 C 85.61316 25.01334 86.0555 24.92791 86.33937 24.82869 C 86.34213 24.72671 86.34351 24.66194 86.34351 24.63438 C 86.34351 24.33121 86.27324 24.11762 86.13268 23.9936 C 85.9425 23.82547 85.66 23.74142 85.28519 23.74142 C 84.93517 23.74142 84.6768 23.80274 84.51006 23.92538 C 84.34332 24.04803 84.21997 24.26507 84.14005 24.5765 L 83.41245 24.47729 C 83.47859 24.16585 83.58745 23.91436 83.73903 23.72281 C 83.89062 23.53127 84.10974 23.38382 84.39638 23.28046 C 84.683 23.17711 85.01511 23.12544 85.39268 23.12544 C 85.76752 23.12544 86.07204 23.16953 86.3063 23.25773 C 86.54057 23.34592 86.71283 23.45685 86.82306 23.59052 C 86.9333 23.72419 87.0105 23.893 87.0546 24.09695 C 87.07939 24.22373 87.09178 24.45248 87.09178 24.78321 L 87.09178 25.77539 C 87.09178 26.46716 87.10765 26.90469 87.13934 27.08797 C 87.17104 27.27125 87.23373 27.44695 87.32744 27.61507 L 86.55022 27.61507 C 86.47305 27.46073 86.42343 27.2802 86.40138 27.0735 Z M 86.33937 25.41159 C 86.06929 25.52184 85.66415 25.61554 85.12398 25.69271 C 84.81805 25.73681 84.6017 25.78642 84.47491 25.84154 C 84.34814 25.89666 84.25031 25.97728 84.1814 26.08339 C 84.1125 26.1895 84.07803 26.30732 84.07803 26.43685 C 84.07803 26.63529 84.15315 26.80065 84.30336 26.93295 C 84.45355 27.06524 84.67336 27.13138 84.96274 27.13138 C 85.24937 27.13138 85.5043 27.06868 85.72755 26.94328 C 85.95079 26.81787 86.11476 26.64631 86.21948 26.42859 C 86.29941 26.26046 86.33937 26.01241 86.33937 25.68444 L 86.33937 25.41159 Z" fill-rule="evenodd" fill="#0000FF" fill-opacity="1" stroke="#404040" stroke-opacity="1" stroke-width="0.1" stroke-linecap="round" stroke-linejoin="round"/>
<path id="path_582bc7028ed7c564127ab2817afeb145" d="M 89.05548 27.61507 L 87.71191 23.22466 L 88.48085 23.22466 L 89.1795 25.75885 L 89.43996 26.70143 C 89.45099 26.65458 89.52678 26.35279 89.66733 25.79607 L 90.366 23.22466 L 91.1308 23.22466 L 91.78812 25.77126 L 92.00723 26.61049 L 92.2594 25.76299 L 93.01181 23.22466 L 93.73528 23.22466 L 92.36276 27.61507 L 91.58969 27.61507 L 90.89102 24.98578 L 90.72153 24.23751 L 89.8327 27.61507 L 89.05548 27.61507 Z" fill-rule="evenodd" fill="#0000FF" fill-opacity="1" stroke="#404040" stroke-opacity="1" stroke-width="0.1" stroke-linecap="round" stroke-linejoin="round"/>
<path id="path_4ff3869d880ab9b236823cbbf8e38f3d" d="M 81.52315 37.17724 L 81.88281 35.41611 L 81.18417 35.41611 L 81.18417 34.80014 L 82.00684 34.80014 L 82.31276 33.29946 L 81.18417 33.29946 L 81.18417 32.68348 L 82.43678 32.68348 L 82.79645 30.90995 L 83.41658 30.90995 L 83.05692 32.68348 L 84.35915 32.68348 L 84.71881 30.90995 L 85.34305 30.90995 L 84.98338 32.68348 L 85.69858 32.68348 L 85.69858 33.29946 L 84.85936 33.29946 L 84.5493 34.80014 L 85.69858 34.80014 L 85.69858 35.41611 L 84.42528 35.41611 L 84.06561 37.17724 L 83.44551 37.17724 L 83.80103 35.41611 L 82.50294 35.41611 L 82.14328 37.17724 L 81.52315 37.17724 Z M 82.62697 34.80014 L 83.92506 34.80014 L 84.23512 33.29946 L 82.93289 33.29946 L 82.62697 34.80014 Z" fill-rule="evenodd" fill="#0000FF" fill-opacity="1" stroke="#404040" stroke-opacity="1" stroke-width="0.1" stroke-linecap="round" stroke-linejoin="round"/>
<path id="path_95fc575cca7689fc6495c59f9de97cf8" d="M 88.54286 37.07389 L 88.54286 35.62282 L 85.91357 35.62282 L 85.91357 34.9407 L 88.67929 31.0133 L 89.28699 31.0133 L 89.28699 34.9407 L 90.10555 34.9407 L 90.10555 35.62282 L 89.28699 35.62282 L 89.28699 37.07389 L 88.54286 37.07389 Z M 88.54286 34.9407 L 88.54286 32.20805 L 86.64531 34.9407 L 88.54286 34.9407 Z" fill-rule="evenodd" fill="#0000FF" fill-opacity="1" stroke="#404040" stroke-opacity="1" stroke-width="0.1" stroke-linecap="round" stroke-linejoin="round"/>
</defs>
<g>
<use xlink:href="#path_b1be1f1d754204362c208520ed483f5f"/>
</g>
<g>
<use xlink:href="#path_1c6dde7f43eebc5130f5e4ece1f42581"/>
</g>
<g>
<use xlink:href="#path_d598f89dd7a9aabdf10483bfd3153deb"/>
</g>
<g>
<use xlink:href="#path_1ad95ec8c397a39c2a45cc17071f62c4"/>
</g>
<g>
<use xlink:href="#path_cc37658a68d42c1d3248316c4408d0a0"/>
</g>
<g>
<use xlink:href="#path_2075431c141718b2564660d513320c8e"/>
</g>
<g>
<use xlink:href="#path_4425068b72a3d86ae79c6b969314cf65"/>
</g>
<g>
<use xlink:href="#path_b4cd0309684eee3b2d43a4c8653335fb"/>
</g>
<g>
<use xlink:href="#path_6f425d5356ad8b2772fb43c100fdac6e"/>
</g>
<g>
<use xlink:href="#path_f258baad5fb42099302aa0d1f2a17e0f"/>
</g>
<g>
<use xlink:href="#path_4ad92081ac3b1495fec04d4cb9be14c7"/>
</g>
<g>
<use xlink:href="#path_0bfa814c0f2f2bb8731936f032c1389a"/>
</g>
<g>
<use xlink:href="#path_49d76082ed2c4b57b9a4714256ece78e"/>
</g>
<g>
<use xlink:href="#path_2101090f00a0e5d7e19b536e4e5b6abf"/>
</g>
<g>
<use xlink:href="#path_031f41a6dcbd3cfaab23afd559986bee"/>
</g>
<g>
<use xlink:href="#path_3b0da0811f7865cc3af9205755ee5626"/>
</g>
<g>
<use xlink:href="#path_5d1898f6284aab73af346c67924b5627"/>
</g>
<g>
<use xlink:href="#path_970a5dbf53dfaea187ad75152e9e2203"/>
</g>
<g>
<use xlink:href="#path_a9a7637440f88daa73eb7210c5ef509d"/>
</g>
<g>
<use xlink:href="#path_86c0e046eb3f1615c150dcb41c275afa"/>
</g>
<g>
<g>
<use xlink:href="#path_a2bd4d1a454d44a03f30d6e28b36db76"/>
</g>
<g>
<use xlink:href="#path_6c9c6e4bfaeb5bc1d5e377ecb7e929e1"/>
</g>
<g>
<use xlink:href="#path_5609d4045af6f92b9909ee759a8a2f03"/>
</g>
<g>
<use xlink:href="#path_3224531e1ea1fa5077a2bd6243afc070"/>
</g>
<g>
<use xlink:href="#path_e8dad9d8059aa225e575b07d141b9b00"/>
</g>
<g>
<use xlink:href="#path_f156e2dab2a6afc842c5c981fee34fc2"/>
</g>
<g>
<use xlink:href="#path_eff787d5d9c9168ddfb384a2fbe1b006"/>
</g>
<g>
<use xlink:href="#path_582bc7028ed7c564127ab2817afeb145"/>
</g>
<g>
<use xlink:href="#path_4ff3869d880ab9b236823cbbf8e38f3d"/>
</g>
<g>
<use xlink:href="#path_95fc575cca7689fc6495c59f9de97cf8"/>
</g>
</g>
</svg>