<?xml version="1.0" encoding="utf-8"?>
<!DOCTYPE svg PUBLIC "-//W3C//DTD SVG 1.1//EN" "http://www.w3.org/Graphics/SVG/1.1/DTD/svg11.dtd">
<!-- exported from Silhouette Studio® Business Edition V4.4.920ssbe -->
<svg version="1.1" xmlns="http://www.w3.org/2000/svg" xmlns:xlink="http://www.w3.org/1999/xlink" width="304.8mm" height="609.6mm" viewBox="0 0 304.8 609.6">
<defs>
<path id="path_29c827f31159d9dcec9b0c25b9879ffe" d="M 155.7031 74.40445 L 80.8208 81.96658 M 279.6196 469.4855 L 227.6433 436.8858 M 217.1643 199.7433 L 140.9463 289.4836 L 140.947 289.4836 L 243.7087 260.9199 M 200.8987 381.5702 L 269.6372 399.0634 M 181.501 94.95032 L 254.7327 38.17377 M 205.0916 553.4111 L 131.3076 502.8593" fill-rule="evenodd" fill="none" fill-opacity="1" stroke="#0000FF" stroke-opacity="1" stroke-width="1.058333" stroke-linecap="round" stroke-linejoin="round"/>
<path id="path_8faa247905327c32bfc2eb20a5a1b1c0" d="M 47.15723 139.324 L 100.4324 190.1341 L 100.4321 190.1341 L 121.582 129.162 L 121.5825 129.162 L 80.82007 81.96652 L 80.81982 81.96664 L 47.15674 139.324 L 47.15698 139.324 L 28.32178 210.2617 M 84.43408 324.9211 L 92.57983 260.1397 M 29.05884 292.617 L 74.52979 404.3463 M 200.8979 381.5702 L 227.6431 436.8859 L 227.6433 436.8859 L 250.2546 494.468 L 250.2546 494.468 L 279.6196 469.4855 L 279.6199 469.4855 L 269.6372 399.0634 L 269.6367 399.0634 L 227.6431 436.8859 M 256.4045 331.6068 L 243.7085 260.9198 L 243.7083 260.9199 L 217.1641 199.7434 M 140.9465 289.4836 L 173.2354 332.0093 M 279.99 191.6412 L 270.7297 109.8047 L 270.7297 109.8047 L 181.5007 94.95032 L 181.501 94.95032 L 221.2173 151.0584 L 221.2168 151.0583 L 279.99 191.6411 L 279.9895 191.6412 L 253.2163 214.5797 L 253.2166 214.5797 L 281.0061 312.2646 M 148.094 365.0872 L 101.7356 413.0957 M 92.29688 523.3045 L 48.66943 453.4831 L 48.66943 453.4831 L 24.02173 569.6443 L 24.02173 569.6443 L 55.87476 548.1018 L 55.87476 548.1018 L 92.5293 523.6528 M 129.5464 499.9547 L 170.8521 476.171 M 221.9009 457.914 L 173.3625 480.4283 M 131.3069 502.8593 L 92.76147 524.0012 L 92.76196 524.0012 L 90.48413 567.2173 L 90.48389 567.2173 L 151.0432 563.8824 M 205.0913 553.4111 L 249.542 523.5009" fill-rule="evenodd" fill="none" fill-opacity="1" stroke="#FF0000" stroke-opacity="1" stroke-width="1.058333" stroke-linecap="round" stroke-linejoin="round"/>
<path id="path_41e8f22295184966537fdde1e06c7ad6" d="M 112.446 74.28436 L 150.8115 70.40994 L 150.8118 70.41 L 155.7034 74.40445 L 155.7034 74.40451 L 121.583 129.162 L 121.583 129.162 L 121.2932 143.6236 L 121.2935 143.6236 L 106.1162 187.3784 L 106.116 187.3785 L 100.4333 190.1341 L 92.58032 260.1398 L 92.58032 260.1396 L 96.4541 265.1277 L 92.30566 298.1214" fill-rule="evenodd" fill="none" fill-opacity="1" stroke="#414141" stroke-opacity="1" stroke-width="1.058333" stroke-linecap="round" stroke-linejoin="round"/>
<path id="path_0e387d070f38c66622244563c3a9e594" d="M 91.93213 301.0854 L 89.69165 318.9098 L 89.69141 318.9098 L 84.43457 324.9211 L 84.43457 324.9211 L 74.52979 404.3463 L 64.28149 391.0101 L 56.41724 371.6863" fill-rule="evenodd" fill="none" fill-opacity="1" stroke="#414141" stroke-opacity="1" stroke-width="1.058333" stroke-linecap="round" stroke-linejoin="round"/>
<path id="path_6fbc69d9a03fa69e5bf68970b4b00a29" d="M 55.47729 369.3774 L 26.60596 298.4366 L 26.60669 298.4366 L 29.05957 292.617 L 29.05884 292.617 L 28.32227 210.2616 L 28.32275 210.2617 L 25.15283 204.7995 L 33.93579 171.7207" fill-rule="evenodd" fill="none" fill-opacity="1" stroke="#414141" stroke-opacity="1" stroke-width="1.058333" stroke-linecap="round" stroke-linejoin="round"/>
<path id="path_716a9b9cb19569beb833b7d811808db1" d="M 34.70874 168.8093 L 41.6958 142.4941 L 41.69604 142.4941 L 47.1582 139.324 L 47.15771 139.3239 L 46.92651 130.8951 L 73.20752 86.11487 L 80.8208 81.96658 L 80.82056 81.96664 L 84.89575 77.06665 L 84.896 77.06656 L 109.5662 74.5752" fill-rule="evenodd" fill="none" fill-opacity="1" stroke="#414141" stroke-opacity="1" stroke-width="1.058333" stroke-linecap="round" stroke-linejoin="round"/>
<path id="path_ee040b71dd7927a1868f875b1fd48f04" d="M 234.7581 229.0703 L 246.0286 255.0455 L 246.0283 255.0457 L 243.709 260.9199 L 248.894 264.5258 L 248.894 264.5257 L 253.8445 292.0888" fill-rule="evenodd" fill="none" fill-opacity="1" stroke="#414141" stroke-opacity="1" stroke-width="1.058333" stroke-linecap="round" stroke-linejoin="round"/>
<path id="path_1c3392ab1213bb2afb6372b7b14c367b" d="M 254.3755 295.0464 L 260.0107 326.4219 L 260.0105 326.4219 L 256.4045 331.6068 L 256.4048 331.6068 L 269.6372 399.0634 L 275.2068 406.5337 L 275.2068 406.5336 L 278.4905 429.6982" fill-rule="evenodd" fill="none" fill-opacity="1" stroke="#414141" stroke-opacity="1" stroke-width="1.058333" stroke-linecap="round" stroke-linejoin="round"/>
<path id="path_ff846a77d180e1b391132a7dec3de34a" d="M 278.9116 432.6719 L 283.415 464.4373 L 283.4148 464.4373 L 279.6199 469.4855 L 259.6831 569.0703 L 250.2554 494.468 L 250.2551 494.468 L 244.4661 491.9435 L 244.4661 491.9435 L 226.4414 446.0421 L 226.4419 446.0421 L 227.644 436.8859 L 227.6433 436.8858 L 218.6091 428.4586 L 218.6089 428.4586 L 210.114 410.8893" fill-rule="evenodd" fill="none" fill-opacity="1" stroke="#414141" stroke-opacity="1" stroke-width="1.058333" stroke-linecap="round" stroke-linejoin="round"/>
<path id="path_7841c9c35d9dda9465f8ada732938bb5" d="M 208.7983 408.1685 L 198.8218 387.5345 L 200.8984 381.5702 L 200.8984 381.5702 L 173.2356 332.0093 L 173.2358 332.0093 L 166.9788 331.1531 L 166.979 331.1531 L 140.0908 295.7407 L 140.947 289.4836 L 140.947 289.4836 L 105.1931 247.9866 L 105.1934 247.9867 L 192.4956 137.7326 L 217.1648 199.7433 L 223.0393 202.0625 L 223.0396 202.0625 L 233.5972 226.3945" fill-rule="evenodd" fill="none" fill-opacity="1" stroke="#414141" stroke-opacity="1" stroke-width="1.058333" stroke-linecap="round" stroke-linejoin="round"/>
<path id="path_7e0b0e0bae1534e977555a7d4e7b2b71" d="M 198.9175 127.2845 L 180.4363 101.1753 L 180.4358 101.1754 L 181.501 94.95032 L 181.501 94.95041 L 135.9912 39.39221 L 135.9912 39.39209 L 254.7324 38.17377 L 254.7324 38.17383 L 270.7288 109.8048 L 270.7302 109.8047 L 275.6692 113.7401 L 275.6692 113.7402 L 277.1975 127.2449" fill-rule="evenodd" fill="none" fill-opacity="1" stroke="#414141" stroke-opacity="1" stroke-width="1.058333" stroke-linecap="round" stroke-linejoin="round"/>
<path id="path_4153e1410460ce4940795f5c835aa9df" d="M 277.533 130.2112 L 283.9255 186.7017 L 283.9253 186.7016 L 279.99 191.6412 L 279.9902 191.6412 L 281.0063 312.2646 L 281.0061 312.2646 L 273.0632 300.6668 L 273.0645 300.6668 L 267.876 282.4296" fill-rule="evenodd" fill="none" fill-opacity="1" stroke="#414141" stroke-opacity="1" stroke-width="1.058333" stroke-linecap="round" stroke-linejoin="round"/>
<path id="path_9ffc8e38684e78a91ead71994c0149fc" d="M 267.063 279.5706 L 250.4697 221.2424 L 250.4695 221.2425 L 253.2163 214.5796 L 253.2173 214.5796 L 221.2175 151.0584 L 214.9922 149.9936 L 214.9922 149.9935 L 200.6011 129.6632" fill-rule="evenodd" fill="none" fill-opacity="1" stroke="#414141" stroke-opacity="1" stroke-width="1.058333" stroke-linecap="round" stroke-linejoin="round"/>
<path id="path_78380c6a7dae08e900734b29731d7089" d="M 126.9431 501.5868 L 131.3076 502.8593 L 173.363 480.4283 L 175.5354 474.498 L 175.5349 474.498 L 215.9709 455.742 L 215.9709 455.7419 L 221.9019 457.9139 L 221.9016 457.9139 L 249.5422 523.5009 L 248.3303 529.6989 L 224.6672 545.6213" fill-rule="evenodd" fill="none" fill-opacity="1" stroke="#414141" stroke-opacity="1" stroke-width="1.058333" stroke-linecap="round" stroke-linejoin="round"/>
<path id="path_88bba5680f6bc0c9de8b738db99ab9d7" d="M 222.5601 547.0392 L 211.2898 554.6229 L 205.092 553.4111 L 205.0918 553.4111 L 151.0437 563.8824 L 151.0432 563.8824 L 146.8298 568.5869 L 146.8303 568.5869 L 119.5681 570.0881" fill-rule="evenodd" fill="none" fill-opacity="1" stroke="#414141" stroke-opacity="1" stroke-width="1.058333" stroke-linecap="round" stroke-linejoin="round"/>
<path id="path_8cd417ce155cd1616e515a68dba1d03c" d="M 116.634 570.2497 L 95.27026 571.4262 L 95.27051 571.4262 L 90.48462 567.2173 L 90.48438 567.2173 L 24.02271 569.6443 L 20.87549 562.9619 L 27.96851 529.533" fill-rule="evenodd" fill="none" fill-opacity="1" stroke="#414141" stroke-opacity="1" stroke-width="1.058333" stroke-linecap="round" stroke-linejoin="round"/>
<path id="path_c6a31a628ffa158ba7f9d9483185a20b" d="M 28.57593 526.6696 L 43.37476 456.9247 L 43.37524 456.9247 L 48.67065 453.4831 L 48.67041 453.4831 L 101.7363 413.0957 L 101.626 406.7812 L 101.6257 406.7812 L 121.5732 386.1238" fill-rule="evenodd" fill="none" fill-opacity="1" stroke="#414141" stroke-opacity="1" stroke-width="1.058333" stroke-linecap="round" stroke-linejoin="round"/>
<path id="path_ac8b7b9fe7b0e8be877eccadd79ac0b9" d="M 123.665 383.9575 L 141.7803 365.1976 L 141.78 365.1976 L 148.094 365.0872 L 148.094 365.0872 L 218.7825 452.3888 L 170.8528 476.171 L 169.2109 482.2694 L 160.406 487.3393" fill-rule="evenodd" fill="none" fill-opacity="1" stroke="#414141" stroke-opacity="1" stroke-width="1.058333" stroke-linecap="round" stroke-linejoin="round"/>
<path id="path_26db95195137625c0840e4c21e23c79f" d="M 134.3362 501.244 L 129.5469 499.9547 L 92.29761 523.3045" fill-rule="evenodd" fill="none" fill-opacity="1" stroke="#414141" stroke-opacity="1" stroke-width="1.058333" stroke-linecap="round" stroke-linejoin="round"/>
<path id="path_023a5de9fcbb161364bd60fbee0d2428" d="M 92.7627 524.0012 L 93.11523 522.7922" fill-rule="evenodd" fill="none" fill-opacity="1" stroke="#414141" stroke-opacity="1" stroke-width="1.058333" stroke-linecap="round" stroke-linejoin="round"/>
<path id="path_d7a872d3e166eee9542f5080372c5aca" d="M 58.72015 19.0653 L 59.52216 19.0653 L 59.52216 22.56688 C 59.52216 23.17597 59.45326 23.65966 59.31546 24.01795 C 59.17766 24.37624 58.92892 24.66769 58.56924 24.89231 C 58.20958 25.11693 57.73761 25.22924 57.15332 25.22924 C 56.58557 25.22924 56.12119 25.1314 55.76013 24.93572 C 55.39909 24.74004 55.1414 24.45686 54.98706 24.08616 C 54.83272 23.71547 54.75555 23.20905 54.75555 22.56688 L 54.75555 19.0653 L 55.55757 19.0653 L 55.55757 22.56275 C 55.55757 23.08916 55.60649 23.47707 55.70433 23.7265 C 55.80217 23.97592 55.97029 24.16816 56.20868 24.30321 C 56.44708 24.43825 56.73854 24.50578 57.08305 24.50578 C 57.67284 24.50578 58.09314 24.37211 58.34395 24.10477 C 58.59474 23.83743 58.72015 23.32342 58.72015 22.56275 L 58.72015 19.0653 Z" fill-rule="evenodd" fill="#0000FF" fill-opacity="1" stroke="#404040" stroke-opacity="1" stroke-width="0.1" stroke-linecap="round" stroke-linejoin="round"/>
<path id="path_b0ddf916e0f7764cb43919fd5eee61a2" d="M 60.76239 26.80847 L 60.76239 20.73548 L 61.44038 20.73548 L 61.44038 21.30598 C 61.60023 21.08274 61.78075 20.91531 61.98195 20.80369 C 62.18314 20.69207 62.42705 20.63626 62.71368 20.63626 C 63.0885 20.63626 63.41924 20.73272 63.70586 20.92565 C 63.99249 21.11857 64.20883 21.39073 64.3549 21.74213 C 64.50098 22.09353 64.57402 22.47869 64.57402 22.89761 C 64.57402 23.34685 64.49341 23.7513 64.33217 24.11097 C 64.17094 24.47064 63.93668 24.74624 63.62938 24.93779 C 63.32208 25.12934 62.99893 25.22511 62.65993 25.22511 C 62.4119 25.22511 62.18933 25.17274 61.99228 25.06801 C 61.79523 24.96328 61.6333 24.83099 61.50652 24.67114 L 61.50652 26.80847 L 60.76239 26.80847 Z M 61.43625 22.95549 C 61.43625 23.52048 61.55061 23.93803 61.77937 24.20812 C 62.00813 24.47821 62.28511 24.61326 62.61032 24.61326 C 62.94106 24.61326 63.22424 24.47339 63.45988 24.19365 C 63.69553 23.91391 63.81334 23.48052 63.81334 22.89348 C 63.81334 22.334 63.69827 21.91507 63.46815 21.63671 C 63.23802 21.35835 62.9631 21.21917 62.6434 21.21917 C 62.32645 21.21917 62.04602 21.36731 61.80211 21.66358 C 61.5582 21.95986 61.43625 22.3905 61.43625 22.95549 Z" fill-rule="evenodd" fill="#0000FF" fill-opacity="1" stroke="#404040" stroke-opacity="1" stroke-width="0.1" stroke-linecap="round" stroke-linejoin="round"/>
<path id="path_42813f19e78eba165eaeb1904a9f8284" d="M 65.47112 26.80847 L 65.47112 20.73548 L 66.14911 20.73548 L 66.14911 21.30598 C 66.30896 21.08274 66.48947 20.91531 66.69067 20.80369 C 66.89186 20.69207 67.13577 20.63626 67.42241 20.63626 C 67.79723 20.63626 68.12796 20.73272 68.41458 20.92565 C 68.70122 21.11857 68.91757 21.39073 69.06363 21.74213 C 69.2097 22.09353 69.28276 22.47869 69.28276 22.89761 C 69.28276 23.34685 69.20215 23.7513 69.04091 24.11097 C 68.87968 24.47064 68.6454 24.74624 68.3381 24.93779 C 68.03081 25.12934 67.70766 25.22511 67.36865 25.22511 C 67.12062 25.22511 66.89806 25.17274 66.701 25.06801 C 66.50395 24.96328 66.34203 24.83099 66.21524 24.67114 L 66.21524 26.80847 L 65.47112 26.80847 Z M 66.14497 22.95549 C 66.14497 23.52048 66.25934 23.93803 66.4881 24.20812 C 66.71686 24.47821 66.99384 24.61326 67.31905 24.61326 C 67.64978 24.61326 67.93298 24.47339 68.16862 24.19365 C 68.40427 23.91391 68.52206 23.48052 68.52206 22.89348 C 68.52206 22.334 68.407 21.91507 68.17688 21.63671 C 67.94675 21.35835 67.67184 21.21917 67.35214 21.21917 C 67.03519 21.21917 66.75475 21.36731 66.51083 21.66358 C 66.26692 21.95986 66.14497 22.3905 66.14497 22.95549 Z" fill-rule="evenodd" fill="#0000FF" fill-opacity="1" stroke="#404040" stroke-opacity="1" stroke-width="0.1" stroke-linecap="round" stroke-linejoin="round"/>
<path id="path_6e339b62b98a000014ad1189555af005" d="M 73.18533 23.71203 L 73.95427 23.80711 C 73.83301 24.25635 73.6084 24.60499 73.28044 24.85304 C 72.95247 25.10109 72.53352 25.22511 72.02365 25.22511 C 71.3815 25.22511 70.87233 25.02736 70.49612 24.63187 C 70.11992 24.23637 69.93181 23.68171 69.93181 22.96789 C 69.93181 22.22927 70.12198 21.656 70.5023 21.24811 C 70.88264 20.84021 71.37599 20.63626 71.98233 20.63626 C 72.56937 20.63626 73.0489 20.83607 73.42097 21.2357 C 73.79305 21.63533 73.9791 22.19757 73.9791 22.92242 C 73.9791 22.96651 73.97772 23.03266 73.97496 23.12086 L 70.70074 23.12086 C 70.7283 23.60317 70.86473 23.97248 71.11002 24.22879 C 71.35532 24.48511 71.66124 24.61326 72.02779 24.61326 C 72.30064 24.61326 72.53352 24.5416 72.72646 24.39829 C 72.91937 24.25497 73.07234 24.02622 73.18533 23.71203 Z M 70.74211 22.50901 L 73.19362 22.50901 C 73.16055 22.13969 73.06682 21.86271 72.91249 21.67805 C 72.67546 21.39142 72.36816 21.24811 71.99059 21.24811 C 71.64883 21.24811 71.36151 21.36248 71.12863 21.59124 C 70.89574 21.81999 70.76691 22.12591 70.74211 22.50901 Z" fill-rule="evenodd" fill="#0000FF" fill-opacity="1" stroke="#404040" stroke-opacity="1" stroke-width="0.1" stroke-linecap="round" stroke-linejoin="round"/>
<path id="path_51f8192012960189cff37a00e2e9b9c7" d="M 74.88029 25.12589 L 74.88029 20.73548 L 75.55002 20.73548 L 75.55002 21.40107 C 75.72089 21.08963 75.87868 20.8843 76.02338 20.78509 C 76.16806 20.68587 76.32722 20.63626 76.50085 20.63626 C 76.75166 20.63626 77.00659 20.71618 77.26567 20.87604 L 77.00935 21.56643 C 76.82745 21.45894 76.64555 21.4052 76.46365 21.4052 C 76.30104 21.4052 76.15497 21.45412 76.02544 21.55196 C 75.8959 21.6498 75.80357 21.78554 75.74846 21.95917 C 75.66577 22.22375 75.62444 22.51314 75.62444 22.82733 L 75.62444 25.12589 L 74.88029 25.12589 Z" fill-rule="evenodd" fill="#0000FF" fill-opacity="1" stroke="#404040" stroke-opacity="1" stroke-width="0.1" stroke-linecap="round" stroke-linejoin="round"/>
<path id="path_54c4a091515fd1289974d17e32836f55" d="M 80.18021 25.12589 L 80.18021 19.0653 L 80.98222 19.0653 L 80.98222 21.55403 L 84.13239 21.55403 L 84.1324 19.0653 L 84.9344 19.0653 L 84.9344 25.12589 L 84.13239 25.12589 L 84.13239 22.26923 L 80.98222 22.26923 L 80.98222 25.12589 L 80.18021 25.12589 Z" fill-rule="evenodd" fill="#0000FF" fill-opacity="1" stroke="#404040" stroke-opacity="1" stroke-width="0.1" stroke-linecap="round" stroke-linejoin="round"/>
<path id="path_e976f4c8f3794213468822ea994f9685" d="M 89.18011 23.71203 L 89.94905 23.80711 C 89.82779 24.25635 89.60316 24.60499 89.27521 24.85304 C 88.94724 25.10109 88.52831 25.22511 88.01843 25.22511 C 87.37628 25.22511 86.8671 25.02736 86.49089 24.63187 C 86.11469 24.23637 85.92659 23.68171 85.92659 22.96789 C 85.92659 22.22927 86.11676 21.656 86.49709 21.24811 C 86.87743 20.84021 87.37076 20.63626 87.9771 20.63626 C 88.56413 20.63626 89.04369 20.83607 89.41576 21.2357 C 89.78783 21.63533 89.97386 22.19757 89.97386 22.92242 C 89.97386 22.96651 89.97249 23.03266 89.96973 23.12086 L 86.69553 23.12086 C 86.72308 23.60317 86.85951 23.97248 87.1048 24.22879 C 87.3501 24.48511 87.65602 24.61326 88.02257 24.61326 C 88.29543 24.61326 88.52831 24.5416 88.72124 24.39829 C 88.91415 24.25497 89.06712 24.02622 89.18011 23.71203 Z M 86.73688 22.50901 L 89.18839 22.50901 C 89.15532 22.13969 89.0616 21.86271 88.90727 21.67805 C 88.67024 21.39142 88.36295 21.24811 87.98537 21.24811 C 87.64362 21.24811 87.35629 21.36248 87.12341 21.59124 C 86.89052 21.81999 86.76167 22.12591 86.73688 22.50901 Z" fill-rule="evenodd" fill="#0000FF" fill-opacity="1" stroke="#404040" stroke-opacity="1" stroke-width="0.1" stroke-linecap="round" stroke-linejoin="round"/>
<path id="path_73e817b46fad76ee360fd296637de83b" d="M 93.74829 24.58432 C 93.47269 24.81859 93.20744 24.98395 92.9525 25.08042 C 92.69757 25.17688 92.42401 25.22511 92.13187 25.22511 C 91.64955 25.22511 91.27888 25.10729 91.01982 24.87164 C 90.76074 24.636 90.6312 24.3349 90.6312 23.96834 C 90.6312 23.75337 90.68013 23.557 90.77797 23.37923 C 90.87581 23.20147 91.00395 23.05884 91.16243 22.95135 C 91.32089 22.84387 91.49936 22.76256 91.69778 22.70744 C 91.84386 22.66886 92.06435 22.63165 92.35924 22.59582 C 92.96007 22.52416 93.4024 22.43873 93.68628 22.33951 C 93.68906 22.23753 93.69041 22.17277 93.69041 22.1452 C 93.69041 21.84204 93.62015 21.62844 93.47958 21.50442 C 93.28941 21.3363 93.00691 21.25224 92.6321 21.25224 C 92.28207 21.25224 92.0237 21.31356 91.85695 21.43621 C 91.69022 21.55885 91.56688 21.77589 91.48695 22.08733 L 90.75935 21.98811 C 90.8255 21.67667 90.93436 21.42518 91.08594 21.23364 C 91.23753 21.04209 91.45665 20.89464 91.74329 20.79129 C 92.02991 20.68793 92.36201 20.63626 92.73959 20.63626 C 93.11443 20.63626 93.41896 20.68036 93.65323 20.76855 C 93.8875 20.85674 94.05975 20.96768 94.17 21.10135 C 94.28023 21.23501 94.35739 21.40382 94.40149 21.60777 C 94.42628 21.73455 94.43871 21.9633 94.43871 22.29403 L 94.43871 23.28622 C 94.43871 23.97799 94.45454 24.41551 94.48624 24.59879 C 94.51793 24.78207 94.58063 24.95777 94.67433 25.12589 L 93.89714 25.12589 C 93.81998 24.97155 93.77034 24.79103 93.74829 24.58432 Z M 93.68628 22.92242 C 93.4162 23.03266 93.01106 23.12636 92.47089 23.20354 C 92.16496 23.24763 91.94859 23.29724 91.82181 23.35236 C 91.69504 23.40748 91.59721 23.4881 91.52831 23.59421 C 91.45941 23.70032 91.42494 23.81814 91.42494 23.94767 C 91.42494 24.14611 91.50005 24.31147 91.65025 24.44376 C 91.80045 24.57606 92.02025 24.6422 92.30963 24.6422 C 92.59627 24.6422 92.85121 24.5795 93.07446 24.4541 C 93.2977 24.3287 93.46167 24.15713 93.56639 23.9394 C 93.64632 23.77128 93.68628 23.52324 93.68628 23.19527 L 93.68628 22.92242 Z" fill-rule="evenodd" fill="#0000FF" fill-opacity="1" stroke="#404040" stroke-opacity="1" stroke-width="0.1" stroke-linecap="round" stroke-linejoin="round"/>
<path id="path_54e95125977fdc40f422ff93db814120" d="M 98.44046 25.12589 L 98.44046 24.57192 C 98.16211 25.00738 97.75284 25.22511 97.21265 25.22511 C 96.86263 25.22511 96.54086 25.12865 96.24733 24.93572 C 95.95381 24.7428 95.72644 24.47339 95.56522 24.12751 C 95.40398 23.78162 95.32336 23.38406 95.32336 22.93482 C 95.32336 22.4966 95.39641 22.09904 95.54248 21.74213 C 95.68855 21.38522 95.90765 21.11168 96.1998 20.92151 C 96.49194 20.73134 96.81853 20.63626 97.17958 20.63626 C 97.44415 20.63626 97.67979 20.69207 97.88651 20.80369 C 98.0932 20.91531 98.26132 21.06069 98.39087 21.23984 L 98.39087 19.0653 L 99.13086 19.0653 L 99.13086 25.12589 L 98.44046 25.12589 Z M 96.08818 22.93482 C 96.08818 23.49706 96.20668 23.91736 96.44371 24.19572 C 96.68073 24.47408 96.96046 24.61326 97.28293 24.61326 C 97.60814 24.61326 97.88443 24.48028 98.11182 24.21432 C 98.33917 23.94836 98.45288 23.54253 98.45288 22.99683 C 98.45288 22.39601 98.33713 21.95504 98.10562 21.67392 C 97.8741 21.3928 97.58885 21.25224 97.24985 21.25224 C 96.91913 21.25224 96.64284 21.38729 96.42097 21.65738 C 96.19911 21.92747 96.08818 22.35329 96.08818 22.93482 Z" fill-rule="evenodd" fill="#0000FF" fill-opacity="1" stroke="#404040" stroke-opacity="1" stroke-width="0.1" stroke-linecap="round" stroke-linejoin="round"/>
<path id="path_03c81792ed691f30f149ff037ba208c9" d="M 54.51578 34.68806 L 54.87544 32.92694 L 54.17679 32.92694 L 54.17679 32.31096 L 54.99947 32.31096 L 55.30539 30.81028 L 54.17679 30.81028 L 54.17679 30.1943 L 55.42941 30.1943 L 55.78908 28.42077 L 56.40919 28.42077 L 56.04953 30.1943 L 57.35176 30.1943 L 57.71143 28.42077 L 58.33568 28.42077 L 57.97601 30.1943 L 58.69121 30.1943 L 58.69121 30.81028 L 57.85199 30.81028 L 57.54193 32.31096 L 58.69121 32.31096 L 58.69121 32.92694 L 57.41791 32.92694 L 57.05824 34.68806 L 56.43813 34.68806 L 56.79366 32.92694 L 55.49556 32.92694 L 55.13589 34.68806 L 54.51578 34.68806 Z M 55.61958 32.31096 L 56.91768 32.31096 L 57.22774 30.81028 L 55.92551 30.81028 L 55.61958 32.31096 Z" fill-rule="evenodd" fill="#0000FF" fill-opacity="1" stroke="#404040" stroke-opacity="1" stroke-width="0.1" stroke-linecap="round" stroke-linejoin="round"/>
<path id="path_ef2142f2cae71192995cb2f98b1afbdb" d="M 61.953 34.58471 L 61.20886 34.58471 L 61.20886 29.8429 C 61.02972 30.01378 60.79477 30.18465 60.504 30.35553 C 60.21324 30.52641 59.9521 30.65456 59.7206 30.74 L 59.7206 30.02067 C 60.13676 29.82499 60.50056 29.58797 60.812 29.3096 C 61.12343 29.03124 61.34392 28.76114 61.47345 28.49932 L 61.953 28.49932 L 61.953 34.58471 Z" fill-rule="evenodd" fill="#0000FF" fill-opacity="1" stroke="#404040" stroke-opacity="1" stroke-width="0.1" stroke-linecap="round" stroke-linejoin="round"/>
<path id="path_794b7043c31c0b7c53173d77d235e5e1" d="M 63.85881 31.59576 C 63.85881 30.87918 63.93254 30.30247 64.07999 29.86564 C 64.22743 29.4288 64.44655 29.09187 64.7373 28.85485 C 65.02808 28.61783 65.39394 28.49932 65.83492 28.49932 C 66.16013 28.49932 66.44537 28.56477 66.69066 28.69569 C 66.93596 28.8266 67.13852 29.01539 67.29837 29.26206 C 67.45822 29.50873 67.58363 29.80914 67.67458 30.16329 C 67.76553 30.51745 67.811 30.99494 67.811 31.59576 C 67.811 32.30682 67.73796 32.88077 67.5919 33.31761 C 67.44583 33.75444 67.2274 34.09207 66.93665 34.33047 C 66.64587 34.56887 66.27864 34.68806 65.83492 34.68806 C 65.25063 34.68806 64.79173 34.4786 64.45825 34.05968 C 64.05862 33.55532 63.85881 32.73401 63.85881 31.59576 Z M 64.62363 31.59576 C 64.62363 32.5907 64.74007 33.25284 64.97295 33.5822 C 65.20584 33.91154 65.49316 34.07621 65.83492 34.07621 C 66.17667 34.07621 66.46397 33.91085 66.69687 33.58013 C 66.92975 33.2494 67.0462 32.58794 67.0462 31.59576 C 67.0462 30.59806 66.92975 29.93523 66.69687 29.60726 C 66.46397 29.27929 66.1739 29.1153 65.82664 29.1153 C 65.48489 29.1153 65.21204 29.25999 65.00809 29.54938 C 64.75177 29.91869 64.62363 30.60082 64.62363 31.59576 Z" fill-rule="evenodd" fill="#0000FF" fill-opacity="1" stroke="#404040" stroke-opacity="1" stroke-width="0.1" stroke-linecap="round" stroke-linejoin="round"/>
</defs>
<g>
<use xlink:href="#path_29c827f31159d9dcec9b0c25b9879ffe"/>
</g>
<g>
<use xlink:href="#path_8faa247905327c32bfc2eb20a5a1b1c0"/>
</g>
<g>
<use xlink:href="#path_41e8f22295184966537fdde1e06c7ad6"/>
</g>
<g>
<use xlink:href="#path_0e387d070f38c66622244563c3a9e594"/>
</g>
<g>
<use xlink:href="#path_6fbc69d9a03fa69e5bf68970b4b00a29"/>
</g>
<g>
<use xlink:href="#path_716a9b9cb19569beb833b7d811808db1"/>
</g>
<g>
<use xlink:href="#path_ee040b71dd7927a1868f875b1fd48f04"/>
</g>
<g>
<use xlink:href="#path_1c3392ab1213bb2afb6372b7b14c367b"/>
</g>
<g>
<use xlink:href="#path_ff846a77d180e1b391132a7dec3de34a"/>
</g>
<g>
<use xlink:href="#path_7841c9c35d9dda9465f8ada732938bb5"/>
</g>
<g>
<use xlink:href="#path_7e0b0e0bae1534e977555a7d4e7b2b71"/>
</g>
<g>
<use xlink:href="#path_4153e1410460ce4940795f5c835aa9df"/>
</g>
<g>
<use xlink:href="#path_9ffc8e38684e78a91ead71994c0149fc"/>
</g>
<g>
<use xlink:href="#path_78380c6a7dae08e900734b29731d7089"/>
</g>
<g>
<use xlink:href="#path_88bba5680f6bc0c9de8b738db99ab9d7"/>
</g>
<g>
<use xlink:href="#path_8cd417ce155cd1616e515a68dba1d03c"/>
</g>
<g>
<use xlink:href="#path_c6a31a628ffa158ba7f9d9483185a20b"/>
</g>
<g>
<use xlink:href="#path_ac8b7b9fe7b0e8be877eccadd79ac0b9"/>
</g>
<g>
<use xlink:href="#path_26db95195137625c0840e4c21e23c79f"/>
</g>
<g>
<use xlink:href="#path_023a5de9fcbb161364bd60fbee0d2428"/>
</g>
<g>
<g>
<use xlink:href="#path_d7a872d3e166eee9542f5080372c5aca"/>
</g>
<g>
<use xlink:href="#path_b0ddf916e0f7764cb43919fd5eee61a2"/>
</g>
<g>
<use xlink:href="#path_42813f19e78eba165eaeb1904a9f8284"/>
</g>
<g>
<use xlink:href="#path_6e339b62b98a000014ad1189555af005"/>
</g>
<g>
<use xlink:href="#path_51f8192012960189cff37a00e2e9b9c7"/>
</g>
<g>
<use xlink:href="#path_54c4a091515fd1289974d17e32836f55"/>
</g>
<g>
<use xlink:href="#path_e976f4c8f3794213468822ea994f9685"/>
</g>
<g>
<use xlink:href="#path_73e817b46fad76ee360fd296637de83b"/>
</g>
<g>
<use xlink:href="#path_54e95125977fdc40f422ff93db814120"/>
</g>
<g>
<use xlink:href="#path_03c81792ed691f30f149ff037ba208c9"/>
</g>
<g>
<use xlink:href="#path_ef2142f2cae71192995cb2f98b1afbdb"/>
</g>
<g>
<use xlink:href="#path_794b7043c31c0b7c53173d77d235e5e1"/>
</g>
</g>
</svg>