<?xml version="1.0" encoding="utf-8"?>
<!DOCTYPE svg PUBLIC "-//W3C//DTD SVG 1.1//EN" "http://www.w3.org/Graphics/SVG/1.1/DTD/svg11.dtd">
<!-- exported from Silhouette Studio® Business Edition V4.4.920ssbe -->
<svg version="1.1" xmlns="http://www.w3.org/2000/svg" xmlns:xlink="http://www.w3.org/1999/xlink" width="304.8mm" height="609.6mm" viewBox="0 0 304.8 609.6">
<defs>
<path id="path_1d22110fd7d22807f0ff89d4777c91be" d="M 176.8536 307.1466 L 227.519 300.041 M 177.4709 334.2869 L 177.2115 322.1501 L 177.2089 322.1622 L 225.4662 313.8859 M 176.8722 306.9867 L 177.2089 322.1622 M 267.994 329.5101 L 271.4357 315.0743 L 271.4359 315.0743 L 275.3145 302.4458 M 258.4457 394.3209 L 260.3236 378.6925 M 262.4714 362.34 L 265.0173 345.5651 M 178.201 374.3306 L 178.8055 391.5488 M 177.7113 345.8182 L 177.9594 358.8564 M 116.6161 239.6334 L 104.886 266.406 L 104.8859 266.4061 L 38.70728 254.0295 L 38.7074 254.0294 L 30.31238 240.4367 L 30.31238 240.4368 L 116.6162 239.6334 L 116.6161 239.6334 Z M 34.02063 67.98309 L 39.823 83.42169 M 111.3121 94.16101 L 56.43835 29.84265 M 46.91748 174.7926 L 42.00208 184.0565 M 30.82971 202.2741 L 25.96008 210.0456 M 21.7157 216.8112 L 111.9932 192.8635 M 52.13611 155.0197 L 50.40686 165.3505 M 44.79346 99.64438 L 48.55029 115.535 M 192.8777 73.35999 L 190.2626 88.61356 L 190.2623 88.61356 L 188.0151 101.4591 M 274.2471 115.1157 L 274.3075 98.14877 M 274.6957 81.66037 L 275.2399 65.92902 M 186.0031 112.8556 L 183.8934 124.8105 L 183.8934 124.8106 L 181.2472 139.7573 L 181.2472 139.7573 L 177.8275 159.0103 M 280.3528 170.532 L 277.9044 159.0962 L 277.8755 159.1743 L 275.9385 146.18 L 275.9349 146.186 L 274.7351 131.3999 M 230.3251 140.3467 L 183.8934 124.8105 M 230.285 154.3428 L 181.2471 139.7573 M 180.1877 188.1383 L 172.4463 194.4008 M 190.662 249.4793 L 196.5353 241.3041 M 132.2927 151.3236 L 153.9053 142.273 L 153.9189 142.3556 L 163.8527 202.7539 M 163.7816 202.6808 L 154.2408 213.5527 M 179.4784 267.7077 L 185.0033 258.3087 M 144.7439 226.3997 L 136.3751 239.8961 M 215.8442 431.4731 L 201.3796 431.5546 L 201.3798 431.5546 L 239.7469 486.8784 M 170.0271 426.0687 L 185.5421 429.455 L 185.5421 429.455 L 220.116 508.5348 L 220.1162 508.5348 L 189.671 523.3429 L 189.6708 523.3429 L 170.0271 426.0687 L 170.0271 426.0687 Z M 45.84766 525.4183 L 39.81799 540.7695 M 44.01526 415.4112 L 49.51208 424.8266 M 33.85498 398.6035 L 38.6095 406.4461 M 119.6254 417.0534 L 29.71106 391.7759 M 54.29004 434.162 L 57.63965 443.6547 L 57.63953 443.6547 L 59.21619 454.0099 L 59.21619 454.0099 L 59.13721 465.7046 M 55.04785 493.4373 L 51.05701 509.2707 M 117.4877 515.7352 L 151.9657 521.2484 L 151.9655 521.2484 L 135.3234 486.248 M 71.94336 334.2826 L 87.2312 338.9211 M 95.00806 288.3568 L 85.19763 284.6507 M 75.15454 280.4073 L 57.17285 328.4494 M 101.3905 341.709 L 128.199 396.6069 L 128.1989 396.6069 L 105.325 401.6858 M 113.2496 343.4234 L 123.192 343.9505" fill-rule="evenodd" fill="none" fill-opacity="1" stroke="#FF0000" stroke-opacity="1" stroke-width="1.058333" stroke-linecap="round" stroke-linejoin="round"/>
<path id="path_bbf398a3d20952eb716b1c75acd8d57b" d="M 178.8053 391.5487 L 218.6257 392.9171 L 218.626 392.9171 L 258.4453 394.3208 L 258.4452 394.3209 L 219.2781 382.7719 M 275.3143 302.4457 L 227.519 300.041 L 227.519 300.0411 L 176.345 287.5989 L 176.345 287.5989 L 228.9462 291.4908 M 176.8627 307.0666 L 225.4661 313.8859 M 177.7098 345.7957 L 221.4423 351.1287 M 177.9589 358.8563 L 220.6753 361.1531 L 220.6754 361.1531 L 262.4712 362.3399 M 178.201 374.3305 L 219.9521 372.0476 L 219.952 372.0476 L 260.3231 378.6924 M 177.4719 334.2673 L 222.9053 335.7369 M 44.55029 267.2611 L 104.8857 266.4059 M 116.6157 239.6333 L 38.70703 254.0294 M 117.6732 205.7944 L 30.31238 240.4367 M 188.0151 101.459 L 232.0442 102.9268 M 190.2625 88.61343 L 232.8247 92.90332 L 232.8248 92.90338 L 274.3074 98.14871 M 274.6958 81.66025 L 233.7831 82.02695 L 233.7828 82.02695 L 192.8776 73.35992 M 275.2397 65.92902 L 234.7631 71.3266 M 186.0028 112.8556 L 231.1251 118.3606 M 181.2471 139.7572 L 230.325 140.3466 M 230.4204 163.0102 L 177.8274 159.0102 L 177.8275 159.0102 L 230.2852 154.3427 L 230.2852 154.3427 L 277.9044 159.0961 M 153.9188 142.3556 L 172.4463 194.4007 L 172.4462 194.4007 L 196.5353 241.304 M 203.1284 233.1647 L 180.1876 188.1382 M 163.7815 202.6808 L 190.6621 249.4792 M 220.1161 508.5347 L 201.3796 431.5545 M 189.6708 523.3428 L 185.542 429.4549 M 33.43127 555.1564 L 61.67017 579.2366 M 95.00781 288.3567 L 101.3751 341.9489 M 104.5999 291.4099 L 113.2496 343.4233 L 113.2496 343.4233 L 128.1989 396.6068 M 101.4248 341.4704 L 105.3248 401.6857 M 123.1921 343.9504 L 114.7427 294.1474" fill-rule="evenodd" fill="none" fill-opacity="1" stroke="#0000FF" stroke-opacity="1" stroke-width="1.058333" stroke-linecap="round" stroke-linejoin="round"/>
<path id="path_a364d3f7464891669266da00e90883d8" d="M 176.8535 307.1465 L 176.3451 287.5989 L 202.3214 284.8599 L 202.3213 284.8599 L 212.3718 285.6035" fill-rule="evenodd" fill="none" fill-opacity="1" stroke="#414141" stroke-opacity="1" stroke-width="1.058333" stroke-linecap="round" stroke-linejoin="round"/>
<path id="path_3f28d094d343d43ae3ae3aec128862a7" d="M 215.3088 285.8208 L 224.6533 286.5122 L 224.6532 286.5122 L 228.9459 291.4908 L 228.9463 291.4908 L 279.4418 291.5032 L 279.4415 291.5033 L 275.3146 302.4458 L 275.3142 302.4458 L 278.3928 308.2539 L 278.3929 308.2539 L 277.2441 311.9956 L 277.2441 311.9956 L 271.4363 315.0743 L 271.4358 315.0742 L 274.8794 320.6738 L 274.8793 320.6738 L 273.5936 326.0664 L 273.5933 326.0665 L 267.9937 329.5101 L 267.9939 329.51 L 265.0171 345.565 L 265.0172 345.565 L 268.9154 350.8581 L 267.7645 358.4417 L 267.7645 358.4418 L 262.4713 362.34 L 262.4714 362.34 L 260.3234 378.6924 L 260.3232 378.6924 L 264.3838 383.8621 L 264.3839 383.8621 L 263.6151 390.2603 L 258.4452 394.3208 L 258.4451 394.3208 L 240.2013 398.3289 L 240.2017 398.3289 L 223.1077 397.7263 L 223.1078 397.7263 L 218.6261 392.9171 L 218.6259 392.9171 L 213.8208 397.403 L 213.8207 397.403 L 201.0792 396.9651" fill-rule="evenodd" fill="none" fill-opacity="1" stroke="#414141" stroke-opacity="1" stroke-width="1.058333" stroke-linecap="round" stroke-linejoin="round"/>
<path id="path_3adf8dc78c822875ddffc28077487914" d="M 198.092 396.8625 L 187.6364 396.5032 L 178.8054 391.5487 L 178.8055 391.5487 L 173.8579 383.1027 L 173.8578 383.1027 L 178.2009 374.3306 L 178.2012 374.3305 L 177.9592 358.8563 L 177.959 358.8564 L 173.2234 354.2974 L 173.1523 350.554 L 173.1523 350.554 L 177.7115 345.8182 L 177.7091 345.7731 L 177.4728 334.2477 L 177.4711 334.2867 L 172.7245 329.7388 L 172.7242 329.7388 L 172.6636 326.8965 L 172.6636 326.8964 L 177.2042 322.1577 L 177.2087 322.1621 L 172.4587 317.6181 L 172.4587 317.618 L 172.328 311.7368 L 172.328 311.7369 L 176.8501 307.0096" fill-rule="evenodd" fill="none" fill-opacity="1" stroke="#414141" stroke-opacity="1" stroke-width="1.058333" stroke-linecap="round" stroke-linejoin="round"/>
<path id="path_3b96978e73030097dec67f6bbdd3ae6b" d="M 71.53003 271.5275 L 56.00806 271.7476 L 44.55029 267.2612 L 44.55042 267.2612 L 38.70728 254.0294 L 38.7074 254.0294 L 32.3103 252.517 L 32.3103 252.517 L 28.79993 246.834 L 28.79993 246.8341 L 30.31226 240.4367 L 30.31201 240.4368 L 20.87488 227.6646 L 20.87537 227.6646 L 117.6735 205.7945 L 117.6735 205.7943 L 116.616 239.6332 L 116.616 239.6333 L 118.9564 245.874 L 115.64 253.4438" fill-rule="evenodd" fill="none" fill-opacity="1" stroke="#414141" stroke-opacity="1" stroke-width="1.058333" stroke-linecap="round" stroke-linejoin="round"/>
<path id="path_cddb248cd6860f4a927b32582956e2fc" d="M 114.61 255.7947 L 111.009 264.0138 L 111.009 264.0138 L 104.8859 266.4059 L 104.8859 266.406 L 100.3038 271.1197 L 100.3038 271.1197 L 74.51538 271.4852" fill-rule="evenodd" fill="none" fill-opacity="1" stroke="#414141" stroke-opacity="1" stroke-width="1.058333" stroke-linecap="round" stroke-linejoin="round"/>
<path id="path_e14e3c505aa012a9d8d16a63bd7fb8f6" d="M 88.61194 60.39221 L 111.8311 87.60779 L 111.8312 87.60785 L 111.3123 94.16095 L 111.3116 94.16086 L 145.8676 89.15707 L 145.8677 89.1572 L 128.7107 123.9081 L 128.7108 123.9081 L 111.9932 192.8635 L 111.9932 192.8635 L 104.5431 199.6488 L 65.43079 210.0241" fill-rule="evenodd" fill="none" fill-opacity="1" stroke="#414141" stroke-opacity="1" stroke-width="1.058333" stroke-linecap="round" stroke-linejoin="round"/>
<path id="path_02f4d2f0c3094f02495b9bacee2d9aed" d="M 62.68799 210.7516 L 27.40027 220.1123 L 27.40015 220.1123 L 21.71545 216.8112 L 21.71594 216.8112 L 25.96045 210.0455 L 25.96045 210.0455 L 24.45593 203.6916 L 24.45605 203.6916 L 30.82983 202.274 L 30.82971 202.274 L 36.36682 193.3897 L 36.36682 193.3896 L 42.00208 184.0564 L 42.00208 184.0564 L 40.07495 177.7716 L 40.07495 177.7716 L 40.63269 176.7199 L 40.63318 176.7199 L 46.9176 174.7926 L 46.91736 174.7926 L 50.40674 165.3503 L 50.40662 165.3503 L 46.58948 159.9984 L 46.5896 159.9984 L 46.78455 158.8366 L 46.78455 158.8366 L 52.13599 155.0196 L 52.22961 143.325 L 52.22974 143.3249 L 51.00244 130.1712 L 51.0022 130.1713 L 48.55017 115.5349 L 48.55017 115.5349 L 42.95715 112.0807 L 42.95728 112.0807 L 41.33984 105.2372 L 41.33972 105.2373 L 44.79382 99.64432 L 44.79382 99.64432 L 39.82336 83.42169 L 39.82336 83.42163 L 33.83655 80.70584 L 33.83643 80.70584 L 31.30469 73.96948 L 34.02051 67.98303 L 34.02075 67.98297 L 27.84717 53.50336 L 27.84705 53.50348 L 56.43848 29.84265 L 56.43848 29.84247 L 63.70642 31.1994 L 63.7063 31.19958 L 86.64734 58.08942" fill-rule="evenodd" fill="none" fill-opacity="1" stroke="#414141" stroke-opacity="1" stroke-width="1.058333" stroke-linecap="round" stroke-linejoin="round"/>
<path id="path_e358d266a12b3d80b2194fe55b56df02" d="M 175.3177 146.5601 L 175.8579 143.521 L 175.8579 143.521 L 181.2471 139.7572 L 181.2471 139.7572 L 177.4803 134.3697 L 178.5059 128.5772 L 178.506 128.5772 L 183.8936 124.8105 L 183.8936 124.8105 L 180.1237 119.4251 L 180.1234 119.4251 L 180.6174 116.6253 L 180.6174 116.6254 L 186.0028 112.8556 L 186.0031 112.8555 L 188.0065 101.5032 L 188.0155 101.459 L 184.2374 96.07922 L 184.2375 96.07928 L 184.8827 92.3913 L 184.8826 92.39124 L 190.2628 88.61349 L 186.4668 83.24658 L 186.4668 83.24667 L 187.5106 77.1561 L 187.5106 77.15598 L 192.8779 73.35992 L 192.8779 73.35992 L 196.119 56.43896 L 235.6774 61.20148 L 235.6776 61.20148 L 275.24 65.92896 L 275.24 65.92883 L 279.7246 70.73505 L 279.7244 70.73511 L 279.6443 73.05597" fill-rule="evenodd" fill="none" fill-opacity="1" stroke="#414141" stroke-opacity="1" stroke-width="1.058333" stroke-linecap="round" stroke-linejoin="round"/>
<path id="path_4434b76a28cb238e874572c6eb77eeab" d="M 279.5453 75.91095 L 279.5016 77.17551 L 279.5017 77.17545 L 274.6956 81.66025 L 274.6957 81.66025 L 274.3074 98.14871 L 278.9391 102.8134 L 278.9119 110.4839 L 278.9122 110.4839 L 274.2471 115.1156 L 274.2467 115.1156 L 274.729 131.4185 L 274.735 131.3999 L 279.7441 135.6569 L 279.7441 135.6568 L 280.1919 141.1768 L 280.1919 141.1769 L 275.9386 146.1818 L 275.9392 146.1808 L 281.2209 150.092 L 281.2208 150.0921 L 281.7872 153.8914 L 281.7876 153.8914 L 277.9109 159.1265 L 277.9236 159.1089 L 283.4226 162.6684 L 283.423 162.6682 L 283.9248 165.0135 L 280.3529 170.532 L 280.3529 170.532 L 230.4205 163.0102 L 230.4208 163.0102 L 225.4337 167.2926 L 225.4331 167.2926 L 213.78 166.4063" fill-rule="evenodd" fill="none" fill-opacity="1" stroke="#414141" stroke-opacity="1" stroke-width="1.058333" stroke-linecap="round" stroke-linejoin="round"/>
<path id="path_3f972c2ba2d736af1d38bf4eec978e73" d="M 211.4971 166.2327 L 203.1045 165.5944 L 177.8276 159.0102 L 174.0638 153.6207 L 174.8044 149.4518" fill-rule="evenodd" fill="none" fill-opacity="1" stroke="#414141" stroke-opacity="1" stroke-width="1.058333" stroke-linecap="round" stroke-linejoin="round"/>
<path id="path_91ac1041a78e950b4a35743532b8d81a" d="M 163.8525 202.7538 L 132.293 151.3236 L 132.293 151.3235 L 134.7849 145.2405 L 134.7854 145.2405 L 140.78 142.7302" fill-rule="evenodd" fill="none" fill-opacity="1" stroke="#414141" stroke-opacity="1" stroke-width="1.058333" stroke-linecap="round" stroke-linejoin="round"/>
<path id="path_d7989ac1c440502ed428f3bd5ea6c5d9" d="M 143.3901 141.6371 L 147.8225 139.7809 L 147.8224 139.781 L 153.9053 142.273 L 153.9189 142.3556 L 180.1879 188.1382 L 180.1874 188.1382 L 186.4393 190.1698 L 186.4395 190.1698 L 195.3168 207.5931" fill-rule="evenodd" fill="none" fill-opacity="1" stroke="#414141" stroke-opacity="1" stroke-width="1.058333" stroke-linecap="round" stroke-linejoin="round"/>
<path id="path_312a4414b499eb24b6129f7b8c8a128a" d="M 196.6755 210.2603 L 205.1599 226.9129 L 203.1287 233.1647 L 203.1287 233.1647 L 196.5355 241.304 L 196.5354 241.304 L 197.5984 247.7912 L 197.5984 247.7912 L 197.1492 248.4164 L 190.662 249.4792 L 185.0035 258.3086 L 185.0035 258.3086 L 186.6549 264.6713 L 185.8411 266.0558 L 185.8412 266.0558 L 179.4784 267.7076 L 179.4783 267.7076 L 136.375 239.896 L 136.3751 239.896 L 134.8743 233.4961 L 134.8745 233.4961 L 138.3444 227.9005 L 138.3436 227.9005 L 144.7437 226.3996 L 144.7437 226.3996 L 154.2406 213.5526 L 154.2407 213.5525 L 153.813 206.9928 L 153.8127 206.993 L 157.2216 203.1085 L 157.2217 203.1085 L 163.7814 202.6807" fill-rule="evenodd" fill="none" fill-opacity="1" stroke="#414141" stroke-opacity="1" stroke-width="1.058333" stroke-linecap="round" stroke-linejoin="round"/>
<path id="path_ce2cecc57303889fcdc3ed2e7b758cfc" d="M 179.8168 423.4475 L 181.9919 423.9223 L 181.9921 423.9223 L 185.5424 429.4549 L 201.3799 431.5545 L 206.0018 426.8801 L 211.1696 426.8511 L 211.1698 426.8511 L 215.8445 431.4731 L 215.8445 431.4731 L 239.7469 486.8784 L 220.1165 508.5347 L 220.1165 508.5347 L 217.9691 514.7479 L 209.7621 518.7397" fill-rule="evenodd" fill="none" fill-opacity="1" stroke="#414141" stroke-opacity="1" stroke-width="1.058333" stroke-linecap="round" stroke-linejoin="round"/>
<path id="path_d85679ad512f312acd821aabe38914cf" d="M 207.0607 520.0536 L 195.8839 525.4898 L 195.884 525.4898 L 189.6708 523.3429 L 189.6708 523.3428 L 184.1943 519.7067 L 168.1208 440.1124 L 170.027 426.0687 L 170.0267 426.0687 L 175.5594 422.5185 L 175.5594 422.5184 L 176.922 422.8158" fill-rule="evenodd" fill="none" fill-opacity="1" stroke="#414141" stroke-opacity="1" stroke-width="1.058333" stroke-linecap="round" stroke-linejoin="round"/>
<path id="path_663457f01181b11a4f6b5e94b5f9f4d9" d="M 77.27234 400.3183 L 112.2764 410.1589 L 112.2762 410.1589 L 119.6251 417.0534 L 119.6256 417.0533 L 135.3234 486.248 L 135.3231 486.248 L 141.5171 488.4499 L 141.5172 488.4499 L 147.7335 501.5229" fill-rule="evenodd" fill="none" fill-opacity="1" stroke="#414141" stroke-opacity="1" stroke-width="1.058333" stroke-linecap="round" stroke-linejoin="round"/>
<path id="path_324e1cba0f9b6c4a2eef9fc3515b652d" d="M 148.8683 503.91 L 154.1674 515.0544 L 151.9652 521.2484 L 151.9653 521.2484 L 146.6415 525.1044 L 146.6417 525.1044 L 127.0079 521.9647 L 127.0074 521.9648 L 117.4872 515.7351 L 117.4873 515.7351 L 61.67029 579.2366 L 55.11719 579.7575 L 45.44373 571.5082" fill-rule="evenodd" fill="none" fill-opacity="1" stroke="#414141" stroke-opacity="1" stroke-width="1.058333" stroke-linecap="round" stroke-linejoin="round"/>
<path id="path_87fcfbb48bd918b7cd4af2bf2c456b7c" d="M 43.12732 569.5331 L 33.95264 561.7094 L 33.43152 555.1564 L 39.81848 540.7695 L 39.81799 540.7694 L 37.1908 534.7436 L 37.19092 534.7436 L 39.82178 528.0453 L 39.82178 528.0453 L 45.84778 525.4182 L 51.05713 509.2707 L 47.68591 503.6273 L 47.68579 503.6273 L 49.40454 496.8085 L 49.40466 496.8085 L 55.0481 493.4372 L 55.04785 493.4372 L 57.71619 478.8386 L 57.71619 478.8386 L 59.13745 465.7045 L 54.52026 461.0249 L 54.53638 458.6265 L 54.5365 458.6265 L 59.21655 454.0098 L 59.21655 454.0098 L 53.92175 450.1141 L 53.74426 448.9496 L 53.74426 448.9496 L 57.63965 443.6545 L 57.63928 443.6546 L 51.70923 440.8179 L 51.70935 440.8179 L 51.45337 440.092 L 51.45337 440.092 L 54.29004 434.1619 L 54.28979 434.1619 L 49.51172 424.8265 L 49.51172 424.8265 L 43.15393 423.1558 L 42.34424 421.7689 L 42.34436 421.7689 L 44.01501 415.4111 L 44.01489 415.4111 L 38.6095 406.446 L 38.60962 406.446 L 32.25745 404.9344 L 33.8551 398.6035 L 33.85522 398.6035 L 29.7113 391.7759 L 35.44385 388.5591 L 35.44385 388.559 L 74.39282 399.5087" fill-rule="evenodd" fill="none" fill-opacity="1" stroke="#414141" stroke-opacity="1" stroke-width="1.058333" stroke-linecap="round" stroke-linejoin="round"/>
<path id="path_3b6cfadcf8dcab3032640462439722e6" d="M 101.3751 341.9489 L 87.23096 338.9211 L 87.23096 338.9211 L 81.43311 342.0196 L 81.43323 342.0195 L 75.04138 340.0802 L 75.04138 340.0801 L 71.94299 334.2825 L 71.9436 334.2824 L 57.17285 328.4492 L 57.17273 328.4493 L 54.44922 322.4666 L 54.44849 322.4666 L 60.38293 306.6115" fill-rule="evenodd" fill="none" fill-opacity="1" stroke="#414141" stroke-opacity="1" stroke-width="1.058333" stroke-linecap="round" stroke-linejoin="round"/>
<path id="path_ee7574db254cf05f3112431f537e685b" d="M 61.40015 303.8938 L 65.4082 293.1854 L 65.40833 293.1854 L 75.1543 280.4073 L 75.15442 280.4073 L 85.19739 284.6506 L 91.18835 281.9449 L 92.30212 282.3657 L 92.302 282.3657 L 95.00769 288.3567 L 95.00793 288.3567 L 104.6 291.4099 L 104.5997 291.41 L 114.7471 294.0087" fill-rule="evenodd" fill="none" fill-opacity="1" stroke="#414141" stroke-opacity="1" stroke-width="1.058333" stroke-linecap="round" stroke-linejoin="round"/>
<path id="path_9c893b19df0acf4e0a43b9af56a7f0a2" d="M 128.1989 396.6068 L 124.6687 402.1522 L 124.6687 402.1521 L 120.5273 403.0717" fill-rule="evenodd" fill="none" fill-opacity="1" stroke="#414141" stroke-opacity="1" stroke-width="1.058333" stroke-linecap="round" stroke-linejoin="round"/>
<path id="path_9cd2522b84d27143f8bed267c6b60a5d" d="M 117.613 403.7188 L 110.8704 405.2159 L 110.8704 405.2159 L 105.3251 401.6857 L 105.3251 401.6857 L 99.19727 378.992 L 99.1969 378.992 L 97.08655 346.4094 L 97.08691 346.4094 L 101.0634 341.8821" fill-rule="evenodd" fill="none" fill-opacity="1" stroke="#414141" stroke-opacity="1" stroke-width="1.058333" stroke-linecap="round" stroke-linejoin="round"/>
<path id="path_b18902549f839132190e5951e7138223" d="M 114.7426 294.1474 L 120.1031 297.9527 L 120.1031 297.9527 L 126.9973 338.5902 L 126.9974 338.5901 L 123.1921 343.9504 L 123.1925 343.9505 L 128.1633 396.48" fill-rule="evenodd" fill="none" fill-opacity="1" stroke="#414141" stroke-opacity="1" stroke-width="1.058333" stroke-linecap="round" stroke-linejoin="round"/>
<path id="path_95b31b064cf15c5ac77907db1182b49a" d="M 81.71729 18.15624 L 81.71729 12.09565 L 82.5193 12.09565 L 82.5193 17.44104 L 85.5041 17.44104 L 85.5041 18.15624 L 81.71729 18.15624 Z" fill-rule="evenodd" fill="#0000FF" fill-opacity="1" stroke="#0000FF" stroke-opacity="1" stroke-width="0.2645833" stroke-linecap="round" stroke-linejoin="round"/>
<path id="path_0c1227d776bc641b5db7e8906dc9cdda" d="M 86.08701 15.96103 C 86.08701 15.14799 86.313 14.54579 86.765 14.15443 C 87.14258 13.82922 87.60284 13.66661 88.14578 13.66661 C 88.74936 13.66661 89.24271 13.86435 89.62579 14.25985 C 90.00888 14.65534 90.20042 15.20174 90.20042 15.89902 C 90.20042 16.46402 90.11568 16.90843 89.94618 17.23227 C 89.77669 17.55611 89.53001 17.8076 89.20618 17.98674 C 88.88234 18.16589 88.52888 18.25546 88.14578 18.25546 C 87.53119 18.25546 87.03441 18.0584 86.65544 17.66428 C 86.27649 17.27016 86.08701 16.70242 86.08701 15.96103 Z M 86.85182 15.96103 C 86.85182 16.52327 86.97446 16.94426 87.21976 17.224 C 87.46504 17.50374 87.77371 17.64361 88.14578 17.64361 C 88.51511 17.64361 88.8224 17.50305 89.06769 17.22193 C 89.31297 16.94081 89.43562 16.51225 89.43562 15.93623 C 89.43562 15.39328 89.31229 14.98194 89.06563 14.7022 C 88.81895 14.42246 88.51234 14.28259 88.14578 14.28259 C 87.77373 14.28259 87.46504 14.42177 87.21976 14.70013 C 86.97446 14.9785 86.85182 15.3988 86.85182 15.96103 Z" fill-rule="evenodd" fill="#0000FF" fill-opacity="1" stroke="#0000FF" stroke-opacity="1" stroke-width="0.2645833" stroke-linecap="round" stroke-linejoin="round"/>
<path id="path_5d9bccf0d6d7f779ab0f4fd72ac92e5f" d="M 91.88301 18.15624 L 90.53944 13.76583 L 91.30838 13.76583 L 92.00703 16.30003 L 92.26749 17.24261 C 92.27852 17.19575 92.35431 16.89396 92.49486 16.33723 L 93.19353 13.76583 L 93.95833 13.76583 L 94.61565 16.31243 L 94.83476 17.15165 L 95.08693 16.30416 L 95.83934 13.76583 L 96.56281 13.76583 L 95.19029 18.15624 L 94.41722 18.15624 L 93.71855 15.52695 L 93.54906 14.77868 L 92.66023 18.15624 L 91.88301 18.15624 Z" fill-rule="evenodd" fill="#0000FF" fill-opacity="1" stroke="#0000FF" stroke-opacity="1" stroke-width="0.2645833" stroke-linecap="round" stroke-linejoin="round"/>
<path id="path_ef88757b638d8c0e11bc1cc201dca7e0" d="M 100.1925 16.74238 L 100.9615 16.83746 C 100.8402 17.2867 100.6156 17.63534 100.2876 17.88339 C 99.95966 18.13144 99.54073 18.25546 99.03085 18.25546 C 98.3887 18.25546 97.87952 18.05771 97.50331 17.66222 C 97.12711 17.26672 96.93901 16.71206 96.93901 15.99824 C 96.93901 15.25961 97.12918 14.68635 97.50951 14.27845 C 97.88985 13.87055 98.38318 13.66661 98.98952 13.66661 C 99.57655 13.66661 100.0561 13.86642 100.4282 14.26605 C 100.8002 14.66568 100.9863 15.22792 100.9863 15.95276 C 100.9863 15.99686 100.9849 16.06301 100.9821 16.1512 L 97.70795 16.1512 C 97.7355 16.63351 97.87193 17.00283 98.11722 17.25914 C 98.36252 17.51546 98.66844 17.64361 99.03499 17.64361 C 99.30785 17.64361 99.54073 17.57195 99.73366 17.42864 C 99.92657 17.28532 100.0795 17.05657 100.1925 16.74238 Z M 97.74928 15.53936 L 100.2008 15.53936 C 100.1677 15.17004 100.074 14.89306 99.91969 14.7084 C 99.68266 14.42177 99.37537 14.27845 98.99779 14.27845 C 98.65604 14.27845 98.36871 14.39283 98.13583 14.62159 C 97.90294 14.85034 97.77409 15.15626 97.74928 15.53936 Z" fill-rule="evenodd" fill="#0000FF" fill-opacity="1" stroke="#0000FF" stroke-opacity="1" stroke-width="0.2645833" stroke-linecap="round" stroke-linejoin="round"/>
<path id="path_13ce309f61f7476ceed9f5cff7e50fc1" d="M 101.8875 18.15624 L 101.8875 13.76583 L 102.5572 13.76583 L 102.5572 14.43141 C 102.7281 14.11998 102.8859 13.91465 103.0306 13.81543 C 103.1753 13.71622 103.3344 13.66661 103.5081 13.66661 C 103.7589 13.66661 104.0138 13.74653 104.2729 13.90639 L 104.0166 14.59678 C 103.8347 14.48929 103.6528 14.43555 103.4709 14.43555 C 103.3082 14.43555 103.1622 14.48447 103.0326 14.58231 C 102.9031 14.68015 102.8108 14.81589 102.7557 14.98952 C 102.673 15.2541 102.6316 15.54349 102.6316 15.85768 L 102.6316 18.15624 L 101.8875 18.15624 Z" fill-rule="evenodd" fill="#0000FF" fill-opacity="1" stroke="#0000FF" stroke-opacity="1" stroke-width="0.2645833" stroke-linecap="round" stroke-linejoin="round"/>
<path id="path_e024158e78688b014ba6c81b19edc491" d="M 86.07462 25.49013 L 86.87663 25.69271 C 86.70851 26.3514 86.40602 26.8537 85.96919 27.19958 C 85.53236 27.54547 84.99837 27.71841 84.36723 27.71841 C 83.71405 27.71841 83.18282 27.58543 82.77354 27.31947 C 82.36427 27.05351 82.05283 26.66835 81.83923 26.16399 C 81.62564 25.65963 81.51884 25.11806 81.51884 24.53929 C 81.51884 23.90815 81.63942 23.35763 81.88058 22.88772 C 82.12173 22.41781 82.46486 22.0609 82.90997 21.81699 C 83.35507 21.57308 83.84496 21.45112 84.37964 21.45112 C 84.98596 21.45112 85.49583 21.60546 85.90926 21.91414 C 86.32266 22.22282 86.61067 22.6569 86.77327 23.21638 L 85.98366 23.40242 C 85.84311 22.96145 85.63916 22.64036 85.37181 22.43917 C 85.10448 22.23798 84.76823 22.13738 84.3631 22.13738 C 83.89732 22.13738 83.50803 22.249 83.19522 22.47224 C 82.8824 22.69549 82.66261 22.99521 82.53583 23.37141 C 82.40906 23.74762 82.34566 24.13553 82.34566 24.53515 C 82.34566 25.05054 82.42076 25.50047 82.57097 25.88494 C 82.72118 26.26941 82.95476 26.55673 83.2717 26.7469 C 83.58865 26.93707 83.93178 27.03215 84.30109 27.03215 C 84.75032 27.03215 85.13066 26.90262 85.44209 26.64355 C 85.75352 26.38448 85.96437 26.00001 86.07462 25.49013 Z" fill-rule="evenodd" fill="#0000FF" fill-opacity="1" stroke="#0000FF" stroke-opacity="1" stroke-width="0.2645833" stroke-linecap="round" stroke-linejoin="round"/>
<path id="path_97cf7bdb2a1a5f1fe7fcf4de9bc2a778" d="M 87.76959 27.61506 L 87.76959 21.55447 L 88.51372 21.55447 L 88.51372 23.72901 C 88.86099 23.32663 89.29921 23.12543 89.82837 23.12543 C 90.15358 23.12543 90.43608 23.18951 90.67586 23.31767 C 90.91563 23.44583 91.08719 23.6229 91.19055 23.84889 C 91.2939 24.07489 91.34558 24.40286 91.34558 24.83281 L 91.34558 27.61506 L 90.60144 27.61506 L 90.60144 24.83281 C 90.60144 24.46074 90.52083 24.18996 90.3596 24.02046 C 90.19836 23.85096 89.97031 23.76622 89.6754 23.76622 C 89.45493 23.76622 89.24753 23.8234 89.05322 23.93778 C 88.85892 24.05216 88.72043 24.20719 88.63774 24.40286 C 88.55507 24.59855 88.51372 24.86864 88.51372 25.21315 L 88.51372 27.61506 L 87.76959 27.61506 Z" fill-rule="evenodd" fill="#0000FF" fill-opacity="1" stroke="#0000FF" stroke-opacity="1" stroke-width="0.2645833" stroke-linecap="round" stroke-linejoin="round"/>
<path id="path_88d44f8675a9e125a25b8bb5b7fb69c8" d="M 92.48245 22.41023 L 92.48245 21.55447 L 93.22658 21.55447 L 93.22658 22.41023 L 92.48245 22.41023 Z M 92.48245 27.61506 L 92.48245 23.22465 L 93.22658 23.22465 L 93.22658 27.61506 L 92.48245 27.61506 Z" fill-rule="evenodd" fill="#0000FF" fill-opacity="1" stroke="#0000FF" stroke-opacity="1" stroke-width="0.2645833" stroke-linecap="round" stroke-linejoin="round"/>
<path id="path_19de88eadea55c8c6cf3a1e885448618" d="M 94.35933 27.61506 L 94.35933 23.22465 L 95.02905 23.22465 L 95.02905 23.84889 C 95.3515 23.36658 95.81728 23.12543 96.42638 23.12543 C 96.69095 23.12543 96.93417 23.17297 97.15604 23.26806 C 97.3779 23.36314 97.54396 23.48785 97.65419 23.64219 C 97.76443 23.79653 97.84161 23.97981 97.88571 24.19203 C 97.91327 24.32983 97.92705 24.57099 97.92705 24.91549 L 97.92705 27.61506 L 97.18291 27.61506 L 97.18291 24.94443 C 97.18291 24.64126 97.15398 24.41458 97.0961 24.26437 C 97.03822 24.11417 96.93555 23.99428 96.7881 23.90471 C 96.64066 23.81513 96.46771 23.77035 96.26927 23.77035 C 95.95233 23.77035 95.67879 23.87094 95.44865 24.07214 C 95.21852 24.27333 95.10345 24.65505 95.10345 25.21728 L 95.10345 27.61506 L 94.35933 27.61506 Z" fill-rule="evenodd" fill="#0000FF" fill-opacity="1" stroke="#0000FF" stroke-opacity="1" stroke-width="0.2645833" stroke-linecap="round" stroke-linejoin="round"/>
<path id="path_88efc7f52186cb78afd793812797ab7e" d="M 81.52298 37.17723 L 81.88264 35.41611 L 81.18399 35.41611 L 81.18399 34.80013 L 82.00667 34.80013 L 82.31259 33.29945 L 81.18399 33.29945 L 81.18399 32.68346 L 82.43661 32.68346 L 82.79628 30.90993 L 83.4164 30.90993 L 83.05673 32.68346 L 84.35896 32.68346 L 84.71863 30.90993 L 85.34288 30.90993 L 84.98322 32.68346 L 85.69841 32.68346 L 85.69841 33.29945 L 84.85919 33.29945 L 84.54913 34.80013 L 85.69841 34.80013 L 85.69841 35.41611 L 84.42511 35.41611 L 84.06544 37.17723 L 83.44533 37.17723 L 83.80086 35.41611 L 82.50276 35.41611 L 82.1431 37.17723 L 81.52298 37.17723 Z M 82.62679 34.80013 L 83.92488 34.80013 L 84.23494 33.29945 L 82.93271 33.29945 L 82.62679 34.80013 Z" fill-rule="evenodd" fill="#0000FF" fill-opacity="1" stroke="#0000FF" stroke-opacity="1" stroke-width="0.2645833" stroke-linecap="round" stroke-linejoin="round"/>
<path id="path_eade34e4715398cfbe75ed9450da390b" d="M 90.01852 32.49744 L 89.27853 32.55531 C 89.21239 32.26317 89.11868 32.05095 88.99741 31.91865 C 88.79622 31.70644 88.54817 31.60033 88.25328 31.60033 C 88.01625 31.60033 87.80817 31.66648 87.62903 31.79877 C 87.39476 31.96964 87.2101 32.21907 87.07506 32.54704 C 86.94002 32.87502 86.86974 33.34217 86.86423 33.9485 C 87.04337 33.67565 87.26247 33.47308 87.52155 33.34079 C 87.78061 33.2085 88.05208 33.14235 88.33595 33.14235 C 88.83205 33.14235 89.25441 33.32494 89.60306 33.69012 C 89.95169 34.0553 90.12602 34.52728 90.12602 35.10605 C 90.12602 35.48639 90.04402 35.83985 89.88004 36.16644 C 89.71605 36.49304 89.49074 36.74316 89.20412 36.91679 C 88.91748 37.09042 88.59227 37.17723 88.22847 37.17723 C 87.60835 37.17723 87.10262 36.94917 86.71126 36.49304 C 86.3199 36.03691 86.12422 35.28519 86.12422 34.23789 C 86.12422 33.06656 86.34058 32.21493 86.77327 31.68302 C 87.15085 31.22 87.65935 30.98849 88.29875 30.98849 C 88.77554 30.98849 89.16621 31.12215 89.47078 31.38949 C 89.77531 31.65683 89.9579 32.02615 90.01852 32.49744 Z M 86.97998 35.11018 C 86.97998 35.3665 87.03441 35.61179 87.14326 35.84605 C 87.25214 36.08032 87.4044 36.25877 87.60008 36.38142 C 87.79576 36.50406 88.0011 36.56538 88.21606 36.56538 C 88.53026 36.56538 88.80035 36.43861 89.02635 36.18505 C 89.25235 35.93149 89.36534 35.58699 89.36534 35.15153 C 89.36534 34.7326 89.25372 34.40256 89.03049 34.16141 C 88.80724 33.92025 88.52612 33.79967 88.18713 33.79967 C 87.85089 33.79967 87.56564 33.92025 87.33138 34.16141 C 87.09711 34.40256 86.97998 34.71883 86.97998 35.11018 Z" fill-rule="evenodd" fill="#0000FF" fill-opacity="1" stroke="#0000FF" stroke-opacity="1" stroke-width="0.2645833" stroke-linecap="round" stroke-linejoin="round"/>
</defs>
<g>
<use xlink:href="#path_1d22110fd7d22807f0ff89d4777c91be"/>
</g>
<g>
<use xlink:href="#path_bbf398a3d20952eb716b1c75acd8d57b"/>
</g>
<g>
<use xlink:href="#path_a364d3f7464891669266da00e90883d8"/>
</g>
<g>
<use xlink:href="#path_3f28d094d343d43ae3ae3aec128862a7"/>
</g>
<g>
<use xlink:href="#path_3adf8dc78c822875ddffc28077487914"/>
</g>
<g>
<use xlink:href="#path_3b96978e73030097dec67f6bbdd3ae6b"/>
</g>
<g>
<use xlink:href="#path_cddb248cd6860f4a927b32582956e2fc"/>
</g>
<g>
<use xlink:href="#path_e14e3c505aa012a9d8d16a63bd7fb8f6"/>
</g>
<g>
<use xlink:href="#path_02f4d2f0c3094f02495b9bacee2d9aed"/>
</g>
<g>
<use xlink:href="#path_e358d266a12b3d80b2194fe55b56df02"/>
</g>
<g>
<use xlink:href="#path_4434b76a28cb238e874572c6eb77eeab"/>
</g>
<g>
<use xlink:href="#path_3f972c2ba2d736af1d38bf4eec978e73"/>
</g>
<g>
<use xlink:href="#path_91ac1041a78e950b4a35743532b8d81a"/>
</g>
<g>
<use xlink:href="#path_d7989ac1c440502ed428f3bd5ea6c5d9"/>
</g>
<g>
<use xlink:href="#path_312a4414b499eb24b6129f7b8c8a128a"/>
</g>
<g>
<use xlink:href="#path_ce2cecc57303889fcdc3ed2e7b758cfc"/>
</g>
<g>
<use xlink:href="#path_d85679ad512f312acd821aabe38914cf"/>
</g>
<g>
<use xlink:href="#path_663457f01181b11a4f6b5e94b5f9f4d9"/>
</g>
<g>
<use xlink:href="#path_324e1cba0f9b6c4a2eef9fc3515b652d"/>
</g>
<g>
<use xlink:href="#path_87fcfbb48bd918b7cd4af2bf2c456b7c"/>
</g>
<g>
<use xlink:href="#path_3b6cfadcf8dcab3032640462439722e6"/>
</g>
<g>
<use xlink:href="#path_ee7574db254cf05f3112431f537e685b"/>
</g>
<g>
<use xlink:href="#path_9c893b19df0acf4e0a43b9af56a7f0a2"/>
</g>
<g>
<use xlink:href="#path_9cd2522b84d27143f8bed267c6b60a5d"/>
</g>
<g>
<use xlink:href="#path_b18902549f839132190e5951e7138223"/>
</g>
<g>
<g>
<use xlink:href="#path_95b31b064cf15c5ac77907db1182b49a"/>
</g>
<g>
<use xlink:href="#path_0c1227d776bc641b5db7e8906dc9cdda"/>
</g>
<g>
<use xlink:href="#path_5d9bccf0d6d7f779ab0f4fd72ac92e5f"/>
</g>
<g>
<use xlink:href="#path_ef88757b638d8c0e11bc1cc201dca7e0"/>
</g>
<g>
<use xlink:href="#path_13ce309f61f7476ceed9f5cff7e50fc1"/>
</g>
<g>
<use xlink:href="#path_e024158e78688b014ba6c81b19edc491"/>
</g>
<g>
<use xlink:href="#path_97cf7bdb2a1a5f1fe7fcf4de9bc2a778"/>
</g>
<g>
<use xlink:href="#path_88d44f8675a9e125a25b8bb5b7fb69c8"/>
</g>
<g>
<use xlink:href="#path_19de88eadea55c8c6cf3a1e885448618"/>
</g>
<g>
<use xlink:href="#path_88efc7f52186cb78afd793812797ab7e"/>
</g>
<g>
<use xlink:href="#path_eade34e4715398cfbe75ed9450da390b"/>
</g>
</g>
</svg>