<?xml version="1.0" encoding="utf-8"?>
<!DOCTYPE svg PUBLIC "-//W3C//DTD SVG 1.1//EN" "http://www.w3.org/Graphics/SVG/1.1/DTD/svg11.dtd">
<!-- exported from Silhouette Studio® Business Edition V4.4.920ssbe -->
<svg version="1.1" xmlns="http://www.w3.org/2000/svg" xmlns:xlink="http://www.w3.org/1999/xlink" width="304.8mm" height="609.6mm" viewBox="0 0 304.8 609.6">
<defs>
<path id="path_ea95e15bc1914ec755ec6d76ce0104cb" d="M 30.02118 367.1478 L 27.91196 420.294 M 64.10251 450.875 L 70.05658 435.1911 M 219.9437 554.4236 L 186.5923 528.5054 L 186.5922 528.5054 L 151.6209 522.5937 L 151.6208 522.5937 L 160.1187 479.3206 M 179.5822 494.9264 L 151.6208 522.5937 L 151.6209 522.5937 L 196.428 563.8826 M 151.751 566.9149 L 151.6209 522.5937 L 151.6209 522.5937 L 189.4046 506.3272 L 189.4046 506.3272 L 186.5922 528.5054 M 279.1909 376.7318 L 226.0586 396.4143 L 226.0586 396.4143 L 259.3974 444.5397 L 259.3974 444.5398 L 220.1284 468.6531 L 220.1284 468.6531 L 226.0586 396.4143 L 226.0586 396.4143 L 269.4888 422.5068 M 279.5333 403.1902 L 226.0586 396.4143 M 184.3379 487.0462 L 184.1097 460.3191 L 184.1097 460.319 L 177.57 429.8682 L 177.57 429.8683 L 209.9975 429.8585 M 161.7048 438.6848 L 137.195 460.319 M 203.6289 497.1397 L 206.1145 484.9791 L 206.1145 484.9791 L 184.1097 460.3191 M 172.4827 422.2044 L 219.2278 355.8692 L 219.2278 355.8692 L 265.5441 349.5656 M 168.2349 366.8622 L 157.6052 414.3858 L 157.6052 414.3858 L 146.771 427.2346 M 166.6651 307.2159 L 167.3822 322.2916 M 87.31314 431.0378 L 92.10175 429.7244 L 92.10175 429.7244 L 100.8868 408.1285 L 100.8869 408.1285 L 157.6053 414.3858 M 67.39624 367.6614 L 85.00076 402.7369 L 85.00076 402.7369 L 45.66879 394.5153 M 35.10635 325.0553 L 35.10635 361.8456 M 118.7432 481.5702 L 95.13351 540.2449 L 95.13358 540.2449 L 81.32379 568.0622 L 81.32385 568.0622 L 126.1893 511.1944 L 126.1893 511.1944 L 95.13367 540.2449 M 34.7655 525.4625 L 28.84641 548.8998 M 49.15649 467.6143 L 39.52866 511.141 M 146.0207 433.515 L 100.204 452.6768 M 101.6558 241.6457 L 117.5594 232.3736 M 125.6714 186.4337 L 117.5594 140.494 L 117.5593 140.494 L 101.6557 131.2219 M 123.83 92.37213 L 72.37393 50.24817 L 72.37387 50.24817 L 25.74384 97.65915 M 51.39087 104.1703 L 72.37387 50.24811 L 72.37393 50.24817 L 26.21857 43.46899 M 99.03149 101.6025 L 72.37387 50.24817" fill-rule="evenodd" fill="none" fill-opacity="1" stroke="#FF0000" stroke-opacity="1" stroke-width="1.058333" stroke-linecap="round" stroke-linejoin="round"/>
<path id="path_5c0e8810022175a2f0e1f3926637fc0d" d="M 64.10257 450.8749 L 27.91196 420.2939 M 39.7627 392.4525 L 30.02118 367.1477 M 151.751 566.9147 L 196.428 563.8825 L 196.428 563.8825 L 186.5922 528.5054 M 219.9437 554.4235 L 189.4047 506.3271 M 179.5824 494.9262 L 160.1188 479.3205 M 269.489 422.5067 L 279.5333 403.1901 L 279.5332 403.1901 L 279.1909 376.7317 M 184.1098 460.319 L 137.1951 460.319 M 184.3379 487.0461 L 206.1145 484.9789 L 206.1145 484.9789 L 209.9975 429.8583 M 265.5441 349.5655 L 215.6865 344.7818 L 215.6864 344.7819 L 168.235 366.8621 M 167.3822 322.2915 L 215.6864 344.7819 M 267.7396 288.6649 L 276.9652 54.19684 M 155.9138 62.99774 L 136.4304 104.3887 M 143.1671 377.1982 L 100.8868 408.1284 L 100.8869 408.1284 L 146.771 427.2344 M 56.00787 372.5972 L 45.66879 394.5151 M 139.9397 498.954 L 118.7433 481.57 M 79.46597 567.0597 L 60.81909 561.2908 L 60.81909 561.2908 L 100.2039 452.6766 M 34.91083 186.4337 L 24.59 252.9677 M 33.42633 106.8988 L 24.59 119.8997 M 86.16974 263.0625 L 42.69772 273.8057 M 144.7122 296.1584 L 104.7348 243.988 M 137.3692 363.0062 L 163.6962 359.0834 M 62.97781 338.0544 L 103.252 392.0106 M 25.7438 97.65918 L 51.39081 104.1704 M 99.03146 101.6025 L 76.08841 119.1616 L 76.0885 119.1616 L 72.37393 50.24811 M 123.83 92.37201 L 117.5331 38.54688" fill-rule="evenodd" fill="none" fill-opacity="1" stroke="#0000FF" stroke-opacity="1" stroke-width="1.058333" stroke-linecap="round" stroke-linejoin="round"/>
<path id="path_f60c8c17155a9c55d077a0cccb2ad998" d="M 24.65408 390.1718 L 25.39835 371.4174 L 25.39838 371.4174 L 30.02103 367.1476 L 30.021 367.1476 L 35.77228 369.7016 L 38.52985 376.8647" fill-rule="evenodd" fill="none" fill-opacity="1" stroke="#414141" stroke-opacity="1" stroke-width="1.058333" stroke-linecap="round" stroke-linejoin="round"/>
<path id="path_72f0215b073649e0cd1a847f34980ebb" d="M 39.54181 379.4933 L 42.31665 386.7012 L 42.31668 386.7012 L 39.7627 392.4525 L 70.05661 435.1909 L 72.63727 440.9302 L 72.63727 440.9302 L 69.84186 448.2941 L 69.84171 448.2941 L 64.10248 450.8749 L 64.10248 450.8749 L 29.7883 469.9208 L 27.91187 420.2939 L 23.80295 411.6221 L 23.80276 411.6221 L 24.53525 393.1655" fill-rule="evenodd" fill="none" fill-opacity="1" stroke="#414141" stroke-opacity="1" stroke-width="1.058333" stroke-linecap="round" stroke-linejoin="round"/>
<path id="path_31b08996bc6c0e5f517e866afe0325d9" d="M 198.3165 554.063 L 199.5231 558.4034 L 196.4279 563.8825 L 196.4279 563.8825 L 192.2899 568.6233 L 180.2242 569.4422" fill-rule="evenodd" fill="none" fill-opacity="1" stroke="#414141" stroke-opacity="1" stroke-width="1.058333" stroke-linecap="round" stroke-linejoin="round"/>
<path id="path_07b4547dca318b9cc2fb215fbdd1bf8a" d="M 177.348 569.6374 L 156.4917 571.0529 L 151.7509 566.9147 L 151.7511 566.9147 L 126.4085 558.7752 L 126.4084 558.7752 L 151.6208 522.5936 L 148.4773 515.5093 L 154.895 482.8293 L 154.895 482.8293 L 160.1187 479.3205 L 160.1187 479.3205 L 166.3739 478.6324 L 166.3738 478.6324 L 171.3012 482.5832" fill-rule="evenodd" fill="none" fill-opacity="1" stroke="#414141" stroke-opacity="1" stroke-width="1.058333" stroke-linecap="round" stroke-linejoin="round"/>
<path id="path_8c77754a75ab2200f57d9a2de34ab0f2" d="M 173.6502 484.4665 L 178.8942 488.6711 L 179.5822 494.9262 L 179.5823 494.9262 L 189.4046 506.3271 L 195.5463 507.6984 L 195.5461 507.6984 L 206.0157 524.1871" fill-rule="evenodd" fill="none" fill-opacity="1" stroke="#414141" stroke-opacity="1" stroke-width="1.058333" stroke-linecap="round" stroke-linejoin="round"/>
<path id="path_cdd377fe4a56c8f5b1e589ee43a29c25" d="M 207.2966 526.2045 L 221.3148 548.2819 L 219.9437 554.4235 L 219.9436 554.4235 L 201.9321 561.9449 L 201.9323 561.9449 L 186.5922 528.5053" fill-rule="evenodd" fill="none" fill-opacity="1" stroke="#414141" stroke-opacity="1" stroke-width="1.058333" stroke-linecap="round" stroke-linejoin="round"/>
<path id="path_e9b8721a309df0f6cce4d7ab539b647d" d="M 242.4852 460.1464 L 226.2487 470.1165 L 226.2486 470.1165 L 220.1284 468.653 L 216.0577 463.8542 L 216.0577 463.8542 L 220.7111 407.1696 L 226.0586 396.4142 L 279.8635 347.8482 L 279.1909 376.7317 L 283.6978 381.1234 L 283.6978 381.1235 L 283.9249 398.6832 L 283.9249 398.6832 L 279.5333 403.1901 L 280.325 411.3124 L 275.4896 420.6116 L 269.489 422.5067 L 269.4888 422.5067 L 259.3973 444.5397 L 259.3974 444.5397 L 257.934 450.6599 L 244.7619 458.7483" fill-rule="evenodd" fill="none" fill-opacity="1" stroke="#414141" stroke-opacity="1" stroke-width="1.058333" stroke-linecap="round" stroke-linejoin="round"/>
<path id="path_4dc10b62e54f0c1d4fa699ead53dcdb5" d="M 178.3678 454.7746 L 174.1539 435.153 L 177.57 429.8681 L 177.57 429.8681 L 198.6683 404.8955 L 198.6683 404.8955 L 209.9975 429.8583 L 214.1234 434.6097 L 212.5061 457.5684" fill-rule="evenodd" fill="none" fill-opacity="1" stroke="#414141" stroke-opacity="1" stroke-width="1.058333" stroke-linecap="round" stroke-linejoin="round"/>
<path id="path_693fcb78af7546e7c3f6a05594b63c04" d="M 212.2978 460.5257 L 210.9575 479.5535 L 210.9574 479.5535 L 206.1144 484.9789 L 206.1144 484.9789 L 209.583 490.2296 L 209.5829 490.2296 L 208.8795 493.6711 L 203.6288 497.1395 L 203.6288 497.1396 L 184.3378 487.0461 L 184.3378 487.0461 L 137.1951 460.319 L 137.195 460.3189 L 137.5864 454.0383 L 137.5864 454.0383 L 146.0466 446.5707" fill-rule="evenodd" fill="none" fill-opacity="1" stroke="#414141" stroke-opacity="1" stroke-width="1.058333" stroke-linecap="round" stroke-linejoin="round"/>
<path id="path_083d8802f55dfdb38d1de754582ef327" d="M 148.1144 444.7455 L 155.4242 438.2933 L 161.7048 438.6848 L 161.7048 438.6847 L 184.1097 460.3189" fill-rule="evenodd" fill="none" fill-opacity="1" stroke="#414141" stroke-opacity="1" stroke-width="1.058333" stroke-linecap="round" stroke-linejoin="round"/>
<path id="path_694703baffdc7777c37eb4fbe54c9f3a" d="M 143.8019 78.28012 L 149.9927 65.12854 L 149.9927 65.12857 L 155.9138 62.99771 L 155.9138 62.99765 L 276.9652 54.19678 L 276.9651 54.19678 L 281.2365 58.81799 L 281.2366 58.81812 L 274.2068 237.4778" fill-rule="evenodd" fill="none" fill-opacity="1" stroke="#414141" stroke-opacity="1" stroke-width="1.058333" stroke-linecap="round" stroke-linejoin="round"/>
<path id="path_26a118227579ef19d7aa7c39025111cf" d="M 274.11 239.941 L 272.4121 283.0925 L 272.412 283.0924 L 267.7396 288.665 L 267.7396 288.6649 L 265.5439 349.5656 L 265.5441 349.5655 L 261.735 354.5746 L 224.2369 359.678 L 224.2368 359.678 L 219.2277 355.869 L 219.2278 355.869 L 219.1858 363.6535 L 219.1857 363.6535 L 201.5478 388.6833" fill-rule="evenodd" fill="none" fill-opacity="1" stroke="#414141" stroke-opacity="1" stroke-width="1.058333" stroke-linecap="round" stroke-linejoin="round"/>
<path id="path_cc88c3a394dfd9b323335004d6f2b1fe" d="M 200.0746 390.7737 L 178.6832 421.1301 L 178.6832 421.1301 L 172.4828 422.2043 L 157.6053 414.3857 L 157.6051 414.3857 L 158.1386 420.6559 L 158.1384 420.6559 L 153.041 426.701 L 153.0412 426.701 L 146.771 427.2344 L 92.10175 429.7243 L 90.88422 434.6722 L 90.88422 434.6722 L 87.31305 431.0376 L 45.66873 394.5151 L 45.66873 394.5151 L 43.54279 388.5923 L 46.66425 381.975" fill-rule="evenodd" fill="none" fill-opacity="1" stroke="#414141" stroke-opacity="1" stroke-width="1.058333" stroke-linecap="round" stroke-linejoin="round"/>
<path id="path_51bdfd52d001a4feab2b59f1e8948dea" d="M 47.86932 379.4204 L 50.08505 374.7232 L 56.00787 372.5972 L 56.00787 372.5972 L 67.39624 367.6613 L 67.39603 367.6613 L 73.36893 369.6422 L 73.36893 369.6422 L 86.98157 396.7639 L 86.98166 396.7639 L 85.00082 402.7368 L 85.00064 402.7368 L 100.8868 408.1284 L 103.35 400.8132 L 103.3502 400.8132 L 116.9589 390.8576" fill-rule="evenodd" fill="none" fill-opacity="1" stroke="#414141" stroke-opacity="1" stroke-width="1.058333" stroke-linecap="round" stroke-linejoin="round"/>
<path id="path_0272d2a2c6b312f2546d59cbba92e52c" d="M 119.3958 389.0749 L 136.9486 376.2341 L 136.9486 376.2341 L 143.167 377.1982 L 143.1672 377.1982 L 168.235 366.8621 L 167.3821 322.2915 L 167.3821 322.2914 L 162.7261 318.0582 L 162.7262 318.0582 L 162.4319 311.8717 L 162.4319 311.8718 L 166.665 307.2157 L 166.6651 307.2157 L 166.9688 283.0445 L 166.9688 283.0445 L 136.4303 104.3886 L 134.2995 98.46759 L 142.5166 81.01089" fill-rule="evenodd" fill="none" fill-opacity="1" stroke="#414141" stroke-opacity="1" stroke-width="1.058333" stroke-linecap="round" stroke-linejoin="round"/>
<path id="path_ee5e8d2fc5d1692f604459181ff37928" d="M 30.65662 340.19 L 30.65662 329.5049 L 30.65662 329.5049 L 35.10626 325.0552 L 35.10632 325.0552 L 50.4473 328.4846 L 50.4473 328.4846 L 35.10629 361.8454 L 35.10629 361.8455 L 30.65662 353.2997 L 30.65662 353.2997 L 30.65662 343.1859" fill-rule="evenodd" fill="none" fill-opacity="1" stroke="#414141" stroke-opacity="1" stroke-width="1.058333" stroke-linecap="round" stroke-linejoin="round"/>
<path id="path_318ce361c1b0ea6894564f494dc57915" d="M 95.13354 540.2448 L 79.46597 567.0597 L 73.89993 569.9954 L 73.89981 569.9954 L 63.75479 566.8569 L 60.81903 561.2908 L 60.81903 561.2908 L 28.84637 548.8997 L 25.6217 543.4958 L 25.62167 543.4958 L 29.36163 528.6871 L 29.36166 528.6871 L 34.76547 525.4624 L 34.76547 525.4624 L 39.52853 511.1409 L 39.52856 511.1409 L 36.1449 505.8352 L 36.1449 505.8352 L 39.61404 490.1512" fill-rule="evenodd" fill="none" fill-opacity="1" stroke="#414141" stroke-opacity="1" stroke-width="1.058333" stroke-linecap="round" stroke-linejoin="round"/>
<path id="path_dbad66ca8001df4349057400dd359a11" d="M 40.24561 487.296 L 43.85059 470.9978 L 43.85077 470.9978 L 49.15649 467.6141 L 49.15646 467.6141 L 100.2038 452.6766 L 100.2039 452.6766 L 102.5922 446.8546 L 117.3492 440.6828" fill-rule="evenodd" fill="none" fill-opacity="1" stroke="#414141" stroke-opacity="1" stroke-width="1.058333" stroke-linecap="round" stroke-linejoin="round"/>
<path id="path_4f36759091a900e1176d81c36253479c" d="M 120.0883 439.5373 L 140.1987 431.1266 L 140.1986 431.1266 L 146.0205 433.5148 L 146.0205 433.5148 L 118.7433 481.57 L 118.7431 481.5701 L 125.0055 480.9512 L 125.0055 480.9512 L 130.3341 485.3214" fill-rule="evenodd" fill="none" fill-opacity="1" stroke="#414141" stroke-opacity="1" stroke-width="1.058333" stroke-linecap="round" stroke-linejoin="round"/>
<path id="path_6643dbc0a25fe7659f0dad699276cf6a" d="M 132.6605 487.2294 L 139.3207 492.6917 L 139.9396 498.954 L 139.9396 498.954 L 126.1893 511.1942 L 126.1892 511.1942 L 126.9265 517.4437 L 87.57315 567.3248 L 87.5733 567.3248 L 81.32385 568.0621 L 80.43082 565.4083" fill-rule="evenodd" fill="none" fill-opacity="1" stroke="#414141" stroke-opacity="1" stroke-width="1.058333" stroke-linecap="round" stroke-linejoin="round"/>
<path id="path_8fec1f69c96caea63d17885f8f885745" d="M 125.551 160.1625 L 129.2796 181.278 L 129.2796 181.2779 L 125.6714 186.4336 L 125.6714 186.4336 L 117.5594 232.3734 L 115.9564 238.4587 L 115.9564 238.4587 L 107.7409 243.2484 L 107.7409 243.2484 L 101.6557 241.6455 L 101.6557 241.6455 L 33.4263 265.9686 L 33.4263 265.9686 L 24.58994 252.9677 L 24.58997 252.9677 L 20.87494 247.8885 L 20.87491 247.8885 L 24.56964 224.0702" fill-rule="evenodd" fill="none" fill-opacity="1" stroke="#414141" stroke-opacity="1" stroke-width="1.058333" stroke-linecap="round" stroke-linejoin="round"/>
<path id="path_6f3d8372a940dfa24ecc597fadd26c96" d="M 25.02817 221.1142 L 29.83151 190.1487 L 29.83151 190.1486 L 34.91083 186.4336 L 34.91083 186.4336 L 24.58994 119.8997 L 23.41113 113.7183 L 27.24487 108.0776 L 27.24487 108.0776 L 33.4263 106.8988 L 33.4263 106.8987 L 101.6557 131.2218 L 101.6557 131.2218 L 107.7409 129.6189 L 107.7411 129.6189 L 115.9564 134.4086 L 115.9564 134.4086 L 117.5594 140.4938 L 122.715 144.102 L 125.0393 157.2651" fill-rule="evenodd" fill="none" fill-opacity="1" stroke="#414141" stroke-opacity="1" stroke-width="1.058333" stroke-linecap="round" stroke-linejoin="round"/>
<path id="path_279f1dfee3e908e3a81deda2c6eb18c5" d="M 124.9934 263.1098 L 145.5377 289.9201 L 145.5376 289.9201 L 144.712 296.1585 L 144.7122 296.1585 L 163.6962 359.0834 L 163.6962 359.0834 L 159.9508 364.1403 L 142.426 366.7516 L 142.426 366.7516 L 137.3692 363.0063 L 103.252 392.0107 L 103.252 392.0107 L 97.02444 391.1064 L 97.02444 391.1064 L 82.0159 370.9992" fill-rule="evenodd" fill="none" fill-opacity="1" stroke="#414141" stroke-opacity="1" stroke-width="1.058333" stroke-linecap="round" stroke-linejoin="round"/>
<path id="path_df02ca33a79c5b67411e1b68ddca90f6" d="M 80.19052 368.5537 L 62.07358 344.2819 L 62.07358 344.2819 L 62.97772 338.0544 L 62.95764 338.015 L 42.69769 273.8057 L 42.69769 273.8057 L 45.95001 268.4184 L 45.95004 268.4185 L 62.47031 264.3358" fill-rule="evenodd" fill="none" fill-opacity="1" stroke="#414141" stroke-opacity="1" stroke-width="1.058333" stroke-linecap="round" stroke-linejoin="round"/>
<path id="path_618595e5b557b176e2aa5d1ba4bef4af" d="M 65.35431 263.6231 L 80.78244 259.8104 L 80.78244 259.8103 L 86.16974 263.0626 L 86.1698 263.0626 L 104.7348 243.988 L 104.7348 243.988 L 110.9732 244.8135 L 123.454 261.101" fill-rule="evenodd" fill="none" fill-opacity="1" stroke="#414141" stroke-opacity="1" stroke-width="1.058333" stroke-linecap="round" stroke-linejoin="round"/>
<path id="path_1a10583a814c204ee67007a61698772d" d="M 46.00549 41.87769 L 54.67389 43.15088 L 72.37381 50.24805 L 72.37378 50.24799 L 117.533 38.54681 L 117.533 38.54681 L 122.8645 45.82526 L 122.8645 45.82532 L 124.7806 62.20316" fill-rule="evenodd" fill="none" fill-opacity="1" stroke="#414141" stroke-opacity="1" stroke-width="1.058333" stroke-linecap="round" stroke-linejoin="round"/>
<path id="path_87b7dbc3fb30d5c3d384b794c275f628" d="M 125.1278 65.17111 L 127.7325 87.43542 L 127.7326 87.43542 L 123.83 92.37201 L 123.8299 92.37201 L 99.0314 101.6024 L 99.03137 101.6025 L 98.20224 107.8404 L 98.20224 107.8403 L 82.32639 119.9908 L 76.08844 119.1616 L 76.08844 119.1615 L 51.39087 104.1703 L 51.39087 104.1703 L 45.98306 107.3883 L 45.98294 107.3882 L 28.96167 103.0668 L 28.9617 103.0669 L 25.7438 97.65909 L 25.7438 97.65903 L 26.21857 43.46887 L 31.26761 39.71301 L 43.04123 41.44232" fill-rule="evenodd" fill="none" fill-opacity="1" stroke="#414141" stroke-opacity="1" stroke-width="1.058333" stroke-linecap="round" stroke-linejoin="round"/>
<path id="path_47c334345bcaea5e778c5c2d5cc71a82" d="M 175.6477 18.64914 L 175.6477 12.58854 L 176.4498 12.58854 L 176.4498 17.93394 L 179.4346 17.93394 L 179.4346 18.64914 L 175.6477 18.64914 Z" fill-rule="evenodd" fill="#0000FF" fill-opacity="1" stroke="#404040" stroke-opacity="1" stroke-width="0.1" stroke-linecap="round" stroke-linejoin="round"/>
<path id="path_d9d1214c7bb3150ae224faa52ef77c4b" d="M 180.0174 16.45393 C 180.0174 15.64089 180.2434 15.03868 180.6954 14.64732 C 181.073 14.3221 181.5333 14.1595 182.0762 14.1595 C 182.6798 14.1595 183.1732 14.35725 183.5563 14.75274 C 183.9393 15.14824 184.1309 15.69463 184.1309 16.39191 C 184.1309 16.95691 184.0461 17.40133 183.8766 17.72516 C 183.7072 18.049 183.4605 18.30049 183.1366 18.47964 C 182.8128 18.65878 182.4593 18.74836 182.0762 18.74836 C 181.4616 18.74836 180.9649 18.55129 180.5859 18.15718 C 180.2069 17.76306 180.0174 17.19531 180.0174 16.45393 Z M 180.7823 16.45393 C 180.7823 17.01617 180.9049 17.43715 181.1502 17.7169 C 181.3955 17.99664 181.7042 18.13651 182.0762 18.13651 C 182.4456 18.13651 182.7529 17.99595 182.9982 17.71483 C 183.2434 17.43371 183.3661 17.00514 183.3661 16.42912 C 183.3661 15.88618 183.2427 15.47483 182.9961 15.19509 C 182.7494 14.91535 182.4428 14.77548 182.0762 14.77548 C 181.7042 14.77548 181.3955 14.91466 181.1502 15.19302 C 180.9049 15.47139 180.7823 15.89169 180.7823 16.45393 Z" fill-rule="evenodd" fill="#0000FF" fill-opacity="1" stroke="#404040" stroke-opacity="1" stroke-width="0.1" stroke-linecap="round" stroke-linejoin="round"/>
<path id="path_305d9ad7ffcb63c3d07e88f1c3ac0436" d="M 185.8135 18.64914 L 184.4699 14.25872 L 185.2388 14.25872 L 185.9375 16.79292 L 186.1979 17.7355 C 186.209 17.68865 186.2848 17.38686 186.4253 16.83013 L 187.124 14.25872 L 187.8888 14.25872 L 188.5461 16.80532 L 188.7652 17.64455 L 189.0174 16.79706 L 189.7698 14.25872 L 190.4933 14.25872 L 189.1208 18.64914 L 188.3477 18.64914 L 187.649 16.01984 L 187.4795 15.27157 L 186.5907 18.64914 L 185.8135 18.64914 Z" fill-rule="evenodd" fill="#0000FF" fill-opacity="1" stroke="#404040" stroke-opacity="1" stroke-width="0.1" stroke-linecap="round" stroke-linejoin="round"/>
<path id="path_4136e574b2090559f6d82ac77686bab1" d="M 194.123 17.23527 L 194.892 17.33036 C 194.7707 17.7796 194.5461 18.12824 194.2181 18.37629 C 193.8901 18.62433 193.4712 18.74836 192.9614 18.74836 C 192.3192 18.74836 191.81 18.55061 191.4338 18.15511 C 191.0576 17.75961 190.8695 17.20496 190.8695 16.49113 C 190.8695 15.75251 191.0597 15.17924 191.44 14.77134 C 191.8203 14.36345 192.3137 14.1595 192.92 14.1595 C 193.507 14.1595 193.9866 14.35931 194.3587 14.75894 C 194.7307 15.15857 194.9168 15.72081 194.9168 16.44566 C 194.9168 16.48976 194.9154 16.5559 194.9126 16.6441 L 191.6384 16.6441 C 191.666 17.12641 191.8024 17.49572 192.0477 17.75204 C 192.293 18.00835 192.5989 18.13651 192.9655 18.13651 C 193.2383 18.13651 193.4712 18.06485 193.6641 17.92154 C 193.8571 17.77822 194.01 17.54946 194.123 17.23527 Z M 191.6798 16.03225 L 194.1313 16.03225 C 194.0982 15.66293 194.0045 15.38595 193.8502 15.20129 C 193.6132 14.91466 193.3058 14.77134 192.9283 14.77134 C 192.5865 14.77134 192.2992 14.88572 192.0663 15.11448 C 191.8334 15.34323 191.7046 15.64915 191.6798 16.03225 Z" fill-rule="evenodd" fill="#0000FF" fill-opacity="1" stroke="#404040" stroke-opacity="1" stroke-width="0.1" stroke-linecap="round" stroke-linejoin="round"/>
<path id="path_06c0da6315e0d31b961904264cb91743" d="M 195.818 18.64914 L 195.818 14.25872 L 196.4877 14.25872 L 196.4877 14.92431 C 196.6586 14.61287 196.8164 14.40754 196.9611 14.30833 C 197.1058 14.20911 197.2649 14.1595 197.4386 14.1595 C 197.6894 14.1595 197.9443 14.23942 198.2034 14.39928 L 197.9471 15.08967 C 197.7652 14.98218 197.5833 14.92844 197.4014 14.92844 C 197.2387 14.92844 197.0927 14.97736 196.9631 15.0752 C 196.8336 15.17304 196.7413 15.30878 196.6862 15.48241 C 196.6035 15.74699 196.5621 16.03638 196.5621 16.35057 L 196.5621 18.64914 L 195.818 18.64914 Z" fill-rule="evenodd" fill="#0000FF" fill-opacity="1" stroke="#404040" stroke-opacity="1" stroke-width="0.1" stroke-linecap="round" stroke-linejoin="round"/>
<path id="path_d23becd819094474c9feb142fcc8fe0a" d="M 200.6839 16.92935 L 201.4073 16.83013 C 201.4266 17.29315 201.5134 17.6101 201.6678 17.78098 C 201.8221 17.95185 202.0357 18.03729 202.3085 18.03729 C 202.5097 18.03729 202.6834 17.99112 202.8295 17.8988 C 202.9755 17.80647 203.0761 17.68107 203.1312 17.52259 C 203.1864 17.36412 203.2139 17.11125 203.2139 16.76398 L 203.2139 12.58854 L 204.0159 12.58854 L 204.0159 16.71851 C 204.0159 17.22563 203.9546 17.61836 203.832 17.89673 C 203.7093 18.17509 203.515 18.38731 203.2491 18.53338 C 202.9831 18.67945 202.671 18.75249 202.3127 18.75249 C 201.7807 18.75249 201.3736 18.59953 201.0911 18.2936 C 200.8086 17.98768 200.6728 17.53293 200.6839 16.92935 Z" fill-rule="evenodd" fill="#0000FF" fill-opacity="1" stroke="#404040" stroke-opacity="1" stroke-width="0.1" stroke-linecap="round" stroke-linejoin="round"/>
<path id="path_fd513f7d0236f289f688172a439575dd" d="M 208.0963 18.10757 C 207.8207 18.34183 207.5554 18.5072 207.3005 18.60366 C 207.0455 18.70012 206.772 18.74836 206.4799 18.74836 C 205.9976 18.74836 205.6269 18.63053 205.3678 18.39489 C 205.1087 18.15925 204.9792 17.85814 204.9792 17.49159 C 204.9792 17.27662 205.0281 17.08024 205.1259 16.90248 C 205.2238 16.72471 205.3519 16.58208 205.5104 16.4746 C 205.6689 16.36711 205.8474 16.28581 206.0458 16.23069 C 206.1919 16.1921 206.4123 16.1549 206.7072 16.11906 C 207.3081 16.04741 207.7504 15.96197 208.0343 15.86275 C 208.037 15.76077 208.0384 15.69601 208.0384 15.66845 C 208.0384 15.36528 207.9682 15.15168 207.8276 15.02766 C 207.6374 14.85954 207.3549 14.77548 206.9801 14.77548 C 206.6301 14.77548 206.3717 14.8368 206.205 14.95945 C 206.0382 15.08209 205.9149 15.29913 205.8349 15.61057 L 205.1073 15.51135 C 205.1735 15.19991 205.2823 14.94842 205.4339 14.75688 C 205.5855 14.56533 205.8046 14.41788 206.0913 14.31453 C 206.3779 14.21117 206.71 14.1595 207.0876 14.1595 C 207.4624 14.1595 207.767 14.20359 208.0012 14.29179 C 208.2355 14.37998 208.4077 14.49091 208.518 14.62458 C 208.6282 14.75825 208.7054 14.92706 208.7495 15.13101 C 208.7743 15.25779 208.7867 15.48654 208.7867 15.81727 L 208.7867 16.80946 C 208.7867 17.50123 208.8026 17.93876 208.8342 18.12204 C 208.866 18.30532 208.9286 18.48102 209.0223 18.64914 L 208.2451 18.64914 C 208.168 18.49479 208.1183 18.31427 208.0963 18.10757 Z M 208.0343 16.44566 C 207.7642 16.5559 207.3591 16.64961 206.8189 16.72678 C 206.5129 16.77087 206.2966 16.82048 206.1698 16.87561 C 206.043 16.93073 205.9452 17.01134 205.8763 17.11745 C 205.8074 17.22356 205.7729 17.34138 205.7729 17.47092 C 205.7729 17.66935 205.848 17.83472 205.9982 17.96701 C 206.1485 18.0993 206.3682 18.16545 206.6576 18.16545 C 206.9443 18.16545 207.1992 18.10275 207.4224 17.97734 C 207.6457 17.85194 207.8097 17.68038 207.9144 17.46265 C 207.9943 17.29453 208.0343 17.04648 208.0343 16.71851 L 208.0343 16.44566 Z" fill-rule="evenodd" fill="#0000FF" fill-opacity="1" stroke="#404040" stroke-opacity="1" stroke-width="0.1" stroke-linecap="round" stroke-linejoin="round"/>
<path id="path_efa93c05484ee6154330f67e6ee6b161" d="M 210.7504 18.64914 L 209.4068 14.25872 L 210.1757 14.25872 L 210.8744 16.79292 L 211.1348 17.7355 C 211.1459 17.68865 211.2217 17.38686 211.3622 16.83013 L 212.0609 14.25872 L 212.8257 14.25872 L 213.483 16.80532 L 213.7021 17.64455 L 213.9543 16.79706 L 214.7067 14.25872 L 215.4302 14.25872 L 214.0577 18.64914 L 213.2846 18.64914 L 212.5859 16.01984 L 212.4164 15.27157 L 211.5276 18.64914 L 210.7504 18.64914 Z" fill-rule="evenodd" fill="#0000FF" fill-opacity="1" stroke="#404040" stroke-opacity="1" stroke-width="0.1" stroke-linecap="round" stroke-linejoin="round"/>
<path id="path_9978aed61bea6948653c0f07c175ba5d" d="M 175.4534 37.67016 L 175.8131 35.90904 L 175.1144 35.90904 L 175.1144 35.29306 L 175.9371 35.29306 L 176.243 33.79237 L 175.1144 33.79237 L 175.1144 33.17639 L 176.3671 33.17639 L 176.7267 31.40286 L 177.3468 31.40286 L 176.9872 33.17639 L 178.2894 33.17639 L 178.6491 31.40286 L 179.2733 31.40286 L 178.9137 33.17639 L 179.6289 33.17639 L 179.6289 33.79237 L 178.7897 33.79237 L 178.4796 35.29306 L 179.6289 35.29306 L 179.6289 35.90904 L 178.3556 35.90904 L 177.9959 37.67016 L 177.3758 37.67016 L 177.7313 35.90904 L 176.4332 35.90904 L 176.0735 37.67016 L 175.4534 37.67016 Z M 176.5572 35.29306 L 177.8553 35.29306 L 178.1654 33.79237 L 176.8632 33.79237 L 176.5572 35.29306 Z" fill-rule="evenodd" fill="#0000FF" fill-opacity="1" stroke="#404040" stroke-opacity="1" stroke-width="0.1" stroke-linecap="round" stroke-linejoin="round"/>
<path id="path_8b280b12acd2123350b9ae26df189f93" d="M 183.9986 36.85162 L 183.9986 37.56681 L 179.9927 37.56681 C 179.9872 37.38766 180.0161 37.21542 180.0795 37.05005 C 180.1814 36.7772 180.3447 36.50848 180.5694 36.2439 C 180.794 35.97931 181.1185 35.67339 181.5429 35.32613 C 182.2016 34.78594 182.6467 34.35806 182.8783 34.04248 C 183.1098 33.72691 183.2255 33.42857 183.2255 33.14745 C 183.2255 32.85255 183.1201 32.60382 182.9093 32.40125 C 182.6984 32.19867 182.4235 32.09739 182.0845 32.09739 C 181.7262 32.09739 181.4396 32.20488 181.2246 32.41985 C 181.0096 32.63483 180.9008 32.93248 180.898 33.31282 L 180.1332 33.23427 C 180.1856 32.66376 180.3826 32.22899 180.7244 31.92996 C 181.0661 31.63093 181.525 31.48141 182.101 31.48141 C 182.6826 31.48141 183.1428 31.64264 183.4818 31.9651 C 183.8208 32.28756 183.9903 32.68719 183.9903 33.16399 C 183.9903 33.40652 183.9407 33.64492 183.8415 33.87919 C 183.7423 34.11346 183.5776 34.36013 183.3475 34.6192 C 183.1173 34.87827 182.7349 35.2338 182.2003 35.68579 C 181.7538 36.06062 181.4671 36.31487 181.3404 36.44854 C 181.2136 36.58221 181.1089 36.71657 181.0262 36.85162 L 183.9986 36.85162 Z" fill-rule="evenodd" fill="#0000FF" fill-opacity="1" stroke="#404040" stroke-opacity="1" stroke-width="0.1" stroke-linecap="round" stroke-linejoin="round"/>
</defs>
<g>
<use xlink:href="#path_ea95e15bc1914ec755ec6d76ce0104cb"/>
</g>
<g>
<use xlink:href="#path_5c0e8810022175a2f0e1f3926637fc0d"/>
</g>
<g>
<use xlink:href="#path_f60c8c17155a9c55d077a0cccb2ad998"/>
</g>
<g>
<use xlink:href="#path_72f0215b073649e0cd1a847f34980ebb"/>
</g>
<g>
<use xlink:href="#path_31b08996bc6c0e5f517e866afe0325d9"/>
</g>
<g>
<use xlink:href="#path_07b4547dca318b9cc2fb215fbdd1bf8a"/>
</g>
<g>
<use xlink:href="#path_8c77754a75ab2200f57d9a2de34ab0f2"/>
</g>
<g>
<use xlink:href="#path_cdd377fe4a56c8f5b1e589ee43a29c25"/>
</g>
<g>
<use xlink:href="#path_e9b8721a309df0f6cce4d7ab539b647d"/>
</g>
<g>
<use xlink:href="#path_4dc10b62e54f0c1d4fa699ead53dcdb5"/>
</g>
<g>
<use xlink:href="#path_693fcb78af7546e7c3f6a05594b63c04"/>
</g>
<g>
<use xlink:href="#path_083d8802f55dfdb38d1de754582ef327"/>
</g>
<g>
<use xlink:href="#path_694703baffdc7777c37eb4fbe54c9f3a"/>
</g>
<g>
<use xlink:href="#path_26a118227579ef19d7aa7c39025111cf"/>
</g>
<g>
<use xlink:href="#path_cc88c3a394dfd9b323335004d6f2b1fe"/>
</g>
<g>
<use xlink:href="#path_51bdfd52d001a4feab2b59f1e8948dea"/>
</g>
<g>
<use xlink:href="#path_0272d2a2c6b312f2546d59cbba92e52c"/>
</g>
<g>
<use xlink:href="#path_ee5e8d2fc5d1692f604459181ff37928"/>
</g>
<g>
<use xlink:href="#path_318ce361c1b0ea6894564f494dc57915"/>
</g>
<g>
<use xlink:href="#path_dbad66ca8001df4349057400dd359a11"/>
</g>
<g>
<use xlink:href="#path_4f36759091a900e1176d81c36253479c"/>
</g>
<g>
<use xlink:href="#path_6643dbc0a25fe7659f0dad699276cf6a"/>
</g>
<g>
<use xlink:href="#path_8fec1f69c96caea63d17885f8f885745"/>
</g>
<g>
<use xlink:href="#path_6f3d8372a940dfa24ecc597fadd26c96"/>
</g>
<g>
<use xlink:href="#path_279f1dfee3e908e3a81deda2c6eb18c5"/>
</g>
<g>
<use xlink:href="#path_df02ca33a79c5b67411e1b68ddca90f6"/>
</g>
<g>
<use xlink:href="#path_618595e5b557b176e2aa5d1ba4bef4af"/>
</g>
<g>
<use xlink:href="#path_1a10583a814c204ee67007a61698772d"/>
</g>
<g>
<use xlink:href="#path_87b7dbc3fb30d5c3d384b794c275f628"/>
</g>
<g>
<g>
<use xlink:href="#path_47c334345bcaea5e778c5c2d5cc71a82"/>
</g>
<g>
<use xlink:href="#path_d9d1214c7bb3150ae224faa52ef77c4b"/>
</g>
<g>
<use xlink:href="#path_305d9ad7ffcb63c3d07e88f1c3ac0436"/>
</g>
<g>
<use xlink:href="#path_4136e574b2090559f6d82ac77686bab1"/>
</g>
<g>
<use xlink:href="#path_06c0da6315e0d31b961904264cb91743"/>
</g>
<g>
<use xlink:href="#path_d23becd819094474c9feb142fcc8fe0a"/>
</g>
<g>
<use xlink:href="#path_fd513f7d0236f289f688172a439575dd"/>
</g>
<g>
<use xlink:href="#path_efa93c05484ee6154330f67e6ee6b161"/>
</g>
<g>
<use xlink:href="#path_9978aed61bea6948653c0f07c175ba5d"/>
</g>
<g>
<use xlink:href="#path_8b280b12acd2123350b9ae26df189f93"/>
</g>
</g>
</svg>