<?xml version="1.0" encoding="utf-8"?>
<!DOCTYPE svg PUBLIC "-//W3C//DTD SVG 1.1//EN" "http://www.w3.org/Graphics/SVG/1.1/DTD/svg11.dtd">
<!-- exported from Silhouette Studio® Business Edition V4.4.920ssbe -->
<svg version="1.1" xmlns="http://www.w3.org/2000/svg" xmlns:xlink="http://www.w3.org/1999/xlink" width="304.8mm" height="609.6mm" viewBox="0 0 304.8 609.6">
<defs>
<path id="path_4736e40742bf88ae44df0a432e1361b1" d="M 225.8926 292.4404 L 226.0933 234.8188 M 166.6033 265.277 L 222.0889 207.8232 L 222.0889 207.8232 L 219.4678 195.5681 L 219.4675 195.5682 L 163.6575 211.9594 M 212.4092 162.0525 L 210.4043 151.2474 M 161.3669 197.4183 L 216.7832 183.101 L 216.783 183.101 L 214.4121 171.7455 M 215.2034 361.9993 L 166.0527 286.2505 M 72.17139 284.3618 L 29.52368 321.4399 M 71.57812 309.8297 L 27.77173 340.819 M 33.27759 549.8275 L 117.6663 454.6136 M 28.09863 486.0761 L 111.4968 440.5826 M 74.56348 336.2101 L 26.40698 361.7554 M 26.76245 457.7351 L 96.0603 407.3278 M 47.45117 224.2174 L 79.88477 105.1292 L 79.88452 105.1292 L 158.5793 77.8884 M 279.8374 323.3886 L 239.1633 284.1557 M 280.5852 342.8324 L 238.4395 309.6203 M 184.9292 451.8284 L 264.2837 551.2769 M 191.8154 438.1351 L 272.751 487.8784 M 280.866 363.8112 L 234.0942 335.811 M 208.95 405.7225 L 275.5498 459.6443 M 150.0286 51.9295 L 225.293 87.56964 L 225.2927 87.56973 L 244.5786 209.4796 M 147.9524 227.3353 L 92.51855 213.0855 L 92.51855 213.0856 L 89.84937 225.556 L 89.84961 225.5561 L 145.6794 241.8792 M 96.8667 192.0318 L 94.87598 201.7272 M 83.27124 264.8147 L 87.24316 237.8143 L 87.24341 237.8143 L 142.7988 295.2003 M 143.375 316.1732 L 94.31665 391.9818 L 94.31665 391.9818 L 83.54224 322.436" fill-rule="evenodd" fill="none" fill-opacity="1" stroke="#0000FF" stroke-opacity="1" stroke-width="1.058333" stroke-linecap="round" stroke-linejoin="round"/>
<path id="path_3dd9bae8e0402932bbad829587211a69" d="M 226.0945 234.8187 L 166.604 265.2769 L 166.604 265.2769 L 166.0535 286.2505 L 166.0532 286.2505 L 225.8936 292.4404 M 222.0891 207.8232 L 166.1646 245.8237 L 166.1653 245.8238 L 165.2383 228.0442 L 165.238 228.0442 L 222.0894 207.8232 L 222.0894 207.8232 L 163.6582 211.9593 L 163.658 211.9593 L 161.3672 197.4182 L 161.3679 197.4182 L 219.4688 195.5681 M 155.7678 171.6877 L 158.6409 184.1178 L 158.6406 184.1178 L 216.7834 183.1009 M 157.7732 410.2369 L 159.4963 441.1721 L 159.4954 441.1721 L 215.2034 361.9993 L 215.2039 361.9993 L 160.574 331.5079 L 160.5737 331.5079 L 162.853 308.2982 L 162.853 308.2982 L 215.2039 361.9993 L 215.2036 361.9993 L 157.7727 410.2368 L 157.7732 410.2369 Z M 157.9587 381.8649 L 159.0361 355.8601 L 159.0361 355.8601 L 215.2039 361.9993 L 215.2039 361.9994 L 157.9587 381.865 L 157.9587 381.8649 Z M 43.31055 260.9056 L 38.9563 273.7655 L 38.95605 273.7656 L 72.87451 270.0732 M 78.86548 245.9315 L 52.37354 237.3745 L 52.37378 237.3745 L 47.78955 248.9599 M 74.56445 336.2101 L 27.77246 340.819 L 27.77271 340.819 L 29.52466 321.4398 L 29.52441 321.4399 L 71.57886 309.8297 M 31.75806 303.777 L 72.17163 284.3618 L 72.17163 284.3618 L 34.98267 287.9395 L 34.98291 287.9395 L 31.75879 303.777 L 31.75806 303.777 Z M 131.3398 489.8544 L 33.27832 549.8276 L 33.27783 549.8276 L 30.17822 516.9896 L 30.17871 516.9896 L 117.667 454.6136 L 117.6667 454.6136 L 28.09888 486.0762 L 28.09888 486.0762 L 26.76294 457.7351 L 26.76392 457.7351 L 104.3604 424.9536 M 127.3394 477.3634 L 33.27832 549.8276 L 33.27783 549.8276 L 123.1243 466.5388 M 111.4973 440.5826 L 26.76343 457.7351 M 88.00317 386.2129 L 25.56177 384.0181 L 25.56128 384.018 L 26.40796 361.7554 L 26.4082 361.7554 L 80.46631 362.0753 M 25.5249 431.7374 L 25.29102 407.3379 L 25.29102 407.3378 L 96.06104 407.3278 L 96.06104 407.3278 L 25.5249 431.7374 L 25.5249 431.7374 Z M 79.8855 105.1292 L 28.88184 59.7309 L 28.88159 59.73083 L 31.57715 152.4237 L 31.57715 152.4237 L 79.8855 105.129 L 79.8855 105.1292 Z M 158.5808 77.88821 L 78.54004 66.76395 M 239.2004 269.85 L 272.8823 275.2905 L 272.8821 275.2904 L 269.1987 262.2227 M 265.3433 250.0614 L 261.3643 238.2546 M 238.4399 309.6203 L 279.8381 323.3885 L 279.8376 323.3886 L 280.5857 342.8325 L 280.5859 342.8324 L 234.0952 335.811 M 278.52 305.6338 L 276.1189 289.6508 L 276.1184 289.6508 L 239.1636 284.1558 L 239.1638 284.1556 L 278.5198 305.6338 L 278.52 305.6338 Z M 199.7522 422.8958 L 275.5503 459.6443 L 275.5505 459.6443 L 272.7522 487.8784 L 272.7517 487.8784 L 184.9297 451.8285 L 184.9307 451.8285 L 269.0779 518.6429 L 269.0774 518.6429 L 264.2844 551.2769 L 264.2842 551.2769 L 169.4534 486.3154 M 149.8052 552.7689 L 181.8311 562.9572 M 178.8633 463.4556 L 264.2842 551.2769 L 264.2839 551.2769 L 174.0945 474.0479 M 275.5503 459.6443 L 191.8167 438.135 M 226.8638 361.3366 L 280.8667 363.8112 L 280.8669 363.8112 L 280.5613 386.0879 L 280.561 386.0879 L 218.0894 385.0523 M 278.1301 433.7453 L 208.9502 405.7225 L 208.9504 405.7225 L 279.6252 409.3905 L 279.6255 409.3905 L 278.1304 433.7453 L 278.1301 433.7453 Z M 268.1699 139.8389 L 225.2932 87.56967 L 225.2939 87.56961 L 280.9333 47.98932 L 280.9331 47.98938 L 230.8044 49.57867 M 83.54272 322.436 L 143.3757 316.1731 L 143.3755 316.1731 L 142.7993 295.2004 L 142.7991 295.2004 L 83.27148 264.8147 M 87.24365 237.8143 L 144.1196 257.9659 L 144.1196 257.9659 L 143.2141 275.7466 L 143.2141 275.7466 L 87.24365 237.8142 L 87.24365 237.8143 L 145.6802 241.8792 L 145.6794 241.8792 L 147.9529 227.3353 L 147.9529 227.3352 L 89.84985 225.556 M 153.5212 201.598 L 150.6636 214.0316 L 150.6638 214.0316 L 92.51953 213.0856 M 156.4861 189.4964 L 98.85938 181.2242 M 150.4773 385.7742 L 151.5864 411.7777 L 151.5869 411.7777 L 94.31763 391.9818 L 94.31738 391.9818 L 146.6025 338.217 L 146.6023 338.217 L 148.9102 361.4239 L 148.9102 361.4239 L 94.31738 391.9818 L 94.31689 391.9818 L 150.1213 471.0867 L 150.1211 471.0867 L 151.8066 440.1494 L 151.8069 440.1494 L 94.31689 391.9819 L 94.31689 391.9818 L 150.4773 385.7742 L 150.4773 385.7742 Z" fill-rule="evenodd" fill="none" fill-opacity="1" stroke="#FF0000" stroke-opacity="1" stroke-width="1.058333" stroke-linecap="round" stroke-linejoin="round"/>
<path id="path_50dabb83adb2d59624a2e0134b1a5513" d="M 230.4612 261.0377 L 230.3672 287.9977 L 230.3674 287.9977 L 225.8938 292.4404 L 225.8936 292.4404 L 215.2039 361.9994 L 215.2039 361.9993 L 163.2219 473.9451 L 163.2217 473.9449 L 159.4958 441.1721 L 159.4963 441.1721 L 154.7969 436.9687 L 154.7964 436.9687 L 154.2302 426.8058" fill-rule="evenodd" fill="none" fill-opacity="1" stroke="#414141" stroke-opacity="1" stroke-width="1.058333" stroke-linecap="round" stroke-linejoin="round"/>
<path id="path_5ae77d5f34a064553f4293d8a11d51fb" d="M 154.0654 423.8454 L 153.5691 414.9363 L 153.5698 414.9363 L 157.7734 410.2369 L 157.7732 410.2369 L 157.9587 381.8649 L 157.9585 381.8649 L 153.6887 377.2259 L 154.397 360.13 L 154.3972 360.13 L 159.0361 355.8602 L 159.0356 355.8602 L 160.5732 331.508 L 160.5735 331.5079 L 156.5723 326.6351 L 157.9805 312.2993 L 162.8533 308.2982 L 166.0532 286.2505 L 161.7134 281.6768 L 161.7141 281.6768 L 162.0305 269.6168 L 162.0303 269.6168 L 166.604 265.2769 L 166.1653 245.8238 L 161.4534 241.0739 L 161.4536 241.0739 L 161.0188 232.7285 L 161.0181 232.7287 L 165.2383 228.0443 L 165.2385 228.0442 L 163.6584 211.9594 L 163.6587 211.9593 L 158.5608 208.2492 L 158.5608 208.2491 L 157.6575 202.5161 L 157.6572 202.5161 L 161.3674 197.4182 L 161.3677 197.4182 L 158.6409 184.1178 L 153.2932 180.7779 L 153.293 180.7779 L 152.428 177.0354 L 152.4282 177.0354 L 155.7681 171.6877 L 152.7886 159.5899 L 152.7886 159.5899 L 210.4053 151.2475 L 210.4055 151.2475 L 215.6023 154.8176 L 215.6023 154.8175 L 215.9802 156.8557 L 215.9805 156.8557 L 212.4104 162.0526 L 212.4106 162.0526 L 214.4136 171.7455 L 214.4133 171.7454 L 219.9629 176.512 L 219.9624 176.5121 L 216.7837 183.101 L 216.7839 183.1009 L 219.4685 195.5681 L 219.469 195.568 L 225.1392 200.7632 L 225.1387 200.7632 L 222.0896 207.8232 L 226.0945 234.8189 L 230.5371 239.2927 L 230.5369 239.2927 L 230.4709 258.261" fill-rule="evenodd" fill="none" fill-opacity="1" stroke="#414141" stroke-opacity="1" stroke-width="1.058333" stroke-linecap="round" stroke-linejoin="round"/>
<path id="path_e45ddb85bcc81655ab86ce276e9f9ce7" d="M 71.95605 239.0146 L 75.9939 240.3187 L 75.9939 240.3187 L 78.86572 245.9315 L 78.86548 245.9315 L 75.8313 256.5983 L 72.87476 270.0734 L 72.87451 270.0732 L 72.17188 284.3618 L 71.57861 309.8297 L 71.57886 309.8298 L 74.56445 336.2101 L 80.46655 362.0753 L 80.46631 362.0753 L 88.00317 386.2129 L 88.00342 386.2129 L 96.06128 407.3278 L 96.06152 407.3278 L 104.3601 424.9536 L 104.3596 424.9536 L 111.4968 440.5826 L 111.4973 440.5826 L 117.667 454.6137 L 117.6667 454.6137 L 123.1245 466.5388 L 127.3391 477.3634 L 127.3398 477.3634 L 131.3403 489.8544 L 131.3396 489.8544 L 136.0015 507.188 L 141.4988 530.2926 L 141.4993 530.2927 L 147.5276 557.2346 L 147.5276 557.2346 L 115.0178 565.7542 L 115.0173 565.7542 L 33.27808 549.8276 L 33.27759 549.8276 L 28.15259 542.9731 L 28.15308 542.9731 L 26.15894 521.847 L 26.15918 521.847 L 30.17871 516.9896 L 28.09912 486.0762 L 28.09961 486.0762 L 23.43628 481.8327 L 23.43579 481.8327 L 23.08667 474.4266" fill-rule="evenodd" fill="none" fill-opacity="1" stroke="#414141" stroke-opacity="1" stroke-width="1.058333" stroke-linecap="round" stroke-linejoin="round"/>
<path id="path_444eeace8a83f42981c1016a323d6b43" d="M 22.94702 471.4598 L 22.51978 462.3983 L 22.52002 462.3983 L 26.76343 457.7351 L 25.52515 431.7374 L 25.52563 431.7374 L 21.02466 427.3221 L 21.02417 427.3221 L 20.87549 411.8387 L 20.87573 411.8388 L 25.29077 407.3379 L 25.56152 384.0181 L 25.56128 384.0181 L 21.27563 379.3936 L 21.27588 379.3936 L 21.75977 366.6686 L 26.40796 361.7554 L 26.4082 361.7554 L 27.77271 340.8191 L 27.77295 340.8191 L 23.73413 335.9775 L 23.73364 335.9775 L 24.68286 325.4786 L 24.68286 325.4788 L 29.52441 321.44 L 29.52441 321.44 L 31.75854 303.777 L 31.75879 303.777 L 28.27954 298.5191 L 28.27905 298.5189 L 29.72437 291.4188 L 29.72461 291.4188 L 34.98267 287.9395 L 38.9563 273.7656 L 36.16333 268.1131 L 36.16309 268.113 L 37.65796 263.6986 L 43.3103 260.9056 L 47.78931 248.9601 L 47.78979 248.9601 L 45.28442 243.174 L 45.28394 243.174 L 46.5874 239.8799 L 46.5874 239.8799 L 52.37329 237.3745 L 52.37378 237.3745 L 64.55078 236.6226 L 64.55078 236.6225 L 69.18213 238.1185" fill-rule="evenodd" fill="none" fill-opacity="1" stroke="#414141" stroke-opacity="1" stroke-width="1.058333" stroke-linecap="round" stroke-linejoin="round"/>
<path id="path_8f3ff75bd748561eac1246ba92f03759" d="M 119.5461 67.96213 L 150.5298 72.26825 L 150.5295 72.26822 L 158.5801 77.88821 L 158.5803 77.88828 L 155.8257 83.55969 L 155.8254 83.55969 L 87.69238 107.1445 L 87.69263 107.1445 L 79.88574 105.1291 L 79.88525 105.1291 L 82.26709 113.3496 L 72.52856 149.1077" fill-rule="evenodd" fill="none" fill-opacity="1" stroke="#414141" stroke-opacity="1" stroke-width="1.058333" stroke-linecap="round" stroke-linejoin="round"/>
<path id="path_2ff6668fe73a3fa875f52f308b69d515" d="M 72.0708 150.7883 L 58.24951 201.5373 L 58.25 201.5371 L 47.45239 224.2174 L 47.4519 224.2174 L 31.57739 152.4237 L 31.5769 152.4237 L 26.99072 148.0968 L 26.99121 148.0969 L 25.79492 106.9607" fill-rule="evenodd" fill="none" fill-opacity="1" stroke="#414141" stroke-opacity="1" stroke-width="1.058333" stroke-linecap="round" stroke-linejoin="round"/>
<path id="path_8fdeb770367c503323b4f14ed3f71877" d="M 25.70923 104.0111 L 24.55518 64.31683 L 28.88184 59.73083 L 28.88184 59.7309 L 78.53979 66.76401 L 78.53955 66.76401 L 83.56909 62.96188 L 116.582 67.55008" fill-rule="evenodd" fill="none" fill-opacity="1" stroke="#414141" stroke-opacity="1" stroke-width="1.058333" stroke-linecap="round" stroke-linejoin="round"/>
<path id="path_51e504e30344447b35c4502ae4dc364b" d="M 283.925 382.8149 L 280.5608 386.0879 L 279.6255 409.3906 L 279.6257 409.3906 L 283.8027 414.1137 L 283.8027 414.1136 L 282.854 429.5685 L 282.8542 429.5685 L 278.1309 433.7453 L 278.1309 433.7453 L 275.5508 459.6443 L 275.551 459.6443 L 279.5479 464.5206 L 279.5474 464.5206 L 278.759 472.476" fill-rule="evenodd" fill="none" fill-opacity="1" stroke="#414141" stroke-opacity="1" stroke-width="1.058333" stroke-linecap="round" stroke-linejoin="round"/>
<path id="path_8cf2407af79a5f5a7343b7a06db441b5" d="M 278.4763 475.3311 L 277.6284 483.8817 L 277.6284 483.8817 L 272.7522 487.8785 L 272.7517 487.8785 L 269.0769 518.6429 L 272.8401 523.7018 L 269.7568 544.6965 L 264.2844 551.2769 L 181.8313 562.9572 L 181.8315 562.9572 L 176.2314 565.8541 L 176.2312 565.8541 L 165.9426 562.581" fill-rule="evenodd" fill="none" fill-opacity="1" stroke="#414141" stroke-opacity="1" stroke-width="1.058333" stroke-linecap="round" stroke-linejoin="round"/>
<path id="path_5406ab9e4d4e18b47a3b559fe217427a" d="M 163.4636 561.7924 L 152.7024 558.3689 L 152.7021 558.3689 L 149.8052 552.7689 L 149.8057 552.7689 L 157.2185 526.1745 L 157.218 526.1745 L 163.9021 503.3849 L 169.4536 486.3154 L 174.0945 474.0479 L 174.0947 474.0479 L 178.8633 463.4556 L 178.863 463.4556 L 184.9299 451.8285 L 191.8164 438.1351 L 191.8167 438.1351 L 199.7522 422.8958 L 199.752 422.8958 L 208.9504 405.7225 L 208.9509 405.7225 L 218.0896 385.0523 L 218.0894 385.0523 L 226.8638 361.3366 L 234.095 335.811 L 238.4404 309.6202 L 238.4404 309.6202 L 239.1641 284.1556 L 239.1641 284.1556 L 239.2007 269.8499 L 236.9443 256.2401 L 234.4656 245.4309 L 234.4658 245.4309 L 261.3647 238.2546 L 261.364 238.2546 L 267.0127 241.0556 L 267.0129 241.0556 L 268.1445 244.4127 L 268.1443 244.4128 L 265.3433 250.0614 L 269.1992 262.2227 L 274.7 265.3042 L 274.6992 265.3042 L 275.9639 269.7899 L 275.9639 269.7899 L 272.8823 275.2904 L 272.8828 275.2904 L 276.1187 289.6508 L 276.1189 289.6508 L 281.1899 293.3973 L 281.1904 293.3973 L 282.2668 300.5626 L 282.2659 300.5626 L 278.5195 305.6339 L 278.52 305.6339 L 279.8386 323.3885 L 279.8379 323.3885 L 283.925 327.1729" fill-rule="evenodd" fill="none" fill-opacity="1" stroke="#414141" stroke-opacity="1" stroke-width="1.058333" stroke-linecap="round" stroke-linejoin="round"/>
<path id="path_7eb3e4d0cee35ac131c5f1210f5e8cf9" d="M 283.9255 339.2261 L 280.5862 342.8324 L 280.5859 342.8324 L 280.8667 363.8113 L 280.8665 363.8113 L 283.925 367.3986" fill-rule="evenodd" fill="none" fill-opacity="1" stroke="#414141" stroke-opacity="1" stroke-width="1.058333" stroke-linecap="round" stroke-linejoin="round"/>
<path id="path_09a0461d5c957b968e6e72da1c79d89f" d="M 254.3 44.37323 L 274.0879 43.74585 L 274.0879 43.74579 L 280.9333 47.98932 L 268.1704 139.8389 L 268.1699 139.8389 L 244.5791 209.4795 L 244.5793 209.4795 L 236.3132 185.7592 L 236.313 185.7592 L 230.9595 151.9198" fill-rule="evenodd" fill="none" fill-opacity="1" stroke="#414141" stroke-opacity="1" stroke-width="1.058333" stroke-linecap="round" stroke-linejoin="round"/>
<path id="path_12a6bd33bfe272adf4264aabedb0eb45" d="M 230.4963 148.991 L 222.0315 95.4823 L 222.0315 95.48233 L 225.2932 87.56973 L 225.2935 87.56961 L 217.3137 88.72375 L 217.3137 88.72382 L 152.1504 57.86694 L 152.1501 57.867 L 150.0288 51.92963 L 150.0286 51.9295 L 230.8047 49.57867 L 230.8049 49.57867 L 235.1196 44.98132 L 235.1199 44.98132 L 251.3904 44.46545" fill-rule="evenodd" fill="none" fill-opacity="1" stroke="#414141" stroke-opacity="1" stroke-width="1.058333" stroke-linecap="round" stroke-linejoin="round"/>
<path id="path_43a69533d6660f32ef805e7d491e5214" d="M 131.0479 181.3409 L 152.7063 184.4499 L 152.7068 184.4499 L 156.4863 189.4965 L 156.4861 189.4965 L 153.5215 201.5981 L 153.521 201.5981 L 156.8674 206.9416 L 156.0073 210.6852 L 156.0068 210.6852 L 150.6631 214.0316 L 150.6638 214.0316 L 147.9534 227.3353 L 151.6697 232.4285 L 151.6704 232.4285 L 150.7742 238.1627 L 150.7732 238.1627 L 145.6799 241.8792 L 145.6809 241.8792 L 144.1204 257.9659 L 144.1196 257.9659 L 148.3455 262.6451 L 148.3452 262.6451 L 147.9204 270.991 L 147.9202 270.9909 L 143.2141 275.7465 L 143.2141 275.7466 L 142.7993 295.2004 L 147.3784 299.5345 L 147.3787 299.5345 L 147.71 311.5941 L 147.7095 311.5941 L 143.3752 316.1732 L 143.3757 316.1731 L 146.6025 338.217 L 151.4802 342.2122 L 151.4805 342.2122 L 152.9062 356.5463 L 152.906 356.5463 L 148.9106 361.424 L 148.9104 361.424 L 150.4775 385.7742 L 155.1218 390.0384 L 155.1226 390.0384 L 155.8516 407.1334 L 155.8508 407.1335 L 151.5869 411.7777 L 151.5872 411.7777 L 151.8074 440.1495 L 151.8071 440.1495 L 156.0164 444.8436 L 156.0166 444.8436 L 155.6006 452.4793" fill-rule="evenodd" fill="none" fill-opacity="1" stroke="#414141" stroke-opacity="1" stroke-width="1.058333" stroke-linecap="round" stroke-linejoin="round"/>
<path id="path_78087107ef59863adf1e49c33c6a043c" d="M 155.4397 455.4293 L 154.8159 466.8775 L 150.1218 471.0867 L 150.1213 471.0867 L 146.4355 503.8641 L 146.4353 503.8641 L 94.31714 391.9819 L 94.31738 391.9818 L 88.22681 381.7897 L 84.12158 355.2926" fill-rule="evenodd" fill="none" fill-opacity="1" stroke="#414141" stroke-opacity="1" stroke-width="1.058333" stroke-linecap="round" stroke-linejoin="round"/>
<path id="path_f30765a64ea5fe34018bc4ebac2ec15d" d="M 83.67188 352.3884 L 79.81982 327.5243 L 83.54297 322.4361 L 83.54297 322.4361 L 83.27197 264.8147 L 83.27222 264.8147 L 79.51025 259.755 L 82.18359 241.5813 L 82.18359 241.5813 L 87.24414 237.8143 L 87.24365 237.8143 L 89.84985 225.5561 L 89.85034 225.556 L 86.42383 220.2633 L 86.42432 220.2633 L 87.22754 216.5119 L 87.22656 216.5118 L 92.51929 213.0855 L 92.51929 213.0856 L 94.87646 201.7272 L 94.87646 201.7271 L 91.40601 196.4632 L 91.40576 196.4632 L 91.41699 196.4087 L 91.41748 196.4087 L 96.86768 192.0319 L 96.86719 192.0317 L 98.85913 181.2243 L 98.85913 181.2244 L 103.9055 177.4447 L 103.9055 177.4446 L 128.0996 180.9176" fill-rule="evenodd" fill="none" fill-opacity="1" stroke="#414141" stroke-opacity="1" stroke-width="1.058333" stroke-linecap="round" stroke-linejoin="round"/>
<path id="path_8f585807240679982f6bd0df0d670f95" d="M 123.1894 12.09566 L 123.9913 12.09566 L 123.9913 15.59724 C 123.9913 16.20633 123.9225 16.69002 123.7847 17.04831 C 123.6469 17.4066 123.3981 17.69805 123.0384 17.92267 C 122.6788 18.14729 122.2068 18.2596 121.6225 18.2596 C 121.0548 18.2596 120.5904 18.16176 120.2293 17.96608 C 119.8683 17.7704 119.6106 17.48722 119.4563 17.11652 C 119.3019 16.74583 119.2248 16.23941 119.2248 15.59724 L 119.2248 12.09566 L 120.0268 12.09566 L 120.0268 15.59311 C 120.0268 16.11952 120.0757 16.50743 120.1735 16.75686 C 120.2714 17.00628 120.4395 17.19852 120.6779 17.33356 C 120.9163 17.46861 121.2077 17.53613 121.5523 17.53613 C 122.142 17.53613 122.5623 17.40247 122.8131 17.13513 C 123.0639 16.86779 123.1894 16.35378 123.1894 15.59311 L 123.1894 12.09566 Z" fill-rule="evenodd" fill="#0000FF" fill-opacity="1" stroke="#404040" stroke-opacity="1" stroke-width="0.1" stroke-linecap="round" stroke-linejoin="round"/>
<path id="path_f7e936eec32bcd42f10bf14859c2f860" d="M 125.2316 19.83883 L 125.2316 13.76584 L 125.9096 13.76584 L 125.9096 14.33634 C 126.0694 14.1131 126.2499 13.94567 126.4511 13.83405 C 126.6523 13.72243 126.8962 13.66662 127.1829 13.66662 C 127.5577 13.66662 127.8884 13.76308 128.175 13.95601 C 128.4617 14.14893 128.678 14.42109 128.8241 14.77249 C 128.9702 15.12389 129.0432 15.50905 129.0432 15.92797 C 129.0432 16.37721 128.9626 16.78166 128.8014 17.14133 C 128.6401 17.501 128.4059 17.7766 128.0986 17.96815 C 127.7913 18.15969 127.4681 18.25547 127.1291 18.25547 C 126.8811 18.25547 126.6585 18.2031 126.4615 18.09837 C 126.2644 17.99364 126.1025 17.86135 125.9757 17.7015 L 125.9757 19.83883 L 125.2316 19.83883 Z M 125.9054 15.98585 C 125.9054 16.55084 126.0198 16.96838 126.2486 17.23848 C 126.4773 17.50857 126.7543 17.64362 127.0795 17.64362 C 127.4102 17.64362 127.6934 17.50375 127.9291 17.22401 C 128.1647 16.94427 128.2825 16.51088 128.2825 15.92384 C 128.2825 15.36436 128.1675 14.94543 127.9373 14.66707 C 127.7072 14.38871 127.4323 14.24952 127.1126 14.24952 C 126.7956 14.24952 126.5152 14.39767 126.2713 14.69394 C 126.0274 14.99022 125.9054 15.42085 125.9054 15.98585 Z" fill-rule="evenodd" fill="#0000FF" fill-opacity="1" stroke="#404040" stroke-opacity="1" stroke-width="0.1" stroke-linecap="round" stroke-linejoin="round"/>
<path id="path_12d21dccfe56e40a39081e993f0da93f" d="M 129.9403 19.83883 L 129.9403 13.76584 L 130.6183 13.76584 L 130.6183 14.33634 C 130.7782 14.1131 130.9587 13.94567 131.1599 13.83405 C 131.3611 13.72243 131.605 13.66662 131.8916 13.66662 C 132.2664 13.66662 132.5972 13.76308 132.8838 13.95601 C 133.1704 14.14893 133.3868 14.42109 133.5328 14.77249 C 133.6789 15.12389 133.7519 15.50905 133.7519 15.92797 C 133.7519 16.37721 133.6713 16.78166 133.5101 17.14133 C 133.3489 17.501 133.1146 17.7766 132.8073 17.96815 C 132.5 18.15969 132.1768 18.25547 131.8378 18.25547 C 131.5898 18.25547 131.3672 18.2031 131.1702 18.09837 C 130.9731 17.99364 130.8112 17.86135 130.6844 17.7015 L 130.6844 19.83883 L 129.9403 19.83883 Z M 130.6142 15.98585 C 130.6142 16.55084 130.7285 16.96838 130.9573 17.23848 C 131.186 17.50857 131.463 17.64362 131.7882 17.64362 C 132.119 17.64362 132.4022 17.50375 132.6378 17.22401 C 132.8734 16.94427 132.9913 16.51088 132.9913 15.92384 C 132.9913 15.36436 132.8762 14.94543 132.6461 14.66707 C 132.4159 14.38871 132.141 14.24952 131.8213 14.24952 C 131.5044 14.24952 131.2239 14.39767 130.98 14.69394 C 130.7361 14.99022 130.6142 15.42085 130.6142 15.98585 Z" fill-rule="evenodd" fill="#0000FF" fill-opacity="1" stroke="#404040" stroke-opacity="1" stroke-width="0.1" stroke-linecap="round" stroke-linejoin="round"/>
<path id="path_54c26933d175a94ac73604526d0e16c9" d="M 137.6545 16.74239 L 138.4235 16.83747 C 138.3022 17.28671 138.0776 17.63535 137.7496 17.8834 C 137.4216 18.13144 137.0027 18.25547 136.4928 18.25547 C 135.8507 18.25547 135.3415 18.05772 134.9653 17.66223 C 134.5891 17.26673 134.401 16.71207 134.401 15.99825 C 134.401 15.25962 134.5912 14.68636 134.9715 14.27847 C 135.3518 13.87057 135.8452 13.66662 136.4515 13.66662 C 137.0385 13.66662 137.5181 13.86643 137.8902 14.26606 C 138.2622 14.66569 138.4483 15.22793 138.4483 15.95277 C 138.4483 15.99687 138.4469 16.06302 138.4441 16.15121 L 135.1699 16.15121 C 135.1975 16.63352 135.3339 17.00283 135.5792 17.25915 C 135.8245 17.51546 136.1304 17.64362 136.497 17.64362 C 136.7698 17.64362 137.0027 17.57196 137.1956 17.42865 C 137.3886 17.28533 137.5415 17.05658 137.6545 16.74239 Z M 135.2113 15.53937 L 137.6628 15.53937 C 137.6297 15.17005 137.536 14.89307 137.3817 14.70841 C 137.1447 14.42178 136.8374 14.27847 136.4598 14.27847 C 136.118 14.27847 135.8307 14.39284 135.5978 14.6216 C 135.3649 14.85035 135.2361 15.15627 135.2113 15.53937 Z" fill-rule="evenodd" fill="#0000FF" fill-opacity="1" stroke="#404040" stroke-opacity="1" stroke-width="0.1" stroke-linecap="round" stroke-linejoin="round"/>
<path id="path_ee9923d9d774549eeffa35059e2a3880" d="M 139.3495 18.15625 L 139.3495 13.76584 L 140.0192 13.76584 L 140.0192 14.43143 C 140.1901 14.11999 140.3479 13.91466 140.4926 13.81544 C 140.6373 13.71623 140.7964 13.66662 140.97 13.66662 C 141.2209 13.66662 141.4758 13.74654 141.7349 13.90639 L 141.4785 14.59679 C 141.2966 14.4893 141.1147 14.43556 140.9328 14.43556 C 140.7702 14.43556 140.6242 14.48448 140.4946 14.58232 C 140.3651 14.68016 140.2728 14.8159 140.2177 14.98953 C 140.135 15.25411 140.0936 15.5435 140.0936 15.85769 L 140.0936 18.15625 L 139.3495 18.15625 Z" fill-rule="evenodd" fill="#0000FF" fill-opacity="1" stroke="#404040" stroke-opacity="1" stroke-width="0.1" stroke-linecap="round" stroke-linejoin="round"/>
<path id="path_fb6c6f5e2a3c71cbafb006b7c7990026" d="M 144.6494 18.15625 L 144.6494 12.09566 L 145.4514 12.09566 L 145.4514 14.58439 L 148.6016 14.58439 L 148.6016 12.09566 L 149.4036 12.09566 L 149.4036 18.15625 L 148.6016 18.15625 L 148.6016 15.29959 L 145.4514 15.29959 L 145.4514 18.15625 L 144.6494 18.15625 Z" fill-rule="evenodd" fill="#0000FF" fill-opacity="1" stroke="#404040" stroke-opacity="1" stroke-width="0.1" stroke-linecap="round" stroke-linejoin="round"/>
<path id="path_08b16dbb74a8cc7c2fcc74673c056d98" d="M 153.6493 16.74239 L 154.4182 16.83747 C 154.297 17.28671 154.0724 17.63535 153.7444 17.8834 C 153.4164 18.13144 152.9975 18.25547 152.4876 18.25547 C 151.8455 18.25547 151.3363 18.05772 150.9601 17.66223 C 150.5839 17.26673 150.3958 16.71207 150.3958 15.99825 C 150.3958 15.25962 150.586 14.68636 150.9663 14.27847 C 151.3466 13.87057 151.84 13.66662 152.4463 13.66662 C 153.0333 13.66662 153.5129 13.86643 153.8849 14.26606 C 154.257 14.66569 154.4431 15.22793 154.4431 15.95277 C 154.4431 15.99687 154.4417 16.06302 154.4389 16.15121 L 151.1647 16.15121 C 151.1923 16.63352 151.3287 17.00283 151.574 17.25915 C 151.8193 17.51546 152.1252 17.64362 152.4918 17.64362 C 152.7646 17.64362 152.9975 17.57196 153.1904 17.42865 C 153.3834 17.28533 153.5363 17.05658 153.6493 16.74239 Z M 151.2061 15.53937 L 153.6576 15.53937 C 153.6245 15.17005 153.5308 14.89307 153.3765 14.70841 C 153.1395 14.42178 152.8321 14.27847 152.4546 14.27847 C 152.1128 14.27847 151.8255 14.39284 151.5926 14.6216 C 151.3597 14.85035 151.2309 15.15627 151.2061 15.53937 Z" fill-rule="evenodd" fill="#0000FF" fill-opacity="1" stroke="#404040" stroke-opacity="1" stroke-width="0.1" stroke-linecap="round" stroke-linejoin="round"/>
<path id="path_ceb8dbd0ea5a66a07f54e18f1fd3e615" d="M 158.2175 17.61468 C 157.9419 17.84895 157.6766 18.01431 157.4217 18.11077 C 157.1667 18.20724 156.8932 18.25547 156.6011 18.25547 C 156.1187 18.25547 155.7481 18.13764 155.489 17.902 C 155.2299 17.66636 155.1004 17.36526 155.1004 16.9987 C 155.1004 16.78373 155.1493 16.58736 155.2471 16.40959 C 155.345 16.23183 155.4731 16.0892 155.6316 15.98171 C 155.7901 15.87423 155.9686 15.79292 156.167 15.7378 C 156.313 15.69922 156.5335 15.66201 156.8284 15.62618 C 157.4293 15.55452 157.8716 15.46909 158.1555 15.36987 C 158.1582 15.26789 158.1596 15.20312 158.1596 15.17556 C 158.1596 14.8724 158.0893 14.6588 157.9488 14.53478 C 157.7586 14.36666 157.4761 14.2826 157.1013 14.2826 C 156.7513 14.2826 156.4929 14.34392 156.3261 14.46657 C 156.1594 14.58921 156.0361 14.80625 155.9561 15.11769 L 155.2285 15.01847 C 155.2947 14.70703 155.4035 14.45554 155.5551 14.264 C 155.7067 14.07245 155.9258 13.925 156.2125 13.82164 C 156.4991 13.71829 156.8312 13.66662 157.2088 13.66662 C 157.5836 13.66662 157.8881 13.71071 158.1224 13.79891 C 158.3567 13.8871 158.5289 13.99804 158.6392 14.1317 C 158.7494 14.26537 158.8266 14.43418 158.8707 14.63813 C 158.8955 14.76491 158.9079 14.99366 158.9079 15.32439 L 158.9079 16.31658 C 158.9079 17.00835 158.9237 17.44587 158.9554 17.62915 C 158.9871 17.81243 159.0498 17.98813 159.1435 18.15625 L 158.3663 18.15625 C 158.2892 18.00191 158.2395 17.82139 158.2175 17.61468 Z M 158.1555 15.95277 C 157.8854 16.06302 157.4802 16.15672 156.9401 16.23389 C 156.6341 16.27799 156.4178 16.3276 156.291 16.38272 C 156.1642 16.43784 156.0664 16.51846 155.9975 16.62457 C 155.9286 16.73067 155.8941 16.8485 155.8941 16.97803 C 155.8941 17.17647 155.9692 17.34183 156.1194 17.47412 C 156.2696 17.60641 156.4894 17.67256 156.7788 17.67256 C 157.0655 17.67256 157.3204 17.60986 157.5436 17.48446 C 157.7669 17.35906 157.9309 17.18749 158.0356 16.96976 C 158.1155 16.80164 158.1555 16.5536 158.1555 16.22563 L 158.1555 15.95277 Z" fill-rule="evenodd" fill="#0000FF" fill-opacity="1" stroke="#404040" stroke-opacity="1" stroke-width="0.1" stroke-linecap="round" stroke-linejoin="round"/>
<path id="path_a1d89356b5f07b18a3869fe07d847f2b" d="M 162.9097 18.15625 L 162.9097 17.60228 C 162.6313 18.03774 162.222 18.25547 161.6818 18.25547 C 161.3318 18.25547 161.01 18.15901 160.7165 17.96608 C 160.423 17.77316 160.1956 17.50375 160.0344 17.15787 C 159.8732 16.81198 159.7926 16.41442 159.7926 15.96518 C 159.7926 15.52696 159.8656 15.1294 160.0117 14.77249 C 160.1577 14.41558 160.3768 14.14204 160.669 13.95187 C 160.9611 13.7617 161.2877 13.66662 161.6488 13.66662 C 161.9133 13.66662 162.149 13.72243 162.3557 13.83405 C 162.5624 13.94567 162.7305 14.09105 162.8601 14.2702 L 162.8601 12.09566 L 163.6001 12.09566 L 163.6001 18.15625 L 162.9097 18.15625 Z M 160.5574 15.96518 C 160.5574 16.52741 160.6759 16.94772 160.9129 17.22608 C 161.1499 17.50444 161.4297 17.64362 161.7521 17.64362 C 162.0773 17.64362 162.3536 17.51064 162.581 17.24468 C 162.8084 16.97872 162.9221 16.57289 162.9221 16.02719 C 162.9221 15.42637 162.8063 14.98539 162.5748 14.70428 C 162.3433 14.42316 162.058 14.2826 161.719 14.2826 C 161.3883 14.2826 161.112 14.41765 160.8902 14.68774 C 160.6683 14.95783 160.5574 15.38365 160.5574 15.96518 Z" fill-rule="evenodd" fill="#0000FF" fill-opacity="1" stroke="#404040" stroke-opacity="1" stroke-width="0.1" stroke-linecap="round" stroke-linejoin="round"/>
<path id="path_dbb57e58c62dc1ef2d7e56174b0e3abb" d="M 118.985 27.71842 L 119.3447 25.95729 L 118.646 25.95729 L 118.646 25.34131 L 119.4687 25.34131 L 119.7746 23.84063 L 118.646 23.84063 L 118.646 23.22465 L 119.8986 23.22465 L 120.2583 21.45112 L 120.8784 21.45112 L 120.5187 23.22465 L 121.821 23.22465 L 122.1806 21.45112 L 122.8049 21.45112 L 122.4452 23.22465 L 123.1604 23.22465 L 123.1604 23.84063 L 122.3212 23.84063 L 122.0111 25.34131 L 123.1604 25.34131 L 123.1604 25.95729 L 121.8871 25.95729 L 121.5274 27.71842 L 120.9073 27.71842 L 121.2628 25.95729 L 119.9648 25.95729 L 119.6051 27.71842 L 118.985 27.71842 Z M 120.0888 25.34131 L 121.3869 25.34131 L 121.6969 23.84063 L 120.3947 23.84063 L 120.0888 25.34131 Z" fill-rule="evenodd" fill="#0000FF" fill-opacity="1" stroke="#404040" stroke-opacity="1" stroke-width="0.1" stroke-linecap="round" stroke-linejoin="round"/>
<path id="path_d8115ed52835311a5fce15479ba6a38f" d="M 126.4222 27.61507 L 125.6781 27.61507 L 125.6781 22.87325 C 125.4989 23.04413 125.264 23.21501 124.9732 23.38588 C 124.6824 23.55676 124.4213 23.68492 124.1898 23.77035 L 124.1898 23.05102 C 124.606 22.85534 124.9698 22.61832 125.2812 22.33996 C 125.5926 22.06159 125.8131 21.7915 125.9426 21.52967 L 126.4222 21.52967 L 126.4222 27.61507 Z" fill-rule="evenodd" fill="#0000FF" fill-opacity="1" stroke="#404040" stroke-opacity="1" stroke-width="0.1" stroke-linecap="round" stroke-linejoin="round"/>
<path id="path_4414756f15d0220c4dbfe10a33e59746" d="M 130.5025 27.61507 L 129.7584 27.61507 L 129.7584 22.87325 C 129.5793 23.04413 129.3443 23.21501 129.0535 23.38588 C 128.7628 23.55676 128.5016 23.68492 128.2701 23.77035 L 128.2701 23.05102 C 128.6863 22.85534 129.0501 22.61832 129.3615 22.33996 C 129.673 22.06159 129.8935 21.7915 130.023 21.52967 L 130.5025 21.52967 L 130.5025 27.61507 Z" fill-rule="evenodd" fill="#0000FF" fill-opacity="1" stroke="#404040" stroke-opacity="1" stroke-width="0.1" stroke-linecap="round" stroke-linejoin="round"/>
<path id="path_d46d042490d4a6791f67b82e7466f747" d="M 284.1475 327.3976 L 284.1475 338.931" fill-rule="evenodd" fill="none" fill-opacity="1" stroke="#404040" stroke-opacity="1" stroke-width="0.79375" stroke-linecap="round" stroke-linejoin="round"/>
<path id="path_8f55a097b34d800de01035756a4d1a81" d="M 283.9105 367.4484 L 283.9894 382.6946" fill-rule="evenodd" fill="none" fill-opacity="1" stroke="#404040" stroke-opacity="1" stroke-width="0.9701388" stroke-linecap="round" stroke-linejoin="round"/>
</defs>
<g>
<use xlink:href="#path_4736e40742bf88ae44df0a432e1361b1"/>
</g>
<g>
<use xlink:href="#path_3dd9bae8e0402932bbad829587211a69"/>
</g>
<g>
<use xlink:href="#path_50dabb83adb2d59624a2e0134b1a5513"/>
</g>
<g>
<use xlink:href="#path_5ae77d5f34a064553f4293d8a11d51fb"/>
</g>
<g>
<use xlink:href="#path_e45ddb85bcc81655ab86ce276e9f9ce7"/>
</g>
<g>
<use xlink:href="#path_444eeace8a83f42981c1016a323d6b43"/>
</g>
<g>
<use xlink:href="#path_8f3ff75bd748561eac1246ba92f03759"/>
</g>
<g>
<use xlink:href="#path_2ff6668fe73a3fa875f52f308b69d515"/>
</g>
<g>
<use xlink:href="#path_8fdeb770367c503323b4f14ed3f71877"/>
</g>
<g>
<use xlink:href="#path_51e504e30344447b35c4502ae4dc364b"/>
</g>
<g>
<use xlink:href="#path_8cf2407af79a5f5a7343b7a06db441b5"/>
</g>
<g>
<use xlink:href="#path_5406ab9e4d4e18b47a3b559fe217427a"/>
</g>
<g>
<use xlink:href="#path_7eb3e4d0cee35ac131c5f1210f5e8cf9"/>
</g>
<g>
<use xlink:href="#path_09a0461d5c957b968e6e72da1c79d89f"/>
</g>
<g>
<use xlink:href="#path_12a6bd33bfe272adf4264aabedb0eb45"/>
</g>
<g>
<use xlink:href="#path_43a69533d6660f32ef805e7d491e5214"/>
</g>
<g>
<use xlink:href="#path_78087107ef59863adf1e49c33c6a043c"/>
</g>
<g>
<use xlink:href="#path_f30765a64ea5fe34018bc4ebac2ec15d"/>
</g>
<g>
<g>
<use xlink:href="#path_8f585807240679982f6bd0df0d670f95"/>
</g>
<g>
<use xlink:href="#path_f7e936eec32bcd42f10bf14859c2f860"/>
</g>
<g>
<use xlink:href="#path_12d21dccfe56e40a39081e993f0da93f"/>
</g>
<g>
<use xlink:href="#path_54c26933d175a94ac73604526d0e16c9"/>
</g>
<g>
<use xlink:href="#path_ee9923d9d774549eeffa35059e2a3880"/>
</g>
<g>
<use xlink:href="#path_fb6c6f5e2a3c71cbafb006b7c7990026"/>
</g>
<g>
<use xlink:href="#path_08b16dbb74a8cc7c2fcc74673c056d98"/>
</g>
<g>
<use xlink:href="#path_ceb8dbd0ea5a66a07f54e18f1fd3e615"/>
</g>
<g>
<use xlink:href="#path_a1d89356b5f07b18a3869fe07d847f2b"/>
</g>
<g>
<use xlink:href="#path_dbb57e58c62dc1ef2d7e56174b0e3abb"/>
</g>
<g>
<use xlink:href="#path_d8115ed52835311a5fce15479ba6a38f"/>
</g>
<g>
<use xlink:href="#path_4414756f15d0220c4dbfe10a33e59746"/>
</g>
</g>
<g>
<use xlink:href="#path_d46d042490d4a6791f67b82e7466f747"/>
</g>
<g>
<use xlink:href="#path_8f55a097b34d800de01035756a4d1a81"/>
</g>
</svg>