<?xml version="1.0" encoding="utf-8"?>
<!DOCTYPE svg PUBLIC "-//W3C//DTD SVG 1.1//EN" "http://www.w3.org/Graphics/SVG/1.1/DTD/svg11.dtd">
<!-- exported from Silhouette Studio® Business Edition V4.4.920ssbe -->
<svg version="1.1" xmlns="http://www.w3.org/2000/svg" xmlns:xlink="http://www.w3.org/1999/xlink" width="304.8mm" height="609.6mm" viewBox="0 0 304.8 609.6">
<defs>
<path id="path_e6e2daf9473508d21c473ca3d9481f10" d="M 179.7057 184.2151 L 168.0975 254.69 L 168.0975 254.6901 L 257.9188 212.2301 L 257.9187 212.2301 L 215.4557 283.0432" fill-rule="evenodd" fill="none" fill-opacity="1" stroke="#FF0000" stroke-opacity="1" stroke-width="1.146528" stroke-linecap="round" stroke-linejoin="round"/>
<path id="path_c079c5e75b2ec436036ed5a487fa63ff" d="M 229.6969 292.9726 L 282.7165 271.1211 L 282.7165 271.1211 L 237.8954 319.5322" fill-rule="evenodd" fill="none" fill-opacity="1" stroke="#FF0000" stroke-opacity="1" stroke-width="1.146528" stroke-linecap="round" stroke-linejoin="round"/>
<path id="path_e56cee1079acaac69825dbf7eb3e70a7" d="M 270.1688 29.73413 L 257.048 147.8826 L 257.0479 147.8826 L 269.3692 146.0127" fill-rule="evenodd" fill="none" fill-opacity="1" stroke="#FF0000" stroke-opacity="1" stroke-width="1.146528" stroke-linecap="round" stroke-linejoin="round"/>
<path id="path_05b1e5adfded7e743587bb6354c1e193" d="M 174.7866 153.7999 L 187.2478 153.6294 L 187.2478 153.6294 L 154.9799 39.21796" fill-rule="evenodd" fill="none" fill-opacity="1" stroke="#FF0000" stroke-opacity="1" stroke-width="1.146528" stroke-linecap="round" stroke-linejoin="round"/>
<path id="path_05e7e62248def7da409f00815ecf0154" d="M 223.7286 169.9559 L 218.1436 102.1213" fill-rule="evenodd" fill="none" fill-opacity="1" stroke="#FF0000" stroke-opacity="1" stroke-width="1.146528" stroke-linecap="round" stroke-linejoin="round"/>
<path id="path_7693cb4955baeb7bc53719fb994665b9" d="M 45.24133 133.8379 L 138.0501 134.4275 L 138.0502 134.4275 L 80.5914 165.1202" fill-rule="evenodd" fill="none" fill-opacity="1" stroke="#FF0000" stroke-opacity="1" stroke-width="1.146528" stroke-linecap="round" stroke-linejoin="round"/>
<path id="path_806e620e60467685a33f15fec2ee421d" d="M 149.8098 54.10614 L 34.5629 38.63037" fill-rule="evenodd" fill="none" fill-opacity="1" stroke="#FF0000" stroke-opacity="1" stroke-width="1.146528" stroke-linecap="round" stroke-linejoin="round"/>
<path id="path_428c8fe94d8a8d0f7b8b25f907272698" d="M 142.7498 67.47977 L 31.35934 93.73441 L 31.35934 93.73441 L 137.1127 110.9861 L 137.1127 110.9861 L 142.69 124.0892" fill-rule="evenodd" fill="none" fill-opacity="1" stroke="#FF0000" stroke-opacity="1" stroke-width="1.146528" stroke-linecap="round" stroke-linejoin="round"/>
<path id="path_405f46401afb459bf6529d793eccf4c5" d="M 85.32092 455.184 L 26.85321 424.6208 L 26.85321 424.6208 L 84.13129 427.4133" fill-rule="evenodd" fill="none" fill-opacity="1" stroke="#FF0000" stroke-opacity="1" stroke-width="1.146528" stroke-linecap="round" stroke-linejoin="round"/>
<path id="path_00bab9a707ce4405daaef48e5dec5299" d="M 59.50296 477.5841 L 105.7049 497.7599" fill-rule="evenodd" fill="none" fill-opacity="1" stroke="#FF0000" stroke-opacity="1" stroke-width="1.146528" stroke-linecap="round" stroke-linejoin="round"/>
<path id="path_c32f022a1d7db70bd623b0a68af7b08a" d="M 94.21439 413.2807 L 30.45059 360.8232 L 30.45062 360.8232 L 129.312 370.6793 L 129.312 370.6794 L 94.72733 308.1865" fill-rule="evenodd" fill="none" fill-opacity="1" stroke="#FF0000" stroke-opacity="1" stroke-width="1.146528" stroke-linecap="round" stroke-linejoin="round"/>
<path id="path_678ef1c37cbb511ea6ad45f3d1f4ce7b" d="M 116.6568 452.6884 L 122.0281 502.8166" fill-rule="evenodd" fill="none" fill-opacity="1" stroke="#FF0000" stroke-opacity="1" stroke-width="1.146528" stroke-linecap="round" stroke-linejoin="round"/>
<path id="path_615515736fffe98d8ba5ed97f884c56a" d="M 162.969 454.7082 L 106.3238 401.3384" fill-rule="evenodd" fill="none" fill-opacity="1" stroke="#FF0000" stroke-opacity="1" stroke-width="1.146528" stroke-linecap="round" stroke-linejoin="round"/>
<path id="path_25b77c996b95343834bd729101a1530a" d="M 251.6263 545.7895 L 257.6517 505.719" fill-rule="evenodd" fill="none" fill-opacity="1" stroke="#FF0000" stroke-opacity="1" stroke-width="1.146528" stroke-linecap="round" stroke-linejoin="round"/>
<path id="path_e12aad007a4bcde2e0aaa25c5ee6b4f1" d="M 265.1627 455.8666 L 277.683 405.0056" fill-rule="evenodd" fill="none" fill-opacity="1" stroke="#FF0000" stroke-opacity="1" stroke-width="1.146528" stroke-linecap="round" stroke-linejoin="round"/>
<path id="path_bf2c2f3b3c6ec7322f65e82f53465aac" d="M 45.69525 210.6185 L 138.504 210.0289 L 138.5041 210.0289 L 81.04532 179.3362 L 81.04529 179.3362 L 121.5033 177.0645" fill-rule="evenodd" fill="none" fill-opacity="1" stroke="#FF0000" stroke-opacity="1" stroke-width="1.146528" stroke-linecap="round" stroke-linejoin="round"/>
<path id="path_190ec818ac10ad2f39de9444181f0dd7" d="M 143.2038 276.9766 L 31.81329 250.722 L 31.81329 250.7219 L 137.5667 233.4702" fill-rule="evenodd" fill="none" fill-opacity="1" stroke="#FF0000" stroke-opacity="1" stroke-width="1.146528" stroke-linecap="round" stroke-linejoin="round"/>
<path id="path_79375b93bef8103f3f96d8b7ab5a81be" d="M 35.01678 305.826 L 150.2637 290.3502" fill-rule="evenodd" fill="none" fill-opacity="1" stroke="#FF0000" stroke-opacity="1" stroke-width="1.146528" stroke-linecap="round" stroke-linejoin="round"/>
<path id="path_644e35f3dbb3cf05c61fdf9ab3f476b6" d="M 269.7332 331.733 L 282.7165 270.8844 L 282.7165 270.8845 L 269.909 233.3116 L 269.9091 233.3116 L 215.4558 282.8065 L 215.4558 282.8065 L 168.0974 254.4534 L 168.0975 254.4534 L 219.6208 178.2404 L 219.6208 178.2404 L 257.9188 211.9934" fill-rule="evenodd" fill="none" fill-opacity="1" stroke="#0000FF" stroke-opacity="1" stroke-width="1.146528" stroke-linecap="round" stroke-linejoin="round"/>
<path id="path_8c82edd627d0e7cf347c3aa02766e09a" d="M 219.6208 178.2404 L 179.7057 183.9785" fill-rule="evenodd" fill="none" fill-opacity="1" stroke="#0000FF" stroke-opacity="1" stroke-width="1.146528" stroke-linecap="round" stroke-linejoin="round"/>
<path id="path_a964d8a45ebac743f7c45f564d7f0655" d="M 269.909 233.3116 L 229.6968 292.7359 L 229.6968 292.7359 L 237.8954 319.2956" fill-rule="evenodd" fill="none" fill-opacity="1" stroke="#0000FF" stroke-opacity="1" stroke-width="1.146528" stroke-linecap="round" stroke-linejoin="round"/>
<path id="path_5b422c4f8306115961416621b9497a9f" d="M 172.9886 57.06326 L 190.8041 71.81174 L 190.8042 71.81174 L 187.2479 153.3927" fill-rule="evenodd" fill="none" fill-opacity="1" stroke="#0000FF" stroke-opacity="1" stroke-width="1.146528" stroke-linecap="round" stroke-linejoin="round"/>
<path id="path_9ca7a0e67cb7ff3e864af258ad21f741" d="M 257.0479 147.6459 L 240.1964 67.74518 L 240.1965 67.745 L 218.1437 101.8846" fill-rule="evenodd" fill="none" fill-opacity="1" stroke="#0000FF" stroke-opacity="1" stroke-width="1.146528" stroke-linecap="round" stroke-linejoin="round"/>
<path id="path_2cdfbd2a8c4f2493c12111efc46b323b" d="M 270.1688 29.49762 L 255.36 50.28143" fill-rule="evenodd" fill="none" fill-opacity="1" stroke="#0000FF" stroke-opacity="1" stroke-width="1.146528" stroke-linecap="round" stroke-linejoin="round"/>
<path id="path_259322a62b4848a2049c64d13ef31344" d="M 121.0495 167.1554 L 138.0502 134.1908" fill-rule="evenodd" fill="none" fill-opacity="1" stroke="#0000FF" stroke-opacity="1" stroke-width="1.146528" stroke-linecap="round" stroke-linejoin="round"/>
<path id="path_7fd52f64dfd98fa3a014e1e4a86f0405" d="M 31.35939 93.4978 L 34.56291 38.3938 L 34.56291 38.39374 L 142.7499 67.24307 L 142.7499 67.2431 L 149.8099 53.86954" fill-rule="evenodd" fill="none" fill-opacity="1" stroke="#0000FF" stroke-opacity="1" stroke-width="1.146528" stroke-linecap="round" stroke-linejoin="round"/>
<path id="path_b8731cf995397cf13553b3a127cd2573" d="M 45.24144 133.6012 L 29.41628 110.7495 L 29.4164 110.7495 L 142.6901 123.8526" fill-rule="evenodd" fill="none" fill-opacity="1" stroke="#0000FF" stroke-opacity="1" stroke-width="1.146528" stroke-linecap="round" stroke-linejoin="round"/>
<path id="path_9b81ffb0a805a8c578eb1fab8babda34" d="M 137.1128 110.7496 L 29.4164 110.7496" fill-rule="evenodd" fill="none" fill-opacity="1" stroke="#0000FF" stroke-opacity="1" stroke-width="1.146528" stroke-linecap="round" stroke-linejoin="round"/>
<path id="path_3d8c06f05630552d961d2861326dbcb0" d="M 26.30943 384.6923 L 84.1313 427.1766 L 84.1313 427.1766 L 94.21443 413.044 L 94.21443 413.044 L 26.30946 384.6923 L 26.30946 384.6923 L 26.85323 424.3842 L 26.8532 424.3842 L 59.50298 477.3474" fill-rule="evenodd" fill="none" fill-opacity="1" stroke="#0000FF" stroke-opacity="1" stroke-width="1.146528" stroke-linecap="round" stroke-linejoin="round"/>
<path id="path_e8fc1282f81c711cb75bc69959514d89" d="M 105.7049 497.5232 L 85.32097 454.9473" fill-rule="evenodd" fill="none" fill-opacity="1" stroke="#0000FF" stroke-opacity="1" stroke-width="1.146528" stroke-linecap="round" stroke-linejoin="round"/>
<path id="path_8454134974f4b9a02b3ff540cc72efac" d="M 129.3121 370.4427 L 55.20122 315.939 L 55.20125 315.939 L 30.45076 360.5866" fill-rule="evenodd" fill="none" fill-opacity="1" stroke="#0000FF" stroke-opacity="1" stroke-width="1.146528" stroke-linecap="round" stroke-linejoin="round"/>
<path id="path_964fa2ae6772ca8efd3158b476065e94" d="M 126.3338 542.8715 L 189.0358 541.6075 L 189.0358 541.6075 L 194.4314 289.4809 L 194.4314 289.4809 L 154.0785 378.5422" fill-rule="evenodd" fill="none" fill-opacity="1" stroke="#0000FF" stroke-opacity="1" stroke-width="1.146528" stroke-linecap="round" stroke-linejoin="round"/>
<path id="path_fe7328048ec14adbc6d4ac11a3ecaa00" d="M 218.8064 455.6665 L 230.9373 380.1871" fill-rule="evenodd" fill="none" fill-opacity="1" stroke="#0000FF" stroke-opacity="1" stroke-width="1.146528" stroke-linecap="round" stroke-linejoin="round"/>
<path id="path_9c8345f2604c87e4f89a0831bedb3eb2" d="M 81.04533 179.0997 L 45.69539 210.382" fill-rule="evenodd" fill="none" fill-opacity="1" stroke="#0000FF" stroke-opacity="1" stroke-width="1.146528" stroke-linecap="round" stroke-linejoin="round"/>
<path id="path_49c16905519cc38ad897c7af08d24284" d="M 138.5041 209.7922 L 121.5034 176.8278" fill-rule="evenodd" fill="none" fill-opacity="1" stroke="#0000FF" stroke-opacity="1" stroke-width="1.146528" stroke-linecap="round" stroke-linejoin="round"/>
<path id="path_4ded9cc12c4cc2810db09bf78a0f441b" d="M 143.1441 220.1306 L 29.87025 233.2336 L 29.87022 233.2335 L 31.81337 250.4853" fill-rule="evenodd" fill="none" fill-opacity="1" stroke="#0000FF" stroke-opacity="1" stroke-width="1.146528" stroke-linecap="round" stroke-linejoin="round"/>
<path id="path_5f1ef8119625c631bb0c8a0bf2242798" d="M 35.01686 305.5893 L 143.2039 276.7399 L 143.2039 276.74 L 137.5667 233.2336 L 137.5667 233.2336 L 29.87022 233.2336" fill-rule="evenodd" fill="none" fill-opacity="1" stroke="#0000FF" stroke-opacity="1" stroke-width="1.146528" stroke-linecap="round" stroke-linejoin="round"/>
<path id="path_b6dc25e3efb9c91b1de552595ce73b82" d="M 200.7895 176.6957 L 214.5909 174.7117 L 214.5909 174.7117 L 219.6208 178.4773 L 225.8917 178.0817 L 225.8916 178.0817 L 256.4038 204.9728 L 256.404 204.9728 L 257.919 212.2303 L 257.9189 212.2302 L 269.9092 233.5484 L 269.9092 233.5484 L 275.5481 236.3202 L 275.548 236.3203 L 285.4885 265.4825 L 285.4886 265.4824 L 282.7166 271.1212 L 286.1346 276.3935 L 280.4576 302.9997" fill-rule="evenodd" fill="none" fill-opacity="1" stroke="#414141" stroke-opacity="1" stroke-width="1.146528" stroke-linecap="round" stroke-linejoin="round"/>
<path id="path_1207742cfe733380f314ff025bd60a6f" d="M 279.8451 305.8705 L 275.4453 326.4907 L 275.4452 326.4908 L 269.7332 331.9698 L 269.7332 331.9698 L 232.9809 366.4797 L 232.9808 366.4797 L 237.8954 319.5323 L 237.8954 319.5323 L 232.3397 316.5975 L 226.7621 298.5286 L 229.6969 292.9727 L 229.697 292.9727 L 215.456 283.0433 L 215.4559 283.0433 L 209.3617 284.5731 L 209.3617 284.5731 L 169.6273 260.7844 L 169.6274 260.7844 L 168.0976 254.6902 L 164.4456 249.5246 L 164.4456 249.5246 L 174.346 189.4181 L 174.346 189.418 L 179.7058 184.2153 L 179.7058 184.2154 L 183.4713 179.1853 L 183.4713 179.1853 L 197.8317 177.1209" fill-rule="evenodd" fill="none" fill-opacity="1" stroke="#414141" stroke-opacity="1" stroke-width="1.146528" stroke-linecap="round" stroke-linejoin="round"/>
<path id="path_4017d0bcd1e2e12039a88a7685b44635" d="M 186.567 62.77283 L 190.2151 65.79294 L 190.2151 65.79288 L 190.8043 72.04849 L 218.1438 102.1215 L 216.8225 95.9787 L 216.8224 95.97864 L 228.0141 78.65305 L 228.0142 78.65305 L 240.1967 67.98193 L 255.3601 50.51825 L 254.3199 44.32166 L 254.3198 44.32172 L 263.9723 30.77466 L 263.9723 30.77448 L 270.1689 29.73419 L 270.1689 29.73431 L 269.3695 146.0129 L 269.3694 146.0129 L 265.6434 151.0721 L 265.269 151.1289" fill-rule="evenodd" fill="none" fill-opacity="1" stroke="#414141" stroke-opacity="1" stroke-width="1.146528" stroke-linecap="round" stroke-linejoin="round"/>
<path id="path_dc4de9f6b381ac0489dda22e33a40615" d="M 262.377 151.5678 L 262.1074 151.6088 L 262.1074 151.6088 L 257.0481 147.8828 L 257.0479 147.8828 L 223.7286 169.956 L 223.7288 169.956 L 187.2479 153.6295 L 182.8661 158.1328 L 182.8662 158.1328 L 179.29 158.1818 L 179.29 158.1818 L 174.7867 153.8 L 174.7867 153.8 L 154.9801 39.21802 L 154.98 39.21802 L 172.9887 57.30005 L 179.2444 56.71085 L 179.2443 56.71091 L 184.2812 60.88068" fill-rule="evenodd" fill="none" fill-opacity="1" stroke="#414141" stroke-opacity="1" stroke-width="1.146528" stroke-linecap="round" stroke-linejoin="round"/>
<path id="path_c7beb665852cb6ec314799ef11e4f311" d="M 67.57724 38.58112 L 108.1004 44.02271 L 108.1004 44.02264 L 149.8098 54.10641 L 149.8099 54.10641 L 151.6648 60.10962 L 148.7532 65.62503 L 142.75 67.47998 L 142.7499 67.47998 L 137.1128 110.9863 L 137.1128 110.9864 L 142.9409 113.3343 L 142.9409 113.3343 L 145.0381 118.2612 L 145.0381 118.2613 L 142.6901 124.0893 L 142.6901 124.0893 L 138.0503 134.4276 L 139.9625 140.4128 L 139.9625 140.4128 L 133.7605 152.4384" fill-rule="evenodd" fill="none" fill-opacity="1" stroke="#414141" stroke-opacity="1" stroke-width="1.146528" stroke-linecap="round" stroke-linejoin="round"/>
<path id="path_d92ea583734d6b46605cf92b5004daf6" d="M 132.3705 155.1337 L 127.0348 165.4797 L 127.0348 165.4797 L 121.0495 167.3921 L 121.0495 167.3921 L 80.59146 165.1204 L 80.59149 165.1204 L 45.24152 133.8381 L 45.24152 133.838 L 39.05939 132.7149 L 28.29327 117.1685 L 29.41638 110.9863 L 29.41635 110.9863 L 31.35944 93.73456 L 27.18182 89.04129 L 29.86966 42.80823 L 29.86966 42.80829 L 34.56299 38.63074 L 34.56299 38.63068 L 39.55774 34.81854 L 39.55771 34.81854 L 64.698 38.19446" fill-rule="evenodd" fill="none" fill-opacity="1" stroke="#414141" stroke-opacity="1" stroke-width="1.146528" stroke-linecap="round" stroke-linejoin="round"/>
<path id="path_0c0048fb4fe4166247cf9f84be0f9b4a" d="M 23.08472 388.2435 L 26.30957 384.929 L 26.30951 384.9291 L 30.45071 360.8234 L 30.45074 360.8234 L 29.44247 353.4785 L 29.44244 353.4785 L 49.16135 317.9076 L 49.16135 317.9075 L 55.20129 316.1758 L 94.72745 308.1867 L 94.72742 308.1867 L 101.5223 311.2892 L 101.5223 311.2892 L 113.6377 333.1809" fill-rule="evenodd" fill="none" fill-opacity="1" stroke="#414141" stroke-opacity="1" stroke-width="1.146528" stroke-linecap="round" stroke-linejoin="round"/>
<path id="path_a3d30f3a95cdd2053eb9977160194f96" d="M 115.1075 335.8368 L 131.019 364.5881 L 131.019 364.588 L 129.3122 370.6795 L 129.3122 370.6796 L 94.21451 413.2808 L 94.21457 413.2808 L 95.25085 419.4781 L 95.25082 419.4781 L 90.32864 426.3771 L 90.32861 426.3771 L 84.13138 427.4134 L 85.32095 455.1841 L 85.32104 455.1841 L 91.52441 457.8524 L 107.7938 491.834 L 107.7937 491.834 L 105.705 497.76 L 105.7049 497.76 L 99.85522 500.0536 L 77.10977 490.121" fill-rule="evenodd" fill="none" fill-opacity="1" stroke="#414141" stroke-opacity="1" stroke-width="1.146528" stroke-linecap="round" stroke-linejoin="round"/>
<path id="path_550a2a1166c4dd529fabdd57dcf4e07c" d="M 74.41815 488.9456 L 61.79669 483.434 L 61.79663 483.434 L 59.50302 477.5843 L 52.28357 474.3398 L 52.2836 474.3398 L 25.40274 430.7346 L 25.40271 430.7346 L 26.85327 424.621 L 26.8533 424.621 L 23.08469 420.9543" fill-rule="evenodd" fill="none" fill-opacity="1" stroke="#414141" stroke-opacity="1" stroke-width="1.146528" stroke-linecap="round" stroke-linejoin="round"/>
<path id="path_448fb5ab14307c5f3c0c9dedd31ebd0a" d="M 162.9692 454.7084 L 154.0787 378.7791 L 154.0786 378.7791 L 151.8653 372.8985 L 151.8652 372.8984 L 169.3569 334.2933" fill-rule="evenodd" fill="none" fill-opacity="1" stroke="#414141" stroke-opacity="1" stroke-width="1.146528" stroke-linecap="round" stroke-linejoin="round"/>
<path id="path_e5441b88f152c7f9ecfd4a691022bdab" d="M 170.6055 331.5376 L 187.5804 294.0732 L 187.5804 294.0731 L 194.4315 289.7177 L 194.4315 289.7177 L 230.9372 380.4239 L 230.9373 380.4239 L 234.619 385.5155 L 229.2467 418.9422" fill-rule="evenodd" fill="none" fill-opacity="1" stroke="#414141" stroke-opacity="1" stroke-width="1.146528" stroke-linecap="round" stroke-linejoin="round"/>
<path id="path_d45dcf25bb67d1aa98ac6b3bac9980a9" d="M 228.7765 421.8682 L 224.0326 451.3855" fill-rule="evenodd" fill="none" fill-opacity="1" stroke="#414141" stroke-opacity="1" stroke-width="1.146528" stroke-linecap="round" stroke-linejoin="round"/>
<path id="path_289e6e339d6be3d3e9b3a4486fde0794" d="M 218.8065 455.9034 L 277.6831 405.0057 L 277.6831 405.0058 L 280.9353 410.382 L 271.0427 450.5683 L 271.0427 450.5683 L 265.1627 455.8667 L 265.1626 455.8667 L 257.6517 505.7191 L 257.6519 505.7191 L 260.9599 513.5992 L 260.9598 513.5992 L 256.6807 542.0567 L 256.6806 542.0567 L 251.6264 545.7896 L 189.0358 541.8444 L 189.0359 541.8444 L 181.2228 546.4457 L 181.2227 546.4457 L 160.1917 546.8697" fill-rule="evenodd" fill="none" fill-opacity="1" stroke="#414141" stroke-opacity="1" stroke-width="1.146528" stroke-linecap="round" stroke-linejoin="round"/>
<path id="path_9266111d4b4b4790add993f85e47ec52" d="M 157.2749 546.9285 L 130.8654 547.4608 L 130.8654 547.4608 L 126.3338 543.1083 L 122.0282 502.8167 L 122.0282 502.8167 L 117.0627 498.1769 L 117.0627 498.1769 L 112.7126 457.5797 L 116.6569 452.6886 L 116.6569 452.6886 L 106.3239 401.3386 L 106.3239 401.3386 L 112.6044 401.1516 L 112.6044 401.1516 L 162.1657 447.847" fill-rule="evenodd" fill="none" fill-opacity="1" stroke="#414141" stroke-opacity="1" stroke-width="1.146528" stroke-linecap="round" stroke-linejoin="round"/>
<path id="path_208865886ddb09cabcbc0b26eabc5bdc" d="M 103.2066 173.642 L 116.8185 172.8777 L 116.8184 172.8777 L 121.5034 177.0645 L 121.5034 177.0645 L 127.4887 178.9769 L 140.4164 204.0438 L 140.4164 204.0438 L 138.5042 210.0291 L 143.1441 220.3674 L 137.5667 233.4703 L 142.8763 239.8717 L 142.8763 239.8717 L 147.0391 271.9997 L 143.2039 276.9767 L 143.2039 276.9767 L 150.2638 290.3503 L 150.2638 290.3503 L 108.5543 300.434 L 108.5543 300.4341 L 78.01135 304.5355" fill-rule="evenodd" fill="none" fill-opacity="1" stroke="#414141" stroke-opacity="1" stroke-width="1.146528" stroke-linecap="round" stroke-linejoin="round"/>
<path id="path_0b5dde8556eed9110e0a2cd12ca9ec40" d="M 75.11722 304.9241 L 40.01163 309.6382 L 40.01166 309.6382 L 35.01691 305.8261 L 35.01691 305.8262 L 31.81339 250.7221 L 26.90103 246.8043 L 26.90106 246.8044 L 25.95255 238.3828 L 25.95255 238.3828 L 29.8703 233.4703 L 29.87027 233.4703 L 45.69537 210.6188 L 45.6954 210.6188 L 46.07825 204.3472 L 46.07825 204.3471 L 74.24994 179.417 L 74.24994 179.4171 L 81.04541 179.3363 L 81.04544 179.3363 L 85.23233 174.6513 L 85.23233 174.6514 L 100.2401 173.8087" fill-rule="evenodd" fill="none" fill-opacity="1" stroke="#414141" stroke-opacity="1" stroke-width="1.146528" stroke-linecap="round" stroke-linejoin="round"/>
<path id="path_63320611ada136651a3739709b654525" d="M 22.94471 388.1293 L 22.94471 420.8167" fill-rule="evenodd" fill="none" fill-opacity="1" stroke="#414141" stroke-opacity="1" stroke-width="1.146528" stroke-linecap="round" stroke-linejoin="round"/>
<path id="path_d970803af55454d869cb0c4288177597" d="M 81.46318 8.515854 L 82.26518 8.515854 L 82.26518 12.01744 C 82.26518 12.62653 82.19629 13.11022 82.05849 13.46851 C 81.92068 13.82679 81.67195 14.11825 81.31229 14.34287 C 80.95261 14.56749 80.48064 14.6798 79.89635 14.6798 C 79.3286 14.6798 78.86421 14.58196 78.50316 14.38628 C 78.14212 14.1906 77.88443 13.90741 77.73009 13.53672 C 77.57574 13.16603 77.49858 12.6596 77.49858 12.01744 L 77.49858 8.515854 L 78.3006 8.515854 L 78.3006 12.0133 C 78.3006 12.53971 78.34952 12.92763 78.44736 13.17705 C 78.5452 13.42648 78.71332 13.61871 78.95172 13.75376 C 79.19011 13.88881 79.48157 13.95633 79.82608 13.95633 C 80.41586 13.95633 80.83617 13.82266 81.08698 13.55532 C 81.33777 13.28798 81.46317 12.77398 81.46317 12.0133 L 81.46318 8.515854 Z" fill-rule="evenodd" fill="#0000FF" fill-opacity="1" stroke="#404040" stroke-opacity="1" stroke-width="0.1" stroke-linecap="round" stroke-linejoin="round"/>
<path id="path_929bedc22ea58c5335db8852126d81a1" d="M 83.50542 16.25902 L 83.50542 10.18603 L 84.18341 10.18603 L 84.18341 10.75654 C 84.34326 10.53329 84.52377 10.36586 84.72498 10.25424 C 84.92616 10.14262 85.17007 10.08681 85.45671 10.08681 C 85.83153 10.08681 86.16226 10.18328 86.44888 10.3762 C 86.73552 10.56912 86.95187 10.84129 87.09793 11.19268 C 87.244 11.54408 87.31705 11.92924 87.31705 12.34817 C 87.31705 12.7974 87.23643 13.20186 87.0752 13.56152 C 86.91397 13.92119 86.6797 14.1968 86.37241 14.38834 C 86.06511 14.57989 85.74196 14.67566 85.40295 14.67566 C 85.15492 14.67566 84.93236 14.6233 84.73531 14.51857 C 84.53825 14.41384 84.37633 14.28155 84.24954 14.12169 L 84.24954 16.25902 L 83.50542 16.25902 Z M 84.17928 12.40604 C 84.17928 12.97104 84.29364 13.38858 84.5224 13.65867 C 84.75116 13.92877 85.02814 14.06382 85.35335 14.06382 C 85.68408 14.06382 85.96727 13.92395 86.20291 13.64421 C 86.43855 13.36446 86.55637 12.93107 86.55637 12.34403 C 86.55637 11.78455 86.4413 11.36563 86.21118 11.08727 C 85.98105 10.8089 85.70613 10.66972 85.38643 10.66972 C 85.06947 10.66972 84.78905 10.81786 84.54514 11.11414 C 84.30122 11.41041 84.17928 11.84105 84.17928 12.40604 Z" fill-rule="evenodd" fill="#0000FF" fill-opacity="1" stroke="#404040" stroke-opacity="1" stroke-width="0.1" stroke-linecap="round" stroke-linejoin="round"/>
<path id="path_f31fe7ac76f564fb076b6bb7de864cd5" d="M 88.21414 16.25902 L 88.21414 10.18603 L 88.89214 10.18603 L 88.89214 10.75654 C 89.05199 10.53329 89.2325 10.36586 89.4337 10.25424 C 89.63489 10.14262 89.8788 10.08681 90.16544 10.08681 C 90.54025 10.08681 90.87099 10.18328 91.15761 10.3762 C 91.44424 10.56912 91.66058 10.84129 91.80666 11.19268 C 91.95273 11.54408 92.02577 11.92924 92.02577 12.34817 C 92.02577 12.7974 91.94516 13.20186 91.78392 13.56152 C 91.6227 13.92119 91.38843 14.1968 91.08113 14.38834 C 90.77383 14.57989 90.45068 14.67566 90.11168 14.67566 C 89.86365 14.67566 89.64108 14.6233 89.44403 14.51857 C 89.24698 14.41384 89.08505 14.28155 88.95827 14.12169 L 88.95827 16.25902 L 88.21414 16.25902 Z M 88.888 12.40604 C 88.888 12.97104 89.00238 13.38858 89.23114 13.65867 C 89.4599 13.92877 89.73686 14.06382 90.06207 14.06382 C 90.39281 14.06382 90.67599 13.92395 90.91164 13.64421 C 91.14728 13.36446 91.26509 12.93107 91.26509 12.34403 C 91.26509 11.78455 91.15002 11.36563 90.91991 11.08727 C 90.68977 10.8089 90.41486 10.66972 90.09515 10.66972 C 89.7782 10.66972 89.49777 10.81786 89.25386 11.11414 C 89.00995 11.41041 88.888 11.84105 88.888 12.40604 Z" fill-rule="evenodd" fill="#0000FF" fill-opacity="1" stroke="#404040" stroke-opacity="1" stroke-width="0.1" stroke-linecap="round" stroke-linejoin="round"/>
<path id="path_520faa1631d0956a20ffb229558d980b" d="M 95.92836 13.16258 L 96.6973 13.25767 C 96.57603 13.70691 96.35141 14.05555 96.02345 14.30359 C 95.69548 14.55164 95.27655 14.67566 94.76668 14.67566 C 94.12453 14.67566 93.61534 14.47791 93.23914 14.08242 C 92.86293 13.68692 92.67484 13.13227 92.67484 12.41845 C 92.67484 11.67982 92.86501 11.10656 93.24533 10.69866 C 93.62567 10.29076 94.119 10.08681 94.72534 10.08681 C 95.31238 10.08681 95.79193 10.28663 96.164 10.68626 C 96.53607 11.08589 96.72211 11.64812 96.72211 12.37297 C 96.72211 12.41707 96.72073 12.48321 96.71797 12.57141 L 93.44377 12.57141 C 93.47133 13.05372 93.60776 13.42303 93.85304 13.67934 C 94.09834 13.93566 94.40427 14.06382 94.77081 14.06382 C 95.04367 14.06382 95.27655 13.99216 95.46948 13.84884 C 95.6624 13.70553 95.81537 13.47677 95.92836 13.16258 Z M 93.48511 11.95956 L 95.93663 11.95956 C 95.90356 11.59025 95.80984 11.31326 95.65552 11.1286 C 95.41849 10.84197 95.11119 10.69866 94.73361 10.69866 C 94.39186 10.69866 94.10454 10.81304 93.87166 11.04179 C 93.63876 11.27054 93.50992 11.57647 93.48511 11.95956 Z" fill-rule="evenodd" fill="#0000FF" fill-opacity="1" stroke="#404040" stroke-opacity="1" stroke-width="0.1" stroke-linecap="round" stroke-linejoin="round"/>
<path id="path_d54bc4fe2cded8aa9d377cd4970b73fa" d="M 97.62332 14.57644 L 97.62332 10.18603 L 98.29305 10.18603 L 98.29305 10.85162 C 98.46391 10.54019 98.6217 10.33486 98.7664 10.23564 C 98.91109 10.13642 99.07025 10.08681 99.24388 10.08681 C 99.49469 10.08681 99.74962 10.16674 100.0087 10.32659 L 99.75238 11.01698 C 99.57048 10.9095 99.38858 10.85575 99.20668 10.85575 C 99.04407 10.85575 98.89799 10.90467 98.76846 11.00252 C 98.63893 11.10036 98.5466 11.23609 98.49149 11.40973 C 98.4088 11.67431 98.36746 11.96369 98.36746 12.27789 L 98.36746 14.57644 L 97.62332 14.57644 Z" fill-rule="evenodd" fill="#0000FF" fill-opacity="1" stroke="#404040" stroke-opacity="1" stroke-width="0.1" stroke-linecap="round" stroke-linejoin="round"/>
<path id="path_75ba26d71e7483887c996d53f3d6d682" d="M 102.9232 14.57644 L 102.9232 8.515854 L 103.7253 8.515854 L 103.7253 11.00458 L 106.8754 11.00458 L 106.8754 8.515854 L 107.6774 8.515854 L 107.6774 14.57644 L 106.8754 14.57644 L 106.8754 11.71978 L 103.7253 11.71978 L 103.7253 14.57644 L 102.9232 14.57644 Z" fill-rule="evenodd" fill="#0000FF" fill-opacity="1" stroke="#404040" stroke-opacity="1" stroke-width="0.1" stroke-linecap="round" stroke-linejoin="round"/>
<path id="path_29def539f4f3717ecd90be7ca7a3df5d" d="M 111.9231 13.16258 L 112.6921 13.25767 C 112.5708 13.70691 112.3462 14.05555 112.0182 14.30359 C 111.6903 14.55164 111.2713 14.67566 110.7615 14.67566 C 110.1193 14.67566 109.6101 14.47791 109.2339 14.08242 C 108.8577 13.68692 108.6696 13.13227 108.6696 12.41845 C 108.6696 11.67982 108.8598 11.10656 109.2401 10.69866 C 109.6205 10.29076 110.1138 10.08681 110.7201 10.08681 C 111.3072 10.08681 111.7867 10.28663 112.1588 10.68626 C 112.5309 11.08589 112.7169 11.64812 112.7169 12.37297 C 112.7169 12.41707 112.7155 12.48321 112.7128 12.57141 L 109.4386 12.57141 C 109.4661 13.05372 109.6025 13.42303 109.8478 13.67934 C 110.0931 13.93566 110.399 14.06382 110.7656 14.06382 C 111.0385 14.06382 111.2713 13.99216 111.4643 13.84884 C 111.6572 13.70553 111.8102 13.47677 111.9231 13.16258 Z M 109.4799 11.95956 L 111.9314 11.95956 C 111.8984 11.59025 111.8046 11.31326 111.6503 11.1286 C 111.4133 10.84197 111.106 10.69866 110.7284 10.69866 C 110.3866 10.69866 110.0993 10.81304 109.8664 11.04179 C 109.6335 11.27054 109.5047 11.57647 109.4799 11.95956 Z" fill-rule="evenodd" fill="#0000FF" fill-opacity="1" stroke="#404040" stroke-opacity="1" stroke-width="0.1" stroke-linecap="round" stroke-linejoin="round"/>
<path id="path_ea079f5a53d773c9a2a74bd441c9513b" d="M 116.4913 14.03488 C 116.2157 14.26914 115.9505 14.43451 115.6955 14.53097 C 115.4406 14.62743 115.167 14.67566 114.8749 14.67566 C 114.3926 14.67566 114.0219 14.55784 113.7628 14.3222 C 113.5038 14.08655 113.3742 13.78545 113.3742 13.4189 C 113.3742 13.20392 113.4231 13.00755 113.521 12.82979 C 113.6188 12.65202 113.747 12.5094 113.9055 12.40191 C 114.0639 12.29442 114.2424 12.21312 114.4408 12.158 C 114.5869 12.11941 114.8074 12.0822 115.1023 12.04638 C 115.7031 11.97472 116.1454 11.88928 116.4293 11.79006 C 116.4321 11.68809 116.4334 11.62332 116.4334 11.59576 C 116.4334 11.29259 116.3632 11.079 116.2226 10.95497 C 116.0324 10.78685 115.7499 10.70279 115.3751 10.70279 C 115.0251 10.70279 114.7667 10.76412 114.6 10.88676 C 114.4332 11.00941 114.3099 11.22645 114.23 11.53788 L 113.5024 11.43866 C 113.5685 11.12723 113.6774 10.87574 113.829 10.68419 C 113.9806 10.49264 114.1997 10.34519 114.4863 10.24184 C 114.7729 10.13849 115.105 10.08681 115.4826 10.08681 C 115.8574 10.08681 116.162 10.13091 116.3962 10.2191 C 116.6305 10.3073 116.8028 10.41823 116.913 10.5519 C 117.0232 10.68557 117.1004 10.85438 117.1445 11.05833 C 117.1693 11.1851 117.1817 11.41386 117.1817 11.74459 L 117.1817 12.73677 C 117.1817 13.42854 117.1976 13.86607 117.2293 14.04935 C 117.261 14.23263 117.3237 14.40833 117.4174 14.57644 L 116.6402 14.57644 C 116.563 14.42211 116.5134 14.24158 116.4913 14.03488 Z M 116.4293 12.37297 C 116.1592 12.48321 115.7541 12.57692 115.2139 12.65409 C 114.908 12.69818 114.6916 12.7478 114.5648 12.80292 C 114.4381 12.85804 114.3402 12.93865 114.2713 13.04476 C 114.2024 13.15087 114.168 13.26869 114.168 13.39823 C 114.168 13.59666 114.2431 13.76203 114.3933 13.89432 C 114.5435 14.02661 114.7633 14.09275 115.0527 14.09275 C 115.3393 14.09275 115.5942 14.03005 115.8175 13.90465 C 116.0407 13.77925 116.2047 13.60769 116.3094 13.38996 C 116.3893 13.22184 116.4293 12.97379 116.4293 12.64582 L 116.4293 12.37297 Z" fill-rule="evenodd" fill="#0000FF" fill-opacity="1" stroke="#404040" stroke-opacity="1" stroke-width="0.1" stroke-linecap="round" stroke-linejoin="round"/>
<path id="path_ffedb33888260e10ba5cf612517c6f11" d="M 121.1835 14.57644 L 121.1835 14.02248 C 120.9052 14.45793 120.4959 14.67566 119.9557 14.67566 C 119.6057 14.67566 119.2839 14.5792 118.9904 14.38628 C 118.6968 14.19335 118.4695 13.92395 118.3082 13.57806 C 118.147 13.23217 118.0664 12.83461 118.0664 12.38537 C 118.0664 11.94716 118.1394 11.54959 118.2855 11.19268 C 118.4316 10.83577 118.6507 10.56223 118.9428 10.37207 C 119.235 10.1819 119.5616 10.08681 119.9226 10.08681 C 120.1872 10.08681 120.4228 10.14262 120.6295 10.25424 C 120.8362 10.36586 121.0044 10.51125 121.1339 10.69039 L 121.1339 8.515854 L 121.8739 8.515854 L 121.8739 14.57644 L 121.1835 14.57644 Z M 118.8312 12.38537 C 118.8312 12.94761 118.9497 13.36791 119.1867 13.64627 C 119.4238 13.92463 119.7035 14.06382 120.026 14.06382 C 120.3512 14.06382 120.6275 13.93084 120.8548 13.66488 C 121.0822 13.39891 121.1959 12.99308 121.1959 12.44738 C 121.1959 11.84656 121.0801 11.40559 120.8486 11.12447 C 120.6171 10.84335 120.3319 10.70279 119.9929 10.70279 C 119.6622 10.70279 119.3859 10.83784 119.164 11.10793 C 118.9421 11.37803 118.8312 11.80384 118.8312 12.38537 Z" fill-rule="evenodd" fill="#0000FF" fill-opacity="1" stroke="#404040" stroke-opacity="1" stroke-width="0.1" stroke-linecap="round" stroke-linejoin="round"/>
<path id="path_8095ad180af4ff4fa15b99461db0aaa6" d="M 77.2588 24.13861 L 77.61847 22.37749 L 76.91982 22.37749 L 76.91982 21.76151 L 77.74249 21.76151 L 78.04842 20.26083 L 76.91982 20.26083 L 76.91982 19.64485 L 78.17244 19.64485 L 78.5321 17.87132 L 79.15222 17.87132 L 78.79256 19.64485 L 80.09479 19.64485 L 80.45445 17.87132 L 81.0787 17.87132 L 80.71904 19.64485 L 81.43423 19.64485 L 81.43423 20.26083 L 80.59502 20.26083 L 80.28496 21.76151 L 81.43423 21.76151 L 81.43423 22.37749 L 80.16093 22.37749 L 79.80127 24.13861 L 79.18115 24.13861 L 79.53668 22.37749 L 78.23859 22.37749 L 77.87892 24.13861 L 77.2588 24.13861 Z M 78.36261 21.76151 L 79.66071 21.76151 L 79.97076 20.26083 L 78.66853 20.26083 L 78.36261 21.76151 Z" fill-rule="evenodd" fill="#0000FF" fill-opacity="1" stroke="#404040" stroke-opacity="1" stroke-width="0.1" stroke-linecap="round" stroke-linejoin="round"/>
<path id="path_ad39277b730cd5772bce60c98e645de1" d="M 85.80397 23.32006 L 85.80397 24.03526 L 81.79803 24.03526 C 81.79253 23.85612 81.82146 23.68386 81.88484 23.5185 C 81.98682 23.24565 82.15012 22.97693 82.37474 22.71235 C 82.59935 22.44777 82.92389 22.14185 83.34831 21.79458 C 84.00702 21.25439 84.45212 20.82651 84.68362 20.51094 C 84.91513 20.19537 85.03088 19.89703 85.03088 19.61591 C 85.03088 19.32101 84.92548 19.07228 84.71463 18.86971 C 84.5038 18.66714 84.22888 18.56585 83.88988 18.56585 C 83.53159 18.56585 83.24496 18.67334 83.02998 18.88831 C 82.81502 19.10328 82.70615 19.40094 82.7034 19.78127 L 81.93858 19.70273 C 81.99095 19.13222 82.18802 18.69745 82.52977 18.39842 C 82.87152 18.09938 83.3304 17.94987 83.90642 17.94987 C 84.48795 17.94987 84.94821 18.1111 85.2872 18.43356 C 85.62621 18.75602 85.7957 19.15565 85.7957 19.63245 C 85.7957 19.87498 85.74609 20.11338 85.64687 20.34764 C 85.54765 20.58191 85.38298 20.82858 85.15285 21.08765 C 84.92271 21.34672 84.54031 21.70225 84.00563 22.15425 C 83.55916 22.52907 83.27252 22.78332 83.14575 22.91699 C 83.01897 23.05066 82.91423 23.18502 82.83156 23.32006 L 85.80397 23.32006 Z" fill-rule="evenodd" fill="#0000FF" fill-opacity="1" stroke="#404040" stroke-opacity="1" stroke-width="0.1" stroke-linecap="round" stroke-linejoin="round"/>
</defs>
<g>
<use xlink:href="#path_e6e2daf9473508d21c473ca3d9481f10"/>
</g>
<g>
<use xlink:href="#path_c079c5e75b2ec436036ed5a487fa63ff"/>
</g>
<g>
<use xlink:href="#path_e56cee1079acaac69825dbf7eb3e70a7"/>
</g>
<g>
<use xlink:href="#path_05b1e5adfded7e743587bb6354c1e193"/>
</g>
<g>
<use xlink:href="#path_05e7e62248def7da409f00815ecf0154"/>
</g>
<g>
<use xlink:href="#path_7693cb4955baeb7bc53719fb994665b9"/>
</g>
<g>
<use xlink:href="#path_806e620e60467685a33f15fec2ee421d"/>
</g>
<g>
<use xlink:href="#path_428c8fe94d8a8d0f7b8b25f907272698"/>
</g>
<g>
<use xlink:href="#path_405f46401afb459bf6529d793eccf4c5"/>
</g>
<g>
<use xlink:href="#path_00bab9a707ce4405daaef48e5dec5299"/>
</g>
<g>
<use xlink:href="#path_c32f022a1d7db70bd623b0a68af7b08a"/>
</g>
<g>
<use xlink:href="#path_678ef1c37cbb511ea6ad45f3d1f4ce7b"/>
</g>
<g>
<use xlink:href="#path_615515736fffe98d8ba5ed97f884c56a"/>
</g>
<g>
<use xlink:href="#path_25b77c996b95343834bd729101a1530a"/>
</g>
<g>
<use xlink:href="#path_e12aad007a4bcde2e0aaa25c5ee6b4f1"/>
</g>
<g>
<use xlink:href="#path_bf2c2f3b3c6ec7322f65e82f53465aac"/>
</g>
<g>
<use xlink:href="#path_190ec818ac10ad2f39de9444181f0dd7"/>
</g>
<g>
<use xlink:href="#path_79375b93bef8103f3f96d8b7ab5a81be"/>
</g>
<g>
<use xlink:href="#path_644e35f3dbb3cf05c61fdf9ab3f476b6"/>
</g>
<g>
<use xlink:href="#path_8c82edd627d0e7cf347c3aa02766e09a"/>
</g>
<g>
<use xlink:href="#path_a964d8a45ebac743f7c45f564d7f0655"/>
</g>
<g>
<use xlink:href="#path_5b422c4f8306115961416621b9497a9f"/>
</g>
<g>
<use xlink:href="#path_9ca7a0e67cb7ff3e864af258ad21f741"/>
</g>
<g>
<use xlink:href="#path_2cdfbd2a8c4f2493c12111efc46b323b"/>
</g>
<g>
<use xlink:href="#path_259322a62b4848a2049c64d13ef31344"/>
</g>
<g>
<use xlink:href="#path_7fd52f64dfd98fa3a014e1e4a86f0405"/>
</g>
<g>
<use xlink:href="#path_b8731cf995397cf13553b3a127cd2573"/>
</g>
<g>
<use xlink:href="#path_9b81ffb0a805a8c578eb1fab8babda34"/>
</g>
<g>
<use xlink:href="#path_3d8c06f05630552d961d2861326dbcb0"/>
</g>
<g>
<use xlink:href="#path_e8fc1282f81c711cb75bc69959514d89"/>
</g>
<g>
<use xlink:href="#path_8454134974f4b9a02b3ff540cc72efac"/>
</g>
<g>
<use xlink:href="#path_964fa2ae6772ca8efd3158b476065e94"/>
</g>
<g>
<use xlink:href="#path_fe7328048ec14adbc6d4ac11a3ecaa00"/>
</g>
<g>
<use xlink:href="#path_9c8345f2604c87e4f89a0831bedb3eb2"/>
</g>
<g>
<use xlink:href="#path_49c16905519cc38ad897c7af08d24284"/>
</g>
<g>
<use xlink:href="#path_4ded9cc12c4cc2810db09bf78a0f441b"/>
</g>
<g>
<use xlink:href="#path_5f1ef8119625c631bb0c8a0bf2242798"/>
</g>
<g>
<use xlink:href="#path_b6dc25e3efb9c91b1de552595ce73b82"/>
</g>
<g>
<use xlink:href="#path_1207742cfe733380f314ff025bd60a6f"/>
</g>
<g>
<use xlink:href="#path_4017d0bcd1e2e12039a88a7685b44635"/>
</g>
<g>
<use xlink:href="#path_dc4de9f6b381ac0489dda22e33a40615"/>
</g>
<g>
<use xlink:href="#path_c7beb665852cb6ec314799ef11e4f311"/>
</g>
<g>
<use xlink:href="#path_d92ea583734d6b46605cf92b5004daf6"/>
</g>
<g>
<use xlink:href="#path_0c0048fb4fe4166247cf9f84be0f9b4a"/>
</g>
<g>
<use xlink:href="#path_a3d30f3a95cdd2053eb9977160194f96"/>
</g>
<g>
<use xlink:href="#path_550a2a1166c4dd529fabdd57dcf4e07c"/>
</g>
<g>
<use xlink:href="#path_448fb5ab14307c5f3c0c9dedd31ebd0a"/>
</g>
<g>
<use xlink:href="#path_e5441b88f152c7f9ecfd4a691022bdab"/>
</g>
<g>
<use xlink:href="#path_d45dcf25bb67d1aa98ac6b3bac9980a9"/>
</g>
<g>
<use xlink:href="#path_289e6e339d6be3d3e9b3a4486fde0794"/>
</g>
<g>
<use xlink:href="#path_9266111d4b4b4790add993f85e47ec52"/>
</g>
<g>
<use xlink:href="#path_208865886ddb09cabcbc0b26eabc5bdc"/>
</g>
<g>
<use xlink:href="#path_0b5dde8556eed9110e0a2cd12ca9ec40"/>
</g>
<g>
<use xlink:href="#path_63320611ada136651a3739709b654525"/>
</g>
<g>
<g>
<use xlink:href="#path_d970803af55454d869cb0c4288177597"/>
</g>
<g>
<use xlink:href="#path_929bedc22ea58c5335db8852126d81a1"/>
</g>
<g>
<use xlink:href="#path_f31fe7ac76f564fb076b6bb7de864cd5"/>
</g>
<g>
<use xlink:href="#path_520faa1631d0956a20ffb229558d980b"/>
</g>
<g>
<use xlink:href="#path_d54bc4fe2cded8aa9d377cd4970b73fa"/>
</g>
<g>
<use xlink:href="#path_75ba26d71e7483887c996d53f3d6d682"/>
</g>
<g>
<use xlink:href="#path_29def539f4f3717ecd90be7ca7a3df5d"/>
</g>
<g>
<use xlink:href="#path_ea079f5a53d773c9a2a74bd441c9513b"/>
</g>
<g>
<use xlink:href="#path_ffedb33888260e10ba5cf612517c6f11"/>
</g>
<g>
<use xlink:href="#path_8095ad180af4ff4fa15b99461db0aaa6"/>
</g>
<g>
<use xlink:href="#path_ad39277b730cd5772bce60c98e645de1"/>
</g>
</g>
</svg>