<?xml version="1.0" encoding="utf-8"?>
<!DOCTYPE svg PUBLIC "-//W3C//DTD SVG 1.1//EN" "http://www.w3.org/Graphics/SVG/1.1/DTD/svg11.dtd">
<!-- exported from Silhouette Studio® Business Edition V4.4.920ssbe -->
<svg version="1.1" xmlns="http://www.w3.org/2000/svg" xmlns:xlink="http://www.w3.org/1999/xlink" width="304.8mm" height="609.6mm" viewBox="0 0 304.8 609.6">
<defs>
<path id="path_dc55ddce370fe0a5ef064b25ca8b91f9" d="M 193.7337 135.8341 L 144.7648 138.8823 L 144.7648 138.8823 L 205.3405 96.62637 L 205.3405 96.62637 L 280.1791 124.6714 L 280.1791 124.6714 L 232.2098 130.4142 L 232.2098 130.4142 L 240.224 168.8498 L 240.2242 168.8498 L 268.5978 216.2476 L 268.5977 216.2476 L 257.2118 238.1849 L 257.2119 238.185 L 206.154 259.0413 L 206.154 259.0413 L 254.3425 278.1955 M 268.5977 216.2476 L 228.389 192.6504 M 35.2677 444.8033 L 35.60608 466.9709 M 152.012 329.9344 L 96.86487 330.7582 L 96.86487 330.7582 L 77.79193 315.0387 L 77.79187 315.0388 L 85.31842 260.3124 L 85.31842 260.3124 L 77.62714 221.8109 L 77.62714 221.8109 L 31.24493 235.3286 L 31.24487 235.3286 L 89.10394 180.1953 L 89.10382 180.1953 L 161.3947 195.3284 L 161.3947 195.3284 L 115.149 211.7169 M 77.79193 315.0387 L 105.535 277.5701 M 219.095 53.8714 L 197.6664 48.18524 M 270.9606 415.0245 L 273.2283 370.5921 L 273.2283 370.5921 L 272.5979 321.0926 M 232.1161 374.6176 L 219.7681 421.045 M 199.7697 560.9171 L 228.9304 530.1068 L 228.9304 530.1068 L 269.8044 518.7516 M 228.9304 530.1068 L 247.6708 561.2335 M 222.2994 469.3687 L 207.4623 433.8206 L 207.4623 433.8206 L 191.346 470.8538 M 105.5141 494.7947 L 121.9066 463.2621 L 121.9066 463.2621 L 85.31946 476.3452 L 85.31952 476.3452 L 99.22546 508.6526 L 99.2254 508.6526 L 84.84235 542.0032 L 84.84229 542.0032 L 73.43219 572.0757 M 123.7447 529.5487 L 113.2702 516.8776 M 84.84241 542.0032 L 37.62646 487.8608 M 114.2963 246.1452 L 116.7037 265.1145 M 181.4058 460.476 L 196.5813 414.8944 L 196.5813 414.8943 L 220.5408 368.9057 M 164.4332 388.9539 L 141.9287 427.3326 M 224.6602 306.1681 L 192.1423 347.9319 M 117.8586 68.89255 L 80.96582 38.09351 L 80.96576 38.09344 L 55.14679 121.0262 L 55.14673 121.0262 L 72.92035 157.2932 L 72.92041 157.2931 L 86.13574 121.1108 L 86.13574 121.1109 L 80.96582 38.09351 L 80.96582 38.09344 L 29.5863 103.5056 M 61.17053 351.461 L 72.58057 381.5337 L 72.58063 381.5336 L 86.96375 414.8842 L 86.96375 414.8841 L 73.05786 447.1915 L 73.05786 447.1915 L 109.645 460.2747 L 109.6449 460.2747 L 93.25244 428.7421 M 101.0086 406.6591 L 111.483 393.9881 M 25.36475 435.6759 L 72.58069 381.5336 M 201.7487 152.1683 L 199.3414 171.1376" fill-rule="evenodd" fill="none" fill-opacity="1" stroke="#FF0000" stroke-opacity="1" stroke-width="1.058333" stroke-linecap="round" stroke-linejoin="round"/>
<path id="path_aa7a9f437d5728f38248405ffdbf3480" d="M 206.1541 259.0413 L 204.2571 223.3086 L 204.257 223.3086 L 257.212 238.1849 L 257.212 238.1849 L 227.5043 199.877 L 227.5043 199.877 L 228.3891 192.6504 M 204.2568 223.3086 L 158.5587 252.5089 M 227.5044 199.877 L 268.5978 216.2476 M 144.7648 138.8824 L 144.7648 38.67316 L 144.7648 38.67316 L 205.3405 96.6264 L 205.3405 96.6264 L 252.5875 86.27811 L 252.5875 86.27817 L 280.1793 124.6715 L 280.1794 124.6715 L 273.9116 164.9361 L 273.9114 164.9361 L 240.2241 168.8498 M 232.2099 130.4143 L 273.9115 164.9361 M 77.62701 221.8109 L 52.79236 269.9152 L 52.79254 269.9152 L 85.31854 260.3124 L 85.31854 260.3124 L 105.535 277.5701 L 105.535 277.5701 L 109.1813 283.8718 L 109.1813 283.8718 L 96.86493 330.7583 L 96.86499 330.7583 L 139.7524 296.3171 L 139.7524 296.3172 L 152.0121 329.9344 M 193.239 305.2703 L 139.7524 296.3171 M 109.1813 283.8718 L 77.79193 315.0387 M 89.104 180.1953 L 33.98334 141.8971 L 33.98328 141.8971 L 41.58124 189.1928 L 41.58136 189.1928 L 89.10406 180.1953 L 89.104 180.1953 Z M 237.347 323.0264 L 273.2285 370.5922 M 232.1163 374.6176 L 270.9608 415.0246 M 217.4772 426.1852 L 222.2994 469.3687 L 222.2995 469.3687 L 269.8046 518.7516 L 269.8046 518.7516 L 247.6709 561.2335 M 228.9305 530.1068 L 178.3542 495.8265 L 178.3544 495.8265 L 199.7698 560.9171 L 199.7698 560.9171 L 156.3613 542.1805 M 191.3461 470.8538 L 222.2994 469.3687 M 100.6198 500.592 L 85.31958 476.3452 L 85.31952 476.3452 L 105.5143 494.7947 M 142.0583 547.8686 L 145.6106 515.053 M 113.2702 516.8776 L 106.9436 540.255 L 106.9435 540.255 L 88.28436 570.7424 M 84.84253 542.0032 L 37.62659 569.5551 L 37.62646 569.5551 L 37.62646 487.8608 L 37.62653 487.8608 L 99.22552 508.6526 L 99.22552 508.6526 L 106.9436 540.255 L 106.9436 540.255 L 105.3129 514.7715 M 133.077 496.0916 L 121.9066 463.2621 L 121.9067 463.2621 L 113.4682 495.2386 M 137.5809 496.4098 L 121.9066 463.2621 L 121.9067 463.2621 L 127.4237 496.1866 M 120.9132 496.007 L 121.9068 463.2621 M 130.9351 235.1168 L 114.2964 246.1452 L 114.2964 246.1451 L 114.2964 272.7259 M 115.1382 269.1068 L 114.2964 246.1452 L 114.2964 246.1452 L 132.1448 251.1906 M 124.007 257.9872 L 114.2964 246.1452 M 220.541 368.9057 L 164.4334 388.9539 M 141.9288 427.3327 L 196.5814 414.8944 M 83.27014 164.4681 L 86.1358 121.1108 L 86.1358 121.1109 L 55.14691 121.0262 M 33.11017 42.50836 L 29.5863 103.5057 M 93.25262 428.7421 L 73.05786 447.1916 L 73.0578 447.1916 L 88.35803 422.9447 M 133.3489 408.4837 L 129.7967 375.6682 M 76.02271 352.7943 L 94.68182 383.2817 L 94.68176 383.2817 L 101.0085 406.6591 M 93.05109 408.7652 L 94.68182 383.2817 L 94.68188 383.2817 L 86.96381 414.8842 L 86.96381 414.8842 L 25.36481 435.6759 L 25.36475 435.6759 L 25.36475 353.9818 L 25.36487 353.9818 L 72.58081 381.5337 M 125.3192 427.127 L 109.645 460.2747 L 109.645 460.2747 L 101.2065 428.2981 M 120.8155 427.4451 L 109.645 460.2747 L 109.645 460.2747 L 108.6515 427.5298 M 109.645 460.2747 L 115.162 427.3502 M 215.9802 182.166 L 199.3415 171.1376 L 199.3415 171.1376 L 200.1833 148.1761 M 217.1899 166.0923 L 199.3414 171.1376 L 199.3415 171.1376 L 209.0521 159.2956" fill-rule="evenodd" fill="none" fill-opacity="1" stroke="#0000FF" stroke-opacity="1" stroke-width="1.058333" stroke-linecap="round" stroke-linejoin="round"/>
<path id="path_74194af1d8126e46bdb39d71c3272db7" d="M 179.6343 233.7139 L 196.899 222.682 L 204.2569 223.3087 L 227.5043 199.8771 L 223.4902 195.7182 L 228.3892 192.6503 L 228.389 192.6504 L 240.2239 168.8499 L 231.8217 150.5485 L 232.2099 130.4143 L 193.7335 135.8342 L 193.7335 135.8342 L 189.5316 140.5941 L 189.5316 140.5941 L 152.1522 142.9208 L 144.7648 138.8823 L 144.7648 138.8824 L 140.2751 134.3926 L 140.2751 90.10226" fill-rule="evenodd" fill="none" fill-opacity="1" stroke="#414141" stroke-opacity="1" stroke-width="1.058333" stroke-linecap="round" stroke-linejoin="round"/>
<path id="path_c97cb54d2cf98b86e56527dfd22adc5c" d="M 140.2751 87.15997 L 140.2751 45.11584 L 140.2751 45.11578 L 144.7648 38.67316 L 144.7648 38.67328 L 151.1126 38.53271 L 151.1126 38.53265 L 205.1998 90.27853 L 205.3405 96.62637 L 205.3405 96.6264 L 241.0405 39.78864 L 241.0406 39.78839 L 252.5876 86.27805 L 252.5875 86.27814 L 258.8532 87.30383 L 258.8535 87.30377 L 270 102.8141" fill-rule="evenodd" fill="none" fill-opacity="1" stroke="#414141" stroke-opacity="1" stroke-width="1.058333" stroke-linecap="round" stroke-linejoin="round"/>
<path id="path_2c6dbdc138f12a10c25afdd4252a7b6b" d="M 271.6501 105.1102 L 281.2048 118.4054 L 281.2048 118.4054 L 280.1792 124.6714 L 280.1792 124.6715 L 283.925 129.7982 L 283.9247 129.7982 L 279.0381 161.1904 L 273.9114 164.9361 L 273.9113 164.936 L 268.5977 216.2476 L 268.5978 216.2476 L 270.5145 222.3008 L 270.5145 222.3008 L 263.2651 236.2684 L 263.2651 236.2684 L 257.212 238.1849 L 257.2119 238.1849 L 254.3425 278.1955 L 248.1816 280.5781 L 248.1816 280.5781 L 230.1505 273.411" fill-rule="evenodd" fill="none" fill-opacity="1" stroke="#414141" stroke-opacity="1" stroke-width="1.058333" stroke-linecap="round" stroke-linejoin="round"/>
<path id="path_113c245e6e5eddd8dbf2830dec41e615" d="M 228.6456 272.8129 L 208.6677 264.8719 L 208.6677 264.8719 L 206.1541 259.0413 L 158.559 252.5089 L 159.9246 246.3082 L 159.9246 246.3082 L 177.4638 235.1009" fill-rule="evenodd" fill="none" fill-opacity="1" stroke="#414141" stroke-opacity="1" stroke-width="1.058333" stroke-linecap="round" stroke-linejoin="round"/>
<path id="path_9bee88246c1d8ba14426eb9335e1ce64" d="M 30.91699 453.9472 L 30.84686 449.3611 L 30.84711 449.3611 L 35.2677 444.8033 L 67.1897 460.8855 L 35.60608 466.9709 L 35.60608 466.9709 L 31.04852 462.5504 L 31.04822 462.5504 L 30.96277 456.9455" fill-rule="evenodd" fill="none" fill-opacity="1" stroke="#414141" stroke-opacity="1" stroke-width="1.058333" stroke-linecap="round" stroke-linejoin="round"/>
<path id="path_e349fe7fa2690b72b44ea8a02ad92446" d="M 62.28375 156.0934 L 87.9787 173.9465 L 89.1037 180.1953 L 89.10406 180.1954 L 122.1189 103.1369 L 122.1189 103.1369 L 161.3948 195.3284 L 161.3949 195.3284 L 156.1813 201.9393 L 156.1812 201.9393 L 141.6321 207.0952" fill-rule="evenodd" fill="none" fill-opacity="1" stroke="#414141" stroke-opacity="1" stroke-width="1.058333" stroke-linecap="round" stroke-linejoin="round"/>
<path id="path_5bfa2c5da29589d29b5f1e173debbd7a" d="M 139.1055 207.9906 L 120.8806 214.4492 L 115.1492 211.7169 L 115.1493 211.7169 L 77.6272 221.8108 L 77.62714 221.8109 L 85.87531 240.1823 L 85.31848 260.3124 L 85.31848 260.3124 L 98.34155 265.5265 L 98.34155 265.5266 L 105.535 277.5701 L 105.5351 277.5701 L 111.2443 278.4725 L 111.2443 278.4725 L 109.1812 283.872 L 109.1812 283.8717 L 139.7521 296.3172 L 139.7521 296.3172 L 146.2759 292.8571 L 146.2759 292.8571 L 166.7281 296.2807" fill-rule="evenodd" fill="none" fill-opacity="1" stroke="#414141" stroke-opacity="1" stroke-width="1.058333" stroke-linecap="round" stroke-linejoin="round"/>
<path id="path_f396826d0e9029fd5ae9db1b2a9ebef0" d="M 169.6351 296.7672 L 189.5519 300.1011 L 189.5519 300.1011 L 193.239 305.2705 L 152.0121 329.9344 L 152.0121 329.9346 L 115.1863 366.4432 L 115.1864 366.443 L 96.86481 330.7584 L 90.54486 331.3676 L 90.54492 331.3676 L 78.401 321.3589 L 77.7915 315.0388 L 77.79199 315.0388 L 52.79248 269.9151 L 31.24469 235.3286 L 41.58118 189.1928 L 41.58118 189.1929 L 36.43628 185.4721 L 34.00305 170.3261" fill-rule="evenodd" fill="none" fill-opacity="1" stroke="#414141" stroke-opacity="1" stroke-width="1.058333" stroke-linecap="round" stroke-linejoin="round"/>
<path id="path_4f88f2208f1fd4b1f722b84b32769f11" d="M 33.54663 167.4851 L 30.26251 147.042 L 33.98334 141.8971 L 40.34436 140.8496 L 40.34436 140.8497 L 59.79602 154.365" fill-rule="evenodd" fill="none" fill-opacity="1" stroke="#414141" stroke-opacity="1" stroke-width="1.058333" stroke-linecap="round" stroke-linejoin="round"/>
<path id="path_d2c42b36376441e303e741755af70692" d="M 210.1743 46.85931 L 215.9069 48.38049 L 215.907 48.38049 L 219.095 53.87146 L 219.095 53.87152 L 205.5564 83.04788 L 205.5564 83.04782 L 197.6664 48.1853 L 197.6664 48.18518 L 203.1576 44.99719 L 203.1576 44.99744 L 207.3048 46.09784" fill-rule="evenodd" fill="none" fill-opacity="1" stroke="#414141" stroke-opacity="1" stroke-width="1.058333" stroke-linecap="round" stroke-linejoin="round"/>
<path id="path_fa429477dc0217ea6f3946d251fcbf89" d="M 277.3636 342.7449 L 277.6605 366.0456 L 277.6606 366.0458 L 273.2284 370.5922 L 273.2284 370.5922 L 277.4835 375.3049 L 275.6733 410.7695 L 270.9607 415.0246 L 219.7684 421.045 L 216.7858 414.7916 L 221.5085 397.0343" fill-rule="evenodd" fill="none" fill-opacity="1" stroke="#414141" stroke-opacity="1" stroke-width="1.058333" stroke-linecap="round" stroke-linejoin="round"/>
<path id="path_02583b75efdc817f04db36d548a3f6ed" d="M 222.1773 394.5199 L 226.6235 377.8026 L 226.6234 377.8026 L 232.116 374.6177 L 232.116 374.6177 L 237.3467 323.0265 L 237.347 323.0265 L 268.3561 268.3326 L 268.3558 268.3326 L 272.598 321.0926 L 277.1444 325.5248 L 277.1442 325.5248 L 277.3262 339.8185" fill-rule="evenodd" fill="none" fill-opacity="1" stroke="#414141" stroke-opacity="1" stroke-width="1.058333" stroke-linecap="round" stroke-linejoin="round"/>
<path id="path_f801d2a8940bcc1336336160f63454a8" d="M 173.9824 554.6767 L 160.7504 548.9653 L 160.7503 548.9653 L 156.3611 542.1805 L 156.3611 542.1806 L 142.4462 471.359 L 178.3541 495.8265 L 178.3541 495.8265 L 186.2119 495.7288 L 186.2122 495.7288 L 203.2096 507.2495" fill-rule="evenodd" fill="none" fill-opacity="1" stroke="#414141" stroke-opacity="1" stroke-width="1.058333" stroke-linecap="round" stroke-linejoin="round"/>
<path id="path_efcaa7c7de613404a7bcb38ba5344dd2" d="M 205.666 508.9145 L 227.733 523.8713 L 228.9305 530.1068 L 222.2992 469.3687 L 222.2992 469.3687 L 218.0302 474.0683 L 196.0458 475.1233 L 191.3461 470.8538 L 189.0209 464.9454 L 194.5037 452.3465" fill-rule="evenodd" fill="none" fill-opacity="1" stroke="#414141" stroke-opacity="1" stroke-width="1.058333" stroke-linecap="round" stroke-linejoin="round"/>
<path id="path_ce940ae4d2c1279aa9beb0595b75740f" d="M 195.6361 449.7444 L 201.5542 436.1458 L 201.5541 436.1458 L 207.4622 433.8206 L 207.4625 433.8206 L 217.4771 426.1854 L 217.4771 426.1854 L 273.5568 471.6212 L 269.8046 518.7516 L 271.7119 524.8077 L 271.7117 524.8077 L 263.859 539.8799" fill-rule="evenodd" fill="none" fill-opacity="1" stroke="#414141" stroke-opacity="1" stroke-width="1.058333" stroke-linecap="round" stroke-linejoin="round"/>
<path id="path_c6d4453e556fddf38592f8c3299c860b" d="M 262.7233 542.0598 L 253.7271 559.3265 L 247.6709 561.2335 L 247.6708 561.2335 L 199.7697 560.9171 L 199.7698 560.9171 L 193.8683 563.2599 L 193.8683 563.2599 L 175.9345 555.5193" fill-rule="evenodd" fill="none" fill-opacity="1" stroke="#414141" stroke-opacity="1" stroke-width="1.058333" stroke-linecap="round" stroke-linejoin="round"/>
<path id="path_545010cef7f7fc8133173c56db959993" d="M 33.13654 528.4627 L 33.13654 492.3506 L 37.62628 487.8608 L 37.62628 487.8608 L 85.31946 476.3452 L 85.31952 476.3452 L 88.03516 470.6061 L 88.03516 470.6061 L 116.1675 460.5463 L 121.9068 463.2622 L 141.0065 497.5656 L 137.581 496.4098 L 133.0771 496.0916 L 133.0768 496.0916 L 127.4236 496.1867 L 127.4238 496.1867 L 120.9131 496.007 L 113.468 495.2386 L 113.468 495.2386 L 105.5141 494.7948 L 100.6195 500.5921 L 100.6196 500.5921 L 99.22546 508.6526 L 105.3127 514.7715 L 105.3127 514.7715 L 113.2703 516.8776 L 113.27 516.8776 L 119.5912 517.4775 L 119.5913 517.4775 L 124.3447 523.2279 L 123.7449 529.5488 L 123.7448 529.5488 L 138.3897 515.9845 L 138.3897 515.9845 L 145.6106 515.053 L 149.5909 520.0001 L 149.5912 520.0001 L 148.4551 530.4936" fill-rule="evenodd" fill="none" fill-opacity="1" stroke="#414141" stroke-opacity="1" stroke-width="1.058333" stroke-linecap="round" stroke-linejoin="round"/>
<path id="path_9ab5074b5baad40c5bf8080743033d1c" d="M 148.2026 532.8265 L 147.0052 543.8881 L 142.0584 547.8688 L 88.28424 570.7424 L 88.28424 570.7424 L 87.49329 563.4341 L 100.7704 541.7407 L 106.9436 540.255 L 106.9435 540.255 L 84.84216 542.0032 L 84.84222 542.0032 L 87.44751 547.7936 L 87.4472 547.7936 L 79.69464 568.2266 L 79.6947 568.2266 L 73.43219 572.0757 L 37.62628 569.5551 L 37.62628 569.5551 L 33.13654 564.1375 L 33.13654 531.4401" fill-rule="evenodd" fill="none" fill-opacity="1" stroke="#414141" stroke-opacity="1" stroke-width="1.058333" stroke-linecap="round" stroke-linejoin="round"/>
<path id="path_373311e8ec833176604f5cb905865cca" d="M 120.5772 236.5957 L 124.7122 233.8549 L 124.7121 233.8551 L 130.9351 235.1168 L 130.9352 235.1168 L 139.2399 249.3047 L 139.2399 249.3048 L 132.1448 251.1906 L 127.666 254.6039 L 127.666 254.6039 L 124.007 257.9872 L 124.007 257.9872 L 120.3024 261.4003 L 120.3026 261.4004 L 116.7039 265.1144 L 116.7037 265.1146 L 115.1381 269.1068 L 115.1381 269.1068 L 114.2964 272.726 L 114.2961 272.726 L 109.8066 268.2362 L 109.8067 268.2362 L 109.8067 250.6349 L 109.8066 250.635 L 114.2961 246.1452 L 115.558 239.9225 L 115.558 239.9225 L 118.0624 238.2626" fill-rule="evenodd" fill="none" fill-opacity="1" stroke="#414141" stroke-opacity="1" stroke-width="1.058333" stroke-linecap="round" stroke-linejoin="round"/>
<path id="path_e395e00c39b69125793cb05366e7eae9" d="M 211.2768 396.4042 L 202.7189 412.8307 L 202.719 412.8307 L 196.5816 414.8944 L 196.5812 414.8944 L 199.4229 420.5725 L 199.4229 420.5725 L 187.3325 456.8877 L 187.3325 456.8878 L 181.4058 460.476 L 141.9289 427.3327 L 141.9289 427.3327 L 140.3267 421.1887 L 140.3267 421.1887 L 147.3976 409.1302" fill-rule="evenodd" fill="none" fill-opacity="1" stroke="#414141" stroke-opacity="1" stroke-width="1.058333" stroke-linecap="round" stroke-linejoin="round"/>
<path id="path_77e1608f45a15b0ff79a7922525d5397" d="M 148.9072 406.5557 L 158.2893 390.5559 L 158.2895 390.5559 L 164.4332 388.9539 L 164.4332 388.9539 L 192.1424 347.9319 L 192.1424 347.9318 L 192.4915 340.1755 L 192.4915 340.1755 L 218.3593 306.9523 L 218.3593 306.9523 L 224.6603 306.168 L 224.6603 306.1681 L 220.5406 368.9058 L 220.541 368.9058 L 222.448 374.9618 L 222.4479 374.9618 L 212.5945 393.8749" fill-rule="evenodd" fill="none" fill-opacity="1" stroke="#414141" stroke-opacity="1" stroke-width="1.058333" stroke-linecap="round" stroke-linejoin="round"/>
<path id="path_dfed25a3690f93d3dc15d80eddbbacd3" d="M 27.26648 65.81638 L 28.36902 46.73157 L 28.36896 46.73157 L 33.11017 42.5083 L 33.11011 42.50848 L 80.96564 38.09351 L 80.96564 38.09351 L 87.28973 37.52423 L 87.28979 37.52417 L 100.4958 48.54907" fill-rule="evenodd" fill="none" fill-opacity="1" stroke="#414141" stroke-opacity="1" stroke-width="1.058333" stroke-linecap="round" stroke-linejoin="round"/>
<path id="path_aed73eda6806363d84b0f9a9059f43ca" d="M 102.7889 50.46344 L 117.2892 62.56879 L 117.2892 62.56879 L 117.8585 68.89258 L 117.8588 68.89258 L 86.1358 121.111 L 86.1358 121.1108 L 90.31946 125.8868 L 90.31946 125.8869 L 89.302 141.2811" fill-rule="evenodd" fill="none" fill-opacity="1" stroke="#414141" stroke-opacity="1" stroke-width="1.058333" stroke-linecap="round" stroke-linejoin="round"/>
<path id="path_1db0b1e9f627844a0c846e3de3208b2e" d="M 89.11884 144.0515 L 88.05017 160.2234 L 83.2702 164.468 L 83.26984 164.468 L 72.92047 157.2931 L 66.91315 155.2373 L 61.9422 145.0943" fill-rule="evenodd" fill="none" fill-opacity="1" stroke="#414141" stroke-opacity="1" stroke-width="1.058333" stroke-linecap="round" stroke-linejoin="round"/>
<path id="path_0643c9d517733d05ca3876e81a7fd92b" d="M 60.6416 142.4403 L 53.091 127.0335 L 53.091 127.0335 L 55.14667 121.0262 L 55.14703 121.0262 L 29.58643 103.5056 L 29.58636 103.5056 L 25.43964 97.43881 L 27.0943 68.79712" fill-rule="evenodd" fill="none" fill-opacity="1" stroke="#414141" stroke-opacity="1" stroke-width="1.058333" stroke-linecap="round" stroke-linejoin="round"/>
<path id="path_2ef11fd9900268b506741ccd4646d90b" d="M 136.2429 393.4991 L 137.3295 403.537 L 133.349 408.4838 L 126.1281 407.5524 L 111.4828 393.9881 L 111.4828 393.988 L 112.083 400.3092 L 112.0831 400.3092 L 107.3297 406.0593 L 107.3297 406.0593 L 101.0087 406.6591 L 101.0084 406.6591 L 93.05115 408.7652 L 86.96381 414.8842 L 86.96381 414.8842 L 88.35791 422.9447 L 88.35785 422.9447 L 93.2525 428.7421 L 101.2064 428.2982 L 108.6512 427.5298 L 108.6516 427.5298 L 115.162 427.3502 L 115.1617 427.3502 L 120.8151 427.4452 L 120.8151 427.4452 L 125.3192 427.127 L 128.7447 425.9712 L 128.7448 425.9712 L 109.6451 460.2747 L 109.6448 460.2747 L 103.9058 462.9905 L 75.7735 452.9309 L 73.05792 447.1917 L 73.0578 447.1917 L 25.36462 435.6759 L 20.87488 431.1863 L 20.87488 431.1863 L 20.87488 400.4611" fill-rule="evenodd" fill="none" fill-opacity="1" stroke="#414141" stroke-opacity="1" stroke-width="1.058333" stroke-linecap="round" stroke-linejoin="round"/>
<path id="path_a687c94dbf60730cb600c6112349b3ee" d="M 20.87488 397.4738 L 20.87488 359.3992 L 25.36462 353.9818 L 61.17059 351.4611 L 67.43298 355.3103 L 67.43298 355.3104 L 75.18549 375.7433 L 75.18561 375.7433 L 72.58057 381.5336 L 72.58057 381.5336 L 94.68195 383.2818 L 94.68195 383.2818 L 88.50873 381.796 L 75.23163 360.1027 L 75.23163 360.1027 L 76.02264 352.7943 L 129.7966 375.6683 L 129.7968 375.6683 L 134.7435 379.6486 L 135.9424 390.7243" fill-rule="evenodd" fill="none" fill-opacity="1" stroke="#414141" stroke-opacity="1" stroke-width="1.058333" stroke-linecap="round" stroke-linejoin="round"/>
<path id="path_eda8a039a6760c2af0d952b89ca42f3b" d="M 203.6321 179.368 L 200.6032 177.3604 L 200.6032 177.3604 L 199.3413 171.1377 L 199.3414 171.1375 L 199.3414 144.5568 L 199.3413 144.5568 L 200.1833 148.1761 L 201.7487 152.1683 L 205.3475 155.8824 L 205.3475 155.8824 L 209.0521 159.2955 L 209.0521 159.2955 L 212.7112 162.6788 L 212.7112 162.6789 L 217.1898 166.0922 L 217.1898 166.0922 L 224.285 167.9781 L 224.285 167.978 L 215.98 182.1659 L 215.98 182.166 L 209.7573 183.4278 L 206.0243 180.9536" fill-rule="evenodd" fill="none" fill-opacity="1" stroke="#414141" stroke-opacity="1" stroke-width="1.058333" stroke-linecap="round" stroke-linejoin="round"/>
<path id="path_a4109f05408ce656d8e3d07b6b506972" d="M 181.5602 9.482042 L 182.3622 9.482042 L 182.3622 12.98363 C 182.3622 13.59272 182.2933 14.07641 182.1555 14.43469 C 182.0177 14.79298 181.7689 15.08444 181.4093 15.30906 C 181.0496 15.53368 180.5776 15.64598 179.9933 15.64598 C 179.4256 15.64598 178.9612 15.54814 178.6001 15.35246 C 178.2391 15.15678 177.9814 14.8736 177.8271 14.50291 C 177.6727 14.13222 177.5956 13.62579 177.5956 12.98363 L 177.5956 9.482042 L 178.3976 9.482042 L 178.3976 12.97949 C 178.3976 13.5059 178.4465 13.89382 178.5443 14.14324 C 178.6422 14.39266 178.8103 14.5849 179.0487 14.71995 C 179.2871 14.85499 179.5785 14.92252 179.923 14.92252 C 180.5128 14.92252 180.9331 14.78885 181.1839 14.52151 C 181.4347 14.25417 181.5602 13.74016 181.5602 12.97949 L 181.5602 9.482042 Z" fill-rule="evenodd" fill="#0000FF" fill-opacity="1" stroke="#404040" stroke-opacity="1" stroke-width="0.1" stroke-linecap="round" stroke-linejoin="round"/>
<path id="path_b52458b68a4491bd814fcb29f0c3fec7" d="M 183.6024 17.22521 L 183.6024 11.15222 L 184.2804 11.15222 L 184.2804 11.72272 C 184.4402 11.49948 184.6207 11.33205 184.8219 11.22043 C 185.0231 11.10881 185.267 11.053 185.5537 11.053 C 185.9285 11.053 186.2592 11.14946 186.5458 11.34239 C 186.8325 11.53531 187.0488 11.80747 187.1949 12.15887 C 187.3409 12.51027 187.414 12.89543 187.414 13.31435 C 187.414 13.76359 187.3334 14.16805 187.1721 14.52771 C 187.0109 14.88738 186.7767 15.16298 186.4694 15.35453 C 186.1621 15.54608 185.8389 15.64185 185.4999 15.64185 C 185.2519 15.64185 185.0293 15.58949 184.8323 15.48476 C 184.6352 15.38003 184.4733 15.24773 184.3465 15.08788 L 184.3465 17.22521 L 183.6024 17.22521 Z M 184.2762 13.37223 C 184.2762 13.93722 184.3906 14.35477 184.6194 14.62486 C 184.8481 14.89496 185.1251 15.03 185.4503 15.03 C 185.781 15.03 186.0642 14.89013 186.2999 14.61039 C 186.5355 14.33065 186.6533 13.89726 186.6533 13.31022 C 186.6533 12.75074 186.5383 12.33182 186.3081 12.05345 C 186.078 11.77509 185.8031 11.63591 185.4834 11.63591 C 185.1664 11.63591 184.886 11.78405 184.6421 12.08032 C 184.3982 12.3766 184.2762 12.80724 184.2762 13.37223 Z" fill-rule="evenodd" fill="#0000FF" fill-opacity="1" stroke="#404040" stroke-opacity="1" stroke-width="0.1" stroke-linecap="round" stroke-linejoin="round"/>
<path id="path_73ce46b3584db9730e515cd58a40d0b1" d="M 188.3111 17.22521 L 188.3111 11.15222 L 188.9891 11.15222 L 188.9891 11.72272 C 189.149 11.49948 189.3295 11.33205 189.5307 11.22043 C 189.7319 11.10881 189.9758 11.053 190.2624 11.053 C 190.6372 11.053 190.9679 11.14946 191.2546 11.34239 C 191.5412 11.53531 191.7576 11.80747 191.9036 12.15887 C 192.0497 12.51027 192.1227 12.89543 192.1227 13.31435 C 192.1227 13.76359 192.0421 14.16805 191.8809 14.52771 C 191.7197 14.88738 191.4854 15.16298 191.1781 15.35453 C 190.8708 15.54608 190.5476 15.64185 190.2086 15.64185 C 189.9606 15.64185 189.7381 15.58949 189.541 15.48476 C 189.3439 15.38003 189.182 15.24773 189.0552 15.08788 L 189.0552 17.22521 L 188.3111 17.22521 Z M 188.985 13.37223 C 188.985 13.93722 189.0993 14.35477 189.3281 14.62486 C 189.5569 14.89496 189.8338 15.03 190.159 15.03 C 190.4898 15.03 190.773 14.89013 191.0086 14.61039 C 191.2442 14.33065 191.362 13.89726 191.362 13.31022 C 191.362 12.75074 191.247 12.33182 191.0169 12.05345 C 190.7867 11.77509 190.5118 11.63591 190.1921 11.63591 C 189.8752 11.63591 189.5947 11.78405 189.3508 12.08032 C 189.1069 12.3766 188.985 12.80724 188.985 13.37223 Z" fill-rule="evenodd" fill="#0000FF" fill-opacity="1" stroke="#404040" stroke-opacity="1" stroke-width="0.1" stroke-linecap="round" stroke-linejoin="round"/>
<path id="path_98b54e0929660b1a666ee6dfbc1555a8" d="M 196.0253 14.12877 L 196.7943 14.22386 C 196.673 14.67309 196.4484 15.02174 196.1204 15.26978 C 195.7925 15.51783 195.3735 15.64185 194.8636 15.64185 C 194.2215 15.64185 193.7123 15.4441 193.3361 15.04861 C 192.9599 14.65311 192.7718 14.09845 192.7718 13.38463 C 192.7718 12.64601 192.962 12.07274 193.3423 11.66484 C 193.7226 11.25695 194.216 11.053 194.8223 11.053 C 195.4093 11.053 195.8889 11.25281 196.261 11.65244 C 196.633 12.05207 196.8191 12.61431 196.8191 13.33916 C 196.8191 13.38326 196.8177 13.4494 196.8149 13.53759 L 193.5407 13.53759 C 193.5683 14.01991 193.7047 14.38922 193.95 14.64553 C 194.1953 14.90185 194.5012 15.03 194.8678 15.03 C 195.1406 15.03 195.3735 14.95835 195.5665 14.81503 C 195.7594 14.67172 195.9123 14.44296 196.0253 14.12877 Z M 193.5821 12.92575 L 196.0336 12.92575 C 196.0005 12.55643 195.9068 12.27945 195.7525 12.09479 C 195.5155 11.80816 195.2082 11.66484 194.8306 11.66484 C 194.4888 11.66484 194.2015 11.77922 193.9686 12.00798 C 193.7357 12.23673 193.6069 12.54265 193.5821 12.92575 Z" fill-rule="evenodd" fill="#0000FF" fill-opacity="1" stroke="#404040" stroke-opacity="1" stroke-width="0.1" stroke-linecap="round" stroke-linejoin="round"/>
<path id="path_2b664b043c01583fbe48eb033971b882" d="M 197.7203 15.54263 L 197.7203 11.15222 L 198.39 11.15222 L 198.39 11.81781 C 198.5609 11.50637 198.7187 11.30105 198.8634 11.20183 C 199.0081 11.10261 199.1672 11.053 199.3409 11.053 C 199.5917 11.053 199.8466 11.13293 200.1057 11.29278 L 199.8493 11.98317 C 199.6674 11.87569 199.4855 11.82194 199.3036 11.82194 C 199.141 11.82194 198.995 11.87086 198.8654 11.9687 C 198.7359 12.06654 198.6436 12.20228 198.5885 12.37591 C 198.5058 12.6405 198.4644 12.92988 198.4644 13.24407 L 198.4644 15.54263 L 197.7203 15.54263 Z" fill-rule="evenodd" fill="#0000FF" fill-opacity="1" stroke="#404040" stroke-opacity="1" stroke-width="0.1" stroke-linecap="round" stroke-linejoin="round"/>
<path id="path_0d6a41bf11c10ad5f2c82582e8b35e87" d="M 203.0202 15.54263 L 203.0202 9.482042 L 203.8222 9.482042 L 203.8222 11.97077 L 206.9724 11.97077 L 206.9724 9.482042 L 207.7744 9.482042 L 207.7744 15.54263 L 206.9724 15.54263 L 206.9724 12.68597 L 203.8222 12.68597 L 203.8222 15.54263 L 203.0202 15.54263 Z" fill-rule="evenodd" fill="#0000FF" fill-opacity="1" stroke="#404040" stroke-opacity="1" stroke-width="0.1" stroke-linecap="round" stroke-linejoin="round"/>
<path id="path_81c5cd3ff83630fa3264ca3ec8a1430f" d="M 212.0201 14.12877 L 212.789 14.22386 C 212.6678 14.67309 212.4432 15.02174 212.1152 15.26978 C 211.7872 15.51783 211.3683 15.64185 210.8584 15.64185 C 210.2163 15.64185 209.7071 15.4441 209.3309 15.04861 C 208.9547 14.65311 208.7666 14.09845 208.7666 13.38463 C 208.7666 12.64601 208.9568 12.07274 209.3371 11.66484 C 209.7174 11.25695 210.2108 11.053 210.8171 11.053 C 211.4041 11.053 211.8837 11.25281 212.2558 11.65244 C 212.6278 12.05207 212.8139 12.61431 212.8139 13.33916 C 212.8139 13.38326 212.8125 13.4494 212.8097 13.53759 L 209.5355 13.53759 C 209.5631 14.01991 209.6995 14.38922 209.9448 14.64553 C 210.1901 14.90185 210.496 15.03 210.8626 15.03 C 211.1354 15.03 211.3683 14.95835 211.5612 14.81503 C 211.7542 14.67172 211.9071 14.44296 212.0201 14.12877 Z M 209.5769 12.92575 L 212.0284 12.92575 C 211.9953 12.55643 211.9016 12.27945 211.7473 12.09479 C 211.5103 11.80816 211.2029 11.66484 210.8254 11.66484 C 210.4836 11.66484 210.1963 11.77922 209.9634 12.00798 C 209.7305 12.23673 209.6017 12.54265 209.5769 12.92575 Z" fill-rule="evenodd" fill="#0000FF" fill-opacity="1" stroke="#404040" stroke-opacity="1" stroke-width="0.1" stroke-linecap="round" stroke-linejoin="round"/>
<path id="path_ea42cfa48ea992bf29e8b7330a022b6c" d="M 216.5883 15.00106 C 216.3127 15.23533 216.0474 15.40069 215.7925 15.49716 C 215.5376 15.59362 215.264 15.64185 214.9719 15.64185 C 214.4895 15.64185 214.1189 15.52403 213.8598 15.28839 C 213.6007 15.05274 213.4712 14.75164 213.4712 14.38508 C 213.4712 14.17011 213.5201 13.97374 213.618 13.79598 C 213.7158 13.61821 213.8439 13.47558 214.0024 13.3681 C 214.1609 13.26061 214.3394 13.1793 214.5378 13.12419 C 214.6839 13.0856 214.9043 13.04839 215.1992 13.01256 C 215.8001 12.94091 216.2424 12.85547 216.5263 12.75625 C 216.529 12.65428 216.5304 12.58951 216.5304 12.56194 C 216.5304 12.25878 216.4601 12.04518 216.3196 11.92116 C 216.1294 11.75304 215.8469 11.66898 215.4721 11.66898 C 215.1221 11.66898 214.8637 11.7303 214.6969 11.85295 C 214.5302 11.97559 214.4069 12.19263 214.327 12.50407 L 213.5993 12.40485 C 213.6655 12.09342 213.7744 11.84192 213.9259 11.65038 C 214.0775 11.45883 214.2966 11.31138 214.5833 11.20803 C 214.8699 11.10468 215.202 11.053 215.5796 11.053 C 215.9544 11.053 216.2589 11.0971 216.4932 11.18529 C 216.7275 11.27349 216.8997 11.38442 217.01 11.51809 C 217.1202 11.65176 217.1974 11.82056 217.2415 12.02451 C 217.2663 12.15129 217.2787 12.38005 217.2787 12.71078 L 217.2787 13.70296 C 217.2787 14.39473 217.2945 14.83225 217.3262 15.01553 C 217.3579 15.19881 217.4206 15.37451 217.5143 15.54263 L 216.7371 15.54263 C 216.66 15.38829 216.6103 15.20777 216.5883 15.00106 Z M 216.5263 13.33916 C 216.2562 13.4494 215.851 13.54311 215.3109 13.62028 C 215.0049 13.66437 214.7886 13.71398 214.6618 13.7691 C 214.535 13.82422 214.4372 13.90484 214.3683 14.01095 C 214.2994 14.11706 214.2649 14.23488 214.2649 14.36441 C 214.2649 14.56285 214.34 14.72822 214.4902 14.86051 C 214.6404 14.9928 214.8602 15.05894 215.1496 15.05894 C 215.4363 15.05894 215.6912 14.99624 215.9144 14.87084 C 216.1377 14.74544 216.3017 14.57388 216.4064 14.35615 C 216.4863 14.18803 216.5263 13.93998 216.5263 13.61201 L 216.5263 13.33916 Z" fill-rule="evenodd" fill="#0000FF" fill-opacity="1" stroke="#404040" stroke-opacity="1" stroke-width="0.1" stroke-linecap="round" stroke-linejoin="round"/>
<path id="path_53ad1b170aa0fa3ac36490a65356471b" d="M 221.2805 15.54263 L 221.2805 14.98866 C 221.0021 15.42412 220.5928 15.64185 220.0526 15.64185 C 219.7026 15.64185 219.3808 15.54539 219.0873 15.35246 C 218.7938 15.15954 218.5664 14.89013 218.4052 14.54425 C 218.244 14.19836 218.1634 13.8008 218.1634 13.35156 C 218.1634 12.91335 218.2364 12.51578 218.3825 12.15887 C 218.5285 11.80196 218.7477 11.52842 219.0398 11.33825 C 219.3319 11.14808 219.6585 11.053 220.0196 11.053 C 220.2841 11.053 220.5198 11.10881 220.7265 11.22043 C 220.9332 11.33205 221.1013 11.47743 221.2309 11.65658 L 221.2309 9.482042 L 221.9709 9.482042 L 221.9709 15.54263 L 221.2805 15.54263 Z M 218.9282 13.35156 C 218.9282 13.9138 219.0467 14.3341 219.2837 14.61246 C 219.5207 14.89082 219.8005 15.03 220.1229 15.03 C 220.4481 15.03 220.7244 14.89702 220.9518 14.63106 C 221.1792 14.3651 221.2929 13.95927 221.2929 13.41357 C 221.2929 12.81275 221.1771 12.37178 220.9456 12.09066 C 220.7141 11.80954 220.4288 11.66898 220.0898 11.66898 C 219.7591 11.66898 219.4828 11.80403 219.261 12.07412 C 219.0391 12.34422 218.9282 12.77003 218.9282 13.35156 Z" fill-rule="evenodd" fill="#0000FF" fill-opacity="1" stroke="#404040" stroke-opacity="1" stroke-width="0.1" stroke-linecap="round" stroke-linejoin="round"/>
<path id="path_f6952b09e8763c4a4a00a52e45f3f6b4" d="M 225.5799 15.54263 L 225.5799 9.482042 L 226.4026 9.482042 L 229.5858 14.24039 L 229.5858 9.482042 L 230.3548 9.482042 L 230.3548 15.54263 L 229.5321 15.54263 L 226.3488 10.78015 L 226.3488 15.54263 L 225.5799 15.54263 Z" fill-rule="evenodd" fill="#0000FF" fill-opacity="1" stroke="#404040" stroke-opacity="1" stroke-width="0.1" stroke-linecap="round" stroke-linejoin="round"/>
<path id="path_6e4c6819662469e616794d496c478746" d="M 231.3305 13.34743 C 231.3305 12.53439 231.5565 11.93219 232.0085 11.54082 C 232.386 11.21561 232.8463 11.053 233.3893 11.053 C 233.9928 11.053 234.4861 11.25075 234.8692 11.64624 C 235.2523 12.04174 235.4439 12.58813 235.4439 13.28541 C 235.4439 13.85041 235.3591 14.29482 235.1896 14.61866 C 235.0201 14.9425 234.7735 15.19399 234.4496 15.37313 C 234.1258 15.55228 233.7723 15.64185 233.3893 15.64185 C 232.7746 15.64185 232.2779 15.44479 231.8989 15.05067 C 231.52 14.65656 231.3305 14.08881 231.3305 13.34743 Z M 232.0953 13.34743 C 232.0953 13.90966 232.2179 14.33065 232.4632 14.61039 C 232.7085 14.89013 233.0172 15.03 233.3893 15.03 C 233.7585 15.03 234.0659 14.88944 234.3112 14.60833 C 234.5564 14.32721 234.6791 13.89864 234.6791 13.32262 C 234.6791 12.77968 234.5558 12.36833 234.3091 12.08859 C 234.0624 11.80885 233.7558 11.66898 233.3893 11.66898 C 233.0172 11.66898 232.7085 11.80816 232.4632 12.08652 C 232.2179 12.36489 232.0953 12.78519 232.0953 13.34743 Z" fill-rule="evenodd" fill="#0000FF" fill-opacity="1" stroke="#404040" stroke-opacity="1" stroke-width="0.1" stroke-linecap="round" stroke-linejoin="round"/>
<path id="path_70512ae2d73c774e04eeb2a8c74b1a18" d="M 236.0185 14.23212 L 236.7544 14.11637 C 236.7957 14.41127 236.9108 14.63726 237.0996 14.79436 C 237.2884 14.95145 237.5522 15.03 237.8912 15.03 C 238.233 15.03 238.4865 14.96041 238.6519 14.82123 C 238.8173 14.68205 238.9 14.51875 238.9 14.33134 C 238.9 14.16322 238.8269 14.03093 238.6808 13.93447 C 238.5789 13.86832 238.3253 13.78426 237.9202 13.68229 C 237.3745 13.54448 236.9962 13.42529 236.7854 13.32469 C 236.5746 13.22409 236.4147 13.08491 236.3058 12.90714 C 236.197 12.72938 236.1425 12.53301 236.1425 12.31803 C 236.1425 12.12235 236.1873 11.94114 236.2769 11.7744 C 236.3665 11.60766 236.4884 11.46916 236.6428 11.35892 C 236.7585 11.27349 236.9163 11.20114 237.1161 11.14188 C 237.3159 11.08263 237.5302 11.053 237.7589 11.053 C 238.1035 11.053 238.4059 11.10261 238.6664 11.20183 C 238.9268 11.30105 239.1191 11.4354 239.2431 11.6049 C 239.3671 11.7744 239.4525 12.00109 239.4994 12.28496 L 238.7718 12.38418 C 238.7387 12.15818 238.643 11.98179 238.4845 11.85502 C 238.326 11.72824 238.1021 11.66484 237.8127 11.66484 C 237.4709 11.66484 237.2271 11.72135 237.081 11.83434 C 236.9349 11.94734 236.8618 12.07964 236.8618 12.23122 C 236.8618 12.32768 236.8922 12.4145 236.9528 12.49167 C 237.0134 12.57159 237.1085 12.63774 237.2381 12.6901 C 237.3125 12.71766 237.5316 12.78105 237.8954 12.88027 C 238.4218 13.02083 238.789 13.1359 238.9971 13.22547 C 239.2052 13.31504 239.3685 13.44527 239.487 13.61614 C 239.6055 13.78702 239.6648 13.99924 239.6648 14.25279 C 239.6648 14.50084 239.5924 14.73442 239.4477 14.95352 C 239.303 15.17263 239.0943 15.34213 238.8214 15.46202 C 238.5486 15.58191 238.2399 15.64185 237.8954 15.64185 C 237.3249 15.64185 236.8901 15.52334 236.5911 15.28632 C 236.2921 15.0493 236.1012 14.6979 236.0185 14.23212 Z" fill-rule="evenodd" fill="#0000FF" fill-opacity="1" stroke="#404040" stroke-opacity="1" stroke-width="0.1" stroke-linecap="round" stroke-linejoin="round"/>
<path id="path_d5f5f75386f5bbf12c6597908466dbb5" d="M 243.555 14.12877 L 244.3239 14.22386 C 244.2026 14.67309 243.978 15.02174 243.65 15.26978 C 243.3221 15.51783 242.9031 15.64185 242.3933 15.64185 C 241.7511 15.64185 241.2419 15.4441 240.8657 15.04861 C 240.4895 14.65311 240.3014 14.09845 240.3014 13.38463 C 240.3014 12.64601 240.4916 12.07274 240.8719 11.66484 C 241.2523 11.25695 241.7456 11.053 242.3519 11.053 C 242.939 11.053 243.4185 11.25281 243.7906 11.65244 C 244.1627 12.05207 244.3487 12.61431 244.3487 13.33916 C 244.3487 13.38326 244.3473 13.4494 244.3446 13.53759 L 241.0704 13.53759 C 241.0979 14.01991 241.2343 14.38922 241.4796 14.64553 C 241.7249 14.90185 242.0309 15.03 242.3974 15.03 C 242.6703 15.03 242.9031 14.95835 243.0961 14.81503 C 243.289 14.67172 243.442 14.44296 243.555 14.12877 Z M 241.1117 12.92575 L 243.5632 12.92575 C 243.5302 12.55643 243.4364 12.27945 243.2821 12.09479 C 243.0451 11.80816 242.7378 11.66484 242.3602 11.66484 C 242.0184 11.66484 241.7311 11.77922 241.4982 12.00798 C 241.2654 12.23673 241.1365 12.54265 241.1117 12.92575 Z" fill-rule="evenodd" fill="#0000FF" fill-opacity="1" stroke="#404040" stroke-opacity="1" stroke-width="0.1" stroke-linecap="round" stroke-linejoin="round"/>
<path id="path_dbc8804791c3d935e6f00962f6d53d64" d="M 177.6245 25.00146 L 177.6245 18.94086 L 181.7131 18.94086 L 181.7131 19.65606 L 178.4265 19.65606 L 178.4265 21.53295 L 181.2708 21.53295 L 181.2708 22.24814 L 178.4265 22.24814 L 178.4265 25.00146 L 177.6245 25.00146 Z" fill-rule="evenodd" fill="#0000FF" fill-opacity="1" stroke="#404040" stroke-opacity="1" stroke-width="0.1" stroke-linecap="round" stroke-linejoin="round"/>
<path id="path_a281393b59a05e592ea6bdf8f05338ed" d="M 182.6516 25.00146 L 182.6516 20.61104 L 183.3213 20.61104 L 183.3213 21.27663 C 183.4921 20.9652 183.6499 20.75987 183.7946 20.66065 C 183.9393 20.56143 184.0985 20.51182 184.2721 20.51182 C 184.5229 20.51182 184.7779 20.59175 185.0369 20.7516 L 184.7806 21.442 C 184.5987 21.33451 184.4168 21.28076 184.2349 21.28076 C 184.0723 21.28076 183.9262 21.32969 183.7967 21.42753 C 183.6672 21.52537 183.5748 21.6611 183.5197 21.83473 C 183.437 22.09932 183.3957 22.3887 183.3957 22.70289 L 183.3957 25.00146 L 182.6516 25.00146 Z" fill-rule="evenodd" fill="#0000FF" fill-opacity="1" stroke="#404040" stroke-opacity="1" stroke-width="0.1" stroke-linecap="round" stroke-linejoin="round"/>
<path id="path_21922ee6935d19323fea928d0fc05b61" d="M 185.2023 22.80625 C 185.2023 21.99321 185.4283 21.39101 185.8803 20.99965 C 186.2578 20.67443 186.7181 20.51182 187.261 20.51182 C 187.8646 20.51182 188.358 20.70957 188.7411 21.10507 C 189.1241 21.50056 189.3157 22.04695 189.3157 22.74424 C 189.3157 23.30923 189.2309 23.75364 189.0614 24.07748 C 188.892 24.40132 188.6453 24.65281 188.3214 24.83196 C 187.9976 25.0111 187.6441 25.10068 187.261 25.10068 C 186.6464 25.10068 186.1497 24.90362 185.7707 24.5095 C 185.3917 24.11538 185.2023 23.54763 185.2023 22.80625 Z M 185.9671 22.80625 C 185.9671 23.36849 186.0897 23.78948 186.335 24.06922 C 186.5803 24.34896 186.889 24.48883 187.261 24.48883 C 187.6304 24.48883 187.9377 24.34827 188.183 24.06715 C 188.4282 23.78603 188.5509 23.35746 188.5509 22.78144 C 188.5509 22.2385 188.4276 21.82715 188.1809 21.54741 C 187.9342 21.26768 187.6276 21.1278 187.261 21.1278 C 186.889 21.1278 186.5803 21.26698 186.335 21.54535 C 186.0897 21.82371 185.9671 22.24401 185.9671 22.80625 Z" fill-rule="evenodd" fill="#0000FF" fill-opacity="1" stroke="#404040" stroke-opacity="1" stroke-width="0.1" stroke-linecap="round" stroke-linejoin="round"/>
<path id="path_86445f5040c7cabaacffa4b8f1b70bbe" d="M 190.188 25.00146 L 190.188 20.61104 L 190.8577 20.61104 L 190.8577 21.23529 C 191.1802 20.75298 191.6459 20.51182 192.255 20.51182 C 192.5196 20.51182 192.7628 20.55936 192.9847 20.65445 C 193.2065 20.74953 193.3726 20.87424 193.4828 21.02859 C 193.5931 21.18292 193.6703 21.36621 193.7144 21.57842 C 193.7419 21.71622 193.7557 21.95738 193.7557 22.30189 L 193.7557 25.00146 L 193.0116 25.00146 L 193.0116 22.33083 C 193.0116 22.02766 192.9826 21.80097 192.9248 21.65077 C 192.8669 21.50056 192.7642 21.38067 192.6167 21.2911 C 192.4693 21.20153 192.2964 21.15674 192.0979 21.15674 C 191.781 21.15674 191.5074 21.25734 191.2773 21.45853 C 191.0472 21.65972 190.9321 22.04144 190.9321 22.60368 L 190.9321 25.00146 L 190.188 25.00146 Z" fill-rule="evenodd" fill="#0000FF" fill-opacity="1" stroke="#404040" stroke-opacity="1" stroke-width="0.1" stroke-linecap="round" stroke-linejoin="round"/>
<path id="path_1cadaca33cef4bd17e1dae3260bb5f88" d="M 196.5214 24.33587 L 196.6289 24.99319 C 196.4194 25.03728 196.232 25.05933 196.0666 25.05933 C 195.7966 25.05933 195.5871 25.01661 195.4383 24.93118 C 195.2894 24.84574 195.1847 24.73343 195.1241 24.59425 C 195.0634 24.45506 195.0331 24.16223 195.0331 23.71575 L 195.0331 21.18981 L 194.4874 21.18981 L 194.4874 20.61104 L 195.0331 20.61104 L 195.0331 19.52377 L 195.7731 19.07729 L 195.7731 20.61104 L 196.5214 20.61104 L 196.5214 21.18981 L 195.7731 21.18981 L 195.7731 23.75709 C 195.7731 23.96931 195.7862 24.10573 195.8124 24.16637 C 195.8386 24.227 195.8813 24.27523 195.9406 24.31106 C 195.9998 24.34689 196.0846 24.36481 196.1948 24.36481 C 196.2775 24.36481 196.3864 24.35516 196.5214 24.33587 Z" fill-rule="evenodd" fill="#0000FF" fill-opacity="1" stroke="#404040" stroke-opacity="1" stroke-width="0.1" stroke-linecap="round" stroke-linejoin="round"/>
<path id="path_f58fb8cfc9dcc0661e56c6e5a09799b2" d="M 177.3558 34.56363 L 177.7154 32.8025 L 177.0168 32.8025 L 177.0168 32.18652 L 177.8395 32.18652 L 178.1454 30.68585 L 177.0168 30.68585 L 177.0168 30.06986 L 178.2694 30.06986 L 178.6291 28.29634 L 179.2492 28.29634 L 178.8895 30.06986 L 180.1918 30.06986 L 180.5514 28.29634 L 181.1757 28.29634 L 180.816 30.06986 L 181.5312 30.06986 L 181.5312 30.68585 L 180.692 30.68585 L 180.3819 32.18652 L 181.5312 32.18652 L 181.5312 32.8025 L 180.2579 32.8025 L 179.8982 34.56363 L 179.2781 34.56363 L 179.6337 32.8025 L 178.3356 32.8025 L 177.9759 34.56363 L 177.3558 34.56363 Z M 178.4596 32.18652 L 179.7577 32.18652 L 180.0677 30.68585 L 178.7655 30.68585 L 178.4596 32.18652 Z" fill-rule="evenodd" fill="#0000FF" fill-opacity="1" stroke="#404040" stroke-opacity="1" stroke-width="0.1" stroke-linecap="round" stroke-linejoin="round"/>
<path id="path_9b69c0abc4a72f144406f17046797c71" d="M 181.9942 32.86038 L 182.7384 32.76116 C 182.8238 33.18284 182.9692 33.4867 183.1745 33.67274 C 183.3798 33.85877 183.6299 33.95178 183.9248 33.95178 C 184.2748 33.95178 184.5704 33.83052 184.8116 33.58799 C 185.0527 33.34546 185.1733 33.04504 185.1733 32.68675 C 185.1733 32.345 185.0617 32.06319 184.8385 31.84133 C 184.6152 31.61946 184.3313 31.50853 183.9868 31.50853 C 183.8463 31.50853 183.6713 31.53609 183.4618 31.59122 L 183.5445 30.93802 C 183.5941 30.94354 183.6341 30.94629 183.6644 30.94629 C 183.9813 30.94629 184.2666 30.86361 184.5201 30.69825 C 184.7737 30.53288 184.9005 30.27795 184.9005 29.93344 C 184.9005 29.66059 184.8082 29.43459 184.6235 29.25545 C 184.4388 29.0763 184.2004 28.98673 183.9083 28.98673 C 183.6189 28.98673 183.3777 29.07768 183.1848 29.25958 C 182.9919 29.44148 182.8679 29.71433 182.8128 30.07813 L 182.0686 29.94584 C 182.1596 29.44699 182.3663 29.06046 182.6888 28.78623 C 183.0112 28.512 183.4122 28.37488 183.8918 28.37488 C 184.2225 28.37488 184.527 28.44585 184.8054 28.58779 C 185.0838 28.72973 185.2967 28.92334 185.4441 29.16863 C 185.5916 29.41392 185.6653 29.67437 185.6653 29.94998 C 185.6653 30.2118 185.595 30.4502 185.4545 30.66517 C 185.3139 30.88015 185.1058 31.05102 184.8302 31.1778 C 185.1885 31.26048 185.4668 31.43205 185.6653 31.6925 C 185.8637 31.95295 185.963 32.27886 185.963 32.67022 C 185.963 33.19938 185.77 33.64793 185.3842 34.01586 C 184.9983 34.3838 184.5105 34.56776 183.9207 34.56776 C 183.3888 34.56776 182.9471 34.40929 182.5957 34.09234 C 182.2443 33.77539 182.0438 33.36474 181.9942 32.86038 Z" fill-rule="evenodd" fill="#0000FF" fill-opacity="1" stroke="#404040" stroke-opacity="1" stroke-width="0.1" stroke-linecap="round" stroke-linejoin="round"/>
</defs>
<g>
<use xlink:href="#path_dc55ddce370fe0a5ef064b25ca8b91f9"/>
</g>
<g>
<use xlink:href="#path_aa7a9f437d5728f38248405ffdbf3480"/>
</g>
<g>
<use xlink:href="#path_74194af1d8126e46bdb39d71c3272db7"/>
</g>
<g>
<use xlink:href="#path_c97cb54d2cf98b86e56527dfd22adc5c"/>
</g>
<g>
<use xlink:href="#path_2c6dbdc138f12a10c25afdd4252a7b6b"/>
</g>
<g>
<use xlink:href="#path_113c245e6e5eddd8dbf2830dec41e615"/>
</g>
<g>
<use xlink:href="#path_9bee88246c1d8ba14426eb9335e1ce64"/>
</g>
<g>
<use xlink:href="#path_e349fe7fa2690b72b44ea8a02ad92446"/>
</g>
<g>
<use xlink:href="#path_5bfa2c5da29589d29b5f1e173debbd7a"/>
</g>
<g>
<use xlink:href="#path_f396826d0e9029fd5ae9db1b2a9ebef0"/>
</g>
<g>
<use xlink:href="#path_4f88f2208f1fd4b1f722b84b32769f11"/>
</g>
<g>
<use xlink:href="#path_d2c42b36376441e303e741755af70692"/>
</g>
<g>
<use xlink:href="#path_fa429477dc0217ea6f3946d251fcbf89"/>
</g>
<g>
<use xlink:href="#path_02583b75efdc817f04db36d548a3f6ed"/>
</g>
<g>
<use xlink:href="#path_f801d2a8940bcc1336336160f63454a8"/>
</g>
<g>
<use xlink:href="#path_efcaa7c7de613404a7bcb38ba5344dd2"/>
</g>
<g>
<use xlink:href="#path_ce940ae4d2c1279aa9beb0595b75740f"/>
</g>
<g>
<use xlink:href="#path_c6d4453e556fddf38592f8c3299c860b"/>
</g>
<g>
<use xlink:href="#path_545010cef7f7fc8133173c56db959993"/>
</g>
<g>
<use xlink:href="#path_9ab5074b5baad40c5bf8080743033d1c"/>
</g>
<g>
<use xlink:href="#path_373311e8ec833176604f5cb905865cca"/>
</g>
<g>
<use xlink:href="#path_e395e00c39b69125793cb05366e7eae9"/>
</g>
<g>
<use xlink:href="#path_77e1608f45a15b0ff79a7922525d5397"/>
</g>
<g>
<use xlink:href="#path_dfed25a3690f93d3dc15d80eddbbacd3"/>
</g>
<g>
<use xlink:href="#path_aed73eda6806363d84b0f9a9059f43ca"/>
</g>
<g>
<use xlink:href="#path_1db0b1e9f627844a0c846e3de3208b2e"/>
</g>
<g>
<use xlink:href="#path_0643c9d517733d05ca3876e81a7fd92b"/>
</g>
<g>
<use xlink:href="#path_2ef11fd9900268b506741ccd4646d90b"/>
</g>
<g>
<use xlink:href="#path_a687c94dbf60730cb600c6112349b3ee"/>
</g>
<g>
<use xlink:href="#path_eda8a039a6760c2af0d952b89ca42f3b"/>
</g>
<g>
<g>
<use xlink:href="#path_a4109f05408ce656d8e3d07b6b506972"/>
</g>
<g>
<use xlink:href="#path_b52458b68a4491bd814fcb29f0c3fec7"/>
</g>
<g>
<use xlink:href="#path_73ce46b3584db9730e515cd58a40d0b1"/>
</g>
<g>
<use xlink:href="#path_98b54e0929660b1a666ee6dfbc1555a8"/>
</g>
<g>
<use xlink:href="#path_2b664b043c01583fbe48eb033971b882"/>
</g>
<g>
<use xlink:href="#path_0d6a41bf11c10ad5f2c82582e8b35e87"/>
</g>
<g>
<use xlink:href="#path_81c5cd3ff83630fa3264ca3ec8a1430f"/>
</g>
<g>
<use xlink:href="#path_ea42cfa48ea992bf29e8b7330a022b6c"/>
</g>
<g>
<use xlink:href="#path_53ad1b170aa0fa3ac36490a65356471b"/>
</g>
<g>
<use xlink:href="#path_f6952b09e8763c4a4a00a52e45f3f6b4"/>
</g>
<g>
<use xlink:href="#path_6e4c6819662469e616794d496c478746"/>
</g>
<g>
<use xlink:href="#path_70512ae2d73c774e04eeb2a8c74b1a18"/>
</g>
<g>
<use xlink:href="#path_d5f5f75386f5bbf12c6597908466dbb5"/>
</g>
<g>
<use xlink:href="#path_dbc8804791c3d935e6f00962f6d53d64"/>
</g>
<g>
<use xlink:href="#path_a281393b59a05e592ea6bdf8f05338ed"/>
</g>
<g>
<use xlink:href="#path_21922ee6935d19323fea928d0fc05b61"/>
</g>
<g>
<use xlink:href="#path_86445f5040c7cabaacffa4b8f1b70bbe"/>
</g>
<g>
<use xlink:href="#path_1cadaca33cef4bd17e1dae3260bb5f88"/>
</g>
<g>
<use xlink:href="#path_f58fb8cfc9dcc0661e56c6e5a09799b2"/>
</g>
<g>
<use xlink:href="#path_9b69c0abc4a72f144406f17046797c71"/>
</g>
</g>
</svg>