<?xml version="1.0" encoding="utf-8"?>
<!DOCTYPE svg PUBLIC "-//W3C//DTD SVG 1.1//EN" "http://www.w3.org/Graphics/SVG/1.1/DTD/svg11.dtd">
<!-- exported from Silhouette Studio® Business Edition V4.4.920ssbe -->
<svg version="1.1" xmlns="http://www.w3.org/2000/svg" xmlns:xlink="http://www.w3.org/1999/xlink" width="304.8mm" height="609.6mm" viewBox="0 0 304.8 609.6">
<defs>
<path id="path_f8afabdeae6d3123ae3bdd50b4f5402d" d="M 272.157 205.107 L 260.6426 192.5257 M 172.1469 490.1454 L 173.0802 499.1262 L 173.0801 499.1262 L 205.165 471.7366 L 205.1649 471.7366 L 215.9644 482.8242 L 215.9646 482.8242 L 217.1079 444.4413 L 217.1078 444.4414 L 240.1293 449.2253 M 229.1023 423.2621 L 247.8965 423.0805 L 247.8966 423.0805 L 235.5461 401.9083 M 37.64783 275.8459 L 23.04736 346.4651 M 132.3616 398.2516 L 138.683 434.3198 M 118.4432 462.9243 L 164.7139 457.98 M 54.94348 506.6075 L 61.26404 489.8035 M 83.46326 509.82 L 84.98621 484.3554 L 84.98621 484.3554 L 115.2876 503.9993 M 183.2251 509.4819 L 140.2347 561.2401 M 218.104 560.6243 L 241.5463 502.1087 M 225.4351 249.8819 L 226.0327 328.2505 L 226.0326 328.2505 L 166.3147 294.9669 M 233.9003 332.6806 L 264.4694 270.0555 M 188.1172 228.5168 L 149.926 243.4713 M 23.33667 134.3355 L 51.83228 168.3589 L 51.83228 168.3589 L 86.54358 164.2158 L 86.54346 164.2158 L 145.219 152.0056 L 145.2191 152.0056 L 175.3293 114.4294 L 175.3295 114.4293 L 222.403 99.95639 M 84.87781 324.6668 L 109.5989 270.7118 L 109.5988 270.7118 L 152.6868 218.9568 M 164.9866 335.2475 L 109.5989 270.7118 M 275.1128 103.2908 L 232.2034 65.90494 M 283.925 437.9297 L 283.8948 437.9534 L 283.925 437.9297 Z" fill-rule="evenodd" fill="none" fill-opacity="1" stroke="#0000FF" stroke-opacity="1" stroke-width="1.058333" stroke-linecap="round" stroke-linejoin="round"/>
<path id="path_047599e26c112a510c4596c200eb074e" d="M 169.4733 161.8675 L 260.6423 192.5257 L 260.6422 192.5257 L 235.7236 215.1925 M 172.1467 490.1454 L 205.1648 471.7366 L 205.1648 471.7366 L 217.1077 444.4414 L 217.1079 444.4414 L 229.1025 423.2622 M 217.1077 444.4414 L 188.1106 471.6047 M 247.8966 423.0805 L 239.2361 380.3172 L 239.2358 380.3172 L 235.5459 401.9083 M 215.9645 482.8242 L 240.1295 449.2253 M 22.03821 426.0219 L 56.43506 400.2161 M 175.2388 346.4807 L 163.6628 371.1765 M 132.3616 398.2516 L 86.48328 398.1945 L 86.48352 398.1945 L 138.683 434.3198 L 138.683 434.3198 L 169.9937 409.4149 M 185.9274 381.9575 L 191.4054 356.9232 M 183.9763 331.7792 L 167.0573 303.6233 M 66.63147 463.6157 L 105.0878 450.1766 M 115.2874 503.9993 L 139.4052 488.6135 L 139.4052 488.6134 L 84.98596 484.3554 L 84.98584 484.3554 L 164.7139 457.98 L 164.7141 457.98 L 198.8309 410.1077 M 83.19702 511.6484 L 85.10645 521.3152 L 85.10657 521.3152 L 71.35291 542.8648 L 71.35303 542.8648 L 100.6539 555.4113 L 100.6539 555.4113 L 115.2283 516.1982 L 115.2281 516.1982 L 83.19727 511.6484 L 83.19727 511.6484 L 50.36719 527.9313 L 50.36719 527.9313 L 34.31396 507.2021 L 34.31372 507.2021 L 54.94312 506.6075 L 54.94324 506.6075 L 83.46326 509.82 L 83.46326 509.82 L 61.26379 489.8035 L 61.26379 489.8035 L 39.25793 486.1627 M 20.87524 479.8234 L 54.94324 506.6075 L 54.94324 506.6075 L 50.36731 527.9313 M 85.10657 521.3152 L 115.2279 516.1982 M 183.2251 509.4819 L 177.3811 561.6937 L 177.3811 561.6937 L 140.2345 561.2401 L 140.2345 561.2401 L 143.6173 512.6727 L 143.6173 512.6727 L 183.2251 509.4819 L 183.2251 509.4819 L 218.1041 560.6243 L 218.104 560.6243 L 272.1241 562.1098 M 226.0327 328.2504 L 264.4694 270.0555 L 264.4691 270.0555 L 225.4347 249.882 L 225.4351 249.882 L 166.3149 294.967 L 166.3147 294.9669 L 188.1171 228.5168 M 106.7833 81.93668 L 145.219 152.0055 L 145.219 152.0056 L 170.3821 187.8098 L 170.3821 187.8098 L 152.6865 218.9567 L 152.6866 218.9567 L 86.54346 164.2158 L 86.54333 164.2158 L 106.7831 81.93668 L 106.7831 81.93674 L 70.64514 61.54947 L 70.64526 61.54947 L 51.8324 168.3589 M 70.64514 61.54947 L 86.54333 164.2158 M 189.1453 150.6566 L 233.0155 149.0215 L 233.0154 149.0216 L 222.4027 99.95639 L 222.4027 99.95639 L 182.9972 78.38989 L 182.9972 78.38989 L 194.0474 43.23987 M 164.9863 335.2476 L 84.87756 324.6669 L 84.87781 324.6668 L 47.24194 260.2114 L 47.24182 260.2114 L 152.6865 218.9568 L 152.6865 218.9568 L 145.219 152.0056 L 145.219 152.0056 L 124.198 44.27606 L 124.198 44.27618 L 175.3292 114.4293 L 175.3292 114.4293 L 233.0154 149.0216 M 182.9971 78.38995 L 232.2031 65.905" fill-rule="evenodd" fill="none" fill-opacity="1" stroke="#FF0000" stroke-opacity="1" stroke-width="1.058333" stroke-linecap="round" stroke-linejoin="round"/>
<path id="path_734bd03c436a4229642d0f1e3728f71a" d="M 221.9865 174.9212 L 254.1068 185.7227 L 260.7748 192.5782 L 267.1033 193.0165 L 267.1033 193.0165 L 272.5627 198.9819 L 272.5625 198.9819 L 272.2888 205.1595 L 272.2894 205.1595 L 235.8562 215.2449 L 235.856 215.2449 L 169.6058 161.9199 L 181.6746 161.3651 L 181.6747 161.3652 L 219.3569 174.0369" fill-rule="evenodd" fill="none" fill-opacity="1" stroke="#414141" stroke-opacity="1" stroke-width="1.058333" stroke-linecap="round" stroke-linejoin="round"/>
<path id="path_d252a08021e0e6d411471f01629287e7" d="M 205.2972 471.7891 L 188.2429 471.657 L 188.2428 471.657 L 188.4446 465.4767 L 188.4447 465.4767 L 196.6855 457.7572" fill-rule="evenodd" fill="none" fill-opacity="1" stroke="#414141" stroke-opacity="1" stroke-width="1.058333" stroke-linecap="round" stroke-linejoin="round"/>
<path id="path_a4b59e25b0d28fd2d1798ca5e1eb4cc7" d="M 198.8369 455.7417 L 201.765 452.9989 L 201.7649 452.9989 L 217.24 444.4938 L 215.5901 438.5342 L 215.59 438.5342 L 223.275 424.9645 L 223.2753 424.9645 L 229.2349 423.3145 L 229.2345 423.3145 L 235.6785 401.9606 L 232.105 396.914 L 232.6383 393.7933 L 239.3684 380.3696 L 239.3683 380.3697 L 246.0133 391.1533 L 246.0137 391.1533 L 247.3123 397.5652" fill-rule="evenodd" fill="none" fill-opacity="1" stroke="#414141" stroke-opacity="1" stroke-width="1.058333" stroke-linecap="round" stroke-linejoin="round"/>
<path id="path_437ffcc02b275022ff237721c3528489" d="M 247.7565 399.7588 L 251.4465 417.9795 L 251.4462 417.9795 L 248.0286 423.1329 L 248.0289 423.1329 L 240.2617 449.2778 L 240.2617 449.2778 L 241.2584 455.3806 L 234.616 464.6164" fill-rule="evenodd" fill="none" fill-opacity="1" stroke="#414141" stroke-opacity="1" stroke-width="1.058333" stroke-linecap="round" stroke-linejoin="round"/>
<path id="path_db43c5161e15a5da3a92501aca8d9027" d="M 233.3591 466.3638 L 222.1997 481.8799 L 216.0967 482.8767 L 173.2124 499.1786 L 173.212 499.1786 L 168.411 495.2814 L 168.4115 495.2814 L 168.3818 494.9989 L 172.2789 490.1979 L 177.7045 482.1667 L 196.4409 471.7204" fill-rule="evenodd" fill="none" fill-opacity="1" stroke="#414141" stroke-opacity="1" stroke-width="1.058333" stroke-linecap="round" stroke-linejoin="round"/>
<path id="path_b44f3a1e4b3dc264f950845cb53b667c" d="M 21.0072 335.4272 L 32.61267 279.2951 L 32.61292 279.2951 L 37.77991 275.8984 L 37.78003 275.8984 L 90.54102 372.4039 L 90.54065 372.4039 L 56.56689 400.2686 L 55.69336 406.3902 L 42.53357 416.2632" fill-rule="evenodd" fill="none" fill-opacity="1" stroke="#414141" stroke-opacity="1" stroke-width="1.058333" stroke-linecap="round" stroke-linejoin="round"/>
<path id="path_a3bf8bb1dabe7879b6b05a223c5148d5" d="M 40.15308 418.0491 L 28.29187 426.9479 L 28.29187 426.9479 L 22.17004 426.0743 L 22.17029 426.0743 L 23.17969 346.5176 L 23.17944 346.5176 L 21.00732 338.9536" fill-rule="evenodd" fill="none" fill-opacity="1" stroke="#414141" stroke-opacity="1" stroke-width="1.058333" stroke-linecap="round" stroke-linejoin="round"/>
<path id="path_5e8a094a70996c62a08afe3b94ea1f7c" d="M 181.2574 318.5977 L 185.6044 325.8317 L 185.604 325.8317 L 184.1084 331.8317 L 184.1086 331.8317 L 191.5378 356.9756 L 191.5376 356.9756 L 194.8744 362.1818 L 194.8744 362.1818 L 191.2656 378.6732 L 191.2656 378.6732 L 186.0596 382.0099 L 186.0596 382.01 L 170.1257 409.4673 L 170.1259 409.4673 L 169.4258 415.6112 L 169.4257 415.6112 L 144.9591 435.0723 L 144.9595 435.0723 L 138.8156 434.3722 L 105.2201 450.229 L 105.22 450.229 L 102.5348 455.7992 L 102.5349 455.7992 L 94.91052 458.4635" fill-rule="evenodd" fill="none" fill-opacity="1" stroke="#414141" stroke-opacity="1" stroke-width="1.058333" stroke-linecap="round" stroke-linejoin="round"/>
<path id="path_7284ac15a20f6e3cbac69b853ec019f5" d="M 92.20642 459.4086 L 72.33411 466.3533 L 66.76392 463.6681 L 86.61572 398.2469 L 86.6156 398.2469 L 98.85144 393.8896 L 98.85156 393.8896 L 128.127 393.926 L 128.1271 393.926 L 132.4941 398.3039 L 132.494 398.3039 L 163.7953 371.2288 L 161.6918 365.4139 L 161.6919 365.4139 L 169.5564 348.6365 L 175.3712 346.5331 L 167.1895 303.6757 L 167.1895 303.6757 L 176.0613 309.9506 L 176.0613 309.9506 L 179.892 316.3253" fill-rule="evenodd" fill="none" fill-opacity="1" stroke="#414141" stroke-opacity="1" stroke-width="1.058333" stroke-linecap="round" stroke-linejoin="round"/>
<path id="path_9245321f0a96eed3ddf1d60e3092655b" d="M 21.00745 479.0681 L 39.39062 486.2151 L 39.39026 486.2151 L 44.41785 482.615 L 44.41772 482.615 L 49.65356 483.4812" fill-rule="evenodd" fill="none" fill-opacity="1" stroke="#414141" stroke-opacity="1" stroke-width="1.058333" stroke-linecap="round" stroke-linejoin="round"/>
<path id="path_f57d4ae3be9763e8f49a42a5f22d8ee2" d="M 52.59021 483.967 L 57.79578 484.8283 L 57.79602 484.8284 L 61.396 489.856 L 61.39587 489.856 L 85.11841 484.4078 L 118.5754 462.9766 L 118.5756 462.9766 L 198.963 410.1601 L 198.9629 410.1601 L 199.9861 416.2585 L 185.8987 436.0258" fill-rule="evenodd" fill="none" fill-opacity="1" stroke="#414141" stroke-opacity="1" stroke-width="1.058333" stroke-linecap="round" stroke-linejoin="round"/>
<path id="path_91daccdaa40b368c2ecfc4e97bbc3e82" d="M 184.1361 438.4992 L 170.9447 457.0093 L 164.8462 458.0324 L 139.5374 488.6658 L 139.5371 488.6658 L 138.2025 494.7038 L 138.2026 494.7038 L 130.7998 499.4264" fill-rule="evenodd" fill="none" fill-opacity="1" stroke="#414141" stroke-opacity="1" stroke-width="1.058333" stroke-linecap="round" stroke-linejoin="round"/>
<path id="path_60304ec8d70d247386c79a9a74c67f23" d="M 128.6542 500.7952 L 121.4575 505.3864 L 121.4575 505.3864 L 115.4196 504.0518 L 83.59521 509.8724 L 83.59546 509.8724 L 81.11877 511.3064" fill-rule="evenodd" fill="none" fill-opacity="1" stroke="#414141" stroke-opacity="1" stroke-width="1.058333" stroke-linecap="round" stroke-linejoin="round"/>
<path id="path_52d01eb1c51b82731ed0591fa752e419" d="M 91.4436 508.4369 L 111.3845 511.2694 L 115.3604 516.2505 L 115.3602 516.2505 L 143.7495 512.7252 L 147.7568 508.0156 L 147.7571 508.0156 L 176.067 505.735 L 176.067 505.735 L 183.3572 509.5343 L 183.3573 509.5343 L 241.6786 502.1611 L 272.2565 562.1623 L 267.7654 566.4129 L 267.7656 566.4129 L 247.9939 565.8691" fill-rule="evenodd" fill="none" fill-opacity="1" stroke="#414141" stroke-opacity="1" stroke-width="1.058333" stroke-linecap="round" stroke-linejoin="round"/>
<path id="path_e64ce8f68beb1f3d139b9dc6713c6e1b" d="M 244.9919 565.7865 L 224.1722 565.2141 L 218.2362 560.6768 L 218.2363 560.6768 L 177.5134 561.7461 L 173.0879 566.065 L 173.0878 566.065 L 144.6857 565.718 L 144.6858 565.718 L 140.3671 561.2926 L 140.3671 561.2926 L 100.7861 555.4638 L 100.7863 555.4638 L 95.04578 557.7622 L 73.78369 548.6578 L 73.78357 548.6578 L 71.48523 542.9173 L 71.48511 542.9173 L 50.49951 527.9838 L 43.92773 526.639 L 33.66638 513.3889 L 33.6665 513.3889 L 34.44629 507.2545 L 34.44604 507.2545 L 21.0072 482.0848" fill-rule="evenodd" fill="none" fill-opacity="1" stroke="#414141" stroke-opacity="1" stroke-width="1.058333" stroke-linecap="round" stroke-linejoin="round"/>
<path id="path_46f42006202fe5da9d6d5bfe576e2e0d" d="M 55.07544 506.6598 L 83.32959 511.7009 L 83.32959 511.7009 L 86.46094 509.3483" fill-rule="evenodd" fill="none" fill-opacity="1" stroke="#414141" stroke-opacity="1" stroke-width="1.058333" stroke-linecap="round" stroke-linejoin="round"/>
<path id="path_c4f2f7de37fbfeb9dacada5c2cdecfd3" d="M 251.8782 306.142 L 239.88 330.7216 L 239.8799 330.7216 L 234.0325 332.733 L 226.1648 328.3029 L 220.2169 329.9935 L 220.2169 329.9935 L 168.1377 300.9675 L 168.1378 300.9675 L 166.4475 295.0194 L 166.447 295.0194 L 150.0582 243.5237 L 150.0583 243.5237 L 152.5358 237.8578 L 152.5358 237.8579 L 165.8512 232.644" fill-rule="evenodd" fill="none" fill-opacity="1" stroke="#414141" stroke-opacity="1" stroke-width="1.058333" stroke-linecap="round" stroke-linejoin="round"/>
<path id="path_9a24761f2da5e00ff07f9f76d47e1c93" d="M 168.6305 231.5556 L 182.5837 226.0919 L 182.5836 226.0919 L 188.2494 228.5691 L 188.2494 228.5692 L 225.5673 249.9343 L 231.4591 248.0574 L 231.4591 248.0574 L 262.7246 264.2159 L 264.6016 270.1079 L 264.6018 270.1079 L 266.6133 275.9552 L 266.6133 275.9552 L 252.9443 303.9578" fill-rule="evenodd" fill="none" fill-opacity="1" stroke="#414141" stroke-opacity="1" stroke-width="1.058333" stroke-linecap="round" stroke-linejoin="round"/>
<path id="path_1b92b44ddba259f5ff2ab5ffc588de4d" d="M 76.04578 169.9406 L 56.82434 172.2348 L 51.96436 168.4113 L 51.9646 168.4113 L 45.79993 167.8606 L 45.79993 167.8606 L 36.67395 156.9642" fill-rule="evenodd" fill="none" fill-opacity="1" stroke="#414141" stroke-opacity="1" stroke-width="1.058333" stroke-linecap="round" stroke-linejoin="round"/>
<path id="path_4028e7640842ab00ae1bafdc73f9a53f" d="M 34.8186 154.7487 L 22.92456 140.5475 L 23.46912 134.3879 L 23.46887 134.3879 L 70.77722 61.60181 L 70.77747 61.60181 L 78.19531 60.76605 L 78.1947 60.76605 L 105.2554 76.03235 L 105.2556 76.0325 L 106.9154 81.9892 L 106.9152 81.9892 L 124.33 44.32855 L 124.33 44.32861 L 133.9211 50.06427 L 133.9215 50.06427 L 144.6855 64.8324" fill-rule="evenodd" fill="none" fill-opacity="1" stroke="#414141" stroke-opacity="1" stroke-width="1.058333" stroke-linecap="round" stroke-linejoin="round"/>
<path id="path_224706c63424ebaa7326d7ee774988de" d="M 146.3987 67.18304 L 176.4198 108.3728 L 176.4198 108.3727 L 175.4617 114.4817 L 175.4614 114.4818 L 183.1296 78.44235 L 180.2699 72.95975 L 188.6971 46.15222 L 188.6973 46.15216 L 194.1798 43.29218 L 232.3357 65.95734 L 232.3357 65.95749 L 239.8319 66.68927 L 256.0854 80.85065" fill-rule="evenodd" fill="none" fill-opacity="1" stroke="#414141" stroke-opacity="1" stroke-width="1.058333" stroke-linecap="round" stroke-linejoin="round"/>
<path id="path_8a49a7bc03ab429916a21270561256ea" d="M 258.3828 82.85211 L 273.4573 95.98633 L 275.245 103.3434 L 275.2452 103.3433 L 222.535 100.0089 L 222.5349 100.0089 L 227.733 103.3582 L 227.7329 103.3583 L 236.4967 143.876 L 236.4969 143.876 L 233.1478 149.074 L 233.1478 149.074 L 228.9408 153.6063 L 228.9409 153.6063 L 193.8098 154.9156 L 189.2775 150.7091 L 189.2773 150.7091 L 145.3513 152.058 L 151.4429 153.1212 L 171.5776 181.7707 L 171.5775 181.7707 L 170.5143 187.8622 L 170.5144 187.8622 L 193.4617 224.5208 L 193.4619 224.5208 L 152.8191 219.0092 L 152.8191 219.0092 L 153.3815 225.1671 L 153.3817 225.1671 L 115.889 270.2015 L 109.731 270.7641 L 109.731 270.7641 L 120.7705 276.9133 L 120.7705 276.9134 L 139.8749 299.1729" fill-rule="evenodd" fill="none" fill-opacity="1" stroke="#414141" stroke-opacity="1" stroke-width="1.058333" stroke-linecap="round" stroke-linejoin="round"/>
<path id="path_9c0c3d4afe8416b5fa7dc17a8cc58074" d="M 141.8292 301.45 L 165.5892 329.1342 L 165.5892 329.1342 L 165.1188 335.2998 L 165.1185 335.3 L 111.7698 388.9064 L 111.77 388.9064 L 85.00989 324.7193 L 85.01001 324.7193 L 79.0293 323.148 L 79.02917 323.148 L 45.80334 266.2445 L 47.37439 260.2638 L 47.37415 260.2638 L 21.0072 210.2993" fill-rule="evenodd" fill="none" fill-opacity="1" stroke="#414141" stroke-opacity="1" stroke-width="1.058333" stroke-linecap="round" stroke-linejoin="round"/>
<path id="path_a1789901bb12e9939c52c39a890765d1" d="M 284.0571 438.04 L 284.027 438.0058 L 284.027 438.0058 L 284.057 437.7553" fill-rule="evenodd" fill="none" fill-opacity="1" stroke="#414141" stroke-opacity="1" stroke-width="1.058333" stroke-linecap="round" stroke-linejoin="round"/>
<path id="path_572b87ce4b348fb5b769d45bbde61307" d="M 86.67578 164.2682 L 21.00732 199.3105" fill-rule="evenodd" fill="none" fill-opacity="1" stroke="#414141" stroke-opacity="1" stroke-width="1.058333" stroke-linecap="round" stroke-linejoin="round"/>
<path id="path_ccb40d6f264112e282ad3fd0724e2449" d="M 21.00085 199.3024 L 16.49329 201.7061 L 20.99731 210.292" fill-rule="evenodd" fill="none" fill-opacity="1" stroke="#414141" stroke-opacity="1" stroke-width="1.058333" stroke-linecap="round" stroke-linejoin="round"/>
<path id="path_d8a978419d726b36c295b03738960f92" d="M 20.94031 479.0057 L 18.88354 478.2061 L 18.88367 478.2061 L 20.94055 482.0586" fill-rule="evenodd" fill="none" fill-opacity="1" stroke="#414141" stroke-opacity="1" stroke-width="1.058333" stroke-linecap="round" stroke-linejoin="round"/>
<path id="path_ca8f94786df4f2560f16aeacbed821f0" d="M 19.38525 478.7243 L 21.44226 480.3415" fill-rule="evenodd" fill="none" fill-opacity="1" stroke="#FF0000" stroke-opacity="1" stroke-width="1.058333" stroke-linecap="round" stroke-linejoin="round"/>
<path id="path_055c178eec8d0fd00b21c042fc4cc5d1" d="M 36.30801 29.11286 L 37.11002 29.11286 L 37.11002 32.61444 C 37.11002 33.22353 37.04112 33.70722 36.90332 34.06551 C 36.76552 34.4238 36.51678 34.71526 36.15712 34.93988 C 35.79744 35.1645 35.32547 35.2768 34.74118 35.2768 C 34.17343 35.2768 33.70905 35.17896 33.34799 34.98328 C 32.98695 34.78761 32.72926 34.50442 32.57492 34.13373 C 32.42058 33.76304 32.34341 33.25661 32.34341 32.61444 L 32.34341 29.11286 L 33.14543 29.11286 L 33.14543 32.61031 C 33.14543 33.13671 33.19435 33.52464 33.29219 33.77406 C 33.39003 34.02348 33.55815 34.21572 33.79655 34.35077 C 34.03494 34.48582 34.3264 34.55334 34.67091 34.55334 C 35.26071 34.55334 35.681 34.41967 35.93181 34.15233 C 36.1826 33.88499 36.30801 33.37098 36.30801 32.61031 L 36.30801 29.11286 Z" fill-rule="evenodd" fill="#0000FF" fill-opacity="1" stroke="#404040" stroke-opacity="1" stroke-width="0.1" stroke-linecap="round" stroke-linejoin="round"/>
<path id="path_fb6679221fcda9854f6bcea99d11437a" d="M 38.35023 36.85603 L 38.35023 30.78304 L 39.02823 30.78304 L 39.02823 31.35354 C 39.18808 31.1303 39.36859 30.96287 39.56979 30.85125 C 39.77098 30.73963 40.01489 30.68382 40.30153 30.68382 C 40.67635 30.68382 41.00708 30.78028 41.2937 30.97321 C 41.58034 31.16613 41.79669 31.43829 41.94275 31.78969 C 42.08882 32.14109 42.16187 32.52625 42.16187 32.94518 C 42.16187 33.39441 42.08125 33.79887 41.92001 34.15853 C 41.75879 34.5182 41.52452 34.7938 41.21722 34.98535 C 40.90993 35.1769 40.58678 35.27267 40.24777 35.27267 C 39.99974 35.27267 39.77718 35.22031 39.58012 35.11558 C 39.38307 35.01085 39.22115 34.87856 39.09436 34.7187 L 39.09436 36.85603 L 38.35023 36.85603 Z M 39.02409 33.00305 C 39.02409 33.56805 39.13846 33.98559 39.36722 34.25568 C 39.59598 34.52578 39.87296 34.66082 40.19817 34.66082 C 40.5289 34.66082 40.81209 34.52095 41.04773 34.24121 C 41.28337 33.96147 41.40118 33.52808 41.40118 32.94104 C 41.40118 32.38156 41.28612 31.96264 41.056 31.68427 C 40.82587 31.40591 40.55095 31.26673 40.23125 31.26673 C 39.91429 31.26673 39.63387 31.41487 39.38995 31.71114 C 39.14604 32.00742 39.02409 32.43806 39.02409 33.00305 Z" fill-rule="evenodd" fill="#0000FF" fill-opacity="1" stroke="#404040" stroke-opacity="1" stroke-width="0.1" stroke-linecap="round" stroke-linejoin="round"/>
<path id="path_cd550211c4d0b7bee4f4d76b2ff58b21" d="M 43.05898 36.85603 L 43.05898 30.78304 L 43.73697 30.78304 L 43.73697 31.35354 C 43.89682 31.1303 44.07733 30.96287 44.27853 30.85125 C 44.47972 30.73963 44.72363 30.68382 45.01027 30.68382 C 45.38509 30.68382 45.71582 30.78028 46.00244 30.97321 C 46.28908 31.16613 46.50543 31.43829 46.65149 31.78969 C 46.79756 32.14109 46.87061 32.52625 46.87061 32.94518 C 46.87061 33.39441 46.78999 33.79887 46.62875 34.15853 C 46.46753 34.5182 46.23326 34.7938 45.92596 34.98535 C 45.61867 35.1769 45.29552 35.27267 44.95651 35.27267 C 44.70848 35.27267 44.48592 35.22031 44.28886 35.11558 C 44.09181 35.01085 43.92989 34.87856 43.8031 34.7187 L 43.8031 36.85603 L 43.05898 36.85603 Z M 43.73283 33.00305 C 43.73283 33.56805 43.8472 33.98559 44.07596 34.25568 C 44.30472 34.52578 44.5817 34.66082 44.90691 34.66082 C 45.23764 34.66082 45.52083 34.52095 45.75647 34.24121 C 45.99211 33.96147 46.10992 33.52808 46.10992 32.94104 C 46.10992 32.38156 45.99486 31.96264 45.76474 31.68427 C 45.53461 31.40591 45.25969 31.26673 44.93999 31.26673 C 44.62303 31.26673 44.34261 31.41487 44.09869 31.71114 C 43.85478 32.00742 43.73283 32.43806 43.73283 33.00305 Z" fill-rule="evenodd" fill="#0000FF" fill-opacity="1" stroke="#404040" stroke-opacity="1" stroke-width="0.1" stroke-linecap="round" stroke-linejoin="round"/>
<path id="path_5e6ce70a8e0db990187107491cd3e428" d="M 50.77319 33.75959 L 51.54213 33.85468 C 51.42087 34.30391 51.19626 34.65256 50.86829 34.9006 C 50.54031 35.14865 50.12138 35.27267 49.61151 35.27267 C 48.96936 35.27267 48.46017 35.07492 48.08397 34.67943 C 47.70776 34.28393 47.51967 33.72927 47.51967 33.01545 C 47.51967 32.27682 47.70984 31.70356 48.09016 31.29567 C 48.4705 30.88777 48.96384 30.68382 49.57018 30.68382 C 50.15721 30.68382 50.63676 30.88363 51.00883 31.28326 C 51.38091 31.68289 51.56694 32.24513 51.56694 32.96998 C 51.56694 33.01408 51.56557 33.08022 51.56281 33.16841 L 48.2886 33.16841 C 48.31616 33.65073 48.45259 34.02004 48.69788 34.27635 C 48.94318 34.53267 49.2491 34.66082 49.61565 34.66082 C 49.8885 34.66082 50.12138 34.58916 50.31432 34.44585 C 50.50723 34.30254 50.6602 34.07378 50.77319 33.75959 Z M 48.32996 32.55656 L 50.78146 32.55656 C 50.7484 32.18725 50.65468 31.91027 50.50035 31.72561 C 50.26332 31.43898 49.95602 31.29567 49.57845 31.29567 C 49.23669 31.29567 48.94937 31.41004 48.71649 31.6388 C 48.4836 31.86755 48.35475 32.17347 48.32996 32.55656 Z" fill-rule="evenodd" fill="#0000FF" fill-opacity="1" stroke="#404040" stroke-opacity="1" stroke-width="0.1" stroke-linecap="round" stroke-linejoin="round"/>
<path id="path_481dcbeeb00d25b2a5a227a75ac0bbf8" d="M 52.46815 35.17345 L 52.46815 30.78304 L 53.13788 30.78304 L 53.13788 31.44863 C 53.30875 31.13719 53.46654 30.93187 53.61124 30.83265 C 53.75592 30.73343 53.91508 30.68382 54.08871 30.68382 C 54.33952 30.68382 54.59445 30.76375 54.85353 30.9236 L 54.59721 31.61399 C 54.41531 31.50651 54.23341 31.45276 54.05151 31.45276 C 53.8889 31.45276 53.74283 31.50168 53.6133 31.59952 C 53.48376 31.69736 53.39143 31.8331 53.33632 32.00673 C 53.25363 32.27131 53.2123 32.5607 53.2123 32.87489 L 53.2123 35.17345 L 52.46815 35.17345 Z" fill-rule="evenodd" fill="#0000FF" fill-opacity="1" stroke="#404040" stroke-opacity="1" stroke-width="0.1" stroke-linecap="round" stroke-linejoin="round"/>
<path id="path_d6613e487003a95ddd166aeef79cc7c5" d="M 57.76807 35.17345 L 57.76807 29.11286 L 58.57008 29.11286 L 58.57008 31.60159 L 61.72026 31.60159 L 61.72026 29.11286 L 62.52226 29.11286 L 62.52226 35.17345 L 61.72026 35.17345 L 61.72026 32.31679 L 58.57008 32.31679 L 58.57008 35.17345 L 57.76807 35.17345 Z" fill-rule="evenodd" fill="#0000FF" fill-opacity="1" stroke="#404040" stroke-opacity="1" stroke-width="0.1" stroke-linecap="round" stroke-linejoin="round"/>
<path id="path_fbc69de33df7c9195449be56eda4c9b9" d="M 66.76797 33.75959 L 67.53691 33.85468 C 67.41565 34.30391 67.19104 34.65256 66.86307 34.9006 C 66.5351 35.14865 66.11617 35.27267 65.60629 35.27267 C 64.96414 35.27267 64.45496 35.07492 64.07875 34.67943 C 63.70255 34.28393 63.51445 33.72927 63.51445 33.01545 C 63.51445 32.27682 63.70462 31.70356 64.08495 31.29567 C 64.46529 30.88777 64.95862 30.68382 65.56496 30.68382 C 66.15199 30.68382 66.63155 30.88363 67.00362 31.28326 C 67.37569 31.68289 67.56172 32.24513 67.56172 32.96998 C 67.56172 33.01408 67.56035 33.08022 67.55759 33.16841 L 64.28339 33.16841 C 64.31094 33.65073 64.44737 34.02004 64.69266 34.27635 C 64.93796 34.53267 65.24388 34.66082 65.61043 34.66082 C 65.88329 34.66082 66.11617 34.58916 66.3091 34.44585 C 66.50201 34.30254 66.65498 34.07378 66.76797 33.75959 Z M 64.32474 32.55656 L 66.77625 32.55656 C 66.74318 32.18725 66.64946 31.91027 66.49513 31.72561 C 66.2581 31.43898 65.95081 31.29567 65.57323 31.29567 C 65.23148 31.29567 64.94415 31.41004 64.71127 31.6388 C 64.47838 31.86755 64.34953 32.17347 64.32474 32.55656 Z" fill-rule="evenodd" fill="#0000FF" fill-opacity="1" stroke="#404040" stroke-opacity="1" stroke-width="0.1" stroke-linecap="round" stroke-linejoin="round"/>
<path id="path_cd1a049f1cb33aa5b5ecb5ca8b36372c" d="M 71.33615 34.63189 C 71.06055 34.86615 70.79529 35.03151 70.54034 35.12798 C 70.28542 35.22444 70.01187 35.27267 69.71973 35.27267 C 69.23741 35.27267 68.86674 35.15485 68.60768 34.9192 C 68.3486 34.68356 68.21906 34.38246 68.21906 34.01591 C 68.21906 33.80093 68.26799 33.60456 68.36583 33.4268 C 68.46367 33.24903 68.59181 33.1064 68.75029 32.99892 C 68.90875 32.89143 69.08722 32.81013 69.28564 32.755 C 69.43172 32.71642 69.65221 32.67921 69.9471 32.64338 C 70.54793 32.57172 70.9903 32.48629 71.27417 32.38707 C 71.27692 32.2851 71.27827 32.22033 71.27827 32.19276 C 71.27827 31.8896 71.20801 31.676 71.06744 31.55198 C 70.87727 31.38386 70.59477 31.2998 70.21996 31.2998 C 69.86993 31.2998 69.61156 31.36112 69.44481 31.48377 C 69.27808 31.60641 69.15474 31.82345 69.07481 32.13489 L 68.34721 32.03567 C 68.41336 31.72424 68.52222 31.47274 68.6738 31.2812 C 68.82539 31.08965 69.04449 30.9422 69.33113 30.83885 C 69.61775 30.7355 69.94986 30.68382 70.32744 30.68382 C 70.70227 30.68382 71.00682 30.72792 71.24109 30.81611 C 71.47536 30.9043 71.64761 31.01524 71.75786 31.14891 C 71.86809 31.28258 71.94525 31.45138 71.98935 31.65533 C 72.01414 31.78211 72.02655 32.01086 72.02655 32.34159 L 72.02655 33.33378 C 72.02655 34.02555 72.0424 34.46307 72.0741 34.64635 C 72.10579 34.82964 72.16849 35.00533 72.26219 35.17345 L 71.485 35.17345 C 71.40784 35.01912 71.3582 34.83859 71.33615 34.63189 Z M 71.27414 32.96998 C 71.00406 33.08022 70.59891 33.17393 70.05873 33.2511 C 69.75281 33.2952 69.53645 33.3448 69.40967 33.39993 C 69.2829 33.45505 69.18506 33.53566 69.11615 33.64177 C 69.04726 33.74788 69.0128 33.8657 69.0128 33.99523 C 69.0128 34.19367 69.08791 34.35904 69.23811 34.49133 C 69.38831 34.62362 69.60811 34.68976 69.89749 34.68976 C 70.18413 34.68976 70.43906 34.62706 70.66231 34.50166 C 70.88554 34.37626 71.04953 34.2047 71.15425 33.98697 C 71.23419 33.81885 71.27414 33.5708 71.27414 33.24283 L 71.27414 32.96998 Z" fill-rule="evenodd" fill="#0000FF" fill-opacity="1" stroke="#404040" stroke-opacity="1" stroke-width="0.1" stroke-linecap="round" stroke-linejoin="round"/>
<path id="path_1dfc041c0806830ad14061ff78015b2c" d="M 76.02832 35.17345 L 76.02832 34.61948 C 75.74997 35.05494 75.3407 35.27267 74.80051 35.27267 C 74.45049 35.27267 74.12872 35.17621 73.83519 34.98328 C 73.54167 34.79036 73.3143 34.52095 73.15308 34.17507 C 72.99184 33.82918 72.91122 33.43162 72.91122 32.98238 C 72.91122 32.54417 72.98427 32.1466 73.13034 31.78969 C 73.27641 31.43278 73.49551 31.15924 73.78766 30.96907 C 74.0798 30.7789 74.40639 30.68382 74.76744 30.68382 C 75.03201 30.68382 75.26765 30.73963 75.47437 30.85125 C 75.68106 30.96287 75.84918 31.10825 75.97873 31.2874 L 75.97873 29.11286 L 76.71872 29.11286 L 76.71872 35.17345 L 76.02832 35.17345 Z M 73.67604 32.98238 C 73.67604 33.54462 73.79454 33.96491 74.03157 34.24328 C 74.26859 34.52164 74.54832 34.66082 74.87079 34.66082 C 75.196 34.66082 75.47229 34.52784 75.69968 34.26188 C 75.92703 33.99592 76.04074 33.59009 76.04074 33.04439 C 76.04074 32.44357 75.92499 32.0026 75.69348 31.72148 C 75.46196 31.44036 75.17671 31.2998 74.83771 31.2998 C 74.50699 31.2998 74.2307 31.43485 74.00883 31.70494 C 73.78697 31.97504 73.67604 32.40085 73.67604 32.98238 Z" fill-rule="evenodd" fill="#0000FF" fill-opacity="1" stroke="#404040" stroke-opacity="1" stroke-width="0.1" stroke-linecap="round" stroke-linejoin="round"/>
<path id="path_ee3972bc9ddf43e908ceb421c3ca5131" d="M 32.10364 54.19445 L 32.4633 52.43332 L 31.76465 52.43332 L 31.76465 51.81734 L 32.58733 51.81734 L 32.89325 50.31667 L 31.76465 50.31667 L 31.76465 49.70068 L 33.01727 49.70068 L 33.37694 47.92715 L 33.99706 47.92715 L 33.63739 49.70068 L 34.93962 49.70068 L 35.29929 47.92715 L 35.92354 47.92715 L 35.56387 49.70068 L 36.27907 49.70068 L 36.27907 50.31667 L 35.43985 50.31667 L 35.12979 51.81734 L 36.27907 51.81734 L 36.27907 52.43332 L 35.00577 52.43332 L 34.6461 54.19445 L 34.02599 54.19445 L 34.38152 52.43332 L 33.08342 52.43332 L 32.72375 54.19445 L 32.10364 54.19445 Z M 33.20744 51.81734 L 34.50554 51.81734 L 34.8156 50.31667 L 33.51337 50.31667 L 33.20744 51.81734 Z" fill-rule="evenodd" fill="#0000FF" fill-opacity="1" stroke="#404040" stroke-opacity="1" stroke-width="0.1" stroke-linecap="round" stroke-linejoin="round"/>
<path id="path_2829915278a901ec21d1a7aa7c28a1bd" d="M 36.73795 52.5036 L 37.51929 52.43745 C 37.57716 52.81779 37.71153 53.10373 37.92236 53.29528 C 38.13321 53.48683 38.38745 53.5826 38.6851 53.5826 C 39.0434 53.5826 39.34656 53.44755 39.5946 53.17746 C 39.84265 52.90736 39.96667 52.54908 39.96667 52.10259 C 39.96667 51.67816 39.84747 51.3433 39.60907 51.09801 C 39.37068 50.85272 39.05855 50.73007 38.6727 50.73007 C 38.43292 50.73007 38.21657 50.78451 38.02365 50.89337 C 37.83072 51.00224 37.67914 51.14349 37.56889 51.31712 L 36.87024 51.22617 L 37.45728 48.11319 L 40.47104 48.11319 L 40.47104 48.82426 L 38.05258 48.82426 L 37.726 50.45309 C 38.0898 50.19953 38.47151 50.07275 38.87114 50.07275 C 39.4003 50.07275 39.84679 50.25603 40.21059 50.62259 C 40.57439 50.98915 40.75629 51.46043 40.75629 52.03645 C 40.75629 52.5849 40.59644 53.05895 40.27673 53.45858 C 39.88812 53.94916 39.35759 54.19445 38.6851 54.19445 C 38.1339 54.19445 37.68396 54.04011 37.33533 53.73143 C 36.98668 53.42275 36.78755 53.01347 36.73795 52.5036 Z" fill-rule="evenodd" fill="#0000FF" fill-opacity="1" stroke="#404040" stroke-opacity="1" stroke-width="0.1" stroke-linecap="round" stroke-linejoin="round"/>
</defs>
<g>
<use xlink:href="#path_f8afabdeae6d3123ae3bdd50b4f5402d"/>
</g>
<g>
<use xlink:href="#path_047599e26c112a510c4596c200eb074e"/>
</g>
<g>
<use xlink:href="#path_734bd03c436a4229642d0f1e3728f71a"/>
</g>
<g>
<use xlink:href="#path_d252a08021e0e6d411471f01629287e7"/>
</g>
<g>
<use xlink:href="#path_a4b59e25b0d28fd2d1798ca5e1eb4cc7"/>
</g>
<g>
<use xlink:href="#path_437ffcc02b275022ff237721c3528489"/>
</g>
<g>
<use xlink:href="#path_db43c5161e15a5da3a92501aca8d9027"/>
</g>
<g>
<use xlink:href="#path_b44f3a1e4b3dc264f950845cb53b667c"/>
</g>
<g>
<use xlink:href="#path_a3bf8bb1dabe7879b6b05a223c5148d5"/>
</g>
<g>
<use xlink:href="#path_5e8a094a70996c62a08afe3b94ea1f7c"/>
</g>
<g>
<use xlink:href="#path_7284ac15a20f6e3cbac69b853ec019f5"/>
</g>
<g>
<use xlink:href="#path_9245321f0a96eed3ddf1d60e3092655b"/>
</g>
<g>
<use xlink:href="#path_f57d4ae3be9763e8f49a42a5f22d8ee2"/>
</g>
<g>
<use xlink:href="#path_91daccdaa40b368c2ecfc4e97bbc3e82"/>
</g>
<g>
<use xlink:href="#path_60304ec8d70d247386c79a9a74c67f23"/>
</g>
<g>
<use xlink:href="#path_52d01eb1c51b82731ed0591fa752e419"/>
</g>
<g>
<use xlink:href="#path_e64ce8f68beb1f3d139b9dc6713c6e1b"/>
</g>
<g>
<use xlink:href="#path_46f42006202fe5da9d6d5bfe576e2e0d"/>
</g>
<g>
<use xlink:href="#path_c4f2f7de37fbfeb9dacada5c2cdecfd3"/>
</g>
<g>
<use xlink:href="#path_9a24761f2da5e00ff07f9f76d47e1c93"/>
</g>
<g>
<use xlink:href="#path_1b92b44ddba259f5ff2ab5ffc588de4d"/>
</g>
<g>
<use xlink:href="#path_4028e7640842ab00ae1bafdc73f9a53f"/>
</g>
<g>
<use xlink:href="#path_224706c63424ebaa7326d7ee774988de"/>
</g>
<g>
<use xlink:href="#path_8a49a7bc03ab429916a21270561256ea"/>
</g>
<g>
<use xlink:href="#path_9c0c3d4afe8416b5fa7dc17a8cc58074"/>
</g>
<g>
<use xlink:href="#path_a1789901bb12e9939c52c39a890765d1"/>
</g>
<g>
<use xlink:href="#path_572b87ce4b348fb5b769d45bbde61307"/>
</g>
<g>
<use xlink:href="#path_ccb40d6f264112e282ad3fd0724e2449"/>
</g>
<g>
<use xlink:href="#path_d8a978419d726b36c295b03738960f92"/>
</g>
<g>
<use xlink:href="#path_ca8f94786df4f2560f16aeacbed821f0"/>
</g>
<g>
<g>
<use xlink:href="#path_055c178eec8d0fd00b21c042fc4cc5d1"/>
</g>
<g>
<use xlink:href="#path_fb6679221fcda9854f6bcea99d11437a"/>
</g>
<g>
<use xlink:href="#path_cd550211c4d0b7bee4f4d76b2ff58b21"/>
</g>
<g>
<use xlink:href="#path_5e6ce70a8e0db990187107491cd3e428"/>
</g>
<g>
<use xlink:href="#path_481dcbeeb00d25b2a5a227a75ac0bbf8"/>
</g>
<g>
<use xlink:href="#path_d6613e487003a95ddd166aeef79cc7c5"/>
</g>
<g>
<use xlink:href="#path_fbc69de33df7c9195449be56eda4c9b9"/>
</g>
<g>
<use xlink:href="#path_cd1a049f1cb33aa5b5ecb5ca8b36372c"/>
</g>
<g>
<use xlink:href="#path_1dfc041c0806830ad14061ff78015b2c"/>
</g>
<g>
<use xlink:href="#path_ee3972bc9ddf43e908ceb421c3ca5131"/>
</g>
<g>
<use xlink:href="#path_2829915278a901ec21d1a7aa7c28a1bd"/>
</g>
</g>
</svg>