<?xml version="1.0" encoding="utf-8"?>
<!DOCTYPE svg PUBLIC "-//W3C//DTD SVG 1.1//EN" "http://www.w3.org/Graphics/SVG/1.1/DTD/svg11.dtd">
<!-- exported from Silhouette Studio® Business Edition V4.4.920ssbe -->
<svg version="1.1" xmlns="http://www.w3.org/2000/svg" xmlns:xlink="http://www.w3.org/1999/xlink" width="304.8mm" height="609.6mm" viewBox="0 0 304.8 609.6">
<defs>
<path id="path_ad8425d2f1c5fad279f306a18fd3760f" d="M 279.6362 215.8523 L 259.5074 218.8481 M 275.6847 290.7074 L 278.3056 275.2381 M 212.0432 241.4611 L 193.813 262.3854 M 161.2268 264.0294 L 177.2215 260.4539 L 177.2214 260.4539 L 161.2267 225.6714 M 220.964 571.4271 L 242.8486 550.7286 M 263.5655 532.5098 L 271.4987 511.2414 L 271.4987 511.2414 L 281.5013 488.0388 M 174.1123 72.64606 L 271.1774 95.41736 M 260.0715 191.3838 L 160.371 191.3838 M 272.0468 144.1439 L 181.5098 133.6662 M 254.4945 358.896 L 205.5806 358.896 L 205.5806 358.896 L 254.7324 331.0298 L 254.7324 331.0298 L 277.437 333.185 M 196.1798 336.7917 L 146.4094 333.8447 M 127.0943 379.854 L 78.56409 354.9055 L 78.5641 354.9054 L 26.42606 357.8454 L 26.42606 357.8454 L 26.63502 294.3087 M 152.3866 63.79059 L 26.63501 49.65979 M 129.8097 333.4549 L 78.56409 354.9055 M 146.9809 443.6302 L 195.5665 425.6062 L 195.5665 425.6063 L 152.7865 391.6498 M 46.10514 372.5558 L 48.78526 430.1054 L 48.78526 430.1054 L 20.875 436.2635 M 100.5852 535.1268 L 65.01283 531.5575 L 65.01283 531.5575 L 79.65703 411.9932 M 151.7137 577.1235 L 162.9086 551.1638 M 190.6813 491.3061 L 151.7137 521.6688" fill-rule="evenodd" fill="none" fill-opacity="1" stroke="#0000FF" stroke-opacity="1" stroke-width="1.058333" stroke-linecap="round" stroke-linejoin="round"/>
<path id="path_f2a172d1435fd339a539102479a25893" d="M 253.5507 220.0856 L 235.8168 281.0865 L 235.8168 281.0865 L 266.7257 315.1262 M 212.0432 241.4609 L 235.8168 281.0866 L 235.8168 281.0866 L 263.8413 256.9605 L 263.8412 256.9605 L 279.6362 215.8524 M 263.8413 256.9605 L 278.3056 275.238 L 278.3056 275.238 L 235.8168 281.0866 L 235.8168 281.0866 L 275.6847 290.7073 M 161.2267 225.6713 L 161.2267 264.0294 M 272.7309 440.8009 L 220.9641 495.8564 L 220.964 495.8564 L 242.8486 550.7285 M 263.5655 532.5096 L 220.9641 495.8564 L 220.964 495.8564 L 281.5013 488.0388 M 271.4987 511.2413 L 220.9641 495.8564 M 214.6342 32.4765 L 174.1123 72.64606 M 190.6472 239.7466 L 260.0715 191.3838 M 181.5098 133.6661 L 160.371 191.3838 M 205.5806 358.8959 L 231.1348 381.452 M 281.4853 390.6545 L 247.6761 390.6443 L 247.6761 390.6443 L 254.4945 358.8959 L 254.4945 358.8959 L 254.7324 331.0297 M 254.4945 358.8959 L 277.437 333.185 M 147.7609 285.8185 L 205.1784 279.6185 L 205.1784 279.6185 L 196.1798 336.7917 L 196.1798 336.7916 L 198.3687 394.6271 L 198.3687 394.6271 L 202.3394 397.9492 M 196.1799 336.7916 L 209.5134 276.7883 M 146.4094 333.8446 L 142.0841 381.6947 M 26.42606 357.8453 L 74.42027 366.311 M 120.4004 437.3357 L 136.2204 429.8001 L 136.2204 429.8001 L 195.5665 425.6062 L 195.5665 425.6062 L 203.8336 448.4651 L 203.8336 448.4651 L 146.9809 443.6302 M 136.2204 429.8001 L 127.0943 379.854 L 127.0944 379.8539 L 129.8098 333.4548 M 131.1748 317.7782 L 131.8493 292.5839 M 243.7784 390.4292 L 232.1162 384.8201 L 232.1162 384.8201 L 212.3378 420.6404 L 212.3378 420.6404 L 253.6512 413.6873 L 253.6511 413.6873 L 208.7686 450.0296 M 44.9546 528.1203 L 43.04368 495.7967 L 43.04368 495.7967 L 48.78526 430.1053 M 42.75428 528.1755 L 27.88186 454.1324 L 27.88186 454.1324 L 43.04368 495.7967 M 106.1434 510.544 L 108.4742 494.9816 M 120.0654 449.9717 L 79.65702 411.9931 M 196.2357 507.8916 L 190.6813 491.306 M 155.7204 470.0453 L 151.7137 521.6688" fill-rule="evenodd" fill="none" fill-opacity="1" stroke="#FF0000" stroke-opacity="1" stroke-width="1.058333" stroke-linecap="round" stroke-linejoin="round"/>
<path id="path_d94ae9c98efcdf962c0bbc0c3463fc69" d="M 201.6232 246.3585 L 205.4978 241.9112 L 205.4978 241.9112 L 212.0433 241.4609 L 253.5507 220.0857 L 263.8412 256.9605 L 263.8413 256.9604 L 259.5074 218.8481 L 263.4132 213.5763 L 263.4131 213.5763 L 274.3645 211.9465 L 274.3646 211.9465 L 279.6363 215.8522 L 279.6362 215.8522 L 278.3056 275.2379 L 278.3056 275.2381 L 281.8283 282.2188 L 281.8283 282.2187 L 281.0338 286.9081 L 281.0338 286.9081 L 275.6847 290.7073 L 275.6847 290.7072 L 266.7258 315.1262 L 266.7257 315.1262 L 260.1724 314.8102 L 247.1404 300.4583" fill-rule="evenodd" fill="none" fill-opacity="1" stroke="#414141" stroke-opacity="1" stroke-width="1.058333" stroke-linecap="round" stroke-linejoin="round"/>
<path id="path_f03afc0ff4e052b9f1a9a5487e3f2da2" d="M 245.0986 298.2097 L 236.8299 289.1034 L 236.8299 289.1035 L 235.8169 281.0865 L 235.8169 281.0865 L 193.813 262.3852 L 193.813 262.3853 L 193.3626 255.8398 L 193.3626 255.8397 L 199.7258 248.5362" fill-rule="evenodd" fill="none" fill-opacity="1" stroke="#414141" stroke-opacity="1" stroke-width="1.058333" stroke-linecap="round" stroke-linejoin="round"/>
<path id="path_ece22a163adbd3d344d6c428bbe69cbc" d="M 173.9381 242.2092 L 178.3107 251.718 L 178.3107 251.718 L 177.2215 260.4537 L 177.2215 260.4537 L 173.7061 265.9934 L 166.7665 267.5447 L 166.7664 267.5447 L 161.2267 264.0293 L 161.2267 264.0293 L 156.5874 259.39 L 156.5875 259.39 L 156.5875 251.1569" fill-rule="evenodd" fill="none" fill-opacity="1" stroke="#414141" stroke-opacity="1" stroke-width="1.058333" stroke-linecap="round" stroke-linejoin="round"/>
<path id="path_15defad83d38ef17948c6afdc68d91b5" d="M 156.5875 248.2765 L 156.5875 234.5811 L 156.5875 234.5811 L 161.2268 225.6711 L 167.3801 227.9479 L 167.3801 227.948 L 172.6928 239.5011" fill-rule="evenodd" fill="none" fill-opacity="1" stroke="#414141" stroke-opacity="1" stroke-width="1.058333" stroke-linecap="round" stroke-linejoin="round"/>
<path id="path_7af27843c4f7ea370d45891b2f36b9ce" d="M 246.9352 461.4626 L 266.173 441.0028 L 272.7309 440.8008 L 281.5013 488.0388 L 283.925 494.1357 L 277.5956 508.8175 L 271.4987 511.2413 L 271.4988 511.2413 L 274.2242 517.2095 L 270.405 527.4484 L 270.4049 527.4484 L 263.5655 532.5097 L 242.8486 550.7285 L 242.8487 550.7285 L 242.666 557.2869 L 234.9408 564.5934" fill-rule="evenodd" fill="none" fill-opacity="1" stroke="#414141" stroke-opacity="1" stroke-width="1.058333" stroke-linecap="round" stroke-linejoin="round"/>
<path id="path_8325bcee221e33ff314b4eca9f5e2216" d="M 233.1674 566.2707 L 227.5226 571.6097 L 220.9641 571.427 L 220.9641 571.427 L 220.9641 495.8564 L 220.9641 495.8564 L 225.5525 484.2038 L 225.5524 484.2038 L 245.0088 463.5114" fill-rule="evenodd" fill="none" fill-opacity="1" stroke="#414141" stroke-opacity="1" stroke-width="1.058333" stroke-linecap="round" stroke-linejoin="round"/>
<path id="path_8f85ea202a4583811f08abb22c106c88" d="M 190.8698 49.50177 L 204.3709 36.1181 L 214.6342 32.47632 L 214.6342 32.47662 L 271.1775 95.41733 L 272.0468 144.1438 L 272.0468 144.1438 L 260.0715 191.3838 L 260.0715 191.3838 L 258.9166 197.8423 L 258.9166 197.8422 L 226.3789 220.5089" fill-rule="evenodd" fill="none" fill-opacity="1" stroke="#414141" stroke-opacity="1" stroke-width="1.058333" stroke-linecap="round" stroke-linejoin="round"/>
<path id="path_273519f13aa030311ca75aa64e112467" d="M 223.9837 222.1776 L 197.1058 240.9014 L 197.1058 240.9014 L 190.6472 239.7466 L 190.6472 239.7465 L 160.371 191.3838 L 166.5841 160.9295 L 166.5841 160.9294 L 181.5098 133.666 L 181.5098 133.6661 L 174.1123 72.64606 L 174.1123 72.646 L 174.141 66.08508 L 174.141 66.08514 L 188.8115 51.54211" fill-rule="evenodd" fill="none" fill-opacity="1" stroke="#414141" stroke-opacity="1" stroke-width="1.058333" stroke-linecap="round" stroke-linejoin="round"/>
<path id="path_2ee5ff00c8fb7ef0b9250ff3d11d6d75" d="M 254.4945 358.8958 L 231.1348 381.4519 L 231.1349 381.4519 L 224.5866 381.86 L 224.5866 381.86 L 205.9886 365.4441 L 205.5806 358.8958 L 205.5805 358.8958 L 207.3283 352.572 L 207.3283 352.572 L 227.1527 341.3328" fill-rule="evenodd" fill="none" fill-opacity="1" stroke="#414141" stroke-opacity="1" stroke-width="1.058333" stroke-linecap="round" stroke-linejoin="round"/>
<path id="path_0c00175c8b698b4995f6f684fe1d8b2c" d="M 229.6768 339.9017 L 248.2684 329.3614 L 248.2684 329.3614 L 254.7324 331.0297 L 254.7324 331.0298 L 274.8454 320.5063 L 274.8454 320.5061 L 277.437 333.1849 L 277.437 333.1849 L 281.4853 390.6544 L 269.6735 416.6812 L 247.6761 390.6443 L 247.6761 390.6443 L 244.1144 385.1342 L 244.1144 385.1343 L 248.5079 364.6766" fill-rule="evenodd" fill="none" fill-opacity="1" stroke="#414141" stroke-opacity="1" stroke-width="1.058333" stroke-linecap="round" stroke-linejoin="round"/>
<path id="path_7aebf052dac5941c1afd5f881e607c5e" d="M 207.6834 306.4106 L 201.7151 333.269 L 201.715 333.2691 L 196.1798 336.7916 L 202.3394 397.949 L 197.3771 399.8464 L 197.3771 399.8464 L 198.3687 394.6272 L 142.0841 381.6948 L 137.8813 376.6566 L 137.8812 376.6566 L 139.4436 359.3719" fill-rule="evenodd" fill="none" fill-opacity="1" stroke="#414141" stroke-opacity="1" stroke-width="1.058333" stroke-linecap="round" stroke-linejoin="round"/>
<path id="path_c11f22a92f830a1534de70e921f35a2e" d="M 139.712 356.4031 L 141.3712 338.0476 L 141.3712 338.0474 L 146.4094 333.8446 L 147.761 285.8184 L 147.761 285.8185 L 155.434 280.3236 L 200.0679 275.504 L 200.0679 275.504 L 205.1785 279.6184 L 205.1784 279.6184 L 209.5134 276.7882 L 209.5134 276.7882 L 213.0359 282.3235 L 213.0359 282.3235 L 208.2805 303.7237" fill-rule="evenodd" fill="none" fill-opacity="1" stroke="#414141" stroke-opacity="1" stroke-width="1.058333" stroke-linecap="round" stroke-linejoin="round"/>
<path id="path_6d5c3147e6d0fa20c14d66efa2158341" d="M 98.2858 53.04272 L 148.2944 58.66229 L 148.2944 58.66229 L 152.3866 63.79059 L 152.3866 63.79047 L 170.9879 107.7108 L 170.9879 107.7108 L 131.8493 292.5839 L 131.8493 292.5838 L 136.3628 297.3457 L 135.9366 313.2646 L 135.9366 313.2646 L 131.1748 317.7781 L 131.1748 317.7781 L 129.8098 333.4548 L 129.8098 333.4548 L 134.0331 340.6992 L 133.1154 356.3797" fill-rule="evenodd" fill="none" fill-opacity="1" stroke="#414141" stroke-opacity="1" stroke-width="1.058333" stroke-linecap="round" stroke-linejoin="round"/>
<path id="path_e340b05f68f38e88219028ff73f7d011" d="M 132.9415 359.3504 L 131.9968 375.4935 L 131.9968 375.4935 L 127.0944 379.8538 L 127.0944 379.8538 L 152.7866 391.6498 L 159.3045 390.9001 L 159.3045 390.9002 L 193.3002 417.884 L 193.3002 417.884 L 195.5666 425.606 L 195.5665 425.606 L 212.3379 420.6404 L 212.3379 420.6404 L 210.519 414.3366 L 225.8123 386.6388 L 225.8123 386.6389 L 232.1163 384.8201 L 232.1162 384.8201 L 238.3079 382.6501 L 238.3079 382.6501 L 241.6083 384.2375 L 241.6084 384.2375 L 243.7784 390.4291 L 243.7784 390.4291 L 253.6512 413.6873 L 253.6511 413.6873 L 252.9651 420.2122 L 234.4232 435.226" fill-rule="evenodd" fill="none" fill-opacity="1" stroke="#414141" stroke-opacity="1" stroke-width="1.058333" stroke-linecap="round" stroke-linejoin="round"/>
<path id="path_b3d52567f36333da56ff00806904af33" d="M 232.3372 436.9151 L 215.2937 450.7157 L 208.7687 450.0297 L 208.7687 450.0297 L 203.8337 448.4651 L 203.8337 448.465 L 198.8179 452.6946 L 198.8179 452.6946 L 151.2104 448.6459 L 151.2104 448.6459 L 146.9809 443.6301 L 136.2205 429.8001 L 136.2204 429.8002 L 134.0271 435.9836 L 134.0271 435.9835 L 126.5839 439.5289 L 126.5839 439.529 L 120.4004 437.3358 L 74.42027 366.3109 L 69.04559 370.0737 L 30.18898 363.22 L 30.18898 363.22 L 26.42607 357.8453 L 21.80203 353.1906 L 21.89232 325.7388" fill-rule="evenodd" fill="none" fill-opacity="1" stroke="#414141" stroke-opacity="1" stroke-width="1.058333" stroke-linecap="round" stroke-linejoin="round"/>
<path id="path_d798d1cff3921faf5129ca00e7de103b" d="M 21.90211 322.7615 L 21.98048 298.9326 L 21.98048 298.9326 L 26.63503 294.3086 L 26.63503 294.3085 L 26.63503 49.65973 L 26.63503 49.65979 L 37.20559 46.17883 L 37.20559 46.17889 L 95.32545 52.7099" fill-rule="evenodd" fill="none" fill-opacity="1" stroke="#414141" stroke-opacity="1" stroke-width="1.058333" stroke-linecap="round" stroke-linejoin="round"/>
<path id="path_a3030143498059aea89cd3dd8ba8f101" d="M 43.0437 495.7968 L 42.7543 528.1755 L 42.7543 528.1755 L 37.29221 524.5406 L 24.24701 459.5945 L 24.24702 459.5945 L 27.88187 454.1324 L 20.87502 436.2634 L 24.40579 430.7334 L 24.40578 430.7334 L 43.25533 426.5745 L 43.25533 426.5745 L 48.78527 430.1052 L 43.8575 424.0193 L 43.02501 406.1435" fill-rule="evenodd" fill="none" fill-opacity="1" stroke="#414141" stroke-opacity="1" stroke-width="1.058333" stroke-linecap="round" stroke-linejoin="round"/>
<path id="path_d46162b86d4c99e91828d1d77375d52e" d="M 42.8869 403.1779 L 41.68668 377.4059 L 46.10516 372.5557 L 79.65704 411.9931 L 86.21487 411.7898 L 102.944 427.5129" fill-rule="evenodd" fill="none" fill-opacity="1" stroke="#414141" stroke-opacity="1" stroke-width="1.058333" stroke-linecap="round" stroke-linejoin="round"/>
<path id="path_f20a370c8701107589adee324cd049b6" d="M 105.0994 429.5388 L 115.4036 439.2234 L 120.0654 449.9716 L 108.4742 494.9816 L 108.4742 494.9816 L 112.3752 500.2569 L 111.4187 506.6431 L 111.4187 506.6431 L 106.1434 510.5439 L 100.5852 535.1268 L 95.50591 539.2798 L 84.97201 538.2228" fill-rule="evenodd" fill="none" fill-opacity="1" stroke="#414141" stroke-opacity="1" stroke-width="1.058333" stroke-linecap="round" stroke-linejoin="round"/>
<path id="path_6661e7fa50d53864f4301ae03a798f8f" d="M 82.42253 537.9669 L 69.16579 536.6365 L 69.1658 536.6365 L 65.01285 531.5574 L 65.01284 531.5574 L 44.95461 528.1204 L 44.95461 528.1204 L 42.8246 520.3091" fill-rule="evenodd" fill="none" fill-opacity="1" stroke="#414141" stroke-opacity="1" stroke-width="1.058333" stroke-linecap="round" stroke-linejoin="round"/>
<path id="path_397b5e722ebcd352c4d1d4356a903489" d="M 149.0681 495.8017 L 150.631 475.6658 L 155.7205 470.0454 L 155.7204 470.0454 L 190.6814 491.306 L 190.6814 491.306 L 196.5538 494.2319 L 196.5537 494.2319 L 199.1616 502.0192 L 196.2357 507.8916 L 196.2358 507.8916 L 162.9086 551.1636 L 165.3317 557.261 L 165.3316 557.261 L 162.1636 564.6071" fill-rule="evenodd" fill="none" fill-opacity="1" stroke="#414141" stroke-opacity="1" stroke-width="1.058333" stroke-linecap="round" stroke-linejoin="round"/>
<path id="path_1d521856fc4cdc93fe815e33f3fa6c84" d="M 160.9811 567.3493 L 157.8109 574.7005 L 157.811 574.7004 L 151.7138 577.1234 L 151.7138 521.6688 L 151.7138 521.6688 L 147.4473 516.6844 L 148.8533 498.5699" fill-rule="evenodd" fill="none" fill-opacity="1" stroke="#414141" stroke-opacity="1" stroke-width="1.058333" stroke-linecap="round" stroke-linejoin="round"/>
<path id="path_ae4b3b515443b7a73baaf81ab0fbe73b" d="M 81.71741 18.15625 L 81.71741 12.09566 L 82.51942 12.09566 L 82.51941 17.44105 L 85.50423 17.44105 L 85.50423 18.15625 L 81.71741 18.15625 Z" fill-rule="evenodd" fill="#0000FF" fill-opacity="1" stroke="#404040" stroke-opacity="1" stroke-width="0.1" stroke-linecap="round" stroke-linejoin="round"/>
<path id="path_f4e2c982af16ee8944b92faf11ea548a" d="M 86.08714 15.96104 C 86.08714 15.148 86.31314 14.5458 86.76514 14.15444 C 87.14272 13.82923 87.60298 13.66661 88.14592 13.66661 C 88.7495 13.66661 89.24284 13.86436 89.62593 14.25986 C 90.00902 14.65535 90.20056 15.20174 90.20056 15.89903 C 90.20056 16.46402 90.11581 16.90844 89.94632 17.23228 C 89.77682 17.55612 89.53015 17.80761 89.20631 17.98675 C 88.88248 18.16589 88.52902 18.25547 88.14592 18.25547 C 87.53133 18.25547 87.03455 18.05841 86.65558 17.66429 C 86.27663 17.27017 86.08714 16.70243 86.08714 15.96104 Z M 86.85196 15.96104 C 86.85196 16.52328 86.97459 16.94427 87.21989 17.22401 C 87.46518 17.50375 87.77385 17.64362 88.14592 17.64362 C 88.51524 17.64362 88.82254 17.50306 89.06783 17.22194 C 89.31311 16.94082 89.43576 16.51226 89.43576 15.93624 C 89.43576 15.39329 89.31242 14.98195 89.06577 14.70221 C 88.81909 14.42247 88.51248 14.2826 88.14592 14.2826 C 87.77385 14.2826 87.46518 14.42178 87.21989 14.70014 C 86.97459 14.97851 86.85196 15.39881 86.85196 15.96104 Z" fill-rule="evenodd" fill="#0000FF" fill-opacity="1" stroke="#404040" stroke-opacity="1" stroke-width="0.1" stroke-linecap="round" stroke-linejoin="round"/>
<path id="path_c0571dc7fd1416b24494a1ccbd3c7adb" d="M 91.88313 18.15625 L 90.53957 13.76583 L 91.3085 13.76583 L 92.00716 16.30004 L 92.26761 17.24261 C 92.27864 17.19576 92.35443 16.89397 92.49498 16.33725 L 93.19365 13.76583 L 93.95845 13.76583 L 94.61577 16.31244 L 94.83488 17.15166 L 95.08705 16.30417 L 95.83946 13.76583 L 96.56293 13.76583 L 95.19041 18.15625 L 94.41733 18.15625 L 93.71867 15.52696 L 93.54918 14.77869 L 92.66035 18.15625 L 91.88313 18.15625 Z" fill-rule="evenodd" fill="#0000FF" fill-opacity="1" stroke="#404040" stroke-opacity="1" stroke-width="0.1" stroke-linecap="round" stroke-linejoin="round"/>
<path id="path_7bcef7a595c7b94bf82f08f6d1cc8bb5" d="M 100.1927 16.74239 L 100.9616 16.83747 C 100.8403 17.28671 100.6157 17.63535 100.2878 17.8834 C 99.95978 18.13144 99.54083 18.25547 99.03096 18.25547 C 98.38881 18.25547 97.87964 18.05772 97.50343 17.66223 C 97.12723 17.26673 96.93912 16.71207 96.93912 15.99825 C 96.93912 15.25962 97.12929 14.68636 97.50961 14.27846 C 97.88995 13.87056 98.38329 13.66661 98.98962 13.66661 C 99.57666 13.66661 100.0562 13.86643 100.4283 14.26606 C 100.8004 14.66569 100.9864 15.22793 100.9864 15.95277 C 100.9864 15.99687 100.985 16.06301 100.9823 16.15121 L 97.70805 16.15121 C 97.73561 16.63352 97.87204 17.00283 98.11732 17.25915 C 98.36263 17.51546 98.66855 17.64362 99.0351 17.64362 C 99.30795 17.64362 99.54083 17.57196 99.73376 17.42865 C 99.92668 17.28533 100.0797 17.05658 100.1927 16.74239 Z M 97.74939 15.53936 L 100.2009 15.53936 C 100.1678 15.17005 100.0741 14.89307 99.9198 14.70841 C 99.68277 14.42178 99.37547 14.27846 98.99789 14.27846 C 98.65614 14.27846 98.36884 14.39284 98.13596 14.6216 C 97.90306 14.85035 97.7742 15.15627 97.74939 15.53936 Z" fill-rule="evenodd" fill="#0000FF" fill-opacity="1" stroke="#404040" stroke-opacity="1" stroke-width="0.1" stroke-linecap="round" stroke-linejoin="round"/>
<path id="path_68fd130cdb2fe695e451f64b0e369f75" d="M 101.8876 18.15625 L 101.8876 13.76583 L 102.5573 13.76583 L 102.5573 14.43142 C 102.7282 14.11999 102.886 13.91466 103.0307 13.81544 C 103.1754 13.71622 103.3345 13.66661 103.5082 13.66661 C 103.759 13.66661 104.0139 13.74654 104.273 13.90639 L 104.0167 14.59679 C 103.8348 14.4893 103.6529 14.43556 103.471 14.43556 C 103.3084 14.43556 103.1623 14.48448 103.0328 14.58232 C 102.9032 14.68016 102.8109 14.8159 102.7558 14.98953 C 102.6731 15.25411 102.6318 15.5435 102.6318 15.85769 L 102.6318 18.15625 L 101.8876 18.15625 Z" fill-rule="evenodd" fill="#0000FF" fill-opacity="1" stroke="#404040" stroke-opacity="1" stroke-width="0.1" stroke-linecap="round" stroke-linejoin="round"/>
<path id="path_21f804044735053a2a65d56d92924ae5" d="M 86.07474 25.49014 L 86.87674 25.69271 C 86.70863 26.35141 86.40614 26.85371 85.96931 27.19959 C 85.53249 27.54548 84.99849 27.71842 84.36736 27.71842 C 83.71417 27.71842 83.18294 27.58544 82.77367 27.31948 C 82.3644 27.05352 82.05295 26.66836 81.83936 26.164 C 81.62576 25.65964 81.51897 25.11807 81.51897 24.5393 C 81.51897 23.90816 81.63954 23.35764 81.88071 22.88773 C 82.12186 22.41782 82.46498 22.06091 82.9101 21.81699 C 83.35519 21.57308 83.84508 21.45113 84.37976 21.45113 C 84.98608 21.45113 85.49596 21.60546 85.90936 21.91414 C 86.32278 22.22282 86.61079 22.65691 86.77339 23.21639 L 85.98378 23.40242 C 85.84323 22.96145 85.63928 22.64037 85.37193 22.43917 C 85.1046 22.23798 84.76836 22.13739 84.36322 22.13739 C 83.89745 22.13739 83.50815 22.24901 83.19534 22.47225 C 82.88252 22.69549 82.66273 22.99521 82.53595 23.37141 C 82.40918 23.74762 82.34578 24.13553 82.34578 24.53516 C 82.34578 25.05054 82.42088 25.50048 82.57109 25.88495 C 82.7213 26.26942 82.95488 26.55674 83.27182 26.74691 C 83.58878 26.93707 83.9319 27.03216 84.30121 27.03216 C 84.75044 27.03216 85.13078 26.90263 85.44221 26.64356 C 85.75365 26.38449 85.96449 26.00002 86.07474 25.49014 Z" fill-rule="evenodd" fill="#0000FF" fill-opacity="1" stroke="#404040" stroke-opacity="1" stroke-width="0.1" stroke-linecap="round" stroke-linejoin="round"/>
<path id="path_50c5142c1d552e8c814a6d77c99771ab" d="M 87.76971 27.61507 L 87.76971 21.55448 L 88.51384 21.55448 L 88.51384 23.72902 C 88.86111 23.32663 89.29933 23.12544 89.82849 23.12544 C 90.1537 23.12544 90.4362 23.18951 90.67598 23.31767 C 90.91576 23.44583 91.08731 23.62291 91.19067 23.8489 C 91.29402 24.0749 91.3457 24.40287 91.3457 24.83282 L 91.3457 27.61507 L 90.60156 27.61507 L 90.60158 24.83282 C 90.60158 24.46075 90.52095 24.18997 90.35971 24.02047 C 90.19849 23.85097 89.97043 23.76622 89.67552 23.76622 C 89.45505 23.76622 89.24765 23.82341 89.05334 23.93779 C 88.85904 24.05217 88.72055 24.2072 88.63786 24.40287 C 88.55519 24.59856 88.51384 24.86865 88.51384 25.21316 L 88.51384 27.61507 L 87.76971 27.61507 Z" fill-rule="evenodd" fill="#0000FF" fill-opacity="1" stroke="#404040" stroke-opacity="1" stroke-width="0.1" stroke-linecap="round" stroke-linejoin="round"/>
<path id="path_aa49d9c2e763f2ad4191db3657f921d0" d="M 92.48257 22.41024 L 92.48257 21.55448 L 93.2267 21.55448 L 93.2267 22.41024 L 92.48257 22.41024 Z M 92.48257 27.61507 L 92.48257 23.22466 L 93.2267 23.22466 L 93.2267 27.61507 L 92.48257 27.61507 Z" fill-rule="evenodd" fill="#0000FF" fill-opacity="1" stroke="#404040" stroke-opacity="1" stroke-width="0.1" stroke-linecap="round" stroke-linejoin="round"/>
<path id="path_de6635daabc0c281c4c6e6f37060fdb9" d="M 94.35945 27.61507 L 94.35945 23.22466 L 95.02917 23.22466 L 95.02917 23.8489 C 95.35162 23.36659 95.8174 23.12544 96.4265 23.12544 C 96.69107 23.12544 96.9343 23.17298 97.15616 23.26806 C 97.37802 23.36315 97.54407 23.48786 97.65431 23.6422 C 97.76456 23.79654 97.84174 23.97982 97.88583 24.19203 C 97.91339 24.32983 97.92717 24.571 97.92717 24.9155 L 97.92717 27.61507 L 97.18303 27.61507 L 97.18303 24.94444 C 97.18303 24.64127 97.1541 24.41459 97.09622 24.26438 C 97.03835 24.11418 96.93567 23.99429 96.78822 23.90472 C 96.64078 23.81514 96.46783 23.77036 96.26939 23.77036 C 95.95245 23.77036 95.67891 23.87095 95.44878 24.07214 C 95.21864 24.27333 95.10358 24.65505 95.10358 25.21729 L 95.10358 27.61507 L 94.35945 27.61507 Z" fill-rule="evenodd" fill="#0000FF" fill-opacity="1" stroke="#404040" stroke-opacity="1" stroke-width="0.1" stroke-linecap="round" stroke-linejoin="round"/>
<path id="path_b872cf6e422ccb107ca60a1a953ef2d2" d="M 81.5231 37.17724 L 81.88275 35.41611 L 81.18411 35.41611 L 81.18411 34.80014 L 82.00679 34.80014 L 82.31271 33.29946 L 81.18411 33.29946 L 81.18411 32.68348 L 82.43674 32.68348 L 82.7964 30.90995 L 83.41652 30.90995 L 83.05685 32.68348 L 84.35909 32.68348 L 84.71875 30.90995 L 85.343 30.90995 L 84.98334 32.68348 L 85.69853 32.68348 L 85.69853 33.29946 L 84.85931 33.29946 L 84.54926 34.80014 L 85.69853 34.80014 L 85.69853 35.41611 L 84.42523 35.41611 L 84.06557 37.17724 L 83.44545 37.17724 L 83.80098 35.41611 L 82.50288 35.41611 L 82.14322 37.17724 L 81.5231 37.17724 Z M 82.62691 34.80014 L 83.925 34.80014 L 84.23506 33.29946 L 82.93283 33.29946 L 82.62691 34.80014 Z" fill-rule="evenodd" fill="#0000FF" fill-opacity="1" stroke="#404040" stroke-opacity="1" stroke-width="0.1" stroke-linecap="round" stroke-linejoin="round"/>
<path id="path_4ab9ceacc74db9018b6a286f7041b6a9" d="M 88.96034 37.07389 L 88.2162 37.07389 L 88.2162 32.33208 C 88.03706 32.50295 87.80211 32.67383 87.51134 32.84471 C 87.22058 33.01558 86.95944 33.14374 86.72794 33.22918 L 86.72794 32.50985 C 87.1441 32.31416 87.5079 32.07714 87.81934 31.79878 C 88.13077 31.52042 88.35126 31.25032 88.48079 30.98849 L 88.96034 30.98849 L 88.96034 37.07389 Z" fill-rule="evenodd" fill="#0000FF" fill-opacity="1" stroke="#404040" stroke-opacity="1" stroke-width="0.1" stroke-linecap="round" stroke-linejoin="round"/>
</defs>
<g>
<use xlink:href="#path_ad8425d2f1c5fad279f306a18fd3760f"/>
</g>
<g>
<use xlink:href="#path_f2a172d1435fd339a539102479a25893"/>
</g>
<g>
<use xlink:href="#path_d94ae9c98efcdf962c0bbc0c3463fc69"/>
</g>
<g>
<use xlink:href="#path_f03afc0ff4e052b9f1a9a5487e3f2da2"/>
</g>
<g>
<use xlink:href="#path_ece22a163adbd3d344d6c428bbe69cbc"/>
</g>
<g>
<use xlink:href="#path_15defad83d38ef17948c6afdc68d91b5"/>
</g>
<g>
<use xlink:href="#path_7af27843c4f7ea370d45891b2f36b9ce"/>
</g>
<g>
<use xlink:href="#path_8325bcee221e33ff314b4eca9f5e2216"/>
</g>
<g>
<use xlink:href="#path_8f85ea202a4583811f08abb22c106c88"/>
</g>
<g>
<use xlink:href="#path_273519f13aa030311ca75aa64e112467"/>
</g>
<g>
<use xlink:href="#path_2ee5ff00c8fb7ef0b9250ff3d11d6d75"/>
</g>
<g>
<use xlink:href="#path_0c00175c8b698b4995f6f684fe1d8b2c"/>
</g>
<g>
<use xlink:href="#path_7aebf052dac5941c1afd5f881e607c5e"/>
</g>
<g>
<use xlink:href="#path_c11f22a92f830a1534de70e921f35a2e"/>
</g>
<g>
<use xlink:href="#path_6d5c3147e6d0fa20c14d66efa2158341"/>
</g>
<g>
<use xlink:href="#path_e340b05f68f38e88219028ff73f7d011"/>
</g>
<g>
<use xlink:href="#path_b3d52567f36333da56ff00806904af33"/>
</g>
<g>
<use xlink:href="#path_d798d1cff3921faf5129ca00e7de103b"/>
</g>
<g>
<use xlink:href="#path_a3030143498059aea89cd3dd8ba8f101"/>
</g>
<g>
<use xlink:href="#path_d46162b86d4c99e91828d1d77375d52e"/>
</g>
<g>
<use xlink:href="#path_f20a370c8701107589adee324cd049b6"/>
</g>
<g>
<use xlink:href="#path_6661e7fa50d53864f4301ae03a798f8f"/>
</g>
<g>
<use xlink:href="#path_397b5e722ebcd352c4d1d4356a903489"/>
</g>
<g>
<use xlink:href="#path_1d521856fc4cdc93fe815e33f3fa6c84"/>
</g>
<g>
<g>
<use xlink:href="#path_ae4b3b515443b7a73baaf81ab0fbe73b"/>
</g>
<g>
<use xlink:href="#path_f4e2c982af16ee8944b92faf11ea548a"/>
</g>
<g>
<use xlink:href="#path_c0571dc7fd1416b24494a1ccbd3c7adb"/>
</g>
<g>
<use xlink:href="#path_7bcef7a595c7b94bf82f08f6d1cc8bb5"/>
</g>
<g>
<use xlink:href="#path_68fd130cdb2fe695e451f64b0e369f75"/>
</g>
<g>
<use xlink:href="#path_21f804044735053a2a65d56d92924ae5"/>
</g>
<g>
<use xlink:href="#path_50c5142c1d552e8c814a6d77c99771ab"/>
</g>
<g>
<use xlink:href="#path_aa49d9c2e763f2ad4191db3657f921d0"/>
</g>
<g>
<use xlink:href="#path_de6635daabc0c281c4c6e6f37060fdb9"/>
</g>
<g>
<use xlink:href="#path_b872cf6e422ccb107ca60a1a953ef2d2"/>
</g>
<g>
<use xlink:href="#path_4ab9ceacc74db9018b6a286f7041b6a9"/>
</g>
</g>
</svg>