<?xml version="1.0" encoding="utf-8"?>
<!DOCTYPE svg PUBLIC "-//W3C//DTD SVG 1.1//EN" "http://www.w3.org/Graphics/SVG/1.1/DTD/svg11.dtd">
<!-- exported from Silhouette Studio® Business Edition V4.4.920ssbe -->
<svg version="1.1" xmlns="http://www.w3.org/2000/svg" xmlns:xlink="http://www.w3.org/1999/xlink" width="304.8mm" height="609.6mm" viewBox="0 0 304.8 609.6">
<defs>
<path id="path_e8f51bcb3a37a3cfece7bd714205a84b" d="M 273.3512 372.1707 L 241.1356 371.167 M 193.2943 131.6441 L 253.0283 187.4299 M 193.8226 85.61203 L 258.9963 132.1341 M 220.7915 306.2725 L 259.5989 309.2184 L 259.5984 309.2183 L 204.6091 220.6015 L 204.6091 220.6016 L 247.791 246.3179 M 268.7042 528.4131 L 238.2026 401.9833 M 24.66956 31.90601 L 55.62671 78.49246 L 55.62646 78.49234 L 26.50891 205.248 M 25.78235 351.0212 L 56.43103 456.6452 M 202.5952 350.7344 L 106.9601 342.8839 M 119.7189 570.2652 L 223.5001 573.1748" fill-rule="evenodd" fill="none" fill-opacity="1" stroke="#0000FF" stroke-opacity="1" stroke-width="1.058333" stroke-linecap="round" stroke-linejoin="round"/>
<path id="path_c63af3b4766d548b9bdd4f69e56c4d8c" d="M 259.5984 309.2184 L 241.1355 371.1671 L 241.1355 371.1671 L 267.4579 450.2739 L 267.4584 450.2739 L 273.3514 372.1708 M 193.2944 131.6442 L 193.8226 85.61206 L 193.8225 85.61206 L 281.4825 79.69739 L 281.4828 79.69745 L 258.9963 132.1342 M 204.609 220.6017 L 220.7913 306.2725 M 247.7911 246.318 L 253.0283 187.43 M 238.2028 496.5435 L 238.2582 575.3352 M 26.50916 315.2288 L 73.26184 321.5092 M 196.3972 266.2314 L 186.943 192.8575 M 173.2531 114.6442 L 154.4862 46.77704 M 25.47571 110.6937 L 26.50928 205.2481 M 106.9603 342.8839 L 68.93311 331.9609 M 222.6108 502.7663 L 213.9629 423.8363" fill-rule="evenodd" fill="none" fill-opacity="1" stroke="#FF0000" stroke-opacity="1" stroke-width="1.058333" stroke-linecap="round" stroke-linejoin="round"/>
<path id="path_6711d87101a9c462b18671891d5d56a0" d="M 273.8213 109.3679 L 265.1052 129.692 L 265.105 129.692 L 258.9968 132.1338 L 258.9962 132.1338 L 253.0282 187.4296 L 253.0284 187.4296 L 257.2499 192.4749 L 257.25 192.4749 L 255.8993 207.6628" fill-rule="evenodd" fill="none" fill-opacity="1" stroke="#414141" stroke-opacity="1" stroke-width="1.058333" stroke-linecap="round" stroke-linejoin="round"/>
<path id="path_2b021fbde62319a1fbe94e7754dde2ad" d="M 255.6338 210.6492 L 252.8369 242.0963 L 247.7915 246.3176 L 247.7917 246.3176 L 259.5992 309.218 L 259.599 309.218 L 273.3516 372.1703 L 273.3518 372.1703 L 277.6401 377.1586 L 273.1417 436.7797 L 273.1417 436.7797 L 267.4587 450.2734 L 267.4585 450.2734 L 260.4227 443.8619 L 260.4224 443.8619 L 248.366 407.6285" fill-rule="evenodd" fill="none" fill-opacity="1" stroke="#414141" stroke-opacity="1" stroke-width="1.058333" stroke-linecap="round" stroke-linejoin="round"/>
<path id="path_35ab1da85ffc5f9f2458edc32b7c4a82" d="M 247.4202 404.7864 L 238.1907 377.0488 L 238.1912 377.0488 L 241.136 371.1666 L 220.7917 306.272 L 220.792 306.272 L 212.6025 287.975 L 212.6018 287.975 L 207.1921 259.3342" fill-rule="evenodd" fill="none" fill-opacity="1" stroke="#414141" stroke-opacity="1" stroke-width="1.058333" stroke-linecap="round" stroke-linejoin="round"/>
<path id="path_53d5c848cdb30886d09f6681db53425b" d="M 206.6343 256.381 L 200.9021 226.0353 L 200.9023 226.0353 L 204.6097 220.6013 L 204.6097 220.6011 L 193.2948 131.6437 L 193.2948 131.6438 L 188.7267 124.3687 L 188.7267 124.3687 L 188.8635 112.4695" fill-rule="evenodd" fill="none" fill-opacity="1" stroke="#414141" stroke-opacity="1" stroke-width="1.058333" stroke-linecap="round" stroke-linejoin="round"/>
<path id="path_844f00e9e8e02dc0d6d456517e8e890a" d="M 188.8972 109.5016 L 189.0919 92.49609 L 189.0918 92.49603 L 193.8228 85.61188 L 193.8231 85.61188 L 194.7603 38.62622 L 194.7604 38.62616 L 281.4832 79.69714 L 281.4829 79.69714 L 283.9248 85.80539 L 283.9254 85.80539 L 275.0148 106.5845" fill-rule="evenodd" fill="none" fill-opacity="1" stroke="#414141" stroke-opacity="1" stroke-width="1.058333" stroke-linecap="round" stroke-linejoin="round"/>
<path id="path_ea5eccb9fbc87ce02a5e34a38274659a" d="M 256.4139 457.6319 L 272.1357 522.8002 L 272.1355 522.8002 L 268.7047 528.4129 L 238.2585 575.335 L 233.6022 568.1807 L 233.6022 568.1807 L 233.5728 526.2151" fill-rule="evenodd" fill="none" fill-opacity="1" stroke="#414141" stroke-opacity="1" stroke-width="1.058333" stroke-linecap="round" stroke-linejoin="round"/>
<path id="path_6f668ef859e543d6cf30bdc8f67cb2a7" d="M 233.5704 523.2209 L 233.5549 501.198 L 233.5549 501.198 L 238.2028 496.5432 L 238.2032 496.5432 L 238.2032 401.9831 L 238.2031 401.9832 L 243.8159 405.4141 L 243.8162 405.4141 L 255.7163 454.7401" fill-rule="evenodd" fill="none" fill-opacity="1" stroke="#414141" stroke-opacity="1" stroke-width="1.058333" stroke-linecap="round" stroke-linejoin="round"/>
<path id="path_dc003f0946469735cb503f2a21baaba8" d="M 42.9978 51.08112 L 56.927 72.0437 L 56.92651 72.04376 L 55.62683 78.49234 L 55.62756 78.49234 L 154.4863 46.77698 L 154.4863 46.77704 L 160.209 50.02063 L 160.2097 50.0202 L 176.4966 108.9211 L 176.4967 108.9211 L 173.2533 114.6439 L 173.2533 114.644 L 186.9432 192.8572 L 186.944 192.8572 L 192.1515 196.8762 L 192.1512 196.8762 L 194.6654 216.3883" fill-rule="evenodd" fill="none" fill-opacity="1" stroke="#414141" stroke-opacity="1" stroke-width="1.058333" stroke-linecap="round" stroke-linejoin="round"/>
<path id="path_63da104323d7e7689ea55c9824cc8ed6" d="M 195.0487 219.3625 L 200.4167 261.0232 L 200.4167 261.0233 L 196.3977 266.2311 L 196.3976 266.2311 L 106.7388 300.4214 L 106.7389 300.4214 L 73.26184 321.5089 L 73.26184 321.509 L 68.03247 325.4999 L 68.03284 325.4999 L 49.79407 323.0498" fill-rule="evenodd" fill="none" fill-opacity="1" stroke="#414141" stroke-opacity="1" stroke-width="1.058333" stroke-linecap="round" stroke-linejoin="round"/>
<path id="path_0a56415324bb8259d3ebe513ae371bdd" d="M 46.86182 322.6559 L 30.50037 320.4581 L 30.50012 320.458 L 26.50928 315.2286 L 26.50916 315.2286 L 26.50916 205.2478 L 26.50928 205.2478 L 21.64783 186.0188 L 21.64722 186.0188 L 21.28699 153.0585" fill-rule="evenodd" fill="none" fill-opacity="1" stroke="#414141" stroke-opacity="1" stroke-width="1.058333" stroke-linecap="round" stroke-linejoin="round"/>
<path id="path_45e6c2a4bddd3e7212e5a8be9b5a6800" d="M 21.25916 150.5094 L 20.87549 115.3955 L 20.87549 115.3955 L 25.47595 110.6933 L 25.47595 110.6934 L 24.66992 31.90576 L 24.6698 31.90576 L 31.11841 33.20538 L 31.11914 33.20538 L 41.36548 48.62537" fill-rule="evenodd" fill="none" fill-opacity="1" stroke="#414141" stroke-opacity="1" stroke-width="1.058333" stroke-linecap="round" stroke-linejoin="round"/>
<path id="path_df178768257e30748b7c2d3234c33028" d="M 223.0991 464.5077 L 226.7285 497.6355 L 226.7284 497.6355 L 222.6118 502.7661 L 222.6111 502.7661 L 223.5004 573.1747 L 223.5006 573.1747 L 218.7205 577.694 L 218.7206 577.694 L 168.5638 576.2878" fill-rule="evenodd" fill="none" fill-opacity="1" stroke="#414141" stroke-opacity="1" stroke-width="1.058333" stroke-linecap="round" stroke-linejoin="round"/>
<path id="path_6c14ee9fc9532c917127daa093193eea" d="M 165.6729 576.2067 L 124.2386 575.045 L 124.2386 575.045 L 119.7188 570.265 L 119.7196 570.265 L 56.43152 456.645 L 56.43164 456.645 L 50.66846 453.4739 L 50.66785 453.4739 L 38.95386 413.1041" fill-rule="evenodd" fill="none" fill-opacity="1" stroke="#414141" stroke-opacity="1" stroke-width="1.058333" stroke-linecap="round" stroke-linejoin="round"/>
<path id="path_e3efafa8ed398f53bcf3d9d8d95c8d35" d="M 38.12585 410.2506 L 22.61169 356.7845 L 22.61182 356.7845 L 25.78284 351.021 L 25.78284 351.0209 L 68.93347 331.9606 L 74.68848 328.774 L 74.68835 328.774 L 103.774 337.1287 L 103.7742 337.1287 L 106.9612 342.8837 L 106.9606 342.8837 L 115.6357 338.9286 L 115.636 338.9286 L 198.3406 345.7177 L 198.3402 345.7177 L 202.5957 350.7341 L 202.5959 350.7341 L 213.9634 423.8361 L 213.9634 423.8361 L 219.0935 427.9533 L 219.0938 427.9533 L 222.8022 461.7977" fill-rule="evenodd" fill="none" fill-opacity="1" stroke="#414141" stroke-opacity="1" stroke-width="1.058333" stroke-linecap="round" stroke-linejoin="round"/>
<path id="path_190158f9682e6544061e20180ef85594" d="M 72.65942 9.48204 L 73.46143 9.48204 L 73.46143 12.98362 C 73.46143 13.59271 73.39253 14.0764 73.25473 14.43469 C 73.11693 14.79298 72.86819 15.08443 72.50851 15.30906 C 72.14886 15.53367 71.67688 15.64598 71.09259 15.64598 C 70.52484 15.64598 70.06046 15.54814 69.6994 15.35246 C 69.33836 15.15678 69.08067 14.8736 68.92633 14.5029 C 68.77199 14.13221 68.69484 13.62579 68.69484 12.98362 L 68.69484 9.48204 L 69.49684 9.48204 L 69.49684 12.97949 C 69.49684 13.5059 69.54576 13.89381 69.6436 14.14324 C 69.74144 14.39266 69.90958 14.5849 70.14795 14.71995 C 70.38635 14.85499 70.67781 14.92252 71.02232 14.92252 C 71.61211 14.92252 72.03241 14.78885 72.28322 14.52151 C 72.53401 14.25417 72.65942 13.74016 72.65942 12.97949 L 72.65942 9.48204 Z" fill-rule="evenodd" fill="#0000FF" fill-opacity="1" stroke="#404040" stroke-opacity="1" stroke-width="0.1" stroke-linecap="round" stroke-linejoin="round"/>
<path id="path_003b0701a1979ef03c57e07149ef8f93" d="M 74.70166 17.22521 L 74.70166 11.15222 L 75.37965 11.15222 L 75.37965 11.72272 C 75.53951 11.49948 75.72002 11.33205 75.92122 11.22043 C 76.12241 11.10881 76.36632 11.053 76.65295 11.053 C 77.02777 11.053 77.35851 11.14946 77.64513 11.34239 C 77.93176 11.53531 78.1481 11.80747 78.29417 12.15887 C 78.44025 12.51027 78.51329 12.89543 78.51329 13.31435 C 78.51329 13.76359 78.43268 14.16804 78.27144 14.52771 C 78.11021 14.88737 77.87595 15.16298 77.56865 15.35453 C 77.26135 15.54608 76.9382 15.64185 76.5992 15.64185 C 76.35117 15.64185 76.1286 15.58949 75.93155 15.48475 C 75.7345 15.38002 75.57257 15.24773 75.44579 15.08788 L 75.44579 17.22521 L 74.70166 17.22521 Z M 75.37552 13.37223 C 75.37552 13.93722 75.4899 14.35477 75.71866 14.62486 C 75.94742 14.89495 76.22438 15.03 76.54959 15.03 C 76.88033 15.03 77.16351 14.89013 77.39915 14.61039 C 77.6348 14.33065 77.75261 13.89726 77.75261 13.31022 C 77.75261 12.75074 77.63754 12.33181 77.40742 12.05345 C 77.17729 11.77509 76.90237 11.6359 76.58267 11.6359 C 76.26572 11.6359 75.98529 11.78405 75.74138 12.08032 C 75.49747 12.3766 75.37552 12.80724 75.37552 13.37223 Z" fill-rule="evenodd" fill="#0000FF" fill-opacity="1" stroke="#404040" stroke-opacity="1" stroke-width="0.1" stroke-linecap="round" stroke-linejoin="round"/>
<path id="path_597ed715099280b0442d33e6a43d76d5" d="M 79.41039 17.22521 L 79.41039 11.15222 L 80.08838 11.15222 L 80.08838 11.72272 C 80.24823 11.49948 80.42874 11.33205 80.62994 11.22043 C 80.83113 11.10881 81.07504 11.053 81.36168 11.053 C 81.7365 11.053 82.06723 11.14946 82.35385 11.34239 C 82.64049 11.53531 82.85684 11.80747 83.0029 12.15887 C 83.14897 12.51027 83.22202 12.89543 83.22202 13.31435 C 83.22202 13.76359 83.1414 14.16804 82.98016 14.52771 C 82.81894 14.88737 82.58467 15.16298 82.27737 15.35453 C 81.97008 15.54608 81.64693 15.64185 81.30792 15.64185 C 81.05989 15.64185 80.83733 15.58949 80.64027 15.48475 C 80.44322 15.38002 80.2813 15.24773 80.15451 15.08788 L 80.15451 17.22521 L 79.41039 17.22521 Z M 80.08424 13.37223 C 80.08424 13.93722 80.19861 14.35477 80.42737 14.62486 C 80.65613 14.89495 80.93311 15.03 81.25832 15.03 C 81.58905 15.03 81.87224 14.89013 82.10788 14.61039 C 82.34352 14.33065 82.46133 13.89726 82.46133 13.31022 C 82.46133 12.75074 82.34627 12.33181 82.11615 12.05345 C 81.88602 11.77509 81.6111 11.6359 81.2914 11.6359 C 80.97444 11.6359 80.69402 11.78405 80.4501 12.08032 C 80.20619 12.3766 80.08424 12.80724 80.08424 13.37223 Z" fill-rule="evenodd" fill="#0000FF" fill-opacity="1" stroke="#404040" stroke-opacity="1" stroke-width="0.1" stroke-linecap="round" stroke-linejoin="round"/>
<path id="path_07c21b72f7a753dfe9521fd6db074fc3" d="M 87.1246 14.12877 L 87.89354 14.22385 C 87.77228 14.67309 87.54765 15.02173 87.2197 15.26978 C 86.89172 15.51783 86.47279 15.64185 85.96292 15.64185 C 85.32077 15.64185 84.8116 15.4441 84.43539 15.04861 C 84.05919 14.65311 83.87108 14.09845 83.87108 13.38463 C 83.87108 12.646 84.06125 12.07274 84.44157 11.66485 C 84.82191 11.25695 85.31526 11.053 85.9216 11.053 C 86.50864 11.053 86.98817 11.25281 87.36024 11.65244 C 87.73232 12.05207 87.91837 12.61431 87.91837 13.33916 C 87.91837 13.38325 87.91698 13.4494 87.91422 13.53759 L 84.64001 13.53759 C 84.66757 14.01991 84.804 14.38922 85.04929 14.64553 C 85.29459 14.90184 85.60051 15.03 85.96706 15.03 C 86.23991 15.03 86.47279 14.95835 86.66573 14.81503 C 86.85864 14.67171 87.01161 14.44296 87.1246 14.12877 Z M 84.68138 12.92575 L 87.13289 12.92575 C 87.09982 12.55643 87.00609 12.27945 86.85176 12.09479 C 86.61473 11.80816 86.30743 11.66485 85.92986 11.66485 C 85.5881 11.66485 85.30078 11.77922 85.0679 12.00798 C 84.83501 12.23673 84.70618 12.54265 84.68138 12.92575 Z" fill-rule="evenodd" fill="#0000FF" fill-opacity="1" stroke="#404040" stroke-opacity="1" stroke-width="0.1" stroke-linecap="round" stroke-linejoin="round"/>
<path id="path_50ef51d3cc6ae66d62d085c875159311" d="M 88.81956 15.54263 L 88.81956 11.15222 L 89.48929 11.15222 L 89.48929 11.81781 C 89.66016 11.50637 89.81795 11.30104 89.96265 11.20183 C 90.10733 11.10261 90.26649 11.053 90.44012 11.053 C 90.69093 11.053 90.94586 11.13292 91.20494 11.29278 L 90.94862 11.98317 C 90.76672 11.87568 90.58482 11.82194 90.40292 11.82194 C 90.24031 11.82194 90.09424 11.87086 89.96471 11.9687 C 89.83517 12.06654 89.74284 12.20228 89.68773 12.37591 C 89.60504 12.64049 89.56371 12.92988 89.56371 13.24407 L 89.56371 15.54263 L 88.81956 15.54263 Z" fill-rule="evenodd" fill="#0000FF" fill-opacity="1" stroke="#404040" stroke-opacity="1" stroke-width="0.1" stroke-linecap="round" stroke-linejoin="round"/>
<path id="path_dd781c50bc07d1e1c75f8e53c618ef8d" d="M 94.11948 15.54263 L 94.11948 9.48204 L 94.92149 9.48204 L 94.92149 11.97077 L 98.07166 11.97077 L 98.07167 9.48204 L 98.87367 9.48204 L 98.87367 15.54263 L 98.07166 15.54263 L 98.07166 12.68597 L 94.92149 12.68597 L 94.92149 15.54263 L 94.11948 15.54263 Z" fill-rule="evenodd" fill="#0000FF" fill-opacity="1" stroke="#404040" stroke-opacity="1" stroke-width="0.1" stroke-linecap="round" stroke-linejoin="round"/>
<path id="path_c75a5a88e334fddf8d83499781f12ea8" d="M 103.1194 14.12877 L 103.8883 14.22385 C 103.7671 14.67309 103.5424 15.02173 103.2145 15.26978 C 102.8865 15.51783 102.4676 15.64185 101.9577 15.64185 C 101.3156 15.64185 100.8064 15.4441 100.4302 15.04861 C 100.054 14.65311 99.86586 14.09845 99.86586 13.38463 C 99.86586 12.646 100.056 12.07274 100.4364 11.66485 C 100.8167 11.25695 101.31 11.053 101.9164 11.053 C 102.5034 11.053 102.983 11.25281 103.355 11.65244 C 103.7271 12.05207 103.9131 12.61431 103.9131 13.33916 C 103.9131 13.38325 103.9118 13.4494 103.909 13.53759 L 100.6348 13.53759 C 100.6624 14.01991 100.7988 14.38922 101.0441 14.64553 C 101.2894 14.90184 101.5953 15.03 101.9618 15.03 C 102.2347 15.03 102.4676 14.95835 102.6605 14.81503 C 102.8534 14.67171 103.0064 14.44296 103.1194 14.12877 Z M 100.6761 12.92575 L 103.1277 12.92575 C 103.0946 12.55643 103.0009 12.27945 102.8465 12.09479 C 102.6095 11.80816 102.3022 11.66485 101.9246 11.66485 C 101.5829 11.66485 101.2956 11.77922 101.0627 12.00798 C 100.8298 12.23673 100.7009 12.54265 100.6761 12.92575 Z" fill-rule="evenodd" fill="#0000FF" fill-opacity="1" stroke="#404040" stroke-opacity="1" stroke-width="0.1" stroke-linecap="round" stroke-linejoin="round"/>
<path id="path_cdd078ec45aa46fe200d79a87a4e33a4" d="M 107.6876 15.00106 C 107.412 15.23533 107.1467 15.40069 106.8918 15.49715 C 106.6368 15.59362 106.3633 15.64185 106.0711 15.64185 C 105.5888 15.64185 105.2181 15.52403 104.9591 15.28838 C 104.7 15.05274 104.5705 14.75164 104.5705 14.38508 C 104.5705 14.17011 104.6194 13.97374 104.7172 13.79597 C 104.8151 13.61821 104.9432 13.47558 105.1017 13.3681 C 105.2602 13.26061 105.4386 13.1793 105.6371 13.12418 C 105.7831 13.0856 106.0036 13.04839 106.2985 13.01256 C 106.8993 12.9409 107.3417 12.85547 107.6255 12.75625 C 107.6283 12.65427 107.6297 12.58951 107.6297 12.56194 C 107.6297 12.25878 107.5594 12.04518 107.4189 11.92116 C 107.2287 11.75304 106.9462 11.66898 106.5714 11.66898 C 106.2213 11.66898 105.963 11.7303 105.7962 11.85295 C 105.6295 11.97559 105.5061 12.19263 105.4262 12.50407 L 104.6986 12.40485 C 104.7648 12.09341 104.8736 11.84192 105.0252 11.65038 C 105.1768 11.45883 105.3959 11.31138 105.6825 11.20803 C 105.9692 11.10468 106.3013 11.053 106.6788 11.053 C 107.0537 11.053 107.3582 11.0971 107.5925 11.18529 C 107.8268 11.27348 107.999 11.38442 108.1093 11.51809 C 108.2195 11.65175 108.2967 11.82056 108.3408 12.02451 C 108.3656 12.15129 108.378 12.38004 108.378 12.71077 L 108.378 13.70296 C 108.378 14.39473 108.3938 14.83225 108.4255 15.01553 C 108.4572 15.19881 108.5199 15.37451 108.6136 15.54263 L 107.8364 15.54263 C 107.7592 15.38829 107.7096 15.20777 107.6876 15.00106 Z M 107.6255 13.33916 C 107.3555 13.4494 106.9503 13.5431 106.4101 13.62028 C 106.1042 13.66437 105.8879 13.71398 105.7611 13.7691 C 105.6343 13.82422 105.5365 13.90484 105.4676 14.01095 C 105.3987 14.11706 105.3642 14.23488 105.3642 14.36441 C 105.3642 14.56285 105.4393 14.72821 105.5895 14.8605 C 105.7397 14.9928 105.9595 15.05894 106.2489 15.05894 C 106.5355 15.05894 106.7905 14.99624 107.0137 14.87084 C 107.237 14.74544 107.4009 14.57387 107.5057 14.35614 C 107.5856 14.18802 107.6255 13.93998 107.6255 13.61201 L 107.6255 13.33916 Z" fill-rule="evenodd" fill="#0000FF" fill-opacity="1" stroke="#404040" stroke-opacity="1" stroke-width="0.1" stroke-linecap="round" stroke-linejoin="round"/>
<path id="path_648d68cc93ac4962c8afce6cc7418eb7" d="M 112.3797 15.54263 L 112.3797 14.98866 C 112.1014 15.42412 111.6921 15.64185 111.1519 15.64185 C 110.8019 15.64185 110.4801 15.54539 110.1866 15.35246 C 109.8931 15.15954 109.6657 14.89013 109.5045 14.54425 C 109.3432 14.19836 109.2626 13.8008 109.2626 13.35156 C 109.2626 12.91334 109.3357 12.51578 109.4818 12.15887 C 109.6278 11.80196 109.8469 11.52842 110.1391 11.33825 C 110.4312 11.14808 110.7578 11.053 111.1189 11.053 C 111.3834 11.053 111.6191 11.10881 111.8258 11.22043 C 112.0325 11.33205 112.2006 11.47743 112.3301 11.65658 L 112.3301 9.48204 L 113.0701 9.48204 L 113.0701 15.54263 L 112.3797 15.54263 Z M 110.0275 13.35156 C 110.0275 13.9138 110.146 14.3341 110.383 14.61246 C 110.62 14.89082 110.8997 15.03 111.2222 15.03 C 111.5474 15.03 111.8237 14.89702 112.0511 14.63106 C 112.2784 14.3651 112.3922 13.95927 112.3922 13.41357 C 112.3922 12.81275 112.2764 12.37177 112.0449 12.09066 C 111.8134 11.80954 111.5281 11.66898 111.1891 11.66898 C 110.8584 11.66898 110.5821 11.80403 110.3602 12.07412 C 110.1384 12.34422 110.0275 12.77003 110.0275 13.35156 Z" fill-rule="evenodd" fill="#0000FF" fill-opacity="1" stroke="#404040" stroke-opacity="1" stroke-width="0.1" stroke-linecap="round" stroke-linejoin="round"/>
<path id="path_5f48696c86b292c70d176f29e48730c1" d="M 68.45505 25.1048 L 68.81471 23.34368 L 68.11606 23.34368 L 68.11606 22.7277 L 68.93875 22.7277 L 69.24466 21.22702 L 68.11606 21.22702 L 68.11606 20.61104 L 69.36868 20.61104 L 69.72835 18.83751 L 70.34846 18.83751 L 69.9888 20.61104 L 71.29103 20.61104 L 71.6507 18.83751 L 72.27495 18.83751 L 71.91528 20.61104 L 72.63049 20.61104 L 72.63049 21.22702 L 71.79126 21.22702 L 71.4812 22.7277 L 72.63049 22.7277 L 72.63049 23.34368 L 71.35718 23.34368 L 70.99751 25.1048 L 70.3774 25.1048 L 70.73293 23.34368 L 69.43483 23.34368 L 69.07516 25.1048 L 68.45505 25.1048 Z M 69.55885 22.7277 L 70.85695 22.7277 L 71.16701 21.22702 L 69.86478 21.22702 L 69.55885 22.7277 Z" fill-rule="evenodd" fill="#0000FF" fill-opacity="1" stroke="#404040" stroke-opacity="1" stroke-width="0.1" stroke-linecap="round" stroke-linejoin="round"/>
<path id="path_c3b1c2d06ed24b74e29f5ccb3f5017d5" d="M 73.13896 19.73461 L 73.13896 19.01941 L 77.06223 19.01941 L 77.06223 19.59818 C 76.67638 20.00883 76.29396 20.55454 75.91501 21.23529 C 75.53606 21.91603 75.24323 22.61607 75.03651 23.33541 C 74.88768 23.84253 74.7926 24.39787 74.75127 25.00145 L 73.98645 25.00145 C 73.99472 24.52465 74.08842 23.94863 74.26758 23.2734 C 74.44672 22.59816 74.70372 21.94704 75.03857 21.32003 C 75.37344 20.69303 75.72966 20.16455 76.10724 19.73461 L 73.13896 19.73461 Z" fill-rule="evenodd" fill="#0000FF" fill-opacity="1" stroke="#404040" stroke-opacity="1" stroke-width="0.1" stroke-linecap="round" stroke-linejoin="round"/>
</defs>
<g>
<use xlink:href="#path_e8f51bcb3a37a3cfece7bd714205a84b"/>
</g>
<g>
<use xlink:href="#path_c63af3b4766d548b9bdd4f69e56c4d8c"/>
</g>
<g>
<use xlink:href="#path_6711d87101a9c462b18671891d5d56a0"/>
</g>
<g>
<use xlink:href="#path_2b021fbde62319a1fbe94e7754dde2ad"/>
</g>
<g>
<use xlink:href="#path_35ab1da85ffc5f9f2458edc32b7c4a82"/>
</g>
<g>
<use xlink:href="#path_53d5c848cdb30886d09f6681db53425b"/>
</g>
<g>
<use xlink:href="#path_844f00e9e8e02dc0d6d456517e8e890a"/>
</g>
<g>
<use xlink:href="#path_ea5eccb9fbc87ce02a5e34a38274659a"/>
</g>
<g>
<use xlink:href="#path_6f668ef859e543d6cf30bdc8f67cb2a7"/>
</g>
<g>
<use xlink:href="#path_dc003f0946469735cb503f2a21baaba8"/>
</g>
<g>
<use xlink:href="#path_63da104323d7e7689ea55c9824cc8ed6"/>
</g>
<g>
<use xlink:href="#path_0a56415324bb8259d3ebe513ae371bdd"/>
</g>
<g>
<use xlink:href="#path_45e6c2a4bddd3e7212e5a8be9b5a6800"/>
</g>
<g>
<use xlink:href="#path_df178768257e30748b7c2d3234c33028"/>
</g>
<g>
<use xlink:href="#path_6c14ee9fc9532c917127daa093193eea"/>
</g>
<g>
<use xlink:href="#path_e3efafa8ed398f53bcf3d9d8d95c8d35"/>
</g>
<g>
<g>
<use xlink:href="#path_190158f9682e6544061e20180ef85594"/>
</g>
<g>
<use xlink:href="#path_003b0701a1979ef03c57e07149ef8f93"/>
</g>
<g>
<use xlink:href="#path_597ed715099280b0442d33e6a43d76d5"/>
</g>
<g>
<use xlink:href="#path_07c21b72f7a753dfe9521fd6db074fc3"/>
</g>
<g>
<use xlink:href="#path_50ef51d3cc6ae66d62d085c875159311"/>
</g>
<g>
<use xlink:href="#path_dd781c50bc07d1e1c75f8e53c618ef8d"/>
</g>
<g>
<use xlink:href="#path_c75a5a88e334fddf8d83499781f12ea8"/>
</g>
<g>
<use xlink:href="#path_cdd078ec45aa46fe200d79a87a4e33a4"/>
</g>
<g>
<use xlink:href="#path_648d68cc93ac4962c8afce6cc7418eb7"/>
</g>
<g>
<use xlink:href="#path_5f48696c86b292c70d176f29e48730c1"/>
</g>
<g>
<use xlink:href="#path_c3b1c2d06ed24b74e29f5ccb3f5017d5"/>
</g>
</g>
</svg>