<?xml version="1.0" encoding="utf-8"?>
<!DOCTYPE svg PUBLIC "-//W3C//DTD SVG 1.1//EN" "http://www.w3.org/Graphics/SVG/1.1/DTD/svg11.dtd">
<!-- exported from Silhouette Studio® Business Edition V4.4.920ssbe -->
<svg version="1.1" xmlns="http://www.w3.org/2000/svg" xmlns:xlink="http://www.w3.org/1999/xlink" width="304.8mm" height="609.6mm" viewBox="0 0 304.8 609.6">
<defs>
<path id="path_c95728ac80536f7411db8f50740216b7" d="M 169.2618 59.82922 L 216.5961 124.5385 L 216.5961 124.5385 L 137.6946 170.6078" fill-rule="evenodd" fill="none" fill-opacity="1" stroke="#FF0000" stroke-opacity="1" stroke-width="1.058333" stroke-linecap="round" stroke-linejoin="round"/>
<path id="path_a1326c8373574484eb4e51288922d949" d="M 129.256 94.90906 L 216.5961 124.5385 L 216.5963 124.5384 L 90.22449 124.5384" fill-rule="evenodd" fill="none" fill-opacity="1" stroke="#FF0000" stroke-opacity="1" stroke-width="1.058333" stroke-linecap="round" stroke-linejoin="round"/>
<path id="path_faa20a47bb797b72ce2b8bb974307767" d="M 83.20062 550.1807 L 79.59064 470.0881 L 79.59064 470.0881 L 166.9308 440.4587" fill-rule="evenodd" fill="none" fill-opacity="1" stroke="#FF0000" stroke-opacity="1" stroke-width="1.058333" stroke-linecap="round" stroke-linejoin="round"/>
<path id="path_494772e92c0b33d045069c40f230786a" d="M 205.9625 470.0881 L 79.5907 470.0881 L 79.59052 470.088 L 158.4919 516.1575" fill-rule="evenodd" fill="none" fill-opacity="1" stroke="#FF0000" stroke-opacity="1" stroke-width="1.058333" stroke-linecap="round" stroke-linejoin="round"/>
<path id="path_7a2cdc1dfffad2f16f9d1a52a156cd1a" d="M 273.5304 202.7924 L 272.0046 251.5569 L 272.0049 251.5569 L 158.0772 285.1005 L 158.0771 285.1004 L 141.3934 346.712" fill-rule="evenodd" fill="none" fill-opacity="1" stroke="#FF0000" stroke-opacity="1" stroke-width="1.058333" stroke-linecap="round" stroke-linejoin="round"/>
<path id="path_722aa88279a2ccee4be684b0ab6ba8d2" d="M 208.3713 519.7763 L 273.7141 428.5646 L 273.7141 428.5646 L 273.1909 384.2817 L 273.191 384.2817 L 159.105 357.4457" fill-rule="evenodd" fill="none" fill-opacity="1" stroke="#FF0000" stroke-opacity="1" stroke-width="1.058333" stroke-linecap="round" stroke-linejoin="round"/>
<path id="path_4bb40bd6f8c630344021c458b5895b8c" d="M 271.8684 295.4042 L 271.8184 339.8303 L 271.8184 339.8303 L 150.9507 351.9675" fill-rule="evenodd" fill="none" fill-opacity="1" stroke="#FF0000" stroke-opacity="1" stroke-width="1.058333" stroke-linecap="round" stroke-linejoin="round"/>
<path id="path_87aa86762d79cf345d9be25fad9c8f34" d="M 25.80084 400.7761 L 25.2428 357.0137 L 25.24286 357.0137 L 91.13739 447.8277 L 91.13739 447.8277 L 25.8009 400.7761 L 25.80084 400.7761 Z" fill-rule="evenodd" fill="none" fill-opacity="1" stroke="#FF0000" stroke-opacity="1" stroke-width="1.058333" stroke-linecap="round" stroke-linejoin="round"/>
<path id="path_eb71d1ba1b9816be7796d1b666c3921d" d="M 139.4186 285.2011 L 25.4975 312.7286 L 25.49756 312.7287 L 26.60046 268.2696 L 26.60034 268.2696 L 147.5392 279.6737" fill-rule="evenodd" fill="none" fill-opacity="1" stroke="#FF0000" stroke-opacity="1" stroke-width="1.058333" stroke-linecap="round" stroke-linejoin="round"/>
<path id="path_4d878ad41cba697064af829d975b6eb7" d="M 25.87842 179.9989 L 140.0076 212.8511" fill-rule="evenodd" fill="none" fill-opacity="1" stroke="#FF0000" stroke-opacity="1" stroke-width="1.058333" stroke-linecap="round" stroke-linejoin="round"/>
<path id="path_099797fcdae331646a8e1e146bad3702" d="M 62.89801 64.16943 L 24.05719 131.2447" fill-rule="evenodd" fill="none" fill-opacity="1" stroke="#FF0000" stroke-opacity="1" stroke-width="1.058333" stroke-linecap="round" stroke-linejoin="round"/>
<path id="path_b5790efc574a623cb46da82cf6fa8250" d="M 137.6949 170.6078 L 212.9865 204.631 M 169.2622 59.82904 L 129.2563 94.90903 L 129.2563 94.90903 L 90.22467 124.5385 M 158.4926 516.1576 L 205.9628 470.0882 M 159.1052 357.4456 L 150.9511 351.9675 L 150.9511 351.9675 L 158.0775 285.1005 L 158.0775 285.1005 L 271.8188 339.8303 L 271.8188 339.8303 L 159.1052 357.4456 L 159.1052 357.4456 Z M 168.9572 363.4036 L 179.9789 369.6265 M 273.1913 384.2817 L 190.3864 376.4376 L 190.3862 376.4376 L 207.6593 397.3014 M 273.7145 428.5646 L 224.7514 451.877 L 224.7511 451.877 L 208.3715 519.7766 M 234.2841 135.9538 L 221.2075 210.9586 M 76.42932 139.0934 L 140.0079 212.8511 L 140.0079 212.8511 L 147.5397 279.6736 L 147.5397 279.6737 L 157.0649 274.3604 M 118.6196 297.5084 L 108.2536 304.3824 L 108.2536 304.3824 L 25.4978 312.7286 M 91.10736 325.3505 L 74.34674 380.0288 L 74.34668 380.0288 L 25.2431 357.0137 M 129.6035 291.2188 L 139.419 285.2011 L 139.4189 285.2011 L 26.60065 268.2696 L 26.60065 268.2697 L 140.0079 212.8511" fill-rule="evenodd" fill="none" fill-opacity="1" stroke="#0000FF" stroke-opacity="1" stroke-width="1.058333" stroke-linecap="round" stroke-linejoin="round"/>
<path id="path_a8cea0b033cc98daaea91c0d7a7a61dc" d="M 108.839 104.8528 L 123.0565 94.06006 L 123.0563 94.06012 L 129.256 94.90915 L 129.2563 94.90906 L 131.4584 87.09305 L 131.4582 87.09305 L 163.0176 59.41943 L 163.0178 59.41937 L 169.262 59.82898 L 169.262 59.8291 L 175.4457 60.78802 L 175.4459 60.78802 L 217.5554 118.3547 L 217.5552 118.3547 L 216.5964 124.5385 L 216.5964 124.5384 L 212.9863 204.631 L 212.9863 204.631 L 207.132 206.8412 L 207.1318 206.8411 L 177.3887 193.4007" fill-rule="evenodd" fill="none" fill-opacity="1" stroke="#414141" stroke-opacity="1" stroke-width="1.058333" stroke-linecap="round" stroke-linejoin="round"/>
<path id="path_c2a4e4df2a3f08d3dafca80f93010c72" d="M 174.8379 192.248 L 139.9048 176.4622 L 139.9047 176.4622 L 137.6946 170.6078 L 137.6948 170.6078 L 90.22455 124.5385 L 92.19196 117.4897 L 106.5656 106.5785" fill-rule="evenodd" fill="none" fill-opacity="1" stroke="#414141" stroke-opacity="1" stroke-width="1.058333" stroke-linecap="round" stroke-linejoin="round"/>
<path id="path_9b5b078afd613b417cf09ae4d41c0093" d="M 77.09167 512.9147 L 75.45404 476.5825 L 79.59064 470.0881 L 126.9249 405.3787 L 126.925 405.3787 L 166.9308 440.4586 L 205.9625 470.088 L 205.9623 470.088 L 205.8687 476.345 L 205.8688 476.345 L 187.871 493.8117" fill-rule="evenodd" fill="none" fill-opacity="1" stroke="#414141" stroke-opacity="1" stroke-width="1.058333" stroke-linecap="round" stroke-linejoin="round"/>
<path id="path_893287713d9a83d11599a928f13fff75" d="M 185.6824 495.9358 L 164.7493 516.2512 L 164.7491 516.2512 L 158.4921 516.1574 L 158.4921 516.1573 L 83.20068 550.1805 L 83.20074 550.1805 L 78.58112 545.9594 L 77.21466 515.6404" fill-rule="evenodd" fill="none" fill-opacity="1" stroke="#414141" stroke-opacity="1" stroke-width="1.058333" stroke-linecap="round" stroke-linejoin="round"/>
<path id="path_ec00f978dda47d7917f434f4aed4a198" d="M 223.3542 172.8824 L 229.1649 139.5529 L 229.1649 139.5529 L 234.2839 135.9538 L 234.2839 135.9537 L 273.5308 202.7923 L 273.5306 202.7923 L 277.8149 207.3534 L 277.1995 227.0263" fill-rule="evenodd" fill="none" fill-opacity="1" stroke="#414141" stroke-opacity="1" stroke-width="1.058333" stroke-linecap="round" stroke-linejoin="round"/>
<path id="path_d90309a4d358e48122d48b4e988823a8" d="M 277.1243 229.427 L 276.6158 245.6744 L 272.0048 251.5567 L 272.0049 251.5569 L 271.8684 295.4043 L 271.8684 295.4041 L 276.2856 302.2008 L 276.2858 302.201 L 276.2484 335.4104 L 276.2483 335.4104 L 271.8185 339.8303 L 273.1909 384.2817 L 277.7108 392.2993 L 277.8938 407.7838" fill-rule="evenodd" fill="none" fill-opacity="1" stroke="#414141" stroke-opacity="1" stroke-width="1.058333" stroke-linecap="round" stroke-linejoin="round"/>
<path id="path_3a191d84f37f8376d0648ab3a6880751" d="M 277.9231 410.2592 L 278.0864 424.0876 L 273.7144 428.5645 L 273.714 428.5645 L 273.4214 472.3294 L 273.4215 472.3294 L 208.3715 519.7763 L 205.2342 513.9133 L 211.5815 487.6015" fill-rule="evenodd" fill="none" fill-opacity="1" stroke="#414141" stroke-opacity="1" stroke-width="1.058333" stroke-linecap="round" stroke-linejoin="round"/>
<path id="path_2fd497d4ae89688edd2c3edc06def92c" d="M 212.2629 484.7767 L 219.412 455.1407 L 219.4119 455.1407 L 224.751 451.8769 L 207.6591 397.3013 L 207.659 397.3013 L 201.4289 396.7147 L 201.429 396.7147 L 189.7994 382.6676 L 189.7994 382.6676 L 190.3859 376.4375 L 179.9784 369.6264 L 179.9785 369.6263 L 173.9499 371.304 L 173.95 371.304 L 170.6344 369.432 L 170.6343 369.432 L 168.9567 363.4034 L 168.957 363.4035 L 159.1051 357.4455 L 159.105 357.4456 L 152.9645 358.6509 L 152.1563 358.1078 L 150.9509 351.9675 L 150.9506 351.9675 L 141.3932 346.712 L 141.3936 346.712 L 138.2791 341.2845 L 138.2791 341.2844 L 146.5601 310.7034 L 146.5602 310.7034 L 158.0775 285.1004 L 158.0772 285.1004 L 221.2072 210.9586 L 221.2072 210.9586 L 217.6082 205.8396 L 217.6083 205.8395 L 222.8384 175.8409" fill-rule="evenodd" fill="none" fill-opacity="1" stroke="#414141" stroke-opacity="1" stroke-width="1.058333" stroke-linecap="round" stroke-linejoin="round"/>
<path id="path_acd09bdf3c6feb1a797549aa976af128" d="M 40.92572 93.28394 L 56.49988 66.38849 L 56.49982 66.38849 L 62.89813 64.16925 L 62.89813 64.16919 L 76.42914 139.0934 L 76.42914 139.0934 L 82.66962 139.5559 L 82.66968 139.5559 L 111.6098 173.1294" fill-rule="evenodd" fill="none" fill-opacity="1" stroke="#414141" stroke-opacity="1" stroke-width="1.058333" stroke-linecap="round" stroke-linejoin="round"/>
<path id="path_2914e315aa46aba91c81e1c2698931a3" d="M 113.597 175.4348 L 136.602 202.1231 L 136.6022 202.1231 L 140.0079 212.851 L 140.0078 212.851 L 157.0648 274.3604 L 157.0646 274.3604 L 155.356 280.3801 L 155.3561 280.3801 L 153.5594 281.3823 L 153.5594 281.3824 L 147.5395 279.6736 L 139.4188 285.2011 L 139.4187 285.2011 L 137.959 291.2861 L 137.959 291.2861 L 135.6883 292.6783 L 135.6884 292.6783 L 129.6033 291.2187 L 129.6034 291.2187 L 118.6195 297.5083 L 118.6194 297.5083 L 117.3773 303.6414 L 114.3867 305.6246 L 114.3864 305.6246 L 108.2534 304.3824 L 108.2534 304.3825 L 91.10699 325.3506 L 91.10712 325.3506 L 94.04083 330.8778 L 94.04077 330.8778 L 79.87378 377.095 L 79.8739 377.095 L 74.34656 380.0287 L 74.34637 380.0287 L 91.13739 447.8276 L 91.13745 447.8276 L 82.93152 447.3708 L 63.22632 433.1803" fill-rule="evenodd" fill="none" fill-opacity="1" stroke="#414141" stroke-opacity="1" stroke-width="1.058333" stroke-linecap="round" stroke-linejoin="round"/>
<path id="path_82e18535d8e2466e0abd0dbc269dfd4b" d="M 61.53589 431.963 L 26.80585 406.9525 L 26.80585 406.9524 L 25.80096 400.776 L 25.8009 400.7761 L 21.32001 396.4079 L 21.32013 396.408 L 21.12836 381.368" fill-rule="evenodd" fill="none" fill-opacity="1" stroke="#414141" stroke-opacity="1" stroke-width="1.058333" stroke-linecap="round" stroke-linejoin="round"/>
<path id="path_f0a7693268bccdb57e5803c405e1765f" d="M 21.09125 378.4567 L 20.875 361.4945 L 20.87488 361.4945 L 25.24298 357.0137 L 25.49756 312.7286 L 25.49762 312.7286 L 21.18384 308.1953 L 21.18372 308.1953 L 21.56073 293.0039" fill-rule="evenodd" fill="none" fill-opacity="1" stroke="#414141" stroke-opacity="1" stroke-width="1.058333" stroke-linecap="round" stroke-linejoin="round"/>
<path id="path_a5c4794f10c3305819f897f6e0969bf1" d="M 21.63495 290.0121 L 22.06738 272.5834 L 22.06738 272.5832 L 26.60046 268.2695 L 26.60052 268.2696 L 26.28113 223.8445 L 26.28113 223.8445 L 25.87872 179.9989 L 25.87872 179.999 L 24.05719 131.2446 L 24.05737 131.2444 L 23.35657 123.6245 L 23.35651 123.6245 L 39.49347 95.75723" fill-rule="evenodd" fill="none" fill-opacity="1" stroke="#414141" stroke-opacity="1" stroke-width="1.058333" stroke-linecap="round" stroke-linejoin="round"/>
<path id="path_503b2b89c69ff4f35aade038d1dac06e" d="M 181.5602 9.482042 L 182.3622 9.482042 L 182.3622 12.98363 C 182.3622 13.59272 182.2933 14.07641 182.1555 14.43469 C 182.0177 14.79298 181.7689 15.08444 181.4093 15.30906 C 181.0496 15.53368 180.5776 15.64598 179.9933 15.64598 C 179.4256 15.64598 178.9612 15.54814 178.6001 15.35246 C 178.2391 15.15678 177.9814 14.8736 177.8271 14.50291 C 177.6727 14.13222 177.5956 13.62579 177.5956 12.98363 L 177.5956 9.482042 L 178.3976 9.482042 L 178.3976 12.97949 C 178.3976 13.5059 178.4465 13.89382 178.5443 14.14324 C 178.6422 14.39266 178.8103 14.5849 179.0487 14.71995 C 179.2871 14.85499 179.5785 14.92252 179.923 14.92252 C 180.5128 14.92252 180.9331 14.78885 181.1839 14.52151 C 181.4347 14.25417 181.5602 13.74016 181.5602 12.97949 L 181.5602 9.482042 Z" fill-rule="evenodd" fill="#0000FF" fill-opacity="1" stroke="#404040" stroke-opacity="1" stroke-width="0.1" stroke-linecap="round" stroke-linejoin="round"/>
<path id="path_b61380dd528df6d9124d05a44a3e8fbf" d="M 183.6024 17.22521 L 183.6024 11.15222 L 184.2804 11.15222 L 184.2804 11.72272 C 184.4402 11.49948 184.6207 11.33205 184.8219 11.22043 C 185.0231 11.10881 185.267 11.053 185.5537 11.053 C 185.9285 11.053 186.2592 11.14946 186.5458 11.34239 C 186.8325 11.53531 187.0488 11.80747 187.1949 12.15887 C 187.3409 12.51027 187.414 12.89543 187.414 13.31435 C 187.414 13.76359 187.3334 14.16805 187.1721 14.52771 C 187.0109 14.88738 186.7767 15.16298 186.4694 15.35453 C 186.1621 15.54608 185.8389 15.64185 185.4999 15.64185 C 185.2519 15.64185 185.0293 15.58949 184.8323 15.48476 C 184.6352 15.38003 184.4733 15.24773 184.3465 15.08788 L 184.3465 17.22521 L 183.6024 17.22521 Z M 184.2762 13.37223 C 184.2762 13.93722 184.3906 14.35477 184.6194 14.62486 C 184.8481 14.89496 185.1251 15.03 185.4503 15.03 C 185.781 15.03 186.0642 14.89013 186.2999 14.61039 C 186.5355 14.33065 186.6533 13.89726 186.6533 13.31022 C 186.6533 12.75074 186.5383 12.33182 186.3081 12.05345 C 186.078 11.77509 185.8031 11.63591 185.4834 11.63591 C 185.1664 11.63591 184.886 11.78405 184.6421 12.08032 C 184.3982 12.3766 184.2762 12.80724 184.2762 13.37223 Z" fill-rule="evenodd" fill="#0000FF" fill-opacity="1" stroke="#404040" stroke-opacity="1" stroke-width="0.1" stroke-linecap="round" stroke-linejoin="round"/>
<path id="path_9cce92c027095187414437670067994b" d="M 188.3111 17.22521 L 188.3111 11.15222 L 188.9891 11.15222 L 188.9891 11.72272 C 189.149 11.49948 189.3295 11.33205 189.5307 11.22043 C 189.7319 11.10881 189.9758 11.053 190.2624 11.053 C 190.6372 11.053 190.9679 11.14946 191.2546 11.34239 C 191.5412 11.53531 191.7576 11.80747 191.9036 12.15887 C 192.0497 12.51027 192.1227 12.89543 192.1227 13.31435 C 192.1227 13.76359 192.0421 14.16805 191.8809 14.52771 C 191.7197 14.88738 191.4854 15.16298 191.1781 15.35453 C 190.8708 15.54608 190.5476 15.64185 190.2086 15.64185 C 189.9606 15.64185 189.7381 15.58949 189.541 15.48476 C 189.3439 15.38003 189.182 15.24773 189.0552 15.08788 L 189.0552 17.22521 L 188.3111 17.22521 Z M 188.985 13.37223 C 188.985 13.93722 189.0993 14.35477 189.3281 14.62486 C 189.5569 14.89496 189.8338 15.03 190.159 15.03 C 190.4898 15.03 190.773 14.89013 191.0086 14.61039 C 191.2442 14.33065 191.362 13.89726 191.362 13.31022 C 191.362 12.75074 191.247 12.33182 191.0169 12.05345 C 190.7867 11.77509 190.5118 11.63591 190.1921 11.63591 C 189.8752 11.63591 189.5947 11.78405 189.3508 12.08032 C 189.1069 12.3766 188.985 12.80724 188.985 13.37223 Z" fill-rule="evenodd" fill="#0000FF" fill-opacity="1" stroke="#404040" stroke-opacity="1" stroke-width="0.1" stroke-linecap="round" stroke-linejoin="round"/>
<path id="path_98ad774d332d059cfae667dd2549111d" d="M 196.0253 14.12877 L 196.7943 14.22386 C 196.673 14.67309 196.4484 15.02174 196.1204 15.26978 C 195.7925 15.51783 195.3735 15.64185 194.8636 15.64185 C 194.2215 15.64185 193.7123 15.4441 193.3361 15.04861 C 192.9599 14.65311 192.7718 14.09845 192.7718 13.38463 C 192.7718 12.64601 192.962 12.07274 193.3423 11.66484 C 193.7226 11.25695 194.216 11.053 194.8223 11.053 C 195.4093 11.053 195.8889 11.25281 196.261 11.65244 C 196.633 12.05207 196.8191 12.61431 196.8191 13.33916 C 196.8191 13.38326 196.8177 13.4494 196.8149 13.53759 L 193.5407 13.53759 C 193.5683 14.01991 193.7047 14.38922 193.95 14.64553 C 194.1953 14.90185 194.5012 15.03 194.8678 15.03 C 195.1406 15.03 195.3735 14.95835 195.5665 14.81503 C 195.7594 14.67172 195.9123 14.44296 196.0253 14.12877 Z M 193.5821 12.92575 L 196.0336 12.92575 C 196.0005 12.55643 195.9068 12.27945 195.7525 12.09479 C 195.5155 11.80816 195.2082 11.66484 194.8306 11.66484 C 194.4888 11.66484 194.2015 11.77922 193.9686 12.00798 C 193.7357 12.23673 193.6069 12.54265 193.5821 12.92575 Z" fill-rule="evenodd" fill="#0000FF" fill-opacity="1" stroke="#404040" stroke-opacity="1" stroke-width="0.1" stroke-linecap="round" stroke-linejoin="round"/>
<path id="path_96ffe42a015f0d94d9f94d947b64edea" d="M 197.7203 15.54263 L 197.7203 11.15222 L 198.39 11.15222 L 198.39 11.81781 C 198.5609 11.50637 198.7187 11.30105 198.8634 11.20183 C 199.0081 11.10261 199.1672 11.053 199.3409 11.053 C 199.5917 11.053 199.8466 11.13293 200.1057 11.29278 L 199.8493 11.98317 C 199.6674 11.87569 199.4855 11.82194 199.3036 11.82194 C 199.141 11.82194 198.995 11.87086 198.8654 11.9687 C 198.7359 12.06654 198.6436 12.20228 198.5885 12.37591 C 198.5058 12.6405 198.4644 12.92988 198.4644 13.24407 L 198.4644 15.54263 L 197.7203 15.54263 Z" fill-rule="evenodd" fill="#0000FF" fill-opacity="1" stroke="#404040" stroke-opacity="1" stroke-width="0.1" stroke-linecap="round" stroke-linejoin="round"/>
<path id="path_8677205e24039de1264e4c5c1667efa8" d="M 203.0202 15.54263 L 203.0202 9.482042 L 203.8222 9.482042 L 203.8222 11.97077 L 206.9724 11.97077 L 206.9724 9.482042 L 207.7744 9.482042 L 207.7744 15.54263 L 206.9724 15.54263 L 206.9724 12.68597 L 203.8222 12.68597 L 203.8222 15.54263 L 203.0202 15.54263 Z" fill-rule="evenodd" fill="#0000FF" fill-opacity="1" stroke="#404040" stroke-opacity="1" stroke-width="0.1" stroke-linecap="round" stroke-linejoin="round"/>
<path id="path_19ee0ace2e870110fc5780b6f09ecbdd" d="M 212.0201 14.12877 L 212.789 14.22386 C 212.6678 14.67309 212.4432 15.02174 212.1152 15.26978 C 211.7872 15.51783 211.3683 15.64185 210.8584 15.64185 C 210.2163 15.64185 209.7071 15.4441 209.3309 15.04861 C 208.9547 14.65311 208.7666 14.09845 208.7666 13.38463 C 208.7666 12.64601 208.9568 12.07274 209.3371 11.66484 C 209.7174 11.25695 210.2108 11.053 210.8171 11.053 C 211.4041 11.053 211.8837 11.25281 212.2558 11.65244 C 212.6278 12.05207 212.8139 12.61431 212.8139 13.33916 C 212.8139 13.38326 212.8125 13.4494 212.8097 13.53759 L 209.5355 13.53759 C 209.5631 14.01991 209.6995 14.38922 209.9448 14.64553 C 210.1901 14.90185 210.496 15.03 210.8626 15.03 C 211.1354 15.03 211.3683 14.95835 211.5612 14.81503 C 211.7542 14.67172 211.9071 14.44296 212.0201 14.12877 Z M 209.5769 12.92575 L 212.0284 12.92575 C 211.9953 12.55643 211.9016 12.27945 211.7473 12.09479 C 211.5103 11.80816 211.2029 11.66484 210.8254 11.66484 C 210.4836 11.66484 210.1963 11.77922 209.9634 12.00798 C 209.7305 12.23673 209.6017 12.54265 209.5769 12.92575 Z" fill-rule="evenodd" fill="#0000FF" fill-opacity="1" stroke="#404040" stroke-opacity="1" stroke-width="0.1" stroke-linecap="round" stroke-linejoin="round"/>
<path id="path_097165a320cbfac11ea9ed8b66d57437" d="M 216.5883 15.00106 C 216.3127 15.23533 216.0474 15.40069 215.7925 15.49716 C 215.5376 15.59362 215.264 15.64185 214.9719 15.64185 C 214.4895 15.64185 214.1189 15.52403 213.8598 15.28839 C 213.6007 15.05274 213.4712 14.75164 213.4712 14.38508 C 213.4712 14.17011 213.5201 13.97374 213.618 13.79598 C 213.7158 13.61821 213.8439 13.47558 214.0024 13.3681 C 214.1609 13.26061 214.3394 13.1793 214.5378 13.12419 C 214.6839 13.0856 214.9043 13.04839 215.1992 13.01256 C 215.8001 12.94091 216.2424 12.85547 216.5263 12.75625 C 216.529 12.65428 216.5304 12.58951 216.5304 12.56194 C 216.5304 12.25878 216.4601 12.04518 216.3196 11.92116 C 216.1294 11.75304 215.8469 11.66898 215.4721 11.66898 C 215.1221 11.66898 214.8637 11.7303 214.6969 11.85295 C 214.5302 11.97559 214.4069 12.19263 214.327 12.50407 L 213.5993 12.40485 C 213.6655 12.09342 213.7744 11.84192 213.9259 11.65038 C 214.0775 11.45883 214.2966 11.31138 214.5833 11.20803 C 214.8699 11.10468 215.202 11.053 215.5796 11.053 C 215.9544 11.053 216.2589 11.0971 216.4932 11.18529 C 216.7275 11.27349 216.8997 11.38442 217.01 11.51809 C 217.1202 11.65176 217.1974 11.82056 217.2415 12.02451 C 217.2663 12.15129 217.2787 12.38005 217.2787 12.71078 L 217.2787 13.70296 C 217.2787 14.39473 217.2945 14.83225 217.3262 15.01553 C 217.3579 15.19881 217.4206 15.37451 217.5143 15.54263 L 216.7371 15.54263 C 216.66 15.38829 216.6103 15.20777 216.5883 15.00106 Z M 216.5263 13.33916 C 216.2562 13.4494 215.851 13.54311 215.3109 13.62028 C 215.0049 13.66437 214.7886 13.71398 214.6618 13.7691 C 214.535 13.82422 214.4372 13.90484 214.3683 14.01095 C 214.2994 14.11706 214.2649 14.23488 214.2649 14.36441 C 214.2649 14.56285 214.34 14.72822 214.4902 14.86051 C 214.6404 14.9928 214.8602 15.05894 215.1496 15.05894 C 215.4363 15.05894 215.6912 14.99624 215.9144 14.87084 C 216.1377 14.74544 216.3017 14.57388 216.4064 14.35615 C 216.4863 14.18803 216.5263 13.93998 216.5263 13.61201 L 216.5263 13.33916 Z" fill-rule="evenodd" fill="#0000FF" fill-opacity="1" stroke="#404040" stroke-opacity="1" stroke-width="0.1" stroke-linecap="round" stroke-linejoin="round"/>
<path id="path_ec971d931d2a473c64ad3482673e363e" d="M 221.2805 15.54263 L 221.2805 14.98866 C 221.0021 15.42412 220.5928 15.64185 220.0526 15.64185 C 219.7026 15.64185 219.3808 15.54539 219.0873 15.35246 C 218.7938 15.15954 218.5664 14.89013 218.4052 14.54425 C 218.244 14.19836 218.1634 13.8008 218.1634 13.35156 C 218.1634 12.91335 218.2364 12.51578 218.3825 12.15887 C 218.5285 11.80196 218.7477 11.52842 219.0398 11.33825 C 219.3319 11.14808 219.6585 11.053 220.0196 11.053 C 220.2841 11.053 220.5198 11.10881 220.7265 11.22043 C 220.9332 11.33205 221.1013 11.47743 221.2309 11.65658 L 221.2309 9.482042 L 221.9709 9.482042 L 221.9709 15.54263 L 221.2805 15.54263 Z M 218.9282 13.35156 C 218.9282 13.9138 219.0467 14.3341 219.2837 14.61246 C 219.5207 14.89082 219.8005 15.03 220.1229 15.03 C 220.4481 15.03 220.7244 14.89702 220.9518 14.63106 C 221.1792 14.3651 221.2929 13.95927 221.2929 13.41357 C 221.2929 12.81275 221.1771 12.37178 220.9456 12.09066 C 220.7141 11.80954 220.4288 11.66898 220.0898 11.66898 C 219.7591 11.66898 219.4828 11.80403 219.261 12.07412 C 219.0391 12.34422 218.9282 12.77003 218.9282 13.35156 Z" fill-rule="evenodd" fill="#0000FF" fill-opacity="1" stroke="#404040" stroke-opacity="1" stroke-width="0.1" stroke-linecap="round" stroke-linejoin="round"/>
<path id="path_1a37f6562faddf8088f83a090519db9d" d="M 177.3558 25.10481 L 177.7154 23.34368 L 177.0168 23.34368 L 177.0168 22.7277 L 177.8395 22.7277 L 178.1454 21.22702 L 177.0168 21.22702 L 177.0168 20.61104 L 178.2694 20.61104 L 178.6291 18.83751 L 179.2492 18.83751 L 178.8895 20.61104 L 180.1918 20.61104 L 180.5514 18.83751 L 181.1757 18.83751 L 180.816 20.61104 L 181.5312 20.61104 L 181.5312 21.22702 L 180.692 21.22702 L 180.3819 22.7277 L 181.5312 22.7277 L 181.5312 23.34368 L 180.2579 23.34368 L 179.8982 25.10481 L 179.2781 25.10481 L 179.6337 23.34368 L 178.3356 23.34368 L 177.9759 25.10481 L 177.3558 25.10481 Z M 178.4596 22.7277 L 179.7577 22.7277 L 180.0677 21.22702 L 178.7655 21.22702 L 178.4596 22.7277 Z" fill-rule="evenodd" fill="#0000FF" fill-opacity="1" stroke="#404040" stroke-opacity="1" stroke-width="0.1" stroke-linecap="round" stroke-linejoin="round"/>
<path id="path_a7e903cba16b17c82c797763ee0dac1f" d="M 184.3755 25.00146 L 184.3755 23.55039 L 181.7462 23.55039 L 181.7462 22.86826 L 184.5119 18.94086 L 185.1196 18.94086 L 185.1196 22.86826 L 185.9381 22.86826 L 185.9381 23.55039 L 185.1196 23.55039 L 185.1196 25.00146 L 184.3755 25.00146 Z M 184.3755 22.86826 L 184.3755 20.13562 L 182.4779 22.86826 L 184.3755 22.86826 Z" fill-rule="evenodd" fill="#0000FF" fill-opacity="1" stroke="#404040" stroke-opacity="1" stroke-width="0.1" stroke-linecap="round" stroke-linejoin="round"/>
</defs>
<g>
<use xlink:href="#path_c95728ac80536f7411db8f50740216b7"/>
</g>
<g>
<use xlink:href="#path_a1326c8373574484eb4e51288922d949"/>
</g>
<g>
<use xlink:href="#path_faa20a47bb797b72ce2b8bb974307767"/>
</g>
<g>
<use xlink:href="#path_494772e92c0b33d045069c40f230786a"/>
</g>
<g>
<use xlink:href="#path_7a2cdc1dfffad2f16f9d1a52a156cd1a"/>
</g>
<g>
<use xlink:href="#path_722aa88279a2ccee4be684b0ab6ba8d2"/>
</g>
<g>
<use xlink:href="#path_4bb40bd6f8c630344021c458b5895b8c"/>
</g>
<g>
<use xlink:href="#path_87aa86762d79cf345d9be25fad9c8f34"/>
</g>
<g>
<use xlink:href="#path_eb71d1ba1b9816be7796d1b666c3921d"/>
</g>
<g>
<use xlink:href="#path_4d878ad41cba697064af829d975b6eb7"/>
</g>
<g>
<use xlink:href="#path_099797fcdae331646a8e1e146bad3702"/>
</g>
<g>
<use xlink:href="#path_b5790efc574a623cb46da82cf6fa8250"/>
</g>
<g>
<use xlink:href="#path_a8cea0b033cc98daaea91c0d7a7a61dc"/>
</g>
<g>
<use xlink:href="#path_c2a4e4df2a3f08d3dafca80f93010c72"/>
</g>
<g>
<use xlink:href="#path_9b5b078afd613b417cf09ae4d41c0093"/>
</g>
<g>
<use xlink:href="#path_893287713d9a83d11599a928f13fff75"/>
</g>
<g>
<use xlink:href="#path_ec00f978dda47d7917f434f4aed4a198"/>
</g>
<g>
<use xlink:href="#path_d90309a4d358e48122d48b4e988823a8"/>
</g>
<g>
<use xlink:href="#path_3a191d84f37f8376d0648ab3a6880751"/>
</g>
<g>
<use xlink:href="#path_2fd497d4ae89688edd2c3edc06def92c"/>
</g>
<g>
<use xlink:href="#path_acd09bdf3c6feb1a797549aa976af128"/>
</g>
<g>
<use xlink:href="#path_2914e315aa46aba91c81e1c2698931a3"/>
</g>
<g>
<use xlink:href="#path_82e18535d8e2466e0abd0dbc269dfd4b"/>
</g>
<g>
<use xlink:href="#path_f0a7693268bccdb57e5803c405e1765f"/>
</g>
<g>
<use xlink:href="#path_a5c4794f10c3305819f897f6e0969bf1"/>
</g>
<g>
<g>
<use xlink:href="#path_503b2b89c69ff4f35aade038d1dac06e"/>
</g>
<g>
<use xlink:href="#path_b61380dd528df6d9124d05a44a3e8fbf"/>
</g>
<g>
<use xlink:href="#path_9cce92c027095187414437670067994b"/>
</g>
<g>
<use xlink:href="#path_98ad774d332d059cfae667dd2549111d"/>
</g>
<g>
<use xlink:href="#path_96ffe42a015f0d94d9f94d947b64edea"/>
</g>
<g>
<use xlink:href="#path_8677205e24039de1264e4c5c1667efa8"/>
</g>
<g>
<use xlink:href="#path_19ee0ace2e870110fc5780b6f09ecbdd"/>
</g>
<g>
<use xlink:href="#path_097165a320cbfac11ea9ed8b66d57437"/>
</g>
<g>
<use xlink:href="#path_ec971d931d2a473c64ad3482673e363e"/>
</g>
<g>
<use xlink:href="#path_1a37f6562faddf8088f83a090519db9d"/>
</g>
<g>
<use xlink:href="#path_a7e903cba16b17c82c797763ee0dac1f"/>
</g>
</g>
</svg>