<?xml version="1.0" encoding="utf-8"?>
<!DOCTYPE svg PUBLIC "-//W3C//DTD SVG 1.1//EN" "http://www.w3.org/Graphics/SVG/1.1/DTD/svg11.dtd">
<!-- exported from Silhouette Studio® Business Edition V4.4.920ssbe -->
<svg version="1.1" xmlns="http://www.w3.org/2000/svg" xmlns:xlink="http://www.w3.org/1999/xlink" width="304.8mm" height="609.6mm" viewBox="0 0 304.8 609.6">
<defs>
<path id="path_1bfd1fbd33e906e19ef31e96f58cae59" d="M 156.4753 563.1193 L 228.0044 540.9608 M 199.9597 443.2165 L 184.0464 502.149 M 143.7358 443.9861 L 182.0981 384.753 M 47.32349 262.9951 L 163.627 276.9982 L 163.627 276.9982 L 69.29346 325.6017 M 161.6824 222.5348 L 23.42114 201.0464 M 210.7036 353.7595 L 227.0515 374.8395 M 207.573 185.5851 L 206.1848 45.67053 M 115.7886 157.8413 L 105.8018 199.8269" fill-rule="evenodd" fill="none" fill-opacity="1" stroke="#0000FF" stroke-opacity="1" stroke-width="1.058333" stroke-linecap="round" stroke-linejoin="round"/>
<path id="path_56de549951539d9ba6234e917e3a6b14" d="M 58.5564 465.9929 L 103.3623 523.6554 L 103.3623 523.6554 L 132.4265 456.421 L 132.4275 456.421 L 175.4827 504.0561 L 175.4827 504.0561 L 156.4756 563.1193 M 98.04248 395.3465 L 65.41895 339.1711 M 25.49658 270.2653 L 27.24268 390.2699 M 222.3716 500.5407 L 199.9602 443.2165 L 199.9602 443.2165 L 143.7358 443.9862 L 143.7358 443.9862 L 184.0469 502.149 L 184.0464 502.149 L 222.3716 500.5407 L 222.3718 500.5407 L 265.9131 561.3807 M 182.0981 384.753 L 168.7961 329.8709 M 69.29346 325.6018 L 107.802 385.7917 M 23.42114 201.0464 L 47.32324 262.9952 M 163.627 276.9983 L 161.6829 222.5349 M 279.2446 436.6729 L 227.0518 374.8396 L 227.0513 374.8396 L 214.543 397.5639 L 214.5439 397.5639 L 219.6335 442.1636 L 219.6338 442.1635 L 279.2451 436.6729 L 279.2449 436.673 L 279.5029 381.899 L 279.5029 381.899 L 227.052 374.8396 L 227.052 374.8396 L 219.5796 311.0843 M 196.6995 251.0895 L 155.384 194.4729 M 187.5249 271.2995 L 210.7036 353.7595 M 25.07007 188.894 L 62.78149 186.4265 L 62.78223 186.4264 L 115.7891 157.8414 L 115.7888 157.8414 L 169.7969 184.4863 M 21.38672 49.02112 L 113.7974 47.96759 L 113.7971 47.96759 L 115.7888 157.8415 M 105.802 199.8269 L 150.2485 207.2314" fill-rule="evenodd" fill="none" fill-opacity="1" stroke="#FF0000" stroke-opacity="1" stroke-width="1.058333" stroke-linecap="round" stroke-linejoin="round"/>
<path id="path_13fa3fd5ebe9d2f4dba7f6cb5064553c" d="M 21.80176 321.6549 L 21.28955 286.4618 L 21.28931 286.4619 L 25.49731 270.2652 L 25.4978 270.2651 L 65.41992 339.171 L 65.41943 339.171 L 72.56958 342.6356 L 72.56982 342.6356 L 83.71729 361.8301" fill-rule="evenodd" fill="none" fill-opacity="1" stroke="#414141" stroke-opacity="1" stroke-width="1.058333" stroke-linecap="round" stroke-linejoin="round"/>
<path id="path_b9670c6794784b3f84e3b96c26a130c8" d="M 85.23877 364.45 L 99.65405 389.2729 L 98.04297 395.3465 L 98.04248 395.3465 L 132.4272 456.421 L 138.7029 456.7379 L 169.6003 490.9218 L 169.5999 490.9218 L 175.4824 504.0561 L 228.0049 540.9608 L 228.0054 540.9608 L 225.0759 546.5197 L 225.0757 546.5197 L 200.1372 554.2453" fill-rule="evenodd" fill="none" fill-opacity="1" stroke="#414141" stroke-opacity="1" stroke-width="1.058333" stroke-linecap="round" stroke-linejoin="round"/>
<path id="path_5c09ea8d658825bf9aae597166147771" d="M 197.4807 555.0681 L 162.1118 566.0248 L 162.1121 566.0248 L 156.4763 563.1194 L 103.363 523.6555 L 103.3628 523.6555 L 97.12817 522.8732 L 97.12793 522.8732 L 57.77441 472.2275 L 57.7749 472.2275 L 58.55688 465.9928 L 27.24341 390.2699 L 27.24316 390.27 L 22.73608 385.8918 L 22.73633 385.8918 L 21.84546 324.6524" fill-rule="evenodd" fill="none" fill-opacity="1" stroke="#414141" stroke-opacity="1" stroke-width="1.058333" stroke-linecap="round" stroke-linejoin="round"/>
<path id="path_cc9519eb11ac1b7452cf152d87200328" d="M 93.72388 207.4762 L 157.9749 217.4621 L 161.6831 222.5349 L 166.2817 226.8167 L 167.9092 272.3996 L 167.9087 272.3996 L 163.6267 276.9984 L 163.6272 276.9983 L 168.7964 329.8709 L 168.7971 329.8709 L 174.1616 333.1424 L 174.1609 333.1425 L 179.2788 354.2576" fill-rule="evenodd" fill="none" fill-opacity="1" stroke="#414141" stroke-opacity="1" stroke-width="1.058333" stroke-linecap="round" stroke-linejoin="round"/>
<path id="path_49341fe804ef676ac7bc159a946458bc" d="M 179.9873 357.1804 L 185.3699 379.3884 L 182.0984 384.7531 L 182.0986 384.7531 L 199.9604 443.2165 L 207.0271 449.0889 L 224.8923 494.7847 L 224.8926 494.7847 L 222.3721 500.5407 L 228.571 501.5681 L 241.8647 520.1432" fill-rule="evenodd" fill="none" fill-opacity="1" stroke="#414141" stroke-opacity="1" stroke-width="1.058333" stroke-linecap="round" stroke-linejoin="round"/>
<path id="path_8000d9c0b9b66be44b9799e495e2ed19" d="M 243.5049 522.4352 L 263.3506 550.1656 L 263.3513 550.1656 L 265.9133 561.3807 L 184.0474 502.149 L 177.864 501.0282 L 177.8645 501.0282 L 144.7197 453.2046 L 144.7192 453.2046 L 143.7363 443.9862 L 143.7361 443.9862 L 107.8025 385.7917 L 107.8022 385.7917 L 101.6658 384.4436 L 101.6658 384.4435 L 88.47437 363.8248" fill-rule="evenodd" fill="none" fill-opacity="1" stroke="#414141" stroke-opacity="1" stroke-width="1.058333" stroke-linecap="round" stroke-linejoin="round"/>
<path id="path_3f2fdc145d8f0319ffbf8b3c4780fbe4" d="M 86.83813 361.2676 L 67.94556 331.739 L 67.94531 331.739 L 69.2937 325.6017 L 69.29395 325.6017 L 47.32446 262.9951 L 47.32373 262.9951 L 41.57886 260.4493 L 41.5791 260.4493 L 20.87549 206.7911 L 20.87549 206.7911 L 23.42139 201.0464 L 23.42139 201.0464 L 29.44238 197.4857 L 90.7771 207.0183" fill-rule="evenodd" fill="none" fill-opacity="1" stroke="#414141" stroke-opacity="1" stroke-width="1.058333" stroke-linecap="round" stroke-linejoin="round"/>
<path id="path_5b7b09d774b7f3ac410b1570cd27a141" d="M 178.188 218.1841 L 197.6694 244.8813 L 197.6694 244.8813 L 196.6995 251.0895 L 219.5793 311.0842 L 219.5793 311.0842 L 224.5095 314.98 L 224.5098 314.98 L 230.9478 369.9094 L 230.948 369.9094 L 227.0522 374.8395 L 227.052 374.8395 L 279.6658 321.555 L 279.5029 381.899 L 283.9253 386.363 L 283.9255 386.363 L 283.8059 411.7857" fill-rule="evenodd" fill="none" fill-opacity="1" stroke="#414141" stroke-opacity="1" stroke-width="1.058333" stroke-linecap="round" stroke-linejoin="round"/>
<path id="path_94ad6260d5bd2c8a88094d89211a7856" d="M 283.7971 413.6544 L 283.7095 432.2508 L 283.709 432.2508 L 279.2451 436.673 L 279.2456 436.673 L 279.8005 489.9758 L 279.8003 489.9757 L 219.634 442.1635 L 214.7156 438.2528 L 212.4111 418.0567" fill-rule="evenodd" fill="none" fill-opacity="1" stroke="#414141" stroke-opacity="1" stroke-width="1.058333" stroke-linecap="round" stroke-linejoin="round"/>
<path id="path_73c326d17d5d201bfc7a74f5cb3ad72e" d="M 212.071 415.078 L 210.6335 402.4821 L 210.6333 402.4821 L 214.5439 397.5639 L 214.5439 397.5638 L 210.7046 353.7595 L 204.979 349.8113 L 197.9712 324.8806" fill-rule="evenodd" fill="none" fill-opacity="1" stroke="#414141" stroke-opacity="1" stroke-width="1.058333" stroke-linecap="round" stroke-linejoin="round"/>
<path id="path_c44cdbb0295b567e254bd650e51c11b2" d="M 197.2283 322.2368 L 184.4504 276.7792 L 187.5254 271.2996 L 187.5254 271.2995 L 155.3848 194.4728 L 155.3845 194.4728 L 161.5925 195.4428 L 161.5925 195.4429 L 176.5107 215.8864" fill-rule="evenodd" fill="none" fill-opacity="1" stroke="#414141" stroke-opacity="1" stroke-width="1.058333" stroke-linecap="round" stroke-linejoin="round"/>
<path id="path_84e59089a8d3032be42254049d78b715" d="M 115.79 157.8414 L 150.2488 207.2314 L 150.2483 207.2314 L 145.1355 210.884 L 145.1357 210.884 L 126.0088 207.6976" fill-rule="evenodd" fill="none" fill-opacity="1" stroke="#414141" stroke-opacity="1" stroke-width="1.058333" stroke-linecap="round" stroke-linejoin="round"/>
<path id="path_287a3486ba34dd0c45be6a08d2b0c844" d="M 123.0474 207.2042 L 109.4548 204.9398 L 105.8025 199.827 L 105.802 199.827 L 62.78198 186.4265 L 58.63843 191.1502 L 58.63916 191.1501 L 29.79492 193.0374 L 29.79443 193.0374 L 25.07129 188.8938 L 25.07129 188.8938 L 21.38721 49.021 L 25.7793 44.52753 L 58.9812 44.14893" fill-rule="evenodd" fill="none" fill-opacity="1" stroke="#414141" stroke-opacity="1" stroke-width="1.058333" stroke-linecap="round" stroke-linejoin="round"/>
<path id="path_4edf9e10e3cac02dbb5a93bba2760373" d="M 61.39307 44.1214 L 109.304 43.57513 L 109.304 43.5752 L 113.7974 47.96753 L 206.1855 45.67065 L 206.1848 45.67078 L 210.6719 50.06958 L 210.6721 50.06946 L 211.1572 98.96436" fill-rule="evenodd" fill="none" fill-opacity="1" stroke="#414141" stroke-opacity="1" stroke-width="1.058333" stroke-linecap="round" stroke-linejoin="round"/>
<path id="path_c9753af54baec58eabe9f1b7a2398850" d="M 211.1865 101.906 L 211.9346 177.2958 L 211.9341 177.296 L 207.573 185.5852 L 207.5732 185.5852 L 169.7971 184.4863 L 169.7969 184.4863 L 163.8467 186.5051 L 163.8474 186.5051 L 121.0603 165.3962" fill-rule="evenodd" fill="none" fill-opacity="1" stroke="#414141" stroke-opacity="1" stroke-width="1.058333" stroke-linecap="round" stroke-linejoin="round"/>
<path id="path_ae3142ce339f70884bbcc5b60894b0f0" d="M 223.378 23.42133 L 224.18 23.42133 L 224.18 26.92292 C 224.18 27.53201 224.1111 28.0157 223.9733 28.37399 C 223.8355 28.73227 223.5868 29.02373 223.2271 29.24835 C 222.8674 29.47297 222.3955 29.58528 221.8112 29.58528 C 221.2434 29.58528 220.779 29.48744 220.418 29.29176 C 220.0569 29.09608 219.7993 28.81289 219.6449 28.4422 C 219.4906 28.07151 219.4134 27.56508 219.4134 26.92292 L 219.4134 23.42133 L 220.2154 23.42133 L 220.2154 26.91879 C 220.2154 27.44519 220.2643 27.83311 220.3622 28.08253 C 220.46 28.33195 220.6282 28.52419 220.8665 28.65924 C 221.1049 28.79429 221.3964 28.86181 221.7409 28.86181 C 222.3307 28.86181 222.751 28.72814 223.0018 28.4608 C 223.2526 28.19346 223.378 27.67946 223.378 26.91879 L 223.378 23.42133 Z" fill-rule="evenodd" fill="#0000FF" fill-opacity="1" stroke="#404040" stroke-opacity="1" stroke-width="0.1" stroke-linecap="round" stroke-linejoin="round"/>
<path id="path_3a132506d195ef9482541216c2813fc7" d="M 225.4202 31.1645 L 225.4202 25.09151 L 226.0983 25.09151 L 226.0983 25.66202 C 226.2581 25.43877 226.4386 25.27134 226.6398 25.15972 C 226.841 25.0481 227.0849 24.99229 227.3716 24.99229 C 227.7464 24.99229 228.0771 25.08875 228.3637 25.28168 C 228.6503 25.4746 228.8667 25.74677 229.0128 26.09816 C 229.1588 26.44956 229.2319 26.83472 229.2319 27.25365 C 229.2319 27.70288 229.1513 28.10734 228.99 28.467 C 228.8288 28.82667 228.5945 29.10228 228.2872 29.29383 C 227.9799 29.48537 227.6568 29.58114 227.3178 29.58114 C 227.0697 29.58114 226.8472 29.52878 226.6501 29.42405 C 226.4531 29.31932 226.2912 29.18703 226.1644 29.02718 L 226.1644 31.1645 L 225.4202 31.1645 Z M 226.0941 27.31152 C 226.0941 27.87651 226.2085 28.29406 226.4372 28.56415 C 226.666 28.83425 226.943 28.9693 227.2682 28.9693 C 227.5989 28.9693 227.8821 28.82943 228.1177 28.54968 C 228.3534 28.26994 228.4712 27.83655 228.4712 27.24951 C 228.4712 26.69003 228.3561 26.27111 228.126 25.99274 C 227.8959 25.71438 227.621 25.5752 227.3013 25.5752 C 226.9843 25.5752 226.7039 25.72334 226.46 26.01962 C 226.216 26.31589 226.0941 26.74653 226.0941 27.31152 Z" fill-rule="evenodd" fill="#0000FF" fill-opacity="1" stroke="#404040" stroke-opacity="1" stroke-width="0.1" stroke-linecap="round" stroke-linejoin="round"/>
<path id="path_d60e1cf11dd5f26913f22c59e19190a3" d="M 230.129 31.1645 L 230.129 25.09151 L 230.807 25.09151 L 230.807 25.66202 C 230.9668 25.43877 231.1473 25.27134 231.3485 25.15972 C 231.5497 25.0481 231.7936 24.99229 232.0803 24.99229 C 232.4551 24.99229 232.7858 25.08875 233.0724 25.28168 C 233.3591 25.4746 233.5754 25.74677 233.7215 26.09816 C 233.8676 26.44956 233.9406 26.83472 233.9406 27.25365 C 233.9406 27.70288 233.86 28.10734 233.6987 28.467 C 233.5375 28.82667 233.3033 29.10228 232.996 29.29383 C 232.6887 29.48537 232.3655 29.58114 232.0265 29.58114 C 231.7785 29.58114 231.5559 29.52878 231.3589 29.42405 C 231.1618 29.31932 230.9999 29.18703 230.8731 29.02718 L 230.8731 31.1645 L 230.129 31.1645 Z M 230.8028 27.31152 C 230.8028 27.87651 230.9172 28.29406 231.146 28.56415 C 231.3747 28.83425 231.6517 28.9693 231.9769 28.9693 C 232.3076 28.9693 232.5908 28.82943 232.8265 28.54968 C 233.0621 28.26994 233.1799 27.83655 233.1799 27.24951 C 233.1799 26.69003 233.0648 26.27111 232.8347 25.99274 C 232.6046 25.71438 232.3297 25.5752 232.01 25.5752 C 231.693 25.5752 231.4126 25.72334 231.1687 26.01962 C 230.9248 26.31589 230.8028 26.74653 230.8028 27.31152 Z" fill-rule="evenodd" fill="#0000FF" fill-opacity="1" stroke="#404040" stroke-opacity="1" stroke-width="0.1" stroke-linecap="round" stroke-linejoin="round"/>
<path id="path_8957a4fd0f88f2f60ce4ccd2f9f30511" d="M 237.8432 28.06806 L 238.6121 28.16315 C 238.4908 28.61239 238.2662 28.96103 237.9383 29.20908 C 237.6103 29.45712 237.1914 29.58114 236.6815 29.58114 C 236.0393 29.58114 235.5302 29.3834 235.154 28.9879 C 234.7778 28.59241 234.5897 28.03775 234.5897 27.32393 C 234.5897 26.5853 234.7798 26.01204 235.1601 25.60414 C 235.5405 25.19624 236.0338 24.99229 236.6402 24.99229 C 237.2272 24.99229 237.7068 25.19211 238.0788 25.59174 C 238.4509 25.99137 238.6369 26.55361 238.6369 27.27845 C 238.6369 27.32255 238.6356 27.38869 238.6328 27.47689 L 235.3586 27.47689 C 235.3862 27.9592 235.5226 28.32851 235.7679 28.58482 C 236.0132 28.84114 236.3191 28.9693 236.6856 28.9693 C 236.9585 28.9693 237.1914 28.89764 237.3843 28.75432 C 237.5772 28.61101 237.7302 28.38225 237.8432 28.06806 Z M 235.3999 26.86504 L 237.8515 26.86504 C 237.8184 26.49573 237.7247 26.21874 237.5703 26.03408 C 237.3333 25.74746 237.026 25.60414 236.6484 25.60414 C 236.3067 25.60414 236.0194 25.71852 235.7865 25.94727 C 235.5536 26.17602 235.4247 26.48195 235.3999 26.86504 Z" fill-rule="evenodd" fill="#0000FF" fill-opacity="1" stroke="#404040" stroke-opacity="1" stroke-width="0.1" stroke-linecap="round" stroke-linejoin="round"/>
<path id="path_cfdce6a15caa83ab18d6e1a94e228d5c" d="M 239.5382 29.48192 L 239.5382 25.09151 L 240.2079 25.09151 L 240.2079 25.7571 C 240.3788 25.44567 240.5365 25.24034 240.6812 25.14112 C 240.8259 25.0419 240.9851 24.99229 241.1587 24.99229 C 241.4095 24.99229 241.6645 25.07222 241.9235 25.23207 L 241.6672 25.92246 C 241.4853 25.81498 241.3034 25.76123 241.1215 25.76123 C 240.9589 25.76123 240.8128 25.81015 240.6833 25.908 C 240.5538 26.00583 240.4614 26.14157 240.4063 26.31521 C 240.3236 26.57979 240.2823 26.86917 240.2823 27.18336 L 240.2823 29.48192 L 239.5382 29.48192 Z" fill-rule="evenodd" fill="#0000FF" fill-opacity="1" stroke="#404040" stroke-opacity="1" stroke-width="0.1" stroke-linecap="round" stroke-linejoin="round"/>
<path id="path_ed8db5703ab10cab706e5e7736b4a339" d="M 244.8381 29.48192 L 244.8381 23.42133 L 245.6401 23.42133 L 245.6401 25.91006 L 248.7902 25.91006 L 248.7903 23.42133 L 249.5923 23.42133 L 249.5923 29.48192 L 248.7902 29.48192 L 248.7902 26.62526 L 245.6401 26.62526 L 245.6401 29.48192 L 244.8381 29.48192 Z" fill-rule="evenodd" fill="#0000FF" fill-opacity="1" stroke="#404040" stroke-opacity="1" stroke-width="0.1" stroke-linecap="round" stroke-linejoin="round"/>
<path id="path_fa2def9ab5a4473404860104666f93ae" d="M 253.838 28.06806 L 254.6069 28.16315 C 254.4857 28.61239 254.261 28.96103 253.9331 29.20908 C 253.6051 29.45712 253.1862 29.58114 252.6763 29.58114 C 252.0341 29.58114 251.525 29.3834 251.1488 28.9879 C 250.7726 28.59241 250.5845 28.03775 250.5845 27.32393 C 250.5845 26.5853 250.7746 26.01204 251.155 25.60414 C 251.5353 25.19624 252.0286 24.99229 252.635 24.99229 C 253.222 24.99229 253.7016 25.19211 254.0736 25.59174 C 254.4457 25.99137 254.6317 26.55361 254.6317 27.27845 C 254.6317 27.32255 254.6304 27.38869 254.6276 27.47689 L 251.3534 27.47689 C 251.381 27.9592 251.5174 28.32851 251.7627 28.58482 C 252.008 28.84114 252.3139 28.9693 252.6804 28.9693 C 252.9533 28.9693 253.1862 28.89764 253.3791 28.75432 C 253.572 28.61101 253.725 28.38225 253.838 28.06806 Z M 251.3948 26.86504 L 253.8463 26.86504 C 253.8132 26.49573 253.7195 26.21874 253.5651 26.03408 C 253.3281 25.74746 253.0208 25.60414 252.6432 25.60414 C 252.3015 25.60414 252.0142 25.71852 251.7813 25.94727 C 251.5484 26.17602 251.4196 26.48195 251.3948 26.86504 Z" fill-rule="evenodd" fill="#0000FF" fill-opacity="1" stroke="#404040" stroke-opacity="1" stroke-width="0.1" stroke-linecap="round" stroke-linejoin="round"/>
<path id="path_85026102db2e686ae778efcab651486f" d="M 258.4061 28.94036 C 258.1305 29.17462 257.8653 29.33999 257.6104 29.43645 C 257.3554 29.53291 257.0819 29.58114 256.7897 29.58114 C 256.3074 29.58114 255.9367 29.46332 255.6777 29.22768 C 255.4186 28.99203 255.2891 28.69094 255.2891 28.32438 C 255.2891 28.10941 255.338 27.91303 255.4358 27.73527 C 255.5337 27.5575 255.6618 27.41488 255.8203 27.30739 C 255.9788 27.1999 256.1572 27.1186 256.3557 27.06348 C 256.5017 27.02489 256.7222 26.98768 257.0171 26.95185 C 257.6179 26.8802 258.0602 26.79476 258.3441 26.69554 C 258.3469 26.59357 258.3483 26.5288 258.3483 26.50124 C 258.3483 26.19807 258.278 25.98448 258.1375 25.86045 C 257.9473 25.69233 257.6648 25.60827 257.29 25.60827 C 256.9399 25.60827 256.6816 25.6696 256.5148 25.79224 C 256.3481 25.91488 256.2248 26.13193 256.1448 26.44336 L 255.4172 26.34414 C 255.4834 26.03271 255.5922 25.78122 255.7438 25.58967 C 255.8954 25.39812 256.1145 25.25068 256.4011 25.14732 C 256.6877 25.04397 257.0199 24.99229 257.3975 24.99229 C 257.7723 24.99229 258.0768 25.03639 258.3111 25.12458 C 258.5453 25.21278 258.7176 25.32371 258.8278 25.45738 C 258.938 25.59105 259.0152 25.75986 259.0593 25.96381 C 259.0841 26.09059 259.0966 26.31934 259.0966 26.65007 L 259.0966 27.64225 C 259.0966 28.33402 259.1124 28.77155 259.1441 28.95483 C 259.1758 29.13811 259.2385 29.3138 259.3322 29.48192 L 258.555 29.48192 C 258.4778 29.32759 258.4282 29.14706 258.4061 28.94036 Z M 258.3441 27.27845 C 258.074 27.38869 257.6689 27.4824 257.1287 27.55957 C 256.8228 27.60367 256.6064 27.65327 256.4797 27.7084 C 256.3529 27.76352 256.2551 27.84413 256.1862 27.95024 C 256.1173 28.05635 256.0828 28.17417 256.0828 28.30371 C 256.0828 28.50214 256.1579 28.66751 256.3081 28.7998 C 256.4583 28.93209 256.6781 28.99823 256.9675 28.99823 C 257.2541 28.99823 257.509 28.93553 257.7323 28.81013 C 257.9555 28.68473 258.1195 28.51317 258.2242 28.29544 C 258.3042 28.12732 258.3441 27.87927 258.3441 27.5513 L 258.3441 27.27845 Z" fill-rule="evenodd" fill="#0000FF" fill-opacity="1" stroke="#404040" stroke-opacity="1" stroke-width="0.1" stroke-linecap="round" stroke-linejoin="round"/>
<path id="path_76039b2f43c1cf710d31cb60efb1f007" d="M 263.0983 29.48192 L 263.0983 28.92796 C 262.82 29.36341 262.4107 29.58114 261.8705 29.58114 C 261.5204 29.58114 261.1987 29.48468 260.9052 29.29176 C 260.6117 29.09883 260.3843 28.82943 260.2231 28.48354 C 260.0618 28.13766 259.9812 27.74009 259.9812 27.29085 C 259.9812 26.85264 260.0543 26.45507 260.2003 26.09816 C 260.3464 25.74125 260.5655 25.46771 260.8577 25.27755 C 261.1498 25.08738 261.4764 24.99229 261.8375 24.99229 C 262.1021 24.99229 262.3376 25.0481 262.5444 25.15972 C 262.7511 25.27134 262.9192 25.41673 263.0487 25.59587 L 263.0487 23.42133 L 263.7887 23.42133 L 263.7887 29.48192 L 263.0983 29.48192 Z M 260.746 27.29085 C 260.746 27.85309 260.8645 28.27339 261.1016 28.55175 C 261.3386 28.83011 261.6183 28.9693 261.9408 28.9693 C 262.266 28.9693 262.5423 28.83632 262.7697 28.57035 C 262.997 28.30439 263.1107 27.89857 263.1107 27.35287 C 263.1107 26.75204 262.995 26.31107 262.7635 26.02995 C 262.532 25.74883 262.2467 25.60827 261.9077 25.60827 C 261.577 25.60827 261.3007 25.74332 261.0789 26.01341 C 260.857 26.28351 260.746 26.70932 260.746 27.29085 Z" fill-rule="evenodd" fill="#0000FF" fill-opacity="1" stroke="#404040" stroke-opacity="1" stroke-width="0.1" stroke-linecap="round" stroke-linejoin="round"/>
<path id="path_f7faacc9b50c862313376ed59b131932" d="M 219.1736 39.0441 L 219.5333 37.28297 L 218.8347 37.28297 L 218.8347 36.66699 L 219.6573 36.66699 L 219.9632 35.16631 L 218.8347 35.16631 L 218.8347 34.55033 L 220.0873 34.55033 L 220.4469 32.77681 L 221.0671 32.77681 L 220.7074 34.55033 L 222.0096 34.55033 L 222.3693 32.77681 L 222.9935 32.77681 L 222.6339 34.55033 L 223.3491 34.55033 L 223.3491 35.16631 L 222.5098 35.16631 L 222.1998 36.66699 L 223.3491 36.66699 L 223.3491 37.28297 L 222.0758 37.28297 L 221.7161 39.0441 L 221.096 39.0441 L 221.4515 37.28297 L 220.1534 37.28297 L 219.7937 39.0441 L 219.1736 39.0441 Z M 220.2774 36.66699 L 221.5755 36.66699 L 221.8856 35.16631 L 220.5834 35.16631 L 220.2774 36.66699 Z" fill-rule="evenodd" fill="#0000FF" fill-opacity="1" stroke="#404040" stroke-opacity="1" stroke-width="0.1" stroke-linecap="round" stroke-linejoin="round"/>
<path id="path_2d2de781713f179bd3fbd6d86ec8d1a3" d="M 223.9196 37.53929 L 224.6348 37.47314 C 224.6954 37.80938 224.8111 38.05329 224.982 38.20488 C 225.1529 38.35646 225.372 38.43225 225.6393 38.43225 C 225.8681 38.43225 226.0686 38.37989 226.2409 38.27516 C 226.4131 38.17043 226.5544 38.03056 226.6646 37.85555 C 226.7748 37.68053 226.8672 37.4442 226.9416 37.14654 C 227.016 36.84889 227.0532 36.54572 227.0532 36.23705 C 227.0532 36.20397 227.0518 36.15436 227.0491 36.08822 C 226.9002 36.32524 226.697 36.51748 226.4393 36.66492 C 226.1816 36.81237 225.9025 36.88609 225.6021 36.88609 C 225.1005 36.88609 224.6761 36.7042 224.3288 36.3404 C 223.9816 35.9766 223.8079 35.49703 223.8079 34.90173 C 223.8079 34.28712 223.9892 33.79241 224.3516 33.41759 C 224.714 33.04276 225.1681 32.85535 225.7138 32.85535 C 226.1079 32.85535 226.4682 32.96146 226.7948 33.17368 C 227.1214 33.38589 227.3695 33.68837 227.539 34.08111 C 227.7085 34.47385 227.7932 35.04229 227.7932 35.78642 C 227.7932 36.56088 227.7091 37.17755 227.541 37.63643 C 227.3729 38.09532 227.1228 38.44465 226.7907 38.68443 C 226.4586 38.92421 226.0693 39.0441 225.6228 39.0441 C 225.1488 39.0441 224.7615 38.9125 224.4611 38.64929 C 224.1607 38.38609 223.9802 38.01609 223.9196 37.53929 Z M 226.9664 34.86452 C 226.9664 34.43733 226.8527 34.09834 226.6253 33.84754 C 226.3979 33.59673 226.1244 33.47133 225.8047 33.47133 C 225.474 33.47133 225.186 33.60638 224.9407 33.87647 C 224.6954 34.14657 224.5728 34.49659 224.5728 34.92654 C 224.5728 35.31239 224.6892 35.62589 224.9221 35.86704 C 225.155 36.1082 225.4423 36.22878 225.784 36.22878 C 226.1285 36.22878 226.4117 36.1082 226.6336 35.86704 C 226.8555 35.62589 226.9664 35.29171 226.9664 34.86452 Z" fill-rule="evenodd" fill="#0000FF" fill-opacity="1" stroke="#404040" stroke-opacity="1" stroke-width="0.1" stroke-linecap="round" stroke-linejoin="round"/>
</defs>
<g>
<use xlink:href="#path_1bfd1fbd33e906e19ef31e96f58cae59"/>
</g>
<g>
<use xlink:href="#path_56de549951539d9ba6234e917e3a6b14"/>
</g>
<g>
<use xlink:href="#path_13fa3fd5ebe9d2f4dba7f6cb5064553c"/>
</g>
<g>
<use xlink:href="#path_b9670c6794784b3f84e3b96c26a130c8"/>
</g>
<g>
<use xlink:href="#path_5c09ea8d658825bf9aae597166147771"/>
</g>
<g>
<use xlink:href="#path_cc9519eb11ac1b7452cf152d87200328"/>
</g>
<g>
<use xlink:href="#path_49341fe804ef676ac7bc159a946458bc"/>
</g>
<g>
<use xlink:href="#path_8000d9c0b9b66be44b9799e495e2ed19"/>
</g>
<g>
<use xlink:href="#path_3f2fdc145d8f0319ffbf8b3c4780fbe4"/>
</g>
<g>
<use xlink:href="#path_5b7b09d774b7f3ac410b1570cd27a141"/>
</g>
<g>
<use xlink:href="#path_94ad6260d5bd2c8a88094d89211a7856"/>
</g>
<g>
<use xlink:href="#path_73c326d17d5d201bfc7a74f5cb3ad72e"/>
</g>
<g>
<use xlink:href="#path_c44cdbb0295b567e254bd650e51c11b2"/>
</g>
<g>
<use xlink:href="#path_84e59089a8d3032be42254049d78b715"/>
</g>
<g>
<use xlink:href="#path_287a3486ba34dd0c45be6a08d2b0c844"/>
</g>
<g>
<use xlink:href="#path_4edf9e10e3cac02dbb5a93bba2760373"/>
</g>
<g>
<use xlink:href="#path_c9753af54baec58eabe9f1b7a2398850"/>
</g>
<g>
<g>
<use xlink:href="#path_ae3142ce339f70884bbcc5b60894b0f0"/>
</g>
<g>
<use xlink:href="#path_3a132506d195ef9482541216c2813fc7"/>
</g>
<g>
<use xlink:href="#path_d60e1cf11dd5f26913f22c59e19190a3"/>
</g>
<g>
<use xlink:href="#path_8957a4fd0f88f2f60ce4ccd2f9f30511"/>
</g>
<g>
<use xlink:href="#path_cfdce6a15caa83ab18d6e1a94e228d5c"/>
</g>
<g>
<use xlink:href="#path_ed8db5703ab10cab706e5e7736b4a339"/>
</g>
<g>
<use xlink:href="#path_fa2def9ab5a4473404860104666f93ae"/>
</g>
<g>
<use xlink:href="#path_85026102db2e686ae778efcab651486f"/>
</g>
<g>
<use xlink:href="#path_76039b2f43c1cf710d31cb60efb1f007"/>
</g>
<g>
<use xlink:href="#path_f7faacc9b50c862313376ed59b131932"/>
</g>
<g>
<use xlink:href="#path_2d2de781713f179bd3fbd6d86ec8d1a3"/>
</g>
</g>
</svg>