<?xml version="1.0" encoding="utf-8"?>
<!DOCTYPE svg PUBLIC "-//W3C//DTD SVG 1.1//EN" "http://www.w3.org/Graphics/SVG/1.1/DTD/svg11.dtd">
<!-- exported from Silhouette Studio® Business Edition V4.4.920ssbe -->
<svg version="1.1" xmlns="http://www.w3.org/2000/svg" xmlns:xlink="http://www.w3.org/1999/xlink" width="304.8mm" height="609.6mm" viewBox="0 0 304.8 609.6">
<defs>
<path id="path_62a2005b8406a85022cc45a1192f343e" d="M 135.8406 458.361 L 182.8408 464.2616 M 240.5322 492.6919 L 246.6498 509.9132 M 185.2817 506.1261 L 216.4905 486.7017 L 216.4906 486.7017 L 217.5626 512.6475 M 158.8169 563.9162 L 116.0338 510.4309 M 56.81421 501.832 L 79.57483 561.8278 M 120.9718 79.35706 L 153.8298 117.2198 L 153.8298 117.2196 L 159.5894 165.8962 L 159.5894 165.8963 L 203.6869 208.0558 L 203.687 208.0558 L 231.4337 230.3362 L 231.4338 230.3362 L 274.376 216.3044 M 117.0671 219.6965 L 126.3958 287.6111 L 126.3958 287.6112 L 118.676 347.53 M 43.7876 313.5063 L 60.98035 388.5484 M 130.854 44.66748 L 73.65137 53.83734 M 70.90466 235.6821 L 30.70496 312.3542 M 224.2858 323.1221 L 213.2244 344.3483 L 213.2245 344.3483 L 182.2369 320.5211 L 182.2368 320.521 L 184.0178 336.1758 L 184.0179 336.1758 L 173.1345 349.7019 M 184.0179 336.1758 L 141.7604 343.8171 L 141.7601 343.8171 L 148.2369 350.3386 M 258.6251 357.2186 L 249.8955 333.8444 L 249.8951 333.8445 L 237.6437 348.5398 M 27.89014 165.125 L 38.56726 237.7515 M 160.8947 360.9554 L 180.8666 392.4285 M 76.65479 397.9977 L 20.87512 441.7624 M 72.80298 501.0099 L 26.93274 448.6722 L 26.93286 448.6722 L 105.0632 432.5456 M 127.5554 506.3346 L 134.2913 465.1306" fill-rule="evenodd" fill="none" fill-opacity="1" stroke="#0000FF" stroke-opacity="1" stroke-width="1.058333" stroke-linecap="round" stroke-linejoin="round"/>
<path id="path_0900266902e782c16c1df5a187082dc4" d="M 216.4905 486.7017 L 182.8408 464.2616 L 182.8408 464.2616 L 102.0156 408.9974 L 102.0156 408.9974 L 135.8403 458.361 L 135.8405 458.361 L 216.4905 486.7017 L 216.4906 486.7017 L 161.0243 490.014 L 161.0243 490.014 L 185.282 506.1261 M 262.9976 489.3994 L 240.5322 492.6919 L 240.5322 492.6919 L 217.5625 512.6475 L 217.5625 512.6475 L 246.6499 509.9132 L 246.6499 509.9132 L 267.6346 510.9056 L 267.6346 510.9056 L 250.9067 531.702 L 250.9067 531.702 L 217.7987 514.5134 L 217.7986 514.5134 L 185.1132 518.5429 L 185.1132 518.5429 L 199.2106 558.7267 L 199.2106 558.7267 L 229.2678 546.5071 L 229.2677 546.5071 L 215.674 524.3163 L 215.674 524.3163 L 217.7986 514.5134 M 250.9067 531.702 L 246.6499 509.9132 L 246.6499 509.9132 L 283.925 481.7042 M 185.113 518.543 L 215.6737 524.3163 M 24.56616 562.3258 L 79.57471 561.8278 L 79.57471 561.8278 L 116.0336 510.4309 L 116.0337 510.4309 L 156.2854 514.4218 L 156.2854 514.4218 L 158.8169 563.9162 L 158.8168 563.9162 L 121.0012 563.6807 L 121.0012 563.6807 L 116.0336 510.4309 M 231.434 230.3362 L 272.7339 127.9519 L 272.7339 127.9519 L 230.5382 126.0889 L 230.5376 126.0889 L 203.6869 208.0558 L 203.687 208.0558 L 117.0673 219.6965 L 117.0673 219.6965 L 118.5658 183.2617 L 118.5657 183.2617 L 78.99573 202.5588 M 203.6869 208.0558 L 272.7334 127.9519 M 230.5377 126.0889 L 159.5892 165.8963 L 159.5894 165.8964 L 117.0673 219.6965 L 117.0673 219.6966 L 185.9088 312.1396 L 185.9088 312.1396 L 244.1293 278.2255 M 176.02 45.65039 L 166.6251 81.96216 L 166.6251 81.96216 L 120.9717 79.35709 L 120.9716 79.35715 L 85.37 116.0154 L 85.37 116.0153 L 153.8298 117.2197 L 153.8298 117.2197 L 235.7885 84.17953 L 235.7883 84.17972 L 159.5891 165.8964 L 159.5895 165.8963 L 122.3788 141.0643 M 60.98047 388.5484 L 118.676 347.53 L 118.676 347.53 L 43.78772 313.5062 M 130.8542 44.66748 L 166.6252 81.96216 M 70.90466 235.6821 L 103.3674 246.7267 M 237.644 348.5398 L 213.2244 344.3483 L 213.2244 344.3483 L 184.0177 336.1758 L 184.0176 336.1758 L 148.2368 350.3385 M 258.6249 357.2186 L 278.019 368.2204 L 278.0193 368.2205 L 249.8956 333.8444 M 224.2856 323.1221 L 182.2367 320.5211 M 38.56702 237.7514 L 97.87085 142.7867 M 64.98694 112.4679 L 31.55188 84.21643 L 31.55151 84.2164 L 27.89014 165.1248 M 222.9819 391.3409 L 248.6234 401.9866 M 201.5288 358.2284 L 160.8947 360.9554 L 160.8945 360.9553 L 146.3849 423.9257 L 146.3849 423.9257 L 180.8667 392.4285 M 253.6283 383.0455 L 232.3428 367.9644 M 271.8502 439.8439 L 265.2772 407.0583 M 124.7449 372.0568 L 86.59473 388.3102 M 26.9325 448.6721 L 76.65479 397.9977 L 76.65527 397.9977 L 105.0636 432.5456 L 105.0631 432.5455 L 72.80298 501.0099 L 72.80298 501.0099 L 134.2913 465.1307" fill-rule="evenodd" fill="none" fill-opacity="1" stroke="#FF0000" stroke-opacity="1" stroke-width="1.058333" stroke-linecap="round" stroke-linejoin="round"/>
<path id="path_4bc00750136e01de3c3bd2a4440c00a8" d="M 220.056 514.1535 L 217.5621 512.6476 L 217.5625 512.6475 L 185.2817 506.126 L 179.1115 507.371 L 179.1113 507.371 L 162.269 496.1843 L 162.2693 496.1843 L 161.0243 490.0139 L 161.024 490.0139 L 135.8403 458.361 L 129.653 457.2052 L 129.653 457.2052 L 100.86 415.1849 L 102.0159 408.9973 L 114.4905 412.1351 L 114.4906 412.1351 L 149.0587 435.7708" fill-rule="evenodd" fill="none" fill-opacity="1" stroke="#414141" stroke-opacity="1" stroke-width="1.058333" stroke-linecap="round" stroke-linejoin="round"/>
<path id="path_f7b43ef1806f47333cc981c01379da44" d="M 151.2949 437.3 L 181.6792 458.0751 L 181.6786 458.0752 L 182.8411 464.2616 L 182.8411 464.2616 L 189.2025 463.1542 L 210.3367 477.2476 L 216.4904 486.7017 L 240.5321 492.6919 L 240.5325 492.6919 L 244.2909 487.6425 L 244.2908 487.6425 L 248.5048 487.0249" fill-rule="evenodd" fill="none" fill-opacity="1" stroke="#414141" stroke-opacity="1" stroke-width="1.058333" stroke-linecap="round" stroke-linejoin="round"/>
<path id="path_d117790ef887718af7a67508443c1459" d="M 251.431 486.596 L 257.948 485.6409 L 262.9974 489.3994 L 262.9983 489.3994 L 283.9255 481.7042 L 283.9255 481.7042 L 267.6348 510.9055 L 268.3131 517.1636 L 264.3809 522.0522" fill-rule="evenodd" fill="none" fill-opacity="1" stroke="#414141" stroke-opacity="1" stroke-width="1.058333" stroke-linecap="round" stroke-linejoin="round"/>
<path id="path_3563f0a170848a96de48b7b1837b4218" d="M 262.4884 524.4052 L 257.6206 530.4567 L 250.9067 531.702 L 250.9066 531.702 L 229.2678 546.5071 L 226.8207 552.3066 L 226.8206 552.3066 L 205.0098 561.1736 L 205.0104 561.1736 L 199.2109 558.7267 L 199.2109 558.7267 L 158.8171 563.9162 L 154.338 568.3392 L 125.4244 568.1593 L 125.4252 568.1593 L 121.0015 563.6807 L 79.57544 561.8278 L 79.57544 561.8278 L 73.44849 566.3345 L 53.63232 566.5138" fill-rule="evenodd" fill="none" fill-opacity="1" stroke="#414141" stroke-opacity="1" stroke-width="1.058333" stroke-linecap="round" stroke-linejoin="round"/>
<path id="path_db6624a614ccdb2ef0a46e1261110d9d" d="M 50.65759 566.5408 L 29.05737 566.7363 L 24.56641 562.3258 L 56.81433 501.8319 L 116.0337 510.4308 L 116.0336 510.4308 L 123.525 506.7009 L 136.0408 507.9418" fill-rule="evenodd" fill="none" fill-opacity="1" stroke="#414141" stroke-opacity="1" stroke-width="1.058333" stroke-linecap="round" stroke-linejoin="round"/>
<path id="path_4303b1695f47bfe2a8ebdd7bad31b262" d="M 138.8536 508.2206 L 152.2954 509.5534 L 152.2953 509.5534 L 156.2856 514.4218 L 185.1133 518.5429 L 189.2532 513.5479 L 209.6023 511.0393" fill-rule="evenodd" fill="none" fill-opacity="1" stroke="#414141" stroke-opacity="1" stroke-width="1.058333" stroke-linecap="round" stroke-linejoin="round"/>
<path id="path_5bd005f9215ef636b492e4f25f923ff7" d="M 214.6556 512.0603 L 217.7987 514.5133 L 217.7987 514.5133 L 246.6499 509.9132" fill-rule="evenodd" fill="none" fill-opacity="1" stroke="#414141" stroke-opacity="1" stroke-width="1.058333" stroke-linecap="round" stroke-linejoin="round"/>
<path id="path_40caaf74cd8128a85d2df8cf9e3cd7c6" d="M 203.6871 208.0558 L 244.1289 278.2254 L 244.1295 278.2254 L 242.5233 284.3118 L 242.5234 284.3118 L 191.9954 313.7451 L 185.9089 312.1394 L 185.9089 312.1395 L 118.676 347.53 L 118.6766 347.53 L 117.6277 353.7367 L 94.07324 370.4825" fill-rule="evenodd" fill="none" fill-opacity="1" stroke="#414141" stroke-opacity="1" stroke-width="1.058333" stroke-linecap="round" stroke-linejoin="round"/>
<path id="path_5b2722e278d125f652b96cf43b92d592" d="M 91.62341 372.2242 L 67.18713 389.5969 L 67.18774 389.5969 L 60.98071 388.5483 L 55.60327 385.008 L 55.60303 385.0078 L 40.44336 318.8388 L 40.44336 318.8389 L 43.78772 313.5062 L 43.78748 313.5062 L 126.396 287.6111 L 126.396 287.611 L 121.3805 283.8073 L 121.3805 283.8073 L 118.2797 261.2305" fill-rule="evenodd" fill="none" fill-opacity="1" stroke="#414141" stroke-opacity="1" stroke-width="1.058333" stroke-linecap="round" stroke-linejoin="round"/>
<path id="path_483101390ef0c00855aede166d7bdb54" d="M 117.8711 258.2571 L 113.2633 224.7117 L 113.2634 224.7117 L 117.0675 219.6965 L 117.0674 219.6965 L 78.99561 202.5587 L 78.99573 202.5587 L 81.04529 196.6072 L 81.04517 196.6071 L 110.9506 182.0232 L 110.9513 182.0231 L 118.5659 183.2616 L 118.5659 183.2617 L 159.5892 165.8962 L 159.5894 165.8962 L 153.4166 167.1279 L 123.6102 147.2372 L 123.6104 147.2372 L 122.379 141.0642 L 122.379 141.0643 L 85.37061 116.0154 L 85.37061 116.0151 L 85.27856 109.7212 L 85.27856 109.7213 L 114.6782 79.44919 L 114.6783 79.44897 L 120.9719 79.35693 L 120.9717 79.35709 L 73.65137 53.83734 L 73.65149 53.83734 L 79.15979 48.44653 L 79.15955 48.44653 L 100.3372 45.05164" fill-rule="evenodd" fill="none" fill-opacity="1" stroke="#414141" stroke-opacity="1" stroke-width="1.058333" stroke-linecap="round" stroke-linejoin="round"/>
<path id="path_7b5ec1aa1098b3cf1f8be3fd5ebcd83e" d="M 103.2638 44.58252 L 123.9855 41.26074 L 123.9855 41.26062 L 130.8544 44.66718 L 130.8544 44.66748 L 176.0204 45.65039 L 176.0204 45.65039 L 179.2141 51.07422 L 172.049 78.76785 L 166.6255 81.96216 L 166.6254 81.96216 L 153.8302 117.2197 L 156.2937 111.4273 L 156.2938 111.4273 L 187.4092 98.88385" fill-rule="evenodd" fill="none" fill-opacity="1" stroke="#414141" stroke-opacity="1" stroke-width="1.058333" stroke-linecap="round" stroke-linejoin="round"/>
<path id="path_1e500a4ad704a38c60e22bb26404e301" d="M 190.1948 97.76083 L 224.4146 83.96576 L 224.4146 83.96585 L 235.7881 84.17972 L 235.7887 84.17972 L 230.5376 126.0889 L 230.5376 126.0888 L 235.181 121.8384 L 235.181 121.8387 L 266.7777 123.2336 L 272.7336 127.9518 L 274.3763 216.3043 L 274.3763 216.3043 L 271.5281 221.9176 L 271.5275 221.9176 L 258.2241 226.2646" fill-rule="evenodd" fill="none" fill-opacity="1" stroke="#414141" stroke-opacity="1" stroke-width="1.058333" stroke-linecap="round" stroke-linejoin="round"/>
<path id="path_9345dca750cb5e317df2f278f6fc4964" d="M 255.5582 227.1357 L 237.0546 233.1819 L 237.0544 233.1819 L 231.4336 230.3362 L 225.1765 231.0198 L 225.1765 231.0199 L 209.8113 218.682" fill-rule="evenodd" fill="none" fill-opacity="1" stroke="#414141" stroke-opacity="1" stroke-width="1.058333" stroke-linecap="round" stroke-linejoin="round"/>
<path id="path_f2de850e884f31800e579cbc28ee4b36" d="M 51.22424 263.633 L 64.6543 238.0181 L 64.6543 238.0181 L 70.90503 235.682 L 70.90442 235.682 L 109.0095 230.308 L 109.0098 230.308 L 103.3677 246.7266 L 103.3677 246.7268 L 30.70508 312.3542 L 30.7052 312.3542 L 28.82983 306.3453 L 28.82983 306.3453 L 49.92639 266.1081" fill-rule="evenodd" fill="none" fill-opacity="1" stroke="#414141" stroke-opacity="1" stroke-width="1.058333" stroke-linecap="round" stroke-linejoin="round"/>
<path id="path_3412296e80bc919d172a759395854ed2" d="M 172.6746 345.4527 L 158.0621 351.2366 L 158.062 351.2366 L 148.2368 350.3384 L 141.9425 350.3169 L 141.7386 350.1116 L 141.7386 350.1116 L 141.7604 343.8171 L 182.2367 320.5211 L 182.2367 320.521 L 186.9541 316.3533 L 197.2784 316.9919" fill-rule="evenodd" fill="none" fill-opacity="1" stroke="#414141" stroke-opacity="1" stroke-width="1.058333" stroke-linecap="round" stroke-linejoin="round"/>
<path id="path_6790dfba03153973f778b8f413b7fa07" d="M 200.2402 317.175 L 220.1184 318.4047 L 220.1184 318.4047 L 224.2859 323.1221 L 224.2859 323.1221 L 249.8951 333.8444 L 249.8956 333.8444 L 256.1588 334.471 L 266.0448 346.5545" fill-rule="evenodd" fill="none" fill-opacity="1" stroke="#414141" stroke-opacity="1" stroke-width="1.058333" stroke-linecap="round" stroke-linejoin="round"/>
<path id="path_8f5111b6024fd34f7246bae7424f8742" d="M 267.9093 348.8335 L 273.8015 356.0357 L 273.8013 356.0357 L 278.0193 368.2203 L 278.0193 368.2205 L 263.1033 364.8764 L 263.1031 364.8764 L 260.3004 363.2863 L 260.3004 363.2863 L 258.625 357.2185 L 258.625 357.2186 L 237.6443 348.5397 L 237.6443 348.5397 L 232.5044 352.1735 L 216.8585 349.488 L 213.2245 344.3482 L 173.1345 349.7018 L 173.1345 349.7018 L 172.4569 343.4438 L 175.6354 339.4938" fill-rule="evenodd" fill="none" fill-opacity="1" stroke="#414141" stroke-opacity="1" stroke-width="1.058333" stroke-linecap="round" stroke-linejoin="round"/>
<path id="path_fdc65da04c71a9ee7bd21f24ecb61146" d="M 25.91394 110.3505 L 26.90417 88.46179 L 26.90405 88.46167 L 31.55225 84.2164 L 31.55151 84.2164 L 37.8241 83.68942 L 37.82483 83.68936 L 64.46033 106.1954 L 64.98694 112.4679 L 64.98694 112.468 L 97.87122 142.7867 L 99.28931 148.9196 L 99.28918 148.9196 L 74.43372 188.721" fill-rule="evenodd" fill="none" fill-opacity="1" stroke="#414141" stroke-opacity="1" stroke-width="1.058333" stroke-linecap="round" stroke-linejoin="round"/>
<path id="path_ab282eab1f25d93735a37e943b3c09e1" d="M 72.82605 191.2953 L 44.7002 236.3337 L 44.69995 236.3337 L 38.56702 237.7514 L 38.56726 237.7514 L 33.51672 233.9951 L 33.51685 233.9952 L 24.71973 174.1588 L 27.89062 165.1248 L 27.89062 165.1249 L 24.05359 151.4601 L 24.05371 151.4601 L 25.77869 113.3404" fill-rule="evenodd" fill="none" fill-opacity="1" stroke="#414141" stroke-opacity="1" stroke-width="1.058333" stroke-linecap="round" stroke-linejoin="round"/>
<path id="path_4a469b33b4173cd3c65ed76cfffeaae8" d="M 167.0134 411.1115 L 158.5796 418.8154 L 158.5796 418.8154 L 146.3851 423.9257 L 146.3851 423.9255 L 86.59497 388.3101 L 86.59497 388.3102 L 88.94543 382.4708 L 88.94543 382.4708 L 118.9053 369.7065 L 124.7445 372.0567 L 124.7446 372.0567 L 160.8945 360.9552 L 160.8948 360.9552 L 165.0381 356.2162 L 180.288 355.1929" fill-rule="evenodd" fill="none" fill-opacity="1" stroke="#414141" stroke-opacity="1" stroke-width="1.058333" stroke-linecap="round" stroke-linejoin="round"/>
<path id="path_c4552643319b7e0caaa7c1925940a725" d="M 183.2375 354.9949 L 196.7903 354.0854 L 201.5289 358.2284 L 201.5288 358.2285 L 232.3431 367.9644 L 232.3436 367.9644 L 238.5482 366.9058 L 238.548 366.9058 L 252.5702 376.8405 L 253.6285 383.0453 L 253.6285 383.0455 L 265.2775 407.0583 L 270.5166 410.5475 L 272.1931 418.9083" fill-rule="evenodd" fill="none" fill-opacity="1" stroke="#414141" stroke-opacity="1" stroke-width="1.058333" stroke-linecap="round" stroke-linejoin="round"/>
<path id="path_a15085148d6bb76609554ff7ef104365" d="M 272.7839 421.8569 L 274.2239 429.0399 L 271.8507 439.8439 L 271.8506 439.8439 L 248.6235 401.9866 L 242.8063 404.3907 L 225.3864 397.1583 L 225.3862 397.1583 L 222.9816 391.3409 L 222.9817 391.3409 L 180.8667 392.4285 L 180.5826 398.7167 L 180.5826 398.7167 L 169.2253 409.091" fill-rule="evenodd" fill="none" fill-opacity="1" stroke="#414141" stroke-opacity="1" stroke-width="1.058333" stroke-linecap="round" stroke-linejoin="round"/>
<path id="path_6d007ad50a8537ad0481c23f140e3b47" d="M 20.87573 441.5315 L 21.59924 435.5372 L 21.59937 435.5372 L 43.80701 418.1131" fill-rule="evenodd" fill="none" fill-opacity="1" stroke="#414141" stroke-opacity="1" stroke-width="1.058333" stroke-linecap="round" stroke-linejoin="round"/>
<path id="path_cb7b8725bceb53c6eb0b94c1bce00a56" d="M 46.08533 416.3255 L 70.40625 397.2434 L 70.40564 397.2434 L 76.65491 397.9976 L 76.65503 397.9976 L 82.92041 398.6086 L 82.92029 398.6086 L 105.6746 426.2806 L 105.6746 426.2806 L 105.0634 432.5455 L 105.0634 432.5455 L 134.2915 465.1307 L 137.9661 470.2414 L 135.4536 485.6109" fill-rule="evenodd" fill="none" fill-opacity="1" stroke="#414141" stroke-opacity="1" stroke-width="1.058333" stroke-linecap="round" stroke-linejoin="round"/>
<path id="path_fd60657671286f8457fc761127ce3387" d="M 134.9973 488.4018 L 132.6665 502.66 L 127.5559 506.3346 L 72.80322 501.0099 L 66.52197 500.5963 L 66.52209 500.5963 L 50.33765 482.1298" fill-rule="evenodd" fill="none" fill-opacity="1" stroke="#414141" stroke-opacity="1" stroke-width="1.058333" stroke-linecap="round" stroke-linejoin="round"/>
<path id="path_98749ccae2bcddf3e0c0e1a0df67c662" d="M 49.11768 480.7378 L 26.51904 454.9532 L 26.51892 454.9532 L 26.93262 448.6721 L 26.93274 448.6721 L 20.87598 441.8213" fill-rule="evenodd" fill="none" fill-opacity="1" stroke="#414141" stroke-opacity="1" stroke-width="1.058333" stroke-linecap="round" stroke-linejoin="round"/>
<path id="path_b01750e0d69871d607c0e9666faf1d1f" d="M 28.22795 12.96686 L 29.02995 12.96686 L 29.02995 16.46844 C 29.02995 17.07753 28.96106 17.56122 28.82326 17.91951 C 28.68546 18.2778 28.43672 18.56925 28.07704 18.79387 C 27.71738 19.01849 27.24541 19.1308 26.66112 19.1308 C 26.09337 19.1308 25.62898 19.03296 25.26793 18.83728 C 24.90689 18.6416 24.6492 18.35841 24.49486 17.98772 C 24.34052 17.61703 24.26335 17.1106 24.26335 16.46844 L 24.26335 12.96686 L 25.06537 12.96686 L 25.06537 16.46431 C 25.06537 16.99072 25.11429 17.37863 25.21213 17.62805 C 25.30997 17.87748 25.47809 18.06972 25.71648 18.20476 C 25.95488 18.33981 26.24634 18.40733 26.59085 18.40733 C 27.18063 18.40733 27.60094 18.27366 27.85175 18.00633 C 28.10254 17.73899 28.22795 17.22498 28.22795 16.46431 L 28.22795 12.96686 Z" fill-rule="evenodd" fill="#0000FF" fill-opacity="1" stroke="#404040" stroke-opacity="1" stroke-width="0.1" stroke-linecap="round" stroke-linejoin="round"/>
<path id="path_69c021f80ddc1bc09c1ace8487359da9" d="M 30.27019 20.71003 L 30.27019 14.63703 L 30.94818 14.63703 L 30.94818 15.20754 C 31.10803 14.9843 31.28854 14.81687 31.48975 14.70525 C 31.69093 14.59363 31.93484 14.53782 32.22148 14.53782 C 32.5963 14.53782 32.92703 14.63428 33.21365 14.8272 C 33.50029 15.02013 33.71663 15.29229 33.8627 15.64369 C 34.00877 15.99509 34.08182 16.38025 34.08182 16.79917 C 34.08182 17.24841 34.00121 17.65286 33.83997 18.01253 C 33.67874 18.37219 33.44447 18.6478 33.13718 18.83935 C 32.82988 19.03089 32.50673 19.12667 32.16772 19.12667 C 31.91969 19.12667 31.69713 19.0743 31.50008 18.96957 C 31.30302 18.86484 31.1411 18.73255 31.01431 18.5727 L 31.01431 20.71003 L 30.27019 20.71003 Z M 30.94405 16.85705 C 30.94405 17.42204 31.05841 17.83958 31.28717 18.10968 C 31.51593 18.37977 31.79291 18.51482 32.11812 18.51482 C 32.44885 18.51482 32.73204 18.37495 32.96768 18.09521 C 33.20332 17.81547 33.32114 17.38207 33.32114 16.79503 C 33.32114 16.23555 33.20607 15.81663 32.97595 15.53827 C 32.74582 15.2599 32.4709 15.12072 32.1512 15.12072 C 31.83424 15.12072 31.55382 15.26886 31.30991 15.56514 C 31.06599 15.86142 30.94405 16.29205 30.94405 16.85705 Z" fill-rule="evenodd" fill="#0000FF" fill-opacity="1" stroke="#404040" stroke-opacity="1" stroke-width="0.1" stroke-linecap="round" stroke-linejoin="round"/>
<path id="path_ae82e419372948303c5432337aa7bbe9" d="M 34.97891 20.71003 L 34.97891 14.63703 L 35.65691 14.63703 L 35.65691 15.20754 C 35.81676 14.9843 35.99727 14.81687 36.19847 14.70525 C 36.39966 14.59363 36.64357 14.53782 36.93021 14.53782 C 37.30502 14.53782 37.63576 14.63428 37.92238 14.8272 C 38.20901 15.02013 38.42537 15.29229 38.57143 15.64369 C 38.7175 15.99509 38.79054 16.38025 38.79054 16.79917 C 38.79054 17.24841 38.70993 17.65286 38.54869 18.01253 C 38.38747 18.37219 38.1532 18.6478 37.8459 18.83935 C 37.5386 19.03089 37.21545 19.12667 36.87645 19.12667 C 36.62842 19.12667 36.40585 19.0743 36.2088 18.96957 C 36.01175 18.86484 35.84982 18.73255 35.72304 18.5727 L 35.72304 20.71003 L 34.97891 20.71003 Z M 35.65277 16.85705 C 35.65277 17.42204 35.76714 17.83958 35.9959 18.10968 C 36.22466 18.37977 36.50163 18.51482 36.82684 18.51482 C 37.15758 18.51482 37.44077 18.37495 37.67641 18.09521 C 37.91205 17.81547 38.02986 17.38207 38.02986 16.79503 C 38.02986 16.23555 37.91479 15.81663 37.68468 15.53827 C 37.45454 15.2599 37.17963 15.12072 36.85992 15.12072 C 36.54297 15.12072 36.26254 15.26886 36.01863 15.56514 C 35.77472 15.86142 35.65277 16.29205 35.65277 16.85705 Z" fill-rule="evenodd" fill="#0000FF" fill-opacity="1" stroke="#404040" stroke-opacity="1" stroke-width="0.1" stroke-linecap="round" stroke-linejoin="round"/>
<path id="path_7f671f824978d96fefa7608530c3c362" d="M 42.69313 17.61358 L 43.46207 17.70867 C 43.34081 18.15791 43.11618 18.50655 42.78822 18.7546 C 42.46025 19.00264 42.04132 19.12667 41.53145 19.12667 C 40.8893 19.12667 40.38011 18.92892 40.00391 18.53342 C 39.6277 18.13793 39.43961 17.58327 39.43961 16.86945 C 39.43961 16.13082 39.62978 15.55756 40.0101 15.14966 C 40.39044 14.74176 40.88377 14.53782 41.49011 14.53782 C 42.07715 14.53782 42.5567 14.73763 42.92877 15.13726 C 43.30084 15.53689 43.48688 16.09913 43.48688 16.82397 C 43.48688 16.86807 43.4855 16.93422 43.48274 17.02241 L 40.20854 17.02241 C 40.2361 17.50472 40.37253 17.87403 40.61781 18.13035 C 40.86311 18.38666 41.16904 18.51482 41.53558 18.51482 C 41.80844 18.51482 42.04132 18.44316 42.23425 18.29984 C 42.42717 18.15653 42.58014 17.92778 42.69313 17.61358 Z M 40.24989 16.41056 L 42.7014 16.41056 C 42.66833 16.04125 42.57462 15.76427 42.42029 15.57961 C 42.18326 15.29298 41.87596 15.14966 41.49838 15.14966 C 41.15663 15.14966 40.86931 15.26404 40.63643 15.49279 C 40.40353 15.72154 40.27469 16.02747 40.24989 16.41056 Z" fill-rule="evenodd" fill="#0000FF" fill-opacity="1" stroke="#404040" stroke-opacity="1" stroke-width="0.1" stroke-linecap="round" stroke-linejoin="round"/>
<path id="path_2db53a51264fcc1e14406b628857a990" d="M 44.38809 19.02745 L 44.38809 14.63703 L 45.05782 14.63703 L 45.05782 15.30263 C 45.22868 14.99119 45.38647 14.78586 45.53117 14.68664 C 45.67586 14.58742 45.83502 14.53782 46.00865 14.53782 C 46.25946 14.53782 46.51439 14.61774 46.77347 14.7776 L 46.51715 15.46799 C 46.33525 15.3605 46.15335 15.30676 45.97145 15.30676 C 45.80884 15.30676 45.66277 15.35568 45.53323 15.45352 C 45.4037 15.55136 45.31137 15.6871 45.25626 15.86073 C 45.17357 16.12531 45.13223 16.4147 45.13223 16.72889 L 45.13223 19.02745 L 44.38809 19.02745 Z" fill-rule="evenodd" fill="#0000FF" fill-opacity="1" stroke="#404040" stroke-opacity="1" stroke-width="0.1" stroke-linecap="round" stroke-linejoin="round"/>
<path id="path_af88008bdde43b294b3152ba96b7dd2f" d="M 49.688 19.02745 L 49.688 12.96686 L 50.49002 12.96686 L 50.49002 15.45559 L 53.64018 15.45559 L 53.6402 12.96686 L 54.4422 12.96686 L 54.4422 19.02745 L 53.64018 19.02745 L 53.64018 16.17078 L 50.49002 16.17078 L 50.49002 19.02745 L 49.688 19.02745 Z" fill-rule="evenodd" fill="#0000FF" fill-opacity="1" stroke="#404040" stroke-opacity="1" stroke-width="0.1" stroke-linecap="round" stroke-linejoin="round"/>
<path id="path_075356b3e754a2266f0c65991800318d" d="M 58.68791 17.61358 L 59.45685 17.70867 C 59.33559 18.15791 59.11096 18.50655 58.783 18.7546 C 58.45503 19.00264 58.0361 19.12667 57.52623 19.12667 C 56.88408 19.12667 56.37489 18.92892 55.99869 18.53342 C 55.62248 18.13793 55.43439 17.58327 55.43439 16.86945 C 55.43439 16.13082 55.62456 15.55756 56.00488 15.14966 C 56.38522 14.74176 56.87856 14.53782 57.48489 14.53782 C 58.07193 14.53782 58.55148 14.73763 58.92355 15.13726 C 59.29562 15.53689 59.48166 16.09913 59.48166 16.82397 C 59.48166 16.86807 59.48029 16.93422 59.47752 17.02241 L 56.20332 17.02241 C 56.23088 17.50472 56.36731 17.87403 56.61259 18.13035 C 56.85789 18.38666 57.16382 18.51482 57.53036 18.51482 C 57.80322 18.51482 58.0361 18.44316 58.22903 18.29984 C 58.42195 18.15653 58.57492 17.92778 58.68791 17.61358 Z M 56.24467 16.41056 L 58.69618 16.41056 C 58.66312 16.04125 58.5694 15.76427 58.41507 15.57961 C 58.17804 15.29298 57.87074 15.14966 57.49316 15.14966 C 57.15141 15.14966 56.86409 15.26404 56.63121 15.49279 C 56.39832 15.72154 56.26947 16.02747 56.24467 16.41056 Z" fill-rule="evenodd" fill="#0000FF" fill-opacity="1" stroke="#404040" stroke-opacity="1" stroke-width="0.1" stroke-linecap="round" stroke-linejoin="round"/>
<path id="path_ec5cd9decc8a178a15e2775be5376ee5" d="M 63.25609 18.48588 C 62.98048 18.72015 62.71523 18.88551 62.46028 18.98197 C 62.20535 19.07843 61.93181 19.12667 61.63966 19.12667 C 61.15735 19.12667 60.78667 19.00884 60.5276 18.7732 C 60.26852 18.53756 60.13899 18.23646 60.13899 17.8699 C 60.13899 17.65493 60.18791 17.45856 60.28575 17.28079 C 60.38359 17.10303 60.51175 16.9604 60.67023 16.85291 C 60.82869 16.74543 61.00716 16.66412 61.20558 16.609 C 61.35165 16.57042 61.57214 16.53321 61.86703 16.49738 C 62.46786 16.42572 62.9102 16.34028 63.19408 16.24106 C 63.19684 16.13909 63.19821 16.07432 63.19821 16.04676 C 63.19821 15.7436 63.12794 15.53 62.98738 15.40598 C 62.79721 15.23786 62.51471 15.1538 62.13989 15.1538 C 61.78987 15.1538 61.53149 15.21512 61.36475 15.33776 C 61.19801 15.46041 61.07468 15.67745 60.99475 15.98888 L 60.26715 15.88967 C 60.3333 15.57823 60.44215 15.32674 60.59373 15.13519 C 60.74533 14.94365 60.96443 14.7962 61.25107 14.69284 C 61.53769 14.58949 61.8698 14.53782 62.24738 14.53782 C 62.62221 14.53782 62.92674 14.58191 63.16101 14.67011 C 63.39528 14.7583 63.56754 14.86923 63.67778 15.0029 C 63.78801 15.13657 63.86519 15.30538 63.90929 15.50933 C 63.93408 15.63611 63.94649 15.86486 63.94649 16.19559 L 63.94649 17.18777 C 63.94649 17.87955 63.96234 18.31707 63.99403 18.50035 C 64.02573 18.68363 64.08842 18.85933 64.18213 19.02745 L 63.40492 19.02745 C 63.32776 18.87311 63.27814 18.69259 63.25609 18.48588 Z M 63.19408 16.82397 C 62.924 16.93422 62.51884 17.02792 61.97867 17.10509 C 61.67274 17.14919 61.45639 17.1988 61.32961 17.25392 C 61.20284 17.30904 61.105 17.38966 61.03609 17.49577 C 60.96719 17.60187 60.93274 17.71969 60.93274 17.84923 C 60.93274 18.04766 61.00784 18.21303 61.15805 18.34532 C 61.30824 18.47761 61.52805 18.54376 61.81743 18.54376 C 62.10406 18.54376 62.35899 18.48106 62.58224 18.35566 C 62.80548 18.23026 62.96947 18.05869 63.07419 17.84096 C 63.15411 17.67284 63.19408 17.4248 63.19408 17.09682 L 63.19408 16.82397 Z" fill-rule="evenodd" fill="#0000FF" fill-opacity="1" stroke="#404040" stroke-opacity="1" stroke-width="0.1" stroke-linecap="round" stroke-linejoin="round"/>
<path id="path_e439903753b62de85d235bbcd508b6be" d="M 67.94826 19.02745 L 67.94826 18.47348 C 67.66991 18.90894 67.26064 19.12667 66.72044 19.12667 C 66.37042 19.12667 66.04866 19.0302 65.75513 18.83728 C 65.46161 18.64436 65.23424 18.37495 65.07301 18.02906 C 64.91177 17.68318 64.83116 17.28561 64.83116 16.83637 C 64.83116 16.39816 64.90421 16.0006 65.05028 15.64369 C 65.19635 15.28678 65.41545 15.01324 65.7076 14.82307 C 65.99974 14.6329 66.32632 14.53782 66.68738 14.53782 C 66.95195 14.53782 67.18759 14.59363 67.3943 14.70525 C 67.601 14.81687 67.76912 14.96225 67.89867 15.14139 L 67.89867 12.96686 L 68.63866 12.96686 L 68.63866 19.02745 L 67.94826 19.02745 Z M 65.59598 16.83637 C 65.59598 17.39861 65.71448 17.81891 65.95151 18.09728 C 66.18852 18.37564 66.46826 18.51482 66.79073 18.51482 C 67.11594 18.51482 67.39223 18.38184 67.61961 18.11588 C 67.84697 17.84992 67.96068 17.44409 67.96068 16.89839 C 67.96068 16.29756 67.84492 15.85659 67.61342 15.57547 C 67.3819 15.29436 67.09665 15.1538 66.75764 15.1538 C 66.42693 15.1538 66.15063 15.28885 65.92877 15.55894 C 65.70691 15.82903 65.59598 16.25484 65.59598 16.83637 Z" fill-rule="evenodd" fill="#0000FF" fill-opacity="1" stroke="#404040" stroke-opacity="1" stroke-width="0.1" stroke-linecap="round" stroke-linejoin="round"/>
<path id="path_bee3cfcc4ee6bd3a42dff16f8e57e248" d="M 24.02357 28.58962 L 24.38324 26.8285 L 23.68459 26.8285 L 23.68459 26.21251 L 24.50726 26.21251 L 24.81319 24.71183 L 23.68459 24.71183 L 23.68459 24.09585 L 24.93721 24.09585 L 25.29688 22.32232 L 25.91699 22.32232 L 25.55733 24.09585 L 26.85956 24.09585 L 27.21922 22.32232 L 27.84348 22.32232 L 27.48381 24.09585 L 28.19901 24.09585 L 28.19901 24.71183 L 27.35979 24.71183 L 27.04973 26.21251 L 28.19901 26.21251 L 28.19901 26.8285 L 26.9257 26.8285 L 26.56604 28.58962 L 25.94592 28.58962 L 26.30145 26.8285 L 25.00336 26.8285 L 24.64369 28.58962 L 24.02357 28.58962 Z M 25.12738 26.21251 L 26.42548 26.21251 L 26.73553 24.71183 L 25.4333 24.71183 L 25.12738 26.21251 Z" fill-rule="evenodd" fill="#0000FF" fill-opacity="1" stroke="#404040" stroke-opacity="1" stroke-width="0.1" stroke-linecap="round" stroke-linejoin="round"/>
<path id="path_74402e5d73a4e54191344ca84ae5a972" d="M 32.51912 23.90982 L 31.77913 23.9677 C 31.71298 23.67555 31.61928 23.46334 31.498 23.33105 C 31.29681 23.11883 31.04877 23.01272 30.75388 23.01272 C 30.51685 23.01272 30.30876 23.07887 30.12962 23.21116 C 29.89536 23.38203 29.71069 23.63145 29.57565 23.95943 C 29.44061 24.2874 29.37033 24.75455 29.36482 25.36089 C 29.54396 25.08804 29.76306 24.88547 30.02214 24.75317 C 30.2812 24.62088 30.55267 24.55474 30.83655 24.55474 C 31.33264 24.55474 31.755 24.73733 32.10365 25.10251 C 32.45229 25.46769 32.62662 25.93966 32.62662 26.51844 C 32.62662 26.89877 32.54462 27.25224 32.38063 27.57883 C 32.21664 27.90543 31.99133 28.15554 31.70471 28.32917 C 31.41808 28.5028 31.09286 28.58962 30.72906 28.58962 C 30.10895 28.58962 29.60321 28.36155 29.21185 27.90543 C 28.8205 27.4493 28.62482 26.69758 28.62482 25.65028 C 28.62482 24.47895 28.84117 23.62732 29.27386 23.0954 C 29.65144 22.63238 30.15994 22.40087 30.79935 22.40087 C 31.27614 22.40087 31.66681 22.53454 31.97136 22.80188 C 32.27591 23.06922 32.4585 23.43853 32.51912 23.90982 Z M 29.48058 26.52257 C 29.48058 26.77888 29.535 27.02417 29.64386 27.25844 C 29.75273 27.49271 29.905 27.67116 30.10068 27.7938 C 30.29636 27.91645 30.50169 27.97777 30.71666 27.97777 C 31.03085 27.97777 31.30095 27.85099 31.52695 27.59743 C 31.75294 27.34388 31.86594 26.99937 31.86594 26.56391 C 31.86594 26.14499 31.75432 25.81495 31.53108 25.5738 C 31.30783 25.33264 31.02672 25.21206 30.68773 25.21206 C 30.35149 25.21206 30.06624 25.33264 29.83197 25.5738 C 29.5977 25.81495 29.48058 26.13121 29.48058 26.52257 Z" fill-rule="evenodd" fill="#0000FF" fill-opacity="1" stroke="#404040" stroke-opacity="1" stroke-width="0.1" stroke-linecap="round" stroke-linejoin="round"/>
</defs>
<g>
<use xlink:href="#path_62a2005b8406a85022cc45a1192f343e"/>
</g>
<g>
<use xlink:href="#path_0900266902e782c16c1df5a187082dc4"/>
</g>
<g>
<use xlink:href="#path_4bc00750136e01de3c3bd2a4440c00a8"/>
</g>
<g>
<use xlink:href="#path_f7b43ef1806f47333cc981c01379da44"/>
</g>
<g>
<use xlink:href="#path_d117790ef887718af7a67508443c1459"/>
</g>
<g>
<use xlink:href="#path_3563f0a170848a96de48b7b1837b4218"/>
</g>
<g>
<use xlink:href="#path_db6624a614ccdb2ef0a46e1261110d9d"/>
</g>
<g>
<use xlink:href="#path_4303b1695f47bfe2a8ebdd7bad31b262"/>
</g>
<g>
<use xlink:href="#path_5bd005f9215ef636b492e4f25f923ff7"/>
</g>
<g>
<use xlink:href="#path_40caaf74cd8128a85d2df8cf9e3cd7c6"/>
</g>
<g>
<use xlink:href="#path_5b2722e278d125f652b96cf43b92d592"/>
</g>
<g>
<use xlink:href="#path_483101390ef0c00855aede166d7bdb54"/>
</g>
<g>
<use xlink:href="#path_7b5ec1aa1098b3cf1f8be3fd5ebcd83e"/>
</g>
<g>
<use xlink:href="#path_1e500a4ad704a38c60e22bb26404e301"/>
</g>
<g>
<use xlink:href="#path_9345dca750cb5e317df2f278f6fc4964"/>
</g>
<g>
<use xlink:href="#path_f2de850e884f31800e579cbc28ee4b36"/>
</g>
<g>
<use xlink:href="#path_3412296e80bc919d172a759395854ed2"/>
</g>
<g>
<use xlink:href="#path_6790dfba03153973f778b8f413b7fa07"/>
</g>
<g>
<use xlink:href="#path_8f5111b6024fd34f7246bae7424f8742"/>
</g>
<g>
<use xlink:href="#path_fdc65da04c71a9ee7bd21f24ecb61146"/>
</g>
<g>
<use xlink:href="#path_ab282eab1f25d93735a37e943b3c09e1"/>
</g>
<g>
<use xlink:href="#path_4a469b33b4173cd3c65ed76cfffeaae8"/>
</g>
<g>
<use xlink:href="#path_c4552643319b7e0caaa7c1925940a725"/>
</g>
<g>
<use xlink:href="#path_a15085148d6bb76609554ff7ef104365"/>
</g>
<g>
<use xlink:href="#path_6d007ad50a8537ad0481c23f140e3b47"/>
</g>
<g>
<use xlink:href="#path_cb7b8725bceb53c6eb0b94c1bce00a56"/>
</g>
<g>
<use xlink:href="#path_fd60657671286f8457fc761127ce3387"/>
</g>
<g>
<use xlink:href="#path_98749ccae2bcddf3e0c0e1a0df67c662"/>
</g>
<g>
<g>
<use xlink:href="#path_b01750e0d69871d607c0e9666faf1d1f"/>
</g>
<g>
<use xlink:href="#path_69c021f80ddc1bc09c1ace8487359da9"/>
</g>
<g>
<use xlink:href="#path_ae82e419372948303c5432337aa7bbe9"/>
</g>
<g>
<use xlink:href="#path_7f671f824978d96fefa7608530c3c362"/>
</g>
<g>
<use xlink:href="#path_2db53a51264fcc1e14406b628857a990"/>
</g>
<g>
<use xlink:href="#path_af88008bdde43b294b3152ba96b7dd2f"/>
</g>
<g>
<use xlink:href="#path_075356b3e754a2266f0c65991800318d"/>
</g>
<g>
<use xlink:href="#path_ec5cd9decc8a178a15e2775be5376ee5"/>
</g>
<g>
<use xlink:href="#path_e439903753b62de85d235bbcd508b6be"/>
</g>
<g>
<use xlink:href="#path_bee3cfcc4ee6bd3a42dff16f8e57e248"/>
</g>
<g>
<use xlink:href="#path_74402e5d73a4e54191344ca84ae5a972"/>
</g>
</g>
</svg>