<?xml version="1.0" encoding="utf-8"?>
<!DOCTYPE svg PUBLIC "-//W3C//DTD SVG 1.1//EN" "http://www.w3.org/Graphics/SVG/1.1/DTD/svg11.dtd">
<!-- exported from Silhouette Studio® Business Edition V4.4.920ssbe -->
<svg version="1.1" xmlns="http://www.w3.org/2000/svg" xmlns:xlink="http://www.w3.org/1999/xlink" width="304.8mm" height="609.6mm" viewBox="0 0 304.8 609.6">
<defs>
<path id="path_34c230e8c23400253cce99f4b40d5375" d="M 245.0872 250.8924 L 239.2935 248.4166 L 239.2935 248.4165 L 216.599 243.9514" fill-rule="evenodd" fill="none" fill-opacity="1" stroke="#0000FF" stroke-opacity="1" stroke-width="1.146528" stroke-linecap="round" stroke-linejoin="round"/>
<path id="path_945ac32a35593868ec778ea7b7e82d26" d="M 217.934 257.3446 L 234.5038 262.3204" fill-rule="evenodd" fill="none" fill-opacity="1" stroke="#0000FF" stroke-opacity="1" stroke-width="1.146528" stroke-linecap="round" stroke-linejoin="round"/>
<path id="path_917e4f3a425b8c6d9c816fa0a35b8268" d="M 216.2783 228.109 L 244.8413 235.1295" fill-rule="evenodd" fill="none" fill-opacity="1" stroke="#0000FF" stroke-opacity="1" stroke-width="1.146528" stroke-linecap="round" stroke-linejoin="round"/>
<path id="path_c8be8f3e0b352bcd5ff9e4464a31d3fb" d="M 269.6882 180.9253 L 249.1799 176.9235 L 249.1799 176.9235 L 250.6226 200.2924 L 250.6226 200.2925 L 223.5358 208.9516" fill-rule="evenodd" fill="none" fill-opacity="1" stroke="#0000FF" stroke-opacity="1" stroke-width="1.146528" stroke-linecap="round" stroke-linejoin="round"/>
<path id="path_98d6bfb7572b119973b828e0cfcd4f24" d="M 249.1799 176.9235 L 233.3792 188.4209" fill-rule="evenodd" fill="none" fill-opacity="1" stroke="#0000FF" stroke-opacity="1" stroke-width="1.146528" stroke-linecap="round" stroke-linejoin="round"/>
<path id="path_47c60f18c781def2b706fa85c468e1a4" d="M 239.5658 160.4261 L 251.1373 171.0908" fill-rule="evenodd" fill="none" fill-opacity="1" stroke="#0000FF" stroke-opacity="1" stroke-width="1.146528" stroke-linecap="round" stroke-linejoin="round"/>
<path id="path_683e105bb79d55bfcc5bf2edaae20ae0" d="M 157.3786 353.0934 L 161.6343 351.7112 L 161.6343 351.7112 L 162.9265 367.2334 L 162.9265 367.2334 L 148.3697 368.0386" fill-rule="evenodd" fill="none" fill-opacity="1" stroke="#0000FF" stroke-opacity="1" stroke-width="1.146528" stroke-linecap="round" stroke-linejoin="round"/>
<path id="path_7b9dc051d200dc4ae2e8106d87357bdc" d="M 146.2366 389.3651 L 173.2375 409.2886 L 173.2375 409.2886 L 185.9023 409.0798" fill-rule="evenodd" fill="none" fill-opacity="1" stroke="#0000FF" stroke-opacity="1" stroke-width="1.146528" stroke-linecap="round" stroke-linejoin="round"/>
<path id="path_623ef68f20e38479c9a2c935ac9f50cb" d="M 136.6508 411.3898 L 165.1479 430.4437 L 165.1479 430.4437 L 187.6604 436.1996" fill-rule="evenodd" fill="none" fill-opacity="1" stroke="#0000FF" stroke-opacity="1" stroke-width="1.146528" stroke-linecap="round" stroke-linejoin="round"/>
<path id="path_aa0c1268e5097dc39f75222b3b259332" d="M 94.55966 71.75262 L 82.27805 92.9064" fill-rule="evenodd" fill="none" fill-opacity="1" stroke="#0000FF" stroke-opacity="1" stroke-width="1.146528" stroke-linecap="round" stroke-linejoin="round"/>
<path id="path_529144ccd7329ffd3b025f1e993f1368" d="M 43.27354 462.7811 L 41.35949 438.8894" fill-rule="evenodd" fill="none" fill-opacity="1" stroke="#0000FF" stroke-opacity="1" stroke-width="1.146528" stroke-linecap="round" stroke-linejoin="round"/>
<path id="path_9c134bf718ca7067f8faf13127bfed7e" d="M 99.05463 565.243 L 136.3359 514.4479 L 136.3808 514.3751 L 113.5785 500.3331 L 113.5785 500.3331 L 104.541 433.807 L 104.541 433.807 L 92.56924 487.3953 L 92.56924 487.3953 L 50.10222 522.204 L 50.10222 522.204 L 113.5785 500.3331" fill-rule="evenodd" fill="none" fill-opacity="1" stroke="#0000FF" stroke-opacity="1" stroke-width="1.146528" stroke-linecap="round" stroke-linejoin="round"/>
<path id="path_1c2eaf747b006bac94e7eebe48a12f89" d="M 59.74815 469.2599 L 58.2355 426.4471 L 58.23551 426.4471 L 75.32499 477.13" fill-rule="evenodd" fill="none" fill-opacity="1" stroke="#0000FF" stroke-opacity="1" stroke-width="1.146528" stroke-linecap="round" stroke-linejoin="round"/>
<path id="path_a81b3f25dd7f2e9f771df09a433f1a3b" d="M 93.80181 384.2492 L 89.43436 385.2222 L 89.43436 385.2222 L 81.01321 387.5669" fill-rule="evenodd" fill="none" fill-opacity="1" stroke="#0000FF" stroke-opacity="1" stroke-width="1.146528" stroke-linecap="round" stroke-linejoin="round"/>
<path id="path_4462633d290bafce39d9ad0935c2d998" d="M 93.29161 369.582 L 87.02393 370.2253 L 87.0239 370.2254 L 74.07887 376.9316" fill-rule="evenodd" fill="none" fill-opacity="1" stroke="#0000FF" stroke-opacity="1" stroke-width="1.146528" stroke-linecap="round" stroke-linejoin="round"/>
<path id="path_8d40d163183fb600a61f0747cce43305" d="M 74.52457 328.7678 L 61.4007 359.6505" fill-rule="evenodd" fill="none" fill-opacity="1" stroke="#0000FF" stroke-opacity="1" stroke-width="1.146528" stroke-linecap="round" stroke-linejoin="round"/>
<path id="path_296d33d6a8c8dc52d403321920a540f9" d="M 29.69308 345.1962 L 56.80407 314.6621 L 56.80407 314.6621 L 41.94956 345.5566" fill-rule="evenodd" fill="none" fill-opacity="1" stroke="#0000FF" stroke-opacity="1" stroke-width="1.146528" stroke-linecap="round" stroke-linejoin="round"/>
<path id="path_c72a76496b8a5754d032341a02b29195" d="M 257.2143 269.6558 L 249.0492 266.5341" fill-rule="evenodd" fill="none" fill-opacity="1" stroke="#0000FF" stroke-opacity="1" stroke-width="1.146528" stroke-linecap="round" stroke-linejoin="round"/>
<path id="path_62937abc739f5a3ce4b841b63d1cf170" d="M 229.0408 303.9651 L 190.4167 324.6649 L 190.4167 324.6649 L 181.2069 343.2471" fill-rule="evenodd" fill="none" fill-opacity="1" stroke="#0000FF" stroke-opacity="1" stroke-width="1.146528" stroke-linecap="round" stroke-linejoin="round"/>
<path id="path_99b476fc9dbfd63f23ab3fe6844d9f68" d="M 185.8328 304.4385 L 190.4167 324.6649" fill-rule="evenodd" fill="none" fill-opacity="1" stroke="#0000FF" stroke-opacity="1" stroke-width="1.146528" stroke-linecap="round" stroke-linejoin="round"/>
<path id="path_2dae8ce37bc1b4ee38d6fa8bd199c747" d="M 101.1206 370.1039 L 109.3398 383.3347 L 109.3397 383.3347 L 126.5531 381.598" fill-rule="evenodd" fill="none" fill-opacity="1" stroke="#0000FF" stroke-opacity="1" stroke-width="1.146528" stroke-linecap="round" stroke-linejoin="round"/>
<path id="path_20d48b34e59aa4689fd6bb2c76316254" d="M 130.249 333.0222 L 105.3011 319.3741 L 105.3011 319.3741 L 93.19534 323.1013" fill-rule="evenodd" fill="none" fill-opacity="1" stroke="#0000FF" stroke-opacity="1" stroke-width="1.146528" stroke-linecap="round" stroke-linejoin="round"/>
<path id="path_542d3d2e45ade99d41dbe436d8dc85f4" d="M 107.2793 368.774 L 130.4089 368.7023" fill-rule="evenodd" fill="none" fill-opacity="1" stroke="#0000FF" stroke-opacity="1" stroke-width="1.146528" stroke-linecap="round" stroke-linejoin="round"/>
<path id="path_f4edb747e5524774a26f4b6b115f5b4b" d="M 104.3573 354.675 L 133.7341 353.2096" fill-rule="evenodd" fill="none" fill-opacity="1" stroke="#0000FF" stroke-opacity="1" stroke-width="1.146528" stroke-linecap="round" stroke-linejoin="round"/>
<path id="path_91e1efa74f4b6f23b57d44520252e1cb" d="M 124.4863 310.9951 L 111.1582 296.7049 L 111.1582 296.7049 L 90.26304 296.7371 L 90.26304 296.7371 L 91.924 271.1516" fill-rule="evenodd" fill="none" fill-opacity="1" stroke="#0000FF" stroke-opacity="1" stroke-width="1.146528" stroke-linecap="round" stroke-linejoin="round"/>
<path id="path_8ed4f734f5865d612739748b19da04b6" d="M 105.3011 319.3741 L 111.1582 296.7049" fill-rule="evenodd" fill="none" fill-opacity="1" stroke="#0000FF" stroke-opacity="1" stroke-width="1.146528" stroke-linecap="round" stroke-linejoin="round"/>
<path id="path_a09512ee1e39dd6e5793ad76b9079c80" d="M 110.3447 290.6066 L 123.7319 282.3349 L 123.7319 282.3349 L 99.00336 244.4107" fill-rule="evenodd" fill="none" fill-opacity="1" stroke="#0000FF" stroke-opacity="1" stroke-width="1.146528" stroke-linecap="round" stroke-linejoin="round"/>
<path id="path_f8b3f80b4162d96a7b299262d49add7b" d="M 203.5594 292.329 L 204.4242 298.4201 L 204.4242 298.4201 L 188.3837 294.5942 L 188.3837 294.5942 L 155.074 266.6947 L 155.074 266.6947 L 124.1778 297.2455" fill-rule="evenodd" fill="none" fill-opacity="1" stroke="#0000FF" stroke-opacity="1" stroke-width="1.146528" stroke-linecap="round" stroke-linejoin="round"/>
<path id="path_12cff8efb8c178dd0d69903635730662" d="M 187.5988 279.6976 L 155.074 266.6947" fill-rule="evenodd" fill="none" fill-opacity="1" stroke="#0000FF" stroke-opacity="1" stroke-width="1.146528" stroke-linecap="round" stroke-linejoin="round"/>
<path id="path_269a27d8df15241fbdf059904b89afb4" d="M 181.3723 353.4154 L 197.8627 353.4668 L 197.8627 353.4668 L 195.5903 359.184" fill-rule="evenodd" fill="none" fill-opacity="1" stroke="#0000FF" stroke-opacity="1" stroke-width="1.146528" stroke-linecap="round" stroke-linejoin="round"/>
<path id="path_6a3dbb0dcd25b1035c322175482cb500" d="M 197.4625 436.912 L 198.7265 485.8118" fill-rule="evenodd" fill="none" fill-opacity="1" stroke="#0000FF" stroke-opacity="1" stroke-width="1.146528" stroke-linecap="round" stroke-linejoin="round"/>
<path id="path_5f937bd0450747c6b13551d20060621e" d="M 266.3568 488.0483 L 278.2111 530.4994 L 278.2111 530.4994 L 253.638 530.4711 L 253.638 530.4711 L 237.9617 503.4346 L 237.9617 503.4346 L 252.765 483.5802 L 252.765 483.5803 L 253.7481 472.2381" fill-rule="evenodd" fill="none" fill-opacity="1" stroke="#0000FF" stroke-opacity="1" stroke-width="1.146528" stroke-linecap="round" stroke-linejoin="round"/>
<path id="path_ca596dcd8410c4e73e86662a57bb6225" d="M 229.9896 354.1029 L 246.3794 372.669 L 246.3794 372.6689 L 248.2944 383.8915" fill-rule="evenodd" fill="none" fill-opacity="1" stroke="#0000FF" stroke-opacity="1" stroke-width="1.146528" stroke-linecap="round" stroke-linejoin="round"/>
<path id="path_3379b4b36b11d0d395fdb111a4a68975" d="M 265.1976 308.8554 L 267.8706 323.8118 L 267.8706 323.8118 L 243.3835 325.8659" fill-rule="evenodd" fill="none" fill-opacity="1" stroke="#0000FF" stroke-opacity="1" stroke-width="1.146528" stroke-linecap="round" stroke-linejoin="round"/>
<path id="path_2bb7731a9708df1d83c3e994f2a3bd86" d="M 163.9304 261.2966 L 190.7203 220.3683 L 190.7203 220.3683 L 195.0899 191.3847" fill-rule="evenodd" fill="none" fill-opacity="1" stroke="#0000FF" stroke-opacity="1" stroke-width="1.146528" stroke-linecap="round" stroke-linejoin="round"/>
<path id="path_5cf4319db2d465b6289a5de02b4de399" d="M 125.4173 78.69586 L 120.8386 61.43649 L 120.8386 61.43661 L 126.0699 33.82166" fill-rule="evenodd" fill="none" fill-opacity="1" stroke="#0000FF" stroke-opacity="1" stroke-width="1.146528" stroke-linecap="round" stroke-linejoin="round"/>
<path id="path_d82651e5ce0acda89fb3399029d81ff6" d="M 230.2218 112.3982 L 200.5695 93.75241" fill-rule="evenodd" fill="none" fill-opacity="1" stroke="#0000FF" stroke-opacity="1" stroke-width="1.146528" stroke-linecap="round" stroke-linejoin="round"/>
<path id="path_e68cd30e2171cf8e8bb060036fe1ac4d" d="M 197.982 58.82086 L 156.6211 40.40692" fill-rule="evenodd" fill="none" fill-opacity="1" stroke="#0000FF" stroke-opacity="1" stroke-width="1.146528" stroke-linecap="round" stroke-linejoin="round"/>
<path id="path_e43a726ee6b49023a6936c89ef8e53ed" d="M 178.676 167.2032 L 191.7814 179.3321 L 191.7813 179.332 L 218.6308 187.6431 L 218.6308 187.6431 L 227.1207 157.5659" fill-rule="evenodd" fill="none" fill-opacity="1" stroke="#0000FF" stroke-opacity="1" stroke-width="1.146528" stroke-linecap="round" stroke-linejoin="round"/>
<path id="path_10e6954a84bbaba0621c3e97844f405f" d="M 84.08335 43.15509 L 111.7387 52.86853" fill-rule="evenodd" fill="none" fill-opacity="1" stroke="#0000FF" stroke-opacity="1" stroke-width="1.146528" stroke-linecap="round" stroke-linejoin="round"/>
<path id="path_dff320d5487f33cb8d559e61e7448053" d="M 56.77668 76.33002 L 75.45973 92.11819" fill-rule="evenodd" fill="none" fill-opacity="1" stroke="#0000FF" stroke-opacity="1" stroke-width="1.146528" stroke-linecap="round" stroke-linejoin="round"/>
<path id="path_21a30cf46e6a4341c5422e2e720752ad" d="M 59.45887 212.5298 L 33.69868 248.5829 L 33.69868 248.5829 L 47.7929 302.0349 L 47.7929 302.0349 L 36.63718 319.7432 L 36.63719 319.7432 L 33.69868 248.5829 L 33.69868 248.5829 L 71.48073 229.7082 L 71.48074 229.7082 L 59.45885 212.5298 L 59.45885 212.5299 L 48.29628 195.2663 L 48.29628 195.2662 L 33.69868 248.5829 L 33.69869 248.5829 L 59.11776 284.8772" fill-rule="evenodd" fill="none" fill-opacity="1" stroke="#FF0000" stroke-opacity="1" stroke-width="1.146528" stroke-linecap="round" stroke-linejoin="round"/>
<path id="path_01ab31536bb3d55020850177e99b3994" d="M 87.12688 248.8348 L 71.30109 267.813 L 71.30109 267.813 L 33.69868 248.5829 L 33.69869 248.5829 L 87.12686 248.8348 L 87.12688 248.8348 Z" fill-rule="evenodd" fill="none" fill-opacity="1" stroke="#FF0000" stroke-opacity="1" stroke-width="1.146528" stroke-linecap="round" stroke-linejoin="round"/>
<path id="path_598f059eceab18ac0413da23bb593754" d="M 217.934 257.3442 L 239.2934 248.4161 L 239.2934 248.416 L 234.5037 262.32 L 234.5037 262.32 L 220.4753 269.8604 L 220.4752 269.8603 L 217.934 257.3442 L 217.934 257.3442 Z" fill-rule="evenodd" fill="none" fill-opacity="1" stroke="#FF0000" stroke-opacity="1" stroke-width="1.146528" stroke-linecap="round" stroke-linejoin="round"/>
<path id="path_7e3128a73ac9505bb6d09e359d9fb01f" d="M 239.5657 160.4257 L 272.9192 155.4899 L 272.9192 155.4899 L 251.1373 171.0905 L 251.1373 171.0903 L 269.6882 180.9248 L 269.6881 180.9248 L 250.6225 200.2921 L 250.6225 200.2921 L 250.9634 220.4476 L 250.9634 220.4475 L 244.8413 235.129 L 244.8413 235.1291 L 216.5989 243.9508 L 216.5989 243.9508 L 216.2782 228.1086 L 216.2782 228.1086 L 223.5358 208.9511 L 223.5358 208.9511 L 244.8413 235.1291" fill-rule="evenodd" fill="none" fill-opacity="1" stroke="#FF0000" stroke-opacity="1" stroke-width="1.146528" stroke-linecap="round" stroke-linejoin="round"/>
<path id="path_b684396e32f96a14d74f1fb45454ff13" d="M 261.7995 206.2516 L 257.4081 210.54 L 257.4081 210.54 L 250.6226 200.2921 L 250.6226 200.2921 L 233.3791 188.4203" fill-rule="evenodd" fill="none" fill-opacity="1" stroke="#FF0000" stroke-opacity="1" stroke-width="1.146528" stroke-linecap="round" stroke-linejoin="round"/>
<path id="path_64fb955a3313adae3700532d4d9b7a61" d="M 225.3271 282.7508 L 230.7791 296.434 L 230.7791 296.4339 L 232.7427 278.5485" fill-rule="evenodd" fill="none" fill-opacity="1" stroke="#FF0000" stroke-opacity="1" stroke-width="1.146528" stroke-linecap="round" stroke-linejoin="round"/>
<path id="path_51378105867ac22219470c7791d324c8" d="M 161.6343 351.7107 L 153.8106 337.3837 L 153.8106 337.3837 L 157.3785 353.0928 L 157.3786 353.0928 L 162.9265 367.2327" fill-rule="evenodd" fill="none" fill-opacity="1" stroke="#FF0000" stroke-opacity="1" stroke-width="1.146528" stroke-linecap="round" stroke-linejoin="round"/>
<path id="path_4a42cb9edd91a3e4f762886a4a83c924" d="M 145.5153 321.4172 L 147.6612 341.5018 L 147.6612 341.5019 L 157.3785 353.0928" fill-rule="evenodd" fill="none" fill-opacity="1" stroke="#FF0000" stroke-opacity="1" stroke-width="1.146528" stroke-linecap="round" stroke-linejoin="round"/>
<path id="path_8dc45b8ba1c106a5eb5aa895d01a0a77" d="M 176.3832 404.0173 L 179.8545 392.7196" fill-rule="evenodd" fill="none" fill-opacity="1" stroke="#FF0000" stroke-opacity="1" stroke-width="1.146528" stroke-linecap="round" stroke-linejoin="round"/>
<path id="path_fc3695221821e91412428e1c21036ce0" d="M 174.6686 377.6817 L 168.651 364.6008" fill-rule="evenodd" fill="none" fill-opacity="1" stroke="#FF0000" stroke-opacity="1" stroke-width="1.146528" stroke-linecap="round" stroke-linejoin="round"/>
<path id="path_c2c7113fb9c8ac1938c733ade6eef14d" d="M 148.3697 368.038 L 147.3364 379.4451" fill-rule="evenodd" fill="none" fill-opacity="1" stroke="#FF0000" stroke-opacity="1" stroke-width="1.146528" stroke-linecap="round" stroke-linejoin="round"/>
<path id="path_1e8fefb43bccb747859b72b0d29d952f" d="M 146.5608 398.0551 L 173.2374 409.2881 L 173.2374 409.2881 L 187.6603 436.199" fill-rule="evenodd" fill="none" fill-opacity="1" stroke="#FF0000" stroke-opacity="1" stroke-width="1.146528" stroke-linecap="round" stroke-linejoin="round"/>
<path id="path_6cd2557e7130f1cc26f49c815a719791" d="M 136.6508 411.3892 L 126.2792 417.9299" fill-rule="evenodd" fill="none" fill-opacity="1" stroke="#FF0000" stroke-opacity="1" stroke-width="1.146528" stroke-linecap="round" stroke-linejoin="round"/>
<path id="path_a75b08c7d64ace92d435406dde61231d" d="M 39.51286 98.90268 L 60.52911 145.6588 L 60.52911 145.6588 L 97.52563 143.5777 L 97.52563 143.5777 L 127.8586 134.7094 L 127.8586 134.7095 L 94.55965 71.75229 L 94.55968 71.75223 L 97.52563 143.5777 L 97.52563 143.5777 L 133.7188 205.6889" fill-rule="evenodd" fill="none" fill-opacity="1" stroke="#FF0000" stroke-opacity="1" stroke-width="1.146528" stroke-linecap="round" stroke-linejoin="round"/>
<path id="path_9666ecade06ffca64ef2861c1c0934a0" d="M 72.71573 212.4668 L 77.99284 214.4928" fill-rule="evenodd" fill="none" fill-opacity="1" stroke="#FF0000" stroke-opacity="1" stroke-width="1.146528" stroke-linecap="round" stroke-linejoin="round"/>
<path id="path_a045dfdb729fd56841178ffb30858c43" d="M 41.35947 438.8889 L 25.3271 457.6926 L 25.3271 457.6926 L 43.27351 462.7805" fill-rule="evenodd" fill="none" fill-opacity="1" stroke="#FF0000" stroke-opacity="1" stroke-width="1.146528" stroke-linecap="round" stroke-linejoin="round"/>
<path id="path_16c5ee169b390f383f7e6b6450aba43d" d="M 92.56938 487.3947 L 113.5786 500.3327" fill-rule="evenodd" fill="none" fill-opacity="1" stroke="#FF0000" stroke-opacity="1" stroke-width="1.146528" stroke-linecap="round" stroke-linejoin="round"/>
<path id="path_a04d401ad48075f050c4774ec65cc316" d="M 133.5455 444.5521 L 104.5412 433.8061 L 104.5412 433.806 L 83.18157 429.3445" fill-rule="evenodd" fill="none" fill-opacity="1" stroke="#FF0000" stroke-opacity="1" stroke-width="1.146528" stroke-linecap="round" stroke-linejoin="round"/>
<path id="path_a151f781840b8a0da4568ec634c2e898" d="M 59.74823 469.2593 L 75.32507 477.1294" fill-rule="evenodd" fill="none" fill-opacity="1" stroke="#FF0000" stroke-opacity="1" stroke-width="1.146528" stroke-linecap="round" stroke-linejoin="round"/>
<path id="path_cfe3868ccc9f98d5c746100ed9274e37" d="M 87.02397 370.2248 L 89.43436 385.2217 L 89.43435 385.2218 L 94.34747 400.5634 L 94.34748 400.5634 L 93.80185 384.2486" fill-rule="evenodd" fill="none" fill-opacity="1" stroke="#FF0000" stroke-opacity="1" stroke-width="1.146528" stroke-linecap="round" stroke-linejoin="round"/>
<path id="path_89d6e850b3a9f85e95722ff4621995bd" d="M 74.07892 376.931 L 81.01324 387.5663" fill-rule="evenodd" fill="none" fill-opacity="1" stroke="#FF0000" stroke-opacity="1" stroke-width="1.146528" stroke-linecap="round" stroke-linejoin="round"/>
<path id="path_e7cbdf71b00a18e49acecaf4e752d557" d="M 61.40075 359.6499 L 67.39032 367.6329" fill-rule="evenodd" fill="none" fill-opacity="1" stroke="#FF0000" stroke-opacity="1" stroke-width="1.146528" stroke-linecap="round" stroke-linejoin="round"/>
<path id="path_43c235c3c947b5a5766a5bd34f42bba8" d="M 91.82408 355.2577 L 88.64543 339.6716" fill-rule="evenodd" fill="none" fill-opacity="1" stroke="#FF0000" stroke-opacity="1" stroke-width="1.146528" stroke-linecap="round" stroke-linejoin="round"/>
<path id="path_0f995794816b281045d6b9d3de2195c8" d="M 79.91301 331.7071 L 74.52463 328.7673 L 74.52463 328.7673 L 73.26489 298.2611 L 73.26488 298.2611 L 85.53713 322.5092" fill-rule="evenodd" fill="none" fill-opacity="1" stroke="#FF0000" stroke-opacity="1" stroke-width="1.146528" stroke-linecap="round" stroke-linejoin="round"/>
<path id="path_0c958917eaa8c7893900cf6978f59e3c" d="M 57.26212 352.0013 L 74.52463 328.7672" fill-rule="evenodd" fill="none" fill-opacity="1" stroke="#FF0000" stroke-opacity="1" stroke-width="1.146528" stroke-linecap="round" stroke-linejoin="round"/>
<path id="path_6e21682d71c904e6c0c874c7830fb2eb" d="M 257.2141 269.6554 L 249.6732 281.646 L 249.6732 281.646 L 263.5647 275.6621" fill-rule="evenodd" fill="none" fill-opacity="1" stroke="#FF0000" stroke-opacity="1" stroke-width="1.146528" stroke-linecap="round" stroke-linejoin="round"/>
<path id="path_e7c501e06293434178ca5796837e3ee6" d="M 204.7213 339.681 L 216.7143 320.3273" fill-rule="evenodd" fill="none" fill-opacity="1" stroke="#FF0000" stroke-opacity="1" stroke-width="1.146528" stroke-linecap="round" stroke-linejoin="round"/>
<path id="path_545fe6bbe98b9a3ddb7d1cd5b7cd86ba" d="M 208.5898 305.1682 L 185.8327 304.4379 L 185.8327 304.438 L 157.3048 320.7177 L 157.3048 320.7176 L 181.3722 353.4148 L 181.3722 353.4148 L 181.2068 343.2466 L 181.2068 343.2467 L 157.3048 320.7177 L 157.3048 320.7176 L 155.074 266.6941" fill-rule="evenodd" fill="none" fill-opacity="1" stroke="#FF0000" stroke-opacity="1" stroke-width="1.146528" stroke-linecap="round" stroke-linejoin="round"/>
<path id="path_299f3308a9301b19cb4f6ed6f89775af" d="M 114.4668 405.1364 L 121.6798 393.4028 L 121.6798 393.4028 L 109.3398 383.3342 L 109.3398 383.3342 L 107.2793 368.7736 L 107.2793 368.7736 L 104.3573 354.6744 L 104.3574 354.6744 L 130.249 333.0215 L 130.249 333.0215 L 133.734 353.209" fill-rule="evenodd" fill="none" fill-opacity="1" stroke="#FF0000" stroke-opacity="1" stroke-width="1.146528" stroke-linecap="round" stroke-linejoin="round"/>
<path id="path_fb3fe76408c914d2eb7d0ee9d199f642" d="M 105.3011 319.3737 L 96.6919 328.1456 L 96.69189 328.1456 L 101.1366 339.0969 L 101.1365 339.097 L 105.3011 319.3737 L 105.3011 319.3737 L 124.4863 310.9946" fill-rule="evenodd" fill="none" fill-opacity="1" stroke="#FF0000" stroke-opacity="1" stroke-width="1.146528" stroke-linecap="round" stroke-linejoin="round"/>
<path id="path_d9a48d544d145178a87e14c12ceae26c" d="M 107.9848 399.7784 L 106.5142 417.7111" fill-rule="evenodd" fill="none" fill-opacity="1" stroke="#FF0000" stroke-opacity="1" stroke-width="1.146528" stroke-linecap="round" stroke-linejoin="round"/>
<path id="path_c95875a555e29dc3dc595bc4524a4c05" d="M 104.3573 354.6744 L 130.4089 368.7018 L 130.4089 368.7018 L 126.5531 381.5974 L 126.5531 381.5974 L 107.2793 368.7735" fill-rule="evenodd" fill="none" fill-opacity="1" stroke="#FF0000" stroke-opacity="1" stroke-width="1.146528" stroke-linecap="round" stroke-linejoin="round"/>
<path id="path_254e9a480a49ff2b5bee69431b4db892" d="M 90.26306 296.7366 L 110.3447 290.6062 L 110.3447 290.6062 L 124.1779 297.2449 L 124.1779 297.2449 L 123.7319 282.3343 L 123.7319 282.3344 L 91.92401 271.1511 L 91.92402 271.151 L 99.00336 244.4101" fill-rule="evenodd" fill="none" fill-opacity="1" stroke="#FF0000" stroke-opacity="1" stroke-width="1.146528" stroke-linecap="round" stroke-linejoin="round"/>
<path id="path_d68300a67519a707b2615ccfec34c93d" d="M 110.3447 290.6062 L 91.92401 271.1511" fill-rule="evenodd" fill="none" fill-opacity="1" stroke="#FF0000" stroke-opacity="1" stroke-width="1.146528" stroke-linecap="round" stroke-linejoin="round"/>
<path id="path_3f460bf09f98574f152992e172581764" d="M 157.3048 320.7177 L 188.3836 294.5935 L 188.3836 294.5935 L 201.6223 286.8369" fill-rule="evenodd" fill="none" fill-opacity="1" stroke="#FF0000" stroke-opacity="1" stroke-width="1.146528" stroke-linecap="round" stroke-linejoin="round"/>
<path id="path_71db9f90002127686e4becf738dc4a6a" d="M 185.8327 304.438 L 188.3837 294.5936 L 188.3836 294.5935 L 187.5988 279.697" fill-rule="evenodd" fill="none" fill-opacity="1" stroke="#FF0000" stroke-opacity="1" stroke-width="1.146528" stroke-linecap="round" stroke-linejoin="round"/>
<path id="path_656c48a7bbfa316a1d9a7d8087092fcc" d="M 252.7648 483.5797 L 198.7264 485.8112 L 198.7264 485.8112 L 253.748 472.2375" fill-rule="evenodd" fill="none" fill-opacity="1" stroke="#FF0000" stroke-opacity="1" stroke-width="1.146528" stroke-linecap="round" stroke-linejoin="round"/>
<path id="path_99ec7fea9bc94ffdcd1cb4985add0954" d="M 262.597 436.0399 L 228.376 437.9611 L 228.376 437.9611 L 197.4625 436.9114" fill-rule="evenodd" fill="none" fill-opacity="1" stroke="#FF0000" stroke-opacity="1" stroke-width="1.146528" stroke-linecap="round" stroke-linejoin="round"/>
<path id="path_e7e11db5de1f1c8643ef0bc31e7b2684" d="M 276.7802 545.6246 L 253.6379 530.4704 L 253.638 530.4704 L 266.3568 488.0476 L 266.3568 488.0476 L 237.9616 503.4339" fill-rule="evenodd" fill="none" fill-opacity="1" stroke="#FF0000" stroke-opacity="1" stroke-width="1.146528" stroke-linecap="round" stroke-linejoin="round"/>
<path id="path_363be8ce26d81c8b0ecbac5ea109f33c" d="M 259.5565 367.0951 L 229.9896 354.1023 L 229.9896 354.1024 L 192.3408 374.8999 L 192.3408 374.8999 L 246.3793 372.6684 L 246.3793 372.6684 L 259.5565 367.0951 L 259.5565 367.0951 L 243.3834 325.8654" fill-rule="evenodd" fill="none" fill-opacity="1" stroke="#FF0000" stroke-opacity="1" stroke-width="1.146528" stroke-linecap="round" stroke-linejoin="round"/>
<path id="path_b2f414f75d66e08a218ef4f9c5e2658f" d="M 192.3409 374.8998 L 248.2943 383.8909" fill-rule="evenodd" fill="none" fill-opacity="1" stroke="#FF0000" stroke-opacity="1" stroke-width="1.146528" stroke-linecap="round" stroke-linejoin="round"/>
<path id="path_d1c5a51f1c0275d0ce2497ca5a8a563d" d="M 225.8347 420.1425 L 260.0976 419.2357" fill-rule="evenodd" fill="none" fill-opacity="1" stroke="#FF0000" stroke-opacity="1" stroke-width="1.146528" stroke-linecap="round" stroke-linejoin="round"/>
<path id="path_225f18e8dd831aac0a14e4f55a20e7e2" d="M 189.8511 196.8352 L 190.7202 220.3679 L 190.7202 220.3678 L 168.865 224.8285 L 168.865 224.8285 L 148.6197 228.9589 L 148.62 228.9608 L 132.3386 242.112" fill-rule="evenodd" fill="none" fill-opacity="1" stroke="#FF0000" stroke-opacity="1" stroke-width="1.146528" stroke-linecap="round" stroke-linejoin="round"/>
<path id="path_0b9b7b43a62764e667b876938963073c" d="M 117.347 256.1791 L 142.4181 257.6403" fill-rule="evenodd" fill="none" fill-opacity="1" stroke="#FF0000" stroke-opacity="1" stroke-width="1.146528" stroke-linecap="round" stroke-linejoin="round"/>
<path id="path_adc6e2ca68f0f23497329d3762201364" d="M 77.71146 77.37457 L 56.77528 76.32837 L 56.77528 76.3284 L 69.90649 60.37537 L 69.90648 60.37531 L 84.08339 43.15472 L 84.0834 43.15472 L 126.0698 33.82104 L 126.0698 33.82104 L 142.7505 59.97778 L 142.7505 59.97778 L 200.5693 93.75198 L 200.5694 93.75201 L 203.3321 160.6545 L 203.3321 160.6545 L 218.6308 187.6426 L 218.6308 187.6426 L 195.0898 191.3843" fill-rule="evenodd" fill="none" fill-opacity="1" stroke="#FF0000" stroke-opacity="1" stroke-width="1.146528" stroke-linecap="round" stroke-linejoin="round"/>
<path id="path_6b88306908fdf47bb4d72c3de2396c74" d="M 191.7813 179.3316 L 203.3321 160.6545 L 203.3321 160.6545 L 230.2217 112.3979" fill-rule="evenodd" fill="none" fill-opacity="1" stroke="#FF0000" stroke-opacity="1" stroke-width="1.146528" stroke-linecap="round" stroke-linejoin="round"/>
<path id="path_851b4dbe35d8e72e137dcccd2dd96043" d="M 177.8211 160.6487 L 203.3321 160.6544 L 203.3321 160.6545 L 227.1206 157.5654" fill-rule="evenodd" fill="none" fill-opacity="1" stroke="#FF0000" stroke-opacity="1" stroke-width="1.146528" stroke-linecap="round" stroke-linejoin="round"/>
<path id="path_24c675502ccb05675439a25640fb0ecb" d="M 200.5694 93.75192 L 134.2332 133.6678 L 134.2333 133.6678 L 130.8079 82.52017" fill-rule="evenodd" fill="none" fill-opacity="1" stroke="#FF0000" stroke-opacity="1" stroke-width="1.146528" stroke-linecap="round" stroke-linejoin="round"/>
<path id="path_cdd54d71ab641353e8f5cdd13ffa8528" d="M 156.6211 40.40643 L 142.7505 59.97778 L 142.7506 59.97778 L 125.4173 78.69553" fill-rule="evenodd" fill="none" fill-opacity="1" stroke="#FF0000" stroke-opacity="1" stroke-width="1.146528" stroke-linecap="round" stroke-linejoin="round"/>
<path id="path_74f25093fb9941b1273f6aa0644d0b09" d="M 120.8386 61.43619 L 142.7505 59.97778 L 142.7505 59.97778 L 197.9819 58.82053" fill-rule="evenodd" fill="none" fill-opacity="1" stroke="#FF0000" stroke-opacity="1" stroke-width="1.146528" stroke-linecap="round" stroke-linejoin="round"/>
<path id="path_1f988dabfd564b78c1ffb9f9dfe6b463" d="M 178.676 167.2027 L 178.881 172.8516" fill-rule="evenodd" fill="none" fill-opacity="1" stroke="#FF0000" stroke-opacity="1" stroke-width="1.146528" stroke-linecap="round" stroke-linejoin="round"/>
<path id="path_2f31cf06630b3d3e503106226ead7c93" d="M 182.0884 202.758 L 190.7202 220.3678" fill-rule="evenodd" fill="none" fill-opacity="1" stroke="#FF0000" stroke-opacity="1" stroke-width="1.146528" stroke-linecap="round" stroke-linejoin="round"/>
<path id="path_b6611568554dfa595538a3442feb1d6c" d="M 148.6193 228.9571 L 157.5005 209.9711" fill-rule="evenodd" fill="none" fill-opacity="1" stroke="#FF0000" stroke-opacity="1" stroke-width="1.146528" stroke-linecap="round" stroke-linejoin="round"/>
<path id="path_7001f7a29adbe0d4205f7b51acc5f604" d="M 104.469 54.94391 L 84.0834 43.15472 L 84.0834 43.15472 L 95.60023 59.02847" fill-rule="evenodd" fill="none" fill-opacity="1" stroke="#FF0000" stroke-opacity="1" stroke-width="1.146528" stroke-linecap="round" stroke-linejoin="round"/>
<path id="path_069cd92fca7aeba2b58ac56be6084b10" d="M 111.7387 52.8681 L 126.0698 33.82104" fill-rule="evenodd" fill="none" fill-opacity="1" stroke="#FF0000" stroke-opacity="1" stroke-width="1.146528" stroke-linecap="round" stroke-linejoin="round"/>
<path id="path_c91eb6b23ceba8bd17fcd3df7437f1f5" d="M 18.07818 91.21042 L 37.52869 84.55325" fill-rule="evenodd" fill="none" fill-opacity="1" stroke="#FF0000" stroke-opacity="1" stroke-width="1.146528" stroke-linecap="round" stroke-linejoin="round"/>
<path id="path_ea1b3a3cce7685a6f4ee166b781fa183" d="M 35.37389 47.65601 L 28.529 68.375" fill-rule="evenodd" fill="none" fill-opacity="1" stroke="#FF0000" stroke-opacity="1" stroke-width="1.146528" stroke-linecap="round" stroke-linejoin="round"/>
<path id="path_6ad9bd35b7c3b49ae1a8550ae2bfe4ef" d="M 60.78456 206.3573 L 60.78457 206.3573 L 60.78457 206.3573 L 60.78456 206.3573 Z" fill-rule="evenodd" fill="none" fill-opacity="1" stroke="#414141" stroke-opacity="1" stroke-width="1.146528" stroke-linecap="round" stroke-linejoin="round"/>
<path id="path_9fd5650818c18353d66f47ad0e087f45" d="M 77.58899 267.2433 L 77.58899 267.2433 L 71.30199 267.8131 L 71.302 267.8131 L 59.11876 284.8774 L 59.11876 284.8773 L 47.79398 302.0349 L 49.19156 308.1912 L 42.79443 318.3458 L 36.63836 319.7432 L 31.79243 310.5811 L 31.79242 310.5811 L 30.64442 282.7805 L 30.76302 282.7702 C 31.79237 282.5727 31.80519 281.0084 30.76575 280.8109 L 30.56238 280.7937 L 29.42404 253.227 L 29.42404 253.227 L 33.69984 248.5828 L 33.69983 248.5828 L 37.30917 177.4532 L 37.30917 177.4532 L 48.29732 195.2658 L 54.4695 196.5906 L 54.4695 196.5907 L 60.78457 206.3573 L 59.45982 212.5296 L 59.45983 212.5297 L 65.67638 213.6273 L 72.57948 223.4916 L 72.57948 223.4916 L 71.48161 229.708 L 71.48163 229.708 L 87.12766 248.8345 L 87.6972 255.1217 L 83.82251 259.7682 L 83.78427 259.7464 C 83.65845 259.6923 83.51166 259.6622 83.34388 259.6638 C 82.40282 259.6732 82.15073 260.609 82.50101 261.1971 L 82.56175 261.2801 L 77.58899 267.2433 Z" fill-rule="evenodd" fill="none" fill-opacity="1" stroke="#414141" stroke-opacity="1" stroke-width="1.146528" stroke-linecap="round" stroke-linejoin="round"/>
<path id="path_f6e695c71a76f57574d64b5a2c7e4377" d="M 87.69722 255.1216 L 87.6972 255.1216 L 87.6972 255.1216 L 87.69722 255.1216 Z" fill-rule="evenodd" fill="none" fill-opacity="1" stroke="#414141" stroke-opacity="1" stroke-width="1.146528" stroke-linecap="round" stroke-linejoin="round"/>
<path id="path_a131d5ded91747237d26434b2f6014cf" d="M 170.2477 502.8312 L 192.4576 511.8436" fill-rule="evenodd" fill="none" fill-opacity="1" stroke="#0000FF" stroke-opacity="1" stroke-width="1.146528" stroke-linecap="round" stroke-linejoin="round"/>
<path id="path_4472503813757948ddaa98ac6ff1095a" d="M 196.5005 546.7267 L 153.3046 515.1828 L 153.3046 515.1828 L 193.6805 529.504" fill-rule="evenodd" fill="none" fill-opacity="1" stroke="#0000FF" stroke-opacity="1" stroke-width="1.146528" stroke-linecap="round" stroke-linejoin="round"/>
<path id="path_1924ca87c344e25ab37796f706152caf" d="M 201.1031 566.2598 L 196.5004 546.7267" fill-rule="evenodd" fill="none" fill-opacity="1" stroke="#FF0000" stroke-opacity="1" stroke-width="1.146528" stroke-linecap="round" stroke-linejoin="round"/>
<path id="path_d85c254c74eb04e5954684df43308e18" d="M 170.2476 502.8312 L 153.3046 515.1829 L 153.3046 515.1829 L 148.5644 539.8446" fill-rule="evenodd" fill="none" fill-opacity="1" stroke="#FF0000" stroke-opacity="1" stroke-width="1.146528" stroke-linecap="round" stroke-linejoin="round"/>
<path id="path_506ea3906e10485b98dfead7cdc51353" d="M 193.6803 529.504 L 192.4576 511.8436" fill-rule="evenodd" fill="none" fill-opacity="1" stroke="#FF0000" stroke-opacity="1" stroke-width="1.146528" stroke-linecap="round" stroke-linejoin="round"/>
<path id="path_114d7e2c705d2b050322ca4d803ffbaf" d="M 146.9106 524.8018 L 148.0789 518.7237 L 153.3049 515.1827 L 153.3049 515.1827 L 154.2824 508.9462 L 164.0113 501.8537 L 164.0113 501.8537 L 170.2478 502.831 L 170.2479 502.831 L 193.0038 493.1978 L 192.4576 511.8434 L 192.4576 511.8434 L 197.2191 515.9883 L 197.219 515.9883 L 197.8252 524.7427 L 193.6803 529.5038 L 193.6803 529.5038 L 196.5005 546.7267 L 196.5005 546.7268 L 201.8691 550.0479 L 201.8691 550.0479 L 202.9633 554.692" fill-rule="evenodd" fill="none" fill-opacity="1" stroke="#414141" stroke-opacity="1" stroke-width="1.146528" stroke-linecap="round" stroke-linejoin="round"/>
<path id="path_3379bfeeb3fbad36bc8bcfb75ff564da" d="M 203.6216 557.4853 L 204.4242 560.8915 L 204.4242 560.8915 L 201.1032 566.2602 L 146.3945 561.5568 L 148.5648 539.8446 L 148.5649 539.8447 L 145.0238 534.6186 L 145.0238 534.6186 L 146.345 527.7448" fill-rule="evenodd" fill="none" fill-opacity="1" stroke="#414141" stroke-opacity="1" stroke-width="1.146528" stroke-linecap="round" stroke-linejoin="round"/>
<path id="path_ba5a08e974f827df6813c21162fb501c" d="M 239.5656 160.4251 L 239.5656 160.4251 L 239.5656 160.4251 L 239.5656 160.4251 Z" fill-rule="evenodd" fill="none" fill-opacity="1" stroke="#414141" stroke-opacity="1" stroke-width="1.146528" stroke-linecap="round" stroke-linejoin="round"/>
<path id="path_351f0f35b2f6bb5131b2f34a73a6e8eb" d="M 211.942 234.4578 L 211.9057 232.6613 L 211.9057 232.6613 L 216.2782 228.1083 L 216.2782 228.1083 L 215.523 217.5012 L 215.523 217.5013 L 217.7801 211.5438 L 223.5357 208.9509 L 223.5357 208.9508 L 233.3789 188.42 L 233.3789 188.4201 L 234.3617 182.1842 L 234.3618 182.1841 L 236.6353 180.5298" fill-rule="evenodd" fill="none" fill-opacity="1" stroke="#414141" stroke-opacity="1" stroke-width="1.146528" stroke-linecap="round" stroke-linejoin="round"/>
<path id="path_f9c0e21ba369a75ec273bb8eae383f3a" d="M 239.0168 178.7969 L 240.6294 177.6233 L 249.1794 176.9224 L 251.1369 171.0898 L 251.1369 171.0897 L 244.8295 171.3469 L 244.8294 171.347 L 239.8226 166.7326 L 239.8226 166.7325 L 239.5655 160.425 L 271.0494 127.8903 L 271.0495 127.8904 L 272.9186 155.4893 L 272.9186 155.4893 L 269.6877 180.9244 L 265.9908 191.0426 L 256.9348 200.2419 L 256.9348 200.2419 L 250.6221 200.2915 L 250.622 200.2916 L 261.7991 206.2513 L 261.7991 206.2512 L 262.7222 211.5889 L 262.7223 211.589 L 257.4078 210.5398 L 257.4078 210.5397 L 250.9631 220.4471 L 250.9631 220.4471 L 253.3651 226.2851 L 252.1189 229.2737" fill-rule="evenodd" fill="none" fill-opacity="1" stroke="#414141" stroke-opacity="1" stroke-width="1.146528" stroke-linecap="round" stroke-linejoin="round"/>
<path id="path_99fc3de2dab4330cd7cdb0d240f7b757" d="M 251.0047 231.9457 L 250.679 232.727 L 250.6789 232.7267 L 244.8409 235.1288 L 244.8409 235.1289 L 239.2932 248.4157 L 239.2932 248.4157 L 239.2933 248.4159 L 239.2932 248.4157 L 243.9441 245.5492 L 243.9441 245.5492 L 245.0869 250.8916 L 245.0869 250.8917 L 234.5035 262.3198 L 234.5034 262.3198 L 232.7426 278.5486 L 236.6927 283.4729 L 236.462 285.5726 L 236.462 285.5727 L 230.7789 296.4339 L 230.779 296.4338 L 223.5235 290.2838 L 223.5235 290.2838 L 222.8326 288.5497 L 222.8326 288.5497 L 225.3272 282.7507 L 225.3271 282.7507 L 220.4752 269.8602 L 215.2125 266.374 L 214.4476 262.6068 L 214.4476 262.6068 L 217.9339 257.344 L 217.9339 257.344 L 216.5987 243.9507 L 216.5988 243.9509 L 212.0456 239.5781 L 212.0456 239.5781 L 212.0024 237.4442" fill-rule="evenodd" fill="none" fill-opacity="1" stroke="#414141" stroke-opacity="1" stroke-width="1.146528" stroke-linecap="round" stroke-linejoin="round"/>
<path id="path_987170b8d9c066da90e77504ca8c3a42" d="M 165.1482 430.4439 L 126.2798 417.9305 L 126.2798 417.9305 L 127.6744 411.7738 L 127.6744 411.7738 L 130.4946 409.9952 L 130.4946 409.9952 L 136.6514 411.3899 L 136.6514 411.3899 L 146.5612 398.0555 L 146.5612 398.0555 L 146.2372 389.3651 L 146.2371 389.3651 L 147.3369 379.4456 L 147.3369 379.4456 L 143.294 374.5974 L 143.294 374.5975 L 143.5219 372.0813 L 143.5219 372.0813 L 148.3702 368.0385 L 148.3702 368.0384 L 148.9352 355.3548 L 148.9352 355.3548 L 157.3789 353.0931 L 157.3789 353.0931 L 151.0906 352.5403 L 151.0906 352.5403 L 148.4089 349.3416 L 148.4089 349.3416 L 147.6617 341.5022 L 147.6617 341.5022 L 142.7489 337.538 L 142.749 337.5379 L 142.2902 333.2434 L 142.2902 333.2434 L 145.5159 321.4173 L 145.5159 321.4173 L 153.8111 337.384 L 153.811 337.384 L 159.868 339.1623 L 159.868 339.1623 L 163.4131 345.6539 L 163.4131 345.6539 L 161.6347 351.711 L 161.6347 351.711 L 166.9229 361.4292 L 166.9229 361.4292 L 167.0049 362.4145 L 167.0049 362.4145 L 162.9269 367.2332 L 162.9269 367.2332 L 168.6514 364.6013 L 168.6514 364.6012 L 174.5721 366.791 L 174.5721 366.791 L 176.8587 371.7615 L 176.8587 371.7615 L 174.6689 377.6822 L 174.6689 377.6822 L 179.8547 392.7201 L 179.8547 392.7201 L 182.1789 400.3541 L 182.1789 400.3541 L 181.9614 401.062 L 181.9615 401.062 L 176.3836 404.0179 L 176.3836 404.0179 L 173.2377 409.2886 L 173.2377 409.2886 L 179.4966 404.7212 L 179.4966 404.7212 L 185.9026 409.08 L 185.9025 409.0799 L 187.6606 436.1997 L 187.6606 436.1997 L 182.2302 439.4187 L 182.2302 439.4187 L 168.3672 435.8743 L 168.3672 435.8743 L 165.1483 430.4439 L 165.1482 430.4439 Z" fill-rule="evenodd" fill="none" fill-opacity="1" stroke="#414141" stroke-opacity="1" stroke-width="1.146528" stroke-linecap="round" stroke-linejoin="round"/>
<path id="path_78bf385fa19cc7bf3830eee39581ed84" d="M 88.70189 148.5442 L 65.23747 149.8642 L 65.23747 149.8641 L 60.53006 145.6582 L 60.53006 145.6582 L 54.62861 143.4167 L 54.62859 143.4167 L 44.96537 121.918" fill-rule="evenodd" fill="none" fill-opacity="1" stroke="#414141" stroke-opacity="1" stroke-width="1.146528" stroke-linecap="round" stroke-linejoin="round"/>
<path id="path_86a5350cba571c82175a7e74bffee5f6" d="M 44.1424 120.0871 L 37.27251 104.8031 L 37.27251 104.8031 L 39.51389 98.90161 L 42.86853 94.35233 L 50.12795 105.5625 L 50.12798 105.5625 L 54.69086 111.2535 L 61.05518 113.8177 L 61.05517 113.8176 L 66.94774 113.3482 L 66.94777 113.3484 L 74.36571 110.9782 L 74.36571 110.9782 L 80.38532 104.0207 L 80.38531 104.0204 L 82.27882 92.90491 L 82.27881 92.90491 L 80.65972 86.80341 L 80.65974 86.80341 L 87.76254 74.56961 L 87.76253 74.5694 L 94.56036 71.75104 L 101.5344 75.38943 L 101.5344 75.38959 L 114.0939 99.13586" fill-rule="evenodd" fill="none" fill-opacity="1" stroke="#414141" stroke-opacity="1" stroke-width="1.146528" stroke-linecap="round" stroke-linejoin="round"/>
<path id="path_c33cb6ec692832775a1ef1ba71eb8022" d="M 114.9786 100.8085 L 122.3181 114.6852 L 122.3182 114.6852 L 127.8591 134.7086 L 127.8591 134.7088 L 133.7193 205.6884 L 111.9767 194.482 L 111.9767 194.4822 L 104.3935 186.1374 L 104.3935 186.1373 L 95.5741 183.5181 L 88.04752 185.5173 L 88.04755 185.5172 L 82.83028 188.2958 L 82.83028 188.2959 L 78.84949 193.8846 L 78.84951 193.8846 L 78.07098 201.1374 L 77.9937 214.4926 L 77.9937 214.4926 L 73.75531 217.6466 L 73.75532 217.6467 L 72.71661 212.4666 L 65.23569 161.7531 L 97.52634 143.577" fill-rule="evenodd" fill="none" fill-opacity="1" stroke="#414141" stroke-opacity="1" stroke-width="1.146528" stroke-linecap="round" stroke-linejoin="round"/>
<path id="path_c07b4ddebc55ec1706075bcc71a62c1b" d="M 136.3357 514.2689 L 137.2932 520.5085 L 137.2932 520.5085 L 121.0897 542.5859" fill-rule="evenodd" fill="none" fill-opacity="1" stroke="#414141" stroke-opacity="1" stroke-width="1.146528" stroke-linecap="round" stroke-linejoin="round"/>
<path id="path_de5ea72c28265a86c660ea066cdfa80c" d="M 119.4019 545.066 L 105.2949 564.2868 L 99.05527 565.2444 L 72.75325 543.2686 L 50.1032 522.2049 L 56.08204 511.5325 L 86.28802 486.7732 L 86.28802 486.7733 L 92.56993 487.3959 L 75.32603 477.1306 L 75.32604 477.1306 L 69.26753 479.0706 L 61.72039 475.2574 L 59.74931 469.2604 L 59.7493 469.2604 L 43.27457 462.7818 L 37.76256 465.8586 L 28.40516 463.2057 L 25.32824 457.6938 L 25.32824 457.6938 L 24.82757 451.401 L 24.82758 451.4011 L 29.52828 445.8878" fill-rule="evenodd" fill="none" fill-opacity="1" stroke="#414141" stroke-opacity="1" stroke-width="1.146528" stroke-linecap="round" stroke-linejoin="round"/>
<path id="path_55d5cb530c121d9b6f418b3784affd1b" d="M 31.50893 443.5639 L 35.06779 439.3898 L 35.06779 439.3898 L 41.36058 438.8891 L 58.23671 426.4466 L 58.23671 426.4466 L 83.1822 429.3446 L 83.18215 429.3446 L 88.46428 425.8879 L 88.46429 425.8879 L 101.0849 428.524 L 101.0849 428.524 L 104.5416 433.8062 L 110.2781 431.1713 L 121.1583 435.2024" fill-rule="evenodd" fill="none" fill-opacity="1" stroke="#414141" stroke-opacity="1" stroke-width="1.146528" stroke-linecap="round" stroke-linejoin="round"/>
<path id="path_ced4ae6b5e63274644d5f7bac6cef320" d="M 123.8941 436.0399 L 130.9104 438.6395 L 130.9104 438.6395 L 133.5453 444.376 L 133.5453 444.376 L 165.007 457.9729 L 136.4255 514.1257" fill-rule="evenodd" fill="none" fill-opacity="1" stroke="#414141" stroke-opacity="1" stroke-width="1.146528" stroke-linecap="round" stroke-linejoin="round"/>
<path id="path_4052eaf1e5a22f23ede704efeddd50e4" d="M 85.16116 312.0565 L 87.50504 316.6876 L 87.50506 316.6877 L 85.53798 322.6862 L 85.53801 322.686 L 74.52554 328.9443 L 74.52554 328.9443 L 79.35759 326.4956 L 79.35759 326.4955 L 79.91387 331.8839 L 79.91389 331.8841 L 88.64627 339.8486 L 88.64626 339.8486 L 93.912 343.3304 L 95.30667 350.1691 L 95.30666 350.1692 L 91.82488 355.4349 L 93.29242 369.7585 L 93.29242 369.7585 L 90.61446 374.5207 L 90.61446 374.5207 L 87.02481 370.4019 L 93.80263 384.4259 L 98.41312 388.7379 L 98.41312 388.7379 L 98.66034 396.1302 L 98.66034 396.1302 L 94.34828 400.7407 L 94.3483 400.7407 L 95.32132 418.7073 L 95.3213 418.7073 L 86.9593 400.3202 L 86.9593 400.3202 L 89.43523 385.3989 L 86.42197 390.8715 L 81.01415 387.7436 L 74.83699 386.4423 L 72.77859 383.2854 L 72.77861 383.2853 L 74.07987 377.1082 L 67.39128 367.81 L 61.14183 366.9185 L 61.14185 366.9184 L 60.51008 366.0764 L 60.51009 366.0763 L 61.40178 359.8269 L 57.26315 352.1783 L 41.95077 345.733 L 41.95077 345.733 L 29.69438 345.3727 L 29.69438 345.3727 L 29.32011 339.071 L 37.13871 330.2651" fill-rule="evenodd" fill="none" fill-opacity="1" stroke="#414141" stroke-opacity="1" stroke-width="1.146528" stroke-linecap="round" stroke-linejoin="round"/>
<path id="path_71ecaa9e7ab2437260472bc7e6f24ea9" d="M 38.91111 328.0922 L 50.47967 315.0628 L 50.47967 315.0627 L 56.80516 314.6618 L 56.80516 314.6619 L 73.26582 298.2613 L 73.26581 298.2612 L 79.26422 300.2282 L 79.26422 300.2282 L 83.79294 309.1762" fill-rule="evenodd" fill="none" fill-opacity="1" stroke="#414141" stroke-opacity="1" stroke-width="1.146528" stroke-linecap="round" stroke-linejoin="round"/>
<path id="path_e634ed68190083586e40e0485fdaeb9b" d="M 258.1902 282.1777 L 257.3461 283.201 L 257.3461 283.201 L 255.5385 283.9797 L 255.5385 283.9799 L 249.6729 281.6462 L 249.0489 266.5338 L 249.0489 266.5337 L 254.7254 263.925 L 257.214 269.6552 L 257.214 269.6552 L 263.5644 275.6622 L 263.5644 275.6623 L 260.0927 279.8712" fill-rule="evenodd" fill="none" fill-opacity="1" stroke="#414141" stroke-opacity="1" stroke-width="1.146528" stroke-linecap="round" stroke-linejoin="round"/>
<path id="path_257ebcf4206a508d67671f9b0f7c2a8c" d="M 198.3847 300.3749 L 204.2715 300.5639 L 204.2715 300.5639 L 208.5899 305.1683 L 229.0407 303.9646 L 229.0408 303.9646 L 216.7143 320.3276 L 216.7143 320.3275 L 218.1575 326.473 L 214.9042 331.723" fill-rule="evenodd" fill="none" fill-opacity="1" stroke="#414141" stroke-opacity="1" stroke-width="1.146528" stroke-linecap="round" stroke-linejoin="round"/>
<path id="path_48077fb149e4f56cc09b4a79bceb02e1" d="M 213.3017 334.3091 L 210.867 338.2383 L 210.867 338.2383 L 204.7214 339.6815 L 204.7214 339.6815 L 190.4169 324.6646 L 192.4341 330.6462 L 192.4341 330.6463 L 187.1888 341.2297 L 187.1887 341.2297 L 181.207 343.2468 L 181.207 343.2469 L 197.8627 353.4666 L 197.8627 353.4666 L 200.8748 357.9739 L 200.8747 357.9739 L 195.5904 359.1838 L 181.3725 353.4151 L 181.3725 353.4153 L 175.1315 352.4663 L 175.1315 352.4662 L 156.3563 326.9587 L 156.3564 326.9587 L 157.3053 320.7178 L 157.3052 320.7178 L 124.1785 297.245 L 124.1785 297.2449 L 115.546 297.9327" fill-rule="evenodd" fill="none" fill-opacity="1" stroke="#414141" stroke-opacity="1" stroke-width="1.146528" stroke-linecap="round" stroke-linejoin="round"/>
<path id="path_feea7b2ecf00989588a48a577c5f7199" d="M 115.2657 298.031 L 110.3454 290.7829 L 110.3454 290.783 L 111.1588 296.8813 L 111.1588 296.8812 L 119.42 299.1941 L 119.4199 299.1941 L 124.7067 304.8627 L 124.4869 311.1715 L 130.2495 333.1987 L 130.2496 333.1987 L 135.4077 336.838 L 136.4915 343.116 L 133.7346 353.3862 L 133.7346 353.3862 L 130.4095 368.879 L 133.4075 374.4343 L 133.4075 374.4343 L 132.1091 378.7766 L 132.1091 378.7767 L 126.5537 381.7747 L 126.5537 381.7747 L 121.6804 393.5801 L 123.1455 399.7204 L 123.1455 399.7204 L 120.6078 403.8487 L 120.6078 403.8486 L 114.4675 405.3137 L 114.4675 405.3138 L 106.5149 417.7117 L 106.5149 417.7116 L 104.0817 409.5843" fill-rule="evenodd" fill="none" fill-opacity="1" stroke="#414141" stroke-opacity="1" stroke-width="1.146528" stroke-linecap="round" stroke-linejoin="round"/>
<path id="path_47c74ccd00d08e7bcec27bdade48f495" d="M 103.2165 406.5176 L 102.9992 405.7917 L 102.9992 405.7917 L 103.1718 403.6863 L 103.1718 403.6862 L 107.9856 399.6022 L 107.9856 399.6022 L 109.3405 383.3346 L 109.3405 383.3346 L 101.4392 379.0745 L 101.1214 370.1036 L 107.28 368.7738 L 102.0033 365.3088 L 102.0032 365.3088 L 100.893 359.9514 L 104.3581 354.6748 L 101.1373 339.0972 L 101.1373 339.0972 L 95.3226 336.64 L 95.32259 336.6399 L 94.2352 333.9604 L 96.69267 328.1459 L 96.6927 328.1458 L 93.19615 323.1008 L 96.1488 317.5214 L 99.72217 316.4211 L 99.72215 316.4211 L 105.3019 319.3737 L 105.3019 319.3737 L 90.26388 296.7368 L 90.26387 296.7368 L 86.09863 291.9932 L 86.95161 278.8539 L 91.92479 271.1511 L 88.75204 265.6937 L 92.94009 249.8739 L 92.94009 249.8739 L 99.0041 244.41 L 105.1813 245.7111 L 105.1813 245.7111 L 112.365 256.7282" fill-rule="evenodd" fill="none" fill-opacity="1" stroke="#414141" stroke-opacity="1" stroke-width="1.146528" stroke-linecap="round" stroke-linejoin="round"/>
<path id="path_0e23f7e2af59aafdf26cb192a0e91277" d="M 113.456 258.4014 L 122.2904 271.9503 L 122.2904 271.9503 L 123.7325 282.3345 L 155.0743 266.694 L 160.8762 264.2065 L 160.8763 264.2065 L 185.1112 273.8953 L 187.5989 279.6971 L 201.6225 286.8369 L 201.6225 286.8369 L 198.0596 293.1495" fill-rule="evenodd" fill="none" fill-opacity="1" stroke="#414141" stroke-opacity="1" stroke-width="1.146528" stroke-linecap="round" stroke-linejoin="round"/>
<path id="path_b068992b5eb99e59c1648fa412397eec" d="M 188.3839 294.5938 L 203.5594 292.3286 L 203.5594 292.3286 L 208.4113 294.7467 L 208.4113 294.7467 L 204.4242 298.4198 L 204.4242 298.4198 L 185.8329 304.4381" fill-rule="evenodd" fill="none" fill-opacity="1" stroke="#414141" stroke-opacity="1" stroke-width="1.146528" stroke-linecap="round" stroke-linejoin="round"/>
<path id="path_9d47351fec7aa32453ab588062bd37e1" d="M 193.5393 457.8822 L 193.1156 441.4896 L 197.4626 436.9119 L 202.0753 432.6022 L 224.0662 433.3491 L 224.0662 433.349 L 228.3759 437.9617 L 232.5824 433.2547 L 232.5825 433.2547 L 257.8897 431.834 L 257.8896 431.834 L 262.5966 436.0405 L 253.7477 472.2382 L 253.7477 472.2382 L 257.8093 477.0708 L 257.5972 479.5189 L 257.5971 479.5189 L 252.7646 483.5805 L 252.7647 483.5805 L 266.3563 488.0484 L 271.8562 491.1472 L 271.8562 491.1472 L 275.3583 503.6883" fill-rule="evenodd" fill="none" fill-opacity="1" stroke="#414141" stroke-opacity="1" stroke-width="1.146528" stroke-linecap="round" stroke-linejoin="round"/>
<path id="path_dd9f162bec9728410ffafdbb50d510f4" d="M 276.1473 506.5142 L 281.3094 525 L 278.2106 530.4997 L 278.2106 530.4996 L 276.7798 545.6255 L 276.7797 545.6255 L 270.6 546.9147 L 254.9266 536.6512 L 254.9267 536.6512 L 253.6378 530.4714 L 253.6378 530.4715 L 247.5371 528.8488 L 247.537 528.8488 L 236.3389 509.5353 L 236.3389 509.5353 L 237.9615 503.4348 L 237.9615 503.4348 L 198.7265 485.812 L 198.7265 485.812 L 194.1488 481.4651 L 193.6162 460.8574" fill-rule="evenodd" fill="none" fill-opacity="1" stroke="#414141" stroke-opacity="1" stroke-width="1.146528" stroke-linecap="round" stroke-linejoin="round"/>
<path id="path_c2e6725629b82719fdf523ce72e5bde6" d="M 243.0179 424.1538 L 230.4149 424.4874 L 230.4149 424.4874 L 225.8347 420.1431 L 225.8348 420.1432 L 195.1131 423.7382 L 195.1131 423.7382 L 192.341 374.9005 L 196.4631 367.5237 L 196.4632 367.5237 L 207.4332 361.4636" fill-rule="evenodd" fill="none" fill-opacity="1" stroke="#414141" stroke-opacity="1" stroke-width="1.146528" stroke-linecap="round" stroke-linejoin="round"/>
<path id="path_251339d45fe81b97f82d91e151d7b41a" d="M 210.042 360.0226 L 223.2578 352.7219 L 223.2578 352.7219 L 229.9895 354.1026 L 229.9895 354.1027 L 243.3833 325.8655 L 243.3832 325.8656 L 265.1972 308.8551 L 265.1973 308.8551 L 270.3767 312.4639 L 270.3766 312.464 L 271.4791 318.632 L 267.8703 323.8116 L 259.5563 367.0955 L 259.5562 367.0955 L 257.184 372.9456 L 257.1841 372.9456 L 252.2292 375.0411 L 252.2292 375.0413 L 246.3792 372.6689 L 251.5301 376.3183 L 251.5301 376.3183 L 251.9435 378.7406 L 251.9435 378.7406 L 248.2941 383.8915 L 248.2941 383.8915 L 260.0974 419.2364 L 260.0974 419.2364 L 255.7531 423.8167 L 245.3321 424.0925" fill-rule="evenodd" fill="none" fill-opacity="1" stroke="#414141" stroke-opacity="1" stroke-width="1.146528" stroke-linecap="round" stroke-linejoin="round"/>
<path id="path_a936b8c465d909c8f3dc48fe8bf3bc55" d="M 134.6172 75.33005 L 131.7259 78.45227 L 131.7259 78.45227 L 125.4178 78.69467 L 125.4178 78.6947 L 120.5228 75.86789 L 120.5228 75.86777 L 120.8391 61.43509 L 120.8391 61.43509 L 111.7393 52.86707 L 111.7393 52.86694 L 104.4696 54.94263 L 104.4697 54.94269 L 95.60094 59.02747 L 95.60092 59.02747 L 88.47847 61.24329 L 88.47847 61.24316 L 82.7765 66.94638 L 82.7765 66.94629 L 77.71227 77.37378 L 75.4606 92.11694 L 75.4606 92.11703 L 69.17001 92.64529 L 69.17001 92.6452 L 64.11084 88.36978" fill-rule="evenodd" fill="none" fill-opacity="1" stroke="#414141" stroke-opacity="1" stroke-width="1.146528" stroke-linecap="round" stroke-linejoin="round"/>
<path id="path_ce636363dc4d8ffde4e425f9ff4d8392" d="M 62.55546 87.0553 L 59.24751 84.2598 L 56.77766 76.32864 L 56.77478 76.3262 L 37.52975 84.55234 L 37.52976 84.55243 L 34.75203 90.22107 L 23.74812 93.98724 L 23.74813 93.98724 L 18.07937 91.20944 L 28.53012 68.37387 L 28.53012 68.37393 L 25.69186 62.7355 L 25.69186 62.73538 L 29.73624 50.49286 L 29.73624 50.4931 L 35.37496 47.65485 L 35.37495 47.65479 L 84.08412 43.15344 L 84.08414 43.15344 L 91.83503 36.85767 L 91.83502 36.85797 L 103.4135 34.28394" fill-rule="evenodd" fill="none" fill-opacity="1" stroke="#414141" stroke-opacity="1" stroke-width="1.146528" stroke-linecap="round" stroke-linejoin="round"/>
<path id="path_c2e5d4ee948d2ecb67524f5e97249f27" d="M 105.1989 33.88721 L 120.7443 30.43146 L 120.7442 30.43146 L 126.0703 33.82019 L 126.0703 33.82019 L 156.6214 40.40582 L 156.6214 40.4057 L 162.5148 38.14307 L 162.5148 38.14313 L 177.3664 44.75519" fill-rule="evenodd" fill="none" fill-opacity="1" stroke="#414141" stroke-opacity="1" stroke-width="1.146528" stroke-linecap="round" stroke-linejoin="round"/>
<path id="path_2482c0bd7e6143f3f4e58a7b8425b513" d="M 179.108 45.53052 L 194.4875 52.37744 L 197.982 58.81931 L 197.982 58.81952 L 200.5694 93.75122 L 200.5694 93.75122 L 214.4672 97.21747 L 220.1129 100.7675" fill-rule="evenodd" fill="none" fill-opacity="1" stroke="#414141" stroke-opacity="1" stroke-width="1.146528" stroke-linecap="round" stroke-linejoin="round"/>
<path id="path_fb303a85d26722e70f642d28759d7eea" d="M 221.7313 101.7852 L 228.8191 106.242 L 230.2217 112.3972 L 227.1204 157.5651 L 227.1204 157.5651 L 230.2038 163.0735 L 230.2038 163.0736 L 224.1393 184.5592 L 224.1393 184.5591 L 218.6307 187.6421 L 190.7203 220.3676 L 190.7204 220.3676 L 192.0106 226.547 L 182.9064 240.4561" fill-rule="evenodd" fill="none" fill-opacity="1" stroke="#414141" stroke-opacity="1" stroke-width="1.146528" stroke-linecap="round" stroke-linejoin="round"/>
<path id="path_b4a8c5f38427b1512d68b71fec2509a6" d="M 181.7455 242.2297 L 170.1101 260.0059 L 170.1101 260.0059 L 163.9307 261.2964 L 163.9307 261.2963 L 142.4185 257.6401 L 142.4186 257.6401 L 137.7026 261.8368 L 137.7026 261.8369 L 121.5441 260.8951 L 121.5441 260.8951 L 117.3476 256.179 L 132.3392 242.1118 L 132.3392 242.1118 L 133.0066 235.8344 L 133.0066 235.8344 L 136.558 232.9659" fill-rule="evenodd" fill="none" fill-opacity="1" stroke="#414141" stroke-opacity="1" stroke-width="1.146528" stroke-linecap="round" stroke-linejoin="round"/>
<path id="path_003b0bc26892e76a5698467135cf7060" d="M 138.13 231.696 L 140.777 229.5579 L 140.777 229.5579 L 148.6205 228.9604 L 148.6198 228.9569 L 143.4199 205.0552 L 143.4198 205.0553 L 157.5009 209.9707 L 157.5008 209.9707 L 169.0856 210.3796 L 169.0856 210.3797 L 176.7952 208.0131 L 176.7953 208.0131 L 182.0885 202.7577 L 189.8512 196.8349 L 189.8512 196.8349 L 195.0898 191.3839 L 195.0898 191.3839 L 191.7813 179.3312 L 191.7813 179.3312 L 178.881 172.8511 L 178.881 172.8511 L 174.3178 170.1885 L 178.676 167.2024 L 178.676 167.2025 L 203.3321 160.654" fill-rule="evenodd" fill="none" fill-opacity="1" stroke="#414141" stroke-opacity="1" stroke-width="1.146528" stroke-linecap="round" stroke-linejoin="round"/>
<path id="path_39a2cf43a0e4d75f4223219ffce441ad" d="M 186.5394 165.1138 L 182.2841 165.1129 L 182.2841 165.1129 L 177.8213 160.648 L 134.2337 133.6671 L 134.2337 133.6671 L 129.4817 129.5115 L 129.4817 129.5115 L 127.9305 106.3486" fill-rule="evenodd" fill="none" fill-opacity="1" stroke="#414141" stroke-opacity="1" stroke-width="1.146528" stroke-linecap="round" stroke-linejoin="round"/>
<path id="path_516f19ddd993e10f04986cefc380263a" d="M 127.8013 104.4199 L 126.9488 91.68988 L 126.9488 91.68988 L 130.8085 82.51938 L 130.8085 82.51932 L 142.751 59.97675" fill-rule="evenodd" fill="none" fill-opacity="1" stroke="#414141" stroke-opacity="1" stroke-width="1.146528" stroke-linecap="round" stroke-linejoin="round"/>
<path id="path_9a0fc14b79613ce58ac4cc8a5f07c43e" d="M 216.7103 20.29742 L 217.5123 20.29742 L 217.5123 23.79901 C 217.5123 24.4081 217.4434 24.89179 217.3056 25.25008 C 217.1678 25.60837 216.9191 25.89983 216.5594 26.12445 C 216.1997 26.34907 215.7277 26.46138 215.1435 26.46138 C 214.5757 26.46138 214.1113 26.36354 213.7503 26.16786 C 213.3892 25.97218 213.1315 25.68899 212.9772 25.31829 C 212.8228 24.9476 212.7457 24.44117 212.7457 23.79901 L 212.7457 20.29742 L 213.5477 20.29742 L 213.5477 23.79488 C 213.5477 24.32129 213.5966 24.7092 213.6944 24.95863 C 213.7923 25.20805 213.9604 25.40029 214.1988 25.53534 C 214.4372 25.67038 214.7287 25.73791 215.0732 25.73791 C 215.663 25.73791 216.0833 25.60424 216.3341 25.3369 C 216.5849 25.06956 216.7103 24.55555 216.7103 23.79488 L 216.7103 20.29742 Z" fill-rule="evenodd" fill="#0000FF" fill-opacity="1" stroke="#404040" stroke-opacity="1" stroke-width="0.1" stroke-linecap="round" stroke-linejoin="round"/>
<path id="path_5792811cc0822cf49e47d19620854379" d="M 218.7525 28.04061 L 218.7525 21.9676 L 219.4305 21.9676 L 219.4305 22.5381 C 219.5904 22.31486 219.7709 22.14743 219.9721 22.03581 C 220.1733 21.92419 220.4172 21.86838 220.7038 21.86838 C 221.0787 21.86838 221.4094 21.96484 221.696 22.15776 C 221.9826 22.35069 222.199 22.62285 222.3451 22.97425 C 222.4911 23.32565 222.5642 23.71082 222.5642 24.12974 C 222.5642 24.57898 222.4836 24.98343 222.3223 25.3431 C 222.1611 25.70277 221.9268 25.97837 221.6195 26.16992 C 221.3122 26.36147 220.9891 26.45724 220.6501 26.45724 C 220.402 26.45724 220.1795 26.40488 219.9824 26.30015 C 219.7854 26.19542 219.6234 26.06313 219.4967 25.90327 L 219.4967 28.04061 L 218.7525 28.04061 Z M 219.4264 24.18761 C 219.4264 24.75261 219.5408 25.17016 219.7695 25.44025 C 219.9983 25.71035 220.2753 25.84539 220.6005 25.84539 C 220.9312 25.84539 221.2144 25.70552 221.45 25.42578 C 221.6857 25.14604 221.8035 24.71265 221.8035 24.1256 C 221.8035 23.56612 221.6884 23.1472 221.4583 22.86883 C 221.2282 22.59047 220.9533 22.45129 220.6336 22.45129 C 220.3166 22.45129 220.0362 22.59943 219.7923 22.8957 C 219.5484 23.19198 219.4264 23.62262 219.4264 24.18761 Z" fill-rule="evenodd" fill="#0000FF" fill-opacity="1" stroke="#404040" stroke-opacity="1" stroke-width="0.1" stroke-linecap="round" stroke-linejoin="round"/>
<path id="path_10e8d380cce890553ada22677e1242ee" d="M 223.4613 28.04061 L 223.4613 21.9676 L 224.1393 21.9676 L 224.1393 22.5381 C 224.2991 22.31486 224.4796 22.14743 224.6808 22.03581 C 224.882 21.92419 225.126 21.86838 225.4126 21.86838 C 225.7874 21.86838 226.1181 21.96484 226.4048 22.15776 C 226.6914 22.35069 226.9077 22.62285 227.0538 22.97425 C 227.1999 23.32565 227.2729 23.71082 227.2729 24.12974 C 227.2729 24.57898 227.1923 24.98343 227.0311 25.3431 C 226.8699 25.70277 226.6356 25.97837 226.3283 26.16992 C 226.021 26.36147 225.6978 26.45724 225.3588 26.45724 C 225.1108 26.45724 224.8882 26.40488 224.6912 26.30015 C 224.4941 26.19542 224.3322 26.06313 224.2054 25.90327 L 224.2054 28.04061 L 223.4613 28.04061 Z M 224.1351 24.18761 C 224.1351 24.75261 224.2495 25.17016 224.4783 25.44025 C 224.707 25.71035 224.984 25.84539 225.3092 25.84539 C 225.64 25.84539 225.9231 25.70552 226.1588 25.42578 C 226.3944 25.14604 226.5123 24.71265 226.5123 24.1256 C 226.5123 23.56612 226.3972 23.1472 226.1671 22.86883 C 225.9369 22.59047 225.662 22.45129 225.3423 22.45129 C 225.0254 22.45129 224.7449 22.59943 224.501 22.8957 C 224.2571 23.19198 224.1351 23.62262 224.1351 24.18761 Z" fill-rule="evenodd" fill="#0000FF" fill-opacity="1" stroke="#404040" stroke-opacity="1" stroke-width="0.1" stroke-linecap="round" stroke-linejoin="round"/>
<path id="path_c8bb90d9e832555304926704ea536fd5" d="M 231.1756 24.94416 L 231.9445 25.03924 C 231.8232 25.48848 231.5986 25.83713 231.2706 26.08517 C 230.9427 26.33322 230.5237 26.45724 230.0139 26.45724 C 229.3717 26.45724 228.8625 26.2595 228.4863 25.864 C 228.1101 25.4685 227.922 24.91384 227.922 24.20002 C 227.922 23.46139 228.1122 22.88813 228.4925 22.48023 C 228.8729 22.07233 229.3662 21.86838 229.9725 21.86838 C 230.5596 21.86838 231.0391 22.06819 231.4112 22.46782 C 231.7833 22.86745 231.9693 23.4297 231.9693 24.15454 C 231.9693 24.19864 231.9679 24.26479 231.9652 24.35298 L 228.691 24.35298 C 228.7185 24.83529 228.8549 25.20461 229.1002 25.46092 C 229.3455 25.71724 229.6514 25.84539 230.018 25.84539 C 230.2908 25.84539 230.5237 25.77374 230.7167 25.63042 C 230.9096 25.48711 231.0626 25.25835 231.1756 24.94416 Z M 228.7323 23.74113 L 231.1838 23.74113 C 231.1507 23.37182 231.0571 23.09483 230.9027 22.91017 C 230.6657 22.62354 230.3584 22.48023 229.9808 22.48023 C 229.6391 22.48023 229.3517 22.5946 229.1188 22.82336 C 228.8859 23.05211 228.7571 23.35804 228.7323 23.74113 Z" fill-rule="evenodd" fill="#0000FF" fill-opacity="1" stroke="#404040" stroke-opacity="1" stroke-width="0.1" stroke-linecap="round" stroke-linejoin="round"/>
<path id="path_22b6ca4665023a9caa275f70d14ff172" d="M 232.8705 26.35803 L 232.8705 21.9676 L 233.5402 21.9676 L 233.5402 22.63319 C 233.7111 22.32175 233.8689 22.11642 234.0136 22.01721 C 234.1583 21.91799 234.3175 21.86838 234.4911 21.86838 C 234.7419 21.86838 234.9968 21.94831 235.2559 22.10816 L 234.9996 22.79855 C 234.8177 22.69107 234.6358 22.63732 234.4539 22.63732 C 234.2913 22.63732 234.1452 22.68624 234.0157 22.78408 C 233.8861 22.88192 233.7938 23.01766 233.7387 23.1913 C 233.656 23.45588 233.6147 23.74527 233.6147 24.05946 L 233.6147 26.35803 L 232.8705 26.35803 Z" fill-rule="evenodd" fill="#0000FF" fill-opacity="1" stroke="#404040" stroke-opacity="1" stroke-width="0.1" stroke-linecap="round" stroke-linejoin="round"/>
<path id="path_0ea220184a39ada6dd36a7199c85ae8e" d="M 238.1705 26.35803 L 238.1705 20.29742 L 238.9725 20.29742 L 238.9725 22.78615 L 242.1227 22.78615 L 242.1227 20.29742 L 242.9247 20.29742 L 242.9247 26.35803 L 242.1227 26.35803 L 242.1227 23.50135 L 238.9725 23.50135 L 238.9725 26.35803 L 238.1705 26.35803 Z" fill-rule="evenodd" fill="#0000FF" fill-opacity="1" stroke="#404040" stroke-opacity="1" stroke-width="0.1" stroke-linecap="round" stroke-linejoin="round"/>
<path id="path_398f6f194187ac7a55f318d5472b3dd9" d="M 247.1705 24.94416 L 247.9394 25.03924 C 247.8181 25.48848 247.5935 25.83713 247.2655 26.08517 C 246.9376 26.33322 246.5186 26.45724 246.0087 26.45724 C 245.3666 26.45724 244.8574 26.2595 244.4812 25.864 C 244.105 25.4685 243.9169 24.91384 243.9169 24.20002 C 243.9169 23.46139 244.1071 22.88813 244.4874 22.48023 C 244.8678 22.07233 245.3611 21.86838 245.9674 21.86838 C 246.5545 21.86838 247.034 22.06819 247.4061 22.46782 C 247.7782 22.86745 247.9642 23.4297 247.9642 24.15454 C 247.9642 24.19864 247.9628 24.26479 247.9601 24.35298 L 244.6859 24.35298 C 244.7134 24.83529 244.8498 25.20461 245.0951 25.46092 C 245.3404 25.71724 245.6463 25.84539 246.0129 25.84539 C 246.2858 25.84539 246.5186 25.77374 246.7116 25.63042 C 246.9045 25.48711 247.0574 25.25835 247.1705 24.94416 Z M 244.7272 23.74113 L 247.1787 23.74113 C 247.1456 23.37182 247.0519 23.09483 246.8976 22.91017 C 246.6606 22.62354 246.3533 22.48023 245.9757 22.48023 C 245.6339 22.48023 245.3466 22.5946 245.1137 22.82336 C 244.8808 23.05211 244.752 23.35804 244.7272 23.74113 Z" fill-rule="evenodd" fill="#0000FF" fill-opacity="1" stroke="#404040" stroke-opacity="1" stroke-width="0.1" stroke-linecap="round" stroke-linejoin="round"/>
<path id="path_f822b25e7108166ce24566b7bb8586a5" d="M 251.7386 25.81646 C 251.463 26.05072 251.1978 26.21609 250.9428 26.31255 C 250.6879 26.40901 250.4144 26.45724 250.1222 26.45724 C 249.6399 26.45724 249.2692 26.33942 249.0101 26.10378 C 248.7511 25.86813 248.6215 25.56703 248.6215 25.20047 C 248.6215 24.9855 248.6704 24.78913 248.7683 24.61136 C 248.8661 24.43359 248.9943 24.29097 249.1528 24.18348 C 249.3112 24.076 249.4897 23.99469 249.6881 23.93957 C 249.8342 23.90098 250.0547 23.86378 250.3496 23.82795 C 250.9504 23.75629 251.3928 23.67085 251.6766 23.57163 C 251.6794 23.46966 251.6808 23.40489 251.6808 23.37733 C 251.6808 23.07416 251.6105 22.86057 251.4699 22.73654 C 251.2798 22.56842 250.9973 22.48436 250.6224 22.48436 C 250.2724 22.48436 250.014 22.54568 249.8473 22.66833 C 249.6805 22.79097 249.5572 23.00801 249.4773 23.31945 L 248.7497 23.22023 C 248.8158 22.9088 248.9247 22.6573 249.0763 22.46576 C 249.2279 22.27421 249.447 22.12676 249.7336 22.02341 C 250.0202 21.92006 250.3523 21.86838 250.7299 21.86838 C 251.1048 21.86838 251.4093 21.91248 251.6435 22.00067 C 251.8778 22.08886 252.0501 22.19979 252.1603 22.33347 C 252.2706 22.46714 252.3477 22.63594 252.3918 22.83989 C 252.4166 22.96667 252.429 23.19543 252.429 23.52616 L 252.429 24.51834 C 252.429 25.21012 252.4449 25.64765 252.4766 25.83093 C 252.5083 26.01421 252.571 26.18991 252.6647 26.35803 L 251.8875 26.35803 C 251.8103 26.20369 251.7607 26.02316 251.7386 25.81646 Z M 251.6766 24.15454 C 251.4065 24.26479 251.0014 24.35849 250.4612 24.43566 C 250.1553 24.47976 249.9389 24.52937 249.8121 24.58449 C 249.6854 24.63961 249.5875 24.72023 249.5186 24.82634 C 249.4497 24.93245 249.4153 25.05027 249.4153 25.1798 C 249.4153 25.37824 249.4904 25.54361 249.6406 25.6759 C 249.7908 25.80819 250.0106 25.87433 250.3 25.87433 C 250.5866 25.87433 250.8415 25.81163 251.0648 25.68623 C 251.288 25.56083 251.452 25.38926 251.5567 25.17153 C 251.6367 25.00341 251.6766 24.75537 251.6766 24.42739 L 251.6766 24.15454 Z" fill-rule="evenodd" fill="#0000FF" fill-opacity="1" stroke="#404040" stroke-opacity="1" stroke-width="0.1" stroke-linecap="round" stroke-linejoin="round"/>
<path id="path_17e8c90c3669e7bbe036bcb175f92d4b" d="M 256.4308 26.35803 L 256.4308 25.80405 C 256.1524 26.23951 255.7432 26.45724 255.203 26.45724 C 254.853 26.45724 254.5312 26.36078 254.2377 26.16786 C 253.9442 25.97493 253.7168 25.70553 253.5556 25.35964 C 253.3943 25.01375 253.3137 24.61619 253.3137 24.16695 C 253.3137 23.72873 253.3867 23.33117 253.5328 22.97425 C 253.6789 22.61734 253.898 22.3438 254.1901 22.15363 C 254.4823 21.96346 254.8089 21.86838 255.1699 21.86838 C 255.4345 21.86838 255.6702 21.92419 255.8769 22.03581 C 256.0836 22.14743 256.2516 22.29281 256.3812 22.47196 L 256.3812 20.29742 L 257.1212 20.29742 L 257.1212 26.35803 L 256.4308 26.35803 Z M 254.0785 24.16695 C 254.0785 24.72919 254.197 25.14949 254.434 25.42785 C 254.6711 25.70621 254.9508 25.84539 255.2733 25.84539 C 255.5985 25.84539 255.8748 25.71242 256.1021 25.44646 C 256.3295 25.18049 256.4432 24.77466 256.4432 24.22896 C 256.4432 23.62813 256.3274 23.18716 256.0959 22.90604 C 255.8644 22.62492 255.5792 22.48436 255.2402 22.48436 C 254.9095 22.48436 254.6332 22.61941 254.4113 22.88951 C 254.1895 23.1596 254.0785 23.58541 254.0785 24.16695 Z" fill-rule="evenodd" fill="#0000FF" fill-opacity="1" stroke="#404040" stroke-opacity="1" stroke-width="0.1" stroke-linecap="round" stroke-linejoin="round"/>
<path id="path_1859b49e1da8211978b7b6780a35c8e8" d="M 260.7303 26.35803 L 260.7303 20.29742 L 261.553 20.29742 L 264.7363 25.05578 L 264.7363 20.29742 L 265.5052 20.29742 L 265.5052 26.35803 L 264.6825 26.35803 L 261.4993 21.59553 L 261.4993 26.35803 L 260.7303 26.35803 Z" fill-rule="evenodd" fill="#0000FF" fill-opacity="1" stroke="#404040" stroke-opacity="1" stroke-width="0.1" stroke-linecap="round" stroke-linejoin="round"/>
<path id="path_8231b30a06b1cd13d8cd0c5af5902288" d="M 266.4809 24.16281 C 266.4809 23.34977 266.7069 22.74757 267.1589 22.3562 C 267.5365 22.03099 267.9967 21.86838 268.5397 21.86838 C 269.1432 21.86838 269.6366 22.06613 270.0197 22.46162 C 270.4027 22.85712 270.5943 23.40351 270.5943 24.1008 C 270.5943 24.66579 270.5096 25.11021 270.3401 25.43405 C 270.1706 25.75789 269.9239 26.00938 269.6 26.18853 C 269.2762 26.36767 268.9228 26.45724 268.5397 26.45724 C 267.9251 26.45724 267.4283 26.26019 267.0493 25.86607 C 266.6704 25.47195 266.4809 24.90419 266.4809 24.16281 Z M 267.2457 24.16281 C 267.2457 24.72505 267.3683 25.14604 267.6136 25.42578 C 267.8589 25.70552 268.1676 25.84539 268.5397 25.84539 C 268.909 25.84539 269.2162 25.70484 269.4615 25.42372 C 269.7068 25.1426 269.8295 24.71403 269.8295 24.13801 C 269.8295 23.59506 269.7061 23.18372 269.4595 22.90397 C 269.2128 22.62423 268.9062 22.48436 268.5397 22.48436 C 268.1676 22.48436 267.8589 22.62354 267.6136 22.90191 C 267.3683 23.18027 267.2457 23.60057 267.2457 24.16281 Z" fill-rule="evenodd" fill="#0000FF" fill-opacity="1" stroke="#404040" stroke-opacity="1" stroke-width="0.1" stroke-linecap="round" stroke-linejoin="round"/>
<path id="path_c9668bd9c08a6034990f8bb2e1cf51da" d="M 271.1689 25.04751 L 271.9047 24.93176 C 271.9461 25.22666 272.0612 25.45266 272.25 25.60975 C 272.4388 25.76685 272.7027 25.84539 273.0417 25.84539 C 273.3834 25.84539 273.637 25.7758 273.8024 25.63662 C 273.9677 25.49744 274.0504 25.33414 274.0504 25.14673 C 274.0504 24.97861 273.9774 24.84632 273.8313 24.74986 C 273.7293 24.68371 273.4758 24.59965 273.0706 24.49767 C 272.5249 24.35987 272.1466 24.24067 271.9357 24.14007 C 271.7249 24.03948 271.5651 23.90029 271.4562 23.72253 C 271.3473 23.54476 271.2929 23.34839 271.2929 23.13342 C 271.2929 22.93773 271.3377 22.75652 271.4273 22.58978 C 271.5169 22.42304 271.6389 22.28454 271.7932 22.1743 C 271.909 22.08886 272.0667 22.01652 272.2665 21.95726 C 272.4663 21.898 272.6807 21.86838 272.9094 21.86838 C 273.2539 21.86838 273.5564 21.91799 273.8168 22.01721 C 274.0773 22.11642 274.2695 22.25078 274.3935 22.42028 C 274.5175 22.58978 274.6029 22.81647 274.6498 23.10035 L 273.9222 23.19956 C 273.8892 22.97356 273.7934 22.79717 273.6349 22.67039 C 273.4764 22.54362 273.2525 22.48023 272.9631 22.48023 C 272.6214 22.48023 272.3774 22.53673 272.2313 22.64973 C 272.0853 22.76273 272.0123 22.89502 272.0123 23.0466 C 272.0123 23.14306 272.0426 23.22988 272.1033 23.30705 C 272.1639 23.38698 272.2589 23.45312 272.3885 23.50549 C 272.4629 23.53305 272.682 23.59644 273.0458 23.69566 C 273.5722 23.83622 273.9395 23.95128 274.1476 24.04085 C 274.3557 24.13043 274.519 24.26065 274.6375 24.43153 C 274.756 24.60241 274.8152 24.81462 274.8152 25.06818 C 274.8152 25.31623 274.7429 25.54981 274.5982 25.76892 C 274.4535 25.98802 274.2447 26.15752 273.9719 26.27741 C 273.699 26.3973 273.3903 26.45724 273.0458 26.45724 C 272.4753 26.45724 272.0405 26.33873 271.7415 26.10171 C 271.4424 25.86469 271.2516 25.51329 271.1689 25.04751 Z" fill-rule="evenodd" fill="#0000FF" fill-opacity="1" stroke="#404040" stroke-opacity="1" stroke-width="0.1" stroke-linecap="round" stroke-linejoin="round"/>
<path id="path_5028c7e89775179e92be8c200f3da4a7" d="M 278.7054 24.94416 L 279.4744 25.03924 C 279.3531 25.48848 279.1285 25.83713 278.8005 26.08517 C 278.4726 26.33322 278.0536 26.45724 277.5438 26.45724 C 276.9016 26.45724 276.3924 26.2595 276.0162 25.864 C 275.64 25.4685 275.4519 24.91384 275.4519 24.20002 C 275.4519 23.46139 275.6421 22.88813 276.0224 22.48023 C 276.4027 22.07233 276.8961 21.86838 277.5024 21.86838 C 278.0894 21.86838 278.569 22.06819 278.9411 22.46782 C 279.3132 22.86745 279.4992 23.4297 279.4992 24.15454 C 279.4992 24.19864 279.4978 24.26479 279.4951 24.35298 L 276.2208 24.35298 C 276.2484 24.83529 276.3848 25.20461 276.6301 25.46092 C 276.8754 25.71724 277.1813 25.84539 277.5479 25.84539 C 277.8207 25.84539 278.0536 25.77374 278.2465 25.63042 C 278.4395 25.48711 278.5924 25.25835 278.7054 24.94416 Z M 276.2621 23.74113 L 278.7137 23.74113 C 278.6806 23.37182 278.5869 23.09483 278.4326 22.91017 C 278.1956 22.62354 277.8883 22.48023 277.5107 22.48023 C 277.1689 22.48023 276.8816 22.5946 276.6487 22.82336 C 276.4158 23.05211 276.287 23.35804 276.2621 23.74113 Z" fill-rule="evenodd" fill="#0000FF" fill-opacity="1" stroke="#404040" stroke-opacity="1" stroke-width="0.1" stroke-linecap="round" stroke-linejoin="round"/>
<path id="path_54ddba57ed80b4967c2ae8d7a77f43b2" d="M 212.7746 35.81688 L 212.7746 29.75627 L 216.8633 29.75627 L 216.8633 30.47147 L 213.5766 30.47147 L 213.5766 32.34836 L 216.4209 32.34836 L 216.4209 33.06356 L 213.5766 33.06356 L 213.5766 35.81688 L 212.7746 35.81688 Z" fill-rule="evenodd" fill="#0000FF" fill-opacity="1" stroke="#404040" stroke-opacity="1" stroke-width="0.1" stroke-linecap="round" stroke-linejoin="round"/>
<path id="path_2c09c4423b1dd58156056091f8a9a5e2" d="M 217.8017 35.81688 L 217.8017 31.42645 L 218.4714 31.42645 L 218.4714 32.09204 C 218.6423 31.78061 218.8001 31.57528 218.9448 31.47606 C 219.0895 31.37684 219.2486 31.32723 219.4223 31.32723 C 219.6731 31.32723 219.928 31.40716 220.1871 31.56701 L 219.9308 32.25741 C 219.7489 32.14992 219.567 32.09618 219.3851 32.09618 C 219.2225 32.09618 219.0764 32.14509 218.9469 32.24294 C 218.8173 32.34077 218.725 32.47652 218.6699 32.65015 C 218.5872 32.91473 218.5458 33.20412 218.5458 33.51831 L 218.5458 35.81688 L 217.8017 35.81688 Z" fill-rule="evenodd" fill="#0000FF" fill-opacity="1" stroke="#404040" stroke-opacity="1" stroke-width="0.1" stroke-linecap="round" stroke-linejoin="round"/>
<path id="path_f6f6a206ef0e15c0c270b9a53b0fea26" d="M 220.3524 33.62167 C 220.3524 32.80862 220.5784 32.20642 221.0304 31.81506 C 221.408 31.48984 221.8683 31.32723 222.4112 31.32723 C 223.0148 31.32723 223.5081 31.52498 223.8912 31.92048 C 224.2743 32.31598 224.4659 32.86237 224.4659 33.55965 C 224.4659 34.12465 224.3811 34.56907 224.2116 34.89291 C 224.0421 35.21674 223.7955 35.46823 223.4716 35.64738 C 223.1478 35.82652 222.7943 35.9161 222.4112 35.9161 C 221.7966 35.9161 221.2998 35.71904 220.9209 35.32492 C 220.5419 34.9308 220.3524 34.36305 220.3524 33.62167 Z M 221.1172 33.62167 C 221.1172 34.1839 221.2399 34.6049 221.4852 34.88464 C 221.7305 35.16438 222.0391 35.30424 222.4112 35.30424 C 222.7805 35.30424 223.0878 35.16369 223.3331 34.88257 C 223.5784 34.60145 223.701 34.17287 223.701 33.59686 C 223.701 33.05391 223.5777 32.64256 223.3311 32.36282 C 223.0844 32.08308 222.7778 31.94322 222.4112 31.94322 C 222.0391 31.94322 221.7305 32.08239 221.4852 32.36076 C 221.2399 32.63912 221.1172 33.05943 221.1172 33.62167 Z" fill-rule="evenodd" fill="#0000FF" fill-opacity="1" stroke="#404040" stroke-opacity="1" stroke-width="0.1" stroke-linecap="round" stroke-linejoin="round"/>
<path id="path_7564df247ffc84a548ae7d472061b237" d="M 225.3382 35.81688 L 225.3382 31.42645 L 226.0079 31.42645 L 226.0079 32.0507 C 226.3304 31.56838 226.7961 31.32723 227.4052 31.32723 C 227.6698 31.32723 227.913 31.37478 228.1349 31.46986 C 228.3568 31.56495 228.5228 31.68966 228.6331 31.844 C 228.7433 31.99834 228.8205 32.18161 228.8646 32.39383 C 228.8921 32.53163 228.9059 32.77279 228.9059 33.1173 L 228.9059 35.81688 L 228.1618 35.81688 L 228.1618 33.14624 C 228.1618 32.84307 228.1328 32.61639 228.075 32.46618 C 228.0171 32.31598 227.9144 32.19608 227.767 32.10651 C 227.6195 32.01694 227.4466 31.97215 227.2481 31.97215 C 226.9312 31.97215 226.6577 32.07275 226.4275 32.27394 C 226.1974 32.47513 226.0823 32.85685 226.0823 33.41909 L 226.0823 35.81688 L 225.3382 35.81688 Z" fill-rule="evenodd" fill="#0000FF" fill-opacity="1" stroke="#404040" stroke-opacity="1" stroke-width="0.1" stroke-linecap="round" stroke-linejoin="round"/>
<path id="path_ac26ce29cbf07b8dbd8ad82dc84e93b6" d="M 231.6716 35.15128 L 231.7791 35.80861 C 231.5697 35.8527 231.3822 35.87476 231.2169 35.87476 C 230.9468 35.87476 230.7373 35.83204 230.5885 35.7466 C 230.4397 35.66116 230.3349 35.54885 230.2743 35.40967 C 230.2137 35.27049 230.1834 34.97765 230.1834 34.53117 L 230.1834 32.00523 L 229.6377 32.00523 L 229.6377 31.42645 L 230.1834 31.42645 L 230.1834 30.33918 L 230.9234 29.8927 L 230.9234 31.42645 L 231.6716 31.42645 L 231.6716 32.00523 L 230.9234 32.00523 L 230.9234 34.57251 C 230.9234 34.78473 230.9365 34.92115 230.9626 34.98179 C 230.9888 35.04242 231.0315 35.09065 231.0908 35.12648 C 231.1501 35.16231 231.2348 35.18022 231.345 35.18022 C 231.4277 35.18022 231.5366 35.17057 231.6716 35.15128 Z" fill-rule="evenodd" fill="#0000FF" fill-opacity="1" stroke="#404040" stroke-opacity="1" stroke-width="0.1" stroke-linecap="round" stroke-linejoin="round"/>
<path id="path_eab9187126b2d96dd3ba7ea739aba50c" d="M 212.5059 45.37907 L 212.8655 43.61794 L 212.1669 43.61794 L 212.1669 43.00197 L 212.9896 43.00197 L 213.2955 41.50129 L 212.1669 41.50129 L 212.1669 40.88529 L 213.4195 40.88529 L 213.7792 39.11176 L 214.3993 39.11176 L 214.0396 40.88529 L 215.3419 40.88529 L 215.7016 39.11176 L 216.3258 39.11176 L 215.9661 40.88529 L 216.6814 40.88529 L 216.6814 41.50129 L 215.8421 41.50129 L 215.532 43.00197 L 216.6814 43.00197 L 216.6814 43.61794 L 215.408 43.61794 L 215.0484 45.37907 L 214.4283 45.37907 L 214.7838 43.61794 L 213.4857 43.61794 L 213.126 45.37907 L 212.5059 45.37907 Z M 213.6097 43.00197 L 214.9078 43.00197 L 215.2178 41.50129 L 213.9156 41.50129 L 213.6097 43.00197 Z" fill-rule="evenodd" fill="#0000FF" fill-opacity="1" stroke="#404040" stroke-opacity="1" stroke-width="0.1" stroke-linecap="round" stroke-linejoin="round"/>
<path id="path_8c4ad7dcb382931fb7513bbd0a418824" d="M 219.9432 45.27573 L 219.199 45.27573 L 219.199 40.5339 C 219.0199 40.70477 218.7849 40.87565 218.4942 41.04652 C 218.2034 41.2174 217.9422 41.34556 217.7107 41.431 L 217.7107 40.71166 C 218.1269 40.51598 218.4907 40.27896 218.8022 40.0006 C 219.1136 39.72223 219.3341 39.45213 219.4636 39.19031 L 219.9432 39.19031 L 219.9432 45.27573 Z" fill-rule="evenodd" fill="#0000FF" fill-opacity="1" stroke="#404040" stroke-opacity="1" stroke-width="0.1" stroke-linecap="round" stroke-linejoin="round"/>
</defs>
<g>
<use xlink:href="#path_34c230e8c23400253cce99f4b40d5375"/>
</g>
<g>
<use xlink:href="#path_945ac32a35593868ec778ea7b7e82d26"/>
</g>
<g>
<use xlink:href="#path_917e4f3a425b8c6d9c816fa0a35b8268"/>
</g>
<g>
<use xlink:href="#path_c8be8f3e0b352bcd5ff9e4464a31d3fb"/>
</g>
<g>
<use xlink:href="#path_98d6bfb7572b119973b828e0cfcd4f24"/>
</g>
<g>
<use xlink:href="#path_47c60f18c781def2b706fa85c468e1a4"/>
</g>
<g>
<use xlink:href="#path_683e105bb79d55bfcc5bf2edaae20ae0"/>
</g>
<g>
<use xlink:href="#path_7b9dc051d200dc4ae2e8106d87357bdc"/>
</g>
<g>
<use xlink:href="#path_623ef68f20e38479c9a2c935ac9f50cb"/>
</g>
<g>
<use xlink:href="#path_aa0c1268e5097dc39f75222b3b259332"/>
</g>
<g>
<use xlink:href="#path_529144ccd7329ffd3b025f1e993f1368"/>
</g>
<g>
<use xlink:href="#path_9c134bf718ca7067f8faf13127bfed7e"/>
</g>
<g>
<use xlink:href="#path_1c2eaf747b006bac94e7eebe48a12f89"/>
</g>
<g>
<use xlink:href="#path_a81b3f25dd7f2e9f771df09a433f1a3b"/>
</g>
<g>
<use xlink:href="#path_4462633d290bafce39d9ad0935c2d998"/>
</g>
<g>
<use xlink:href="#path_8d40d163183fb600a61f0747cce43305"/>
</g>
<g>
<use xlink:href="#path_296d33d6a8c8dc52d403321920a540f9"/>
</g>
<g>
<use xlink:href="#path_c72a76496b8a5754d032341a02b29195"/>
</g>
<g>
<use xlink:href="#path_62937abc739f5a3ce4b841b63d1cf170"/>
</g>
<g>
<use xlink:href="#path_99b476fc9dbfd63f23ab3fe6844d9f68"/>
</g>
<g>
<use xlink:href="#path_2dae8ce37bc1b4ee38d6fa8bd199c747"/>
</g>
<g>
<use xlink:href="#path_20d48b34e59aa4689fd6bb2c76316254"/>
</g>
<g>
<use xlink:href="#path_542d3d2e45ade99d41dbe436d8dc85f4"/>
</g>
<g>
<use xlink:href="#path_f4edb747e5524774a26f4b6b115f5b4b"/>
</g>
<g>
<use xlink:href="#path_91e1efa74f4b6f23b57d44520252e1cb"/>
</g>
<g>
<use xlink:href="#path_8ed4f734f5865d612739748b19da04b6"/>
</g>
<g>
<use xlink:href="#path_a09512ee1e39dd6e5793ad76b9079c80"/>
</g>
<g>
<use xlink:href="#path_f8b3f80b4162d96a7b299262d49add7b"/>
</g>
<g>
<use xlink:href="#path_12cff8efb8c178dd0d69903635730662"/>
</g>
<g>
<use xlink:href="#path_269a27d8df15241fbdf059904b89afb4"/>
</g>
<g>
<use xlink:href="#path_6a3dbb0dcd25b1035c322175482cb500"/>
</g>
<g>
<use xlink:href="#path_5f937bd0450747c6b13551d20060621e"/>
</g>
<g>
<use xlink:href="#path_ca596dcd8410c4e73e86662a57bb6225"/>
</g>
<g>
<use xlink:href="#path_3379b4b36b11d0d395fdb111a4a68975"/>
</g>
<g>
<use xlink:href="#path_2bb7731a9708df1d83c3e994f2a3bd86"/>
</g>
<g>
<use xlink:href="#path_5cf4319db2d465b6289a5de02b4de399"/>
</g>
<g>
<use xlink:href="#path_d82651e5ce0acda89fb3399029d81ff6"/>
</g>
<g>
<use xlink:href="#path_e68cd30e2171cf8e8bb060036fe1ac4d"/>
</g>
<g>
<use xlink:href="#path_e43a726ee6b49023a6936c89ef8e53ed"/>
</g>
<g>
<use xlink:href="#path_10e6954a84bbaba0621c3e97844f405f"/>
</g>
<g>
<use xlink:href="#path_dff320d5487f33cb8d559e61e7448053"/>
</g>
<g>
<use xlink:href="#path_21a30cf46e6a4341c5422e2e720752ad"/>
</g>
<g>
<use xlink:href="#path_01ab31536bb3d55020850177e99b3994"/>
</g>
<g>
<use xlink:href="#path_598f059eceab18ac0413da23bb593754"/>
</g>
<g>
<use xlink:href="#path_7e3128a73ac9505bb6d09e359d9fb01f"/>
</g>
<g>
<use xlink:href="#path_b684396e32f96a14d74f1fb45454ff13"/>
</g>
<g>
<use xlink:href="#path_64fb955a3313adae3700532d4d9b7a61"/>
</g>
<g>
<use xlink:href="#path_51378105867ac22219470c7791d324c8"/>
</g>
<g>
<use xlink:href="#path_4a42cb9edd91a3e4f762886a4a83c924"/>
</g>
<g>
<use xlink:href="#path_8dc45b8ba1c106a5eb5aa895d01a0a77"/>
</g>
<g>
<use xlink:href="#path_fc3695221821e91412428e1c21036ce0"/>
</g>
<g>
<use xlink:href="#path_c2c7113fb9c8ac1938c733ade6eef14d"/>
</g>
<g>
<use xlink:href="#path_1e8fefb43bccb747859b72b0d29d952f"/>
</g>
<g>
<use xlink:href="#path_6cd2557e7130f1cc26f49c815a719791"/>
</g>
<g>
<use xlink:href="#path_a75b08c7d64ace92d435406dde61231d"/>
</g>
<g>
<use xlink:href="#path_9666ecade06ffca64ef2861c1c0934a0"/>
</g>
<g>
<use xlink:href="#path_a045dfdb729fd56841178ffb30858c43"/>
</g>
<g>
<use xlink:href="#path_16c5ee169b390f383f7e6b6450aba43d"/>
</g>
<g>
<use xlink:href="#path_a04d401ad48075f050c4774ec65cc316"/>
</g>
<g>
<use xlink:href="#path_a151f781840b8a0da4568ec634c2e898"/>
</g>
<g>
<use xlink:href="#path_cfe3868ccc9f98d5c746100ed9274e37"/>
</g>
<g>
<use xlink:href="#path_89d6e850b3a9f85e95722ff4621995bd"/>
</g>
<g>
<use xlink:href="#path_e7cbdf71b00a18e49acecaf4e752d557"/>
</g>
<g>
<use xlink:href="#path_43c235c3c947b5a5766a5bd34f42bba8"/>
</g>
<g>
<use xlink:href="#path_0f995794816b281045d6b9d3de2195c8"/>
</g>
<g>
<use xlink:href="#path_0c958917eaa8c7893900cf6978f59e3c"/>
</g>
<g>
<use xlink:href="#path_6e21682d71c904e6c0c874c7830fb2eb"/>
</g>
<g>
<use xlink:href="#path_e7c501e06293434178ca5796837e3ee6"/>
</g>
<g>
<use xlink:href="#path_545fe6bbe98b9a3ddb7d1cd5b7cd86ba"/>
</g>
<g>
<use xlink:href="#path_299f3308a9301b19cb4f6ed6f89775af"/>
</g>
<g>
<use xlink:href="#path_fb3fe76408c914d2eb7d0ee9d199f642"/>
</g>
<g>
<use xlink:href="#path_d9a48d544d145178a87e14c12ceae26c"/>
</g>
<g>
<use xlink:href="#path_c95875a555e29dc3dc595bc4524a4c05"/>
</g>
<g>
<use xlink:href="#path_254e9a480a49ff2b5bee69431b4db892"/>
</g>
<g>
<use xlink:href="#path_d68300a67519a707b2615ccfec34c93d"/>
</g>
<g>
<use xlink:href="#path_3f460bf09f98574f152992e172581764"/>
</g>
<g>
<use xlink:href="#path_71db9f90002127686e4becf738dc4a6a"/>
</g>
<g>
<use xlink:href="#path_656c48a7bbfa316a1d9a7d8087092fcc"/>
</g>
<g>
<use xlink:href="#path_99ec7fea9bc94ffdcd1cb4985add0954"/>
</g>
<g>
<use xlink:href="#path_e7e11db5de1f1c8643ef0bc31e7b2684"/>
</g>
<g>
<use xlink:href="#path_363be8ce26d81c8b0ecbac5ea109f33c"/>
</g>
<g>
<use xlink:href="#path_b2f414f75d66e08a218ef4f9c5e2658f"/>
</g>
<g>
<use xlink:href="#path_d1c5a51f1c0275d0ce2497ca5a8a563d"/>
</g>
<g>
<use xlink:href="#path_225f18e8dd831aac0a14e4f55a20e7e2"/>
</g>
<g>
<use xlink:href="#path_0b9b7b43a62764e667b876938963073c"/>
</g>
<g>
<use xlink:href="#path_adc6e2ca68f0f23497329d3762201364"/>
</g>
<g>
<use xlink:href="#path_6b88306908fdf47bb4d72c3de2396c74"/>
</g>
<g>
<use xlink:href="#path_851b4dbe35d8e72e137dcccd2dd96043"/>
</g>
<g>
<use xlink:href="#path_24c675502ccb05675439a25640fb0ecb"/>
</g>
<g>
<use xlink:href="#path_cdd54d71ab641353e8f5cdd13ffa8528"/>
</g>
<g>
<use xlink:href="#path_74f25093fb9941b1273f6aa0644d0b09"/>
</g>
<g>
<use xlink:href="#path_1f988dabfd564b78c1ffb9f9dfe6b463"/>
</g>
<g>
<use xlink:href="#path_2f31cf06630b3d3e503106226ead7c93"/>
</g>
<g>
<use xlink:href="#path_b6611568554dfa595538a3442feb1d6c"/>
</g>
<g>
<use xlink:href="#path_7001f7a29adbe0d4205f7b51acc5f604"/>
</g>
<g>
<use xlink:href="#path_069cd92fca7aeba2b58ac56be6084b10"/>
</g>
<g>
<use xlink:href="#path_c91eb6b23ceba8bd17fcd3df7437f1f5"/>
</g>
<g>
<use xlink:href="#path_ea1b3a3cce7685a6f4ee166b781fa183"/>
</g>
<g>
<use xlink:href="#path_6ad9bd35b7c3b49ae1a8550ae2bfe4ef"/>
</g>
<g>
<use xlink:href="#path_9fd5650818c18353d66f47ad0e087f45"/>
</g>
<g>
<use xlink:href="#path_f6e695c71a76f57574d64b5a2c7e4377"/>
</g>
<g>
<g>
<use xlink:href="#path_a131d5ded91747237d26434b2f6014cf"/>
</g>
<g>
<use xlink:href="#path_4472503813757948ddaa98ac6ff1095a"/>
</g>
<g>
<use xlink:href="#path_1924ca87c344e25ab37796f706152caf"/>
</g>
<g>
<use xlink:href="#path_d85c254c74eb04e5954684df43308e18"/>
</g>
<g>
<use xlink:href="#path_506ea3906e10485b98dfead7cdc51353"/>
</g>
<g>
<use xlink:href="#path_114d7e2c705d2b050322ca4d803ffbaf"/>
</g>
<g>
<use xlink:href="#path_3379bfeeb3fbad36bc8bcfb75ff564da"/>
</g>
</g>
<g>
<use xlink:href="#path_ba5a08e974f827df6813c21162fb501c"/>
</g>
<g>
<use xlink:href="#path_351f0f35b2f6bb5131b2f34a73a6e8eb"/>
</g>
<g>
<use xlink:href="#path_f9c0e21ba369a75ec273bb8eae383f3a"/>
</g>
<g>
<use xlink:href="#path_99fc3de2dab4330cd7cdb0d240f7b757"/>
</g>
<g>
<use xlink:href="#path_987170b8d9c066da90e77504ca8c3a42"/>
</g>
<g>
<use xlink:href="#path_78bf385fa19cc7bf3830eee39581ed84"/>
</g>
<g>
<use xlink:href="#path_86a5350cba571c82175a7e74bffee5f6"/>
</g>
<g>
<use xlink:href="#path_c33cb6ec692832775a1ef1ba71eb8022"/>
</g>
<g>
<use xlink:href="#path_c07b4ddebc55ec1706075bcc71a62c1b"/>
</g>
<g>
<use xlink:href="#path_de5ea72c28265a86c660ea066cdfa80c"/>
</g>
<g>
<use xlink:href="#path_55d5cb530c121d9b6f418b3784affd1b"/>
</g>
<g>
<use xlink:href="#path_ced4ae6b5e63274644d5f7bac6cef320"/>
</g>
<g>
<use xlink:href="#path_4052eaf1e5a22f23ede704efeddd50e4"/>
</g>
<g>
<use xlink:href="#path_71ecaa9e7ab2437260472bc7e6f24ea9"/>
</g>
<g>
<use xlink:href="#path_e634ed68190083586e40e0485fdaeb9b"/>
</g>
<g>
<use xlink:href="#path_257ebcf4206a508d67671f9b0f7c2a8c"/>
</g>
<g>
<use xlink:href="#path_48077fb149e4f56cc09b4a79bceb02e1"/>
</g>
<g>
<use xlink:href="#path_feea7b2ecf00989588a48a577c5f7199"/>
</g>
<g>
<use xlink:href="#path_47c74ccd00d08e7bcec27bdade48f495"/>
</g>
<g>
<use xlink:href="#path_0e23f7e2af59aafdf26cb192a0e91277"/>
</g>
<g>
<use xlink:href="#path_b068992b5eb99e59c1648fa412397eec"/>
</g>
<g>
<use xlink:href="#path_9d47351fec7aa32453ab588062bd37e1"/>
</g>
<g>
<use xlink:href="#path_dd9f162bec9728410ffafdbb50d510f4"/>
</g>
<g>
<use xlink:href="#path_c2e6725629b82719fdf523ce72e5bde6"/>
</g>
<g>
<use xlink:href="#path_251339d45fe81b97f82d91e151d7b41a"/>
</g>
<g>
<use xlink:href="#path_a936b8c465d909c8f3dc48fe8bf3bc55"/>
</g>
<g>
<use xlink:href="#path_ce636363dc4d8ffde4e425f9ff4d8392"/>
</g>
<g>
<use xlink:href="#path_c2e5d4ee948d2ecb67524f5e97249f27"/>
</g>
<g>
<use xlink:href="#path_2482c0bd7e6143f3f4e58a7b8425b513"/>
</g>
<g>
<use xlink:href="#path_fb303a85d26722e70f642d28759d7eea"/>
</g>
<g>
<use xlink:href="#path_b4a8c5f38427b1512d68b71fec2509a6"/>
</g>
<g>
<use xlink:href="#path_003b0bc26892e76a5698467135cf7060"/>
</g>
<g>
<use xlink:href="#path_39a2cf43a0e4d75f4223219ffce441ad"/>
</g>
<g>
<use xlink:href="#path_516f19ddd993e10f04986cefc380263a"/>
</g>
<g>
<g>
<use xlink:href="#path_9a0fc14b79613ce58ac4cc8a5f07c43e"/>
</g>
<g>
<use xlink:href="#path_5792811cc0822cf49e47d19620854379"/>
</g>
<g>
<use xlink:href="#path_10e8d380cce890553ada22677e1242ee"/>
</g>
<g>
<use xlink:href="#path_c8bb90d9e832555304926704ea536fd5"/>
</g>
<g>
<use xlink:href="#path_22b6ca4665023a9caa275f70d14ff172"/>
</g>
<g>
<use xlink:href="#path_0ea220184a39ada6dd36a7199c85ae8e"/>
</g>
<g>
<use xlink:href="#path_398f6f194187ac7a55f318d5472b3dd9"/>
</g>
<g>
<use xlink:href="#path_f822b25e7108166ce24566b7bb8586a5"/>
</g>
<g>
<use xlink:href="#path_17e8c90c3669e7bbe036bcb175f92d4b"/>
</g>
<g>
<use xlink:href="#path_1859b49e1da8211978b7b6780a35c8e8"/>
</g>
<g>
<use xlink:href="#path_8231b30a06b1cd13d8cd0c5af5902288"/>
</g>
<g>
<use xlink:href="#path_c9668bd9c08a6034990f8bb2e1cf51da"/>
</g>
<g>
<use xlink:href="#path_5028c7e89775179e92be8c200f3da4a7"/>
</g>
<g>
<use xlink:href="#path_54ddba57ed80b4967c2ae8d7a77f43b2"/>
</g>
<g>
<use xlink:href="#path_2c09c4423b1dd58156056091f8a9a5e2"/>
</g>
<g>
<use xlink:href="#path_f6f6a206ef0e15c0c270b9a53b0fea26"/>
</g>
<g>
<use xlink:href="#path_7564df247ffc84a548ae7d472061b237"/>
</g>
<g>
<use xlink:href="#path_ac26ce29cbf07b8dbd8ad82dc84e93b6"/>
</g>
<g>
<use xlink:href="#path_eab9187126b2d96dd3ba7ea739aba50c"/>
</g>
<g>
<use xlink:href="#path_8c4ad7dcb382931fb7513bbd0a418824"/>
</g>
</g>
</svg>