<?xml version="1.0" encoding="utf-8"?>
<!DOCTYPE svg PUBLIC "-//W3C//DTD SVG 1.1//EN" "http://www.w3.org/Graphics/SVG/1.1/DTD/svg11.dtd">
<!-- exported from Silhouette Studio® Business Edition V4.4.920ssbe -->
<svg version="1.1" xmlns="http://www.w3.org/2000/svg" xmlns:xlink="http://www.w3.org/1999/xlink" width="304.8mm" height="609.6mm" viewBox="0 0 304.8 609.6">
<defs>
<path id="path_83cfc4db0b97e8fb8a77c1f0a0417cfd" d="M 115.5085 217.2404 L 96.35034 237.6228 M 182.0046 102.2859 L 114.4492 146.2237 M 42.91357 44.72046 L 124.6594 96.3335 M 250.5244 366.8494 L 218.4343 370.3804 M 270.73 31.15076 L 187.3567 78.96945 M 224.2266 184.3123 L 279.4951 123.9186 M 213.9265 129.565 L 275.354 77.99457 M 234.0784 242.7038 L 275.179 213.6352 L 275.1787 213.6352 L 227.2253 306.4399 L 227.2253 306.4398 L 265.7449 300.452 M 147.9834 470.9616 L 232.9648 509.5073" fill-rule="evenodd" fill="none" fill-opacity="1" stroke="#0000FF" stroke-opacity="1" stroke-width="1.058333" stroke-linecap="round" stroke-linejoin="round"/>
<path id="path_4abc1a342121a32c1ed46e355f0a8700" d="M 63.9668 321.4022 L 22.78687 398.4111 L 22.78662 398.4111 L 71.53699 343.4105 M 101.3785 283.0532 L 115.5092 217.2404 L 115.5092 217.2404 L 176.1337 157.8741 L 176.1337 157.8741 L 182.0048 102.2859 M 165.1425 278.0885 L 170.9642 215.0787 L 170.964 215.0787 L 115.5089 217.2404 L 115.5089 217.2404 L 104.7081 192.2764 L 104.7081 192.2764 L 96.35046 237.6228 M 176.1337 157.8741 L 114.4493 146.2238 M 32.08301 206.6274 L 89.04529 158.5858 L 89.04553 158.5857 L 124.66 96.33344 L 124.6598 96.33344 L 33.48779 120.7129 L 33.48767 120.7129 L 32.08276 206.6274 L 32.08264 206.6274 L 62.18762 227.7621 L 62.18774 227.7621 L 43.13098 331.9942 M 166.3456 34.07092 L 42.91333 44.72034 M 230.4491 447.9077 L 250.5243 366.8494 L 250.5245 366.8494 L 227.2255 306.4398 L 227.2257 306.4398 L 234.0787 242.7038 M 187.3571 78.96939 L 275.3541 77.99457 L 275.3544 77.99451 L 270.7306 31.15057 M 213.9269 129.5651 L 224.2267 184.3123 M 275.1791 213.6351 L 279.495 123.9185 M 34.08484 560.3751 L 150.1942 576.3035 L 150.1945 576.3035 L 145.5277 520.6757 M 145.5946 425.1171 L 147.6141 379.1928 L 147.6139 379.1928 L 149.6334 339.1244 L 149.6334 339.1244 L 183.3727 399.7559 L 183.3724 399.7559 L 145.5941 425.1172 L 145.5941 425.1172 L 59.26904 423.8785 L 59.26929 423.8785 L 51.89014 493.0616 M 144.4408 470.9593 L 145.1578 425.098 M 232.9652 509.5073 L 213.1124 455.6097 M 147.9845 470.9616 L 150.684 520.6166" fill-rule="evenodd" fill="none" fill-opacity="1" stroke="#FF0000" stroke-opacity="1" stroke-width="1.058333" stroke-linecap="round" stroke-linejoin="round"/>
<path id="path_0baf6c8b701083bf5c3f813aed5048dd" d="M 183.8973 128.7258 L 181.256 153.73 L 176.1332 157.874 L 176.1334 157.874 L 170.964 215.0786 L 170.964 215.0786 L 175.1752 220.1466 L 170.2101 273.8777 L 170.2101 273.8777 L 165.1429 278.0885 L 165.1427 278.0884 L 115.5092 217.2403 L 115.5096 217.2403 L 119.087 222.7737 L 119.0863 222.7737 L 112.5658 253.1423" fill-rule="evenodd" fill="none" fill-opacity="1" stroke="#414141" stroke-opacity="1" stroke-width="1.058333" stroke-linecap="round" stroke-linejoin="round"/>
<path id="path_fa95abbd57c07db5239c4d52de353235" d="M 112.0624 255.4864 L 106.912 279.4759 L 106.9125 279.4758 L 101.379 283.0531 L 101.3792 283.0531 L 71.53772 343.4103 L 71.53748 343.4103 L 71.93323 349.9874 L 71.93323 349.9875 L 53.12646 371.2054" fill-rule="evenodd" fill="none" fill-opacity="1" stroke="#414141" stroke-opacity="1" stroke-width="1.058333" stroke-linecap="round" stroke-linejoin="round"/>
<path id="path_f0b752ead5a65c87f684de2f89602ee8" d="M 51.34595 373.2148 L 29.36389 398.0147 L 22.78625 398.4108 L 20.87573 392.1052 L 20.87561 392.1052 L 54.17114 329.8392 L 63.96729 321.402 L 96.35083 237.6227 L 92.61353 232.1961 L 95.22241 218.0403" fill-rule="evenodd" fill="none" fill-opacity="1" stroke="#414141" stroke-opacity="1" stroke-width="1.058333" stroke-linecap="round" stroke-linejoin="round"/>
<path id="path_e36600690151caf13758d77673b04087" d="M 95.76025 215.122 L 99.28162 196.0136 L 99.28186 196.0136 L 104.7076 192.2762 L 104.7074 192.2762 L 114.4486 146.2235 L 115.8138 139.7775 L 115.8156 139.7775 L 175.5592 100.9202 L 182.004 102.2857 L 186.1486 107.4085 L 184.203 125.8269" fill-rule="evenodd" fill="none" fill-opacity="1" stroke="#414141" stroke-opacity="1" stroke-width="1.058333" stroke-linecap="round" stroke-linejoin="round"/>
<path id="path_afc39298dec97456baa565c5df4e31df" d="M 116.3434 33.70844 L 150.1066 30.79547 L 150.1058 30.79559 L 166.3451 34.07086 L 166.3453 34.0708 L 124.6595 96.33331 L 124.6595 96.33337 L 126.3895 102.6911 L 107.4799 135.7453" fill-rule="evenodd" fill="none" fill-opacity="1" stroke="#414141" stroke-opacity="1" stroke-width="1.058333" stroke-linecap="round" stroke-linejoin="round"/>
<path id="path_07a465f7d2071f4ac4c67212ccfea1b6" d="M 106.0253 138.2872 L 95.40308 156.8552 L 95.40259 156.8552 L 89.04492 158.5856 L 89.04492 158.5856 L 62.18823 227.762 L 62.18774 227.7621 L 65.70935 234.4056 L 65.70959 234.4054 L 54.05603 298.145" fill-rule="evenodd" fill="none" fill-opacity="1" stroke="#414141" stroke-opacity="1" stroke-width="1.058333" stroke-linecap="round" stroke-linejoin="round"/>
<path id="path_a3ffa4c64a349b268fd31bfbe901f591" d="M 53.51599 301.1008 L 50.2157 319.1531 L 50.21545 319.1531 L 43.13147 331.994 L 43.13123 331.9941 L 32.08301 206.6273 L 32.08301 206.6272 L 27.50073 201.8925 L 27.50146 201.8925 L 28.15234 162.073" fill-rule="evenodd" fill="none" fill-opacity="1" stroke="#414141" stroke-opacity="1" stroke-width="1.058333" stroke-linecap="round" stroke-linejoin="round"/>
<path id="path_b0ac79bc9acfd613bf5680a3331ea8ee" d="M 28.19983 159.1711 L 28.7533 125.2951 L 28.7533 125.2951 L 33.48828 120.7127 L 42.9137 44.72028 L 42.91296 44.72028 L 47.328 39.66284 L 47.32825 39.66278 L 113.3597 33.966" fill-rule="evenodd" fill="none" fill-opacity="1" stroke="#414141" stroke-opacity="1" stroke-width="1.058333" stroke-linecap="round" stroke-linejoin="round"/>
<path id="path_23da87d86d5ec1edca0e8b168c5c04b1" d="M 223.3236 52.96979 L 264.3707 29.427 L 264.3698 29.427 L 270.7299 31.15051 L 270.7301 31.15051 L 277.3815 51.10419 L 277.3812 51.10419 L 278.2755 60.16425" fill-rule="evenodd" fill="none" fill-opacity="1" stroke="#414141" stroke-opacity="1" stroke-width="1.058333" stroke-linecap="round" stroke-linejoin="round"/>
<path id="path_82d260fccbb99097bd1c645aec940fd4" d="M 278.5697 63.14496 L 279.5333 72.90002 L 279.5333 72.90039 L 275.3546 77.99463 L 275.3549 77.99463 L 279.4945 123.9185 L 279.4938 123.9185 L 283.9249 128.796 L 283.9249 128.7959 L 280.3568 202.9789 L 275.1788 213.635 L 265.7445 300.4518 L 250.5238 366.8491 L 250.5238 366.8491 L 253.9269 372.4917 L 244.3124 411.3129" fill-rule="evenodd" fill="none" fill-opacity="1" stroke="#414141" stroke-opacity="1" stroke-width="1.058333" stroke-linecap="round" stroke-linejoin="round"/>
<path id="path_40f71a2d4676ae599461c2c6570a896d" d="M 243.5917 414.2227 L 236.9711 440.9531 L 236.9728 440.9531 L 230.4496 447.9075 L 218.4352 370.3802 L 218.4347 370.3802 L 227.226 306.4396 L 227.226 306.4396 L 223.0912 301.3091 L 225.7284 276.7799" fill-rule="evenodd" fill="none" fill-opacity="1" stroke="#414141" stroke-opacity="1" stroke-width="1.058333" stroke-linecap="round" stroke-linejoin="round"/>
<path id="path_197816b9df50a4bc380ae5c95b12114f" d="M 226.048 273.8073 L 228.9479 246.838 L 228.9479 246.838 L 234.0778 242.7036 L 234.0778 242.7036 L 224.2262 184.3121 L 218.786 180.5947 L 218.786 180.5946 L 210.2096 135.0052 L 210.2096 135.0052 L 213.9271 129.5648 L 187.3566 78.96921 L 189.0809 72.60965 L 189.0812 72.60965 L 220.7719 54.43329" fill-rule="evenodd" fill="none" fill-opacity="1" stroke="#414141" stroke-opacity="1" stroke-width="1.058333" stroke-linecap="round" stroke-linejoin="round"/>
<path id="path_78e53d671ea4065d8495d233e422d7f8" d="M 147.8436 467.661 L 144.4403 470.9592 L 145.5277 520.6757 L 145.5272 520.6757 L 150.5597 524.929 L 150.5599 524.929 L 154.4479 571.2712 L 154.4481 571.2712 L 150.1937 576.3035 L 144.12 580.173 L 144.1198 580.173 L 90.1427 572.7681" fill-rule="evenodd" fill="none" fill-opacity="1" stroke="#414141" stroke-opacity="1" stroke-width="1.058333" stroke-linecap="round" stroke-linejoin="round"/>
<path id="path_a2865825b1bc5668f49d002a87a20045" d="M 87.2627 572.3729 L 38.88586 565.7365 L 34.08545 560.3749 L 34.08569 560.3749 L 51.89075 493.0615 L 47.75183 487.9344 L 47.75146 487.9344 L 50.16223 465.3317" fill-rule="evenodd" fill="none" fill-opacity="1" stroke="#414141" stroke-opacity="1" stroke-width="1.058333" stroke-linecap="round" stroke-linejoin="round"/>
<path id="path_6445a8e0d18043cb6f62522162dd146f" d="M 50.4707 462.4401 L 54.14258 428.0172 L 54.1427 428.0171 L 59.2699 423.8784 L 59.26965 423.8784 L 149.6329 339.1243 L 155.9698 340.93 L 172.3121 370.2984" fill-rule="evenodd" fill="none" fill-opacity="1" stroke="#414141" stroke-opacity="1" stroke-width="1.058333" stroke-linecap="round" stroke-linejoin="round"/>
<path id="path_7e8f81559ef6c234731b589d8222086d" d="M 173.7482 372.8794 L 185.1776 393.4191 L 183.3722 399.7558 L 183.3717 399.7558 L 213.1124 455.6096 L 213.1129 455.6096 L 219.0953 458.3712 L 219.0941 458.3712 L 226.1527 477.5328" fill-rule="evenodd" fill="none" fill-opacity="1" stroke="#414141" stroke-opacity="1" stroke-width="1.058333" stroke-linecap="round" stroke-linejoin="round"/>
<path id="path_f6f0ecc857f29f59c5175916b7636e97" d="M 227.1888 480.3452 L 235.4479 502.7665 L 232.9657 509.5073 L 232.9657 509.5072 L 230.2828 565.3402 L 156.8109 576.1025 L 156.8109 576.1025 L 150.6837 520.6165 L 150.6837 520.6165 L 145.7782 516.2172 L 145.1959 505.4953" fill-rule="evenodd" fill="none" fill-opacity="1" stroke="#414141" stroke-opacity="1" stroke-width="1.058333" stroke-linecap="round" stroke-linejoin="round"/>
<path id="path_2c2cbefcdf6ce5f1fa6df035c921c3e0" d="M 145.1576 425.098 L 146.069 426.0383" fill-rule="evenodd" fill="none" fill-opacity="1" stroke="#414141" stroke-opacity="1" stroke-width="1.058333" stroke-linecap="round" stroke-linejoin="round"/>
<path id="path_397dca439b53a53d156bdc0374f434df" d="M 144.5243 474.8187 L 147.984 470.9616 L 146.0304 425.1364" fill-rule="evenodd" fill="none" fill-opacity="1" stroke="#414141" stroke-opacity="1" stroke-width="1.058333" stroke-linecap="round" stroke-linejoin="round"/>
<path id="path_2bc5378a893bf82d74ef177ffcb5a0f0" d="M 181.5601 9.48204 L 182.3621 9.48204 L 182.3621 12.98362 C 182.3621 13.59271 182.2932 14.0764 182.1554 14.43469 C 182.0176 14.79298 181.7689 15.08443 181.4092 15.30906 C 181.0496 15.53367 180.5776 15.64598 179.9933 15.64598 C 179.4256 15.64598 178.9612 15.54814 178.6001 15.35246 C 178.2391 15.15678 177.9814 14.8736 177.827 14.5029 C 177.6727 14.13221 177.5955 13.62579 177.5955 12.98362 L 177.5955 9.48204 L 178.3976 9.48204 L 178.3976 12.97949 C 178.3976 13.5059 178.4465 13.89381 178.5443 14.14324 C 178.6422 14.39266 178.8103 14.5849 179.0487 14.71995 C 179.2871 14.85499 179.5785 14.92252 179.923 14.92252 C 180.5128 14.92252 180.9331 14.78885 181.1839 14.52151 C 181.4347 14.25417 181.5601 13.74016 181.5601 12.97949 L 181.5601 9.48204 Z" fill-rule="evenodd" fill="#0000FF" fill-opacity="1" stroke="#404040" stroke-opacity="1" stroke-width="0.1" stroke-linecap="round" stroke-linejoin="round"/>
<path id="path_f00bc4810a92d3202f7c24275148d251" d="M 183.6024 17.22521 L 183.6024 11.15222 L 184.2804 11.15222 L 184.2804 11.72272 C 184.4402 11.49948 184.6207 11.33205 184.8219 11.22043 C 185.0231 11.10881 185.267 11.053 185.5537 11.053 C 185.9285 11.053 186.2592 11.14946 186.5458 11.34239 C 186.8325 11.53531 187.0488 11.80747 187.1949 12.15887 C 187.341 12.51027 187.414 12.89543 187.414 13.31435 C 187.414 13.76359 187.3334 14.16804 187.1721 14.52771 C 187.0109 14.88737 186.7767 15.16298 186.4694 15.35453 C 186.1621 15.54608 185.8389 15.64185 185.4999 15.64185 C 185.2519 15.64185 185.0293 15.58949 184.8323 15.48475 C 184.6352 15.38002 184.4733 15.24773 184.3465 15.08788 L 184.3465 17.22521 L 183.6024 17.22521 Z M 184.2762 13.37223 C 184.2762 13.93722 184.3906 14.35477 184.6194 14.62486 C 184.8481 14.89495 185.1251 15.03 185.4503 15.03 C 185.781 15.03 186.0642 14.89013 186.2999 14.61039 C 186.5355 14.33065 186.6533 13.89726 186.6533 13.31022 C 186.6533 12.75074 186.5383 12.33181 186.3081 12.05345 C 186.078 11.77509 185.8031 11.6359 185.4834 11.6359 C 185.1664 11.6359 184.886 11.78405 184.6421 12.08032 C 184.3982 12.3766 184.2762 12.80724 184.2762 13.37223 Z" fill-rule="evenodd" fill="#0000FF" fill-opacity="1" stroke="#404040" stroke-opacity="1" stroke-width="0.1" stroke-linecap="round" stroke-linejoin="round"/>
<path id="path_458001f4d31a46704b0a881a41fe0471" d="M 188.3111 17.22521 L 188.3111 11.15222 L 188.9891 11.15222 L 188.9891 11.72272 C 189.1489 11.49948 189.3295 11.33205 189.5307 11.22043 C 189.7318 11.10881 189.9758 11.053 190.2624 11.053 C 190.6372 11.053 190.9679 11.14946 191.2546 11.34239 C 191.5412 11.53531 191.7575 11.80747 191.9036 12.15887 C 192.0497 12.51027 192.1227 12.89543 192.1227 13.31435 C 192.1227 13.76359 192.0421 14.16804 191.8809 14.52771 C 191.7197 14.88737 191.4854 15.16298 191.1781 15.35453 C 190.8708 15.54608 190.5476 15.64185 190.2086 15.64185 C 189.9606 15.64185 189.738 15.58949 189.541 15.48475 C 189.3439 15.38002 189.182 15.24773 189.0552 15.08788 L 189.0552 17.22521 L 188.3111 17.22521 Z M 188.985 13.37223 C 188.985 13.93722 189.0993 14.35477 189.3281 14.62486 C 189.5568 14.89495 189.8338 15.03 190.159 15.03 C 190.4898 15.03 190.7729 14.89013 191.0086 14.61039 C 191.2442 14.33065 191.362 13.89726 191.362 13.31022 C 191.362 12.75074 191.247 12.33181 191.0169 12.05345 C 190.7867 11.77509 190.5118 11.6359 190.1921 11.6359 C 189.8752 11.6359 189.5947 11.78405 189.3508 12.08032 C 189.1069 12.3766 188.985 12.80724 188.985 13.37223 Z" fill-rule="evenodd" fill="#0000FF" fill-opacity="1" stroke="#404040" stroke-opacity="1" stroke-width="0.1" stroke-linecap="round" stroke-linejoin="round"/>
<path id="path_8c2e2b68e61cb9ca6b9423455da9dc11" d="M 196.0253 14.12877 L 196.7942 14.22385 C 196.673 14.67309 196.4484 15.02173 196.1204 15.26978 C 195.7924 15.51783 195.3735 15.64185 194.8636 15.64185 C 194.2215 15.64185 193.7123 15.4441 193.3361 15.04861 C 192.9599 14.65311 192.7718 14.09845 192.7718 13.38463 C 192.7718 12.646 192.9619 12.07274 193.3423 11.66485 C 193.7226 11.25695 194.216 11.053 194.8223 11.053 C 195.4093 11.053 195.8889 11.25281 196.2609 11.65244 C 196.633 12.05207 196.8191 12.61431 196.8191 13.33916 C 196.8191 13.38325 196.8177 13.4494 196.8149 13.53759 L 193.5407 13.53759 C 193.5683 14.01991 193.7047 14.38922 193.95 14.64553 C 194.1953 14.90184 194.5012 15.03 194.8678 15.03 C 195.1406 15.03 195.3735 14.95835 195.5664 14.81503 C 195.7594 14.67171 195.9123 14.44296 196.0253 14.12877 Z M 193.5821 12.92575 L 196.0336 12.92575 C 196.0005 12.55643 195.9068 12.27945 195.7525 12.09479 C 195.5154 11.80816 195.2081 11.66485 194.8306 11.66485 C 194.4888 11.66485 194.2015 11.77922 193.9686 12.00798 C 193.7357 12.23673 193.6069 12.54265 193.5821 12.92575 Z" fill-rule="evenodd" fill="#0000FF" fill-opacity="1" stroke="#404040" stroke-opacity="1" stroke-width="0.1" stroke-linecap="round" stroke-linejoin="round"/>
<path id="path_63c892c40a61010dfaff63b8191d427d" d="M 197.7203 15.54263 L 197.7203 11.15222 L 198.39 11.15222 L 198.39 11.81781 C 198.5609 11.50637 198.7187 11.30104 198.8634 11.20183 C 199.0081 11.10261 199.1672 11.053 199.3408 11.053 C 199.5916 11.053 199.8466 11.13292 200.1057 11.29278 L 199.8493 11.98317 C 199.6674 11.87568 199.4855 11.82194 199.3036 11.82194 C 199.141 11.82194 198.9949 11.87086 198.8654 11.9687 C 198.7359 12.06654 198.6436 12.20228 198.5885 12.37591 C 198.5058 12.64049 198.4644 12.92988 198.4644 13.24407 L 198.4644 15.54263 L 197.7203 15.54263 Z" fill-rule="evenodd" fill="#0000FF" fill-opacity="1" stroke="#404040" stroke-opacity="1" stroke-width="0.1" stroke-linecap="round" stroke-linejoin="round"/>
<path id="path_8b0fdd47128b15516b09df1cbc2d3317" d="M 203.0202 15.54263 L 203.0202 9.48204 L 203.8222 9.48204 L 203.8222 11.97077 L 206.9724 11.97077 L 206.9724 9.48204 L 207.7744 9.48204 L 207.7744 15.54263 L 206.9724 15.54263 L 206.9724 12.68597 L 203.8222 12.68597 L 203.8222 15.54263 L 203.0202 15.54263 Z" fill-rule="evenodd" fill="#0000FF" fill-opacity="1" stroke="#404040" stroke-opacity="1" stroke-width="0.1" stroke-linecap="round" stroke-linejoin="round"/>
<path id="path_bacc56989a43a42f7d3334fb0e71d1c7" d="M 212.0201 14.12877 L 212.789 14.22385 C 212.6678 14.67309 212.4432 15.02173 212.1152 15.26978 C 211.7872 15.51783 211.3683 15.64185 210.8584 15.64185 C 210.2163 15.64185 209.7071 15.4441 209.3309 15.04861 C 208.9547 14.65311 208.7666 14.09845 208.7666 13.38463 C 208.7666 12.646 208.9567 12.07274 209.3371 11.66485 C 209.7174 11.25695 210.2108 11.053 210.8171 11.053 C 211.4041 11.053 211.8837 11.25281 212.2558 11.65244 C 212.6278 12.05207 212.8139 12.61431 212.8139 13.33916 C 212.8139 13.38325 212.8125 13.4494 212.8097 13.53759 L 209.5355 13.53759 C 209.5631 14.01991 209.6995 14.38922 209.9448 14.64553 C 210.1901 14.90184 210.496 15.03 210.8626 15.03 C 211.1354 15.03 211.3683 14.95835 211.5612 14.81503 C 211.7542 14.67171 211.9071 14.44296 212.0201 14.12877 Z M 209.5769 12.92575 L 212.0284 12.92575 C 211.9953 12.55643 211.9016 12.27945 211.7473 12.09479 C 211.5102 11.80816 211.2029 11.66485 210.8254 11.66485 C 210.4836 11.66485 210.1963 11.77922 209.9634 12.00798 C 209.7305 12.23673 209.6017 12.54265 209.5769 12.92575 Z" fill-rule="evenodd" fill="#0000FF" fill-opacity="1" stroke="#404040" stroke-opacity="1" stroke-width="0.1" stroke-linecap="round" stroke-linejoin="round"/>
<path id="path_951765582b935e5d6be53f49775c6252" d="M 216.5883 15.00106 C 216.3127 15.23533 216.0474 15.40069 215.7925 15.49715 C 215.5375 15.59362 215.264 15.64185 214.9718 15.64185 C 214.4895 15.64185 214.1189 15.52403 213.8598 15.28838 C 213.6007 15.05274 213.4712 14.75164 213.4712 14.38508 C 213.4712 14.17011 213.5201 13.97374 213.618 13.79597 C 213.7158 13.61821 213.8439 13.47558 214.0024 13.3681 C 214.1609 13.26061 214.3393 13.1793 214.5378 13.12418 C 214.6838 13.0856 214.9043 13.04839 215.1992 13.01256 C 215.8 12.9409 216.2424 12.85547 216.5263 12.75625 C 216.529 12.65427 216.5304 12.58951 216.5304 12.56194 C 216.5304 12.25878 216.4601 12.04518 216.3196 11.92116 C 216.1294 11.75304 215.8469 11.66898 215.4721 11.66898 C 215.1221 11.66898 214.8637 11.7303 214.6969 11.85295 C 214.5302 11.97559 214.4069 12.19263 214.327 12.50407 L 213.5993 12.40485 C 213.6655 12.09341 213.7743 11.84192 213.9259 11.65038 C 214.0775 11.45883 214.2966 11.31138 214.5833 11.20803 C 214.8699 11.10468 215.202 11.053 215.5796 11.053 C 215.9544 11.053 216.2589 11.0971 216.4932 11.18529 C 216.7275 11.27348 216.8997 11.38442 217.01 11.51809 C 217.1202 11.65175 217.1974 11.82056 217.2415 12.02451 C 217.2663 12.15129 217.2787 12.38004 217.2787 12.71077 L 217.2787 13.70296 C 217.2787 14.39473 217.2945 14.83225 217.3262 15.01553 C 217.3579 15.19881 217.4206 15.37451 217.5143 15.54263 L 216.7371 15.54263 C 216.66 15.38829 216.6103 15.20777 216.5883 15.00106 Z M 216.5263 13.33916 C 216.2562 13.4494 215.851 13.5431 215.3109 13.62028 C 215.0049 13.66437 214.7886 13.71398 214.6618 13.7691 C 214.535 13.82422 214.4372 13.90484 214.3683 14.01095 C 214.2994 14.11706 214.2649 14.23488 214.2649 14.36441 C 214.2649 14.56285 214.34 14.72821 214.4902 14.8605 C 214.6404 14.9928 214.8602 15.05894 215.1496 15.05894 C 215.4362 15.05894 215.6912 14.99624 215.9144 14.87084 C 216.1377 14.74544 216.3017 14.57387 216.4064 14.35614 C 216.4863 14.18802 216.5263 13.93998 216.5263 13.61201 L 216.5263 13.33916 Z" fill-rule="evenodd" fill="#0000FF" fill-opacity="1" stroke="#404040" stroke-opacity="1" stroke-width="0.1" stroke-linecap="round" stroke-linejoin="round"/>
<path id="path_ff1b8c873607a47362e3ffc516832950" d="M 221.2804 15.54263 L 221.2804 14.98866 C 221.0021 15.42412 220.5928 15.64185 220.0526 15.64185 C 219.7026 15.64185 219.3808 15.54539 219.0873 15.35246 C 218.7938 15.15954 218.5664 14.89013 218.4052 14.54425 C 218.244 14.19836 218.1633 13.8008 218.1633 13.35156 C 218.1633 12.91334 218.2364 12.51578 218.3825 12.15887 C 218.5285 11.80196 218.7477 11.52842 219.0398 11.33825 C 219.3319 11.14808 219.6585 11.053 220.0196 11.053 C 220.2841 11.053 220.5198 11.10881 220.7265 11.22043 C 220.9332 11.33205 221.1013 11.47743 221.2309 11.65658 L 221.2309 9.48204 L 221.9708 9.48204 L 221.9708 15.54263 L 221.2804 15.54263 Z M 218.9282 13.35156 C 218.9282 13.9138 219.0467 14.3341 219.2837 14.61246 C 219.5207 14.89082 219.8005 15.03 220.1229 15.03 C 220.4481 15.03 220.7244 14.89702 220.9518 14.63106 C 221.1792 14.3651 221.2929 13.95927 221.2929 13.41357 C 221.2929 12.81275 221.1771 12.37177 220.9456 12.09066 C 220.7141 11.80954 220.4288 11.66898 220.0898 11.66898 C 219.7591 11.66898 219.4828 11.80403 219.261 12.07412 C 219.0391 12.34422 218.9282 12.77003 218.9282 13.35156 Z" fill-rule="evenodd" fill="#0000FF" fill-opacity="1" stroke="#404040" stroke-opacity="1" stroke-width="0.1" stroke-linecap="round" stroke-linejoin="round"/>
<path id="path_45954c9c47818cc57226130de66b13a1" d="M 177.3558 25.1048 L 177.7154 23.34368 L 177.0168 23.34368 L 177.0168 22.7277 L 177.8394 22.7277 L 178.1454 21.22702 L 177.0168 21.22702 L 177.0168 20.61104 L 178.2694 20.61104 L 178.6291 18.83751 L 179.2492 18.83751 L 178.8895 20.61104 L 180.1917 20.61104 L 180.5514 18.83751 L 181.1757 18.83751 L 180.816 20.61104 L 181.5312 20.61104 L 181.5312 21.22702 L 180.692 21.22702 L 180.3819 22.7277 L 181.5312 22.7277 L 181.5312 23.34368 L 180.2579 23.34368 L 179.8982 25.1048 L 179.2781 25.1048 L 179.6336 23.34368 L 178.3355 23.34368 L 177.9759 25.1048 L 177.3558 25.1048 Z M 178.4596 22.7277 L 179.7577 22.7277 L 180.0677 21.22702 L 178.7655 21.22702 L 178.4596 22.7277 Z" fill-rule="evenodd" fill="#0000FF" fill-opacity="1" stroke="#404040" stroke-opacity="1" stroke-width="0.1" stroke-linecap="round" stroke-linejoin="round"/>
<path id="path_f45bd38d425f61c66b8458d7f225f336" d="M 183.1352 21.71484 C 182.8266 21.60184 182.5978 21.44061 182.449 21.23115 C 182.3001 21.02169 182.2257 20.77089 182.2257 20.47874 C 182.2257 20.03777 182.3842 19.66708 182.7011 19.36667 C 183.0181 19.06626 183.4398 18.91606 183.9662 18.91606 C 184.4953 18.91606 184.9211 19.06971 185.2436 19.37701 C 185.5661 19.68431 185.7273 20.05844 185.7273 20.49942 C 185.7273 20.78054 185.6536 21.02514 185.5061 21.23322 C 185.3587 21.4413 185.1348 21.60184 184.8343 21.71484 C 185.2064 21.83611 185.4896 22.03179 185.6839 22.30188 C 185.8782 22.57198 185.9753 22.89444 185.9753 23.26926 C 185.9753 23.7874 185.7921 24.22286 185.4255 24.57564 C 185.0589 24.92841 184.5766 25.1048 183.9786 25.1048 C 183.3805 25.1048 182.8982 24.92772 182.5316 24.57357 C 182.1651 24.21942 181.9818 23.77776 181.9818 23.24859 C 181.9818 22.85447 182.0817 22.52443 182.2815 22.25848 C 182.4814 21.99252 182.7659 21.8113 183.1352 21.71484 Z M 182.9864 20.45394 C 182.9864 20.74057 183.0787 20.97484 183.2634 21.15674 C 183.448 21.33864 183.6878 21.42959 183.9827 21.42959 C 184.2693 21.42959 184.5043 21.33932 184.6876 21.1588 C 184.8708 20.97828 184.9625 20.75711 184.9625 20.49528 C 184.9625 20.22243 184.8681 19.99299 184.6793 19.80695 C 184.4905 19.62092 184.2556 19.5279 183.9744 19.5279 C 183.6906 19.5279 183.4549 19.61885 183.2675 19.80075 C 183.0801 19.98265 182.9864 20.20038 182.9864 20.45394 Z M 182.7466 23.25272 C 182.7466 23.46494 182.7969 23.67027 182.8975 23.86871 C 182.9981 24.06714 183.1476 24.22079 183.3461 24.32966 C 183.5445 24.43852 183.7581 24.49295 183.9868 24.49295 C 184.3424 24.49295 184.6359 24.37858 184.8674 24.14983 C 185.0989 23.92107 185.2147 23.63031 185.2147 23.27753 C 185.2147 22.91924 185.0955 22.62296 184.8571 22.3887 C 184.6187 22.15443 184.3203 22.0373 183.9621 22.0373 C 183.612 22.0373 183.3219 22.15305 183.0918 22.38456 C 182.8617 22.61607 182.7466 22.90546 182.7466 23.25272 Z" fill-rule="evenodd" fill="#0000FF" fill-opacity="1" stroke="#404040" stroke-opacity="1" stroke-width="0.1" stroke-linecap="round" stroke-linejoin="round"/>
</defs>
<g>
<use xlink:href="#path_83cfc4db0b97e8fb8a77c1f0a0417cfd"/>
</g>
<g>
<use xlink:href="#path_4abc1a342121a32c1ed46e355f0a8700"/>
</g>
<g>
<use xlink:href="#path_0baf6c8b701083bf5c3f813aed5048dd"/>
</g>
<g>
<use xlink:href="#path_fa95abbd57c07db5239c4d52de353235"/>
</g>
<g>
<use xlink:href="#path_f0b752ead5a65c87f684de2f89602ee8"/>
</g>
<g>
<use xlink:href="#path_e36600690151caf13758d77673b04087"/>
</g>
<g>
<use xlink:href="#path_afc39298dec97456baa565c5df4e31df"/>
</g>
<g>
<use xlink:href="#path_07a465f7d2071f4ac4c67212ccfea1b6"/>
</g>
<g>
<use xlink:href="#path_a3ffa4c64a349b268fd31bfbe901f591"/>
</g>
<g>
<use xlink:href="#path_b0ac79bc9acfd613bf5680a3331ea8ee"/>
</g>
<g>
<use xlink:href="#path_23da87d86d5ec1edca0e8b168c5c04b1"/>
</g>
<g>
<use xlink:href="#path_82d260fccbb99097bd1c645aec940fd4"/>
</g>
<g>
<use xlink:href="#path_40f71a2d4676ae599461c2c6570a896d"/>
</g>
<g>
<use xlink:href="#path_197816b9df50a4bc380ae5c95b12114f"/>
</g>
<g>
<use xlink:href="#path_78e53d671ea4065d8495d233e422d7f8"/>
</g>
<g>
<use xlink:href="#path_a2865825b1bc5668f49d002a87a20045"/>
</g>
<g>
<use xlink:href="#path_6445a8e0d18043cb6f62522162dd146f"/>
</g>
<g>
<use xlink:href="#path_7e8f81559ef6c234731b589d8222086d"/>
</g>
<g>
<use xlink:href="#path_f6f0ecc857f29f59c5175916b7636e97"/>
</g>
<g>
<use xlink:href="#path_2c2cbefcdf6ce5f1fa6df035c921c3e0"/>
</g>
<g>
<use xlink:href="#path_397dca439b53a53d156bdc0374f434df"/>
</g>
<g>
<g>
<use xlink:href="#path_2bc5378a893bf82d74ef177ffcb5a0f0"/>
</g>
<g>
<use xlink:href="#path_f00bc4810a92d3202f7c24275148d251"/>
</g>
<g>
<use xlink:href="#path_458001f4d31a46704b0a881a41fe0471"/>
</g>
<g>
<use xlink:href="#path_8c2e2b68e61cb9ca6b9423455da9dc11"/>
</g>
<g>
<use xlink:href="#path_63c892c40a61010dfaff63b8191d427d"/>
</g>
<g>
<use xlink:href="#path_8b0fdd47128b15516b09df1cbc2d3317"/>
</g>
<g>
<use xlink:href="#path_bacc56989a43a42f7d3334fb0e71d1c7"/>
</g>
<g>
<use xlink:href="#path_951765582b935e5d6be53f49775c6252"/>
</g>
<g>
<use xlink:href="#path_ff1b8c873607a47362e3ffc516832950"/>
</g>
<g>
<use xlink:href="#path_45954c9c47818cc57226130de66b13a1"/>
</g>
<g>
<use xlink:href="#path_f45bd38d425f61c66b8458d7f225f336"/>
</g>
</g>
</svg>