<?xml version="1.0" encoding="utf-8"?>
<!DOCTYPE svg PUBLIC "-//W3C//DTD SVG 1.1//EN" "http://www.w3.org/Graphics/SVG/1.1/DTD/svg11.dtd">
<!-- exported from Silhouette Studio® Business Edition V4.4.920ssbe -->
<svg version="1.1" xmlns="http://www.w3.org/2000/svg" xmlns:xlink="http://www.w3.org/1999/xlink" width="304.8mm" height="609.6mm" viewBox="0 0 304.8 609.6">
<defs>
<path id="path_cf55e895648c0a2c05494e8e7f0311d6" d="M 182.7749 513.0246 L 264.8014 506.2347 M 111.2025 506.0685 L 158.3147 549.4358 M 127.2368 452.1687 L 176.548 510.7226 M 149.5463 407.2441 L 196.7637 465.6099 M 217.1066 413.8882 L 178.5305 371.4457 M 177.2236 234.2255 L 200.6907 257.8275 M 275.0999 197.7561 L 194.5304 183.631 M 213.8292 284.4629 L 263.7246 313.9676 M 88.53162 113.5896 L 120.9115 94.56149 L 120.9114 94.56155 L 122.5189 150.1726 L 122.5187 150.1726 L 98.66406 242.4146 M 60.63452 167.1642 L 74.46997 136.5792 M 123.4819 213.17 L 169.9265 231.2424 M 100.8174 331.6814 L 139.2931 296.6236 M 144.8737 361.8312 L 44.15369 406.2355 M 48.40173 420.4419 L 53.85889 475.3305 M 93.30566 458.0991 L 84.51282 486.467 L 84.51318 486.467 L 25.21802 518.7946" fill-rule="evenodd" fill="none" fill-opacity="1" stroke="#0000FF" stroke-opacity="1" stroke-width="1.058333" stroke-linecap="round" stroke-linejoin="round"/>
<path id="path_271440fc3aa1eb6447f75f8bd52f8322" d="M 237.8059 358.0592 L 217.1068 413.8882 L 217.1071 413.8882 L 196.7642 465.6099 L 196.7639 465.6099 L 176.548 510.7227 L 176.548 510.7227 L 111.2026 506.0685 L 111.2026 506.0685 L 127.2369 452.1687 L 127.2368 452.1687 L 196.7639 465.6099 M 282.2559 446.4931 L 241.5315 359.5856 M 264.8016 506.2347 L 251.593 558.0504 L 251.5933 558.0504 L 182.7753 513.0247 L 182.775 513.0246 L 174.88 555.082 M 217.1068 413.8882 L 149.5465 407.2441 L 149.5465 407.2441 L 178.5308 371.4457 M 97.151 564.9612 L 158.3149 549.4358 M 210.0199 123.35 L 275.4037 147.5979 L 275.4037 147.598 L 275.1001 197.756 L 275.1001 197.7561 L 200.6909 257.8276 L 200.6909 257.8275 L 194.5305 183.6309 L 194.5305 183.631 L 210.0199 123.35 L 210.0198 123.35 L 269.0875 101.9721 L 269.0875 101.9721 L 260.6208 41.79675 M 213.8292 284.463 L 270.493 253.8012 L 270.493 253.8013 L 263.7246 313.9677 M 120.9116 94.56146 L 65.16858 82.66907 M 52.88708 168.0247 L 60.63501 167.1642 L 60.63489 167.1642 L 122.5192 150.1727 L 122.5193 150.1727 L 189.892 146.9536 L 189.892 146.9536 L 169.9266 231.2424 L 169.9265 231.2424 L 139.2932 296.6237 M 88.53149 113.5896 L 122.519 150.1727 L 122.5193 150.1726 L 123.4822 213.17 L 123.4822 213.17 L 98.66455 242.4146 M 33.83862 170.1775 L 43.98914 169.0051 M 74.47058 136.5792 L 39.72925 119.4049 L 39.72925 119.4049 L 24.97668 120.8992 M 60.63489 167.1641 L 39.72913 119.4048 M 50.73523 257.7886 L 122.519 150.1726 M 123.4822 213.17 L 189.892 146.9536 M 21.99023 332.5304 L 61.70483 275.7949 L 61.70496 275.7948 L 100.8179 244.1133 L 100.8176 244.1133 L 100.8176 331.6815 M 115.0663 340.2535 L 144.8738 361.8313 L 144.8735 361.8313 L 103.2438 426.3345 L 103.2443 426.3345 L 48.40247 420.442 L 48.40234 420.442 L 93.30627 458.0991 L 93.30603 458.0991 L 53.85938 475.3306 M 25.21802 518.7946 L 96.52563 543.175" fill-rule="evenodd" fill="none" fill-opacity="1" stroke="#FF0000" stroke-opacity="1" stroke-width="1.058333" stroke-linecap="round" stroke-linejoin="round"/>
<path id="path_e0348f4b568c993e1fdd79d199186a86" d="M 217.1069 413.8879 L 241.5314 359.5854 L 241.5315 359.5854 L 247.9482 362.5865 L 247.9481 362.5865 L 266.6665 402.5323" fill-rule="evenodd" fill="none" fill-opacity="1" stroke="#414141" stroke-opacity="1" stroke-width="1.058333" stroke-linecap="round" stroke-linejoin="round"/>
<path id="path_a07da087047f038ef9a8d1a2ba547950" d="M 267.8398 405.0363 L 283.925 439.363 L 282.2559 446.4929 L 264.8015 506.2345 L 266.6364 517.4038 L 257.1101 554.7745 L 251.5929 558.0501 L 174.88 555.0817 L 174.88 555.0818 L 171.2579 549.7855 L 177.4789 516.6464 L 182.775 513.0244 L 196.7639 465.6097" fill-rule="evenodd" fill="none" fill-opacity="1" stroke="#414141" stroke-opacity="1" stroke-width="1.058333" stroke-linecap="round" stroke-linejoin="round"/>
<path id="path_55aae679dfb9bee6e77bf936dfe16d7e" d="M 187.1825 498.0854 L 182.5438 508.4375 L 182.5433 508.4375 L 176.5477 510.7224 L 176.5482 510.7224 L 158.3154 549.4355 L 158.3148 549.4355 L 155.0336 554.9493 L 129.5179 561.426" fill-rule="evenodd" fill="none" fill-opacity="1" stroke="#414141" stroke-opacity="1" stroke-width="1.058333" stroke-linecap="round" stroke-linejoin="round"/>
<path id="path_bfbe4c29f79b3b9e4d9cc9d70e55256d" d="M 128.1316 561.7778 L 104.3961 567.8026 L 97.15088 564.9609 L 111.2028 506.0682 L 111.2029 506.0682 L 108.1478 500.4258 L 108.1473 500.4258 L 121.5945 455.2234 L 121.5946 455.2234 L 127.2368 452.1684 L 149.5464 407.2438 L 148.8754 400.8627 L 156.5859 391.3393" fill-rule="evenodd" fill="none" fill-opacity="1" stroke="#414141" stroke-opacity="1" stroke-width="1.058333" stroke-linecap="round" stroke-linejoin="round"/>
<path id="path_3fe46ec46c6d8950f2d3dd9482fa03d8" d="M 158.4938 388.9831 L 172.1495 372.1166 L 172.1495 372.1166 L 178.5306 371.4455 L 178.5306 371.4454 L 237.8059 358.059 L 240.0344 362.9135" fill-rule="evenodd" fill="none" fill-opacity="1" stroke="#414141" stroke-opacity="1" stroke-width="1.058333" stroke-linecap="round" stroke-linejoin="round"/>
<path id="path_005efa4370f8b69c028baef00a2e251b" d="M 269.7084 73.82303 L 272.9479 96.84686 L 272.9479 96.84698 L 269.0874 101.9719 L 275.4036 147.5977 L 275.4034 147.5977 L 279.913 152.1621 L 279.6642 193.2463 L 279.6643 193.2463 L 275.0999 197.7557 L 275.0997 197.7557 L 270.4929 253.8009 L 270.4932 253.801 L 274.4948 258.8167 L 274.4948 258.8167 L 271.7598 283.1278" fill-rule="evenodd" fill="none" fill-opacity="1" stroke="#414141" stroke-opacity="1" stroke-width="1.058333" stroke-linecap="round" stroke-linejoin="round"/>
<path id="path_3ec0e39d95793b0d7f777b146417240c" d="M 271.4407 285.9645 L 268.7405 309.9659 L 263.725 313.9673 L 263.7245 313.9672 L 257.5098 315.5632 L 257.5099 315.5632 L 215.425 290.6772 L 215.425 290.6772 L 213.8295 284.4626 L 213.8295 284.4626 L 200.6908 257.8272 L 200.6908 257.8271 L 194.2745 257.8088 L 194.2745 257.8088 L 177.2053 240.6414 L 177.2236 234.2252 L 194.53 183.6306 L 194.5305 183.6306 L 191.265 178.1072 L 191.265 178.1071 L 197.6293 153.3397" fill-rule="evenodd" fill="none" fill-opacity="1" stroke="#414141" stroke-opacity="1" stroke-width="1.058333" stroke-linecap="round" stroke-linejoin="round"/>
<path id="path_6e92b4e352821c56f787d8acebe31443" d="M 198.3749 150.4384 L 204.4963 126.6147 L 204.4966 126.6148 L 210.0199 123.3497 L 210.0197 123.3496 L 260.6206 41.79639 L 260.6204 41.79657 L 265.7452 45.65717 L 265.7454 45.65698 L 269.29 70.84955" fill-rule="evenodd" fill="none" fill-opacity="1" stroke="#414141" stroke-opacity="1" stroke-width="1.058333" stroke-linecap="round" stroke-linejoin="round"/>
<path id="path_e290114b59a9d18fff78646934032e2b" d="M 102.2789 242.1185 L 98.66443 242.4145 L 98.66443 242.4145 L 50.73535 257.7885 L 50.73547 257.7885 L 60.63501 167.1641 L 60.63477 167.164 L 57.26147 172.1035 L 57.26135 172.1036 L 52.88696 168.0245 L 52.88696 168.0245 L 43.98914 169.0049 L 43.98914 169.0049 L 40.00293 174.0326 L 40.00256 174.0326 L 38.86621 174.1639 L 38.86658 174.1638 L 33.83862 170.1773 L 33.83875 170.1773 L 24.97681 120.8991 L 24.97632 120.8991 L 29.03308 115.928 L 29.03308 115.9281 L 34.75793 115.3482 L 34.75793 115.348 L 39.72913 119.4047 L 46.43774 117.6601 L 72.4137 130.5013 L 72.4137 130.5013 L 74.47046 136.579 L 74.47046 136.5791 L 122.5192 150.1725 L 114.0862 147.7614 L 114.0862 147.7614 L 88.29578 120.0014 L 88.2959 120.0013 L 88.53174 113.5893 L 88.53137 113.5895 L 65.16821 82.6691 L 65.16833 82.6691 L 70.55212 79.17859 L 70.55225 79.17847 L 92.21118 83.79926" fill-rule="evenodd" fill="none" fill-opacity="1" stroke="#414141" stroke-opacity="1" stroke-width="1.058333" stroke-linecap="round" stroke-linejoin="round"/>
<path id="path_4c8ecee57e3759410778ca3ce226361c" d="M 94.92554 84.3783 L 117.4211 89.17758 L 120.9115 94.56131 L 120.9115 94.56137 L 189.8918 146.9535 L 189.8918 146.9534 L 193.0583 153.2693 L 193.0582 153.2692 L 185.1053 186.8448" fill-rule="evenodd" fill="none" fill-opacity="1" stroke="#414141" stroke-opacity="1" stroke-width="1.058333" stroke-linecap="round" stroke-linejoin="round"/>
<path id="path_bd7b8a7a3b3ec58c5df2dd56a16eaa47" d="M 184.4648 189.5484 L 175.3871 227.8728 L 175.3871 227.873 L 169.9266 231.242 L 169.9266 231.242 L 192.8506 283.4262 L 192.8511 283.4263 L 139.2933 296.6233 L 139.2933 296.6233 L 138.9954 303.0326 L 138.9955 303.0326 L 124.4424 316.2931" fill-rule="evenodd" fill="none" fill-opacity="1" stroke="#414141" stroke-opacity="1" stroke-width="1.058333" stroke-linecap="round" stroke-linejoin="round"/>
<path id="path_99761c3d88b0e5307006cf630d50e489" d="M 122.7306 317.8528 L 110.1761 329.292 L 110.176 329.292 L 100.8176 331.6811 L 100.8175 331.6811 L 21.99011 332.53 L 20.87524 326.2114 L 20.87524 326.2113 L 34.23755 307.1224" fill-rule="evenodd" fill="none" fill-opacity="1" stroke="#414141" stroke-opacity="1" stroke-width="1.058333" stroke-linecap="round" stroke-linejoin="round"/>
<path id="path_9f457c3d76e61b69717827deed6e4485" d="M 35.63513 305.1256 L 55.38586 276.9097 L 55.38586 276.9096 L 61.70459 275.7945 L 61.70508 275.7945 L 63.27942 268.6803 L 63.2793 268.6803 L 93.76733 243.9851" fill-rule="evenodd" fill="none" fill-opacity="1" stroke="#414141" stroke-opacity="1" stroke-width="1.058333" stroke-linecap="round" stroke-linejoin="round"/>
<path id="path_42d3b4db4cc5abf6358621109b9b7082" d="M 95.20544 243.524 L 100.8177 244.1132 L 100.8175 244.1132 L 123.4821 213.1699" fill-rule="evenodd" fill="none" fill-opacity="1" stroke="#414141" stroke-opacity="1" stroke-width="1.058333" stroke-linecap="round" stroke-linejoin="round"/>
<path id="path_255e1633bf9c6188e85f38aff02cab21" d="M 56.70752 534.3555 L 28.04321 524.5551 L 25.21802 518.7942 L 53.85938 475.3303 L 53.85938 475.3303 L 48.89539 471.2645 L 48.89551 471.2645 L 44.33618 425.4053 L 48.40198 420.4417 L 48.40186 420.4416 L 44.15381 406.2353 L 44.15381 406.2353 L 115.0662 340.2532 L 146.6411 298.7519 L 144.8737 361.831 L 144.8735 361.831 L 146.2253 368.1032 L 146.2255 368.1032 L 131.0488 391.6188" fill-rule="evenodd" fill="none" fill-opacity="1" stroke="#414141" stroke-opacity="1" stroke-width="1.058333" stroke-linecap="round" stroke-linejoin="round"/>
<path id="path_a589614a06b69bd08f3e433e015e5202" d="M 129.4282 394.1299 L 111.1537 422.4451 L 103.2441 426.3342 L 103.2441 426.3341 L 93.30591 458.0988 L 96.29626 463.7756 L 90.18994 483.4763 L 90.18982 483.4763 L 84.51294 486.4667 L 96.52551 543.1747 L 96.52588 543.1747 L 90.53503 545.9212 L 90.53491 545.9212 L 58.95166 535.1228" fill-rule="evenodd" fill="none" fill-opacity="1" stroke="#414141" stroke-opacity="1" stroke-width="1.058333" stroke-linecap="round" stroke-linejoin="round"/>
<path id="path_671183a3b8da97819f0d05ce046a70d4" d="M 81.71742 18.15625 L 81.71742 12.09566 L 82.51944 12.09566 L 82.51944 17.44105 L 85.50424 17.44105 L 85.50424 18.15625 L 81.71742 18.15625 Z" fill-rule="evenodd" fill="#0000FF" fill-opacity="1" stroke="#404040" stroke-opacity="1" stroke-width="0.1" stroke-linecap="round" stroke-linejoin="round"/>
<path id="path_7e9a39d046d6261afb7e0474a08e0477" d="M 86.08714 15.96104 C 86.08714 15.148 86.31314 14.5458 86.76514 14.15444 C 87.14272 13.82922 87.60298 13.66662 88.14592 13.66662 C 88.7495 13.66662 89.24284 13.86436 89.62593 14.25986 C 90.00902 14.65535 90.20056 15.20175 90.20056 15.89903 C 90.20056 16.46402 90.11581 16.90844 89.94632 17.23228 C 89.77682 17.55611 89.53015 17.80761 89.20631 17.98675 C 88.88248 18.1659 88.52902 18.25547 88.14592 18.25547 C 87.53133 18.25547 87.03455 18.05841 86.65558 17.66429 C 86.27663 17.27017 86.08714 16.70242 86.08714 15.96104 Z M 86.85196 15.96104 C 86.85196 16.52328 86.97459 16.94427 87.21989 17.22401 C 87.46518 17.50375 87.77385 17.64362 88.14592 17.64362 C 88.51524 17.64362 88.82254 17.50306 89.06783 17.22194 C 89.31311 16.94082 89.43576 16.51226 89.43576 15.93624 C 89.43576 15.39329 89.31242 14.98195 89.06577 14.70221 C 88.81909 14.42247 88.51248 14.2826 88.14592 14.2826 C 87.77386 14.2826 87.46518 14.42178 87.21989 14.70014 C 86.97459 14.9785 86.85196 15.3988 86.85196 15.96104 Z" fill-rule="evenodd" fill="#0000FF" fill-opacity="1" stroke="#404040" stroke-opacity="1" stroke-width="0.1" stroke-linecap="round" stroke-linejoin="round"/>
<path id="path_6627af2219d43ee23db346c6aed04559" d="M 91.88315 18.15625 L 90.53958 13.76583 L 91.30852 13.76583 L 92.00717 16.30004 L 92.26762 17.24261 C 92.27866 17.19576 92.35445 16.89397 92.495 16.33725 L 93.19366 13.76583 L 93.95847 13.76583 L 94.61578 16.31244 L 94.8349 17.15166 L 95.08707 16.30417 L 95.83948 13.76583 L 96.56294 13.76583 L 95.19043 18.15625 L 94.41736 18.15625 L 93.71869 15.52696 L 93.54919 14.77869 L 92.66037 18.15625 L 91.88315 18.15625 Z" fill-rule="evenodd" fill="#0000FF" fill-opacity="1" stroke="#404040" stroke-opacity="1" stroke-width="0.1" stroke-linecap="round" stroke-linejoin="round"/>
<path id="path_ac96cfaf8794e76ef911f81dce958fca" d="M 100.1927 16.74239 L 100.9616 16.83747 C 100.8403 17.28671 100.6157 17.63535 100.2878 17.8834 C 99.95979 18.13144 99.54086 18.25547 99.03099 18.25547 C 98.38884 18.25547 97.87965 18.05772 97.50345 17.66222 C 97.12724 17.26673 96.93913 16.71207 96.93913 15.99825 C 96.93913 15.25962 97.1293 14.68636 97.50963 14.27846 C 97.88997 13.87056 98.3833 13.66662 98.98964 13.66662 C 99.57668 13.66662 100.0562 13.86643 100.4283 14.26606 C 100.8004 14.66569 100.9864 15.22793 100.9864 15.95277 C 100.9864 15.99687 100.985 16.06302 100.9823 16.15121 L 97.70808 16.15121 C 97.73564 16.63352 97.87206 17.00283 98.11734 17.25915 C 98.36264 17.51546 98.66858 17.64362 99.03513 17.64362 C 99.30798 17.64362 99.54086 17.57196 99.7338 17.42865 C 99.92671 17.28533 100.0797 17.05658 100.1927 16.74239 Z M 97.7494 15.53936 L 100.2009 15.53936 C 100.1679 15.17005 100.0742 14.89307 99.91983 14.70841 C 99.6828 14.42178 99.37549 14.27846 98.99791 14.27846 C 98.65616 14.27846 98.36885 14.39284 98.13597 14.62159 C 97.90308 14.85035 97.77422 15.15627 97.7494 15.53936 Z" fill-rule="evenodd" fill="#0000FF" fill-opacity="1" stroke="#404040" stroke-opacity="1" stroke-width="0.1" stroke-linecap="round" stroke-linejoin="round"/>
<path id="path_4c0efa58c13fef66b9055b677fefc7a5" d="M 101.8876 18.15625 L 101.8876 13.76583 L 102.5574 13.76583 L 102.5574 14.43143 C 102.7282 14.11999 102.886 13.91466 103.0307 13.81544 C 103.1754 13.71623 103.3346 13.66662 103.5082 13.66662 C 103.759 13.66662 104.0139 13.74654 104.273 13.90639 L 104.0167 14.59679 C 103.8348 14.4893 103.6529 14.43556 103.471 14.43556 C 103.3084 14.43556 103.1623 14.48448 103.0328 14.58232 C 102.9032 14.68016 102.8109 14.8159 102.7558 14.98953 C 102.6731 15.25411 102.6318 15.5435 102.6318 15.85769 L 102.6318 18.15625 L 101.8876 18.15625 Z" fill-rule="evenodd" fill="#0000FF" fill-opacity="1" stroke="#404040" stroke-opacity="1" stroke-width="0.1" stroke-linecap="round" stroke-linejoin="round"/>
<path id="path_be84ed9af52e15d9a1bd165211b21ead" d="M 81.34122 25.89529 L 82.06468 25.79607 C 82.08397 26.25909 82.17079 26.57604 82.32513 26.74691 C 82.47946 26.91779 82.69307 27.00323 82.96591 27.00323 C 83.1671 27.00323 83.34074 26.95706 83.48682 26.86473 C 83.63287 26.77241 83.73347 26.64701 83.7886 26.48853 C 83.84372 26.33006 83.87128 26.07719 83.87128 25.72992 L 83.87128 21.55448 L 84.67329 21.55448 L 84.67329 25.68445 C 84.67329 26.19157 84.61197 26.5843 84.48932 26.86267 C 84.36668 27.14103 84.17238 27.35325 83.90642 27.49932 C 83.64046 27.64539 83.32834 27.71843 82.97005 27.71843 C 82.43813 27.71843 82.03091 27.56546 81.74843 27.25954 C 81.46593 26.95362 81.33018 26.49887 81.34122 25.89529 Z" fill-rule="evenodd" fill="#0000FF" fill-opacity="1" stroke="#404040" stroke-opacity="1" stroke-width="0.1" stroke-linecap="round" stroke-linejoin="round"/>
<path id="path_4519696f1ee200b2b9f96a30c91e5690" d="M 88.75365 27.07351 C 88.47804 27.30777 88.21278 27.47314 87.95784 27.5696 C 87.70291 27.66606 87.42937 27.71429 87.13722 27.71429 C 86.65491 27.71429 86.28423 27.59647 86.02516 27.36083 C 85.76608 27.12518 85.63655 26.82408 85.63655 26.45753 C 85.63655 26.24255 85.68547 26.04618 85.78331 25.86842 C 85.88115 25.69065 86.00931 25.54802 86.16779 25.44054 C 86.32625 25.33305 86.50471 25.25175 86.70314 25.19662 C 86.84921 25.15804 87.0697 25.12083 87.36459 25.08501 C 87.96542 25.01335 88.40778 24.92791 88.69164 24.82869 C 88.6944 24.72672 88.69577 24.66195 88.69577 24.63439 C 88.69577 24.33122 88.6255 24.11763 88.48494 23.9936 C 88.29477 23.82548 88.01227 23.74142 87.63745 23.74142 C 87.28743 23.74142 87.02905 23.80275 86.8623 23.92539 C 86.69557 24.04803 86.57224 24.26508 86.49231 24.57651 L 85.76471 24.47729 C 85.83086 24.16586 85.93971 23.91436 86.09129 23.72282 C 86.24289 23.53127 86.46199 23.38382 86.74863 23.28047 C 87.03525 23.17712 87.36736 23.12544 87.74493 23.12544 C 88.11977 23.12544 88.4243 23.16954 88.65857 23.25773 C 88.89284 23.34593 89.06509 23.45686 89.17532 23.59053 C 89.28557 23.7242 89.36275 23.89301 89.40685 24.09695 C 89.43164 24.22373 89.44405 24.45249 89.44405 24.78321 L 89.44405 25.7754 C 89.44405 26.46717 89.4599 26.9047 89.49159 27.08797 C 89.52328 27.27126 89.58598 27.44695 89.67969 27.61507 L 88.90248 27.61507 C 88.82532 27.46074 88.7757 27.28021 88.75365 27.07351 Z M 88.69164 25.4116 C 88.42155 25.52184 88.0164 25.61555 87.47623 25.69272 C 87.1703 25.73682 86.95395 25.78642 86.82716 25.84155 C 86.70039 25.89667 86.60255 25.97728 86.53365 26.08339 C 86.46475 26.1895 86.4303 26.30732 86.4303 26.43686 C 86.4303 26.63529 86.5054 26.80066 86.65561 26.93295 C 86.8058 27.06524 87.0256 27.13139 87.31499 27.13139 C 87.60162 27.13139 87.85655 27.06868 88.0798 26.94328 C 88.30304 26.81788 88.46703 26.64632 88.57175 26.42859 C 88.65167 26.26047 88.69164 26.01242 88.69164 25.68445 L 88.69164 25.4116 Z" fill-rule="evenodd" fill="#0000FF" fill-opacity="1" stroke="#404040" stroke-opacity="1" stroke-width="0.1" stroke-linecap="round" stroke-linejoin="round"/>
<path id="path_3ff150e0d26db1fc5f9154a422367b23" d="M 91.40773 27.61507 L 90.06416 23.22466 L 90.8331 23.22466 L 91.53175 25.75886 L 91.79221 26.70144 C 91.80324 26.65459 91.87903 26.35279 92.01958 25.79607 L 92.71825 23.22466 L 93.48305 23.22466 L 94.14037 25.77127 L 94.35948 26.61049 L 94.61165 25.763 L 95.36404 23.22466 L 96.08752 23.22466 L 94.71501 27.61507 L 93.94194 27.61507 L 93.24327 24.98579 L 93.07378 24.23751 L 92.18495 27.61507 L 91.40773 27.61507 Z" fill-rule="evenodd" fill="#0000FF" fill-opacity="1" stroke="#404040" stroke-opacity="1" stroke-width="0.1" stroke-linecap="round" stroke-linejoin="round"/>
<path id="path_4ceff37cc7ce50cf726a8543f3a50c28" d="M 81.52312 37.17725 L 81.88278 35.41611 L 81.18413 35.41611 L 81.18413 34.80014 L 82.00681 34.80014 L 82.31273 33.29946 L 81.18413 33.29946 L 81.18413 32.68348 L 82.43675 32.68348 L 82.79642 30.90995 L 83.41653 30.90995 L 83.05687 32.68348 L 84.3591 32.68348 L 84.71877 30.90995 L 85.34302 30.90995 L 84.98335 32.68348 L 85.69855 32.68348 L 85.69855 33.29946 L 84.85933 33.29946 L 84.54927 34.80014 L 85.69855 34.80014 L 85.69855 35.41611 L 84.42525 35.41611 L 84.06558 37.17725 L 83.44547 37.17725 L 83.80099 35.41611 L 82.5029 35.41611 L 82.14323 37.17725 L 81.52312 37.17725 Z M 82.62692 34.80014 L 83.92502 34.80014 L 84.23508 33.29946 L 82.93285 33.29946 L 82.62692 34.80014 Z" fill-rule="evenodd" fill="#0000FF" fill-opacity="1" stroke="#404040" stroke-opacity="1" stroke-width="0.1" stroke-linecap="round" stroke-linejoin="round"/>
<path id="path_2c95ba7d1ae24f12ce2f0d3b3e2ca367" d="M 86.15742 35.4864 L 86.93877 35.42025 C 86.99664 35.80059 87.13101 36.08653 87.34184 36.27808 C 87.55269 36.46963 87.80693 36.5654 88.10458 36.5654 C 88.46288 36.5654 88.76604 36.43035 89.01408 36.16026 C 89.26213 35.89016 89.38615 35.53188 89.38615 35.08539 C 89.38615 34.66096 89.26695 34.3261 89.02855 34.08081 C 88.79016 33.83552 88.47803 33.71287 88.09218 33.71287 C 87.8524 33.71287 87.63605 33.7673 87.44313 33.87617 C 87.2502 33.98503 87.09862 34.12628 86.98837 34.29991 L 86.28972 34.20896 L 86.87675 31.09599 L 89.89052 31.09599 L 89.89052 31.80705 L 87.47206 31.80705 L 87.14548 33.43589 C 87.50928 33.18233 87.89099 33.05555 88.29062 33.05555 C 88.81978 33.05555 89.26627 33.23883 89.63007 33.60538 C 89.99387 33.97194 90.17577 34.44323 90.17577 35.01924 C 90.17577 35.5677 90.01591 36.04174 89.69621 36.44137 C 89.3076 36.93195 88.77707 37.17725 88.10458 37.17725 C 87.55338 37.17725 87.10344 37.02291 86.75481 36.71423 C 86.40616 36.40555 86.20703 35.99627 86.15742 35.4864 Z" fill-rule="evenodd" fill="#0000FF" fill-opacity="1" stroke="#404040" stroke-opacity="1" stroke-width="0.1" stroke-linecap="round" stroke-linejoin="round"/>
</defs>
<g>
<use xlink:href="#path_cf55e895648c0a2c05494e8e7f0311d6"/>
</g>
<g>
<use xlink:href="#path_271440fc3aa1eb6447f75f8bd52f8322"/>
</g>
<g>
<use xlink:href="#path_e0348f4b568c993e1fdd79d199186a86"/>
</g>
<g>
<use xlink:href="#path_a07da087047f038ef9a8d1a2ba547950"/>
</g>
<g>
<use xlink:href="#path_55aae679dfb9bee6e77bf936dfe16d7e"/>
</g>
<g>
<use xlink:href="#path_bfbe4c29f79b3b9e4d9cc9d70e55256d"/>
</g>
<g>
<use xlink:href="#path_3fe46ec46c6d8950f2d3dd9482fa03d8"/>
</g>
<g>
<use xlink:href="#path_005efa4370f8b69c028baef00a2e251b"/>
</g>
<g>
<use xlink:href="#path_3ec0e39d95793b0d7f777b146417240c"/>
</g>
<g>
<use xlink:href="#path_6e92b4e352821c56f787d8acebe31443"/>
</g>
<g>
<use xlink:href="#path_e290114b59a9d18fff78646934032e2b"/>
</g>
<g>
<use xlink:href="#path_4c8ecee57e3759410778ca3ce226361c"/>
</g>
<g>
<use xlink:href="#path_bd7b8a7a3b3ec58c5df2dd56a16eaa47"/>
</g>
<g>
<use xlink:href="#path_99761c3d88b0e5307006cf630d50e489"/>
</g>
<g>
<use xlink:href="#path_9f457c3d76e61b69717827deed6e4485"/>
</g>
<g>
<use xlink:href="#path_42d3b4db4cc5abf6358621109b9b7082"/>
</g>
<g>
<use xlink:href="#path_255e1633bf9c6188e85f38aff02cab21"/>
</g>
<g>
<use xlink:href="#path_a589614a06b69bd08f3e433e015e5202"/>
</g>
<g>
<g>
<use xlink:href="#path_671183a3b8da97819f0d05ce046a70d4"/>
</g>
<g>
<use xlink:href="#path_7e9a39d046d6261afb7e0474a08e0477"/>
</g>
<g>
<use xlink:href="#path_6627af2219d43ee23db346c6aed04559"/>
</g>
<g>
<use xlink:href="#path_ac96cfaf8794e76ef911f81dce958fca"/>
</g>
<g>
<use xlink:href="#path_4c0efa58c13fef66b9055b677fefc7a5"/>
</g>
<g>
<use xlink:href="#path_be84ed9af52e15d9a1bd165211b21ead"/>
</g>
<g>
<use xlink:href="#path_4519696f1ee200b2b9f96a30c91e5690"/>
</g>
<g>
<use xlink:href="#path_3ff150e0d26db1fc5f9154a422367b23"/>
</g>
<g>
<use xlink:href="#path_4ceff37cc7ce50cf726a8543f3a50c28"/>
</g>
<g>
<use xlink:href="#path_2c95ba7d1ae24f12ce2f0d3b3e2ca367"/>
</g>
</g>
</svg>