<?xml version="1.0" encoding="utf-8"?>
<!DOCTYPE svg PUBLIC "-//W3C//DTD SVG 1.1//EN" "http://www.w3.org/Graphics/SVG/1.1/DTD/svg11.dtd">
<!-- exported from Silhouette Studio® Business Edition V4.4.920ssbe -->
<svg version="1.1" xmlns="http://www.w3.org/2000/svg" xmlns:xlink="http://www.w3.org/1999/xlink" width="304.8mm" height="609.6mm" viewBox="0 0 304.8 609.6">
<defs>
<path id="path_4add0e7f9bd2657aa3843a0e252e5c44" d="M 130.3318 60.23474 L 115.387 106.6219 L 115.387 106.6218 L 96.01038 163.0689 M 210.5576 187.0243 L 214.1759 197.6197 M 223.0311 241.1288 L 220.2697 224.6251 L 220.2696 224.6252 L 225.9847 241.0712 L 225.9847 241.0712 L 220.9156 257.7278 L 220.9156 257.7278 L 218.582 272.5764 M 215.8803 284.9503 L 212.6781 295.6789 M 203.6124 320.614 L 196.428 338.1945 M 186.0291 358.4366 L 171.8123 383.0093 L 171.8123 383.0093 L 242.5067 363.0983 M 237.7326 118.4923 L 166.3152 101.3551 L 166.3151 101.3552 L 140.9977 80.37357 M 147.3328 404.9627 L 180.1566 445.1514 M 280.5809 100.6511 L 172.2282 38.93457 M 28.04321 50.70905 L 28.04321 234.5984 M 69.41583 231.4397 L 71.14886 110.6492 M 59.92035 461.0333 L 53.98828 517.8223 L 53.98828 517.8223 L 34.61157 461.3752 M 82.07825 487.0941 L 73.86029 535.1315 M 270.4109 494.2301 L 243.8203 443.7017 M 91.28687 564.2232 L 173.317 567.9277 M 255.3923 570.4412 L 274.9704 542.7515 M 92.56464 315.5181 L 92.56464 440.2145 M 185.3375 319.042 L 131.6752 301.6608 M 68.49506 377.7803 L 66.76215 256.9898 M 25.38953 253.831 L 25.38953 437.7206 M 105.469 225.5326 L 83.89899 297.3514 M 184.7346 194.5945 L 142.9978 156.6499 L 142.9979 156.65 L 180.2238 151.0774" fill-rule="evenodd" fill="none" fill-opacity="1" stroke="#FF0000" stroke-opacity="1" stroke-width="1.058333" stroke-linecap="round" stroke-linejoin="round"/>
<path id="path_c80bb169e138e77af41aa342177e5b0e" d="M 130.3318 60.23444 L 86.95142 54.55591 L 86.95148 54.55597 L 96.01038 163.0688 L 96.01025 163.0688 L 121.319 163.4107 M 280.5809 100.6509 L 237.7325 118.4923 L 237.7324 118.4923 L 181.4797 125.3542 M 223.0309 241.1288 L 225.9846 241.0711 L 225.9846 241.0711 L 242.5065 363.0982 L 242.5067 363.0982 L 180.1566 445.1513 M 186.0289 358.4366 L 242.5065 363.0982 M 172.2282 38.93451 L 237.7325 118.4922 M 62.72388 53.46283 L 28.04327 50.7088 M 28.04321 234.5984 L 69.41577 231.4396 M 25.55286 449.085 L 34.61157 461.3751 L 34.61157 461.3751 L 25.55286 569.888 M 91.28668 564.2232 L 82.07819 487.0941 M 112.4162 438.7228 L 177.6967 452.3346 L 177.6968 452.3346 L 173.317 567.9277 M 255.392 570.4412 L 270.4107 494.23 M 185.3375 319.0419 L 144.188 385.825 L 144.1879 385.825 L 92.56445 315.5179 M 171.6865 283.9638 L 131.6752 301.6607 L 131.675 301.6607 L 144.1879 385.825 M 60.07013 434.9664 L 68.49493 377.7803 M 184.7344 194.5945 L 192.1304 235.4229 L 192.1304 235.4229 L 105.4689 225.5326 L 105.4689 225.5326 L 184.7345 194.5945 L 184.7344 194.5945 Z" fill-rule="evenodd" fill="none" fill-opacity="1" stroke="#0000FF" stroke-opacity="1" stroke-width="1.058333" stroke-linecap="round" stroke-linejoin="round"/>
<path id="path_c94641bb16d598a1959f2d2ca042220c" d="M 106.671 167.728 L 100.4635 167.6442 L 100.4636 167.6441 L 96.01038 163.069 L 96.01031 163.069 L 86.95154 175.3592 L 86.95142 175.3592 L 86.95142 54.55615 L 86.95166 54.55609 L 92.54297 50.73486 L 92.54279 50.73486 L 99.00543 51.58093" fill-rule="evenodd" fill="none" fill-opacity="1" stroke="#414141" stroke-opacity="1" stroke-width="1.058333" stroke-linecap="round" stroke-linejoin="round"/>
<path id="path_8833be3a2a41088616868262bec4f49d" d="M 101.9441 51.96552 L 126.4413 55.17218 L 126.4414 55.17212 L 130.3318 60.23474 L 130.3318 60.2348 L 133.2445 65.91602 L 133.2444 65.91595 L 124.3528 93.51465 L 124.3529 93.51471 L 115.387 106.6218 L 115.3869 106.6218 L 121.319 163.4109 L 121.3191 163.4109 L 116.744 167.8641 L 116.7439 167.8641 L 109.6472 167.7682" fill-rule="evenodd" fill="none" fill-opacity="1" stroke="#414141" stroke-opacity="1" stroke-width="1.058333" stroke-linecap="round" stroke-linejoin="round"/>
<path id="path_e41e36e3bf7d9c406535873bd1897ba7" d="M 283.9249 380.5574 L 180.1567 445.1514 L 180.1566 445.1514 L 172.6798 443.134 L 172.6798 443.134 L 158.7779 426.1129" fill-rule="evenodd" fill="none" fill-opacity="1" stroke="#414141" stroke-opacity="1" stroke-width="1.058333" stroke-linecap="round" stroke-linejoin="round"/>
<path id="path_b95fae04888914ded84d67607e97a038" d="M 156.8676 423.7738 L 146.692 411.3151 L 146.692 411.3151 L 147.3329 404.9627 L 171.8123 383.0094 L 170.1655 376.8408 L 170.1654 376.8408 L 179.8605 360.0835 L 186.0291 358.4367 L 186.0291 358.4368 L 196.428 338.1946 L 196.4281 338.1946 L 193.9567 332.3076 L 193.9567 332.3076 L 197.7256 323.0854 L 197.7255 323.0854 L 203.6124 320.6141 L 203.6124 320.6141 L 208.7524 306.7966 L 208.7523 306.7966 L 212.6782 295.679 L 209.6434 290.0619 L 209.6434 290.0618 L 210.2632 287.9853 L 210.2632 287.9853 L 215.8803 284.9505 L 215.8804 284.9505 L 218.5822 272.5765 L 218.5821 272.5765 L 214.8232 267.4158 L 214.8232 267.4158 L 215.7549 261.4868 L 215.755 261.4868 L 220.9158 257.7279 L 223.0311 241.1289 L 223.031 241.1289 L 217.8333 237.4213 L 216.562 229.8228 L 220.2697 224.6252 L 220.2695 224.6252 L 217.3583 209.8789 L 217.3585 209.8789 L 214.1759 197.6198 L 214.1757 197.6199 L 208.4444 194.8064 L 208.4446 194.8064 L 207.7443 192.7558 L 207.7442 192.7558 L 210.5575 187.0243 L 210.5576 187.0243 L 206.2009 176.0685 L 206.2009 176.0685 L 200.5257 162.4619 L 200.5256 162.4619 L 192.6606 145.1752 L 192.6606 145.1753 L 181.4799 125.3542 L 166.3151 101.3552 L 159.9584 101.9504 L 152.4037 95.68954" fill-rule="evenodd" fill="none" fill-opacity="1" stroke="#414141" stroke-opacity="1" stroke-width="1.058333" stroke-linecap="round" stroke-linejoin="round"/>
<path id="path_dfce942e2bd2b9b8da8e8781e10d5a2d" d="M 150.4328 94.05621 L 141.5931 86.7305 L 141.5931 86.7305 L 140.9978 80.37357 L 140.9978 80.37344 L 172.2283 38.93457 L 172.2284 38.93463 L 178.5958 37.36615 L 178.5956 37.36615 L 229.979 66.63336" fill-rule="evenodd" fill="none" fill-opacity="1" stroke="#414141" stroke-opacity="1" stroke-width="1.058333" stroke-linecap="round" stroke-linejoin="round"/>
<path id="path_0c56994b1f3751b624e33a8a1b28dfea" d="M 232.5946 68.12314 L 277.4727 93.68506 L 277.4728 93.685 L 280.5809 100.6511 L 280.581 100.6511 L 278.1486 106.5542 L 278.1485 106.5542 L 243.6356 120.9248 L 243.6356 120.9247 L 237.7325 118.4923 L 237.7326 118.4923 L 225.9848 241.0713 L 225.9848 241.0713 L 232.6432 256.6019 L 232.6434 256.602 L 239.1931 304.9763" fill-rule="evenodd" fill="none" fill-opacity="1" stroke="#414141" stroke-opacity="1" stroke-width="1.058333" stroke-linecap="round" stroke-linejoin="round"/>
<path id="path_207f626243605ad8739dbfdd47070cb7" d="M 239.5914 307.9183 L 246.3748 358.0187 L 246.3747 358.0187 L 242.5066 363.0983 L 283.9249 378.4768" fill-rule="evenodd" fill="none" fill-opacity="1" stroke="#414141" stroke-opacity="1" stroke-width="1.058333" stroke-linecap="round" stroke-linejoin="round"/>
<path id="path_022923371bf24eedad5abe4abdf81119" d="M 75.13812 147.2984 L 74.70587 177.4311 L 74.70569 177.4311 L 69.41577 231.4397 L 69.41589 231.4397 L 65.25812 236.2849 L 65.25818 236.2849 L 51.10992 237.3651" fill-rule="evenodd" fill="none" fill-opacity="1" stroke="#414141" stroke-opacity="1" stroke-width="1.058333" stroke-linecap="round" stroke-linejoin="round"/>
<path id="path_0aa461bc018f2075549497b0b7c21222" d="M 48.48236 237.5657 L 32.88867 238.7563 L 32.88855 238.7563 L 28.0434 234.5985 L 28.04346 234.5985 L 23.52887 225.2481 L 23.52887 120.3335" fill-rule="evenodd" fill="none" fill-opacity="1" stroke="#414141" stroke-opacity="1" stroke-width="1.058333" stroke-linecap="round" stroke-linejoin="round"/>
<path id="path_92ff25d269b9f34ed94fe2e1c5fab138" d="M 23.52887 117.4579 L 23.52887 55.22363 L 23.52875 55.22363 L 28.04333 50.70917 L 28.04346 50.70917 L 32.90125 46.56598 L 44.55597 47.49146" fill-rule="evenodd" fill="none" fill-opacity="1" stroke="#414141" stroke-opacity="1" stroke-width="1.058333" stroke-linecap="round" stroke-linejoin="round"/>
<path id="path_5094529456fd229c5dfe542318cfbb8b" d="M 47.4563 47.72174 L 58.58093 48.6051 L 62.72394 53.46289 L 62.724 53.46283 L 71.1488 110.649 L 71.14893 110.6492 L 75.57513 116.8382 L 75.57507 116.8382 L 75.17816 144.5074" fill-rule="evenodd" fill="none" fill-opacity="1" stroke="#414141" stroke-opacity="1" stroke-width="1.058333" stroke-linecap="round" stroke-linejoin="round"/>
<path id="path_bcd583093d88b08dc70fa76650152aff" d="M 61.38391 490.4769 L 58.94751 513.8011 L 53.98828 517.8223 L 53.98834 517.8223 L 68.93317 564.2095 L 68.93298 564.2095 L 25.5528 569.8881 L 25.55286 569.8881 L 25.55286 449.085 L 31.86554 450.0405 L 35.56714 455.0625 L 35.5672 455.0625 L 34.61169 461.3752 L 59.92041 461.0333 L 59.92047 461.0333 L 63.94159 465.9925 L 63.94153 465.9925 L 61.66187 487.8163" fill-rule="evenodd" fill="none" fill-opacity="1" stroke="#414141" stroke-opacity="1" stroke-width="1.058333" stroke-linecap="round" stroke-linejoin="round"/>
<path id="path_118e76c27b60609d099fc5ffc4e5f055" d="M 147.7003 441.4683 L 174.1989 446.9937 L 174.1988 446.9937 L 177.6968 452.3347 L 177.6969 452.3347 L 243.8203 443.7017 L 243.8203 443.7017 L 249.9178 445.5945 L 258.1669 461.2697" fill-rule="evenodd" fill="none" fill-opacity="1" stroke="#414141" stroke-opacity="1" stroke-width="1.058333" stroke-linecap="round" stroke-linejoin="round"/>
<path id="path_c298fe6bf502c8d1e0f26795bd7015e4" d="M 259.5744 463.9442 L 269.8786 483.5244 L 270.4109 494.2301 L 270.4109 494.2301 L 274.9704 542.7515 L 274.9703 542.7515 L 276.0502 549.0443 L 276.0502 549.0443 L 261.6849 569.3614 L 255.3923 570.4412 L 255.3921 570.4412 L 173.3169 567.9277 L 173.317 567.9277 L 168.6034 572.2342 L 168.6033 572.2342 L 132.1217 570.5866" fill-rule="evenodd" fill="none" fill-opacity="1" stroke="#414141" stroke-opacity="1" stroke-width="1.058333" stroke-linecap="round" stroke-linejoin="round"/>
<path id="path_fa1ec845678fa2a715d630d74b4247a4" d="M 129.2501 570.4569 L 95.59314 568.9369 L 95.5932 568.9369 L 91.28687 564.2232 L 73.86029 535.1315 L 73.86023 535.1315 L 70.17163 529.9205 L 76.86719 490.7828 L 76.86707 490.7828 L 82.07825 487.0941 L 82.07831 487.0941 L 112.4163 438.7229 L 112.4163 438.7229 L 117.7574 435.2248 L 117.7574 435.2248 L 145.277 440.9631" fill-rule="evenodd" fill="none" fill-opacity="1" stroke="#414141" stroke-opacity="1" stroke-width="1.058333" stroke-linecap="round" stroke-linejoin="round"/>
<path id="path_9cfa3966da500cc59aa8be1ca0559679" d="M 88.05005 369.758 L 88.05005 320.0327 L 88.05005 320.0327 L 92.56458 315.5182 L 92.56458 315.5181 L 131.6751 301.6609 L 131.675 301.6608 L 133.9777 295.706 L 133.9778 295.706 L 145.4033 290.6525" fill-rule="evenodd" fill="none" fill-opacity="1" stroke="#414141" stroke-opacity="1" stroke-width="1.058333" stroke-linecap="round" stroke-linejoin="round"/>
<path id="path_f31b01f6205d3dbf48e2517197acc25a" d="M 148.0552 289.4796 L 165.7316 281.6614 L 165.7318 281.6614 L 171.6866 283.964 L 171.6865 283.9639 L 185.3375 319.0421 L 185.3374 319.0421 L 186.8127 325.2538 L 186.8127 325.2538 L 169.6483 353.1108" fill-rule="evenodd" fill="none" fill-opacity="1" stroke="#414141" stroke-opacity="1" stroke-width="1.058333" stroke-linecap="round" stroke-linejoin="round"/>
<path id="path_6fabdfd63a902fbe585ee78ea54f296b" d="M 168.3668 355.1906 L 150.3998 384.3499 L 144.1881 385.8252 L 144.1881 385.825 L 92.56464 440.2147 L 92.5647 440.2147 L 88.05011 428.3723 L 88.05005 428.3723 L 88.05005 372.7509" fill-rule="evenodd" fill="none" fill-opacity="1" stroke="#414141" stroke-opacity="1" stroke-width="1.058333" stroke-linecap="round" stroke-linejoin="round"/>
<path id="path_5224e824f8389c95d23b08af345d0573" d="M 72.49286 341.7281 L 72.92126 371.5913 L 68.495 377.7803 L 68.495 377.7803 L 72.16711 383.8296 L 72.16705 383.8296 L 66.37067 423.1743 L 66.37073 423.1743 L 60.07019 434.9666 L 60.07013 434.9666 L 25.38959 437.7207 L 25.38953 437.7207 L 20.87494 433.206 L 20.87494 347.0878" fill-rule="evenodd" fill="none" fill-opacity="1" stroke="#414141" stroke-opacity="1" stroke-width="1.058333" stroke-linecap="round" stroke-linejoin="round"/>
<path id="path_59f480ccd721ef7664f908153f9126c2" d="M 20.87494 344.0936 L 20.87494 263.1815 L 20.875 263.1814 L 25.38959 253.8311 L 25.38971 253.8311 L 66.76215 256.9899 L 66.76208 256.9899 L 72.052 310.9985 L 72.45569 339.1364" fill-rule="evenodd" fill="none" fill-opacity="1" stroke="#414141" stroke-opacity="1" stroke-width="1.058333" stroke-linecap="round" stroke-linejoin="round"/>
<path id="path_ed587b93e5e97cc90462772d7716fdbc" d="M 161.4122 149.3286 L 175.0906 147.281 L 175.0906 147.281 L 180.2238 151.0775 L 180.2238 151.0774 L 184.7346 194.5946 L 184.7344 194.5947 L 189.9814 198.2323 L 189.9815 198.2321 L 192.8748 214.2046" fill-rule="evenodd" fill="none" fill-opacity="1" stroke="#414141" stroke-opacity="1" stroke-width="1.058333" stroke-linecap="round" stroke-linejoin="round"/>
<path id="path_fb5a33503839260ce7a0f3c7e8ae8f43" d="M 193.4095 217.1562 L 195.7681 230.1761 L 195.7681 230.1761 L 192.1306 235.4231 L 192.1306 235.4231 L 83.89905 297.3516 L 83.89886 297.3515 L 80.87378 291.7291 L 80.87384 291.7292 L 92.41351 253.3071" fill-rule="evenodd" fill="none" fill-opacity="1" stroke="#414141" stroke-opacity="1" stroke-width="1.058333" stroke-linecap="round" stroke-linejoin="round"/>
<path id="path_e95ec3a964510cf8e59a688cfe639762" d="M 93.27118 250.4512 L 99.84662 228.5578 L 105.469 225.5328 L 105.469 225.5326 L 142.9978 156.65 L 142.998 156.65 L 146.7944 151.5168 L 146.7944 151.5168 L 158.4671 149.7695" fill-rule="evenodd" fill="none" fill-opacity="1" stroke="#414141" stroke-opacity="1" stroke-width="1.058333" stroke-linecap="round" stroke-linejoin="round"/>
<path id="path_149f7cc47030ea77ba949dbf27569b17" d="M 207.2972 22.08074 L 207.2972 16.02013 L 208.0992 16.02013 L 208.0992 21.36554 L 211.0841 21.36554 L 211.0841 22.08074 L 207.2972 22.08074 Z" fill-rule="evenodd" fill="#0000FF" fill-opacity="1" stroke="#404040" stroke-opacity="1" stroke-width="0.1" stroke-linecap="round" stroke-linejoin="round"/>
<path id="path_ed03d4f2bd102b0cb5493a2f6fea32fd" d="M 211.667 19.88553 C 211.667 19.07248 211.893 18.47029 212.345 18.07892 C 212.7226 17.7537 213.1828 17.59109 213.7258 17.59109 C 214.3293 17.59109 214.8227 17.78885 215.2058 18.18434 C 215.5889 18.57984 215.7804 19.12623 215.7804 19.82352 C 215.7804 20.38851 215.6957 20.83293 215.5262 21.15677 C 215.3567 21.48061 215.11 21.7321 214.7862 21.91124 C 214.4623 22.09039 214.1089 22.17996 213.7258 22.17996 C 213.1111 22.17996 212.6144 21.9829 212.2354 21.58878 C 211.8565 21.19466 211.667 20.62691 211.667 19.88553 Z M 212.4318 19.88553 C 212.4318 20.44777 212.5544 20.86876 212.7997 21.1485 C 213.045 21.42824 213.3537 21.56811 213.7258 21.56811 C 214.0951 21.56811 214.4024 21.42755 214.6477 21.14643 C 214.893 20.86531 215.0156 20.43674 215.0156 19.86073 C 215.0156 19.31778 214.8923 18.90643 214.6456 18.62669 C 214.3989 18.34695 214.0923 18.20708 213.7258 18.20708 C 213.3537 18.20708 213.045 18.34626 212.7997 18.62463 C 212.5544 18.90299 212.4318 19.32329 212.4318 19.88553 Z" fill-rule="evenodd" fill="#0000FF" fill-opacity="1" stroke="#404040" stroke-opacity="1" stroke-width="0.1" stroke-linecap="round" stroke-linejoin="round"/>
<path id="path_b6d24b98c5658e464b0bb90c605037e8" d="M 217.463 22.08074 L 216.1194 17.69032 L 216.8884 17.69032 L 217.587 20.22453 L 217.8475 21.1671 C 217.8585 21.12025 217.9343 20.81846 218.0748 20.26173 L 218.7735 17.69032 L 219.5383 17.69032 L 220.1957 20.23693 L 220.4147 21.07615 L 220.6669 20.22866 L 221.4194 17.69032 L 222.1428 17.69032 L 220.7703 22.08074 L 219.9972 22.08074 L 219.2985 19.45145 L 219.1291 18.70317 L 218.2402 22.08074 L 217.463 22.08074 Z" fill-rule="evenodd" fill="#0000FF" fill-opacity="1" stroke="#404040" stroke-opacity="1" stroke-width="0.1" stroke-linecap="round" stroke-linejoin="round"/>
<path id="path_9fcf491e5d3e0914eab8ac630fab9556" d="M 225.7726 20.66688 L 226.5415 20.76196 C 226.4203 21.2112 226.1956 21.55984 225.8677 21.80789 C 225.5397 22.05594 225.1208 22.17996 224.6109 22.17996 C 223.9687 22.17996 223.4595 21.98221 223.0833 21.58672 C 222.7071 21.19122 222.519 20.63656 222.519 19.92274 C 222.519 19.18411 222.7092 18.61085 223.0896 18.20295 C 223.4699 17.79505 223.9632 17.59109 224.5695 17.59109 C 225.1566 17.59109 225.6362 17.79091 226.0082 18.19054 C 226.3803 18.59017 226.5663 19.15241 226.5663 19.87726 C 226.5663 19.92136 226.565 19.9875 226.5622 20.0757 L 223.288 20.0757 C 223.3156 20.55801 223.452 20.92732 223.6973 21.18364 C 223.9425 21.43995 224.2485 21.56811 224.615 21.56811 C 224.8879 21.56811 225.1208 21.49645 225.3137 21.35314 C 225.5066 21.20982 225.6596 20.98107 225.7726 20.66688 Z M 223.3293 19.46385 L 225.7808 19.46385 C 225.7478 19.09453 225.6541 18.81755 225.4997 18.63289 C 225.2627 18.34626 224.9554 18.20295 224.5778 18.20295 C 224.2361 18.20295 223.9487 18.31732 223.7159 18.54608 C 223.483 18.77483 223.3541 19.08075 223.3293 19.46385 Z" fill-rule="evenodd" fill="#0000FF" fill-opacity="1" stroke="#404040" stroke-opacity="1" stroke-width="0.1" stroke-linecap="round" stroke-linejoin="round"/>
<path id="path_9e30342131248dfa5910af034827b57f" d="M 227.4675 22.08074 L 227.4675 17.69032 L 228.1373 17.69032 L 228.1373 18.35591 C 228.3082 18.04447 228.4659 17.83914 228.6106 17.73993 C 228.7553 17.64071 228.9145 17.59109 229.0881 17.59109 C 229.3389 17.59109 229.5939 17.67102 229.853 17.83088 L 229.5966 18.52127 C 229.4147 18.41378 229.2328 18.36004 229.0509 18.36004 C 228.8883 18.36004 228.7422 18.40896 228.6127 18.5068 C 228.4832 18.60464 228.3908 18.74038 228.3357 18.91401 C 228.253 19.1786 228.2117 19.46799 228.2117 19.78218 L 228.2117 22.08074 L 227.4675 22.08074 Z" fill-rule="evenodd" fill="#0000FF" fill-opacity="1" stroke="#404040" stroke-opacity="1" stroke-width="0.1" stroke-linecap="round" stroke-linejoin="round"/>
<path id="path_41193442a22fa4a5519a15bf155ba649" d="M 232.3334 20.36095 L 233.0569 20.26173 C 233.0762 20.72475 233.163 21.0417 233.3173 21.21258 C 233.4717 21.38346 233.6853 21.46889 233.9581 21.46889 C 234.1593 21.46889 234.3329 21.42273 234.479 21.3304 C 234.6251 21.23807 234.7257 21.11267 234.7808 20.9542 C 234.8359 20.79572 234.8635 20.54285 234.8635 20.19559 L 234.8635 16.02013 L 235.6655 16.02013 L 235.6655 20.15011 C 235.6655 20.65723 235.6042 21.04997 235.4815 21.32833 C 235.3589 21.6067 235.1646 21.81892 234.8986 21.96499 C 234.6327 22.11106 234.3205 22.1841 233.9622 22.1841 C 233.4303 22.1841 233.0231 22.03113 232.7406 21.72521 C 232.4581 21.41928 232.3224 20.96453 232.3334 20.36095 Z" fill-rule="evenodd" fill="#0000FF" fill-opacity="1" stroke="#404040" stroke-opacity="1" stroke-width="0.1" stroke-linecap="round" stroke-linejoin="round"/>
<path id="path_ffb90551938194e9bc00fd62b702082b" d="M 239.7459 21.53917 C 239.4703 21.77344 239.205 21.9388 238.9501 22.03527 C 238.6951 22.13173 238.4216 22.17996 238.1295 22.17996 C 237.6471 22.17996 237.2764 22.06214 237.0174 21.8265 C 236.7583 21.59085 236.6288 21.28975 236.6288 20.92319 C 236.6288 20.70822 236.6777 20.51185 236.7755 20.33408 C 236.8734 20.15631 237.0015 20.01369 237.16 19.9062 C 237.3185 19.79871 237.4969 19.71741 237.6954 19.66229 C 237.8414 19.6237 238.0619 19.58649 238.3568 19.55067 C 238.9576 19.47901 239.4 19.39357 239.6839 19.29435 C 239.6866 19.19238 239.688 19.12761 239.688 19.10005 C 239.688 18.79688 239.6177 18.58328 239.4772 18.45926 C 239.287 18.29114 239.0045 18.20708 238.6297 18.20708 C 238.2797 18.20708 238.0213 18.2684 237.8545 18.39105 C 237.6878 18.51369 237.5644 18.73073 237.4845 19.04217 L 236.7569 18.94295 C 236.8231 18.63152 236.9319 18.38002 237.0835 18.18848 C 237.2351 17.99693 237.4542 17.84948 237.7408 17.74612 C 238.0275 17.64277 238.3596 17.59109 238.7372 17.59109 C 239.112 17.59109 239.4165 17.63519 239.6508 17.72339 C 239.8851 17.81158 240.0573 17.92251 240.1676 18.05618 C 240.2778 18.18985 240.355 18.35866 240.3991 18.56261 C 240.4239 18.68939 240.4363 18.91815 240.4363 19.24887 L 240.4363 20.24106 C 240.4363 20.93284 240.4521 21.37036 240.4838 21.55364 C 240.5155 21.73692 240.5782 21.91262 240.6719 22.08074 L 239.8947 22.08074 C 239.8175 21.9264 239.7679 21.74588 239.7459 21.53917 Z M 239.6839 19.87726 C 239.4138 19.9875 239.0086 20.08121 238.4684 20.15838 C 238.1625 20.20248 237.9462 20.25209 237.8194 20.30721 C 237.6926 20.36233 237.5948 20.44294 237.5259 20.54905 C 237.457 20.65516 237.4225 20.77298 237.4225 20.90252 C 237.4225 21.10096 237.4976 21.26632 237.6478 21.39861 C 237.798 21.5309 238.0178 21.59705 238.3072 21.59705 C 238.5939 21.59705 238.8488 21.53435 239.072 21.40895 C 239.2953 21.28355 239.4593 21.11198 239.564 20.89425 C 239.6439 20.72613 239.6839 20.47809 239.6839 20.15011 L 239.6839 19.87726 Z" fill-rule="evenodd" fill="#0000FF" fill-opacity="1" stroke="#404040" stroke-opacity="1" stroke-width="0.1" stroke-linecap="round" stroke-linejoin="round"/>
<path id="path_5a961f7e7afba8b1588b957e3e97b4bb" d="M 242.4 22.08074 L 241.0564 17.69032 L 241.8253 17.69032 L 242.524 20.22453 L 242.7845 21.1671 C 242.7955 21.12025 242.8713 20.81846 243.0118 20.26173 L 243.7105 17.69032 L 244.4753 17.69032 L 245.1326 20.23693 L 245.3517 21.07615 L 245.6039 20.22866 L 246.3563 17.69032 L 247.0798 17.69032 L 245.7072 22.08074 L 244.9342 22.08074 L 244.2355 19.45145 L 244.066 18.70317 L 243.1772 22.08074 L 242.4 22.08074 Z" fill-rule="evenodd" fill="#0000FF" fill-opacity="1" stroke="#404040" stroke-opacity="1" stroke-width="0.1" stroke-linecap="round" stroke-linejoin="round"/>
<path id="path_f41ee77271b30530a406f2d28cf51a61" d="M 250.0481 22.08074 L 250.0481 17.69032 L 250.7178 17.69032 L 250.7178 18.35591 C 250.8887 18.04447 251.0465 17.83914 251.1911 17.73993 C 251.3358 17.64071 251.495 17.59109 251.6686 17.59109 C 251.9194 17.59109 252.1744 17.67102 252.4335 17.83088 L 252.1771 18.52127 C 251.9952 18.41378 251.8133 18.36004 251.6314 18.36004 C 251.4688 18.36004 251.3227 18.40896 251.1932 18.5068 C 251.0637 18.60464 250.9714 18.74038 250.9162 18.91401 C 250.8335 19.1786 250.7922 19.46799 250.7922 19.78218 L 250.7922 22.08074 L 250.0481 22.08074 Z" fill-rule="evenodd" fill="#0000FF" fill-opacity="1" stroke="#404040" stroke-opacity="1" stroke-width="0.1" stroke-linecap="round" stroke-linejoin="round"/>
<path id="path_995c7a1f04981d18f9a2f78015a9e310" d="M 255.8813 20.66688 L 256.6502 20.76196 C 256.5289 21.2112 256.3043 21.55984 255.9764 21.80789 C 255.6484 22.05594 255.2295 22.17996 254.7196 22.17996 C 254.0774 22.17996 253.5683 21.98221 253.192 21.58672 C 252.8158 21.19122 252.6277 20.63656 252.6277 19.92274 C 252.6277 19.18411 252.8179 18.61085 253.1982 18.20295 C 253.5786 17.79505 254.0719 17.59109 254.6782 17.59109 C 255.2653 17.59109 255.7449 17.79091 256.1169 18.19054 C 256.489 18.59017 256.675 19.15241 256.675 19.87726 C 256.675 19.92136 256.6737 19.9875 256.6709 20.0757 L 253.3967 20.0757 C 253.4242 20.55801 253.5607 20.92732 253.806 21.18364 C 254.0513 21.43995 254.3572 21.56811 254.7237 21.56811 C 254.9966 21.56811 255.2295 21.49645 255.4224 21.35314 C 255.6153 21.20982 255.7683 20.98107 255.8813 20.66688 Z M 253.438 19.46385 L 255.8895 19.46385 C 255.8565 19.09453 255.7628 18.81755 255.6084 18.63289 C 255.3714 18.34626 255.0641 18.20295 254.6865 18.20295 C 254.3448 18.20295 254.0574 18.31732 253.8246 18.54608 C 253.5917 18.77483 253.4628 19.08075 253.438 19.46385 Z" fill-rule="evenodd" fill="#0000FF" fill-opacity="1" stroke="#404040" stroke-opacity="1" stroke-width="0.1" stroke-linecap="round" stroke-linejoin="round"/>
<path id="path_b0da70b106f9772da51e4e266eec3ca4" d="M 260.4495 21.53917 C 260.1739 21.77344 259.9086 21.9388 259.6537 22.03527 C 259.3987 22.13173 259.1252 22.17996 258.8331 22.17996 C 258.3507 22.17996 257.98 22.06214 257.7209 21.8265 C 257.4619 21.59085 257.3324 21.28975 257.3324 20.92319 C 257.3324 20.70822 257.3813 20.51185 257.4791 20.33408 C 257.577 20.15631 257.7051 20.01369 257.8636 19.9062 C 258.0221 19.79871 258.2006 19.71741 258.399 19.66229 C 258.545 19.6237 258.7655 19.58649 259.0604 19.55067 C 259.6612 19.47901 260.1036 19.39357 260.3875 19.29435 C 260.3902 19.19238 260.3916 19.12761 260.3916 19.10005 C 260.3916 18.79688 260.3214 18.58328 260.1808 18.45926 C 259.9906 18.29114 259.7081 18.20708 259.3333 18.20708 C 258.9832 18.20708 258.7249 18.2684 258.5581 18.39105 C 258.3914 18.51369 258.268 18.73073 258.1881 19.04217 L 257.4605 18.94295 C 257.5266 18.63152 257.6355 18.38002 257.7871 18.18848 C 257.9387 17.99693 258.1578 17.84948 258.4445 17.74612 C 258.7311 17.64277 259.0632 17.59109 259.4407 17.59109 C 259.8156 17.59109 260.1201 17.63519 260.3544 17.72339 C 260.5887 17.81158 260.7609 17.92251 260.8712 18.05618 C 260.9814 18.18985 261.0586 18.35866 261.1027 18.56261 C 261.1275 18.68939 261.1399 18.91815 261.1399 19.24887 L 261.1399 20.24106 C 261.1399 20.93284 261.1558 21.37036 261.1874 21.55364 C 261.2191 21.73692 261.2818 21.91262 261.3755 22.08074 L 260.5983 22.08074 C 260.5211 21.9264 260.4715 21.74588 260.4495 21.53917 Z M 260.3875 19.87726 C 260.1174 19.9875 259.7122 20.08121 259.1721 20.15838 C 258.8661 20.20248 258.6498 20.25209 258.523 20.30721 C 258.3962 20.36233 258.2984 20.44294 258.2295 20.54905 C 258.1606 20.65516 258.1261 20.77298 258.1261 20.90252 C 258.1261 21.10096 258.2012 21.26632 258.3514 21.39861 C 258.5016 21.5309 258.7214 21.59705 259.0108 21.59705 C 259.2974 21.59705 259.5524 21.53435 259.7756 21.40895 C 259.9989 21.28355 260.1628 21.11198 260.2676 20.89425 C 260.3475 20.72613 260.3875 20.47809 260.3875 20.15011 L 260.3875 19.87726 Z" fill-rule="evenodd" fill="#0000FF" fill-opacity="1" stroke="#404040" stroke-opacity="1" stroke-width="0.1" stroke-linecap="round" stroke-linejoin="round"/>
<path id="path_66fa0e402253cfd456d583261b2aa397" d="M 262.285 22.08074 L 262.285 17.69032 L 262.9548 17.69032 L 262.9548 18.35591 C 263.1256 18.04447 263.2834 17.83914 263.4281 17.73993 C 263.5728 17.64071 263.7319 17.59109 263.9056 17.59109 C 264.1564 17.59109 264.4113 17.67102 264.6704 17.83088 L 264.4141 18.52127 C 264.2322 18.41378 264.0503 18.36004 263.8684 18.36004 C 263.7058 18.36004 263.5597 18.40896 263.4302 18.5068 C 263.3007 18.60464 263.2083 18.74038 263.1532 18.91401 C 263.0705 19.1786 263.0292 19.46799 263.0292 19.78218 L 263.0292 22.08074 L 262.285 22.08074 Z" fill-rule="evenodd" fill="#0000FF" fill-opacity="1" stroke="#404040" stroke-opacity="1" stroke-width="0.1" stroke-linecap="round" stroke-linejoin="round"/>
<path id="path_8145aa35c78df1db125a1628c1dc6f4b" d="M 207.1029 31.64295 L 207.4626 29.88182 L 206.7639 29.88182 L 206.7639 29.26583 L 207.5866 29.26583 L 207.8925 27.76515 L 206.7639 27.76515 L 206.7639 27.14916 L 208.0166 27.14916 L 208.3763 25.37563 L 208.9964 25.37563 L 208.6367 27.14916 L 209.9389 27.14916 L 210.2986 25.37563 L 210.9228 25.37563 L 210.5632 27.14916 L 211.2784 27.14916 L 211.2784 27.76515 L 210.4391 27.76515 L 210.1291 29.26583 L 211.2784 29.26583 L 211.2784 29.88182 L 210.0051 29.88182 L 209.6454 31.64295 L 209.0253 31.64295 L 209.3808 29.88182 L 208.0827 29.88182 L 207.723 31.64295 L 207.1029 31.64295 Z M 208.2067 29.26583 L 209.5048 29.26583 L 209.8149 27.76515 L 208.5126 27.76515 L 208.2067 29.26583 Z" fill-rule="evenodd" fill="#0000FF" fill-opacity="1" stroke="#404040" stroke-opacity="1" stroke-width="0.1" stroke-linecap="round" stroke-linejoin="round"/>
<path id="path_99ba2a4a1858fcff14cf952bfd191afb" d="M 211.7414 29.93969 L 212.4855 29.84048 C 212.571 30.26216 212.7164 30.56601 212.9217 30.75205 C 213.127 30.93808 213.3771 31.0311 213.672 31.0311 C 214.022 31.0311 214.3176 30.90983 214.5588 30.6673 C 214.7999 30.42476 214.9205 30.12435 214.9205 29.76606 C 214.9205 29.42431 214.8089 29.1425 214.5856 28.92064 C 214.3624 28.69877 214.0785 28.58784 213.734 28.58784 C 213.5935 28.58784 213.4185 28.6154 213.209 28.67052 L 213.2917 28.01733 C 213.3413 28.02285 213.3812 28.0256 213.4116 28.0256 C 213.7285 28.0256 214.0138 27.94291 214.2673 27.77755 C 214.5209 27.61219 214.6477 27.35725 214.6477 27.01274 C 214.6477 26.73989 214.5553 26.51389 214.3707 26.33475 C 214.186 26.1556 213.9476 26.06602 213.6555 26.06602 C 213.3661 26.06602 213.1249 26.15698 212.932 26.33888 C 212.7391 26.52078 212.6151 26.79363 212.5599 27.15743 L 211.8158 27.02514 C 211.9068 26.52629 212.1134 26.13975 212.4359 25.86552 C 212.7584 25.59129 213.1594 25.45418 213.639 25.45418 C 213.9697 25.45418 214.2742 25.52515 214.5526 25.66709 C 214.831 25.80902 215.0439 26.00264 215.1913 26.24793 C 215.3387 26.49322 215.4125 26.75367 215.4125 27.02928 C 215.4125 27.29111 215.3422 27.5295 215.2016 27.74448 C 215.0611 27.95945 214.853 28.13033 214.5774 28.25711 C 214.9357 28.33979 215.214 28.51136 215.4125 28.77181 C 215.6109 29.03226 215.7101 29.35816 215.7101 29.74953 C 215.7101 30.27869 215.5172 30.72724 215.1313 31.09518 C 214.7455 31.46312 214.2577 31.64708 213.6679 31.64708 C 213.136 31.64708 212.6943 31.48861 212.3429 31.17166 C 211.9915 30.85471 211.791 30.44406 211.7414 29.93969 Z" fill-rule="evenodd" fill="#0000FF" fill-opacity="1" stroke="#404040" stroke-opacity="1" stroke-width="0.1" stroke-linecap="round" stroke-linejoin="round"/>
</defs>
<g>
<use xlink:href="#path_4add0e7f9bd2657aa3843a0e252e5c44"/>
</g>
<g>
<use xlink:href="#path_c80bb169e138e77af41aa342177e5b0e"/>
</g>
<g>
<use xlink:href="#path_c94641bb16d598a1959f2d2ca042220c"/>
</g>
<g>
<use xlink:href="#path_8833be3a2a41088616868262bec4f49d"/>
</g>
<g>
<use xlink:href="#path_e41e36e3bf7d9c406535873bd1897ba7"/>
</g>
<g>
<use xlink:href="#path_b95fae04888914ded84d67607e97a038"/>
</g>
<g>
<use xlink:href="#path_dfce942e2bd2b9b8da8e8781e10d5a2d"/>
</g>
<g>
<use xlink:href="#path_0c56994b1f3751b624e33a8a1b28dfea"/>
</g>
<g>
<use xlink:href="#path_207f626243605ad8739dbfdd47070cb7"/>
</g>
<g>
<use xlink:href="#path_022923371bf24eedad5abe4abdf81119"/>
</g>
<g>
<use xlink:href="#path_0aa461bc018f2075549497b0b7c21222"/>
</g>
<g>
<use xlink:href="#path_92ff25d269b9f34ed94fe2e1c5fab138"/>
</g>
<g>
<use xlink:href="#path_5094529456fd229c5dfe542318cfbb8b"/>
</g>
<g>
<use xlink:href="#path_bcd583093d88b08dc70fa76650152aff"/>
</g>
<g>
<use xlink:href="#path_118e76c27b60609d099fc5ffc4e5f055"/>
</g>
<g>
<use xlink:href="#path_c298fe6bf502c8d1e0f26795bd7015e4"/>
</g>
<g>
<use xlink:href="#path_fa1ec845678fa2a715d630d74b4247a4"/>
</g>
<g>
<use xlink:href="#path_9cfa3966da500cc59aa8be1ca0559679"/>
</g>
<g>
<use xlink:href="#path_f31b01f6205d3dbf48e2517197acc25a"/>
</g>
<g>
<use xlink:href="#path_6fabdfd63a902fbe585ee78ea54f296b"/>
</g>
<g>
<use xlink:href="#path_5224e824f8389c95d23b08af345d0573"/>
</g>
<g>
<use xlink:href="#path_59f480ccd721ef7664f908153f9126c2"/>
</g>
<g>
<use xlink:href="#path_ed587b93e5e97cc90462772d7716fdbc"/>
</g>
<g>
<use xlink:href="#path_fb5a33503839260ce7a0f3c7e8ae8f43"/>
</g>
<g>
<use xlink:href="#path_e95ec3a964510cf8e59a688cfe639762"/>
</g>
<g>
<g>
<use xlink:href="#path_149f7cc47030ea77ba949dbf27569b17"/>
</g>
<g>
<use xlink:href="#path_ed03d4f2bd102b0cb5493a2f6fea32fd"/>
</g>
<g>
<use xlink:href="#path_b6d24b98c5658e464b0bb90c605037e8"/>
</g>
<g>
<use xlink:href="#path_9fcf491e5d3e0914eab8ac630fab9556"/>
</g>
<g>
<use xlink:href="#path_9e30342131248dfa5910af034827b57f"/>
</g>
<g>
<use xlink:href="#path_41193442a22fa4a5519a15bf155ba649"/>
</g>
<g>
<use xlink:href="#path_ffb90551938194e9bc00fd62b702082b"/>
</g>
<g>
<use xlink:href="#path_5a961f7e7afba8b1588b957e3e97b4bb"/>
</g>
<g>
<use xlink:href="#path_f41ee77271b30530a406f2d28cf51a61"/>
</g>
<g>
<use xlink:href="#path_995c7a1f04981d18f9a2f78015a9e310"/>
</g>
<g>
<use xlink:href="#path_b0da70b106f9772da51e4e266eec3ca4"/>
</g>
<g>
<use xlink:href="#path_66fa0e402253cfd456d583261b2aa397"/>
</g>
<g>
<use xlink:href="#path_8145aa35c78df1db125a1628c1dc6f4b"/>
</g>
<g>
<use xlink:href="#path_99ba2a4a1858fcff14cf952bfd191afb"/>
</g>
</g>
</svg>